<svg width="56" height="56" viewBox="0 0 56 56" fill="none" xmlns="http://www.w3.org/2000/svg">
<g clip-path="url(#clip0_589_4877)">
<path d="M28.1018 53.3495C20.0431 53.6312 12.6004 48.6798 9.94894 41.1091C8.50841 36.9925 8.76415 32.881 9.83934 28.7174C10.8728 24.7156 13.3937 21.6894 16.0034 18.6841C18.5139 15.7936 21.2123 13.0491 23.0547 9.63684C24.4117 7.11676 25.4086 4.47668 25.607 1.59137C25.7218 -0.0417253 26.4055 -0.406954 27.7834 0.433072C28.5089 0.876564 29.2292 1.33571 29.9547 1.78442C33.1698 3.75665 34.104 6.95501 34.7512 10.3934C35.2523 13.0596 34.2293 15.4231 33.6343 17.8649C33.3577 18.9919 33.128 20.0511 34.0623 20.8754C34.8086 21.5381 35.8108 22.0964 36.7972 21.5903C37.8828 21.032 38.5144 19.978 38.6657 18.7362C38.7336 18.178 38.6866 17.5988 38.6657 17.0301C38.6292 15.9396 39.2503 15.8666 40.0593 16.1483C40.576 16.3257 40.8996 16.7431 41.1658 17.2075C42.7316 19.9102 44.4801 22.5555 45.3047 25.5869C47.2776 32.8289 46.9384 39.8673 42.5959 46.2588C39.1563 51.3251 34.151 53.4852 28.0914 53.3391L28.1018 53.3495Z" fill="#E3BFA2"/>
<path d="M7.09393 21.4128C7.167 18.9501 8.34657 17.0562 9.54702 15.1831C10.7005 13.3882 11.76 11.5569 12.4229 9.51157C12.6108 8.94286 12.736 8.13414 13.6129 8.10283C14.4741 8.07153 14.6515 8.85938 14.9699 9.38635C16.494 11.896 15.972 15.3657 13.6703 17.8857C11.9897 19.7223 10.617 21.7363 9.69838 24.0477C9.53136 24.4703 9.37478 24.8355 8.86329 24.8825C8.30482 24.9294 7.96034 24.6007 7.74635 24.1625C7.30271 23.2598 7.12525 22.2894 7.09393 21.418V21.4128Z" fill="#E3BFA2"/>
<path d="M46.6618 39.4603C46.286 38.4012 45.383 38.3542 44.8872 37.8168C44.6053 37.5142 44.4801 37.1437 44.6888 36.7994C44.8924 36.4654 45.2786 36.3611 45.6805 36.4654C46.6043 36.7055 47.4394 37.1385 48.1701 37.7333C49.1253 38.5159 49.3184 39.5229 48.452 40.4204C47.5282 41.3804 46.6618 42.2413 46.6931 43.7387C46.7087 44.5161 46.0772 45.1266 45.2003 45.1318C44.1304 45.137 43.4936 44.4535 43.0761 43.5509C42.7055 42.7578 42.8986 42.0795 43.6137 41.5839C44.6053 40.8951 45.7797 40.4569 46.6722 39.4551L46.6618 39.4603Z" fill="black"/>
<path d="M10.4813 37.1177C10.8728 37.1646 11.212 37.3055 11.3529 37.7073C11.4939 38.1038 11.379 38.4325 11.045 38.6882C10.2778 39.2725 8.79024 39.4812 9.21823 40.7856C9.55748 41.8239 10.9197 41.8083 11.8957 42.0848C12.6995 42.3144 13.2371 42.7631 13.4407 43.5666C13.6755 44.4901 13.4041 45.2936 12.5586 45.7319C11.7339 46.1597 10.9824 45.7058 10.7005 44.9701C10.2934 43.8953 9.53139 43.3787 8.58669 42.8779C7.41756 42.2674 6.69207 41.3022 7.13049 39.8673C7.49063 38.6777 9.41134 37.1177 10.4813 37.1177Z" fill="black"/>
<path d="M29.4745 37.5559C31.009 37.6029 32.4234 38.0777 33.6813 38.9646C34.3024 39.4029 34.8452 39.9299 34.8974 40.7751C34.9235 41.1769 34.8191 41.5786 34.5007 41.7769C34.1667 41.9804 33.7596 41.8708 33.4829 41.5578C31.0873 38.8655 28.4776 38.996 25.7166 40.9525C25.2625 41.276 24.7144 41.6569 24.2186 41.0986C23.634 40.4464 24.0412 39.8516 24.5526 39.3977C25.9462 38.1559 27.5903 37.5559 29.4745 37.5611V37.5559Z" fill="black"/>
<path d="M39.5478 53.8138C39.433 55.0974 38.7179 55.5878 37.6584 55.6452C36.4005 55.713 35.2419 54.7321 34.8556 53.2973C34.7095 52.7495 34.5633 52.1181 35.0801 51.7268C35.7116 51.2468 36.1239 51.7842 36.4319 52.2486C36.9695 53.0625 37.8098 52.6451 38.5039 52.8121C39.1355 52.9634 39.4643 53.3286 39.553 53.8191L39.5478 53.8138Z" fill="black"/>
<path d="M20.4346 52.5355C20.0901 53.6051 20.586 55.1756 18.9732 55.7913C18.3625 56.0261 17.6475 56.2035 17.1777 55.5409C16.7967 55.0034 16.995 54.4399 17.4909 54.0643C18.1224 53.5843 18.4878 52.9843 18.6339 52.2016C18.7487 51.5859 18.8009 50.7407 19.7613 51.0068C20.3876 51.179 20.4398 51.8312 20.4294 52.5355H20.4346Z" fill="black"/>
<path d="M24.8084 28.3782C24.8397 28.8165 24.5996 29.0878 24.229 29.2183C23.3052 29.5418 20.7686 28.4043 20.3563 27.4547C20.0692 26.7921 20.4607 26.2234 21.0766 26.3017C22.3762 26.4634 23.514 27.1521 24.5892 27.8878C24.7144 27.9765 24.7405 28.2113 24.8136 28.373L24.8084 28.3782Z" fill="black"/>
<path d="M31.9328 29.2548C31.5204 29.2026 31.2073 28.9887 31.1394 28.5765C31.0194 27.8774 32.747 25.4251 33.5142 25.2268C34.0466 25.0912 34.4694 25.3521 34.5685 25.8895C34.7512 26.8651 32.8723 29.2183 31.9328 29.2496V29.2548Z" fill="black"/>
<path d="M32.3399 33.6271C32.3033 34.1802 32.0111 34.4985 31.4735 34.4985C30.9359 34.4985 30.6123 34.1384 30.5027 33.6636C30.3722 33.1158 30.7167 32.7088 31.2021 32.6567C31.8284 32.5888 32.2251 32.9958 32.3399 33.6271Z" fill="black"/>
<path d="M25.5704 33.0897C26.108 33.1419 26.4264 33.4811 26.4368 33.9715C26.4472 34.5141 26.061 34.7698 25.5286 34.7333C25.0015 34.702 24.6518 34.3837 24.6674 33.8724C24.6831 33.3611 25.0224 33.0584 25.5756 33.0897H25.5704Z" fill="black"/>
</g>
<defs>
<clipPath id="clip0_589_4877">
<rect width="56" height="56" fill="white"/>
</clipPath>
</defs>
</svg>
