<svg width="56" height="56" viewBox="0 0 56 56" fill="none" xmlns="http://www.w3.org/2000/svg">
<g clip-path="url(#clip0_589_4923)">
<path d="M50.6688 24.6403C49.6601 22.6723 48.9875 20.5665 47.9534 18.6215C46.1298 15.2036 44.3159 11.7861 42.4575 8.38578C40.6474 5.0759 38.0063 3.08191 34.0844 3.37946C29.5413 3.72592 25.0008 3.40405 20.4621 3.40431C20.197 3.38979 19.9306 3.3996 19.6717 3.36102C15.1714 2.66074 12.0467 4.55364 9.71932 8.39322C7.20084 12.5444 4.92201 16.8209 2.62443 21.0866C2.13474 21.9967 1.45951 22.9405 1.55404 24.0387C1.77076 26.6123 2.30741 29.1693 3.77644 31.2943C7.07739 36.0667 10.5341 40.7306 14.4154 45.0566C15.8779 46.6835 17.7393 47.4686 19.8219 47.2167C24.3125 46.6819 28.8088 47.1917 33.2964 46.9788C35.2398 46.8852 37.0173 46.3775 38.2651 44.9527C42.3172 40.3341 46.5737 35.8683 49.8672 30.6275C51.0215 28.7926 51.7432 26.7339 50.6691 24.6355L50.6688 24.6403Z" fill="#EFE5BF"/>
<path d="M55.5459 18.2087C55.3798 19.034 55.0274 19.8198 54.2954 20.3897C51.5298 22.5218 48.7594 24.6537 45.9892 26.7807C45.853 26.8855 45.7117 26.9949 45.5663 27.0894C45.1763 27.3266 44.7756 27.495 44.3969 27.0839C43.9998 26.6571 44.2154 26.2493 44.523 25.9295C44.9434 25.4889 45.4057 25.08 45.8808 24.701C47.1137 23.7243 48.3605 22.7581 49.6204 21.8171C50.7393 20.9805 51.7616 20.3192 51.3459 18.4666C51.0081 16.955 52.8921 15.8285 54.4306 16.3324C55.2758 16.6081 55.6441 17.2089 55.5504 18.2138L55.5459 18.2087Z" fill="black"/>
<path d="M7.81777 22.301C5.35831 21.1627 3.19926 19.8563 1.17503 18.3558C-0.0834965 17.4245 -0.254938 16.0431 0.609791 15.197C1.22643 14.5857 1.99499 14.4479 2.78509 14.719C3.50119 14.9674 4.09301 15.6012 3.9149 16.2942C3.43046 18.1994 4.75906 18.7251 5.96204 19.4065C6.94383 19.9631 7.94043 20.4941 8.90741 21.0763C9.28202 21.3005 9.64802 21.6984 9.47091 22.1419C9.21149 22.8043 8.62547 22.5527 8.13119 22.4137C7.96341 22.3662 7.80593 22.2914 7.81496 22.2948L7.81777 22.301Z" fill="black"/>
<path d="M38.4174 50.7312C37.5679 50.7091 36.908 50.4924 36.5498 49.7945C35.6675 48.0774 34.7902 46.3557 33.9625 44.6122C33.7284 44.1212 33.7221 43.5305 34.3911 43.3182C34.9077 43.1514 35.1895 43.5669 35.4008 43.9445C35.7442 44.5586 36.0429 45.1946 36.3515 45.8264C36.9429 47.0298 37.5076 48.1928 39.1923 48.0557C39.9157 47.9978 40.6229 48.4122 40.659 49.2535C40.7048 50.2709 39.8891 50.5142 39.0878 50.6703C38.8338 50.7198 38.5682 50.7151 38.4177 50.7263L38.4174 50.7312Z" fill="black"/>
<path d="M19.6548 43.294C20.0843 43.4834 20.2111 43.9051 20.0468 44.3451C19.3057 46.3148 18.5976 48.3011 17.729 50.2151C17.2784 51.2053 15.526 51.6071 14.4823 51.1595C13.9722 50.9413 13.5805 50.5929 13.5894 49.9883C13.593 49.3932 13.9623 48.8279 14.4865 48.8761C16.7901 49.0901 17.0673 47.295 17.6909 45.7921C17.9917 45.0669 18.3494 44.3595 18.7209 43.6674C18.8932 43.345 19.2066 43.1816 19.6597 43.2943L19.6548 43.294Z" fill="black"/>
<path d="M29.1961 27.2361C30.6941 27.5085 32.0596 27.9931 32.8294 29.4699C33.0962 29.9822 33.11 30.5246 32.6164 30.8879C32.0824 31.2832 31.7244 30.9367 31.312 30.5237C29.1726 28.3718 27.5689 28.5279 25.5285 31.0121C25.1243 31.5072 24.8603 32.532 23.9997 31.9189C23.2789 31.4012 23.8047 30.6249 24.1607 30.0393C25.3122 28.1652 27.0316 27.3079 29.1908 27.2456L29.1961 27.2361Z" fill="black"/>
<path d="M32.73 15.5771C32.4114 16.6283 31.9455 17.4567 30.8883 17.6964C30.0367 17.8889 29.3513 17.5195 28.8729 16.8102C28.5781 16.3695 28.3308 15.8534 28.6728 15.3451C29.1042 14.7052 29.5771 15.0726 29.9788 15.4167C30.7364 16.0584 31.0095 15.2194 31.4737 14.952C32.2673 14.4929 32.5462 14.962 32.7252 15.5769L32.73 15.5771Z" fill="black"/>
<path d="M26.0125 16.5267C25.9071 17.2138 25.4409 17.6079 24.8683 17.8254C23.911 18.1828 22.9956 18.04 22.238 17.3105C21.7833 16.8757 21.4892 16.3326 21.7086 15.681C21.876 15.1827 22.4002 14.9674 22.7041 15.3305C23.4527 16.2254 24.2261 16.2239 25.2096 15.8288C25.6744 15.6396 25.9874 16.0129 26.0122 16.5315L26.0125 16.5267Z" fill="black"/>
<path d="M31.3954 22.999C30.7684 22.9745 30.2235 22.7738 30.2427 22.1601C30.2666 21.5465 30.8226 21.3672 31.3798 21.4319C31.9176 21.4955 32.4133 21.7129 32.3093 22.3757C32.2286 22.8788 31.7737 22.9758 31.3906 22.9988L31.3954 22.999Z" fill="black"/>
<path d="M24.5524 22.8878C24.4023 23.3334 24.1315 23.6016 23.6327 23.5304C23.2297 23.4741 23.0299 23.1509 23.077 22.8217C23.1408 22.3616 23.4875 22.122 23.982 22.1832C24.39 22.2348 24.4988 22.5433 24.5524 22.8878Z" fill="black"/>
</g>
<defs>
<clipPath id="clip0_589_4923">
<rect width="56" height="56" fill="white"/>
</clipPath>
</defs>
</svg>
