<svg width="56" height="56" viewBox="0 0 56 56" fill="none" xmlns="http://www.w3.org/2000/svg">
<path d="M27.8102 49.5905C26.1503 49.7463 24.3159 49.5905 22.5813 48.7913C21.9482 48.4998 21.36 48.6355 20.7519 48.8717C19.386 49.4045 17.9853 49.6558 16.5098 49.6156C13.6885 49.5402 11.5151 47.6554 11.2111 44.7957C11.1213 43.9362 10.7624 43.4889 10.0546 43.1371C7.34292 41.7801 5.53845 39.6239 4.91037 36.6385C4.59135 35.1307 3.40498 34.1958 2.91648 32.8087C2.5177 31.6879 2.31831 30.5721 2.52767 29.4664C2.70712 28.5416 2.43296 27.9133 1.9295 27.2399C-0.159103 24.4504 0.0153627 20.696 3.15076 18.3087C3.57446 17.987 3.99318 17.6352 4.15269 17.0522C4.80569 14.6749 6.50549 13.1218 8.34485 11.6693C9.45645 10.7948 10.3986 9.73935 11.3108 8.66378C11.6099 8.31196 11.884 7.96517 12.2828 7.73397C14.1022 6.69359 15.8868 5.65321 17.427 4.14039C18.5386 3.04975 20.2035 3.19047 21.7039 3.27089C22.6361 3.32115 23.4037 3.10503 24.1913 2.50191C26.7585 0.53675 29.3455 0.546802 31.9177 2.52202C32.6704 3.10001 33.3882 3.35131 34.2754 3.26084C36.8575 3.00451 38.981 3.80867 40.5512 5.95477C40.7008 6.16084 40.96 6.36188 41.1992 6.41716C43.1333 6.84437 44.4194 8.15616 45.6207 9.6137C46.5229 10.7043 47.6545 11.5487 48.7212 12.4634C51.3581 14.7201 52.6043 18.0272 54.7876 20.6659C56.4326 22.6562 55.5652 25.0938 54.2044 27.1494C53.7309 27.8681 53.3171 28.4913 53.5514 29.4965C53.9003 31.0094 53.5414 32.5624 52.6492 33.7988C51.7768 35.01 51.3133 36.3319 50.8547 37.714C50.077 40.0712 48.5069 41.8102 46.3385 42.9461C45.4113 43.4286 44.9178 43.9513 44.8381 45.1022C44.6836 47.3941 42.3607 49.4598 40.0777 49.5905C38.5723 49.6759 37.0818 49.5804 35.6811 48.9823C34.749 48.5853 33.8916 48.5601 32.9495 48.9672C32.1669 49.304 31.3494 49.6005 30.4621 49.5854C29.6496 49.5704 28.8321 49.5854 27.8053 49.5854L27.8102 49.5905Z" fill="#AFC1BB"/>
<path d="M50.0583 20.7628C50.0995 21.8281 49.7491 22.7796 49.2286 23.6897C48.8627 24.331 48.3217 24.543 47.6981 24.2379C46.9715 23.8811 47.2858 23.2967 47.5641 22.8003C47.9609 22.097 48.3268 21.3678 48.2959 20.5611C48.2237 18.4719 46.4562 17.1532 44.4206 17.7065C43.3745 17.991 42.8592 17.7945 42.9984 16.6361C43.1375 15.4467 42.514 14.8158 41.5039 14.4021C40.8804 14.1487 40.2001 13.8229 40.5712 12.98C40.9371 12.1577 41.6121 12.6335 42.1532 12.7938C42.8334 12.9955 43.6064 13.3316 43.8847 13.9108C44.5392 15.276 45.6471 15.6691 46.9767 16.0672C49.0122 16.6826 50.0686 18.4926 50.0583 20.7524V20.7628Z" fill="white"/>
<path d="M7.307 22.3194C7.22455 22.9555 7.50282 23.6071 7.71926 24.2742C7.87386 24.7447 7.74502 25.1429 7.34307 25.3653C6.92051 25.598 6.53917 25.4015 6.23513 25.0499C5.28178 23.9639 5.40545 20.5508 6.45156 19.1908C7.68834 17.5825 9.56412 17.1429 11.3111 18.0221C11.8676 18.3013 12.3005 18.6685 12.0531 19.3252C11.7903 20.0182 11.1719 19.8992 10.6154 19.7441C8.51286 19.1546 7.31215 20.0544 7.31215 22.3246L7.307 22.3194Z" fill="white"/>
<path d="M34.8665 34.0117C33.3669 33.4687 31.8519 33.779 30.3987 34.596C30.2389 34.684 30.038 34.7615 29.8627 34.7512C27.415 34.6167 24.9672 34.0841 22.5142 34.8236C22.2411 34.9063 21.8237 34.5857 21.5042 34.3944C21.1641 34.1927 20.9889 33.841 21.0559 33.4428C21.128 33.024 21.4527 32.7706 21.8546 32.8378C24.0447 33.1946 26.1988 31.4002 28.4301 32.7447C28.7548 32.9412 29.4453 32.8792 29.7751 32.6568C31.754 31.3071 33.9287 31.9225 36.0466 31.8914C36.7526 31.8811 37.4741 31.8501 37.4741 32.7551C37.4741 33.5359 36.7784 33.8048 36.1085 33.9341C35.7426 34.0065 35.3613 33.9858 34.8665 34.0169V34.0117Z" fill="black"/>
<path d="M23.7716 44.2302C21.8546 44.1733 20.1643 43.5165 19.0358 41.8048C18.6699 41.2463 18.4071 40.481 18.9791 39.9949C19.7469 39.3433 20.0355 40.2276 20.4478 40.6826C22.6894 43.1442 24.6734 43.0563 26.8532 40.4603C27.2037 40.0414 27.6365 39.6277 28.1209 39.4002C29.1722 38.9037 29.9555 39.4467 30.4244 40.3569C30.8419 41.1687 30.8161 42.4099 29.8885 42.4719C27.9509 42.6064 26.5389 44.0647 24.6631 44.1836C24.3848 44.2043 24.1014 44.2095 23.7665 44.2302H23.7716Z" fill="black"/>
<path d="M37.6441 42.9993C36.0672 42.9528 34.7222 41.9961 33.0629 42.1409C32.0425 42.2288 31.5839 40.786 32.0941 39.7414C32.6042 38.6916 33.6864 38.2883 34.6398 38.8209C34.8768 38.9502 35.0675 39.1726 35.2633 39.3639C37.572 41.6444 37.6699 41.6548 40.3032 39.8397C40.5299 39.6845 40.7258 39.4725 40.9577 39.3225C41.3596 39.064 41.8028 38.8675 42.1996 39.2863C42.5861 39.6949 42.4469 40.181 42.1532 40.5481C40.9886 41.9857 39.4632 42.7821 37.6441 42.9941V42.9993Z" fill="black"/>
<path d="M26.9408 55.9794C25.838 56.1035 24.8744 55.5605 24.5188 54.1384C24.1529 52.6852 23.5964 51.2735 23.5448 49.7583C23.5345 49.386 23.7561 49.0136 24.1684 48.9205C24.5858 48.8275 24.8898 49.0705 25.029 49.448C25.2506 50.0634 25.4618 50.684 25.6061 51.32C25.8638 52.4681 26.4049 53.1248 27.7138 53.0472C28.6981 52.9852 29.7545 53.311 29.6257 54.5417C29.4865 55.8553 28.3064 55.9276 26.9408 55.9742V55.9794Z" fill="black"/>
<path d="M36.8196 50.353C36.6135 51.4234 36.397 52.8042 36.0621 54.1487C35.8405 55.0382 35.1602 55.5294 34.243 55.6329C33.2948 55.7363 32.2693 55.7932 31.8776 54.7072C31.4602 53.554 32.3054 52.9128 33.2432 52.6904C34.3357 52.4318 34.7789 51.7854 34.9438 50.7822C35.0057 50.415 35.0726 50.0479 35.1757 49.691C35.3097 49.2308 35.5622 48.7602 36.0827 48.7861C36.8608 48.8223 36.7835 49.4894 36.8247 50.3478L36.8196 50.353Z" fill="black"/>
<path d="M25.5083 23.1054C25.3176 23.4416 25.1785 23.7932 24.9517 24.0673C23.818 25.4635 22.4266 26.5082 20.6848 27.0149C20.2107 27.1546 19.7469 27.0822 19.4841 26.6167C19.2162 26.1358 19.3759 25.6497 19.8345 25.4429C21.463 24.7085 22.8028 23.6019 24.0911 22.397C24.3797 22.1281 24.7971 22.1229 25.1063 22.3711C25.2918 22.5262 25.364 22.821 25.5134 23.1003L25.5083 23.1054Z" fill="black"/>
<path d="M33.6813 22.8572C33.8565 22.9141 34.0987 22.9141 34.1915 23.033C35.2685 24.3982 36.866 24.9826 38.2934 25.8203C38.6026 26.0013 38.8242 26.3323 38.7263 26.7615C38.6232 27.2114 38.2471 27.3097 37.8915 27.3355C36.5001 27.4441 33.6349 25.6859 33.0938 24.4034C32.8052 23.7156 32.8568 23.1313 33.6864 22.8572H33.6813Z" fill="black"/>
<path d="M26.7656 29.7143C26.2091 29.7299 25.7917 29.4713 25.7608 28.949C25.7092 28.0388 26.3276 27.6096 27.1315 27.4803C27.5386 27.4131 27.8736 27.6872 27.9251 28.1009C28.0385 28.98 27.6159 29.523 26.7656 29.7143Z" fill="black"/>
<path d="M32.2539 28.3646C32.3672 29.2075 32.0374 29.6057 31.1614 29.4506C30.7336 28.9335 30.6873 28.4318 31.2181 27.9457C31.3623 27.8733 31.5118 27.8578 31.6715 27.894C31.8931 28.0181 32.0838 28.1733 32.2539 28.3646Z" fill="black"/>
<path d="M31.218 27.9457C31.1974 28.4473 31.182 28.9489 31.1613 29.4505C30.4605 28.9231 30.476 28.4214 31.218 27.9457Z" fill="black"/>
<path d="M32.2538 28.3646C32.058 28.2095 31.8673 28.0544 31.6715 27.894C31.9859 27.894 32.1765 28.0595 32.2538 28.3646Z" fill="black"/>
</svg>
