<svg width="36" height="36" viewBox="0 0 36 36" fill="none" xmlns="http://www.w3.org/2000/svg">
<g id="Layer_1" clip-path="url(#clip0_1330_3164)">
<path id="Vector" d="M0.00640137 18.5963C0.00640137 12.4931 0.00827637 6.39 -0.000161133 0.286875C-0.000161133 0.046875 0.0467139 0 0.286714 0C12.0955 0.0075 23.9033 0.0075 35.712 0C35.952 0 35.9998 0.046875 35.9989 0.286875C35.9914 12.0956 35.9914 23.9034 35.9989 35.7122C35.9989 35.9522 35.952 36 35.712 35.9991C23.9033 35.9916 12.0955 35.9916 0.286714 35.9991C0.0467139 35.9991 -0.00109863 35.9522 -0.00109863 35.7122C0.00733887 30.0769 0.00546387 24.4416 0.00546387 18.8063C1.26359 18.8091 2.52078 18.8119 3.7789 18.8147C3.78546 18.9666 3.79765 19.1175 3.79765 19.2694C3.79859 22.7053 3.79765 26.1422 3.79859 29.5781C3.79859 30.36 4.12578 30.7791 4.87671 30.9469C7.69484 31.5778 10.5139 32.2078 13.3339 32.8331C14.3567 33.06 15.3833 33.2719 16.408 33.4912C16.8917 33.6572 17.3895 33.7631 17.8967 33.8269C17.9895 33.8203 18.0851 33.825 18.1751 33.8044C20.2217 33.3497 22.2683 32.8922 24.3148 32.4366C26.3848 31.9762 28.4548 31.5187 30.5248 31.0603C30.6036 31.0453 30.6833 31.0275 30.763 31.0153C31.543 30.8981 32.0839 30.5213 32.0745 29.4066C32.0445 25.9988 32.067 22.5909 32.0577 19.1831C32.0577 18.9009 32.1177 18.7931 32.4205 18.8072C32.9089 18.8297 33.4002 18.8044 33.8895 18.7997C34.4961 18.8081 35.1036 18.8147 35.7102 18.8241C35.9586 18.8278 35.923 18.7341 35.8086 18.5822C34.6039 16.9763 33.4002 15.3684 32.2011 13.7587C32.0923 13.6125 31.9602 13.5487 31.7839 13.5516C31.2467 13.5591 30.7095 13.5647 30.1723 13.5712C29.8873 13.5637 29.6023 13.5562 29.3173 13.5478C29.938 12.2025 30.0514 10.7981 29.8039 9.35344C29.6942 8.71312 29.9614 8.46844 30.6017 8.59687C31.2852 8.73469 31.8664 9.05437 32.3905 9.49781C32.4598 9.55688 32.5255 9.65625 32.6277 9.59812C32.7439 9.53156 32.6961 9.40969 32.6698 9.31406C32.5883 9.0225 32.518 8.72531 32.4045 8.44594C31.7914 6.93 30.7283 5.98969 29.0502 5.81531C28.6667 5.775 28.2345 5.83969 27.958 5.41313C27.6383 4.92188 27.1958 4.52813 26.758 4.14375C25.9095 3.3975 24.9645 2.80875 23.8555 2.52281C21.418 1.73625 18.5736 2.44313 17.3277 5.04938C16.452 4.75125 15.5539 4.54219 14.6295 4.50937C12.2773 4.42594 10.137 5.02219 8.37453 6.64594C7.26828 7.665 6.61953 8.93062 6.59796 10.4709C6.58203 11.61 6.96171 12.6197 7.59453 13.5478C6.4639 13.5506 5.33328 13.5591 4.20359 13.5544C3.94859 13.5534 3.7639 13.6341 3.60921 13.8431C2.82078 14.9109 2.02953 15.9778 1.22421 17.0334C0.823901 17.5584 0.476089 18.1256 0.00452637 18.5953L0.00640137 18.5963Z" fill="#FEFEFE"/>
<path id="Vector_2" d="M0.00655273 18.5962C0.478115 18.1265 0.825928 17.5593 1.22624 17.0343C2.03155 15.9787 2.8228 14.9118 3.61124 13.844C3.76593 13.635 3.94968 13.5543 4.20562 13.5553C5.33624 13.56 6.46687 13.5525 7.59655 13.5487C9.46312 13.5506 11.3306 13.5506 13.1972 13.5543C14.0606 13.5562 14.9231 13.5646 15.7866 13.5703C15.7875 13.5871 15.7894 13.604 15.7912 13.6209C15.7772 13.665 15.7734 13.7165 15.7472 13.7512C14.8828 14.9025 14.0091 16.0462 13.1541 17.204C12.7631 17.7337 12.3159 18.2231 12 18.8071C9.25968 18.81 6.51937 18.8118 3.77905 18.8146C2.52093 18.8118 1.26374 18.809 0.00561523 18.8062V18.5962H0.00655273Z" fill="#FECF64"/>
<path id="Vector_3" d="M30.526 31.0603C28.456 31.5188 26.386 31.9772 24.316 32.4366C22.2694 32.8913 20.2238 33.3497 18.1763 33.8044C18.0863 33.8241 17.9906 33.8194 17.8978 33.8259C17.8978 27.7903 17.896 21.7547 17.895 15.72C18.001 15.6291 17.9625 15.5044 17.9635 15.3928C17.9672 14.8238 17.9653 14.2538 17.9644 13.6847C17.9935 13.7044 18.03 13.7184 18.0497 13.7447C19.1935 15.2709 20.3372 16.7972 21.4763 18.3263C21.7097 18.6403 21.9647 18.8222 22.4025 18.8184C24.9628 18.7941 27.5222 18.8138 30.0825 18.7988C30.435 18.7969 30.5316 18.8822 30.5306 19.2422C30.5185 23.1816 30.525 27.1209 30.526 31.0603ZM23.3147 30.8784C23.3803 30.8709 23.4506 30.8691 23.5191 30.8541C25.0913 30.5053 26.6635 30.1584 28.2338 29.8041C28.6153 29.7178 28.8066 29.4403 28.7269 29.1263C28.6435 28.7981 28.3706 28.6509 27.9872 28.7353C27.0525 28.9406 26.1188 29.1478 25.1841 29.3569C24.5119 29.5069 23.8388 29.6522 23.1713 29.8172C22.8703 29.8913 22.7203 30.1172 22.77 30.4238C22.8169 30.7116 23.0128 30.8644 23.3147 30.8784Z" fill="#FEDF7D"/>
<path id="Vector_4" d="M3.77999 18.8147C6.5203 18.8119 9.26061 18.81 12.0009 18.8072C12.5597 18.8072 13.1184 18.8035 13.6772 18.8091C13.9303 18.8119 14.1066 18.7154 14.2622 18.5063C14.9728 17.5482 15.6994 16.6022 16.4203 15.6516C16.4203 21.4697 16.4203 27.2879 16.4203 33.106C16.4203 33.2344 16.4128 33.3629 16.4081 33.4913C15.3834 33.2719 14.3569 33.06 13.3341 32.8332C10.5141 32.2079 7.69593 31.5788 4.87687 30.9469C4.12593 30.7791 3.79968 30.3591 3.79874 29.5782C3.7978 26.1422 3.79874 22.7054 3.7978 19.2694C3.7978 19.1175 3.78562 18.9666 3.77905 18.8147H3.77999ZM13.4334 25.815C13.2384 25.8047 13.1053 25.9107 13.0078 26.0672C12.6797 26.5913 12.3572 27.1191 12.03 27.6441C11.9044 27.8466 11.9212 28.036 12.0459 28.2338C12.3637 28.7372 12.6675 29.2491 12.9891 29.7497C13.2478 30.1519 13.6237 30.1547 13.8816 29.7544C14.2041 29.2547 14.5078 28.7419 14.8237 28.2376C14.9466 28.0407 14.9691 27.8485 14.8434 27.6469C14.5106 27.1116 14.1797 26.5754 13.845 26.0419C13.7522 25.8938 13.6191 25.8085 13.4334 25.815Z" fill="#FEDF7D"/>
<path id="Vector_5" d="M15.7875 13.5713C14.9241 13.5656 14.0616 13.5572 13.1981 13.5553C11.3316 13.5516 9.46407 13.5516 7.59751 13.5497C6.9647 12.6216 6.58501 11.611 6.60095 10.4728C6.62251 8.93252 7.27126 7.66689 8.37751 6.64783C10.14 5.02408 12.2803 4.42783 14.6325 4.51127C15.5559 4.54408 16.455 4.75314 17.3306 5.05127C17.8341 5.28658 18.3609 5.47595 18.8091 5.8172C18.8334 5.84439 18.8569 5.87158 18.8813 5.89877L18.8794 5.89595C18.9075 5.95783 18.9609 5.97095 19.0219 5.96814V5.96627C19.0275 6.11627 19.1109 6.22502 19.2038 6.33377C20.4188 7.74377 20.6897 9.94501 19.8797 11.6203C19.5234 12.3572 19.0041 12.9628 18.4547 13.5506C18.2672 13.5572 18.0797 13.5647 17.8922 13.5713C17.2153 13.5366 16.5384 13.546 15.8616 13.5694C15.8372 13.5703 15.8119 13.5722 15.7875 13.5731V13.5713ZM14.1375 11.581C15.2813 11.581 16.425 11.5847 17.5688 11.5791C17.9925 11.5772 18.3019 11.2097 18.1547 10.8731C18.0328 10.5938 17.7788 10.4672 17.4769 10.4616C17.1272 10.455 16.7766 10.4597 16.4269 10.4597C14.5716 10.4597 12.7153 10.4578 10.86 10.4616C10.4147 10.4625 10.0969 10.7306 10.1091 11.071C10.1213 11.4056 10.3734 11.581 10.8459 11.581C11.9428 11.581 13.0397 11.581 14.1366 11.581H14.1375ZM12.2822 9.4772C12.8072 9.4772 13.3322 9.47908 13.8572 9.4772C14.2856 9.47533 14.5172 9.28595 14.5275 8.93533C14.5378 8.58283 14.3119 8.36252 13.8891 8.35877C12.8391 8.34939 11.7891 8.35127 10.7391 8.35877C10.3931 8.36158 10.1034 8.64189 10.1091 8.93252C10.1156 9.27095 10.3472 9.47345 10.7419 9.47627C11.2556 9.48002 11.7684 9.4772 12.2822 9.4772Z" fill="#95D5A4"/>
<path id="Vector_6" d="M17.8922 13.5693C18.0797 13.5628 18.2672 13.5553 18.4547 13.5487C19.2009 13.5487 19.9472 13.5487 20.6925 13.5487C23.3147 13.5487 25.9359 13.5487 28.5581 13.5487H29.3194C29.6044 13.5562 29.8894 13.5637 30.1744 13.5712C30.1744 13.6415 30.1772 13.7081 30.2231 13.769C31.2338 15.1078 32.2528 16.44 33.2447 17.7928C33.4791 18.1115 33.7922 18.3909 33.8897 18.8006C33.4003 18.8053 32.9091 18.8306 32.4206 18.8081C32.1178 18.794 32.0578 18.9018 32.0578 19.184C32.0672 22.5918 32.0447 25.9996 32.0747 29.4075C32.0841 30.5221 31.5431 30.899 30.7631 31.0162C30.6834 31.0284 30.6047 31.0462 30.525 31.0612C30.5241 27.1218 30.5175 23.1825 30.5297 19.2431C30.5306 18.8831 30.435 18.7978 30.0816 18.7996C27.5213 18.8156 24.9609 18.7959 22.4016 18.8193C21.9638 18.8231 21.7088 18.6412 21.4753 18.3271C20.3363 16.7981 19.1925 15.2718 18.0488 13.7456C18.0291 13.7193 17.9925 13.7053 17.9634 13.6856C17.94 13.6856 17.9156 13.6856 17.8922 13.6846C17.8922 13.6462 17.8913 13.6078 17.8903 13.5693H17.8922Z" fill="#FECF64"/>
<path id="Vector_7" d="M28.5581 13.5487C25.9359 13.5487 23.3147 13.5487 20.6934 13.5487C20.7347 13.4784 20.7731 13.4062 20.8172 13.3368C21.9403 11.5884 22.0069 9.7959 20.9944 7.98652C20.5228 7.14465 19.8816 6.44059 19.0209 5.96434L19.0219 5.96621C18.9928 5.90621 18.9413 5.89027 18.8794 5.89402L18.8813 5.89684C18.8569 5.86965 18.8334 5.84246 18.8091 5.81527C18.3609 5.47402 17.8341 5.28465 17.3306 5.04934C18.5766 2.44309 21.42 1.73621 23.8584 2.52277C23.9325 2.61184 23.9944 2.7159 24.0834 2.78621C24.7463 3.31121 25.2966 3.94121 25.8225 4.59746C27.6684 6.89715 28.5759 9.53152 28.6256 12.4696C28.6313 12.8296 28.5169 13.185 28.5581 13.5478V13.5487Z" fill="#B0E3F8"/>
<path id="Vector_8" d="M16.4091 33.4913C16.4128 33.3628 16.4212 33.2344 16.4212 33.1059C16.4212 27.2878 16.4212 21.4697 16.4212 15.6516C16.5441 15.3731 16.7494 15.1472 16.9387 14.9184C17.2575 14.5313 17.4741 14.0588 17.8912 13.7522C17.8922 14.4084 17.8941 15.0638 17.895 15.72C17.895 21.7556 17.8969 27.7903 17.8978 33.8259C17.3906 33.7622 16.8937 33.6563 16.4091 33.4903V33.4913Z" fill="#FECF64"/>
<path id="Vector_9" d="M28.5581 13.5487C28.5169 13.1849 28.6313 12.8306 28.6256 12.4706C28.576 9.53149 27.6685 6.89806 25.8225 4.59837C25.2966 3.94306 24.7463 3.31212 24.0835 2.78712C23.9944 2.71681 23.9325 2.61274 23.8585 2.52368C24.9675 2.81056 25.9125 3.39837 26.761 4.14462C27.1978 4.52899 27.6413 4.92274 27.961 5.41399C28.2375 5.84056 28.6697 5.77681 29.0531 5.81618C30.7313 5.99056 31.7944 6.93087 32.4075 8.44681C32.521 8.72618 32.5913 9.02337 32.6728 9.31493C32.6991 9.41056 32.7469 9.53243 32.6306 9.59899C32.5285 9.65712 32.4628 9.55774 32.3935 9.49868C31.8694 9.05524 31.2881 8.73462 30.6047 8.59774C29.9644 8.46931 29.6972 8.71399 29.8069 9.35431C30.0544 10.799 29.941 12.2034 29.3203 13.5487C29.0663 13.5487 28.8131 13.5487 28.5591 13.5487H28.5581Z" fill="#9DC6FA"/>
<path id="Vector_10" d="M33.8906 18.7997C33.7922 18.39 33.479 18.1106 33.2456 17.7919C32.2537 16.4391 31.2347 15.1069 30.224 13.7681C30.1781 13.7072 30.1743 13.6406 30.1753 13.5703C30.7125 13.5638 31.2497 13.5591 31.7868 13.5506C31.9631 13.5478 32.0953 13.6116 32.204 13.7578C33.404 15.3675 34.6068 16.9753 35.8115 18.5813C35.925 18.7331 35.9615 18.8269 35.7131 18.8231C35.1065 18.8138 34.499 18.8063 33.8925 18.7988L33.8906 18.7997Z" fill="#FEC250"/>
<path id="Vector_11" d="M17.8913 13.7531C17.4731 14.0587 17.2575 14.5321 16.9388 14.9193C16.7503 15.1481 16.545 15.374 16.4213 15.6525C15.7003 16.6031 14.9738 17.549 14.2631 18.5071C14.1075 18.7171 13.9313 18.8128 13.6781 18.81C13.1194 18.8043 12.5606 18.8081 12.0019 18.8081C12.3169 18.224 12.765 17.7346 13.156 17.205C14.011 16.0471 14.8847 14.9034 15.7491 13.7521C15.7753 13.7175 15.7791 13.6659 15.7931 13.6218C15.8166 13.604 15.8391 13.5853 15.8625 13.5675C16.5394 13.544 17.2163 13.5346 17.8931 13.5693C17.8931 13.6078 17.8941 13.6462 17.895 13.6846C17.895 13.7071 17.8941 13.7306 17.8931 13.7531H17.8913Z" fill="#FEC150"/>
<path id="Vector_12" d="M15.8606 13.5665C15.8372 13.5843 15.8147 13.6022 15.7912 13.6209C15.7894 13.604 15.7875 13.5872 15.7866 13.5703C15.8109 13.5693 15.8362 13.5675 15.8606 13.5665Z" fill="#F5D372"/>
<path id="Vector_13" d="M23.3147 30.8784C23.0128 30.8643 22.8169 30.7115 22.77 30.4237C22.7203 30.1162 22.8703 29.8912 23.1712 29.8172C23.8397 29.6522 24.5128 29.5069 25.1841 29.3569C26.1178 29.1478 27.0525 28.9406 27.9872 28.7353C28.3706 28.6509 28.6425 28.7981 28.7269 29.1262C28.8066 29.4403 28.6162 29.7178 28.2337 29.804C26.6634 30.1584 25.0912 30.5053 23.5191 30.854C23.4516 30.869 23.3803 30.8709 23.3147 30.8784Z" fill="#554A97"/>
<path id="Vector_14" d="M17.8912 13.7531C17.8922 13.7306 17.8931 13.7072 17.8931 13.6847C17.9165 13.6847 17.9409 13.6847 17.9644 13.6847C17.9644 14.2538 17.9662 14.8238 17.9634 15.3928C17.9634 15.5044 18.0019 15.6281 17.895 15.72C17.894 15.0638 17.8922 14.4084 17.8912 13.7522V13.7531Z" fill="#F5D372"/>
<path id="Vector_15" d="M13.4335 25.815C13.6191 25.8075 13.7522 25.8938 13.845 26.0419C14.1797 26.5763 14.5107 27.1116 14.8435 27.6469C14.9691 27.8485 14.9466 28.0416 14.8238 28.2375C14.5078 28.7419 14.2041 29.2538 13.8816 29.7544C13.6228 30.1547 13.2469 30.1519 12.9891 29.7497C12.6675 29.2491 12.3638 28.7372 12.046 28.2338C11.9213 28.036 11.9035 27.8466 12.03 27.6441C12.3572 27.1191 12.6807 26.5922 13.0078 26.0672C13.1053 25.9106 13.2394 25.8038 13.4335 25.815Z" fill="#544997"/>
<path id="Vector_16" d="M19.02 5.96436C19.8806 6.44061 20.5219 7.14467 20.9935 7.98654C22.006 9.79592 21.9394 11.5884 20.8163 13.3369C20.7722 13.4053 20.7338 13.4775 20.6925 13.5487C19.9463 13.5487 19.2 13.5487 18.4547 13.5487C19.0041 12.96 19.5235 12.3544 19.8797 11.6184C20.6897 9.94311 20.4188 7.74186 19.2038 6.33186C19.111 6.22404 19.0266 6.11436 19.021 5.96436H19.02Z" fill="#78C2A4"/>
<path id="Vector_17" d="M14.1375 11.5809C13.0406 11.5809 11.9438 11.5809 10.8469 11.5809C10.3744 11.5809 10.1222 11.4056 10.11 11.0709C10.0969 10.7306 10.4147 10.4625 10.8609 10.4615C12.7163 10.4578 14.5725 10.4597 16.4278 10.4597C16.7775 10.4597 17.1281 10.454 17.4778 10.4615C17.7797 10.4672 18.0328 10.5937 18.1556 10.8731C18.3028 11.2106 17.9944 11.5772 17.5697 11.579C16.4259 11.5847 15.2822 11.5809 14.1384 11.5809H14.1375Z" fill="#78C2A3"/>
<path id="Vector_18" d="M12.2822 9.4772C11.7685 9.4772 11.2557 9.48001 10.7419 9.47626C10.3472 9.47345 10.1157 9.27001 10.1091 8.93251C10.1035 8.64189 10.3932 8.36158 10.7391 8.35876C11.7891 8.35126 12.8391 8.35033 13.8891 8.35876C14.3119 8.36251 14.5378 8.58283 14.5275 8.93533C14.5172 9.28595 14.2857 9.47533 13.8572 9.4772C13.3322 9.47908 12.8072 9.4772 12.2822 9.4772Z" fill="#78C2A3"/>
<path id="Vector_19" d="M18.8784 5.89407C18.9403 5.89032 18.9919 5.90626 19.0209 5.96626C18.96 5.96907 18.9065 5.95595 18.8784 5.89407Z" fill="#78C2A4"/>
</g>
<defs>
<clipPath id="clip0_1330_3164">
<rect width="36" height="36" fill="white"/>
</clipPath>
</defs>
</svg>
