<svg width="36" height="36" viewBox="0 0 36 36" fill="none" xmlns="http://www.w3.org/2000/svg">
<g id="Layer_1" clip-path="url(#clip0_1330_3189)">
<path id="Vector" d="M0.0065625 14.1066V0.0065625C11.8969 0.0065625 23.7872 0.0075 35.6775 0C35.9409 0 36 0.0590625 36 0.3225C35.9925 12.1078 35.9925 23.8931 36 35.6784C36 35.9419 35.9409 36.0009 35.6775 36.0009C23.8922 35.9934 12.1069 35.9934 0.3225 36.0009C0.0590625 36.0009 0 35.9419 0 35.6784C0.009375 30.5925 0.0065625 25.5066 0.0065625 20.4206H0.04125L0.075 20.4225C0.0825 20.9006 0.10875 21.3769 0.135 21.8541C0.210938 23.2603 0.334688 24.6619 0.493125 26.0606C0.66 27.5325 1.98281 28.7719 3.44812 28.7794C3.50062 28.7981 3.55594 28.8394 3.60656 28.8337C4.66031 28.7241 5.475 29.7722 5.42156 30.7744C5.36344 31.8581 5.4 32.9475 5.41219 34.035C5.41875 34.6256 5.6625 35.0878 6.22312 35.3522C6.765 35.6081 7.26188 35.5387 7.73063 35.1806C8.415 34.6575 9.07969 34.1128 9.72937 33.5466C10.8656 32.5566 11.9513 31.5206 12.8269 30.2897C13.2675 29.6691 13.7803 29.1984 14.58 29.1928C16.7044 29.1778 18.8297 29.2106 20.9541 29.1234C21.9075 29.0841 22.86 29.0297 23.8134 28.9903C25.0575 28.9397 26.2978 28.8544 27.54 28.7719C28.8516 28.6856 30.1209 27.525 30.3122 26.2519C30.4209 25.5281 30.4566 24.7959 30.5353 24.0703C30.675 22.7859 30.7463 21.4969 30.7856 20.2097C30.8456 18.2475 30.8016 16.2825 30.8016 14.3194C30.8016 14.0531 30.7575 13.7944 30.6619 13.545C30.7134 13.4156 30.7556 13.2816 30.8166 13.1569C31.7512 11.2369 32.5884 9.27563 33.2147 7.23281C33.4659 6.41344 33.8016 5.60531 33.7603 4.72031C34.7625 5.25 34.9566 6.04781 34.7569 7.09219C34.5441 8.20687 33.9619 9.18 33.3947 10.1475C32.9053 10.9828 32.3878 11.8012 31.8928 12.6337C31.7025 12.9544 31.7578 13.2516 32.0034 13.4081C32.2997 13.5966 32.5875 13.5262 32.8059 13.2C32.9813 12.9384 33.15 12.6722 33.3131 12.4031C34.14 11.0353 34.9969 9.68625 35.5866 8.18906C36.3375 6.28219 35.8378 4.48781 34.0997 3.65531C34.1456 3.37031 34.3528 3.16688 34.4691 2.91656C34.9837 1.81219 34.4897 1.44375 33.6244 1.12969C33.3178 0.868125 32.9531 0.705 32.5753 0.59625C32.1966 0.486563 31.83 0.600938 31.6172 0.934687C31.23 1.54313 30.9084 2.19094 30.645 2.865C30.1556 2.97656 29.8603 3.34031 29.5575 3.6975C28.9772 4.38094 28.4822 5.12813 27.9356 5.83781C27.27 5.63906 26.5772 5.69906 25.8975 5.63437C25.0659 5.55469 24.2269 5.52844 23.3916 5.49375C22.0312 5.43656 20.6681 5.35875 19.3078 5.35406C16.2609 5.34281 13.2141 5.27156 10.1681 5.41031C9.66844 5.43281 9.16687 5.44875 8.66906 5.46187C7.10906 5.50219 5.55562 5.62781 3.99844 5.69625C3.81469 5.71781 3.63094 5.75625 3.44719 5.75906C2.41969 5.77406 1.64719 6.26719 1.04813 7.05656C0.570938 7.68562 0.485625 8.43375 0.410625 9.19875C0.250313 10.8319 0.113437 12.4659 0.07125 14.1066C0.0496875 14.1084 0.0271875 14.1094 0.0046875 14.1094L0.0065625 14.1066Z" fill="#FEFEFE"/>
<path id="Vector_2" d="M3.44907 28.7793C1.98376 28.7709 0.660945 27.5325 0.49407 26.0606C0.335632 24.6618 0.211882 23.2603 0.135945 21.854C0.109695 21.3768 0.0834448 20.9006 0.0759448 20.4225C0.0450073 20.025 0.158445 19.619 0.00750732 19.2281V15.3703C0.14907 14.955 0.0478198 14.5265 0.0740698 14.1046C0.116257 12.464 0.253132 10.83 0.413445 9.19684C0.488445 8.4309 0.57282 7.68371 1.05094 7.05465C1.65001 6.26527 2.42251 5.77215 3.45001 5.75715C3.63376 5.75434 3.81751 5.7159 4.00126 5.69434C3.95719 5.74777 3.92251 5.81246 3.86907 5.85277C3.09563 6.44059 2.60344 7.22246 2.39063 8.15434C2.19751 9.00277 2.19094 9.88121 2.10188 10.7456C1.96219 12.0993 1.88813 13.4578 1.84876 14.8143C1.79344 16.6818 1.81313 18.5521 1.84876 20.4196C1.85907 20.9878 1.87501 21.5596 1.91532 22.1287C1.99407 23.2631 2.07938 24.3984 2.19094 25.53C2.25563 26.1843 2.26876 26.849 2.53032 27.4762C2.74219 27.9843 3.12001 28.3631 3.45188 28.7793H3.44907Z" fill="#B4D0D5"/>
<path id="Vector_3" d="M0.0731543 14.1038C0.0478418 14.5256 0.149092 14.9541 0.0065918 15.3694V14.1066C0.0290918 14.1066 0.0506543 14.1056 0.0731543 14.1038Z" fill="#DEE9EE"/>
<path id="Vector_4" d="M0.0065918 19.2272C0.157529 19.6181 0.0440918 20.024 0.0750293 20.4215L0.0412793 20.4187H0.0065918V19.2272Z" fill="#D1E1E5"/>
<path id="Vector_5" d="M3.44906 28.7794C3.11812 28.3622 2.74031 27.9844 2.52749 27.4763C2.26593 26.8491 2.25187 26.1844 2.18812 25.5301C2.07656 24.3985 1.99124 23.2632 1.91249 22.1288C1.87312 21.5607 1.85718 20.9879 1.84593 20.4197C1.81124 18.5513 1.79156 16.681 1.84593 14.8144C1.88624 13.4579 1.95937 12.0994 2.09906 10.7457C2.18812 9.88036 2.19468 9.00286 2.38781 8.15443C2.59968 7.22161 3.09281 6.44068 3.86624 5.85286C3.91968 5.81255 3.95531 5.74786 3.99843 5.69443C5.55562 5.62599 7.10999 5.5013 8.66906 5.46005C9.16687 5.44693 9.66843 5.43193 10.1681 5.40849C13.2141 5.2688 16.2619 5.34099 19.3078 5.35224C20.6681 5.35693 22.0312 5.43474 23.3916 5.49193C24.2269 5.52661 25.0659 5.55286 25.8975 5.63255C26.5762 5.69724 27.27 5.63818 27.9356 5.83599C27.2719 6.91599 26.5706 7.97255 25.9612 9.0863C24.9947 10.8544 24.0834 12.6479 23.3475 14.5266C23.1844 14.8651 23.0166 15.2026 22.9425 15.5757C22.9275 15.5935 22.9069 15.6085 22.8994 15.6291C22.3303 17.1432 21.8362 18.6807 21.5606 20.2772C21.3862 21.286 21.2466 22.306 21.6759 23.2969C21.4444 23.4891 21.3272 23.7591 21.2222 24.0244C21.1247 24.2729 21.1931 24.5147 21.4284 24.6657C21.6816 24.8279 21.9544 24.7679 22.1137 24.5522C22.2947 24.3076 22.5037 24.0563 22.5309 23.7254C23.0887 23.5735 23.5847 23.3091 24.0356 22.9444C24.8569 22.2807 25.5544 21.4979 26.2022 20.6738C26.8481 19.8516 27.4884 19.0219 28.0022 18.106C28.2478 17.8435 28.4428 17.5491 28.5647 17.2088C28.9219 16.7457 29.1806 16.2226 29.4675 15.7172C29.8744 14.9991 30.2644 14.2697 30.6609 13.546C30.7556 13.7954 30.8006 14.0541 30.8006 14.3204C30.8006 16.2844 30.8447 18.2494 30.7847 20.2107C30.7453 21.4969 30.6741 22.7869 30.5344 24.0713C30.4556 24.7979 30.42 25.5291 30.3112 26.2529C30.12 27.526 28.8497 28.6866 27.5391 28.7729C26.2969 28.8554 25.0566 28.9407 23.8125 28.9913C22.86 29.0307 21.9066 29.0851 20.9531 29.1244C18.8287 29.2116 16.7034 29.1779 14.5791 29.1938C13.7794 29.1994 13.2666 29.6701 12.8259 30.2907C11.9503 31.5226 10.8647 32.5576 9.72843 33.5476C9.07874 34.1138 8.41406 34.6585 7.72968 35.1816C7.26093 35.5397 6.76406 35.6091 6.22218 35.3532C5.66156 35.0888 5.41781 34.6266 5.41124 34.036C5.39906 32.9494 5.36249 31.8591 5.42062 30.7754C5.47406 29.7732 4.66031 28.725 3.60562 28.8347C3.55499 28.8404 3.50062 28.8 3.44718 28.7804L3.44906 28.7794ZM12.1772 13.111C11.8847 13.111 11.5931 13.111 11.3006 13.111C9.05718 13.111 6.81281 13.1101 4.56937 13.1129C4.19437 13.1129 3.95531 13.3191 3.94406 13.6276C3.93281 13.9491 4.18312 14.1704 4.57124 14.1807C4.62937 14.1826 4.68843 14.1807 4.74656 14.1807C9.70124 14.1807 14.6569 14.1807 19.6116 14.1807C19.7287 14.1807 19.8487 14.1929 19.9612 14.1694C20.2481 14.1085 20.4206 13.9191 20.4066 13.6257C20.3925 13.3407 20.2294 13.1476 19.9256 13.1176C19.8094 13.1063 19.6922 13.111 19.575 13.111C17.1094 13.111 14.6437 13.111 12.1772 13.111ZM12.18 17.0607C14.6456 17.0607 17.1112 17.0607 19.5769 17.0607C19.7053 17.0607 19.8375 17.0729 19.9612 17.0476C20.2509 16.9904 20.4159 16.7982 20.4066 16.5057C20.3972 16.231 20.2341 16.0519 19.9566 16.0022C19.8544 15.9835 19.7466 15.9919 19.6416 15.9919C14.6634 15.9919 9.68624 15.9919 4.70812 15.9919C4.61437 15.9919 4.51968 15.9854 4.42781 15.9985C4.13156 16.0388 3.96937 16.2207 3.94499 16.5113C3.92249 16.7851 4.14093 17.0204 4.43249 17.0541C4.54781 17.0672 4.66593 17.0607 4.78312 17.0607C7.24874 17.0607 9.71437 17.0607 12.18 17.0607ZM12.1753 18.8701C9.65156 18.8701 7.12781 18.8701 4.60312 18.8701C4.19624 18.8701 3.95249 19.0679 3.94218 19.3885C3.93187 19.7204 4.18687 19.9313 4.60687 19.9388C4.65374 19.9388 4.70062 19.9388 4.74749 19.9388C9.70218 19.9388 14.6559 19.9388 19.6106 19.9388C19.7278 19.9388 19.8469 19.9482 19.9603 19.9266C20.2369 19.8751 20.4 19.6941 20.4056 19.4194C20.4122 19.1269 20.2462 18.9366 19.9556 18.8813C19.8422 18.8597 19.7231 18.8701 19.6059 18.8701C17.1291 18.8701 14.6512 18.8701 12.1744 18.8701H12.1753ZM8.42531 22.8169C9.72187 22.8169 11.0194 22.8207 12.3159 22.8141C12.6628 22.8122 12.8944 22.5844 12.8944 22.2844C12.8944 21.9872 12.6553 21.751 12.3169 21.751C9.72281 21.7463 7.12874 21.7491 4.53562 21.7472C4.34906 21.7472 4.18781 21.7988 4.07062 21.9469C3.93843 22.1147 3.89812 22.3004 3.99656 22.5029C4.10624 22.7288 4.28718 22.8188 4.53374 22.8188C5.83031 22.816 7.12781 22.8179 8.42437 22.8169H8.42531Z" fill="#DEE9EE"/>
<path id="Vector_6" d="M30.6619 13.545C30.2653 14.2697 29.8753 14.9981 29.4684 15.7162C29.1816 16.2216 28.9228 16.7447 28.5656 17.2078C28.3903 17.1159 28.2159 17.0241 28.0406 16.9322C27.1369 16.4587 26.2322 15.9862 25.3284 15.5128C25.3575 15.2278 25.4925 14.9812 25.6153 14.7319C27.2559 11.4047 28.9378 8.09812 30.7912 4.88344C31.1316 4.29375 31.41 3.64969 31.9941 3.23438C32.5922 3.55594 33.2859 3.73687 33.6684 4.37437L33.7594 4.71938C33.8006 5.60531 33.4659 6.4125 33.2137 7.23187C32.5866 9.27469 31.7503 11.2359 30.8156 13.1559C30.7547 13.2806 30.7125 13.4147 30.6609 13.5441L30.6619 13.545Z" fill="#70C5D9"/>
<path id="Vector_7" d="M31.9941 3.23441C31.41 3.64973 31.1306 4.29379 30.7913 4.88348C28.9378 8.0991 27.256 11.4047 25.6153 14.7319C25.4925 14.9813 25.3566 15.2278 25.3285 15.5128C24.646 15.2288 23.9916 14.8885 23.3484 14.5257C24.0844 12.6469 24.9956 10.8535 25.9622 9.08535C26.5716 7.9716 27.2728 6.91504 27.9366 5.83504C28.4831 5.12629 28.9781 4.3791 29.5585 3.69473C29.8613 3.33754 30.1556 2.97379 30.646 2.86223C31.0828 2.83785 31.4953 2.94004 31.8966 3.10223C31.9294 3.14629 31.9622 3.19035 31.9941 3.23348V3.23441Z" fill="#63AFCA"/>
<path id="Vector_8" d="M33.7594 4.71942C33.7294 4.60411 33.6984 4.48973 33.6684 4.37442C33.8119 4.13442 33.9553 3.89442 34.0988 3.65442C35.8369 4.48692 36.3366 6.28129 35.5856 8.18817C34.9959 9.68629 34.1391 11.0354 33.3122 12.4022C33.1491 12.6713 32.9803 12.9375 32.805 13.1991C32.5866 13.5244 32.2988 13.5947 32.0025 13.4072C31.7559 13.2507 31.7006 12.9535 31.8919 12.6329C32.3869 11.8004 32.9034 10.9819 33.3938 10.1466C33.9609 9.17911 34.5431 8.20598 34.7559 7.09129C34.9556 6.04598 34.7616 5.24817 33.7594 4.71942Z" fill="#B4D0D5"/>
<path id="Vector_9" d="M34.0997 3.65441C33.9563 3.89441 33.8128 4.13441 33.6694 4.37441C33.2869 3.73691 32.5931 3.55597 31.995 3.23441C31.9622 3.19035 31.9294 3.14628 31.8975 3.10316C32.2228 2.71316 32.3813 2.23222 32.6063 1.78972C32.8247 1.35847 33.1472 1.13628 33.6253 1.12878C34.4897 1.44285 34.9847 1.81128 34.47 2.91566C34.3538 3.16597 34.1466 3.36941 34.1006 3.65441H34.0997Z" fill="#DEE9EE"/>
<path id="Vector_10" d="M33.6244 1.12879C33.1462 1.13536 32.8237 1.35754 32.6053 1.78973C32.3803 2.23317 32.2219 2.71411 31.8966 3.10317C31.4953 2.94098 31.0828 2.83973 30.6459 2.86317C30.9094 2.18911 31.2309 1.54129 31.6181 0.932856C31.8309 0.599106 32.1966 0.484731 32.5762 0.594418C32.9541 0.704106 33.3187 0.866293 33.6253 1.12786L33.6244 1.12879Z" fill="#B4D0D5"/>
<path id="Vector_11" d="M28.0031 18.105C27.4894 19.0209 26.8491 19.8515 26.2031 20.6728C25.5553 21.4968 24.8578 22.2797 24.0366 22.9434C23.5856 23.3081 23.0897 23.5725 22.5319 23.7243C22.3556 23.7056 22.1888 23.6559 22.0322 23.5734C22.0041 23.2397 22.0997 22.9284 22.1991 22.6172C22.56 21.4837 23.0306 20.3934 23.5078 19.3059C23.9138 18.3806 24.2981 17.444 24.7838 16.5553C24.9319 16.5478 25.0481 16.6312 25.1719 16.6931C26.116 17.1628 27.0591 17.6343 28.0031 18.105Z" fill="#70C5D9"/>
<path id="Vector_12" d="M12.1772 13.1109C14.6428 13.1109 17.1085 13.1109 19.575 13.1109C19.6922 13.1109 19.8094 13.1053 19.9257 13.1175C20.2294 13.1475 20.3925 13.3406 20.4066 13.6256C20.4207 13.9181 20.2491 14.1084 19.9613 14.1694C19.8488 14.1928 19.7288 14.1806 19.6116 14.1806C14.6569 14.1806 9.70128 14.1806 4.74659 14.1806C4.68846 14.1806 4.6294 14.1815 4.57128 14.1806C4.18315 14.1703 3.9319 13.949 3.94409 13.6275C3.95534 13.319 4.19534 13.1128 4.5694 13.1128C6.81284 13.11 9.05721 13.1109 11.3007 13.1109C11.5932 13.1109 11.8847 13.1109 12.1772 13.1109Z" fill="#617881"/>
<path id="Vector_13" d="M12.18 17.0606C9.71439 17.0606 7.24877 17.0606 4.78314 17.0606C4.66595 17.0606 4.54877 17.0672 4.43252 17.0541C4.14095 17.0203 3.92345 16.785 3.94502 16.5113C3.96845 16.2206 4.13158 16.0388 4.42783 15.9984C4.5197 15.9863 4.61439 15.9919 4.70814 15.9919C9.68627 15.9919 14.6635 15.9919 19.6416 15.9919C19.7466 15.9919 19.8544 15.9834 19.9566 16.0022C20.2331 16.0519 20.3972 16.2309 20.4066 16.5056C20.416 16.7981 20.2519 16.9903 19.9613 17.0475C19.8366 17.0719 19.7053 17.0606 19.5769 17.0606C17.1113 17.0606 14.6456 17.0606 12.18 17.0606Z" fill="#617881"/>
<path id="Vector_14" d="M12.1753 18.87C14.6522 18.87 17.13 18.87 19.6069 18.87C19.724 18.87 19.8431 18.8597 19.9565 18.8813C20.2472 18.9366 20.4131 19.1278 20.4065 19.4194C20.4 19.6941 20.2369 19.875 19.9612 19.9266C19.8478 19.9472 19.7287 19.9388 19.6115 19.9388C14.6569 19.9388 9.70311 19.9388 4.74842 19.9388C4.70154 19.9388 4.65467 19.9388 4.60779 19.9388C4.18686 19.9322 3.93186 19.7213 3.94311 19.3885C3.95342 19.0678 4.19717 18.87 4.60404 18.87C7.12779 18.8681 9.65154 18.87 12.1762 18.8691L12.1753 18.87Z" fill="#617881"/>
<path id="Vector_15" d="M24.7837 16.5563C24.2981 17.4451 23.9128 18.3807 23.5078 19.3069C23.0315 20.3944 22.56 21.4847 22.199 22.6182C22.0997 22.9294 22.004 23.2407 22.0322 23.5744C21.914 23.4816 21.795 23.3897 21.6768 23.2969C21.2465 22.306 21.3872 21.2869 21.5615 20.2772C21.8372 18.6807 22.3312 17.1432 22.9003 15.6291C22.9078 15.6085 22.9293 15.5935 22.9434 15.5757C23.1 15.6535 23.2593 15.7247 23.4112 15.8101C23.865 16.0651 24.3703 16.2272 24.7837 16.5572V16.5563Z" fill="#63AFCB"/>
<path id="Vector_16" d="M8.42532 22.8179C7.12875 22.8179 5.83125 22.8169 4.53469 22.8197C4.28813 22.8197 4.10719 22.7297 3.9975 22.5038C3.89906 22.3013 3.93844 22.1157 4.07156 21.9479C4.18781 21.8007 4.34906 21.7482 4.53656 21.7482C7.13063 21.75 9.72469 21.7482 12.3178 21.7519C12.6563 21.7519 12.8953 21.9891 12.8953 22.2854C12.8953 22.5854 12.6638 22.8132 12.3169 22.815C11.0203 22.8216 9.72282 22.8179 8.42625 22.8179H8.42532Z" fill="#617881"/>
<path id="Vector_17" d="M24.7837 16.5563C24.3703 16.2272 23.8659 16.065 23.4112 15.8091C23.2594 15.7238 23.099 15.6525 22.9434 15.5747C23.0165 15.2016 23.1853 14.8641 23.3484 14.5256C23.9915 14.8884 24.6459 15.2288 25.3284 15.5128C26.2322 15.9863 27.1369 16.4588 28.0406 16.9322C28.2159 17.0241 28.3903 17.1159 28.5656 17.2078C28.4428 17.5481 28.2478 17.8425 28.0031 18.105C27.06 17.6344 26.1159 17.1638 25.1719 16.6931C25.0481 16.6313 24.9319 16.5478 24.7837 16.5553V16.5563Z" fill="#B2CFD4"/>
<path id="Vector_18" d="M21.6768 23.2969C21.795 23.3897 21.914 23.4816 22.0322 23.5744C22.1887 23.6569 22.3556 23.7066 22.5318 23.7253C22.5056 24.0563 22.2965 24.3075 22.1156 24.5522C21.9562 24.7678 21.6834 24.8278 21.4303 24.6656C21.195 24.5147 21.1265 24.2728 21.224 24.0244C21.329 23.7591 21.4462 23.4891 21.6778 23.2969H21.6768Z" fill="#B3D0D5"/>
</g>
<defs>
<clipPath id="clip0_1330_3189">
<rect width="36" height="36" fill="white"/>
</clipPath>
</defs>
</svg>
