<svg width="36" height="36" viewBox="0 0 36 36" fill="none" xmlns="http://www.w3.org/2000/svg">
<g id="Layer_1" clip-path="url(#clip0_1330_8546)">
<path id="Vector" d="M0.00657325 25.8919C0.00657325 17.3691 0.00844825 8.84531 1.07533e-05 0.3225C1.07533e-05 0.0590625 0.0600108 0 0.322511 0C12.1078 0.0075 23.8922 0.0075 35.6775 0C35.9409 0 36 0.0590625 36 0.3225C35.9925 12.1078 35.9925 23.8931 36 35.6784C36 35.9419 35.9409 36.0009 35.6775 36.0009C23.8922 35.9934 12.1078 35.9934 0.322511 36.0009C0.0590733 36.0009 -0.000926747 35.9419 1.07533e-05 35.6784C0.0112608 33.0478 0.00657325 30.4172 0.00657325 27.7866C0.131261 27.9544 0.101261 28.1625 0.138761 28.35C0.700323 31.1353 2.26595 33.1509 4.78032 34.4466C6.96751 35.4862 9.19689 35.5763 11.4572 34.7203C11.8772 34.5609 12.2606 34.5066 12.7069 34.6359C13.9134 34.9866 15.1331 35.2922 16.3481 35.6109C16.9153 35.76 17.2031 35.4872 17.0597 34.9387C16.7494 33.7566 16.4494 32.5716 16.1091 31.3988C15.9769 30.9431 16.0069 30.5447 16.2 30.1172C16.7841 28.8225 16.9678 27.4453 16.8225 26.0494C16.5684 23.6081 15.4331 21.6319 13.4859 20.1328C13.2703 19.9669 13.0772 19.7447 12.7772 19.7156V19.7194C12.7538 19.6884 12.7294 19.6566 12.705 19.6256C12.66 19.59 12.6188 19.5459 12.5691 19.5187C10.7616 18.5391 8.8397 18.1819 6.8222 18.6028C3.72282 19.2497 1.6322 21.105 0.489386 24.0497C0.256886 24.6478 0.201573 25.2881 0.00657325 25.8938V25.8919ZM11.8022 3.08625C11.7731 3.02156 11.7122 3.01875 11.6541 3.01219C10.3153 2.33156 8.89782 2.14219 7.4372 2.43562C3.82126 3.16219 1.5197 6.31688 1.9772 9.98906C2.26314 12.285 3.50064 13.9838 5.53501 15.0956C5.65501 15.1641 5.77032 15.2428 5.89595 15.2981C7.60595 16.0547 9.34407 16.1222 11.0934 15.4594C11.4984 15.3066 11.8622 15.2906 12.2756 15.4125C13.2113 15.6881 14.16 15.9225 15.1041 16.1709C15.5306 16.2825 15.7659 16.0566 15.6563 15.6328C15.4106 14.6878 15.1631 13.7438 14.8988 12.8044C14.7966 12.4416 14.7984 12.1134 14.9494 11.7563C15.6984 9.9825 15.7031 8.19375 14.9381 6.42844C14.2959 4.94625 13.2666 3.80344 11.7994 3.0825L11.8022 3.08625ZM29.0119 1.85812C28.9772 1.83094 28.9434 1.80281 28.9088 1.77563C27.9694 1.00688 26.8884 0.559687 25.6875 0.440625C21.2438 -0.000937521 17.7928 4.23563 19.185 8.46844C19.4203 9.18281 19.5338 9.82406 19.26 10.5206C19.0688 11.2022 18.8691 11.8819 18.69 12.5672C18.6019 12.9038 18.8513 13.1053 19.215 13.0097C20.1253 12.7697 21.0366 12.5325 21.9422 12.2784C22.2272 12.1988 22.4794 12.2194 22.7541 12.3291C23.8397 12.7641 24.9666 12.8953 26.1169 12.6806C29.1947 12.1078 30.9234 9.63469 31.1691 7.39125C31.4119 5.17406 30.7088 3.33375 29.0259 1.86844L29.0138 1.85906L29.0119 1.85812ZM20.3456 28.2047C20.04 29.0475 19.8619 29.9259 19.6228 30.7875C19.4691 31.3416 19.7372 31.6088 20.2913 31.4625C21.4388 31.1588 22.5872 30.8569 23.73 30.5363C24.1528 30.4181 24.5409 30.4322 24.9544 30.5991C26.2922 31.1409 27.6881 31.2947 29.1084 31.0622C33.8072 30.2934 36.7922 25.8375 35.7075 21.2081C35.2978 19.4616 34.3894 18.0066 32.9841 16.875C30.8025 15.1491 28.3678 14.6184 25.6791 15.3544C21.3469 16.5403 18.7894 21.2259 20.2041 25.4784C20.5097 26.3972 20.7356 27.2475 20.3475 28.17C20.3438 28.1803 20.3475 28.1934 20.3466 28.2047H20.3456Z" fill="#FEFEFE"/>
<path id="Vector_2" d="M4.78107 34.4456C2.26576 33.1509 0.701074 31.1343 0.139512 28.349C0.102012 28.1615 0.132012 27.9534 0.00732422 27.7856V25.8918C0.202324 25.2862 0.257637 24.6459 0.490137 24.0478C1.63389 21.1031 3.72357 19.2478 6.82295 18.6009C8.84045 18.18 10.7614 18.5362 12.5698 19.5168C12.6195 19.544 12.6608 19.5881 12.7058 19.6237C12.7301 19.6547 12.7536 19.6865 12.7779 19.7175V19.7137C12.7854 19.8787 12.9092 19.9828 12.9898 20.1065C13.2767 20.5453 13.5448 20.9915 13.7623 21.4715C14.5386 23.1853 14.7983 24.9665 14.4551 26.8162C13.9039 29.7918 12.2651 31.9893 9.59607 33.3993C8.32201 34.0725 6.94295 34.3856 5.49639 34.3847C5.2592 34.3847 5.00982 34.3115 4.78107 34.4456ZM10.2486 30.24C10.6808 30.2409 11.112 30.2447 11.5442 30.2418C12.1301 30.239 12.597 29.894 12.762 29.3287C12.9964 28.5262 13.2289 27.7228 13.4454 26.9147C13.6845 26.0231 13.092 25.26 12.1742 25.259C11.9061 25.259 11.6379 25.2628 11.3689 25.2656C11.1711 25.2637 10.9733 25.26 10.7754 25.259C10.4783 25.2572 10.3217 25.1118 10.3189 24.8118C10.317 24.5906 10.3226 24.3693 10.317 24.1481C10.3039 23.5893 10.0892 23.1384 9.61014 22.8253C9.2192 22.5703 8.91826 22.619 8.66795 23.0081C8.37264 23.4675 8.10076 23.9418 7.79889 24.3965C7.52139 24.8137 7.21576 25.2103 6.68795 25.3378C6.64389 24.7884 6.46482 24.5456 6.02045 24.5193C5.57889 24.4931 5.13357 24.495 4.69201 24.524C4.28139 24.5512 4.06482 24.8025 4.06389 25.2197C4.05826 26.8762 4.05732 28.5328 4.06389 30.1893C4.06576 30.6112 4.32357 30.8587 4.74545 30.869C5.12982 30.8784 5.51514 30.8737 5.90045 30.8709C6.3692 30.8672 6.55482 30.7162 6.6842 30.2428C7.87201 30.2418 9.05982 30.2409 10.2467 30.24H10.2486Z" fill="#FEA4D0"/>
<path id="Vector_3" d="M20.3458 28.2047C20.3458 28.1935 20.343 28.1794 20.3468 28.17C20.7349 27.2475 20.5089 26.3972 20.2033 25.4785C18.7886 21.2269 21.3461 16.5413 25.6783 15.3544C28.3671 14.6185 30.8027 15.1481 32.9833 16.875C32.9608 17.01 33.0189 17.1235 33.0696 17.2425C33.7446 18.8241 33.9461 20.4656 33.5768 22.1466C33.0958 24.3338 31.9239 26.0635 30.0218 27.2775C29.8924 27.36 29.7714 27.45 29.6074 27.4322C30.6564 26.7291 31.0605 25.6828 31.0539 24.4875C31.0474 23.2575 30.7174 22.0922 30.0518 21.0385C29.4377 20.0663 28.6146 19.3266 27.5861 18.8166C27.4314 18.7397 27.2543 18.6366 27.1033 18.795C26.9496 18.9563 27.1033 19.0941 27.1858 19.2291C27.453 19.666 27.6105 20.146 27.633 20.6503C27.6621 21.2785 27.5693 21.8878 27.0874 22.3631C26.5633 22.8797 25.9483 22.7213 25.7627 22.0163C25.7261 21.8766 25.7111 21.7285 25.5452 21.6928C25.3708 21.6563 25.2968 21.8025 25.2264 21.9178C24.7249 22.7428 24.4343 23.6466 24.4408 24.6056C24.4539 26.7375 25.8911 27.781 27.6818 27.8531C28.3605 27.8803 28.9952 27.7041 29.6093 27.4303C29.6074 27.5841 29.4743 27.6066 29.3749 27.6553C27.6246 28.5019 25.8011 28.7653 23.8961 28.3228C23.2043 28.1616 22.5152 28.0416 21.7971 28.0547C21.3058 28.0641 20.8305 28.1625 20.3468 28.2047H20.3458Z" fill="#FED150"/>
<path id="Vector_4" d="M19.2589 10.5198C19.5336 9.82414 19.4192 9.18289 19.1839 8.46758C17.7927 4.23571 21.2436 -0.000857493 25.6873 0.440705C26.8883 0.559768 27.9692 1.00696 28.9086 1.77571C28.9189 1.83289 28.9292 1.89102 29.0117 1.8582C29.0117 1.8582 29.0239 1.86758 29.0239 1.86852C28.9573 2.04289 29.0661 2.18164 29.1223 2.32883C29.5498 3.4407 29.6623 4.58352 29.4336 5.75071C29.1805 7.04258 28.5805 8.14602 27.6158 9.05539C26.0595 10.5226 24.2211 11.0138 22.1511 10.6145C21.1826 10.4279 20.232 10.2816 19.2589 10.5198ZM22.828 7.16258C23.1214 7.15789 23.3605 6.91789 23.3623 6.62633C23.3642 6.32258 23.1073 6.08164 22.7951 6.09383C22.4961 6.10508 22.2692 6.34602 22.2786 6.64133C22.288 6.93289 22.5345 7.16727 22.828 7.16164V7.16258ZM27.088 6.57758C27.0627 6.86633 27.2801 7.12977 27.5708 7.16071C27.8755 7.19352 28.1483 6.96196 28.1661 6.65633C28.183 6.37133 27.9833 6.13133 27.702 6.09852C27.3851 6.06102 27.1152 6.27289 27.088 6.57758ZM25.2355 6.09289C24.9308 6.08727 24.7011 6.30383 24.6917 6.60571C24.6823 6.91883 24.9214 7.16727 25.2308 7.16352C25.5252 7.15977 25.7577 6.92446 25.7586 6.62821C25.7595 6.32633 25.5373 6.09852 25.2355 6.09289Z" fill="#01D7A2"/>
<path id="Vector_5" d="M5.53499 15.0938C3.50156 13.9819 2.26312 12.2832 1.97718 9.98725C1.51968 6.31506 3.82124 3.16038 7.43718 2.43381C8.89781 2.14038 10.3153 2.32975 11.6541 3.01038C11.6803 3.08069 11.7375 3.09006 11.8022 3.08444L11.7994 3.08069C11.7984 3.23163 11.8809 3.34131 11.9737 3.45006C12.3094 3.841 12.5775 4.27975 12.7884 4.74569C13.4447 6.19225 13.6678 7.69788 13.3369 9.26538C12.7772 11.9157 11.1937 13.6894 8.69437 14.6804C7.67437 15.0844 6.60937 15.1163 5.53499 15.0938ZM12.4275 8.61663C12.3666 7.7485 11.9841 7.0885 11.1759 6.73975C10.3584 6.38725 9.58968 6.52506 8.93999 7.13069C8.71406 7.34069 8.60718 7.37913 8.36624 7.14288C7.24593 6.04788 5.36812 6.56913 4.95749 8.08131C4.70343 9.01881 5.08406 9.74725 5.78249 10.3407C6.60281 11.0373 7.52156 11.5979 8.42062 12.1829C8.57531 12.2841 8.71968 12.2869 8.87531 12.1866C9.82687 11.5744 10.7991 10.9904 11.6541 10.2423C12.1434 9.81381 12.3872 9.25975 12.4275 8.61569V8.61663Z" fill="#01D0FC"/>
<path id="Vector_6" d="M20.3456 28.2047C20.8294 28.1616 21.3047 28.0631 21.7959 28.0547C22.5141 28.0416 23.2022 28.1616 23.895 28.3228C25.8 28.7662 27.6234 28.5028 29.3737 27.6553C29.4731 27.6075 29.6062 27.585 29.6081 27.4303V27.4322C29.7712 27.45 29.8912 27.36 30.0206 27.2775C31.9228 26.0634 33.0947 24.3337 33.5756 22.1466C33.945 20.4656 33.7444 18.825 33.0684 17.2425C33.0178 17.1234 32.9597 17.01 32.9822 16.875C34.3875 18.0066 35.2969 19.4616 35.7056 21.2081C36.7903 25.8375 33.8053 30.2934 29.1066 31.0622C27.6862 31.2947 26.2903 31.1409 24.9525 30.5991C24.54 30.4322 24.1519 30.4172 23.7281 30.5363C22.5853 30.8569 21.4369 31.1588 20.2894 31.4625C19.7362 31.6088 19.4672 31.3416 19.6209 30.7875C19.86 29.9259 20.0381 29.0475 20.3437 28.2047H20.3456Z" fill="#FEC434"/>
<path id="Vector_7" d="M4.78125 34.4457C5.00906 34.3117 5.25844 34.3848 5.49656 34.3848C6.94406 34.3848 8.32219 34.0726 9.59625 33.3995C12.2644 31.9895 13.9031 29.792 14.4553 26.8164C14.7984 24.9667 14.5388 23.1854 13.7625 21.4717C13.545 20.9917 13.2769 20.5454 12.99 20.1067C12.9094 19.9829 12.7847 19.8789 12.7781 19.7139C13.0791 19.7429 13.2722 19.9651 13.4869 20.1311C15.4341 21.6301 16.5694 23.6064 16.8234 26.0476C16.9687 27.4436 16.785 28.8207 16.2009 30.1154C16.0087 30.5429 15.9778 30.9414 16.11 31.397C16.4503 32.5707 16.7503 33.7548 17.0606 34.937C17.205 35.4854 16.9162 35.7582 16.3491 35.6092C15.1331 35.2904 13.9144 34.9848 12.7078 34.6342C12.2616 34.5048 11.8781 34.5601 11.4581 34.7186C9.19781 35.5745 6.96844 35.4854 4.78125 34.4448V34.4457Z" fill="#FE7BBA"/>
<path id="Vector_8" d="M19.2592 10.5197C20.2323 10.2806 21.1839 10.4268 22.1514 10.6143C24.2214 11.0137 26.0598 10.5225 27.6161 9.05528C28.5807 8.14591 29.1807 7.04153 29.4339 5.7506C29.6626 4.58341 29.5501 3.4406 29.1226 2.32872C29.0664 2.18153 28.9576 2.04278 29.0242 1.86841C30.7079 3.33372 31.4101 5.17403 31.1682 7.39122C30.9226 9.63466 29.1939 12.1078 26.1161 12.6806C24.9657 12.8943 23.8389 12.764 22.7532 12.329C22.4786 12.2193 22.2264 12.1987 21.9414 12.2784C21.0348 12.5325 20.1236 12.7687 19.2142 13.0097C18.8504 13.1053 18.6011 12.9037 18.6892 12.5672C18.8682 11.8818 19.0679 11.2031 19.2592 10.5206V10.5197Z" fill="#01C4A4"/>
<path id="Vector_9" d="M5.53516 15.0937C6.60953 15.1162 7.67453 15.0843 8.69453 14.6803C11.1939 13.6893 12.7773 11.9156 13.337 9.26525C13.668 7.69775 13.4448 6.19213 12.7886 4.74557C12.5767 4.27963 12.3095 3.84088 11.9739 3.44994C11.8811 3.34213 11.7986 3.2315 11.7995 3.08057C13.2667 3.8015 14.2961 4.94432 14.9383 6.4265C15.7033 8.19182 15.6986 9.98057 14.9495 11.7543C14.7986 12.1115 14.7967 12.4396 14.8989 12.8024C15.1633 13.7418 15.4108 14.6868 15.6564 15.6309C15.767 16.0546 15.5308 16.2806 15.1042 16.169C14.1602 15.9215 13.2114 15.6871 12.2758 15.4106C11.8623 15.2887 11.4986 15.3037 11.0936 15.4574C9.34422 16.1203 7.60609 16.0528 5.89609 15.2962C5.77047 15.2409 5.65516 15.1612 5.53516 15.0937Z" fill="#01C1FB"/>
<path id="Vector_10" d="M29.0118 1.85813C28.9293 1.89095 28.919 1.83282 28.9087 1.77563C28.9434 1.80282 28.9771 1.83095 29.0118 1.85813Z" fill="#01C4A4"/>
<path id="Vector_11" d="M11.8024 3.08627C11.7377 3.09096 11.6815 3.08158 11.6543 3.01221C11.7124 3.01971 11.7724 3.02252 11.8024 3.08627Z" fill="#01C1FB"/>
<path id="Vector_12" d="M6.68885 25.3396C7.21666 25.2121 7.52322 24.8156 7.79978 24.3984C8.10166 23.9437 8.37354 23.4693 8.66885 23.01C8.91916 22.6209 9.2201 22.5721 9.61103 22.8271C10.0901 23.1403 10.3048 23.5912 10.3179 24.15C10.3235 24.3712 10.3179 24.5924 10.3198 24.8137C10.3226 25.1137 10.4792 25.259 10.7763 25.2609C10.9742 25.2618 11.172 25.2646 11.3698 25.2674C11.3782 25.3246 11.3679 25.3968 11.3988 25.4353C11.817 25.9509 11.7467 26.5078 11.5498 27.0787C11.5048 27.21 11.4795 27.3468 11.4345 27.4781C11.111 28.4296 11.141 29.5331 10.2485 30.24C9.06072 30.2409 7.87291 30.2418 6.68604 30.2428C6.68697 28.6078 6.68791 26.9737 6.68885 25.3387V25.3396Z" fill="#F6EAEA"/>
<path id="Vector_13" d="M6.68895 25.3398C6.68801 26.9748 6.68708 28.6089 6.68614 30.2439C6.55583 30.7182 6.3702 30.8682 5.90239 30.872C5.51708 30.8748 5.1327 30.8795 4.74739 30.8701C4.32551 30.8598 4.0677 30.6123 4.06583 30.1904C4.05833 28.5339 4.05926 26.8773 4.06583 25.2207C4.0677 24.8045 4.28426 24.5523 4.69395 24.5251C5.13551 24.4961 5.58083 24.4942 6.02239 24.5204C6.4677 24.5467 6.64583 24.7904 6.68989 25.3389L6.68895 25.3398Z" fill="#01A7FE"/>
<path id="Vector_14" d="M10.2485 30.24C11.142 29.5331 11.111 28.4297 11.4345 27.4781C11.4795 27.3468 11.5048 27.209 11.5498 27.0787C11.7467 26.5078 11.817 25.9509 11.3988 25.4353C11.3679 25.3968 11.3782 25.3237 11.3698 25.2675C11.6379 25.2656 11.906 25.2609 12.1751 25.2618C13.0929 25.2618 13.6854 26.0259 13.4463 26.9175C13.2298 27.7247 12.9963 28.5281 12.7629 29.3315C12.5979 29.8968 12.131 30.2418 11.5451 30.2447C11.1129 30.2465 10.6817 30.2437 10.2495 30.2428L10.2485 30.24Z" fill="#F1E0E0"/>
<path id="Vector_15" d="M29.607 27.4313C28.9939 27.7051 28.3592 27.8822 27.6795 27.8541C25.8889 27.781 24.4517 26.7376 24.4386 24.6066C24.4329 23.6476 24.7236 22.7438 25.2242 21.9188C25.2945 21.8026 25.3686 21.6563 25.5429 21.6938C25.7089 21.7285 25.7229 21.8776 25.7604 22.0173C25.947 22.7213 26.562 22.8798 27.0851 22.3641C27.567 21.8898 27.6589 21.2804 27.6307 20.6513C27.6073 20.1469 27.4507 19.6669 27.1836 19.2301C27.1011 19.0951 26.9464 18.9573 27.1011 18.796C27.2529 18.6376 27.4301 18.7407 27.5839 18.8176C28.6123 19.3285 29.4354 20.0672 30.0495 21.0394C30.7151 22.0932 31.0451 23.2585 31.0517 24.4885C31.0582 25.6838 30.6542 26.7301 29.6051 27.4332L29.6061 27.4313H29.607Z" fill="#FE7BB9"/>
<path id="Vector_16" d="M22.828 7.16249C22.5355 7.16718 22.288 6.93374 22.2786 6.64218C22.2692 6.34687 22.4961 6.10593 22.7952 6.09468C23.1083 6.08249 23.3652 6.32343 23.3624 6.62718C23.3605 6.91874 23.1214 7.15781 22.828 7.16343V7.16249Z" fill="#F7F3F2"/>
<path id="Vector_17" d="M27.0879 6.5776C27.1151 6.27291 27.3861 6.06104 27.702 6.09854C27.9833 6.13135 28.1829 6.37135 28.1661 6.65635C28.1483 6.96197 27.8754 7.19354 27.5708 7.16072C27.2801 7.12979 27.0626 6.86635 27.0879 6.5776Z" fill="#F8F3F2"/>
<path id="Vector_18" d="M25.2354 6.09285C25.5373 6.09847 25.7595 6.32629 25.7585 6.62816C25.7576 6.92441 25.5242 7.15972 25.2307 7.16347C24.9214 7.16722 24.6823 6.91879 24.6917 6.60566C24.701 6.30379 24.9307 6.08816 25.2354 6.09285Z" fill="#F8F3F2"/>
<path id="Vector_19" d="M12.4274 8.61646C12.3871 9.26052 12.1434 9.81459 11.654 10.243C10.799 10.9921 9.8268 11.5761 8.87524 12.1874C8.71961 12.2877 8.57524 12.284 8.42055 12.1836C7.52149 11.5977 6.60368 11.038 5.78243 10.3415C5.08305 9.74802 4.70243 9.01865 4.95743 8.08209C5.36805 6.56896 7.2468 6.04771 8.36618 7.14365C8.60805 7.3799 8.71493 7.34146 8.93993 7.13146C9.58961 6.52677 10.3584 6.38896 11.1759 6.74052C11.9831 7.08834 12.3656 7.74927 12.4274 8.6174V8.61646Z" fill="#FC7BBA"/>
</g>
<defs>
<clipPath id="clip0_1330_8546">
<rect width="36" height="36" fill="white"/>
</clipPath>
</defs>
</svg>
