<svg width="56" height="56" viewBox="0 0 56 56" fill="none" xmlns="http://www.w3.org/2000/svg">
<g clip-path="url(#clip0_589_4864)">
<path d="M4.04764e-06 23.2807C-0.0398496 16.0292 2.68158 10.0338 8.46035 5.65999C12.4685 2.62232 16.9264 1.17772 22.1244 2.47957C25.9447 3.43884 29.9585 3.40458 33.7959 2.50241C40.8727 0.840835 46.2586 3.71291 50.745 8.68623C54.8613 13.2484 56.4612 18.8784 55.8747 24.9537C55.3623 30.2696 53.2103 35.026 49.8113 39.1713C46.9988 42.603 43.8447 45.6635 39.6942 47.4107C36.0903 48.9238 32.344 49.4377 28.3758 49.2265C26.0358 49.1009 23.6787 49.2322 21.3274 48.901C15.634 48.0959 11.3298 44.9212 7.56649 40.8615C3.68361 36.6647 1.19561 31.7371 0.182192 26.0729C0.0170842 25.1364 0.0683245 24.2114 4.04764e-06 23.2807Z" fill="#CAADC6"/>
<path d="M52.083 22.156C51.7357 24.8396 50.4262 27.3406 48.2172 29.3619C47.7389 29.8015 47.0785 30.0413 46.5832 29.4532C46.2074 29.0136 46.4579 28.4768 46.8451 28.0771C47.7105 27.1807 48.4563 26.1986 49.0085 25.0852C49.6861 23.7148 50.5913 22.4186 48.7979 21.054C47.978 20.4316 48.1773 19.3353 49.0712 18.6615C49.8796 18.0506 51.1606 18.456 51.6958 19.4381C52.1057 20.1918 52.0887 21.0254 52.083 22.1617V22.156Z" fill="black"/>
<path d="M6.59859 25.342C6.54735 24.3713 6.68968 23.6861 7.24194 23.1265C7.79419 22.567 8.42616 22.2644 9.18907 22.6127C10.0488 23.0066 10.6637 23.9316 10.1285 24.6054C8.61404 26.5011 9.70717 28.0713 10.3733 29.7729C10.7206 30.6636 11.7511 31.9084 10.5213 32.5022C9.21184 33.136 8.96134 31.5258 8.56849 30.6693C7.75434 28.8821 6.89464 27.1063 6.60428 25.3477L6.59859 25.342Z" fill="black"/>
<path d="M40.6621 53.9544C39.2786 54.0229 38.4359 53.7431 38.026 52.7496C37.5193 51.522 37.0354 50.2829 36.597 49.0267C36.392 48.4443 36.2952 47.7363 37.0582 47.4794C37.8097 47.2338 38.1968 47.8505 38.3847 48.4215C38.8971 49.9917 39.8991 50.7054 41.5616 50.7112C42.4384 50.7112 43.1558 51.2879 43.1216 52.27C43.0874 53.2292 42.3245 53.6346 41.4876 53.8402C41.0948 53.9372 40.6791 53.9487 40.6564 53.9544H40.6621Z" fill="black"/>
<path d="M25.1761 13.8766C25.1363 14.2306 24.8914 14.4019 24.5897 14.5047C24.1513 14.6531 23.804 14.3848 23.4225 14.2363C20.3937 13.0315 20.1773 13.0829 18.1676 15.3954C17.7804 15.8408 17.5185 16.6402 16.767 16.2576C15.8674 15.8008 16.2888 15.0014 16.5734 14.3619C17.9341 11.2957 22.3465 10.4621 24.6979 12.8031C24.9939 13.1 25.2501 13.4141 25.1761 13.8766Z" fill="black"/>
<path d="M30.4481 30.3382C28.8141 30.1726 26.8328 29.299 24.7889 30.1726C24.6124 30.2468 24.1683 30.0127 24.0431 29.8072C23.8153 29.436 23.9577 29.0135 24.2765 28.7052C25.2615 27.7516 26.5026 27.6945 27.721 27.8887C29.429 28.1627 31.1029 28.6823 32.8621 28.157C33.2322 28.0485 33.682 28.197 33.83 28.6766C34.0236 29.2933 33.6364 29.6302 33.1923 29.9043C32.4579 30.3439 31.6323 30.3439 30.4481 30.3439V30.3382Z" fill="black"/>
<path d="M22.3237 48.7012C21.965 50.2371 21.2761 51.8416 20.2058 53.252C19.6535 53.9828 18.7995 54.0513 17.9626 53.9771C17.3135 53.92 16.7556 53.6459 16.6303 52.9208C16.5392 52.3726 16.7214 51.7902 17.2281 51.6075C19.0159 50.9737 20.0805 49.7575 20.6612 47.976C20.8036 47.5364 21.3274 47.1309 21.9195 47.4507C22.3123 47.662 22.4319 48.0617 22.3294 48.7012H22.3237Z" fill="black"/>
<path d="M34.2171 15.7208C35.2647 15.7722 36.7108 15.0071 36.7848 16.5602C36.8304 17.548 35.4184 17.5537 34.5303 17.6679C32.122 17.9705 30.431 17.4966 30.767 16.7429C31.5071 15.0927 33.1468 16.0863 34.2228 15.7208H34.2171Z" fill="black"/>
<path d="M37.9235 25.2164C37.2631 25.1365 36.9784 24.7482 37.0354 24.3714C37.2119 23.2237 38.0602 22.6356 39.1134 22.4871C39.6144 22.4186 40.1269 22.8697 39.9561 23.4749C39.6543 24.5427 38.8857 25.1365 37.9178 25.2164H37.9235Z" fill="white"/>
<path d="M19.8812 23.3208C20.6043 23.435 21.669 23.2751 21.6348 24.4399C21.6063 25.4449 20.684 25.3021 19.9837 25.2679C19.2721 25.2393 18.3896 25.2507 18.3213 24.32C18.2472 23.3208 19.0899 23.3094 19.8812 23.3208Z" fill="white"/>
<path d="M25.9504 22.1902C25.9276 23.0638 25.6145 23.6462 24.937 23.6976C24.0659 23.7604 23.6674 23.0695 23.6503 22.3101C23.6332 21.6249 24.1058 21.1624 24.8117 21.1738C25.5348 21.1852 25.8138 21.7391 25.9504 22.1902Z" fill="black"/>
<path d="M33.181 22.4871C33.0956 23.0295 32.7881 23.3778 32.2188 23.4063C31.6779 23.4349 31.1997 23.2408 31.1428 22.6412C31.0744 21.9161 31.5242 21.5506 32.2131 21.5449C32.7938 21.5449 33.0842 21.9218 33.1753 22.4813L33.181 22.4871Z" fill="black"/>
</g>
<defs>
<clipPath id="clip0_589_4864">
<rect width="56" height="56" fill="white"/>
</clipPath>
</defs>
</svg>
