<svg width="120" height="120" viewBox="0 0 120 120" fill="none" xmlns="http://www.w3.org/2000/svg">
<rect width="120" height="120" rx="60" fill="#EEEEF0"/>
<path d="M60.5027 120C49.1473 120 37.7876 120 26.4323 119.996C25.7117 119.996 24.9868 119.927 24.2662 119.871C20.7329 119.595 19.0226 117.805 19.0009 114.353C18.8924 97.7495 28.3943 83.3662 43.7691 76.9536C44.3942 76.6911 45.4186 76.6351 45.9438 76.9708C55.1939 82.8928 64.5916 81.9761 74.0154 77.5604C75.4999 76.8675 76.6458 76.8761 78.0653 77.5346C92.5112 84.2657 100.759 95.2619 101.822 111.25C101.887 112.253 102.026 113.256 101.996 114.254C101.879 117.964 100.09 119.785 96.318 119.828C89.8807 119.901 83.4391 119.862 77.0018 119.867C71.5021 119.867 66.0067 119.867 60.507 119.867C60.507 119.91 60.507 119.953 60.507 119.996L60.5027 120Z" fill="#858588"/>
<path d="M60.1033 76.364C48.0317 76.2521 38.0784 66.0736 38.2217 53.9972C38.3649 41.9036 48.5309 31.9102 60.5982 32.0006C73.0561 32.0953 82.8488 42.1231 82.8314 54.7633C82.814 66.461 72.2704 76.4802 60.1033 76.3683V76.364Z" fill="#858588"/>
</svg>
