<svg width="56" height="56" viewBox="0 0 56 56" fill="none" xmlns="http://www.w3.org/2000/svg">
<g clip-path="url(#clip0_589_4811)">
<path d="M15.5537 3.11297C21.9846 3.15179 28.3434 2.39756 34.6801 1.39376C37.2447 0.98891 39.7982 0.722709 42.4237 1.48804C45.6585 2.43083 47.1596 4.51053 47.6858 7.6994C48.4835 12.5021 48.7438 17.3547 49.2202 22.1907C49.5359 25.3796 50.1729 28.5241 51.037 31.6298C51.9731 35.0016 52.948 38.4068 51.8789 41.9451C50.7877 45.5665 48.7216 48.2341 44.944 49.4597C40.69 50.8406 36.4194 51.4396 31.9272 50.9959C29.3072 50.7352 26.6263 50.8628 23.9565 51.0957C21.5747 51.3009 19.143 51.0735 16.7501 50.8683C13.6649 50.6021 10.5519 50.3914 7.62728 49.1769C3.43974 47.4355 1.11887 44.2577 0.204926 39.8598C-0.542849 36.2495 0.858536 32.9219 1.31274 29.4724C1.99958 24.2482 2.78059 19.0462 2.08821 13.7499C1.46229 8.87512 6.53054 3.15734 11.4769 3.11297C12.834 3.10188 14.1966 3.11297 15.5537 3.11297Z" fill="#F0ECAE"/>
<path d="M34.4475 21.0815C32.3371 21.1148 30.4427 20.8431 28.8143 19.7339C27.856 19.085 27.0141 19.1128 26.0059 19.5287C23.2032 20.6822 20.3284 20.5103 17.4481 19.8282C16.9496 19.7117 16.3458 19.5343 16.4012 18.9686C16.4787 18.1922 17.1656 18.1533 17.7915 18.2864C19.6692 18.6913 21.5581 18.8854 23.458 18.536C25.0532 18.2421 26.6263 17.9814 26.8977 15.8463C27.0141 14.909 27.7341 14.1714 28.853 14.5097C29.8611 14.8092 29.8944 15.7353 29.6396 16.5007C29.0912 18.1811 30.1381 18.6913 31.3678 19.0185C33.3452 19.5453 35.3448 19.4289 37.3167 18.9353C37.7986 18.8133 38.2639 18.6081 38.7347 18.4306C39.2388 18.2421 39.7927 18.17 40.0475 18.7079C40.3964 19.4511 39.7484 19.7672 39.2277 20.0445C38.2473 20.5769 37.1616 20.8098 36.0704 20.9706C35.4778 21.0594 34.8685 21.0538 34.4419 21.076L34.4475 21.0815Z" fill="black"/>
<path d="M7.38361 12.674C7.48331 10.4556 7.93751 8.61442 8.96778 6.95066C9.22812 6.52918 9.57708 6.10769 10.1753 6.32398C10.7569 6.53472 10.9618 7.09486 10.6904 7.54407C8.39726 11.3818 10.0424 15.4247 10.0257 19.3734C10.0257 20.0611 10.4301 20.8763 9.42198 21.076C8.3474 21.2922 7.98736 20.4881 7.97075 19.6229C7.93197 17.205 7.84335 14.787 7.38361 12.674Z" fill="white"/>
<path d="M6.87396 27.8198C7.15645 27.8087 7.70482 27.9639 7.943 28.391C8.60769 29.5889 9.69888 30.2267 10.8012 30.9033C11.1113 31.0918 11.3772 31.48 11.1446 31.9292C10.9396 32.3285 10.5685 32.5615 10.1697 32.4173C8.67969 31.8793 7.17307 31.358 5.74953 30.6648C5.10145 30.3487 4.91867 29.5556 5.24547 28.818C5.50581 28.2357 5.95447 27.8697 6.86842 27.8142L6.87396 27.8198Z" fill="black"/>
<path d="M49.934 29.0096C49.5795 28.8154 49.2361 28.7378 49.1087 28.5215C48.9813 28.3052 48.9536 27.8505 49.0921 27.6952C50.1556 26.5361 51.2135 25.3604 52.3878 24.3178C52.9251 23.8408 53.7227 23.9074 54.2877 24.473C54.9746 25.1663 54.8472 25.9593 54.2711 26.6137C53.1079 27.9392 51.1748 27.8449 49.9285 29.0096H49.934Z" fill="black"/>
<path d="M24.0451 33.9313C26.3881 31.5743 30.8582 31.2582 32.7027 33.0273C32.9132 33.227 33.1181 33.4654 32.9741 33.8093C32.8467 34.1087 32.614 34.3417 32.3039 34.2529C30.9579 33.8536 29.5842 33.7538 28.1828 33.7039C26.9088 33.6595 25.6902 34.3472 24.0451 33.9313Z" fill="black"/>
<path d="M40.3189 52.937C40.2746 53.73 39.837 54.1127 39.2443 54.3234C38.4024 54.6174 37.433 55.0499 36.7406 54.2291C35.8489 53.1643 35.2119 51.8999 35.0678 50.4746C35.0401 50.225 35.2285 49.8479 35.4334 49.7148C35.6328 49.5873 36.1646 49.5984 36.2366 49.7259C37.0674 51.1678 38.2805 51.9942 39.909 52.2992C40.0973 52.3325 40.2081 52.7595 40.3189 52.937Z" fill="black"/>
<path d="M21.5027 53.2474C21.6245 54.0239 21.3199 54.645 20.561 54.8447C19.5862 55.0998 18.5504 55.1386 17.8414 54.2346C17.3041 53.5525 17.5699 52.887 18.2789 52.5098C19.1209 52.0606 19.215 51.3286 19.276 50.5189C19.3147 49.9865 19.5862 49.5317 20.1899 49.5816C20.7549 49.6315 20.9765 50.1196 21.0706 50.6187C21.2313 51.4894 21.3587 52.3712 21.4971 53.2474H21.5027Z" fill="black"/>
<path d="M37.0397 25.0801C37.0564 25.4683 36.8348 25.7678 36.4249 25.9175C35.306 26.3279 34.1927 26.7383 33.0627 27.1154C32.6694 27.243 32.2207 27.1653 32.0878 26.7327C32.0213 26.5164 32.1764 26.1116 32.3648 25.9619C33.467 25.0634 34.7687 24.5809 36.1646 24.3813C36.5745 24.3258 36.929 24.5588 37.0342 25.0801H37.0397Z" fill="black"/>
<path d="M19.0378 25.8177C19 25 22.4499 25.1023 23.8512 25.6069C24.1725 25.7234 24.5602 26.0284 24.4162 26.5275C24.2777 26.9878 23.8789 27.132 23.4912 27.0378C22.2006 26.7216 19 26.9999 19.0433 25.8177C19.0866 24.6354 19.0756 26.6353 19.0378 25.8177Z" fill="black"/>
</g>
<defs>
<clipPath id="clip0_589_4811">
<rect width="56" height="56" fill="white"/>
</clipPath>
</defs>
</svg>
