<svg width="56" height="56" viewBox="0 0 56 56" fill="none" xmlns="http://www.w3.org/2000/svg">
<g clip-path="url(#clip0_1302_7824)">
<rect width="56" height="56" rx="12" fill="#F3F0FF"/>
<g clip-path="url(#clip1_1302_7824)">
<path d="M28 70.7213C40.9949 70.7213 51.5294 60.2624 51.5294 47.3607C51.5294 34.4589 40.9949 24 28 24C15.0051 24 4.47058 34.4589 4.47058 47.3607C4.47058 60.2624 15.0051 70.7213 28 70.7213Z" fill="url(#paint0_radial_1302_7824)"/>
<path d="M28 54.6011C38.1832 54.6011 46.4383 46.344 46.4383 36.1584C46.4383 25.9729 38.1832 17.7158 28 17.7158C17.8169 17.7158 9.56177 25.9729 9.56177 36.1584C9.56177 46.344 17.8169 54.6011 28 54.6011Z" fill="url(#paint1_radial_1302_7824)"/>
<path d="M28 51.8059C31.7997 51.8059 34.8799 50.2769 34.8799 48.3906C34.8799 46.5044 31.7997 44.9753 28 44.9753C24.2003 44.9753 21.1201 46.5044 21.1201 48.3906C21.1201 50.2769 24.2003 51.8059 28 51.8059Z" fill="url(#paint2_radial_1302_7824)"/>
<path d="M22.6777 41.9644C22.5951 40.7868 23.3024 40.1447 24.3261 40.0519C25.0747 39.9835 25.8397 40.3688 25.8975 41.336C25.9663 42.489 25.259 43.1475 24.2381 43.2595C23.4592 43.3442 22.7768 42.8906 22.6777 41.9644Z" fill="#30216B"/>
<path d="M33.3223 41.9644C33.4049 40.7868 32.6976 40.1447 31.6739 40.0519C30.9254 39.9835 30.1603 40.3688 30.1025 41.336C30.0337 42.489 30.741 43.1475 31.762 43.2595C32.5408 43.3442 33.2233 42.8906 33.3223 41.9644Z" fill="#30216B"/>
<path d="M23.3106 38.2077C23.1428 38.2077 22.9722 38.1968 22.8043 38.1776C19.8597 37.8416 18.2498 34.6612 18.181 34.5246C18.0131 34.1858 18.1534 33.776 18.4947 33.6093C18.8359 33.4427 19.246 33.582 19.4166 33.9208C19.4414 33.97 20.7788 36.5738 22.9694 36.8224C24.2215 36.9645 25.5673 36.3142 26.9735 34.8907C26.913 34.817 26.8552 34.7405 26.8002 34.664C24.8022 31.9536 25.7682 30.6394 26.2773 30.1995C27.1359 29.4591 28.5889 29.5356 29.4531 30.3689C29.8576 30.7596 31.0189 32.2377 28.8917 34.8115C28.8751 34.8334 28.8559 34.8552 28.8394 34.8771C30.397 36.2651 32.3757 36.6886 33.8535 36.4399C34.6488 36.306 36.0606 35.847 36.5504 34.2623C36.6632 33.9017 37.0485 33.6995 37.409 33.8088C37.7723 33.9208 37.9759 34.3006 37.8631 34.6612C37.3457 36.3306 35.967 37.4673 34.0791 37.7842C31.9436 38.1421 29.6292 37.3962 27.9202 35.8853C26.3791 37.429 24.8352 38.2077 23.3134 38.2077H23.3106ZM27.7221 31.052C27.5129 31.052 27.3175 31.1093 27.1772 31.2295C26.8387 31.5219 26.8249 32.3826 27.9009 33.847C28.7706 32.7596 28.9907 31.8306 28.4899 31.347C28.289 31.153 27.9945 31.052 27.7193 31.052H27.7221Z" fill="#30216B"/>
<path d="M28 50.9044C26.2552 50.9044 24.8352 49.4945 24.8352 47.7623V46.5328C24.8352 46.2322 25.0829 45.9863 25.3856 45.9863H30.6144C30.9171 45.9863 31.1648 46.2322 31.1648 46.5328V47.7623C31.1648 49.4945 29.7447 50.9044 28 50.9044ZM25.936 47.0792V47.7623C25.936 48.8934 26.8607 49.8115 28 49.8115C29.1393 49.8115 30.064 48.8934 30.064 47.7623V47.0792H25.936Z" fill="#30216B"/>
<path d="M24.56 41.5054C24.8032 41.5054 25.0003 41.3097 25.0003 41.0683C25.0003 40.8268 24.8032 40.6311 24.56 40.6311C24.3168 40.6311 24.1197 40.8268 24.1197 41.0683C24.1197 41.3097 24.3168 41.5054 24.56 41.5054Z" fill="#F3F0FF"/>
<path d="M31.4399 41.5054C31.6831 41.5054 31.8803 41.3097 31.8803 41.0683C31.8803 40.8268 31.6831 40.6311 31.4399 40.6311C31.1968 40.6311 30.9996 40.8268 30.9996 41.0683C30.9996 41.3097 31.1968 41.5054 31.4399 41.5054Z" fill="#F3F0FF"/>
</g>
<path d="M50.5293 13.7391C50.8431 13.8774 51 14.0449 51 14.2417C51 14.3374 50.9787 14.4278 50.9362 14.5129C50.8936 14.598 50.8724 14.6432 50.8724 14.6485L48.7823 19.3233C48.7398 19.4243 48.7025 19.5014 48.6706 19.5546C48.644 19.6078 48.5988 19.6583 48.535 19.7062C48.4712 19.754 48.3914 19.778 48.2957 19.778C48.2 19.778 48.059 19.7381 47.8729 19.6583C47.5591 19.52 47.4022 19.3552 47.4022 19.1637C47.4022 19.0361 47.6575 18.4271 48.1681 17.3369L46.5806 14.6645C46.4742 14.489 46.421 14.3587 46.421 14.2736C46.421 14.1034 46.5646 13.9332 46.8518 13.7631C47.0326 13.6567 47.1736 13.6035 47.2746 13.6035C47.3756 13.6035 47.4581 13.6248 47.5219 13.6673C47.5857 13.7099 47.6309 13.7551 47.6575 13.8029C47.6894 13.8455 47.8357 14.0928 48.0963 14.5448C48.3622 14.9916 48.6148 15.409 48.8541 15.7973C48.8807 15.7122 49.0243 15.3851 49.2849 14.8161C49.5455 14.2417 49.6837 13.9359 49.6997 13.8987C49.721 13.8614 49.7529 13.8162 49.7954 13.7631C49.8646 13.6727 49.9603 13.6274 50.0826 13.6274C50.2102 13.6274 50.3592 13.6647 50.5293 13.7391Z" fill="#8573C9"/>
<path d="M45.99 13.7391C46.091 13.771 46.1735 13.8269 46.2373 13.9066C46.3064 13.9811 46.341 14.1034 46.341 14.2736C46.341 14.4438 46.2905 14.6299 46.1894 14.832C46.0884 15.0341 45.9421 15.1351 45.7507 15.1351C45.6549 15.1351 45.5619 15.1139 45.4715 15.0713C45.3864 15.0288 45.272 15.0075 45.1284 15.0075C44.9848 15.0075 44.8492 15.058 44.7216 15.1591C44.5993 15.2601 44.5381 15.3824 44.5381 15.526V17.2013C44.5381 17.3236 44.5328 17.4167 44.5221 17.4805C44.5168 17.539 44.4929 17.6081 44.4504 17.6879C44.3706 17.8262 44.1632 17.8953 43.8281 17.8953C43.5728 17.8953 43.3894 17.8501 43.2777 17.7597C43.1926 17.6852 43.1447 17.5709 43.1341 17.4167C43.1341 17.3635 43.1341 17.2864 43.1341 17.1853V14.3853C43.1341 14.263 43.1368 14.1726 43.1421 14.1141C43.1527 14.0502 43.1766 13.9811 43.2139 13.9066C43.2883 13.763 43.4957 13.6913 43.8361 13.6913C44.1552 13.6913 44.3546 13.7524 44.4344 13.8747C44.4929 13.9598 44.5221 14.0476 44.5221 14.138C44.5487 14.1008 44.586 14.0556 44.6338 14.0024C44.687 13.9492 44.796 13.8774 44.9609 13.787C45.1258 13.6966 45.2694 13.6514 45.3917 13.6514C45.5193 13.6514 45.6257 13.6593 45.7108 13.6753C45.7959 13.6859 45.8889 13.7072 45.99 13.7391Z" fill="#8573C9"/>
<path d="M42.5036 13.7391C42.6047 13.771 42.6871 13.8269 42.7509 13.9066C42.8201 13.9811 42.8546 14.1034 42.8546 14.2736C42.8546 14.4438 42.8041 14.6299 42.7031 14.832C42.602 15.0341 42.4558 15.1351 42.2643 15.1351C42.1686 15.1351 42.0755 15.1139 41.9851 15.0713C41.9 15.0288 41.7857 15.0075 41.6421 15.0075C41.4985 15.0075 41.3629 15.058 41.2353 15.1591C41.1129 15.2601 41.0518 15.3824 41.0518 15.526V17.2013C41.0518 17.3236 41.0465 17.4167 41.0358 17.4805C41.0305 17.539 41.0066 17.6081 40.964 17.6879C40.8843 17.8262 40.6768 17.8953 40.3418 17.8953C40.0865 17.8953 39.903 17.8501 39.7914 17.7597C39.7063 17.6852 39.6584 17.5709 39.6478 17.4167C39.6478 17.3635 39.6478 17.2864 39.6478 17.1853V14.3853C39.6478 14.263 39.6504 14.1726 39.6557 14.1141C39.6664 14.0502 39.6903 13.9811 39.7275 13.9066C39.802 13.763 40.0094 13.6913 40.3498 13.6913C40.6689 13.6913 40.8683 13.7524 40.9481 13.8747C41.0066 13.9598 41.0358 14.0476 41.0358 14.138C41.0624 14.1008 41.0996 14.0556 41.1475 14.0024C41.2007 13.9492 41.3097 13.8774 41.4746 13.787C41.6394 13.6966 41.783 13.6514 41.9053 13.6514C42.033 13.6514 42.1393 13.6593 42.2244 13.6753C42.3095 13.6859 42.4026 13.7072 42.5036 13.7391Z" fill="#8573C9"/>
<path d="M34.9044 15.7972C34.9044 15.159 35.1278 14.6325 35.5745 14.2177C36.0212 13.8029 36.5318 13.5955 37.1062 13.5955C37.6805 13.5955 38.1884 13.8029 38.6298 14.2177C39.0712 14.6272 39.2919 15.151 39.2919 15.7892C39.2919 16.2306 39.1776 16.6242 38.9489 16.9699C38.7202 17.3102 38.441 17.5628 38.1113 17.7277C37.7869 17.8873 37.4492 17.967 37.0982 17.967C36.7472 17.967 36.4068 17.8819 36.0771 17.7118C35.7474 17.5363 35.4681 17.281 35.2395 16.9459C35.0161 16.6056 34.9044 16.2227 34.9044 15.7972ZM36.5717 16.3716C36.7419 16.4992 36.9147 16.563 37.0902 16.563C37.2657 16.563 37.4412 16.4965 37.6167 16.3636C37.7922 16.2306 37.88 16.0339 37.88 15.7733C37.88 15.5127 37.7975 15.3186 37.6327 15.1909C37.4678 15.0633 37.2896 14.9995 37.0982 14.9995C36.9067 14.9995 36.7286 15.0659 36.5637 15.1989C36.3988 15.3319 36.3164 15.5286 36.3164 15.7892C36.3164 16.0445 36.4015 16.2386 36.5717 16.3716Z" fill="#8573C9"/>
<path d="M34.771 12.0798C35.1274 12.2074 35.3055 12.3776 35.3055 12.5903C35.3055 12.6595 35.2736 12.7898 35.2098 12.9812L33.6781 17.4086C33.6675 17.4459 33.6489 17.4911 33.6223 17.5442C33.5957 17.5974 33.5239 17.6692 33.4069 17.7596C33.2952 17.8447 33.1596 17.8873 33.0001 17.8873C32.8458 17.8873 32.7102 17.8447 32.5932 17.7596C32.4816 17.6692 32.4071 17.5815 32.3699 17.4964L31.4365 14.7442C30.8462 16.4886 30.5457 17.3767 30.5351 17.4086C30.5244 17.4405 30.5005 17.4857 30.4633 17.5442C30.4261 17.6027 30.3835 17.6559 30.3357 17.7038C30.2133 17.8261 30.0671 17.8873 29.8969 17.8873C29.7267 17.8873 29.5858 17.8474 29.4741 17.7676C29.3677 17.6878 29.2959 17.6081 29.2587 17.5283L29.2029 17.4086L27.6633 12.9812C27.6048 12.8057 27.5755 12.6754 27.5755 12.5903C27.5755 12.3776 27.7537 12.2101 28.11 12.0878C28.2642 12.0346 28.4025 12.008 28.5248 12.008C28.6524 12.008 28.7482 12.0505 28.812 12.1356C28.8811 12.2207 28.9423 12.351 28.9955 12.5265L29.873 15.1909L30.7425 12.5664C30.8169 12.343 30.9526 12.1888 31.1493 12.1037C31.2344 12.0665 31.3435 12.0479 31.4764 12.0479C31.6147 12.0479 31.7423 12.0931 31.8593 12.1835C31.9763 12.2686 32.0508 12.3537 32.0827 12.4388L33.0001 15.2069L33.8776 12.5265C33.9201 12.4042 33.9547 12.3138 33.9813 12.2553C34.0079 12.1968 34.0557 12.1409 34.1249 12.0878C34.1993 12.0293 34.2897 12 34.3961 12C34.5025 12 34.6275 12.0266 34.771 12.0798Z" fill="#8573C9"/>
<path d="M24.9339 15.1033L24.4154 15.0714V16.1722C24.4154 16.3158 24.4366 16.4195 24.4792 16.4834C24.527 16.5472 24.6121 16.5791 24.7345 16.5791C24.8621 16.5791 24.9578 16.5844 25.0216 16.595C25.0908 16.6004 25.1626 16.6243 25.237 16.6668C25.3593 16.736 25.4205 16.9141 25.4205 17.2013C25.4205 17.5364 25.346 17.7411 25.1971 17.8156C25.1174 17.8528 25.0456 17.8767 24.9818 17.8874C24.9233 17.8927 24.8355 17.8953 24.7185 17.8953C24.1654 17.8953 23.7453 17.7704 23.4581 17.5204C23.1709 17.2704 23.0273 16.8476 23.0273 16.252V15.0714C22.9263 15.0873 22.8172 15.0953 22.7002 15.0953C22.5832 15.0953 22.4849 15.0501 22.4051 14.9597C22.3306 14.8693 22.2934 14.715 22.2934 14.497C22.2934 14.279 22.3067 14.1221 22.3333 14.0263C22.3599 13.9253 22.3971 13.8535 22.445 13.8109C22.5301 13.7418 22.6364 13.7072 22.7641 13.7072L23.0273 13.7392V12.9175C23.0273 12.7952 23.03 12.7048 23.0353 12.6463C23.0459 12.5878 23.0725 12.5239 23.1151 12.4548C23.1842 12.3218 23.3889 12.2554 23.7293 12.2554C24.091 12.2554 24.3063 12.3538 24.3755 12.5505C24.4021 12.6356 24.4154 12.7712 24.4154 12.9574V13.7392C24.6494 13.7179 24.8249 13.7072 24.9419 13.7072C25.0642 13.7072 25.1546 13.7126 25.2131 13.7232C25.2769 13.7285 25.3487 13.7524 25.4285 13.795C25.5668 13.8641 25.6359 14.0689 25.6359 14.4092C25.6359 14.7443 25.5641 14.949 25.4205 15.0235C25.3407 15.0607 25.2689 15.0847 25.2051 15.0953C25.1466 15.1006 25.0562 15.1033 24.9339 15.1033Z" fill="#ADA2D7"/>
<path d="M21.9958 12.2154C22.0862 12.3058 22.1314 12.46 22.1314 12.6781V12.8057C22.1314 12.9387 22.1261 13.037 22.1155 13.1009C22.0782 13.5689 21.94 13.9704 21.7006 14.3054C21.4613 14.6405 21.1582 14.808 20.7912 14.808C20.754 14.808 20.7194 14.7814 20.6875 14.7282C20.6609 14.6697 20.6476 14.5953 20.6476 14.5049C20.6476 14.4145 20.6583 14.3453 20.6795 14.2975C20.7061 14.2443 20.7327 14.215 20.7593 14.2097C20.7912 14.1991 20.8151 14.1938 20.8311 14.1938C20.8471 14.1884 20.8763 14.1751 20.9189 14.1539C20.9614 14.1273 20.9986 14.0927 21.0305 14.0502C21.1156 13.9385 21.1635 13.7656 21.1741 13.5316C20.9933 13.505 20.8577 13.4465 20.7673 13.3561C20.6822 13.2657 20.6396 13.0743 20.6396 12.7818C20.6396 12.569 20.6662 12.4121 20.7194 12.3111C20.7726 12.2047 20.8524 12.1356 20.9587 12.1037C21.0704 12.0665 21.2406 12.0479 21.4693 12.0479C21.698 12.0479 21.8735 12.1037 21.9958 12.2154Z" fill="#ADA2D7"/>
<path d="M18.4183 13.6912C18.9502 13.6912 19.3916 13.8959 19.7426 14.3054C20.0989 14.7096 20.2771 15.2042 20.2771 15.7892V17.1932C20.2771 17.3155 20.2717 17.4086 20.2611 17.4724C20.2558 17.5309 20.2345 17.5974 20.1973 17.6718C20.1228 17.8154 19.9154 17.8872 19.5751 17.8872C19.1975 17.8872 18.9794 17.7888 18.9209 17.5921C18.889 17.5017 18.8731 17.366 18.8731 17.1852V15.7812C18.8731 15.5632 18.8092 15.393 18.6816 15.2707C18.5593 15.1484 18.3918 15.0872 18.179 15.0872C17.9716 15.0872 17.8014 15.151 17.6685 15.2786C17.5408 15.4063 17.477 15.5738 17.477 15.7812V17.1932C17.477 17.3155 17.4717 17.4086 17.4611 17.4724C17.4558 17.5309 17.4318 17.5974 17.3893 17.6718C17.3201 17.8154 17.1154 17.8872 16.775 17.8872C16.44 17.8872 16.2352 17.8154 16.1608 17.6718C16.1235 17.5921 16.0996 17.5229 16.089 17.4644C16.0837 17.4006 16.081 17.3075 16.081 17.1852V14.3613C16.081 14.2443 16.0837 14.1565 16.089 14.098C16.0996 14.0342 16.1262 13.965 16.1687 13.8906C16.2432 13.7576 16.448 13.6912 16.783 13.6912C17.1074 13.6912 17.3068 13.7523 17.3813 13.8746C17.4345 13.9651 17.4611 14.0741 17.4611 14.2017C17.4823 14.1645 17.5302 14.1113 17.6047 14.0422C17.6791 13.973 17.7509 13.9172 17.82 13.8746C18.0009 13.7523 18.2003 13.6912 18.4183 13.6912Z" fill="#ADA2D7"/>
<path d="M11.3376 15.7972C11.3376 15.159 11.561 14.6325 12.0077 14.2177C12.4545 13.8029 12.965 13.5955 13.5394 13.5955C14.1138 13.5955 14.6216 13.8029 15.0631 14.2177C15.5045 14.6272 15.7252 15.151 15.7252 15.7892C15.7252 16.2306 15.6108 16.6242 15.3821 16.9699C15.1535 17.3102 14.8743 17.5628 14.5445 17.7277C14.2201 17.8873 13.8824 17.967 13.5314 17.967C13.1804 17.967 12.84 17.8819 12.5103 17.7118C12.1806 17.5363 11.9014 17.281 11.6727 16.9459C11.4493 16.6056 11.3376 16.2227 11.3376 15.7972ZM13.0049 16.3716C13.1751 16.4992 13.3479 16.563 13.5234 16.563C13.6989 16.563 13.8744 16.4965 14.0499 16.3636C14.2254 16.2306 14.3132 16.0339 14.3132 15.7733C14.3132 15.5127 14.2308 15.3186 14.0659 15.1909C13.901 15.0633 13.7229 14.9995 13.5314 14.9995C13.34 14.9995 13.1618 15.0659 12.9969 15.1989C12.8321 15.3319 12.7496 15.5286 12.7496 15.7892C12.7496 16.0445 12.8347 16.2386 13.0049 16.3716Z" fill="#ADA2D7"/>
<path d="M6.70998 12.0398L8.18579 12.0478C8.95693 12.0478 9.635 12.327 10.22 12.8854C10.805 13.4385 11.0975 14.1219 11.0975 14.9356C11.0975 15.7439 10.8103 16.438 10.236 17.0176C9.66691 17.5973 8.97554 17.8872 8.16185 17.8872H6.702C6.37759 17.8872 6.1755 17.8207 6.09573 17.6877C6.03191 17.5761 6 17.4059 6 17.1772V12.7418C6 12.6142 6.00266 12.5211 6.00798 12.4626C6.01861 12.4041 6.0452 12.335 6.08775 12.2552C6.16221 12.1116 6.36962 12.0398 6.70998 12.0398ZM8.18579 16.4752C8.5687 16.4752 8.91438 16.3343 9.22284 16.0524C9.53129 15.7652 9.68552 15.4062 9.68552 14.9754C9.68552 14.5447 9.53395 14.1857 9.23081 13.8985C8.93299 13.606 8.58199 13.4598 8.17781 13.4598H7.41199V16.4752H8.18579Z" fill="#ADA2D7"/>
</g>
<defs>
<radialGradient id="paint0_radial_1302_7824" cx="0" cy="0" r="1" gradientUnits="userSpaceOnUse" gradientTransform="translate(28.2119 53.8975) scale(22.203 20.0598)">
<stop stop-color="#ADA2D7"/>
<stop offset="0.37" stop-color="#B7ADDF"/>
<stop offset="1" stop-color="#D1CAF4"/>
</radialGradient>
<radialGradient id="paint1_radial_1302_7824" cx="0" cy="0" r="1" gradientUnits="userSpaceOnUse" gradientTransform="translate(28.0685 36.7729) scale(14.5931 14.4884)">
<stop stop-color="white" stop-opacity="0.6"/>
<stop offset="0.42" stop-color="white" stop-opacity="0.33"/>
<stop offset="0.81" stop-color="white" stop-opacity="0.09"/>
<stop offset="1" stop-color="white" stop-opacity="0"/>
</radialGradient>
<radialGradient id="paint2_radial_1302_7824" cx="0" cy="0" r="1" gradientUnits="userSpaceOnUse" gradientTransform="translate(28 48.3906) scale(5.43791 2.69945)">
<stop stop-color="white" stop-opacity="0.6"/>
<stop offset="0.09" stop-color="white" stop-opacity="0.51"/>
<stop offset="0.31" stop-color="white" stop-opacity="0.33"/>
<stop offset="0.51" stop-color="white" stop-opacity="0.19"/>
<stop offset="0.7" stop-color="white" stop-opacity="0.08"/>
<stop offset="0.87" stop-color="white" stop-opacity="0.02"/>
<stop offset="1" stop-color="white" stop-opacity="0"/>
</radialGradient>
<clipPath id="clip0_1302_7824">
<rect width="56" height="56" rx="12" fill="white"/>
</clipPath>
<clipPath id="clip1_1302_7824">
<rect width="50" height="50" fill="white" transform="translate(3 24)"/>
</clipPath>
</defs>
</svg>
