<svg width="56" height="56" viewBox="0 0 56 56" fill="none" xmlns="http://www.w3.org/2000/svg">
<g clip-path="url(#clip0_1302_9400)">
<rect width="56" height="56" rx="12" fill="#F3F0FF"/>
<g clip-path="url(#clip1_1302_9400)">
<path d="M28 70.7213C40.9949 70.7213 51.5294 60.2624 51.5294 47.3607C51.5294 34.4589 40.9949 24 28 24C15.0051 24 4.47058 34.4589 4.47058 47.3607C4.47058 60.2624 15.0051 70.7213 28 70.7213Z" fill="url(#paint0_radial_1302_9400)"/>
<path d="M28 54.6011C38.1832 54.6011 46.4383 46.344 46.4383 36.1584C46.4383 25.9729 38.1832 17.7158 28 17.7158C17.8169 17.7158 9.56177 25.9729 9.56177 36.1584C9.56177 46.344 17.8169 54.6011 28 54.6011Z" fill="url(#paint1_radial_1302_9400)"/>
<path d="M28 51.8059C31.7997 51.8059 34.8799 50.2769 34.8799 48.3906C34.8799 46.5044 31.7997 44.9753 28 44.9753C24.2003 44.9753 21.1201 46.5044 21.1201 48.3906C21.1201 50.2769 24.2003 51.8059 28 51.8059Z" fill="url(#paint2_radial_1302_9400)"/>
<path d="M22.6777 41.9644C22.5951 40.7868 23.3024 40.1447 24.3261 40.0519C25.0747 39.9835 25.8397 40.3688 25.8975 41.336C25.9663 42.489 25.259 43.1475 24.2381 43.2595C23.4592 43.3442 22.7768 42.8906 22.6777 41.9644Z" fill="#30216B"/>
<path d="M33.3223 41.9644C33.4049 40.7868 32.6976 40.1447 31.6739 40.0519C30.9254 39.9835 30.1603 40.3688 30.1025 41.336C30.0337 42.489 30.741 43.1475 31.762 43.2595C32.5408 43.3442 33.2233 42.8906 33.3223 41.9644Z" fill="#30216B"/>
<path d="M23.3106 38.2077C23.1428 38.2077 22.9722 38.1968 22.8043 38.1776C19.8597 37.8416 18.2498 34.6612 18.181 34.5246C18.0131 34.1858 18.1534 33.776 18.4947 33.6093C18.8359 33.4427 19.246 33.582 19.4166 33.9208C19.4414 33.97 20.7788 36.5738 22.9694 36.8224C24.2215 36.9645 25.5673 36.3142 26.9735 34.8907C26.913 34.817 26.8552 34.7405 26.8002 34.664C24.8022 31.9536 25.7682 30.6394 26.2773 30.1995C27.1359 29.4591 28.5889 29.5356 29.4531 30.3689C29.8576 30.7596 31.0189 32.2377 28.8917 34.8115C28.8751 34.8334 28.8559 34.8552 28.8394 34.8771C30.397 36.2651 32.3757 36.6886 33.8535 36.4399C34.6488 36.306 36.0606 35.847 36.5504 34.2623C36.6632 33.9017 37.0485 33.6995 37.409 33.8088C37.7723 33.9208 37.9759 34.3006 37.8631 34.6612C37.3457 36.3306 35.967 37.4673 34.0791 37.7842C31.9436 38.1421 29.6292 37.3962 27.9202 35.8853C26.3791 37.429 24.8352 38.2077 23.3134 38.2077H23.3106ZM27.7221 31.052C27.5129 31.052 27.3175 31.1093 27.1772 31.2295C26.8387 31.5219 26.8249 32.3826 27.9009 33.847C28.7706 32.7596 28.9907 31.8306 28.4899 31.347C28.289 31.153 27.9945 31.052 27.7193 31.052H27.7221Z" fill="#30216B"/>
<path d="M28 50.9044C26.2552 50.9044 24.8352 49.4945 24.8352 47.7623V46.5328C24.8352 46.2322 25.0829 45.9863 25.3856 45.9863H30.6144C30.9171 45.9863 31.1648 46.2322 31.1648 46.5328V47.7623C31.1648 49.4945 29.7447 50.9044 28 50.9044ZM25.936 47.0792V47.7623C25.936 48.8934 26.8607 49.8115 28 49.8115C29.1393 49.8115 30.064 48.8934 30.064 47.7623V47.0792H25.936Z" fill="#30216B"/>
<path d="M24.56 41.5054C24.8032 41.5054 25.0003 41.3097 25.0003 41.0683C25.0003 40.8268 24.8032 40.6311 24.56 40.6311C24.3168 40.6311 24.1197 40.8268 24.1197 41.0683C24.1197 41.3097 24.3168 41.5054 24.56 41.5054Z" fill="#F3F0FF"/>
<path d="M31.4399 41.5054C31.6831 41.5054 31.8803 41.3097 31.8803 41.0683C31.8803 40.8268 31.6831 40.6311 31.4399 40.6311C31.1968 40.6311 30.9996 40.8268 30.9996 41.0683C30.9996 41.3097 31.1968 41.5054 31.4399 41.5054Z" fill="#F3F0FF"/>
</g>
<path d="M49.7738 17.2103C49.4645 17.2103 49.2068 17.1502 49.0007 17.0299C48.7945 16.9096 48.6914 16.7321 48.6914 16.4973C48.6914 16.3083 48.7802 16.1594 48.9577 16.0506C49.1352 15.9417 49.3443 15.8931 49.5848 15.9045C49.8368 15.916 50.0315 15.9045 50.169 15.8702C50.3122 15.8358 50.421 15.7728 50.4954 15.6812C49.9685 15.6812 49.5476 15.6067 49.2326 15.4578C48.9176 15.3032 48.6885 15.0655 48.5453 14.7448C48.4079 14.4183 48.3392 13.9888 48.3392 13.4562C48.3392 12.998 48.4079 12.6286 48.5453 12.348C48.6885 12.0616 48.9119 11.9185 49.2154 11.9185C49.4846 11.9185 49.6822 11.9958 49.8082 12.1504C49.9399 12.2993 50.0058 12.494 50.0058 12.7346L49.9972 13.1126C49.9914 13.187 49.9886 13.2958 49.9886 13.439C49.9886 13.7139 50.0229 13.9229 50.0917 14.0661C50.1604 14.2036 50.2978 14.2723 50.504 14.2723C50.7102 14.2723 50.8476 14.2036 50.9164 14.0661C50.9851 13.9229 51.0195 13.7168 51.0195 13.4476C51.0195 13.3044 51.0166 13.1956 51.0109 13.1211L51.0023 12.7517C51.0023 12.494 51.0653 12.2907 51.1913 12.1418C51.323 11.9929 51.5234 11.9185 51.7926 11.9185C52.0961 11.9185 52.3195 12.0616 52.4627 12.348C52.6059 12.6343 52.6775 13.0037 52.6775 13.4562C52.6775 14.132 52.5801 14.7534 52.3854 15.3204C52.1964 15.8816 51.8842 16.3369 51.449 16.6863C51.0195 17.0356 50.4611 17.2103 49.7738 17.2103Z" fill="#8573C9"/>
<path d="M45.2859 15.9389C44.9194 15.9389 44.6731 15.7242 44.5471 15.2946C44.4268 14.8651 44.3667 14.2724 44.3667 13.5164C44.3667 13.1728 44.381 12.8864 44.4097 12.6573C44.444 12.4225 44.5213 12.2249 44.6416 12.0646C44.7676 11.8985 44.9595 11.8154 45.2172 11.8154C45.3775 11.8154 45.5178 11.8527 45.6381 11.9271C45.7641 12.0016 45.8443 12.1075 45.8787 12.245C46.0047 12.1304 46.1679 12.0445 46.3683 11.9872C46.5688 11.93 46.7835 11.9013 47.0126 11.9013C47.1959 11.9013 47.382 11.9472 47.571 12.0388C47.7657 12.1304 47.9261 12.2564 48.0521 12.4168C48.1838 12.5714 48.2497 12.7404 48.2497 12.9236C48.2497 13.1069 48.1838 13.2701 48.0521 13.4133C47.9261 13.5507 47.7571 13.6195 47.5452 13.6195C47.4765 13.6195 47.4107 13.6109 47.3477 13.5937C47.2904 13.5765 47.2388 13.5593 47.193 13.5422C47.0785 13.4963 46.9868 13.4734 46.9181 13.4734C46.6948 13.4734 46.4972 13.5622 46.3254 13.7397C46.1593 13.9115 46.0762 14.1349 46.0762 14.4098C46.0762 14.7133 46.0648 14.9653 46.0419 15.1658C46.019 15.3662 45.9502 15.5466 45.8357 15.707C45.7212 15.8616 45.5379 15.9389 45.2859 15.9389Z" fill="#8573C9"/>
<path d="M41.3134 15.9389C40.9468 15.9389 40.7006 15.7242 40.5746 15.2946C40.4543 14.8651 40.3942 14.2724 40.3942 13.5164C40.3942 13.1728 40.4085 12.8864 40.4371 12.6573C40.4715 12.4225 40.5488 12.2249 40.6691 12.0646C40.7951 11.8985 40.9869 11.8154 41.2446 11.8154C41.405 11.8154 41.5453 11.8527 41.6656 11.9271C41.7916 12.0016 41.8718 12.1075 41.9061 12.245C42.0321 12.1304 42.1953 12.0445 42.3958 11.9872C42.5962 11.93 42.811 11.9013 43.0401 11.9013C43.2234 11.9013 43.4095 11.9472 43.5985 12.0388C43.7932 12.1304 43.9536 12.2564 44.0796 12.4168C44.2113 12.5714 44.2771 12.7404 44.2771 12.9236C44.2771 13.1069 44.2113 13.2701 44.0796 13.4133C43.9536 13.5507 43.7846 13.6195 43.5727 13.6195C43.504 13.6195 43.4381 13.6109 43.3751 13.5937C43.3179 13.5765 43.2663 13.5593 43.2205 13.5422C43.1059 13.4963 43.0143 13.4734 42.9456 13.4734C42.7222 13.4734 42.5246 13.5622 42.3528 13.7397C42.1867 13.9115 42.1037 14.1349 42.1037 14.4098C42.1037 14.7133 42.0922 14.9653 42.0693 15.1658C42.0464 15.3662 41.9777 15.5466 41.8632 15.707C41.7486 15.8616 41.5654 15.9389 41.3134 15.9389Z" fill="#8573C9"/>
<path d="M38.066 15.9476C37.6536 15.9533 37.2842 15.8674 36.9578 15.6899C36.637 15.5124 36.385 15.2689 36.2018 14.9597C36.0242 14.6447 35.9297 14.2953 35.9183 13.9116C35.9126 13.5279 36.0013 13.1843 36.1846 12.8807C36.3679 12.5772 36.6227 12.3367 36.9492 12.1591C37.2813 11.9816 37.6536 11.8928 38.066 11.8928C38.4669 11.8928 38.8277 11.9787 39.1484 12.1505C39.4748 12.3224 39.7325 12.5629 39.9215 12.8722C40.1105 13.1814 40.2107 13.5279 40.2222 13.9116C40.2279 14.2839 40.1392 14.6246 39.9559 14.9339C39.7726 15.2374 39.5149 15.4809 39.1827 15.6641C38.8563 15.8474 38.484 15.9419 38.066 15.9476ZM38.0917 14.6934C38.2464 14.6934 38.3809 14.6332 38.4955 14.513C38.61 14.3927 38.6673 14.2524 38.6673 14.092C38.6673 13.9317 38.61 13.7942 38.4955 13.6797C38.3809 13.5594 38.2464 13.4993 38.0917 13.4993C37.9371 13.4993 37.8025 13.5594 37.688 13.6797C37.5734 13.7942 37.5162 13.9317 37.5162 14.092C37.5162 14.2524 37.5734 14.3927 37.688 14.513C37.8025 14.6332 37.9371 14.6934 38.0917 14.6934Z" fill="#8573C9"/>
<path d="M30.841 15.9389C30.3828 15.9389 29.9819 15.8129 29.6383 15.5609C29.3004 15.3089 29.0398 14.951 28.8566 14.4871C28.6733 14.0232 28.5817 13.4762 28.5817 12.8463C28.5817 12.4797 28.6418 12.0874 28.7621 11.6693C28.8881 11.2513 29.0656 10.899 29.2947 10.6127C29.5295 10.3206 29.8015 10.1746 30.1108 10.1746C30.3628 10.1746 30.5718 10.2662 30.7379 10.4495C30.904 10.6327 30.987 10.8589 30.987 11.1281C30.987 11.2083 30.967 11.3171 30.9269 11.4546C30.8926 11.5863 30.8525 11.7237 30.8066 11.8669C30.7207 12.1132 30.6549 12.3308 30.6091 12.5198C30.5632 12.7031 30.5403 12.8806 30.5403 13.0524C30.5403 13.3044 30.5776 13.4877 30.652 13.6022C30.7265 13.7168 30.8181 13.774 30.9269 13.774C31.0701 13.774 31.1703 13.7025 31.2276 13.5593C31.2906 13.4104 31.3221 13.1383 31.3221 12.7432L31.3135 12.1504C31.3135 11.6922 31.3736 11.3286 31.4939 11.0594C31.6142 10.7845 31.8547 10.647 32.2155 10.647C32.4847 10.647 32.688 10.7215 32.8254 10.8704C32.9629 11.0193 33.0517 11.2083 33.0918 11.4374C33.1318 11.6607 33.1519 11.9328 33.1519 12.2535V12.6916C33.1519 13.1097 33.1863 13.4075 33.255 13.585C33.3294 13.7569 33.4468 13.8428 33.6072 13.8428C33.716 13.8428 33.7991 13.7884 33.8563 13.6795C33.9193 13.565 33.9508 13.3961 33.9508 13.1727C33.9508 13.0066 33.9308 12.8405 33.8907 12.6744C33.8506 12.5084 33.7876 12.2965 33.7017 12.0387C33.6272 11.7925 33.5728 11.6092 33.5385 11.4889C33.5098 11.3629 33.4955 11.2427 33.4955 11.1281C33.4955 10.8589 33.5814 10.6356 33.7532 10.4581C33.9308 10.2805 34.137 10.1917 34.3718 10.1917C34.7097 10.1917 34.9932 10.3349 35.2222 10.6213C35.457 10.9019 35.6317 11.2484 35.7463 11.6607C35.8608 12.0731 35.9181 12.4683 35.9181 12.8463C35.9181 13.4762 35.8264 14.0232 35.6432 14.4871C35.4599 14.951 35.1965 15.3089 34.8528 15.5609C34.5149 15.8072 34.1169 15.9303 33.6587 15.9303C33.4067 15.9303 33.1605 15.873 32.9199 15.7585C32.6794 15.6439 32.456 15.4721 32.2499 15.243C32.0437 15.4721 31.8175 15.6468 31.5712 15.7671C31.3307 15.8816 31.0873 15.9389 30.841 15.9389Z" fill="#8573C9"/>
<path d="M25.9195 12.2192C25.9195 12.5171 25.7792 12.7204 25.4986 12.8292C25.218 12.9323 24.8342 12.9867 24.3474 12.9924C24.3417 13.1356 24.3389 13.3675 24.3389 13.6882C24.3389 14.0147 24.3618 14.2466 24.4076 14.3841C24.4362 14.4814 24.4792 14.5444 24.5364 14.5731C24.5994 14.6017 24.6911 14.6218 24.8113 14.6332C24.8514 14.6389 24.8944 14.6475 24.9402 14.659C24.9917 14.6647 25.049 14.6733 25.112 14.6848C25.2437 14.7134 25.3468 14.785 25.4213 14.8995C25.4957 15.0083 25.533 15.1487 25.533 15.3205C25.533 15.5152 25.4327 15.667 25.2323 15.7758C25.0318 15.8846 24.7569 15.939 24.4076 15.939C24.0869 15.939 23.7805 15.8474 23.4884 15.6641C23.1963 15.4751 22.9958 15.2231 22.887 14.9081C22.7725 14.5702 22.7152 13.9316 22.7152 12.9924C22.3143 12.9809 21.9907 12.9294 21.7445 12.8378C21.5039 12.7404 21.3837 12.5686 21.3837 12.3223C21.3837 12.0131 21.4982 11.8069 21.7273 11.7038C21.9564 11.595 22.2857 11.5377 22.7152 11.532C22.7324 11.0738 22.804 10.693 22.93 10.3894C23.056 10.0802 23.2822 9.92554 23.6086 9.92554C23.9408 9.92554 24.1556 10.0687 24.2529 10.3551C24.356 10.6414 24.4019 11.0337 24.3904 11.532C24.9116 11.5263 25.2953 11.5664 25.5415 11.6523C25.7935 11.7382 25.9195 11.9272 25.9195 12.2192Z" fill="#ADA2D7"/>
<path d="M20.8213 11.008C20.8213 11.2943 20.7555 11.5549 20.6237 11.7897C20.4977 12.0188 20.3431 12.1992 20.1598 12.3309C19.9823 12.4626 19.8219 12.5285 19.6788 12.5285C19.5585 12.5285 19.4611 12.4941 19.3867 12.4254C19.318 12.3567 19.2836 12.2708 19.2836 12.1677C19.2836 12.0932 19.3008 12.0302 19.3351 11.9787C19.3695 11.9272 19.421 11.8613 19.4898 11.7811C19.5356 11.7353 19.5785 11.6838 19.6186 11.6265C19.6587 11.5692 19.6874 11.5119 19.7045 11.4547C19.5155 11.4031 19.3724 11.3144 19.275 11.1884C19.1776 11.0566 19.129 10.9077 19.129 10.7416C19.129 10.5297 19.2034 10.3408 19.3523 10.1747C19.507 10.0086 19.6988 9.92554 19.9279 9.92554C20.1971 9.92554 20.4118 10.0172 20.5722 10.2004C20.7383 10.378 20.8213 10.6472 20.8213 11.008Z" fill="#ADA2D7"/>
<path d="M17.4105 15.939C17.2043 15.939 17.0497 15.8817 16.9466 15.7672C16.8492 15.6527 16.7891 15.5123 16.7662 15.3463C16.7433 15.1802 16.7318 14.9654 16.7318 14.702C16.7318 14.3641 16.686 14.1035 16.5943 13.9202C16.5027 13.7369 16.3538 13.6453 16.1476 13.6453C15.9586 13.6453 15.8155 13.7369 15.7181 13.9202C15.6265 14.0978 15.5806 14.344 15.5806 14.659C15.5806 14.9625 15.5721 15.1916 15.5549 15.3463C15.5377 15.5009 15.4804 15.6383 15.3831 15.7586C15.2857 15.8732 15.1253 15.9304 14.902 15.9304C14.5755 15.9304 14.3465 15.7214 14.2147 15.3033C14.083 14.8795 14.0172 14.3841 14.0172 13.8171C14.0172 12.4426 14.3064 11.7554 14.8848 11.7554C15.0452 11.7554 15.1769 11.7955 15.28 11.8756C15.3831 11.9501 15.4547 12.0589 15.4947 12.2021C15.5692 12.1219 15.6837 12.0503 15.8384 11.9873C15.9987 11.9243 16.1677 11.8928 16.3452 11.8928C16.9752 11.8928 17.4448 12.1219 17.7541 12.5801C18.0691 13.0382 18.2266 13.6596 18.2266 14.4442C18.2266 14.9081 18.1664 15.2747 18.0462 15.5438C17.9259 15.8073 17.714 15.939 17.4105 15.939Z" fill="#ADA2D7"/>
<path d="M11.7729 15.9476C11.3605 15.9533 10.9911 15.8674 10.6647 15.6899C10.344 15.5124 10.092 15.2689 9.90869 14.9597C9.73115 14.6447 9.63665 14.2953 9.6252 13.9116C9.61947 13.5279 9.70824 13.1843 9.89151 12.8807C10.0748 12.5772 10.3296 12.3367 10.6561 12.1591C10.9882 11.9816 11.3605 11.8928 11.7729 11.8928C12.1738 11.8928 12.5346 11.9787 12.8553 12.1505C13.1817 12.3224 13.4394 12.5629 13.6284 12.8722C13.8174 13.1814 13.9177 13.5279 13.9291 13.9116C13.9348 14.2839 13.8461 14.6246 13.6628 14.9339C13.4795 15.2374 13.2218 15.4809 12.8896 15.6641C12.5632 15.8474 12.1909 15.9419 11.7729 15.9476ZM11.7986 14.6934C11.9533 14.6934 12.0879 14.6332 12.2024 14.513C12.3169 14.3927 12.3742 14.2524 12.3742 14.092C12.3742 13.9317 12.3169 13.7942 12.2024 13.6797C12.0879 13.5594 11.9533 13.4993 11.7986 13.4993C11.644 13.4993 11.5094 13.5594 11.3949 13.6797C11.2803 13.7942 11.2231 13.9317 11.2231 14.092C11.2231 14.2524 11.2803 14.3927 11.3949 14.513C11.5094 14.6332 11.644 14.6934 11.7986 14.6934Z" fill="#ADA2D7"/>
<path d="M6.41397 15.939C5.67518 15.939 5.13683 15.8502 4.79893 15.6727C4.46103 15.4951 4.2434 15.2117 4.14604 14.8222C4.04868 14.4328 4 13.8257 4 13.001C4 12.1648 4.04582 11.5434 4.13745 11.1368C4.23481 10.7245 4.44958 10.4209 4.78175 10.2262C5.11965 10.0258 5.65513 9.92554 6.3882 9.92554C6.82919 9.92554 7.27877 10.0286 7.73693 10.2348C8.1951 10.4352 8.58168 10.7674 8.89667 11.2313C9.21166 11.6952 9.36916 12.288 9.36916 13.0096C9.36916 13.7026 9.2088 14.2695 8.88808 14.7105C8.56736 15.1458 8.18078 15.4608 7.72834 15.6555C7.2759 15.8445 6.83778 15.939 6.41397 15.939ZM5.88135 14.427C6.06462 14.4499 6.19634 14.4614 6.27652 14.4614C6.68315 14.4614 6.99814 14.3526 7.22149 14.135C7.44485 13.9173 7.55653 13.6167 7.55653 13.2329C7.55653 12.8893 7.44771 12.623 7.23009 12.434C7.01246 12.2393 6.70606 12.1419 6.31089 12.1419C6.16198 12.1419 6.0188 12.1534 5.88135 12.1763V14.427Z" fill="#ADA2D7"/>
</g>
<defs>
<radialGradient id="paint0_radial_1302_9400" cx="0" cy="0" r="1" gradientUnits="userSpaceOnUse" gradientTransform="translate(28.2119 53.8975) scale(22.203 20.0598)">
<stop stop-color="#ADA2D7"/>
<stop offset="0.37" stop-color="#B7ADDF"/>
<stop offset="1" stop-color="#D1CAF4"/>
</radialGradient>
<radialGradient id="paint1_radial_1302_9400" cx="0" cy="0" r="1" gradientUnits="userSpaceOnUse" gradientTransform="translate(28.0685 36.7729) scale(14.5931 14.4884)">
<stop stop-color="white" stop-opacity="0.6"/>
<stop offset="0.42" stop-color="white" stop-opacity="0.33"/>
<stop offset="0.81" stop-color="white" stop-opacity="0.09"/>
<stop offset="1" stop-color="white" stop-opacity="0"/>
</radialGradient>
<radialGradient id="paint2_radial_1302_9400" cx="0" cy="0" r="1" gradientUnits="userSpaceOnUse" gradientTransform="translate(28 48.3906) scale(5.43791 2.69945)">
<stop stop-color="white" stop-opacity="0.6"/>
<stop offset="0.09" stop-color="white" stop-opacity="0.51"/>
<stop offset="0.31" stop-color="white" stop-opacity="0.33"/>
<stop offset="0.51" stop-color="white" stop-opacity="0.19"/>
<stop offset="0.7" stop-color="white" stop-opacity="0.08"/>
<stop offset="0.87" stop-color="white" stop-opacity="0.02"/>
<stop offset="1" stop-color="white" stop-opacity="0"/>
</radialGradient>
<clipPath id="clip0_1302_9400">
<rect width="56" height="56" rx="12" fill="white"/>
</clipPath>
<clipPath id="clip1_1302_9400">
<rect width="50" height="50" fill="white" transform="translate(3 24)"/>
</clipPath>
</defs>
</svg>
