<svg width="335" height="336" viewBox="0 0 335 336" fill="none" xmlns="http://www.w3.org/2000/svg">
<g filter="url(#filter0_dd_1715_6107)">
<path d="M107.092 65.9521C87.0967 77.8046 71.0298 95.2774 60.8924 116.194L117.245 143.506C122.024 133.645 129.598 125.409 139.024 119.821L107.092 65.9521Z" fill="#ADA2D7"/>
<path d="M60.8913 116.197C51.7776 135.002 47.8006 155.884 49.3637 176.723C50.9268 197.562 57.9744 217.617 69.7915 234.853L121.44 199.441C115.869 191.316 112.547 181.863 111.81 172.039C111.074 162.215 112.948 152.372 117.245 143.507L60.8913 116.197Z" fill="#C1B8E5"/>
<path d="M186.811 284.746C164.578 288.42 141.758 285.676 121.03 276.836C100.301 267.997 82.5236 253.429 69.7832 234.841L121.436 199.437C127.442 208.199 135.822 215.066 145.594 219.233C155.365 223.4 166.122 224.693 176.603 222.962L186.811 284.746Z" fill="#D1C9F2"/>
<path d="M285.984 167.862C285.984 152.302 282.92 136.895 276.965 122.52C271.011 108.145 262.283 95.0832 251.281 84.0809C240.279 73.0786 227.217 64.3511 212.842 58.3968C198.467 52.4424 183.06 49.3777 167.5 49.3777L167.5 112.008C174.835 112.008 182.098 113.453 188.874 116.26C195.651 119.067 201.808 123.181 206.995 128.367C212.181 133.554 216.295 139.711 219.102 146.488C221.909 153.264 223.354 160.527 223.354 167.862H285.984Z" fill="#F3F0FF"/>
<path d="M167.5 49.3777C146.165 49.3777 125.225 55.1386 106.892 66.0522L138.93 119.869C147.572 114.724 157.443 112.008 167.5 112.008L167.5 49.3777Z" fill="#A092D7"/>
<path d="M285.984 167.862C285.984 195.874 276.06 222.98 257.972 244.369C239.884 265.758 214.803 280.047 187.181 284.7L176.777 222.94C189.799 220.746 201.622 214.01 210.149 203.927C218.675 193.845 223.354 181.067 223.354 167.862H285.984Z" fill="#E8E2FF"/>
</g>
<path d="M229.406 97.2494H230.558V105.717H229.406V97.2494ZM223.444 100.686C223.444 99.7262 223.655 99.003 224.078 98.5166C224.506 98.0238 225.076 97.7774 225.786 97.7774C226.49 97.7774 227.054 98.0238 227.476 98.5166C227.898 99.003 228.11 99.7262 228.11 100.686C228.11 101.64 227.898 102.363 227.476 102.856C227.054 103.349 226.49 103.595 225.786 103.595C225.082 103.595 224.516 103.349 224.087 102.856C223.658 102.363 223.444 101.64 223.444 100.686ZM226.89 101.224V100.149C226.89 99.6878 226.791 99.339 226.593 99.1022C226.394 98.859 226.126 98.7374 225.786 98.7374C225.447 98.7374 225.175 98.859 224.97 99.1022C224.766 99.3454 224.663 99.6942 224.663 100.149V101.224C224.663 101.678 224.766 102.027 224.97 102.27C225.175 102.513 225.447 102.635 225.786 102.635C226.126 102.635 226.394 102.517 226.593 102.28C226.791 102.037 226.89 101.685 226.89 101.224ZM236.218 101.521H232.138V97.5566H233.223V98.699H235.133V97.5566H236.218V98.2094H238.003V97.2494H239.146V101.665H238.003V100.83H236.218V101.521ZM236.218 99.1118V99.9278H238.003V99.1118H236.218ZM235.133 99.6014H233.223V100.619H235.133V99.6014ZM239.338 105.141V106.12H234.327C233.84 106.12 233.597 105.877 233.597 105.39V103.643H237.984V103.086H233.549V102.126H239.146V104.593H234.749V105.141H239.338Z" fill="#171719"/>
<path d="M216.68 114.713C216.68 114.246 216.721 113.798 216.805 113.369C216.894 112.941 217.016 112.541 217.169 112.169C217.323 111.798 217.502 111.462 217.707 111.161C217.918 110.861 218.145 110.608 218.389 110.403H219.377C219.115 110.646 218.878 110.918 218.667 111.219C218.456 111.52 218.277 111.84 218.129 112.179C217.982 112.518 217.867 112.87 217.784 113.235C217.707 113.6 217.669 113.965 217.669 114.329V115.097C217.669 115.462 217.707 115.827 217.784 116.192C217.867 116.557 217.982 116.909 218.129 117.248C218.277 117.587 218.456 117.907 218.667 118.208C218.878 118.515 219.115 118.787 219.377 119.024H218.389C218.145 118.819 217.918 118.566 217.707 118.265C217.502 117.965 217.323 117.629 217.169 117.257C217.016 116.886 216.894 116.486 216.805 116.057C216.721 115.629 216.68 115.181 216.68 114.713ZM224.494 117.699H219.943V116.662L222.084 114.752C222.423 114.445 222.682 114.153 222.862 113.878C223.047 113.597 223.14 113.302 223.14 112.995V112.87C223.14 112.544 223.041 112.288 222.842 112.102C222.65 111.917 222.388 111.824 222.055 111.824C221.87 111.824 221.706 111.853 221.566 111.91C221.431 111.961 221.313 112.035 221.21 112.131C221.108 112.227 221.022 112.339 220.951 112.467C220.887 112.595 220.836 112.733 220.798 112.88L219.847 112.515C219.918 112.304 220.014 112.102 220.135 111.91C220.257 111.712 220.41 111.536 220.596 111.382C220.782 111.229 220.999 111.107 221.249 111.017C221.505 110.928 221.802 110.883 222.142 110.883C222.481 110.883 222.785 110.934 223.054 111.037C223.322 111.133 223.546 111.27 223.726 111.449C223.911 111.622 224.052 111.83 224.148 112.073C224.244 112.317 224.292 112.582 224.292 112.87C224.292 113.139 224.25 113.389 224.167 113.619C224.084 113.849 223.969 114.067 223.822 114.272C223.674 114.477 223.502 114.672 223.303 114.857C223.111 115.043 222.906 115.232 222.689 115.424L221.114 116.777H224.494V117.699ZM226.698 117.699L229.127 111.891H226.592V113.129H225.661V110.998H230.202V111.939L227.84 117.699H226.698ZM232.55 117.699L237.196 110.998H238.166L233.52 117.699H232.55ZM232.982 114.685C232.464 114.685 232.067 114.525 231.792 114.205C231.516 113.878 231.379 113.405 231.379 112.784C231.379 112.163 231.516 111.693 231.792 111.373C232.067 111.046 232.464 110.883 232.982 110.883C233.5 110.883 233.897 111.046 234.172 111.373C234.448 111.693 234.585 112.163 234.585 112.784C234.585 113.405 234.448 113.878 234.172 114.205C233.897 114.525 233.5 114.685 232.982 114.685ZM232.982 114.041C233.436 114.041 233.664 113.712 233.664 113.053V112.515C233.664 111.856 233.436 111.526 232.982 111.526C232.528 111.526 232.3 111.856 232.3 112.515V113.053C232.3 113.712 232.528 114.041 232.982 114.041ZM237.734 117.814C237.216 117.814 236.819 117.654 236.544 117.334C236.268 117.008 236.131 116.534 236.131 115.913C236.131 115.293 236.268 114.822 236.544 114.502C236.819 114.176 237.216 114.013 237.734 114.013C238.252 114.013 238.649 114.176 238.924 114.502C239.2 114.822 239.337 115.293 239.337 115.913C239.337 116.534 239.2 117.008 238.924 117.334C238.649 117.654 238.252 117.814 237.734 117.814ZM237.734 117.171C238.188 117.171 238.416 116.841 238.416 116.182V115.645C238.416 114.985 238.188 114.656 237.734 114.656C237.28 114.656 237.052 114.985 237.052 115.645V116.182C237.052 116.841 237.28 117.171 237.734 117.171ZM242.527 114.713C242.527 115.181 242.482 115.629 242.393 116.057C242.309 116.486 242.191 116.886 242.037 117.257C241.884 117.629 241.701 117.965 241.49 118.265C241.285 118.566 241.061 118.819 240.818 119.024H239.829C240.092 118.787 240.329 118.515 240.54 118.208C240.751 117.907 240.93 117.587 241.077 117.248C241.225 116.909 241.337 116.557 241.413 116.192C241.497 115.827 241.538 115.462 241.538 115.097V114.329C241.538 113.965 241.497 113.6 241.413 113.235C241.337 112.87 241.225 112.518 241.077 112.179C240.93 111.84 240.751 111.52 240.54 111.219C240.329 110.918 240.092 110.646 239.829 110.403H240.818C241.061 110.608 241.285 110.861 241.49 111.161C241.701 111.462 241.884 111.798 242.037 112.169C242.191 112.541 242.309 112.941 242.393 113.369C242.482 113.798 242.527 114.246 242.527 114.713Z" fill="#171719"/>
<path d="M230.558 212.489V220.957H229.406V212.489H230.558ZM226.67 215.993C226.785 215.993 226.884 216.045 226.967 216.147L228.609 218.249L227.726 219.008L226.055 216.752C226.042 216.72 226.014 216.704 225.969 216.704C225.93 216.704 225.902 216.72 225.882 216.752C225.703 217.104 225.476 217.465 225.201 217.837C224.932 218.201 224.583 218.64 224.154 219.152L223.271 218.413C223.777 217.856 224.177 217.357 224.471 216.915C224.766 216.467 224.983 216.019 225.124 215.571C225.265 215.123 225.335 214.627 225.335 214.083V213.046H226.487V214.073C226.487 214.854 226.359 215.574 226.103 216.233L226.17 216.281L226.372 216.109C226.468 216.032 226.567 215.993 226.67 215.993ZM237.994 215.609V212.489H239.136V217.846H237.994V216.541H236.823V215.609H237.994ZM235.872 213.593H233.251V212.662H235.872V213.593ZM234.423 217.76C234 217.76 233.632 217.696 233.319 217.568C233.005 217.44 232.765 217.27 232.599 217.059C232.439 216.841 232.359 216.601 232.359 216.339C232.359 215.827 232.602 215.462 233.088 215.245V215.168H231.85V214.256H236.976V215.168H235.747V215.245C236.234 215.462 236.477 215.827 236.477 216.339C236.477 216.601 236.394 216.841 236.227 217.059C236.067 217.27 235.831 217.44 235.517 217.568C235.21 217.696 234.845 217.76 234.423 217.76ZM234.336 216.829H234.509C234.778 216.829 234.999 216.761 235.171 216.627C235.344 216.486 235.431 216.297 235.431 216.061C235.431 215.824 235.344 215.635 235.171 215.494C235.005 215.353 234.784 215.283 234.509 215.283H234.336C234.061 215.283 233.837 215.353 233.664 215.494C233.491 215.635 233.405 215.824 233.405 216.061C233.405 216.297 233.491 216.486 233.664 216.627C233.837 216.761 234.061 216.829 234.336 216.829ZM239.146 218.259V221.302H234.355C233.869 221.302 233.626 221.059 233.626 220.573V218.259H239.146ZM238.013 219.171H234.749V220.4H238.013V219.171Z" fill="#171719"/>
<path d="M216.68 229.953C216.68 229.486 216.721 229.038 216.805 228.609C216.894 228.181 217.016 227.781 217.169 227.409C217.323 227.038 217.502 226.702 217.707 226.401C217.918 226.101 218.145 225.848 218.389 225.643H219.377C219.115 225.886 218.878 226.158 218.667 226.459C218.456 226.76 218.277 227.08 218.129 227.419C217.982 227.758 217.867 228.11 217.784 228.475C217.707 228.84 217.669 229.205 217.669 229.569V230.337C217.669 230.702 217.707 231.067 217.784 231.432C217.867 231.797 217.982 232.149 218.129 232.488C218.277 232.827 218.456 233.147 218.667 233.448C218.878 233.755 219.115 234.027 219.377 234.264H218.389C218.145 234.059 217.918 233.806 217.707 233.505C217.502 233.205 217.323 232.869 217.169 232.497C217.016 232.126 216.894 231.726 216.805 231.297C216.721 230.869 216.68 230.421 216.68 229.953ZM220.145 232.939V232.037H222.026V227.025H221.95L220.394 228.686L219.732 228.091L221.441 226.238H223.092V232.037H224.724V232.939H220.145ZM227.936 233.054C227.546 233.054 227.2 233.006 226.899 232.91C226.605 232.808 226.355 232.67 226.151 232.497C225.952 232.325 225.799 232.12 225.69 231.883C225.587 231.646 225.536 231.39 225.536 231.115C225.536 230.667 225.658 230.309 225.901 230.04C226.151 229.765 226.477 229.573 226.88 229.464V229.387C226.535 229.265 226.256 229.073 226.045 228.811C225.84 228.549 225.738 228.225 225.738 227.841C225.738 227.585 225.786 227.352 225.882 227.141C225.984 226.929 226.128 226.75 226.314 226.603C226.499 226.449 226.73 226.331 227.005 226.248C227.28 226.165 227.591 226.123 227.936 226.123C228.282 226.123 228.592 226.165 228.867 226.248C229.143 226.331 229.373 226.449 229.559 226.603C229.744 226.75 229.885 226.929 229.981 227.141C230.083 227.352 230.135 227.585 230.135 227.841C230.135 228.225 230.029 228.549 229.818 228.811C229.613 229.073 229.338 229.265 228.992 229.387V229.464C229.395 229.573 229.719 229.765 229.962 230.04C230.211 230.309 230.336 230.667 230.336 231.115C230.336 231.39 230.282 231.646 230.173 231.883C230.071 232.12 229.917 232.325 229.712 232.497C229.514 232.67 229.264 232.808 228.963 232.91C228.669 233.006 228.327 233.054 227.936 233.054ZM227.936 232.181C228.339 232.181 228.65 232.088 228.867 231.902C229.091 231.717 229.203 231.457 229.203 231.125V230.933C229.203 230.6 229.091 230.341 228.867 230.155C228.65 229.969 228.339 229.877 227.936 229.877C227.533 229.877 227.219 229.969 226.995 230.155C226.778 230.341 226.669 230.6 226.669 230.933V231.125C226.669 231.457 226.778 231.717 226.995 231.902C227.219 232.088 227.533 232.181 227.936 232.181ZM227.936 229.041C228.307 229.041 228.589 228.961 228.781 228.801C228.979 228.641 229.079 228.408 229.079 228.101V227.937C229.079 227.63 228.979 227.397 228.781 227.237C228.589 227.077 228.307 226.997 227.936 226.997C227.565 226.997 227.28 227.077 227.082 227.237C226.89 227.397 226.794 227.63 226.794 227.937V228.101C226.794 228.408 226.89 228.641 227.082 228.801C227.28 228.961 227.565 229.041 227.936 229.041ZM232.55 232.939L237.196 226.238H238.166L233.52 232.939H232.55ZM232.982 229.925C232.464 229.925 232.067 229.765 231.792 229.445C231.516 229.118 231.379 228.645 231.379 228.024C231.379 227.403 231.516 226.933 231.792 226.613C232.067 226.286 232.464 226.123 232.982 226.123C233.5 226.123 233.897 226.286 234.172 226.613C234.448 226.933 234.585 227.403 234.585 228.024C234.585 228.645 234.448 229.118 234.172 229.445C233.897 229.765 233.5 229.925 232.982 229.925ZM232.982 229.281C233.436 229.281 233.664 228.952 233.664 228.293V227.755C233.664 227.096 233.436 226.766 232.982 226.766C232.528 226.766 232.3 227.096 232.3 227.755V228.293C232.3 228.952 232.528 229.281 232.982 229.281ZM237.734 233.054C237.216 233.054 236.819 232.894 236.544 232.574C236.268 232.248 236.131 231.774 236.131 231.153C236.131 230.533 236.268 230.062 236.544 229.742C236.819 229.416 237.216 229.253 237.734 229.253C238.252 229.253 238.649 229.416 238.924 229.742C239.2 230.062 239.337 230.533 239.337 231.153C239.337 231.774 239.2 232.248 238.924 232.574C238.649 232.894 238.252 233.054 237.734 233.054ZM237.734 232.411C238.188 232.411 238.416 232.081 238.416 231.422V230.885C238.416 230.225 238.188 229.896 237.734 229.896C237.28 229.896 237.052 230.225 237.052 230.885V231.422C237.052 232.081 237.28 232.411 237.734 232.411ZM242.527 229.953C242.527 230.421 242.482 230.869 242.393 231.297C242.309 231.726 242.191 232.126 242.037 232.497C241.884 232.869 241.701 233.205 241.49 233.505C241.285 233.806 241.061 234.059 240.818 234.264H239.829C240.092 234.027 240.329 233.755 240.54 233.448C240.751 233.147 240.93 232.827 241.077 232.488C241.225 232.149 241.337 231.797 241.413 231.432C241.497 231.067 241.538 230.702 241.538 230.337V229.569C241.538 229.205 241.497 228.84 241.413 228.475C241.337 228.11 241.225 227.758 241.077 227.419C240.93 227.08 240.751 226.76 240.54 226.459C240.329 226.158 240.092 225.886 239.829 225.643H240.818C241.061 225.848 241.285 226.101 241.49 226.401C241.701 226.702 241.884 227.038 242.037 227.409C242.191 227.781 242.309 228.181 242.393 228.609C242.482 229.038 242.527 229.486 242.527 229.953Z" fill="#171719"/>
<path d="M126.217 235.269V241.625H125.065V235.269H126.217ZM119.103 237.948C119.103 237.481 119.199 237.077 119.391 236.738C119.59 236.399 119.862 236.14 120.207 235.961C120.553 235.781 120.95 235.692 121.398 235.692C121.846 235.692 122.243 235.781 122.588 235.961C122.934 236.14 123.203 236.399 123.395 236.738C123.593 237.077 123.692 237.481 123.692 237.948C123.692 238.409 123.593 238.809 123.395 239.148C123.203 239.487 122.934 239.749 122.588 239.935C122.243 240.114 121.846 240.204 121.398 240.204C120.95 240.204 120.553 240.114 120.207 239.935C119.862 239.749 119.59 239.487 119.391 239.148C119.199 238.809 119.103 238.409 119.103 237.948ZM122.473 238.197V237.698C122.473 237.365 122.374 237.103 122.175 236.911C121.983 236.719 121.724 236.623 121.398 236.623C121.071 236.623 120.809 236.719 120.611 236.911C120.412 237.103 120.313 237.365 120.313 237.698V238.197C120.313 238.53 120.409 238.793 120.601 238.985C120.799 239.17 121.065 239.263 121.398 239.263C121.724 239.263 121.983 239.17 122.175 238.985C122.374 238.793 122.473 238.53 122.473 238.197ZM120.678 243.189V240.933H121.83V242.978H126.38V243.919H121.407C120.921 243.919 120.678 243.676 120.678 243.189ZM135.592 237.679V238.639H134.306V241.625H133.164V235.269H134.306V237.679H135.592ZM128.114 240.645L127.5 239.772C128.306 239.465 128.927 239.177 129.362 238.908C129.797 238.639 130.101 238.361 130.274 238.073C130.447 237.785 130.533 237.445 130.533 237.055V236.805H127.788V235.836H131.695V236.94C131.695 237.541 131.586 238.047 131.368 238.457C131.151 238.866 130.786 239.241 130.274 239.58C129.768 239.919 129.048 240.274 128.114 240.645ZM130.024 242.978H134.508V243.919H129.602C129.116 243.919 128.872 243.676 128.872 243.189V240.933H130.024V242.978ZM144.142 237.977V238.937H142.981V241.769H141.848V235.269H142.981V237.977H144.142ZM139.736 236.757H136.405V235.817H140.859V236.393C140.859 237.205 140.766 238.076 140.581 239.004L139.486 238.86C139.633 238.207 139.717 237.506 139.736 236.757ZM141.397 240.338C140.705 240.441 139.861 240.524 138.862 240.588C137.87 240.645 136.865 240.674 135.848 240.674L135.752 239.724C136.155 239.724 136.753 239.717 137.547 239.705V237.919H138.661V239.666C139.665 239.628 140.542 239.557 141.291 239.455L141.397 240.338ZM138.555 242.978H143.153V243.919H138.142C137.656 243.919 137.413 243.676 137.413 243.189V241.279H138.555V242.978ZM152.068 235.269V243.737H150.993V235.269H152.068ZM149.226 235.394H150.263V243.516H149.226V240.521H148.046V239.609H149.226V238.313H148.17C148.113 238.818 147.982 239.266 147.777 239.657C147.572 240.047 147.281 240.425 146.903 240.789C146.526 241.148 146.02 241.548 145.386 241.989L144.657 241.279C145.329 240.831 145.838 240.431 146.183 240.079C146.535 239.727 146.782 239.356 146.922 238.965C147.07 238.575 147.143 238.092 147.143 237.516V236.988H144.916V236.124H148.218V237.41H149.226V235.394Z" fill="#171719"/>
<path d="M122.752 252.733C122.752 252.266 122.793 251.818 122.876 251.389C122.966 250.961 123.088 250.561 123.241 250.189C123.395 249.818 123.574 249.482 123.779 249.181C123.99 248.881 124.217 248.628 124.46 248.423H125.449C125.187 248.666 124.95 248.938 124.739 249.239C124.528 249.54 124.348 249.86 124.201 250.199C124.054 250.538 123.939 250.89 123.856 251.255C123.779 251.62 123.74 251.985 123.74 252.349V253.117C123.74 253.482 123.779 253.847 123.856 254.212C123.939 254.577 124.054 254.929 124.201 255.268C124.348 255.607 124.528 255.927 124.739 256.228C124.95 256.535 125.187 256.807 125.449 257.044H124.46C124.217 256.839 123.99 256.586 123.779 256.285C123.574 255.985 123.395 255.649 123.241 255.277C123.088 254.906 122.966 254.506 122.876 254.077C122.793 253.649 122.752 253.201 122.752 252.733ZM126.217 255.719V254.817H128.098V249.805H128.021L126.466 251.466L125.804 250.871L127.513 249.018H129.164V254.817H130.796V255.719H126.217ZM134.008 255.834C133.618 255.834 133.272 255.786 132.971 255.69C132.677 255.588 132.427 255.45 132.223 255.277C132.024 255.105 131.871 254.9 131.762 254.663C131.659 254.426 131.608 254.17 131.608 253.895C131.608 253.447 131.73 253.089 131.973 252.82C132.223 252.545 132.549 252.353 132.952 252.244V252.167C132.607 252.045 132.328 251.853 132.117 251.591C131.912 251.329 131.81 251.005 131.81 250.621C131.81 250.365 131.858 250.132 131.954 249.921C132.056 249.709 132.2 249.53 132.386 249.383C132.571 249.229 132.802 249.111 133.077 249.028C133.352 248.945 133.663 248.903 134.008 248.903C134.354 248.903 134.664 248.945 134.939 249.028C135.215 249.111 135.445 249.229 135.631 249.383C135.816 249.53 135.957 249.709 136.053 249.921C136.155 250.132 136.207 250.365 136.207 250.621C136.207 251.005 136.101 251.329 135.89 251.591C135.685 251.853 135.41 252.045 135.064 252.167V252.244C135.467 252.353 135.791 252.545 136.034 252.82C136.283 253.089 136.408 253.447 136.408 253.895C136.408 254.17 136.354 254.426 136.245 254.663C136.143 254.9 135.989 255.105 135.784 255.277C135.586 255.45 135.336 255.588 135.035 255.69C134.741 255.786 134.399 255.834 134.008 255.834ZM134.008 254.961C134.411 254.961 134.722 254.868 134.939 254.682C135.163 254.497 135.275 254.237 135.275 253.905V253.713C135.275 253.38 135.163 253.121 134.939 252.935C134.722 252.749 134.411 252.657 134.008 252.657C133.605 252.657 133.291 252.749 133.067 252.935C132.85 253.121 132.741 253.38 132.741 253.713V253.905C132.741 254.237 132.85 254.497 133.067 254.682C133.291 254.868 133.605 254.961 134.008 254.961ZM134.008 251.821C134.379 251.821 134.661 251.741 134.853 251.581C135.051 251.421 135.151 251.188 135.151 250.881V250.717C135.151 250.41 135.051 250.177 134.853 250.017C134.661 249.857 134.379 249.777 134.008 249.777C133.637 249.777 133.352 249.857 133.154 250.017C132.962 250.177 132.866 250.41 132.866 250.717V250.881C132.866 251.188 132.962 251.421 133.154 251.581C133.352 251.741 133.637 251.821 134.008 251.821ZM138.622 255.719L143.268 249.018H144.238L139.592 255.719H138.622ZM139.054 252.705C138.536 252.705 138.139 252.545 137.864 252.225C137.588 251.898 137.451 251.425 137.451 250.804C137.451 250.183 137.588 249.713 137.864 249.393C138.139 249.066 138.536 248.903 139.054 248.903C139.572 248.903 139.969 249.066 140.244 249.393C140.52 249.713 140.657 250.183 140.657 250.804C140.657 251.425 140.52 251.898 140.244 252.225C139.969 252.545 139.572 252.705 139.054 252.705ZM139.054 252.061C139.508 252.061 139.736 251.732 139.736 251.073V250.535C139.736 249.876 139.508 249.546 139.054 249.546C138.6 249.546 138.372 249.876 138.372 250.535V251.073C138.372 251.732 138.6 252.061 139.054 252.061ZM143.806 255.834C143.288 255.834 142.891 255.674 142.616 255.354C142.34 255.028 142.203 254.554 142.203 253.933C142.203 253.313 142.34 252.842 142.616 252.522C142.891 252.196 143.288 252.033 143.806 252.033C144.324 252.033 144.721 252.196 144.996 252.522C145.272 252.842 145.409 253.313 145.409 253.933C145.409 254.554 145.272 255.028 144.996 255.354C144.721 255.674 144.324 255.834 143.806 255.834ZM143.806 255.191C144.26 255.191 144.488 254.861 144.488 254.202V253.665C144.488 253.005 144.26 252.676 143.806 252.676C143.352 252.676 143.124 253.005 143.124 253.665V254.202C143.124 254.861 143.352 255.191 143.806 255.191ZM148.599 252.733C148.599 253.201 148.554 253.649 148.465 254.077C148.381 254.506 148.263 254.906 148.109 255.277C147.956 255.649 147.773 255.985 147.562 256.285C147.357 256.586 147.133 256.839 146.89 257.044H145.901C146.164 256.807 146.401 256.535 146.612 256.228C146.823 255.927 147.002 255.607 147.149 255.268C147.297 254.929 147.409 254.577 147.485 254.212C147.569 253.847 147.61 253.482 147.61 253.117V252.349C147.61 251.985 147.569 251.62 147.485 251.255C147.409 250.89 147.297 250.538 147.149 250.199C147.002 249.86 146.823 249.54 146.612 249.239C146.401 248.938 146.164 248.666 145.901 248.423H146.89C147.133 248.628 147.357 248.881 147.562 249.181C147.773 249.482 147.956 249.818 148.109 250.189C148.263 250.561 148.381 250.961 148.465 251.389C148.554 251.818 148.599 252.266 148.599 252.733Z" fill="#171719"/>
<path d="M80.6428 167.669H79.3372V172.056H78.1948V163.579H79.3372V166.719H80.6428V167.669ZM72.8476 164.251H76.7836V165.672C76.7836 166.402 76.6716 167.023 76.4476 167.535C76.23 168.04 75.8684 168.511 75.3628 168.946C74.8636 169.375 74.1564 169.839 73.2412 170.338L72.5596 169.464C73.3852 169.042 74.0124 168.655 74.4412 168.303C74.8764 167.944 75.1804 167.563 75.3532 167.16C75.5324 166.757 75.622 166.261 75.622 165.672V165.211H72.8476V164.251ZM87.2534 165.567V163.579H88.3958V168.619H87.2534V166.498H85.7558V165.567H87.2534ZM81.9542 168.523L81.0998 167.803C81.8102 167.291 82.3222 166.821 82.6358 166.392C82.9558 165.963 83.119 165.503 83.1254 165.01H81.407V164.059H85.9574V165.01H84.2678V165.019C84.2678 165.557 84.1462 166.05 83.903 166.498L83.9606 166.527L84.2006 166.363C84.2966 166.287 84.3958 166.248 84.4982 166.248C84.607 166.248 84.7158 166.287 84.8246 166.363L86.3318 167.621L85.4774 168.36L83.8934 166.968C83.823 166.923 83.7654 166.901 83.7206 166.901C83.6694 166.901 83.6246 166.92 83.5862 166.959C83.407 167.202 83.1862 167.445 82.9238 167.688C82.6614 167.931 82.3382 168.21 81.9542 168.523ZM88.4054 170.635C88.4054 171 88.2966 171.323 88.079 171.605C87.8614 171.887 87.5414 172.107 87.119 172.267C86.703 172.427 86.2006 172.507 85.6118 172.507C85.023 172.507 84.5174 172.427 84.095 172.267C83.6726 172.107 83.3526 171.887 83.135 171.605C82.9174 171.323 82.8086 171 82.8086 170.635C82.8086 170.264 82.9174 169.938 83.135 169.656C83.3526 169.375 83.6726 169.154 84.095 168.994C84.5174 168.834 85.023 168.754 85.6118 168.754C86.2006 168.754 86.7062 168.834 87.1286 168.994C87.551 169.154 87.8678 169.375 88.079 169.656C88.2966 169.938 88.4054 170.264 88.4054 170.635ZM87.215 170.559C87.215 170.296 87.0838 170.079 86.8214 169.906C86.559 169.733 86.1558 169.647 85.6118 169.647C85.0678 169.647 84.6614 169.733 84.3926 169.906C84.1302 170.079 83.999 170.296 83.999 170.559V170.712C83.999 170.968 84.1302 171.183 84.3926 171.355C84.6614 171.528 85.0678 171.615 85.6118 171.615C86.1494 171.615 86.5494 171.528 86.8118 171.355C87.0806 171.183 87.215 170.968 87.215 170.712V170.559Z" fill="#171719"/>
<path d="M65.9298 181.043C65.9298 180.576 65.9714 180.128 66.0546 179.699C66.1442 179.271 66.2658 178.871 66.4194 178.499C66.573 178.128 66.7522 177.792 66.957 177.491C67.1682 177.191 67.3954 176.938 67.6386 176.733H68.6274C68.365 176.976 68.1282 177.248 67.917 177.549C67.7058 177.85 67.5266 178.17 67.3794 178.509C67.2322 178.848 67.117 179.2 67.0338 179.565C66.957 179.93 66.9186 180.295 66.9186 180.659V181.427C66.9186 181.792 66.957 182.157 67.0338 182.522C67.117 182.887 67.2322 183.239 67.3794 183.578C67.5266 183.917 67.7058 184.237 67.917 184.538C68.1282 184.845 68.365 185.117 68.6274 185.354H67.6386C67.3954 185.149 67.1682 184.896 66.957 184.595C66.7522 184.295 66.573 183.959 66.4194 183.587C66.2658 183.216 66.1442 182.816 66.0546 182.387C65.9714 181.959 65.9298 181.511 65.9298 181.043ZM69.3948 184.029V183.127H71.2764V178.115H71.1996L69.6444 179.776L68.982 179.181L70.6908 177.328H72.342V183.127H73.974V184.029H69.3948ZM77.1862 184.144C76.7958 184.144 76.4502 184.096 76.1494 184C75.855 183.898 75.6054 183.76 75.4006 183.587C75.2022 183.415 75.0486 183.21 74.9398 182.973C74.8374 182.736 74.7862 182.48 74.7862 182.205C74.7862 181.757 74.9078 181.399 75.151 181.13C75.4006 180.855 75.727 180.663 76.1302 180.554V180.477C75.7846 180.355 75.5062 180.163 75.295 179.901C75.0902 179.639 74.9878 179.315 74.9878 178.931C74.9878 178.675 75.0358 178.442 75.1318 178.231C75.2342 178.019 75.3782 177.84 75.5638 177.693C75.7494 177.539 75.9798 177.421 76.255 177.338C76.5302 177.255 76.8406 177.213 77.1862 177.213C77.5318 177.213 77.8422 177.255 78.1174 177.338C78.3926 177.421 78.623 177.539 78.8086 177.693C78.9942 177.84 79.135 178.019 79.231 178.231C79.3334 178.442 79.3846 178.675 79.3846 178.931C79.3846 179.315 79.279 179.639 79.0678 179.901C78.863 180.163 78.5878 180.355 78.2422 180.477V180.554C78.6454 180.663 78.9686 180.855 79.2118 181.13C79.4614 181.399 79.5862 181.757 79.5862 182.205C79.5862 182.48 79.5318 182.736 79.423 182.973C79.3206 183.21 79.167 183.415 78.9622 183.587C78.7638 183.76 78.5142 183.898 78.2134 184C77.919 184.096 77.5766 184.144 77.1862 184.144ZM77.1862 183.271C77.5894 183.271 77.8998 183.178 78.1174 182.992C78.3414 182.807 78.4534 182.547 78.4534 182.215V182.023C78.4534 181.69 78.3414 181.431 78.1174 181.245C77.8998 181.059 77.5894 180.967 77.1862 180.967C76.783 180.967 76.4694 181.059 76.2454 181.245C76.0278 181.431 75.919 181.69 75.919 182.023V182.215C75.919 182.547 76.0278 182.807 76.2454 182.992C76.4694 183.178 76.783 183.271 77.1862 183.271ZM77.1862 180.131C77.5574 180.131 77.839 180.051 78.031 179.891C78.2294 179.731 78.3286 179.498 78.3286 179.191V179.027C78.3286 178.72 78.2294 178.487 78.031 178.327C77.839 178.167 77.5574 178.087 77.1862 178.087C76.815 178.087 76.5302 178.167 76.3318 178.327C76.1398 178.487 76.0438 178.72 76.0438 179.027V179.191C76.0438 179.498 76.1398 179.731 76.3318 179.891C76.5302 180.051 76.815 180.131 77.1862 180.131ZM81.8001 184.029L86.4465 177.328H87.4161L82.7697 184.029H81.8001ZM82.2321 181.015C81.7137 181.015 81.3169 180.855 81.0417 180.535C80.7665 180.208 80.6289 179.735 80.6289 179.114C80.6289 178.493 80.7665 178.023 81.0417 177.703C81.3169 177.376 81.7137 177.213 82.2321 177.213C82.7505 177.213 83.1473 177.376 83.4225 177.703C83.6977 178.023 83.8353 178.493 83.8353 179.114C83.8353 179.735 83.6977 180.208 83.4225 180.535C83.1473 180.855 82.7505 181.015 82.2321 181.015ZM82.2321 180.371C82.6865 180.371 82.9137 180.042 82.9137 179.383V178.845C82.9137 178.186 82.6865 177.856 82.2321 177.856C81.7777 177.856 81.5505 178.186 81.5505 178.845V179.383C81.5505 180.042 81.7777 180.371 82.2321 180.371ZM86.9841 184.144C86.4657 184.144 86.0689 183.984 85.7937 183.664C85.5185 183.338 85.3809 182.864 85.3809 182.243C85.3809 181.623 85.5185 181.152 85.7937 180.832C86.0689 180.506 86.4657 180.343 86.9841 180.343C87.5025 180.343 87.8993 180.506 88.1745 180.832C88.4497 181.152 88.5873 181.623 88.5873 182.243C88.5873 182.864 88.4497 183.338 88.1745 183.664C87.8993 183.984 87.5025 184.144 86.9841 184.144ZM86.9841 183.501C87.4385 183.501 87.6657 183.171 87.6657 182.512V181.975C87.6657 181.315 87.4385 180.986 86.9841 180.986C86.5297 180.986 86.3025 181.315 86.3025 181.975V182.512C86.3025 183.171 86.5297 183.501 86.9841 183.501ZM91.777 181.043C91.777 181.511 91.7322 181.959 91.6426 182.387C91.5594 182.816 91.441 183.216 91.2874 183.587C91.1338 183.959 90.9514 184.295 90.7402 184.595C90.5354 184.896 90.3114 185.149 90.0682 185.354H89.0794C89.3418 185.117 89.5786 184.845 89.7898 184.538C90.001 184.237 90.1802 183.917 90.3274 183.578C90.4746 183.239 90.5866 182.887 90.6634 182.522C90.7466 182.157 90.7882 181.792 90.7882 181.427V180.659C90.7882 180.295 90.7466 179.93 90.6634 179.565C90.5866 179.2 90.4746 178.848 90.3274 178.509C90.1802 178.17 90.001 177.85 89.7898 177.549C89.5786 177.248 89.3418 176.976 89.0794 176.733H90.0682C90.3114 176.938 90.5354 177.191 90.7402 177.491C90.9514 177.792 91.1338 178.128 91.2874 178.499C91.441 178.871 91.5594 179.271 91.6426 179.699C91.7322 180.128 91.777 180.576 91.777 181.043Z" fill="#171719"/>
<path d="M99.9173 97.2494V105.717H98.7845V97.2494H99.9173ZM96.7877 98.2094H94.1957V97.3454H96.7877V98.2094ZM94.9253 99.5534H93.1685V98.6894H97.7573V99.5534H96.0197C95.9877 99.9054 95.8661 100.216 95.6549 100.485L95.7029 100.513L95.9717 100.331C96.0805 100.254 96.1893 100.216 96.2981 100.216C96.3877 100.216 96.4901 100.241 96.6053 100.293L98.0261 101.013L97.2293 101.733L95.6549 100.849C95.5973 100.811 95.5333 100.792 95.4629 100.792C95.3989 100.792 95.3349 100.814 95.2709 100.859C94.9189 101.166 94.3717 101.496 93.6293 101.848L92.8421 101.137C93.5141 100.862 94.0101 100.6 94.3301 100.35C94.6565 100.101 94.8549 99.835 94.9253 99.5534ZM98.3525 102.827C97.7189 102.923 96.9445 103 96.0293 103.057V105.64H94.8869V103.115C94.0869 103.147 93.3573 103.163 92.6981 103.163L92.6021 102.213C93.7221 102.213 94.7813 102.19 95.7797 102.145C96.7781 102.101 97.6037 102.033 98.2565 101.944L98.3525 102.827ZM107.315 97.2494H108.467V105.717H107.315V97.2494ZM101.574 97.9118H105.789V103.393H101.574V97.9118ZM104.656 102.462V98.843H102.707V102.462H104.656Z" fill="#171719"/>
<path d="M90.7898 114.713C90.7898 114.246 90.8314 113.798 90.9146 113.369C91.0042 112.941 91.1258 112.541 91.2794 112.169C91.433 111.798 91.6122 111.462 91.817 111.161C92.0282 110.861 92.2554 110.608 92.4986 110.403H93.4874C93.225 110.646 92.9882 110.918 92.777 111.219C92.5658 111.52 92.3866 111.84 92.2394 112.179C92.0922 112.518 91.977 112.87 91.8938 113.235C91.817 113.6 91.7786 113.965 91.7786 114.329V115.097C91.7786 115.462 91.817 115.827 91.8938 116.192C91.977 116.557 92.0922 116.909 92.2394 117.248C92.3866 117.587 92.5658 117.907 92.777 118.208C92.9882 118.515 93.225 118.787 93.4874 119.024H92.4986C92.2554 118.819 92.0282 118.566 91.817 118.265C91.6122 117.965 91.433 117.629 91.2794 117.257C91.1258 116.886 91.0042 116.486 90.9146 116.057C90.8314 115.629 90.7898 115.181 90.7898 114.713ZM98.6324 113.494C98.6324 113.981 98.5588 114.438 98.4116 114.867C98.2644 115.296 98.0756 115.689 97.8452 116.048C97.6148 116.406 97.3556 116.726 97.0676 117.008C96.786 117.289 96.5076 117.52 96.2324 117.699H94.7924C95.17 117.424 95.5092 117.158 95.81 116.902C96.1108 116.646 96.3732 116.384 96.5972 116.115C96.8212 115.846 97.0068 115.561 97.154 115.261C97.3076 114.96 97.426 114.63 97.5092 114.272L97.442 114.253C97.3716 114.387 97.2884 114.515 97.1924 114.637C97.1028 114.752 96.994 114.854 96.866 114.944C96.7444 115.033 96.6036 115.104 96.4436 115.155C96.2836 115.206 96.098 115.232 95.8868 115.232C95.6052 115.232 95.3428 115.184 95.0996 115.088C94.8628 114.992 94.6548 114.854 94.4756 114.675C94.3028 114.489 94.1652 114.272 94.0628 114.022C93.9668 113.766 93.9188 113.478 93.9188 113.158C93.9188 112.825 93.9732 112.518 94.082 112.237C94.1972 111.955 94.3572 111.715 94.562 111.517C94.7668 111.318 95.0132 111.165 95.3012 111.056C95.5892 110.941 95.9124 110.883 96.2708 110.883C96.642 110.883 96.9716 110.944 97.2596 111.065C97.554 111.187 97.8004 111.363 97.9988 111.593C98.2036 111.817 98.3604 112.089 98.4692 112.409C98.578 112.729 98.6324 113.091 98.6324 113.494ZM96.2708 114.358C96.6612 114.358 96.9652 114.256 97.1828 114.051C97.4004 113.84 97.5092 113.533 97.5092 113.129V112.995C97.5092 112.592 97.4004 112.288 97.1828 112.083C96.9652 111.872 96.6612 111.766 96.2708 111.766C95.8804 111.766 95.5764 111.872 95.3588 112.083C95.1412 112.288 95.0324 112.592 95.0324 112.995V113.129C95.0324 113.533 95.1412 113.84 95.3588 114.051C95.5764 114.256 95.8804 114.358 96.2708 114.358ZM100.904 117.699L105.55 110.998H106.52L101.873 117.699H100.904ZM101.336 114.685C100.817 114.685 100.421 114.525 100.145 114.205C99.8703 113.878 99.7327 113.405 99.7327 112.784C99.7327 112.163 99.8703 111.693 100.145 111.373C100.421 111.046 100.817 110.883 101.336 110.883C101.854 110.883 102.251 111.046 102.526 111.373C102.801 111.693 102.939 112.163 102.939 112.784C102.939 113.405 102.801 113.878 102.526 114.205C102.251 114.525 101.854 114.685 101.336 114.685ZM101.336 114.041C101.79 114.041 102.017 113.712 102.017 113.053V112.515C102.017 111.856 101.79 111.526 101.336 111.526C100.881 111.526 100.654 111.856 100.654 112.515V113.053C100.654 113.712 100.881 114.041 101.336 114.041ZM106.088 117.814C105.569 117.814 105.173 117.654 104.897 117.334C104.622 117.008 104.485 116.534 104.485 115.913C104.485 115.293 104.622 114.822 104.897 114.502C105.173 114.176 105.569 114.013 106.088 114.013C106.606 114.013 107.003 114.176 107.278 114.502C107.553 114.822 107.691 115.293 107.691 115.913C107.691 116.534 107.553 117.008 107.278 117.334C107.003 117.654 106.606 117.814 106.088 117.814ZM106.088 117.171C106.542 117.171 106.769 116.841 106.769 116.182V115.645C106.769 114.985 106.542 114.656 106.088 114.656C105.633 114.656 105.406 114.985 105.406 115.645V116.182C105.406 116.841 105.633 117.171 106.088 117.171ZM110.881 114.713C110.881 115.181 110.836 115.629 110.746 116.057C110.663 116.486 110.545 116.886 110.391 117.257C110.238 117.629 110.055 117.965 109.844 118.265C109.639 118.566 109.415 118.819 109.172 119.024H108.183C108.446 118.787 108.682 118.515 108.894 118.208C109.105 117.907 109.284 117.587 109.431 117.248C109.578 116.909 109.69 116.557 109.767 116.192C109.85 115.827 109.892 115.462 109.892 115.097V114.329C109.892 113.965 109.85 113.6 109.767 113.235C109.69 112.87 109.578 112.518 109.431 112.179C109.284 111.84 109.105 111.52 108.894 111.219C108.682 110.918 108.446 110.646 108.183 110.403H109.172C109.415 110.608 109.639 110.861 109.844 111.161C110.055 111.462 110.238 111.798 110.391 112.169C110.545 112.541 110.663 112.941 110.746 113.369C110.836 113.798 110.881 114.246 110.881 114.713Z" fill="#171719"/>
<path d="M136.403 77.2191H135.098V81.6063H133.955V73.1295H135.098V76.2687H136.403V77.2191ZM131.469 76.8351C131.591 76.8351 131.699 76.8831 131.795 76.9791L133.399 78.8415L132.544 79.5711L130.893 77.5551C130.855 77.5167 130.81 77.4975 130.759 77.4975C130.714 77.4975 130.682 77.5167 130.663 77.5551C130.477 77.8751 130.25 78.2047 129.981 78.5439C129.712 78.8767 129.373 79.2639 128.963 79.7055L128.109 79.0047C128.851 78.2751 129.379 77.6127 129.693 77.0175C130.013 76.4159 130.173 75.7599 130.173 75.0495V74.8191H128.435V73.8687H133.015V74.8191H131.296V75.0879C131.296 75.8111 131.165 76.4735 130.903 77.0751L130.951 77.1039L131.181 76.9407C131.271 76.8703 131.367 76.8351 131.469 76.8351ZM142.976 73.1295H144.128V81.5967H142.976V73.1295ZM137.081 79.0047C137.92 78.5823 138.556 78.1951 138.992 77.8431C139.433 77.4911 139.744 77.1135 139.923 76.7103C140.102 76.3071 140.192 75.8111 140.192 75.2223V74.7615H137.369V73.8015H141.353V75.2223C141.353 75.9519 141.241 76.5727 141.017 77.0847C140.793 77.5903 140.425 78.0607 139.913 78.4959C139.401 78.9247 138.681 79.3887 137.753 79.8879L137.081 79.0047ZM152.889 73.1295V81.5967H151.813V73.1295H152.889ZM150.047 73.2543H151.084V81.3759H150.047V78.3807H148.866V77.4687H150.047V76.1727H148.991C148.933 76.6783 148.802 77.1263 148.597 77.5167C148.393 77.9071 148.101 78.2847 147.724 78.6495C147.346 79.0079 146.841 79.4079 146.207 79.8495L145.477 79.1391C146.149 78.6911 146.658 78.2911 147.004 77.9391C147.356 77.5871 147.602 77.2159 147.743 76.8255C147.89 76.4351 147.964 75.9519 147.964 75.3759V74.8479H145.737V73.9839H149.039V75.2703H150.047V73.2543ZM162.091 74.9247V75.8847H160.805V77.5455H159.662V73.1295H160.805V74.9247H162.091ZM158.242 77.4015H154.142V73.4367H155.246V74.5791H157.138V73.4367H158.242V77.4015ZM157.138 75.4815H155.246V76.4991H157.138V75.4815ZM156.446 81.0975H160.997V81.9999H156.043C155.557 81.9999 155.314 81.7567 155.314 81.2703V79.5807H159.672V78.8895H155.266V78.0063H160.805V80.4159H156.446V81.0975Z" fill="#171719"/>
<path d="M135.01 90.5935C135.01 90.1263 135.051 89.6783 135.135 89.2495C135.224 88.8207 135.346 88.4207 135.499 88.0495C135.653 87.6783 135.832 87.3423 136.037 87.0415C136.248 86.7407 136.475 86.4879 136.719 86.2831H137.707C137.445 86.5263 137.208 86.7983 136.997 87.0991C136.786 87.3999 136.607 87.7199 136.459 88.0591C136.312 88.3983 136.197 88.7503 136.114 89.1151C136.037 89.4799 135.999 89.8447 135.999 90.2095V90.9775C135.999 91.3423 136.037 91.7071 136.114 92.0719C136.197 92.4367 136.312 92.7887 136.459 93.1279C136.607 93.4671 136.786 93.7871 136.997 94.0879C137.208 94.3951 137.445 94.6671 137.707 94.9039H136.719C136.475 94.6991 136.248 94.4463 136.037 94.1455C135.832 93.8447 135.653 93.5087 135.499 93.1375C135.346 92.7663 135.224 92.3663 135.135 91.9375C135.051 91.5087 135.01 91.0607 135.01 90.5935ZM142.852 89.3743C142.852 89.8607 142.779 90.3183 142.632 90.7471C142.484 91.1759 142.296 91.5695 142.065 91.9279C141.835 92.2863 141.576 92.6063 141.288 92.8879C141.006 93.1695 140.728 93.3999 140.452 93.5791H139.012C139.39 93.3039 139.729 93.0383 140.03 92.7823C140.331 92.5263 140.593 92.2639 140.817 91.9951C141.041 91.7263 141.227 91.4415 141.374 91.1407C141.528 90.8399 141.646 90.5103 141.729 90.1519L141.662 90.1327C141.592 90.2671 141.508 90.3951 141.412 90.5167C141.323 90.6319 141.214 90.7343 141.086 90.8239C140.964 90.9135 140.824 90.9839 140.664 91.0351C140.504 91.0863 140.318 91.1119 140.107 91.1119C139.825 91.1119 139.563 91.0639 139.32 90.9679C139.083 90.8719 138.875 90.7343 138.696 90.5551C138.523 90.3695 138.385 90.1519 138.283 89.9023C138.187 89.6463 138.139 89.3583 138.139 89.0383C138.139 88.7055 138.193 88.3983 138.302 88.1167C138.417 87.8351 138.577 87.5951 138.782 87.3967C138.987 87.1983 139.233 87.0447 139.521 86.9359C139.809 86.8207 140.132 86.7631 140.491 86.7631C140.862 86.7631 141.192 86.8239 141.48 86.9455C141.774 87.0671 142.02 87.2431 142.219 87.4735C142.424 87.6975 142.58 87.9695 142.689 88.2895C142.798 88.6095 142.852 88.9711 142.852 89.3743ZM140.491 90.2383C140.881 90.2383 141.185 90.1359 141.403 89.9311C141.62 89.7199 141.729 89.4127 141.729 89.0095V88.8751C141.729 88.4719 141.62 88.1679 141.403 87.9631C141.185 87.7519 140.881 87.6463 140.491 87.6463C140.1 87.6463 139.796 87.7519 139.579 87.9631C139.361 88.1679 139.252 88.4719 139.252 88.8751V89.0095C139.252 89.4127 139.361 89.7199 139.579 89.9311C139.796 90.1359 140.1 90.2383 140.491 90.2383ZM145.124 93.5791L149.77 86.8783H150.74L146.093 93.5791H145.124ZM145.556 90.5647C145.037 90.5647 144.641 90.4047 144.365 90.0847C144.09 89.7583 143.953 89.2847 143.953 88.6639C143.953 88.0431 144.09 87.5727 144.365 87.2527C144.641 86.9263 145.037 86.7631 145.556 86.7631C146.074 86.7631 146.471 86.9263 146.746 87.2527C147.021 87.5727 147.159 88.0431 147.159 88.6639C147.159 89.2847 147.021 89.7583 146.746 90.0847C146.471 90.4047 146.074 90.5647 145.556 90.5647ZM145.556 89.9215C146.01 89.9215 146.237 89.5919 146.237 88.9327V88.3951C146.237 87.7359 146.01 87.4063 145.556 87.4063C145.101 87.4063 144.874 87.7359 144.874 88.3951V88.9327C144.874 89.5919 145.101 89.9215 145.556 89.9215ZM150.308 93.6943C149.789 93.6943 149.393 93.5343 149.117 93.2143C148.842 92.8879 148.705 92.4143 148.705 91.7935C148.705 91.1727 148.842 90.7023 149.117 90.3823C149.393 90.0559 149.789 89.8927 150.308 89.8927C150.826 89.8927 151.223 90.0559 151.498 90.3823C151.773 90.7023 151.911 91.1727 151.911 91.7935C151.911 92.4143 151.773 92.8879 151.498 93.2143C151.223 93.5343 150.826 93.6943 150.308 93.6943ZM150.308 93.0511C150.762 93.0511 150.989 92.7215 150.989 92.0623V91.5247C150.989 90.8655 150.762 90.5359 150.308 90.5359C149.853 90.5359 149.626 90.8655 149.626 91.5247V92.0623C149.626 92.7215 149.853 93.0511 150.308 93.0511ZM155.101 90.5935C155.101 91.0607 155.056 91.5087 154.966 91.9375C154.883 92.3663 154.765 92.7663 154.611 93.1375C154.458 93.5087 154.275 93.8447 154.064 94.1455C153.859 94.4463 153.635 94.6991 153.392 94.9039H152.403C152.666 94.6671 152.902 94.3951 153.114 94.0879C153.325 93.7871 153.504 93.4671 153.651 93.1279C153.798 92.7887 153.91 92.4367 153.987 92.0719C154.07 91.7071 154.112 91.3423 154.112 90.9775V90.2095C154.112 89.8447 154.07 89.4799 153.987 89.1151C153.91 88.7503 153.798 88.3983 153.651 88.0591C153.504 87.7199 153.325 87.3999 153.114 87.0991C152.902 86.7983 152.666 86.5263 152.403 86.2831H153.392C153.635 86.4879 153.859 86.7407 154.064 87.0415C154.275 87.3423 154.458 87.6783 154.611 88.0495C154.765 88.4207 154.883 88.8207 154.966 89.2495C155.056 89.6783 155.101 90.1263 155.101 90.5935Z" fill="#171719"/>
<defs>
<filter id="filter0_dd_1715_6107" x="44.2317" y="46.9777" width="246.553" height="246.553" filterUnits="userSpaceOnUse" color-interpolation-filters="sRGB">
<feFlood flood-opacity="0" result="BackgroundImageFix"/>
<feColorMatrix in="SourceAlpha" type="matrix" values="0 0 0 0 0 0 0 0 0 0 0 0 0 0 0 0 0 0 127 0" result="hardAlpha"/>
<feOffset dy="2.4"/>
<feGaussianBlur stdDeviation="2.4"/>
<feComposite in2="hardAlpha" operator="out"/>
<feColorMatrix type="matrix" values="0 0 0 0 0 0 0 0 0 0 0 0 0 0 0 0 0 0 0.08 0"/>
<feBlend mode="normal" in2="BackgroundImageFix" result="effect1_dropShadow_1715_6107"/>
<feColorMatrix in="SourceAlpha" type="matrix" values="0 0 0 0 0 0 0 0 0 0 0 0 0 0 0 0 0 0 127 0" result="hardAlpha"/>
<feOffset/>
<feGaussianBlur stdDeviation="0.6"/>
<feComposite in2="hardAlpha" operator="out"/>
<feColorMatrix type="matrix" values="0 0 0 0 0 0 0 0 0 0 0 0 0 0 0 0 0 0 0.05 0"/>
<feBlend mode="normal" in2="effect1_dropShadow_1715_6107" result="effect2_dropShadow_1715_6107"/>
<feBlend mode="normal" in="SourceGraphic" in2="effect2_dropShadow_1715_6107" result="shape"/>
</filter>
</defs>
</svg>
