<svg width="182" height="28" viewBox="0 0 182 28" fill="none" xmlns="http://www.w3.org/2000/svg">
<path d="M170.507 27.568C169.355 27.568 168.395 27.344 167.627 26.896C166.859 26.448 166.475 25.7866 166.475 24.912C166.475 24.208 166.805 23.6533 167.467 23.248C168.128 22.8426 168.907 22.6613 169.803 22.704C170.741 22.7466 171.467 22.704 171.979 22.576C172.512 22.448 172.917 22.2133 173.195 21.872C171.232 21.872 169.664 21.5946 168.491 21.04C167.317 20.464 166.464 19.5786 165.931 18.384C165.419 17.168 165.163 15.568 165.163 13.584C165.163 11.8773 165.419 10.5013 165.931 9.45596C166.464 8.38929 167.296 7.85596 168.427 7.85596C169.429 7.85596 170.165 8.14396 170.635 8.71996C171.125 9.27462 171.371 9.99996 171.371 10.896L171.339 12.304C171.317 12.5813 171.307 12.9866 171.307 13.52C171.307 14.544 171.435 15.3226 171.691 15.856C171.947 16.368 172.459 16.624 173.227 16.624C173.995 16.624 174.507 16.368 174.763 15.856C175.019 15.3226 175.147 14.5546 175.147 13.552C175.147 13.0186 175.136 12.6133 175.115 12.336L175.083 10.96C175.083 9.99996 175.317 9.24262 175.787 8.68796C176.277 8.13329 177.024 7.85596 178.027 7.85596C179.157 7.85596 179.989 8.38929 180.523 9.45596C181.056 10.5226 181.323 11.8986 181.323 13.584C181.323 16.1013 180.96 18.416 180.235 20.528C179.531 22.6186 178.368 24.3146 176.747 25.616C175.147 26.9173 173.067 27.568 170.507 27.568Z" fill="#8573C9"/>
<path d="M153.789 22.8317C152.424 22.8317 151.506 22.0317 151.037 20.4317C150.589 18.8317 150.365 16.6237 150.365 13.8077C150.365 12.5277 150.418 11.461 150.525 10.6077C150.653 9.73301 150.941 8.99701 151.389 8.39968C151.858 7.78101 152.573 7.47168 153.533 7.47168C154.13 7.47168 154.653 7.61035 155.101 7.88768C155.57 8.16501 155.869 8.55968 155.997 9.07168C156.466 8.64501 157.074 8.32501 157.821 8.11168C158.568 7.89835 159.368 7.79168 160.221 7.79168C160.904 7.79168 161.597 7.96235 162.301 8.30368C163.026 8.64501 163.624 9.11435 164.093 9.71168C164.584 10.2877 164.829 10.917 164.829 11.5997C164.829 12.2823 164.584 12.8903 164.093 13.4237C163.624 13.9357 162.994 14.1917 162.205 14.1917C161.949 14.1917 161.704 14.1597 161.469 14.0957C161.256 14.0317 161.064 13.9677 160.893 13.9037C160.466 13.733 160.125 13.6477 159.869 13.6477C159.037 13.6477 158.301 13.9783 157.661 14.6397C157.042 15.2797 156.733 16.1117 156.733 17.1357C156.733 18.2663 156.69 19.205 156.605 19.9517C156.52 20.6983 156.264 21.3703 155.837 21.9677C155.41 22.5437 154.728 22.8317 153.789 22.8317Z" fill="#8573C9"/>
<path d="M138.991 22.8317C137.626 22.8317 136.709 22.0317 136.239 20.4317C135.791 18.8317 135.567 16.6237 135.567 13.8077C135.567 12.5277 135.621 11.461 135.727 10.6077C135.855 9.73301 136.143 8.99701 136.591 8.39968C137.061 7.78101 137.775 7.47168 138.735 7.47168C139.333 7.47168 139.855 7.61035 140.303 7.88768C140.773 8.16501 141.071 8.55968 141.199 9.07168C141.669 8.64501 142.277 8.32501 143.023 8.11168C143.77 7.89835 144.57 7.79168 145.423 7.79168C146.106 7.79168 146.799 7.96235 147.503 8.30368C148.229 8.64501 148.826 9.11435 149.295 9.71168C149.786 10.2877 150.031 10.917 150.031 11.5997C150.031 12.2823 149.786 12.8903 149.295 13.4237C148.826 13.9357 148.197 14.1917 147.407 14.1917C147.151 14.1917 146.906 14.1597 146.671 14.0957C146.458 14.0317 146.266 13.9677 146.095 13.9037C145.669 13.733 145.327 13.6477 145.071 13.6477C144.239 13.6477 143.503 13.9783 142.863 14.6397C142.245 15.2797 141.935 16.1117 141.935 17.1357C141.935 18.2663 141.893 19.205 141.807 19.9517C141.722 20.6983 141.466 21.3703 141.039 21.9677C140.613 22.5437 139.93 22.8317 138.991 22.8317Z" fill="#8573C9"/>
<path d="M126.895 22.8638C125.359 22.8851 123.983 22.5651 122.767 21.9038C121.572 21.2424 120.634 20.3358 119.951 19.1838C119.29 18.0104 118.938 16.7091 118.895 15.2798C118.874 13.8504 119.204 12.5704 119.887 11.4398C120.57 10.3091 121.519 9.4131 122.735 8.75177C123.972 8.09043 125.359 7.75977 126.895 7.75977C128.388 7.75977 129.732 8.07977 130.927 8.71977C132.143 9.35977 133.103 10.2558 133.807 11.4078C134.511 12.5598 134.884 13.8504 134.927 15.2798C134.948 16.6664 134.618 17.9358 133.935 19.0878C133.252 20.2184 132.292 21.1251 131.055 21.8078C129.839 22.4904 128.452 22.8424 126.895 22.8638ZM126.991 18.1918C127.567 18.1918 128.068 17.9678 128.495 17.5198C128.922 17.0718 129.135 16.5491 129.135 15.9518C129.135 15.3544 128.922 14.8424 128.495 14.4158C128.068 13.9678 127.567 13.7438 126.991 13.7438C126.415 13.7438 125.914 13.9678 125.487 14.4158C125.06 14.8424 124.847 15.3544 124.847 15.9518C124.847 16.5491 125.06 17.0718 125.487 17.5198C125.914 17.9678 126.415 18.1918 126.991 18.1918Z" fill="#8573C9"/>
<path d="M99.9824 22.8324C98.2757 22.8324 96.7824 22.363 95.5024 21.4244C94.2437 20.4857 93.2731 19.1524 92.5904 17.4244C91.9077 15.6964 91.5664 13.659 91.5664 11.3124C91.5664 9.94702 91.7904 8.48568 92.2384 6.92835C92.7077 5.37102 93.3691 4.05902 94.2224 2.99235C95.0971 1.90435 96.1104 1.36035 97.2624 1.36035C98.2011 1.36035 98.9797 1.70168 99.5984 2.38435C100.217 3.06702 100.526 3.90968 100.526 4.91235C100.526 5.21102 100.452 5.61635 100.302 6.12835C100.174 6.61902 100.025 7.13102 99.8544 7.66435C99.5344 8.58168 99.2891 9.39235 99.1184 10.0964C98.9477 10.779 98.8624 11.4404 98.8624 12.0804C98.8624 13.019 99.0011 13.7017 99.2784 14.1284C99.5557 14.555 99.8971 14.7684 100.302 14.7684C100.836 14.7684 101.209 14.5017 101.422 13.9684C101.657 13.4137 101.774 12.4004 101.774 10.9284L101.742 8.72035C101.742 7.01368 101.966 5.65902 102.414 4.65635C102.862 3.63235 103.758 3.12035 105.102 3.12035C106.105 3.12035 106.862 3.39768 107.374 3.95235C107.886 4.50702 108.217 5.21102 108.366 6.06435C108.516 6.89635 108.59 7.90968 108.59 9.10435V10.7364C108.59 12.2937 108.718 13.403 108.974 14.0644C109.252 14.7044 109.689 15.0244 110.286 15.0244C110.692 15.0244 111.001 14.8217 111.214 14.4164C111.449 13.9897 111.566 13.3604 111.566 12.5284C111.566 11.9097 111.492 11.291 111.342 10.6724C111.193 10.0537 110.958 9.26435 110.638 8.30435C110.361 7.38702 110.158 6.70435 110.03 6.25635C109.924 5.78702 109.87 5.33902 109.87 4.91235C109.87 3.90968 110.19 3.07768 110.83 2.41635C111.492 1.75502 112.26 1.42435 113.134 1.42435C114.393 1.42435 115.449 1.95768 116.302 3.02435C117.177 4.06968 117.828 5.36035 118.254 6.89635C118.681 8.43235 118.894 9.90435 118.894 11.3124C118.894 13.659 118.553 15.6964 117.87 17.4244C117.188 19.1524 116.206 20.4857 114.926 21.4244C113.668 22.3417 112.185 22.8004 110.478 22.8004C109.54 22.8004 108.622 22.587 107.726 22.1604C106.83 21.7337 105.998 21.0937 105.23 20.2404C104.462 21.0937 103.62 21.7444 102.702 22.1924C101.806 22.619 100.9 22.8324 99.9824 22.8324Z" fill="#8573C9"/>
<path d="M81.6499 8.97613C81.6499 10.0855 81.1272 10.8428 80.0819 11.2481C79.0366 11.6321 77.6072 11.8348 75.7939 11.8561C75.7726 12.3895 75.7619 13.2535 75.7619 14.4481C75.7619 15.6641 75.8472 16.5281 76.0179 17.0401C76.1246 17.4028 76.2846 17.6375 76.4979 17.7441C76.7326 17.8508 77.0739 17.9255 77.5219 17.9681C77.6712 17.9895 77.8312 18.0215 78.0019 18.0641C78.1939 18.0855 78.4072 18.1175 78.6419 18.1601C79.1326 18.2668 79.5166 18.5335 79.7939 18.9601C80.0712 19.3655 80.2099 19.8881 80.2099 20.5281C80.2099 21.2535 79.8366 21.8188 79.0899 22.2241C78.3432 22.6295 77.3192 22.8321 76.0179 22.8321C74.8232 22.8321 73.6819 22.4908 72.5939 21.8081C71.5059 21.1041 70.7592 20.1655 70.3539 18.9921C69.9272 17.7335 69.7139 15.3548 69.7139 11.8561C68.2206 11.8135 67.0152 11.6215 66.0979 11.2801C65.2019 10.9175 64.7539 10.2775 64.7539 9.36013C64.7539 8.20813 65.1806 7.44013 66.0339 7.05613C66.8872 6.6508 68.1139 6.43746 69.7139 6.41613C69.7779 4.70946 70.0446 3.2908 70.5139 2.16013C70.9832 1.00813 71.8259 0.432129 73.0419 0.432129C74.2792 0.432129 75.0792 0.965462 75.4419 2.03213C75.8259 3.0988 75.9966 4.56013 75.9539 6.41613C77.8952 6.3948 79.3246 6.54413 80.2419 6.86413C81.1806 7.18413 81.6499 7.88813 81.6499 8.97613Z" fill="#ADA2D7"/>
<path d="M62.659 4.46413C62.659 5.5308 62.4136 6.50146 61.923 7.37613C61.4536 8.22946 60.8776 8.90146 60.195 9.39213C59.5336 9.8828 58.9363 10.1281 58.403 10.1281C57.955 10.1281 57.5923 10.0001 57.315 9.74413C57.059 9.48813 56.931 9.16813 56.931 8.78413C56.931 8.5068 56.995 8.27213 57.123 8.08013C57.251 7.88813 57.443 7.6428 57.699 7.34413C57.8696 7.17346 58.0296 6.98146 58.179 6.76813C58.3283 6.5548 58.435 6.34146 58.499 6.12813C57.795 5.93613 57.2616 5.60546 56.899 5.13613C56.5363 4.64546 56.355 4.0908 56.355 3.47213C56.355 2.6828 56.6323 1.9788 57.187 1.36013C57.763 0.741463 58.4776 0.432129 59.331 0.432129C60.3336 0.432129 61.1336 0.773462 61.731 1.45613C62.3496 2.11746 62.659 3.12013 62.659 4.46413Z" fill="#ADA2D7"/>
<path d="M49.9537 22.832C49.1857 22.832 48.6097 22.6187 48.2257 22.192C47.8631 21.7654 47.6391 21.2427 47.5537 20.624C47.4684 20.0054 47.4257 19.2054 47.4257 18.224C47.4257 16.9654 47.2551 15.9947 46.9137 15.312C46.5724 14.6294 46.0177 14.288 45.2497 14.288C44.5457 14.288 44.0124 14.6294 43.6497 15.312C43.3084 15.9734 43.1377 16.8907 43.1377 18.064C43.1377 19.1947 43.1057 20.048 43.0417 20.624C42.9777 21.2 42.7644 21.712 42.4017 22.16C42.0391 22.5867 41.4417 22.8 40.6097 22.8C39.3937 22.8 38.5404 22.0214 38.0497 20.464C37.5591 18.8854 37.3137 17.04 37.3137 14.928C37.3137 9.80805 38.3911 7.24805 40.5457 7.24805C41.1431 7.24805 41.6337 7.39738 42.0177 7.69605C42.4017 7.97338 42.6684 8.37871 42.8177 8.91205C43.0951 8.61338 43.5217 8.34671 44.0977 8.11205C44.6951 7.87738 45.3244 7.76005 45.9857 7.76005C48.3324 7.76005 50.0817 8.61338 51.2337 10.32C52.4071 12.0267 52.9937 14.3414 52.9937 17.264C52.9937 18.992 52.7697 20.3574 52.3217 21.36C51.8737 22.3414 51.0844 22.832 49.9537 22.832Z" fill="#ADA2D7"/>
<path d="M28.9539 22.8638C27.4179 22.8851 26.0419 22.5651 24.8259 21.9038C23.6312 21.2424 22.6925 20.3358 22.0099 19.1838C21.3485 18.0104 20.9965 16.7091 20.9539 15.2798C20.9325 13.8504 21.2632 12.5704 21.9459 11.4398C22.6285 10.3091 23.5779 9.4131 24.7939 8.75177C26.0312 8.09043 27.4179 7.75977 28.9539 7.75977C30.4472 7.75977 31.7912 8.07977 32.9859 8.71977C34.2019 9.35977 35.1619 10.2558 35.8659 11.4078C36.5699 12.5598 36.9432 13.8504 36.9859 15.2798C37.0072 16.6664 36.6765 17.9358 35.9939 19.0878C35.3112 20.2184 34.3512 21.1251 33.1139 21.8078C31.8979 22.4904 30.5112 22.8424 28.9539 22.8638ZM29.0499 18.1918C29.6259 18.1918 30.1272 17.9678 30.5539 17.5198C30.9805 17.0718 31.1939 16.5491 31.1939 15.9518C31.1939 15.3544 30.9805 14.8424 30.5539 14.4158C30.1272 13.9678 29.6259 13.7438 29.0499 13.7438C28.4739 13.7438 27.9725 13.9678 27.5459 14.4158C27.1192 14.8424 26.9059 15.3544 26.9059 15.9518C26.9059 16.5491 27.1192 17.0718 27.5459 17.5198C27.9725 17.9678 28.4739 18.1918 29.0499 18.1918Z" fill="#ADA2D7"/>
<path d="M8.992 22.8321C6.24 22.8321 4.23467 22.5015 2.976 21.8401C1.71733 21.1788 0.906667 20.1228 0.544 18.6721C0.181333 17.2215 0 14.9601 0 11.8881C0 8.77346 0.170667 6.4588 0.512 4.94413C0.874667 3.40813 1.67467 2.27746 2.912 1.55213C4.17067 0.805463 6.16533 0.432129 8.896 0.432129C10.5387 0.432129 12.2133 0.816129 13.92 1.58413C15.6267 2.3308 17.0667 3.56813 18.24 5.29613C19.4133 7.02413 20 9.23213 20 11.9201C20 14.5015 19.4027 16.6135 18.208 18.2561C17.0133 19.8775 15.5733 21.0508 13.888 21.7761C12.2027 22.4801 10.5707 22.8321 8.992 22.8321ZM7.008 17.2001C7.69067 17.2855 8.18133 17.3281 8.48 17.3281C9.99467 17.3281 11.168 16.9228 12 16.1121C12.832 15.3015 13.248 14.1815 13.248 12.7521C13.248 11.4721 12.8427 10.4801 12.032 9.77613C11.2213 9.0508 10.08 8.68813 8.608 8.68813C8.05333 8.68813 7.52 8.7308 7.008 8.81613V17.2001Z" fill="#ADA2D7"/>
</svg>
