<svg width="218" height="28" viewBox="0 0 218 28" fill="none" xmlns="http://www.w3.org/2000/svg">
<g clip-path="url(#clip0_1302_9531)">
<path d="M14.0001 27.9251C19.3988 27.9251 23.7753 26.9065 23.7753 25.6499C23.7753 24.3934 19.3988 23.3748 14.0001 23.3748C8.60138 23.3748 4.22485 24.3934 4.22485 25.6499C4.22485 26.9065 8.60138 27.9251 14.0001 27.9251Z" fill="#5843A8"/>
<path d="M14 26.1639C21.2771 26.1639 27.1764 20.3069 27.1764 13.082C27.1764 5.857 21.2771 0 14 0C6.72279 0 0.823486 5.857 0.823486 13.082C0.823486 20.3069 6.72279 26.1639 14 26.1639Z" fill="url(#paint0_radial_1302_9531)"/>
<path d="M14 17.1367C19.7026 17.1367 24.3254 12.5127 24.3254 6.80882C24.3254 1.1049 19.7026 -3.51904 14 -3.51904C8.29741 -3.51904 3.67456 1.1049 3.67456 6.80882C3.67456 12.5127 8.29741 17.1367 14 17.1367Z" fill="url(#paint1_radial_1302_9531)"/>
<path d="M14 15.5715C16.1278 15.5715 17.8528 14.7152 17.8528 13.6589C17.8528 12.6026 16.1278 11.7463 14 11.7463C11.8722 11.7463 10.1472 12.6026 10.1472 13.6589C10.1472 14.7152 11.8722 15.5715 14 15.5715Z" fill="url(#paint2_radial_1302_9531)"/>
<path d="M9.50912 22.6021C9.44131 22.6021 9.37196 22.5837 9.30878 22.547C7.424 21.4086 6.70276 19.2497 6.67348 19.1579C6.60876 18.9575 6.71972 18.7417 6.9216 18.6759C7.12349 18.6117 7.34078 18.7203 7.40705 18.9223C7.41321 18.9422 8.07435 20.9052 9.70947 21.8936C9.89132 22.0038 9.94834 22.2379 9.83892 22.4184C9.76649 22.5363 9.64012 22.6021 9.50912 22.6021Z" fill="#30216B"/>
<path d="M9.17157 22.7842C9.49674 22.9541 9.90051 22.8317 10.0716 22.5073C10.2426 22.1845 10.1194 21.7836 9.79264 21.6138C9.46746 21.4439 9.06369 21.5663 8.89263 21.8907C8.72157 22.2135 8.84486 22.6144 9.17157 22.7842Z" fill="#30216B"/>
<path d="M18.4907 22.6021C18.3613 22.6021 18.2334 22.5363 18.1609 22.4185C18.05 22.2379 18.1085 22.0023 18.2904 21.8937C19.9255 20.9053 20.5867 18.9422 20.5928 18.9223C20.6591 18.7219 20.8764 18.6117 21.0783 18.6775C21.2801 18.7433 21.3911 18.9575 21.3264 19.1579C21.2971 19.2497 20.5759 21.4086 18.6911 22.547C18.6279 22.5853 18.5601 22.6021 18.4907 22.6021Z" fill="#30216B"/>
<path d="M18.2057 21.6137C17.8805 21.7835 17.7557 22.1844 17.9268 22.5073C18.0978 22.8301 18.5016 22.954 18.8268 22.7842C19.1519 22.6144 19.2768 22.2135 19.1057 21.8906C18.9346 21.5678 18.5309 21.4439 18.2057 21.6137Z" fill="#30216B"/>
<path d="M11.0195 12.86C10.9733 12.2005 11.3694 11.841 11.9427 11.789C12.3618 11.7507 12.7903 11.9664 12.8226 12.5081C12.8612 13.1538 12.4651 13.5225 11.8933 13.5852C11.4572 13.6327 11.075 13.3787 11.0195 12.86Z" fill="#30216B"/>
<path d="M16.9805 12.86C17.0267 12.2005 16.6307 11.841 16.0574 11.789C15.6382 11.7507 15.2098 11.9664 15.1774 12.5081C15.1389 13.1538 15.5349 13.5225 16.1067 13.5852C16.5428 13.6327 16.925 13.3787 16.9805 12.86Z" fill="#30216B"/>
<path d="M11.374 10.7562C11.28 10.7562 11.1844 10.7501 11.0904 10.7394C9.44146 10.5512 8.53991 8.77023 8.50138 8.69372C8.40737 8.504 8.48597 8.27449 8.67707 8.18116C8.86816 8.08782 9.09779 8.16585 9.19334 8.35558C9.20721 8.38312 9.95619 9.84126 11.1829 9.9805C11.8841 10.0601 12.6377 9.69591 13.4252 8.89875C13.3913 8.85744 13.359 8.8146 13.3281 8.77176C12.2093 7.25394 12.7502 6.51799 13.0353 6.27165C13.5161 5.857 14.3298 5.89984 14.8138 6.36651C15.0403 6.58531 15.6906 7.41307 14.4994 8.85438C14.4901 8.86662 14.4793 8.87886 14.4701 8.8911C15.3424 9.66837 16.4504 9.90553 17.278 9.76629C17.7234 9.69132 18.514 9.43427 18.7883 8.54684C18.8515 8.34487 19.0672 8.23165 19.2691 8.29285C19.4725 8.35558 19.5866 8.56826 19.5234 8.77023C19.2337 9.70509 18.4616 10.3416 17.4044 10.5191C16.2085 10.7195 14.9124 10.3018 13.9554 9.45569C13.0923 10.3202 12.2278 10.7562 11.3755 10.7562H11.374ZM13.8444 6.74902C13.7273 6.74902 13.6179 6.78116 13.5393 6.84848C13.3497 7.01219 13.342 7.49416 13.9446 8.31427C14.4316 7.70531 14.5549 7.18509 14.2744 6.91427C14.1619 6.80564 13.997 6.74902 13.8429 6.74902H13.8444Z" fill="#30216B"/>
<path d="M14.0001 17.8664C13.023 17.8664 12.2278 17.0769 12.2278 16.1068V15.4183C12.2278 15.25 12.3665 15.1123 12.536 15.1123H15.4641C15.6336 15.1123 15.7723 15.25 15.7723 15.4183V16.1068C15.7723 17.0769 14.9771 17.8664 14.0001 17.8664ZM12.8442 15.7243V16.1068C12.8442 16.7403 13.362 17.2544 14.0001 17.2544C14.6381 17.2544 15.1559 16.7403 15.1559 16.1068V15.7243H12.8442Z" fill="#30216B"/>
<path d="M12.0737 12.6031C12.2099 12.6031 12.3203 12.4935 12.3203 12.3583C12.3203 12.2231 12.2099 12.1135 12.0737 12.1135C11.9375 12.1135 11.8271 12.2231 11.8271 12.3583C11.8271 12.4935 11.9375 12.6031 12.0737 12.6031Z" fill="#F3F0FF"/>
<path d="M15.9265 12.6031C16.0627 12.6031 16.1731 12.4935 16.1731 12.3583C16.1731 12.2231 16.0627 12.1135 15.9265 12.1135C15.7903 12.1135 15.6799 12.2231 15.6799 12.3583C15.6799 12.4935 15.7903 12.6031 15.9265 12.6031Z" fill="#F3F0FF"/>
</g>
<path d="M206.507 27.1358C205.355 27.1358 204.395 26.9118 203.627 26.4638C202.859 26.0158 202.475 25.3545 202.475 24.4798C202.475 23.7758 202.805 23.2212 203.467 22.8158C204.128 22.4105 204.907 22.2292 205.803 22.2718C206.741 22.3145 207.467 22.2718 207.979 22.1438C208.512 22.0158 208.917 21.7812 209.195 21.4398C207.232 21.4398 205.664 21.1625 204.491 20.6078C203.317 20.0318 202.464 19.1465 201.931 17.9518C201.419 16.7358 201.163 15.1358 201.163 13.1518C201.163 11.4452 201.419 10.0692 201.931 9.02383C202.464 7.95716 203.296 7.42383 204.427 7.42383C205.429 7.42383 206.165 7.71183 206.635 8.28783C207.125 8.84249 207.371 9.56783 207.371 10.4638L207.339 11.8718C207.317 12.1492 207.307 12.5545 207.307 13.0878C207.307 14.1118 207.435 14.8905 207.691 15.4238C207.947 15.9358 208.459 16.1918 209.227 16.1918C209.995 16.1918 210.507 15.9358 210.763 15.4238C211.019 14.8905 211.147 14.1225 211.147 13.1198C211.147 12.5865 211.136 12.1812 211.115 11.9038L211.083 10.5278C211.083 9.56783 211.317 8.8105 211.787 8.25583C212.277 7.70116 213.024 7.42383 214.027 7.42383C215.157 7.42383 215.989 7.95716 216.523 9.02383C217.056 10.0905 217.323 11.4665 217.323 13.1518C217.323 15.6692 216.96 17.9838 216.235 20.0958C215.531 22.1865 214.368 23.8825 212.747 25.1838C211.147 26.4852 209.067 27.1358 206.507 27.1358Z" fill="#8573C9"/>
<path d="M189.789 22.3998C188.424 22.3998 187.506 21.5998 187.037 19.9998C186.589 18.3998 186.365 16.1918 186.365 13.3758C186.365 12.0958 186.418 11.0291 186.525 10.1758C186.653 9.30113 186.941 8.56513 187.389 7.96779C187.858 7.34913 188.573 7.03979 189.533 7.03979C190.13 7.03979 190.653 7.17846 191.101 7.4558C191.57 7.73313 191.869 8.12779 191.997 8.6398C192.466 8.21313 193.074 7.89313 193.821 7.6798C194.568 7.46646 195.368 7.35979 196.221 7.35979C196.904 7.35979 197.597 7.53046 198.301 7.87179C199.026 8.21313 199.624 8.68246 200.093 9.27979C200.584 9.85579 200.829 10.4851 200.829 11.1678C200.829 11.8505 200.584 12.4585 200.093 12.9918C199.624 13.5038 198.994 13.7598 198.205 13.7598C197.949 13.7598 197.704 13.7278 197.469 13.6638C197.256 13.5998 197.064 13.5358 196.893 13.4718C196.466 13.3011 196.125 13.2158 195.869 13.2158C195.037 13.2158 194.301 13.5465 193.661 14.2078C193.042 14.8478 192.733 15.6798 192.733 16.7038C192.733 17.8345 192.69 18.7731 192.605 19.5198C192.52 20.2665 192.264 20.9385 191.837 21.5358C191.41 22.1118 190.728 22.3998 189.789 22.3998Z" fill="#8573C9"/>
<path d="M174.991 22.3998C173.626 22.3998 172.709 21.5998 172.239 19.9998C171.791 18.3998 171.567 16.1918 171.567 13.3758C171.567 12.0958 171.621 11.0291 171.727 10.1758C171.855 9.30113 172.143 8.56513 172.591 7.96779C173.061 7.34913 173.775 7.03979 174.735 7.03979C175.333 7.03979 175.855 7.17846 176.303 7.4558C176.773 7.73313 177.071 8.12779 177.199 8.6398C177.669 8.21313 178.277 7.89313 179.023 7.6798C179.77 7.46646 180.57 7.35979 181.423 7.35979C182.106 7.35979 182.799 7.53046 183.503 7.87179C184.229 8.21313 184.826 8.68246 185.295 9.27979C185.786 9.85579 186.031 10.4851 186.031 11.1678C186.031 11.8505 185.786 12.4585 185.295 12.9918C184.826 13.5038 184.197 13.7598 183.407 13.7598C183.151 13.7598 182.906 13.7278 182.671 13.6638C182.458 13.5998 182.266 13.5358 182.095 13.4718C181.669 13.3011 181.327 13.2158 181.071 13.2158C180.239 13.2158 179.503 13.5465 178.863 14.2078C178.245 14.8478 177.935 15.6798 177.935 16.7038C177.935 17.8345 177.893 18.7731 177.807 19.5198C177.722 20.2665 177.466 20.9385 177.039 21.5358C176.613 22.1118 175.93 22.3998 174.991 22.3998Z" fill="#8573C9"/>
<path d="M162.895 22.4319C161.359 22.4532 159.983 22.1332 158.767 21.4719C157.572 20.8105 156.634 19.9039 155.951 18.7519C155.29 17.5785 154.938 16.2772 154.895 14.8479C154.874 13.4185 155.204 12.1385 155.887 11.0079C156.57 9.87721 157.519 8.98121 158.735 8.31988C159.972 7.65855 161.359 7.32788 162.895 7.32788C164.388 7.32788 165.732 7.64788 166.927 8.28788C168.143 8.92788 169.103 9.82388 169.807 10.9759C170.511 12.1279 170.884 13.4185 170.927 14.8479C170.948 16.2345 170.618 17.5039 169.935 18.6559C169.252 19.7865 168.292 20.6932 167.055 21.3759C165.839 22.0585 164.452 22.4105 162.895 22.4319ZM162.991 17.7599C163.567 17.7599 164.068 17.5359 164.495 17.0879C164.922 16.6399 165.135 16.1172 165.135 15.5199C165.135 14.9225 164.922 14.4105 164.495 13.9839C164.068 13.5359 163.567 13.3119 162.991 13.3119C162.415 13.3119 161.914 13.5359 161.487 13.9839C161.06 14.4105 160.847 14.9225 160.847 15.5199C160.847 16.1172 161.06 16.6399 161.487 17.0879C161.914 17.5359 162.415 17.7599 162.991 17.7599Z" fill="#8573C9"/>
<path d="M135.982 22.4C134.276 22.4 132.782 21.9306 131.502 20.992C130.244 20.0533 129.273 18.72 128.59 16.992C127.908 15.264 127.566 13.2266 127.566 10.88C127.566 9.51464 127.79 8.05331 128.238 6.49598C128.708 4.93864 129.369 3.62664 130.222 2.55998C131.097 1.47198 132.11 0.927979 133.262 0.927979C134.201 0.927979 134.98 1.26931 135.598 1.95198C136.217 2.63464 136.526 3.47731 136.526 4.47998C136.526 4.77865 136.452 5.18398 136.302 5.69598C136.174 6.18665 136.025 6.69864 135.854 7.23198C135.534 8.14931 135.289 8.95998 135.118 9.66398C134.948 10.3466 134.862 11.008 134.862 11.648C134.862 12.5866 135.001 13.2693 135.278 13.696C135.556 14.1226 135.897 14.336 136.302 14.336C136.836 14.336 137.209 14.0693 137.422 13.536C137.657 12.9813 137.774 11.968 137.774 10.496L137.742 8.28798C137.742 6.58131 137.966 5.22664 138.414 4.22398C138.862 3.19998 139.758 2.68798 141.102 2.68798C142.105 2.68798 142.862 2.96531 143.374 3.51998C143.886 4.07464 144.217 4.77864 144.366 5.63198C144.516 6.46398 144.59 7.47731 144.59 8.67198V10.304C144.59 11.8613 144.718 12.9706 144.974 13.632C145.252 14.272 145.689 14.592 146.286 14.592C146.692 14.592 147.001 14.3893 147.214 13.984C147.449 13.5573 147.566 12.928 147.566 12.096C147.566 11.4773 147.492 10.8586 147.342 10.24C147.193 9.62131 146.958 8.83198 146.638 7.87198C146.361 6.95464 146.158 6.27198 146.03 5.82398C145.924 5.35464 145.87 4.90664 145.87 4.47998C145.87 3.47731 146.19 2.64531 146.83 1.98398C147.492 1.32264 148.26 0.991978 149.134 0.991978C150.393 0.991978 151.449 1.52531 152.302 2.59198C153.177 3.63731 153.828 4.92798 154.254 6.46398C154.681 7.99998 154.894 9.47198 154.894 10.88C154.894 13.2266 154.553 15.264 153.87 16.992C153.188 18.72 152.206 20.0533 150.926 20.992C149.668 21.9093 148.185 22.368 146.478 22.368C145.54 22.368 144.622 22.1546 143.726 21.728C142.83 21.3013 141.998 20.6613 141.23 19.808C140.462 20.6613 139.62 21.312 138.702 21.76C137.806 22.1866 136.9 22.4 135.982 22.4Z" fill="#8573C9"/>
<path d="M117.65 8.544C117.65 9.65333 117.127 10.4107 116.082 10.816C115.037 11.2 113.607 11.4027 111.794 11.424C111.773 11.9573 111.762 12.8213 111.762 14.016C111.762 15.232 111.847 16.096 112.018 16.608C112.125 16.9707 112.285 17.2053 112.498 17.312C112.733 17.4187 113.074 17.4933 113.522 17.536C113.671 17.5573 113.831 17.5893 114.002 17.632C114.194 17.6533 114.407 17.6853 114.642 17.728C115.133 17.8347 115.517 18.1013 115.794 18.528C116.071 18.9333 116.21 19.456 116.21 20.096C116.21 20.8213 115.837 21.3867 115.09 21.792C114.343 22.1973 113.319 22.4 112.018 22.4C110.823 22.4 109.682 22.0587 108.594 21.376C107.506 20.672 106.759 19.7333 106.354 18.56C105.927 17.3013 105.714 14.9227 105.714 11.424C104.221 11.3813 103.015 11.1893 102.098 10.848C101.202 10.4853 100.754 9.84533 100.754 8.928C100.754 7.776 101.181 7.008 102.034 6.624C102.887 6.21867 104.114 6.00533 105.714 5.984C105.778 4.27733 106.045 2.85867 106.514 1.728C106.983 0.576 107.826 0 109.042 0C110.279 0 111.079 0.533333 111.442 1.6C111.826 2.66667 111.997 4.128 111.954 5.984C113.895 5.96267 115.325 6.112 116.242 6.432C117.181 6.752 117.65 7.456 117.65 8.544Z" fill="#ADA2D7"/>
<path d="M98.659 4.032C98.659 5.09867 98.4136 6.06933 97.923 6.944C97.4536 7.79733 96.8776 8.46933 96.195 8.96C95.5336 9.45067 94.9363 9.696 94.403 9.696C93.955 9.696 93.5923 9.568 93.315 9.312C93.059 9.056 92.931 8.736 92.931 8.352C92.931 8.07467 92.995 7.84 93.123 7.648C93.251 7.456 93.443 7.21067 93.699 6.912C93.8696 6.74133 94.0296 6.54933 94.179 6.336C94.3283 6.12267 94.435 5.90933 94.499 5.696C93.795 5.504 93.2616 5.17333 92.899 4.704C92.5363 4.21333 92.355 3.65867 92.355 3.04C92.355 2.25067 92.6323 1.54667 93.187 0.928001C93.763 0.309334 94.4776 0 95.331 0C96.3336 0 97.1336 0.341333 97.731 1.024C98.3496 1.68533 98.659 2.688 98.659 4.032Z" fill="#ADA2D7"/>
<path d="M85.9537 22.3999C85.1857 22.3999 84.6097 22.1866 84.2257 21.7599C83.8631 21.3333 83.6391 20.8106 83.5537 20.1919C83.4684 19.5733 83.4257 18.7733 83.4257 17.7919C83.4257 16.5333 83.2551 15.5626 82.9137 14.8799C82.5724 14.1973 82.0177 13.8559 81.2497 13.8559C80.5457 13.8559 80.0124 14.1973 79.6497 14.8799C79.3084 15.5413 79.1377 16.4586 79.1377 17.6319C79.1377 18.7626 79.1057 19.6159 79.0417 20.1919C78.9777 20.7679 78.7644 21.2799 78.4017 21.7279C78.0391 22.1546 77.4417 22.3679 76.6097 22.3679C75.3937 22.3679 74.5404 21.5893 74.0497 20.0319C73.5591 18.4533 73.3137 16.6079 73.3137 14.4959C73.3137 9.37592 74.3911 6.81592 76.5457 6.81592C77.1431 6.81592 77.6337 6.96525 78.0177 7.26392C78.4017 7.54125 78.6684 7.94658 78.8177 8.47992C79.0951 8.18125 79.5217 7.91458 80.0977 7.67992C80.6951 7.44525 81.3244 7.32792 81.9857 7.32792C84.3324 7.32792 86.0817 8.18125 87.2337 9.88792C88.4071 11.5946 88.9937 13.9093 88.9937 16.8319C88.9937 18.5599 88.7697 19.9253 88.3217 20.9279C87.8737 21.9093 87.0844 22.3999 85.9537 22.3999Z" fill="#ADA2D7"/>
<path d="M64.9539 22.4319C63.4179 22.4532 62.0419 22.1332 60.8259 21.4719C59.6312 20.8105 58.6925 19.9039 58.0099 18.7519C57.3485 17.5785 56.9965 16.2772 56.9539 14.8479C56.9325 13.4185 57.2632 12.1385 57.9459 11.0079C58.6285 9.87721 59.5779 8.98121 60.7939 8.31988C62.0312 7.65855 63.4179 7.32788 64.9539 7.32788C66.4472 7.32788 67.7912 7.64788 68.9859 8.28788C70.2019 8.92788 71.1619 9.82388 71.8659 10.9759C72.5699 12.1279 72.9432 13.4185 72.9859 14.8479C73.0072 16.2345 72.6765 17.5039 71.9939 18.6559C71.3112 19.7865 70.3512 20.6932 69.1139 21.3759C67.8979 22.0585 66.5112 22.4105 64.9539 22.4319ZM65.0499 17.7599C65.6259 17.7599 66.1272 17.5359 66.5539 17.0879C66.9805 16.6399 67.1939 16.1172 67.1939 15.5199C67.1939 14.9225 66.9805 14.4105 66.5539 13.9839C66.1272 13.5359 65.6259 13.3119 65.0499 13.3119C64.4739 13.3119 63.9725 13.5359 63.5459 13.9839C63.1192 14.4105 62.9059 14.9225 62.9059 15.5199C62.9059 16.1172 63.1192 16.6399 63.5459 17.0879C63.9725 17.5359 64.4739 17.7599 65.0499 17.7599Z" fill="#ADA2D7"/>
<path d="M44.992 22.4C42.24 22.4 40.2347 22.0693 38.976 21.408C37.7173 20.7467 36.9067 19.6907 36.544 18.24C36.1813 16.7893 36 14.528 36 11.456C36 8.34133 36.1707 6.02667 36.512 4.512C36.8747 2.976 37.6747 1.84533 38.912 1.12C40.1707 0.373334 42.1653 0 44.896 0C46.5387 0 48.2133 0.384 49.92 1.152C51.6267 1.89867 53.0667 3.136 54.24 4.864C55.4133 6.592 56 8.8 56 11.488C56 14.0693 55.4027 16.1813 54.208 17.824C53.0133 19.4453 51.5733 20.6187 49.888 21.344C48.2027 22.048 46.5707 22.4 44.992 22.4ZM43.008 16.768C43.6907 16.8533 44.1813 16.896 44.48 16.896C45.9947 16.896 47.168 16.4907 48 15.68C48.832 14.8693 49.248 13.7493 49.248 12.32C49.248 11.04 48.8427 10.048 48.032 9.344C47.2213 8.61867 46.08 8.256 44.608 8.256C44.0533 8.256 43.52 8.29867 43.008 8.384V16.768Z" fill="#ADA2D7"/>
<defs>
<radialGradient id="paint0_radial_1302_9531" cx="0" cy="0" r="1" gradientUnits="userSpaceOnUse" gradientTransform="translate(14.1186 16.7426) scale(12.4337 11.2335)">
<stop stop-color="#ADA2D7"/>
<stop offset="0.37" stop-color="#B7ADDF"/>
<stop offset="1" stop-color="#D1CAF4"/>
</radialGradient>
<radialGradient id="paint1_radial_1302_9531" cx="0" cy="0" r="1" gradientUnits="userSpaceOnUse" gradientTransform="translate(14.0384 7.1529) scale(8.17213 8.11351)">
<stop stop-color="white" stop-opacity="0.6"/>
<stop offset="0.42" stop-color="white" stop-opacity="0.33"/>
<stop offset="0.81" stop-color="white" stop-opacity="0.09"/>
<stop offset="1" stop-color="white" stop-opacity="0"/>
</radialGradient>
<radialGradient id="paint2_radial_1302_9531" cx="0" cy="0" r="1" gradientUnits="userSpaceOnUse" gradientTransform="translate(14 13.6589) scale(3.04523 1.51169)">
<stop stop-color="white" stop-opacity="0.6"/>
<stop offset="0.09" stop-color="white" stop-opacity="0.51"/>
<stop offset="0.31" stop-color="white" stop-opacity="0.33"/>
<stop offset="0.51" stop-color="white" stop-opacity="0.19"/>
<stop offset="0.7" stop-color="white" stop-opacity="0.08"/>
<stop offset="0.87" stop-color="white" stop-opacity="0.02"/>
<stop offset="1" stop-color="white" stop-opacity="0"/>
</radialGradient>
<clipPath id="clip0_1302_9531">
<rect width="28" height="28" fill="white"/>
</clipPath>
</defs>
</svg>
