<svg width="768" height="621" viewBox="0 0 768 621" fill="none" xmlns="http://www.w3.org/2000/svg">
<rect width="768" height="621" fill="url(#paint0_linear_1948_11125)"/>
<g clip-path="url(#clip0_1948_11125)">
<path d="M383.552 463.071C431.021 463.071 469.503 424.127 469.503 376.088C469.503 328.048 431.021 289.104 383.552 289.104C336.082 289.104 297.6 328.048 297.6 376.088C297.6 424.127 336.082 463.071 383.552 463.071Z" fill="url(#paint1_radial_1948_11125)"/>
<path d="M383.552 406.479C422.352 406.479 453.806 374.808 453.806 335.74C453.806 296.671 422.352 265 383.552 265C344.751 265 313.297 296.671 313.297 335.74C313.297 374.808 344.751 406.479 383.552 406.479Z" fill="url(#paint2_radial_1948_11125)"/>
<path d="M363.272 355.421C362.958 350.904 365.653 348.441 369.553 348.085C372.406 347.823 375.321 349.301 375.541 353.011C375.803 357.433 373.108 359.959 369.218 360.389C366.25 360.713 363.65 358.974 363.272 355.421Z" fill="#241561"/>
<path d="M403.842 355.421C404.156 350.904 401.462 348.441 397.561 348.085C394.709 347.823 391.794 349.301 391.573 353.011C391.311 357.433 394.006 359.959 397.896 360.388C400.864 360.713 403.464 358.974 403.842 355.421Z" fill="#241561"/>
<path d="M365.684 341.011C365.044 341.011 364.394 340.969 363.754 340.896C352.535 339.607 346.4 327.408 346.138 326.884C345.499 325.584 346.033 324.013 347.334 323.373C348.634 322.734 350.196 323.268 350.846 324.557C350.941 324.746 356.037 334.734 364.384 335.687C369.155 336.232 374.282 333.738 379.64 328.278C379.41 327.995 379.189 327.701 378.98 327.408C371.367 317.012 375.048 311.971 376.987 310.284C380.259 307.444 385.795 307.737 389.088 310.934C390.629 312.432 395.054 318.102 386.949 327.974C386.886 328.058 386.813 328.142 386.75 328.225C392.685 333.549 400.224 335.163 405.855 334.22C408.885 333.706 414.264 331.946 416.131 325.867C416.561 324.484 418.018 323.709 419.402 324.128C420.786 324.557 421.562 326.014 421.132 327.398C419.161 333.801 413.908 338.16 406.715 339.376C398.578 340.749 389.759 337.888 383.247 332.093C377.375 338.014 371.493 341.001 365.694 341.001L365.684 341.011ZM382.492 313.564C381.696 313.564 380.951 313.784 380.416 314.245C379.127 315.367 379.074 318.668 383.174 324.285C386.488 320.114 387.326 316.551 385.418 314.696C384.653 313.952 383.531 313.564 382.482 313.564H382.492Z" fill="#241561"/>
<path d="M382.482 375.04C396.96 375.04 408.697 369.175 408.697 361.94C408.697 354.705 396.96 348.84 382.482 348.84C368.004 348.84 356.268 354.705 356.268 361.94C356.268 369.175 368.004 375.04 382.482 375.04Z" fill="url(#paint3_radial_1948_11125)"/>
<path d="M370.382 353.66C371.308 353.66 372.059 352.91 372.059 351.984C372.059 351.058 371.308 350.307 370.382 350.307C369.455 350.307 368.704 351.058 368.704 351.984C368.704 352.91 369.455 353.66 370.382 353.66Z" fill="#F3F0FF"/>
<path d="M396.596 353.661C397.523 353.661 398.274 352.91 398.274 351.984C398.274 351.058 397.523 350.307 396.596 350.307C395.67 350.307 394.918 351.058 394.918 351.984C394.918 352.91 395.67 353.661 396.596 353.661Z" fill="#F3F0FF"/>
<path d="M383.562 390.236C376.621 390.236 370.979 384.597 370.979 377.66V372.944C370.979 371.497 372.154 370.324 373.601 370.324H393.524C394.971 370.324 396.145 371.497 396.145 372.944V377.66C396.145 384.597 390.504 390.236 383.562 390.236ZM376.222 375.564V377.66C376.222 381.705 379.515 384.996 383.562 384.996C387.61 384.996 390.902 381.705 390.902 377.66V375.564H376.222Z" fill="#241561"/>
<path d="M384 450C596.077 450 768 441.046 768 430C768 418.954 596.077 410 384 410C171.923 410 0 418.954 0 430C0 441.046 171.923 450 384 450Z" fill="#8573C9"/>
<rect y="430" width="768" height="191" fill="#8573C9"/>
</g>
<defs>
<linearGradient id="paint0_linear_1948_11125" x1="384" y1="621" x2="384" y2="0" gradientUnits="userSpaceOnUse">
<stop stop-color="#E8E2FF"/>
<stop offset="0.87126" stop-color="#8775CA"/>
</linearGradient>
<radialGradient id="paint1_radial_1948_11125" cx="0" cy="0" r="1" gradientUnits="userSpaceOnUse" gradientTransform="translate(384.539 399.824) scale(81.2151 74.406)">
<stop stop-color="#ADA2D7"/>
<stop offset="0.37" stop-color="#B7ADDF"/>
<stop offset="1" stop-color="#D1CAF4"/>
</radialGradient>
<radialGradient id="paint2_radial_1948_11125" cx="0" cy="0" r="1" gradientUnits="userSpaceOnUse" gradientTransform="translate(383.855 337.532) scale(55.6034 55.5727)">
<stop stop-color="white" stop-opacity="0.6"/>
<stop offset="0.42" stop-color="white" stop-opacity="0.33"/>
<stop offset="0.81" stop-color="white" stop-opacity="0.09"/>
<stop offset="1" stop-color="white" stop-opacity="0"/>
</radialGradient>
<radialGradient id="paint3_radial_1948_11125" cx="0" cy="0" r="1" gradientUnits="userSpaceOnUse" gradientTransform="translate(382.482 361.94) scale(20.7198 10.3542)">
<stop stop-color="white" stop-opacity="0.6"/>
<stop offset="0.09" stop-color="white" stop-opacity="0.51"/>
<stop offset="0.31" stop-color="white" stop-opacity="0.33"/>
<stop offset="0.51" stop-color="white" stop-opacity="0.19"/>
<stop offset="0.7" stop-color="white" stop-opacity="0.08"/>
<stop offset="0.87" stop-color="white" stop-opacity="0.02"/>
<stop offset="1" stop-color="white" stop-opacity="0"/>
</radialGradient>
<clipPath id="clip0_1948_11125">
<rect width="768" height="347" fill="white" transform="translate(0 274)"/>
</clipPath>
</defs>
</svg>
