<svg width="375" height="347" viewBox="0 0 375 347" fill="none" xmlns="http://www.w3.org/2000/svg">
<path d="M187.552 189.071C235.022 189.071 273.503 150.127 273.503 102.088C273.503 54.0479 235.022 15.104 187.552 15.104C140.082 15.104 101.6 54.0479 101.6 102.088C101.6 150.127 140.082 189.071 187.552 189.071Z" fill="url(#paint0_radial_1491_4206)"/>
<path d="M187.552 132.479C226.352 132.479 257.806 100.808 257.806 61.7397C257.806 22.6713 226.352 -9 187.552 -9C148.751 -9 117.297 22.6713 117.297 61.7397C117.297 100.808 148.751 132.479 187.552 132.479Z" fill="url(#paint1_radial_1491_4206)"/>
<path d="M167.272 81.421C166.958 76.9042 169.653 74.4414 173.553 74.0851C176.405 73.8231 179.32 75.3007 179.541 79.0106C179.803 83.4332 177.108 85.9588 173.218 86.3885C170.25 86.7134 167.65 84.9737 167.272 81.421Z" fill="#241561"/>
<path d="M207.842 81.421C208.156 76.9042 205.461 74.4414 201.561 74.0851C198.708 73.8231 195.793 75.3007 195.573 79.0106C195.311 83.4332 198.006 85.9588 201.896 86.3885C204.864 86.7134 207.464 84.9737 207.842 81.421Z" fill="#241561"/>
<path d="M169.684 67.0109C169.044 67.0109 168.394 66.969 167.754 66.8956C156.535 65.6066 150.4 53.4079 150.138 52.8839C149.499 51.5844 150.033 50.0124 151.334 49.3731C152.634 48.7338 154.196 49.2683 154.846 50.5574C154.941 50.746 160.037 60.7334 168.384 61.6871C173.155 62.232 178.282 59.7378 183.64 54.2777C183.41 53.9948 183.189 53.7013 182.98 53.4079C175.367 43.0118 179.048 37.9709 180.987 36.2836C184.259 33.4436 189.795 33.737 193.088 36.9334C194.629 38.432 199.054 44.1017 190.949 53.9738C190.886 54.0577 190.813 54.1415 190.75 54.2253C196.685 59.5492 204.224 61.1631 209.855 60.2199C212.885 59.7064 218.264 57.9457 220.131 51.8674C220.561 50.484 222.018 49.7085 223.402 50.1277C224.786 50.5574 225.562 52.0141 225.132 53.3974C223.161 59.8007 217.908 64.1603 210.715 65.376C202.578 66.7489 193.759 63.8879 187.247 58.0924C181.375 64.0136 175.493 67.0004 169.694 67.0004L169.684 67.0109ZM186.492 39.5639C185.696 39.5639 184.951 39.784 184.416 40.2451C183.127 41.3664 183.074 44.6676 187.174 50.2849C190.488 46.1139 191.326 42.5507 189.418 40.6957C188.653 39.9516 187.531 39.5639 186.482 39.5639H186.492Z" fill="#241561"/>
<path d="M186.482 101.04C200.96 101.04 212.697 95.1747 212.697 87.9398C212.697 80.7049 200.96 74.8398 186.482 74.8398C172.005 74.8398 160.268 80.7049 160.268 87.9398C160.268 95.1747 172.005 101.04 186.482 101.04Z" fill="url(#paint2_radial_1491_4206)"/>
<path d="M174.382 79.6602C175.308 79.6602 176.059 78.9095 176.059 77.9834C176.059 77.0574 175.308 76.3066 174.382 76.3066C173.455 76.3066 172.704 77.0574 172.704 77.9834C172.704 78.9095 173.455 79.6602 174.382 79.6602Z" fill="#F3F0FF"/>
<path d="M200.596 79.6602C201.523 79.6602 202.274 78.9095 202.274 77.9834C202.274 77.0574 201.523 76.3066 200.596 76.3066C199.669 76.3066 198.918 77.0574 198.918 77.9834C198.918 78.9095 199.669 79.6602 200.596 79.6602Z" fill="#F3F0FF"/>
<path d="M187.562 116.236C180.621 116.236 174.979 110.597 174.979 103.66V98.9437C174.979 97.4975 176.154 96.3237 177.601 96.3237H197.524C198.971 96.3237 200.145 97.4975 200.145 98.9437V103.66C200.145 110.597 194.504 116.236 187.562 116.236ZM180.222 101.564V103.66C180.222 107.705 183.515 110.996 187.562 110.996C191.61 110.996 194.902 107.705 194.902 103.66V101.564H180.222Z" fill="#241561"/>
<path d="M187.5 176.125C305.965 176.125 402 167.171 402 156.125C402 145.079 305.965 136.125 187.5 136.125C69.0349 136.125 -27 145.079 -27 156.125C-27 167.171 69.0349 176.125 187.5 176.125Z" fill="#8573C9"/>
<rect y="156" width="375" height="191" fill="#8573C9"/>
<defs>
<radialGradient id="paint0_radial_1491_4206" cx="0" cy="0" r="1" gradientUnits="userSpaceOnUse" gradientTransform="translate(188.539 125.824) scale(81.2151 74.406)">
<stop stop-color="#ADA2D7"/>
<stop offset="0.37" stop-color="#B7ADDF"/>
<stop offset="1" stop-color="#D1CAF4"/>
</radialGradient>
<radialGradient id="paint1_radial_1491_4206" cx="0" cy="0" r="1" gradientUnits="userSpaceOnUse" gradientTransform="translate(187.855 63.532) scale(55.6034 55.5727)">
<stop stop-color="white" stop-opacity="0.6"/>
<stop offset="0.42" stop-color="white" stop-opacity="0.33"/>
<stop offset="0.81" stop-color="white" stop-opacity="0.09"/>
<stop offset="1" stop-color="white" stop-opacity="0"/>
</radialGradient>
<radialGradient id="paint2_radial_1491_4206" cx="0" cy="0" r="1" gradientUnits="userSpaceOnUse" gradientTransform="translate(186.482 87.9398) scale(20.7198 10.3542)">
<stop stop-color="white" stop-opacity="0.6"/>
<stop offset="0.09" stop-color="white" stop-opacity="0.51"/>
<stop offset="0.31" stop-color="white" stop-opacity="0.33"/>
<stop offset="0.51" stop-color="white" stop-opacity="0.19"/>
<stop offset="0.7" stop-color="white" stop-opacity="0.08"/>
<stop offset="0.87" stop-color="white" stop-opacity="0.02"/>
<stop offset="1" stop-color="white" stop-opacity="0"/>
</radialGradient>
</defs>
</svg>
