<svg width="253" height="160" viewBox="0 0 253 160" fill="none" xmlns="http://www.w3.org/2000/svg">
<g clip-path="url(#clip0_1253_7342)">
<path d="M185.189 70.5716C181.351 70.5716 178.129 70.5078 174.908 70.5876C164.772 70.8348 154.644 71.4169 144.5 71.5206C141.806 71.5445 139.12 72.2223 136.426 71.4966C126.907 68.9129 124.367 63.4266 125.122 55.2848C125.738 48.6422 129.171 43.4748 135.022 40.006C139.08 37.6057 143.47 36.9917 147.884 38.762C154.133 41.2659 158.483 38.9932 162.394 33.3713C166.752 27.1274 172.7 23.8101 179.89 22.4704C184.686 21.5772 189.198 23.2838 193.313 25.7159C202.442 31.1225 206.905 39.5674 209.145 49.4476C209.843 52.5336 209.786 55.6676 209.494 58.7297C208.999 64.0326 204.86 66.6642 200.657 69.0326C198.993 69.9735 197.11 70.3244 195.13 70.1569C191.6 69.8699 188.119 70.9783 185.197 70.5716H185.189Z" fill="#E7DDF2"/>
<path d="M183.672 48.6261C177.894 48.3948 172.441 46.6006 167.953 42.4459C166.435 41.0425 165.251 39.3838 165.072 37.2467C165.007 36.4652 165.316 35.7714 166.176 35.6438C166.776 35.5561 167.328 35.907 167.523 36.521C168.781 40.5002 171.986 42.4938 175.573 43.993C179.428 45.6038 183.428 46.2098 187.616 45.237C192.176 44.1843 195.869 42.2466 197.037 37.3184C197.273 36.3137 197.687 35.2132 199.082 35.7236C200.283 36.1622 200.267 37.2546 200.016 38.2993C199.139 41.8798 196.981 44.5033 193.718 46.2417C190.691 47.8525 187.397 48.4905 183.68 48.634L183.672 48.6261Z" fill="white"/>
<path d="M221.691 60.1332C221.618 61.5526 220.36 62.0311 219.037 62.3181C217.666 62.6212 215.905 62.5494 215.824 60.9705C215.564 55.7951 211.791 53.2035 208.334 50.3247C208.106 50.1413 207.863 49.9739 207.652 49.7745C207.1 49.2641 206.564 48.674 207.035 47.9165C207.636 46.9516 208.528 47.143 209.324 47.6613C212.034 49.4316 214.428 51.5448 216.44 54.0727C217.585 55.5081 218.21 57.4139 220.449 57.8206C221.35 57.9881 221.707 58.953 221.683 60.1332H221.691Z" fill="black"/>
<path d="M165.34 53.7378C166.703 53.993 167.49 54.91 168.424 55.5878C171.118 57.5575 173.106 60.4203 176.474 61.5606C177.553 61.9274 178.064 62.8445 177.788 64.0008C177.496 65.2288 176.717 66.0422 175.419 66.2735C174.315 66.4648 173.041 66.2655 172.749 65.2527C171.54 60.9944 167.726 59.0168 164.894 56.1859C164.358 55.6437 163.944 55.0057 164.35 54.28C164.52 53.977 165.064 53.8893 165.34 53.7458V53.7378Z" fill="black"/>
<path d="M143.51 41.0426C144.298 41.0107 144.776 41.3137 144.939 41.9197C145.247 43.092 144.022 44.8144 142.942 44.7347C142.261 44.6868 141.904 44.1605 141.863 43.5864C141.782 42.3264 142.293 41.3775 143.51 41.0426Z" fill="black"/>
<path d="M136.085 47.6454C135.485 47.6933 134.99 47.462 134.941 46.7762C134.9 46.1462 135.266 45.6518 135.923 45.6917C136.256 45.7077 136.71 46.0665 136.84 46.3855C137.1 46.9835 136.807 47.462 136.077 47.6534L136.085 47.6454Z" fill="black"/>
<path d="M138.771 41.9995C138.723 42.6375 138.398 43.1159 137.741 43.1239C137.083 43.1239 136.718 42.6454 136.726 42.0075C136.726 41.537 137.059 41.2021 137.522 41.1303C138.187 41.0267 138.617 41.3456 138.763 41.9995H138.771Z" fill="black"/>
</g>
<g clip-path="url(#clip1_1253_7342)">
<path d="M252.716 84.3193C252.891 78.1558 252.577 72.006 251.564 65.9394C250.202 57.7536 245.159 52.5111 237.378 49.7825C230.617 47.414 223.834 47.6425 217.395 50.6274C209.53 54.2701 205.262 60.8977 203.621 69.1458C202.231 76.1336 202.21 83.2044 202.685 90.3236C203.006 95.2199 203.67 100.026 204.564 104.846C206.261 114.015 211.765 119.223 220.971 120.297C227.578 121.065 234.137 120.297 240.325 117.707C244.321 116.031 246.709 112.762 248.56 108.953C251.941 101.972 252.835 94.5758 252.723 86.9648C252.709 86.0853 252.723 85.2058 252.723 84.3193H252.716Z" fill="#E6B2C6"/>
<path d="M239.075 93.613C238.509 93.6407 238.132 93.9593 237.902 94.4302C237.238 95.7807 236.63 97.1658 235.939 98.5093C234.975 100.365 234.5 102.533 232.279 103.572C231.462 103.953 231.161 104.922 231.601 105.871C232.146 107.041 233.145 107.512 234.381 107.415C235.31 107.346 236.351 106.924 236.33 105.954C236.239 102.346 238.467 99.5896 239.599 96.4386C239.809 95.8569 239.983 95.2336 240.011 94.6241C240.039 94.084 239.613 93.7515 239.075 93.62V93.613Z" fill="black"/>
<path d="M218.344 91.5286C218.275 93.994 219.63 95.8223 221.53 95.8292C223.366 95.8361 224.959 93.9317 225.015 91.6601C225.064 89.6102 223.332 87.6226 221.432 87.5465C219.734 87.4772 218.407 89.1878 218.344 91.5355V91.5286Z" fill="black"/>
<path d="M205.94 94.2365C206.449 97.7753 207.693 101.307 209.048 104.798C209.53 106.037 210.529 106.467 211.793 105.899C212.924 105.393 213.602 103.406 212.617 102.748C209.292 100.504 209.132 96.9374 208.189 93.6547C207.979 92.9345 207.616 92.1589 206.638 92.4636C205.926 92.6852 205.995 93.4331 205.94 94.2365Z" fill="black"/>
<path d="M244.97 85.4134C244.677 83.7721 244.377 81.9092 244.006 80.0601C243.874 79.4091 243.434 78.9521 242.672 79.0075C242.051 79.056 241.806 79.52 241.764 80.0255C241.618 81.8123 240.835 83.4189 240.416 85.1226C240.074 86.4938 239.955 87.9066 241.324 88.8969C242.106 89.4648 242.945 89.5479 243.804 89.0008C245.103 88.1836 245.019 86.9093 244.97 85.4204V85.4134Z" fill="white"/>
<path d="M227.753 128.337C230.051 128.392 230.568 127.714 229.534 125.719C228.954 124.611 229.283 123.842 229.653 122.921C230.072 121.883 230.498 120.844 230.812 119.77C230.875 119.542 230.512 119.119 230.246 118.891C229.918 118.6 229.45 118.725 229.22 118.995C227.348 121.252 226.181 123.919 225.532 126.696C225.196 128.136 226.796 128.254 227.746 128.337H227.753Z" fill="black"/>
<path d="M217.925 120.85C217.995 122.526 218.819 124.23 217.29 125.809C216.382 126.744 217.017 127.672 218.128 128.129C219.518 128.697 221.166 128.129 221.138 126.938C221.082 124.334 220.768 121.723 219.79 119.265C219.686 119.001 219.19 118.731 218.889 118.752C218.365 118.787 218.002 119.188 217.932 119.736C217.883 120.103 217.925 120.477 217.925 120.85Z" fill="black"/>
<path d="M212.868 75.1499C214.419 74.7275 216.256 74.8937 217.856 74.0488C218.421 73.751 218.847 73.2455 218.512 72.5183C218.282 72.0197 217.828 71.7634 217.29 71.8327C215.418 72.0751 213.546 72.3105 211.688 72.6499C210.864 72.8022 209.795 73.0308 210.109 74.2635C210.333 75.143 211.192 75.1846 211.96 75.2053C212.212 75.2053 212.463 75.1707 212.868 75.143V75.1499Z" fill="black"/>
<path d="M230.177 75.3925C230.707 75.3925 230.959 75.4133 231.21 75.3925C232.181 75.3094 233.536 75.5033 233.564 74.1598C233.592 72.7539 232.216 73.0309 231.259 72.9063C230.142 72.7678 229.031 72.5877 227.914 72.4423C227.25 72.3592 226.628 72.47 226.405 73.1971C226.181 73.9174 226.677 74.3537 227.187 74.7276C228.165 75.441 229.345 75.2886 230.177 75.3925Z" fill="black"/>
<path d="M225.364 81.9092C225.413 82.7887 225.839 83.3358 226.74 83.4051C227.467 83.4605 228.011 83.0449 228.088 82.3732C228.193 81.4729 227.557 81.0158 226.726 80.8911C225.972 80.7803 225.595 81.272 225.364 81.9092Z" fill="black"/>
<path d="M217.688 82.7611C218.282 82.7611 218.75 82.3525 218.785 81.6946C218.819 81.0229 218.358 80.5796 217.653 80.5381C216.927 80.4965 216.452 80.8982 216.438 81.5838C216.424 82.2348 216.815 82.7127 217.688 82.7681V82.7611Z" fill="black"/>
<path d="M220.971 91.8334C221.048 92.3043 221.18 92.8722 221.774 92.7267C222.284 92.6021 222.354 92.0065 222.319 91.5217C222.291 91.1547 222.102 90.7253 221.697 90.7738C221.138 90.8361 221.013 91.3417 220.978 91.8334H220.971Z" fill="#E6B2C6"/>
</g>
<g clip-path="url(#clip2_1253_7342)">
<path d="M64.9191 78.9077C66.7987 79.0833 68.8757 78.9077 70.8399 78.0067C71.5567 77.6781 72.2227 77.8311 72.9113 78.0974C74.4578 78.698 76.0438 78.9813 77.7145 78.936C80.9091 78.851 83.37 76.7262 83.7143 73.5021C83.8159 72.5331 84.2223 72.0288 85.0238 71.6322C88.0942 70.1023 90.1374 67.6715 90.8486 64.3057C91.2098 62.6059 92.5531 61.5519 93.1062 59.9881C93.5578 58.7245 93.7835 57.4666 93.5465 56.22C93.3433 55.1774 93.6537 54.4691 94.2238 53.7099C96.5887 50.5651 96.3912 46.3324 92.841 43.6409C92.3612 43.2783 91.8871 42.8817 91.7065 42.2244C90.9671 39.5442 89.0424 37.7934 86.9597 36.1558C85.7011 35.1699 84.6343 33.98 83.6014 32.7674C83.2628 32.3708 82.9523 31.9798 82.5008 31.7191C80.4407 30.5462 78.4201 29.3733 76.676 27.6678C75.4173 26.4382 73.5322 26.5969 71.8333 26.6875C70.7778 26.7442 69.9086 26.5005 69.0168 25.8206C66.1101 23.6051 63.1807 23.6164 60.2683 25.8432C59.4161 26.4949 58.6033 26.7782 57.5986 26.6762C54.6749 26.3872 52.2705 27.2938 50.4926 29.7133C50.3233 29.9456 50.0298 30.1723 49.7588 30.2346C47.5689 30.7162 46.1127 32.1951 44.7524 33.8383C43.7308 35.0679 42.4496 36.0198 41.2418 37.0511C38.256 39.5952 36.8449 43.3236 34.3728 46.2984C32.5102 48.5422 33.4923 51.2904 35.0331 53.6079C35.5693 54.4181 36.0378 55.1208 35.7725 56.254C35.3774 57.9595 35.7838 59.7104 36.7941 61.1043C37.7819 62.4699 38.3068 63.9601 38.826 65.5183C39.7065 68.1758 41.4845 70.1363 43.9397 71.4169C44.9895 71.9608 45.5483 72.5501 45.6386 73.8477C45.8136 76.4315 48.4437 78.7603 51.0288 78.9077C52.7333 79.004 54.4209 78.8963 56.007 78.222C57.0624 77.7744 58.0332 77.7461 59.1 78.205C59.9861 78.5847 60.9118 78.919 61.9164 78.902C62.8364 78.885 63.7621 78.902 64.9248 78.902L64.9191 78.9077Z" fill="#AFC1BB"/>
<path d="M39.7278 46.4077C39.6811 47.6087 40.0779 48.6814 40.6672 49.7075C41.0815 50.4305 41.6942 50.6695 42.4002 50.3255C43.2229 49.9232 42.867 49.2644 42.5519 48.7048C42.1026 47.9119 41.6883 47.0898 41.7233 46.1803C41.805 43.825 43.8064 42.3383 46.1112 42.9621C47.2957 43.2828 47.8792 43.0613 47.7217 41.7553C47.5642 40.4144 48.2702 39.7031 49.4138 39.2367C50.1199 38.9511 50.8901 38.5838 50.47 37.6335C50.0557 36.7065 49.2913 37.2429 48.6786 37.4236C47.9084 37.651 47.0332 38.0299 46.7181 38.6829C45.977 40.222 44.7225 40.6651 43.2171 41.114C40.9123 41.8078 39.7161 43.8483 39.7278 46.3961V46.4077Z" fill="white"/>
<path d="M88.1349 48.1627C88.2282 48.8798 87.9131 49.6144 87.6681 50.3665C87.493 50.897 87.6389 51.3459 88.094 51.5966C88.5725 51.859 89.0043 51.6374 89.3485 51.241C90.428 50.0167 90.288 46.1688 89.1035 44.6355C87.7031 42.8224 85.5791 42.3268 83.6011 43.3179C82.9709 43.6327 82.4807 44.0467 82.7608 44.7871C83.0584 45.5683 83.7586 45.4342 84.3888 45.2593C86.7695 44.5947 88.129 45.6091 88.129 48.1685L88.1349 48.1627Z" fill="white"/>
<path d="M56.9293 61.3444C58.6273 60.7323 60.3428 61.0821 61.9883 62.0032C62.1691 62.1024 62.3967 62.1898 62.5951 62.1781C65.3667 62.0266 68.1383 61.4261 70.9158 62.2598C71.225 62.353 71.6977 61.9916 72.0594 61.7759C72.4446 61.5485 72.6429 61.1521 72.5671 60.7031C72.4854 60.2309 72.1178 59.9452 71.6627 60.021C69.1828 60.4233 66.7438 58.4003 64.2172 59.9161C63.8496 60.1376 63.0677 60.0677 62.6943 59.817C60.4536 58.2953 57.9913 58.9891 55.5931 58.9541C54.7937 58.9425 53.9768 58.9075 53.9768 59.9277C53.9768 60.8081 54.7645 61.1112 55.5231 61.257C55.9374 61.3386 56.3692 61.3153 56.9293 61.3503V61.3444Z" fill="black"/>
<path d="M69.492 72.8645C71.6627 72.8004 73.5765 72.06 74.8544 70.1302C75.2687 69.5006 75.5663 68.6377 74.9186 68.0897C74.0492 67.3551 73.7224 68.3521 73.2556 68.8651C70.7174 71.6402 68.4709 71.5411 66.0027 68.6144C65.6059 68.1422 65.1158 67.6758 64.5673 67.4193C63.377 66.8596 62.4901 67.4717 61.9591 68.4978C61.4864 69.4131 61.5156 70.8124 62.5659 70.8823C64.7599 71.0339 66.3587 72.678 68.4826 72.8121C68.7977 72.8354 69.1186 72.8412 69.4979 72.8645H69.492Z" fill="black"/>
<path d="M53.7843 71.477C55.5698 71.4245 57.0927 70.346 58.9716 70.5092C60.1269 70.6083 60.6462 68.9817 60.0685 67.8041C59.4909 66.6206 58.2655 66.1658 57.1861 66.7663C56.9176 66.9121 56.7018 67.1628 56.48 67.3785C53.8659 69.9495 53.7551 69.9612 50.7734 67.9148C50.5167 67.7399 50.2949 67.5009 50.0324 67.3318C49.5772 67.0403 49.0754 66.8188 48.6261 67.291C48.1885 67.7516 48.346 68.2996 48.6786 68.7136C49.9973 70.3343 51.7245 71.2321 53.7843 71.4712V71.477Z" fill="black"/>
<path d="M65.9035 86.1104C67.1522 86.2503 68.2434 85.6381 68.646 84.0349C69.0603 82.3966 69.6904 80.805 69.7488 79.0968C69.7605 78.677 69.5096 78.2573 69.0428 78.1523C68.5701 78.0474 68.2259 78.3214 68.0683 78.747C67.8174 79.4408 67.5782 80.1404 67.4148 80.8575C67.123 82.1517 66.5104 82.8922 65.0283 82.8047C63.9138 82.7348 62.7176 83.102 62.8635 84.4896C63.021 85.9704 64.3573 86.0521 65.9035 86.1045V86.1104Z" fill="black"/>
<path d="M54.7178 79.7674C54.9512 80.9742 55.1963 82.5309 55.5756 84.0467C55.8265 85.0495 56.5967 85.6033 57.6353 85.7199C58.709 85.8365 59.8701 85.9006 60.3136 84.6763C60.7862 83.3762 59.8293 82.6533 58.7673 82.4026C57.5303 82.1111 57.0285 81.3823 56.8418 80.2513C56.7718 79.8374 56.6959 79.4234 56.5792 79.0212C56.4275 78.5023 56.1416 77.9718 55.5522 78.0009C54.6712 78.0417 54.7587 78.7938 54.712 79.7616L54.7178 79.7674Z" fill="black"/>
<path d="M67.5257 49.0487C67.7416 49.4277 67.8991 49.8241 68.1558 50.1331C69.4395 51.7072 71.015 52.8849 72.9872 53.4562C73.524 53.6137 74.0492 53.532 74.3468 53.0073C74.6502 52.4651 74.4693 51.9171 73.95 51.6839C72.1061 50.856 70.589 49.6084 69.1303 48.25C68.8035 47.9468 68.3309 47.941 67.9808 48.2208C67.7707 48.3958 67.689 48.7281 67.5198 49.0429L67.5257 49.0487Z" fill="black"/>
<path d="M58.2714 48.7688C58.073 48.8329 57.7987 48.8329 57.6937 48.967C56.4742 50.5062 54.6653 51.165 53.049 52.1094C52.6989 52.3135 52.448 52.6866 52.5589 53.1705C52.6756 53.6777 53.1016 53.7885 53.5042 53.8176C55.0796 53.9401 58.3239 51.9578 58.9365 50.512C59.2633 49.7366 59.205 49.0778 58.2655 48.7688H58.2714Z" fill="black"/>
<path d="M66.1019 56.4995C66.7321 56.517 67.2047 56.2255 67.2397 55.6366C67.2981 54.6106 66.5979 54.1267 65.6876 53.9809C65.2267 53.9051 64.8474 54.2141 64.789 54.6805C64.6607 55.6716 65.1391 56.2838 66.1019 56.4995Z" fill="black"/>
<path d="M59.8877 54.978C59.7593 55.9283 60.1327 56.3772 61.1247 56.2023C61.609 55.6193 61.6615 55.0538 61.0605 54.5058C60.8971 54.4241 60.7279 54.4066 60.547 54.4475C60.2961 54.5874 60.0802 54.7623 59.8877 54.978Z" fill="black"/>
<path d="M61.0605 54.5056C61.0838 55.0711 61.1013 55.6366 61.1247 56.2022C61.9182 55.6075 61.9007 55.042 61.0605 54.5056Z" fill="black"/>
<path d="M59.8877 54.9778C60.1094 54.8029 60.3253 54.628 60.547 54.4473C60.1911 54.4473 59.9752 54.6338 59.8877 54.9778Z" fill="black"/>
</g>
<g clip-path="url(#clip3_1253_7342)">
<path d="M42.9967 140.215C30.7761 140.64 19.4893 133.164 15.4685 121.733C13.284 115.517 13.6718 109.309 15.3023 103.023C16.8695 96.9803 20.6924 92.4111 24.6499 87.8734C28.457 83.509 32.549 79.3652 35.343 74.213C37.4009 70.4079 38.9126 66.4217 39.2134 62.0652C39.3875 59.5994 40.4244 59.0479 42.5139 60.3163C43.6141 60.9859 44.7064 61.6792 45.8066 62.3567C50.6822 65.3345 52.0989 70.1637 53.0804 75.3553C53.8402 79.3809 52.2889 82.9497 51.3866 86.6365C50.9671 88.3382 50.6188 89.9374 52.0356 91.1821C53.1675 92.1826 54.6871 93.0256 56.1831 92.2614C57.8294 91.4185 58.7871 89.8271 59.0166 87.9522C59.1195 87.1092 59.0483 86.2348 59.0166 85.3761C58.9612 83.7296 59.9031 83.6193 61.1299 84.0447C61.9135 84.3125 62.4042 84.9428 62.8079 85.6439C65.1824 89.7247 67.8339 93.7188 69.0844 98.2959C72.0763 109.231 71.5618 119.858 64.9766 129.508C59.7606 137.158 52.1702 140.419 42.9809 140.199L42.9967 140.215Z" fill="#E3BFA2"/>
<path d="M11.1391 91.9936C11.2499 88.2752 13.0386 85.4155 14.8591 82.5873C16.6083 79.8772 18.215 77.1121 19.2202 74.0239C19.5052 73.1652 19.6951 71.9441 21.0248 71.8969C22.3308 71.8496 22.5999 73.0392 23.0827 73.8349C25.3939 77.6242 24.6024 82.863 21.1119 86.668C18.5633 89.4411 16.4816 92.482 15.0886 95.9719C14.8353 96.61 14.5979 97.1615 13.8222 97.2324C12.9753 97.3033 12.4529 96.807 12.1284 96.1452C11.4557 94.7823 11.1865 93.317 11.1391 92.0014V91.9936Z" fill="#E3BFA2"/>
<path d="M71.1423 119.243C70.5724 117.644 69.2032 117.573 68.4512 116.762C68.0238 116.305 67.8339 115.746 68.1505 115.226C68.4592 114.721 69.0449 114.564 69.6543 114.721C71.0553 115.084 72.3217 115.738 73.4297 116.636C74.8782 117.817 75.171 119.338 73.8572 120.693C72.4562 122.142 71.1423 123.442 71.1898 125.703C71.2136 126.877 70.2559 127.799 68.9261 127.807C67.3036 127.815 66.338 126.783 65.7048 125.42C65.1428 124.222 65.4356 123.198 66.52 122.45C68.0238 121.41 69.8047 120.748 71.1582 119.236L71.1423 119.243Z" fill="black"/>
<path d="M16.2759 115.706C16.8695 115.777 17.384 115.99 17.5977 116.596C17.8114 117.195 17.6372 117.691 17.1307 118.077C15.9672 118.96 13.7114 119.275 14.3604 121.244C14.8749 122.812 16.9407 122.788 18.4208 123.206C19.6397 123.553 20.455 124.23 20.7636 125.443C21.1198 126.838 20.7082 128.051 19.426 128.713C18.1755 129.359 17.0357 128.673 16.6083 127.562C15.9909 125.94 14.8353 125.16 13.4027 124.403C11.6298 123.482 10.5296 122.024 11.1945 119.858C11.7406 118.062 14.6533 115.706 16.2759 115.706Z" fill="black"/>
<path d="M45.0784 116.368C47.4054 116.439 49.5503 117.156 51.4578 118.495C52.3997 119.157 53.2229 119.952 53.302 121.229C53.3416 121.835 53.1833 122.442 52.7005 122.741C52.1939 123.048 51.5766 122.883 51.1571 122.41C47.5241 118.345 43.5666 118.542 39.3796 121.496C38.691 121.985 37.8599 122.56 37.108 121.717C36.2215 120.732 36.8389 119.834 37.6146 119.149C39.7279 117.274 42.2211 116.368 45.0784 116.376V116.368Z" fill="black"/>
<path d="M60.3542 140.916C60.1801 142.854 59.0958 143.594 57.489 143.681C55.5815 143.783 53.8244 142.302 53.2387 140.136C53.0171 139.308 52.7955 138.355 53.579 137.764C54.5368 137.04 55.162 137.851 55.629 138.552C56.4443 139.781 57.7186 139.151 58.7713 139.403C59.729 139.631 60.2276 140.183 60.3622 140.923L60.3542 140.916Z" fill="black"/>
<path d="M31.3697 138.986C30.8473 140.601 31.5992 142.972 29.1535 143.901C28.2274 144.256 27.1431 144.524 26.4307 143.523C25.853 142.712 26.1537 141.861 26.9056 141.294C27.8634 140.569 28.4174 139.663 28.639 138.481C28.8131 137.552 28.8923 136.276 30.3486 136.677C31.2984 136.937 31.3776 137.922 31.3618 138.986H31.3697Z" fill="black"/>
<path d="M38.0024 102.511C38.0499 103.172 37.6858 103.582 37.1239 103.779C35.7229 104.267 31.8762 102.55 31.251 101.116C30.8156 100.116 31.4093 99.257 32.3432 99.3752C34.314 99.6194 36.0395 100.659 37.67 101.77C37.8599 101.904 37.8995 102.259 38.0103 102.503L38.0024 102.511Z" fill="black"/>
<path d="M48.8063 103.834C48.1811 103.755 47.7062 103.432 47.6033 102.81C47.4212 101.754 50.0411 98.0516 51.2046 97.7522C52.0119 97.5474 52.653 97.9413 52.8034 98.7527C53.0804 100.226 50.231 103.779 48.8063 103.826V103.834Z" fill="black"/>
<path d="M49.4237 110.436C49.3683 111.271 48.925 111.752 48.1098 111.752C47.2946 111.752 46.8038 111.208 46.6376 110.491C46.4397 109.664 46.9621 109.049 47.6982 108.971C48.648 108.868 49.2496 109.483 49.4237 110.436Z" fill="black"/>
<path d="M39.158 109.624C39.9732 109.703 40.456 110.215 40.4719 110.956C40.4877 111.775 39.902 112.161 39.0947 112.106C38.2953 112.059 37.765 111.578 37.7887 110.806C37.8124 110.034 38.3269 109.577 39.1659 109.624H39.158Z" fill="black"/>
</g>
<path d="M137.423 154.363C129.897 153.824 122.156 154.381 114.593 152.715C109.89 151.678 105.549 150.018 103.501 145.193C101.958 141.557 102.431 137.83 103.557 134.236C106.354 125.326 109.89 116.714 115.405 109.059C117.034 106.799 118.393 104.338 120.631 102.484C125.372 98.5441 130.512 98.235 135.923 100.677C140.141 102.581 143.129 105.865 145.78 109.581C148.768 113.763 152.082 117.744 154.117 122.484C156.644 128.375 159.485 134.223 159.098 140.89C159.012 142.424 159.012 143.987 158.673 145.472C157.979 148.515 156.072 150.587 153.103 151.799C148.11 153.836 142.871 154.29 137.423 154.363Z" fill="#ACBCE5"/>
<path d="M113.785 150.153C114.261 152.383 115.675 153.488 116.894 154.723C117.872 155.718 117.943 156.811 117.142 157.89C116.438 158.834 115.408 159.066 114.294 158.724C113.283 158.414 112.449 157.664 112.99 156.655C113.753 155.24 113.283 154.264 112.456 153.184C112.104 152.725 111.85 152.169 111.68 151.62C110.826 148.905 112.391 147.231 115.219 147.8C115.675 147.89 116.171 148.007 116.542 148.265C117.995 149.267 119.253 149.597 120.935 148.388C122.414 147.321 124.109 148.188 125.575 149.028C125.999 149.274 126.286 149.674 126.097 150.204C125.914 150.715 125.477 150.857 124.976 150.838C124.858 150.838 124.741 150.805 124.624 150.793C123.731 150.721 122.558 149.765 122.017 150.754C121.326 152.021 122.766 152.745 123.509 153.579C123.9 154.018 124.402 154.354 124.78 154.794C125.497 155.628 126.083 156.558 125.288 157.625C124.565 158.588 123.477 158.679 122.395 158.414C121.124 158.103 120.798 157.308 121.137 156.022C121.645 154.122 120.153 152.693 119.006 151.975C117.657 151.135 116.092 150.01 113.785 150.146V150.153Z" fill="black"/>
<path d="M118.699 134.322C117.67 134.361 117.109 134.122 117.057 133.437C117.011 132.784 117.507 132.403 118.132 132.267C119.618 131.937 121.111 131.614 122.603 131.317C125.849 130.67 129.14 130.638 132.431 130.703C133.292 130.722 134.647 130.476 134.569 131.814C134.504 132.939 133.253 132.965 132.308 132.952C128.541 132.9 124.793 133.075 121.091 133.831C120.172 134.019 119.253 134.206 118.699 134.322Z" fill="black"/>
<path d="M138.755 141.227C138.866 141.887 138.657 142.3 138.357 142.662C135.913 145.603 132.459 146.34 128.933 146.709C127.806 146.825 126.965 145.778 127.102 144.582C127.239 143.386 128.373 142.449 129.35 142.953C132.524 144.589 134.669 143.024 136.865 141.117C137.517 140.555 138.299 140.245 138.761 141.227H138.755Z" fill="black"/>
<path d="M112.99 144.18C112.834 145.337 112.13 146.197 110.755 146.294C108.285 146.468 104.746 142.719 104.941 140.179C104.987 139.597 105.091 138.97 105.802 138.815C106.525 138.653 106.864 139.125 107.033 139.733C107.164 140.179 107.183 140.676 107.392 141.084C108.024 142.325 108.702 143.075 110.429 142.415C112.149 141.756 113.107 142.564 112.99 144.186V144.18Z" fill="black"/>
<path d="M134.53 119.83C134.354 120.367 134.132 120.806 133.598 120.838C133.142 120.871 132.646 120.851 132.216 120.716C129.74 119.934 127.283 119.113 124.813 118.298C124.213 118.098 123.692 117.736 123.731 117.083C123.776 116.411 124.369 116.081 125.002 116.133C128.228 116.424 131.154 117.665 134.041 119.009C134.295 119.126 134.393 119.578 134.536 119.83H134.53Z" fill="black"/>
<path d="M119.221 117.645C119.175 118.162 118.927 118.595 118.432 118.692C116.21 119.106 114.079 119.707 112.11 120.897C111.374 121.343 110.598 120.851 110.722 119.979C110.97 118.317 112.488 117.897 113.798 117.406C115.454 116.786 117.148 116.146 118.914 117.063C119.077 117.148 119.116 117.451 119.214 117.645H119.221Z" fill="black"/>
<path d="M125.797 126.055C126.383 125.971 126.963 125.835 127.55 125.822C128.325 125.803 129.055 126.087 128.971 126.973C128.892 127.774 128.189 128.059 127.406 128.091C125.914 128.149 125.588 127.315 125.79 126.055H125.803H125.797Z" fill="white"/>
<path d="M125.784 126.068C125.438 126.036 125.086 126.029 124.747 125.958C123.985 125.796 123.444 125.383 123.613 124.536C123.731 123.948 124.148 123.463 124.8 123.482C125.79 123.515 126.246 124.103 126.116 125.079C126.07 125.415 125.901 125.732 125.79 126.055H125.777L125.784 126.068Z" fill="black"/>
<path d="M115.812 125.725C115.767 125.034 116.184 124.652 116.783 124.594C117.226 124.555 117.676 124.782 117.709 125.35C117.748 126.029 117.331 126.423 116.731 126.488C116.268 126.54 115.871 126.268 115.806 125.725H115.812Z" fill="black"/>
<defs>
<clipPath id="clip0_1253_7342">
<rect width="96.6909" height="95.7647" fill="white" transform="translate(125)"/>
</clipPath>
<clipPath id="clip1_1253_7342">
<rect width="50.9533" height="81.172" fill="white" transform="matrix(-1 0 0 1 253 47.6243)"/>
</clipPath>
<clipPath id="clip2_1253_7342">
<rect width="63.4086" height="63.1338" fill="white" transform="matrix(-1 0 0 1 96.4086 23)"/>
</clipPath>
<clipPath id="clip3_1253_7342">
<rect width="84.9222" height="84.5541" fill="white" transform="translate(0.381317 59.6624)"/>
</clipPath>
</defs>
</svg>
