<svg width="429" height="216" viewBox="0 0 429 216" fill="none" xmlns="http://www.w3.org/2000/svg">
<g filter="url(#filter0_dd_1330_8351)">
<path d="M421 20C421 11.1634 413.837 4 405 4H24C15.1634 4 8 11.1634 8 20V204H405C413.837 204 421 196.837 421 188V20Z" fill="white" shape-rendering="crispEdges"/>
<path d="M405 4.5H24C15.4396 4.5 8.5 11.4396 8.5 20V203.5H405C413.56 203.5 420.5 196.56 420.5 188V20C420.5 11.4396 413.56 4.5 405 4.5Z" stroke="#8573C9" shape-rendering="crispEdges"/>
<path d="M44.608 39.408H40.6V37.44H44.608V34.68H40.6V32.712H44.608V29.448H47.032V45.312H44.608V39.408ZM39.952 41.256H29.848V30.816H39.952V41.256ZM37.552 32.808H32.248V39.264H37.552V32.808ZM47.464 48.936V50.928H34.984C34.472 50.928 34.08 50.792 33.808 50.52C33.552 50.248 33.424 49.856 33.424 49.344V43.584H35.848V48.936H47.464ZM68.4304 29.448V41.208H66.0064V36.288H62.0224V34.32H66.0064V29.448H68.4304ZM52.3264 41.304L50.5264 39.768C52.3984 38.392 53.7184 37.176 54.4864 36.12C55.2544 35.048 55.6464 33.872 55.6624 32.592H51.2464V30.576H62.4544V32.592H58.0864V32.664C58.0864 33.976 57.7904 35.176 57.1984 36.264L57.3184 36.36L57.8224 35.976C58.0464 35.816 58.2864 35.736 58.5424 35.736C58.7984 35.736 59.0144 35.816 59.1904 35.976L63.2704 39.336L61.4704 40.92L57.2704 37.296C57.1264 37.184 56.9904 37.128 56.8624 37.128C56.7344 37.128 56.6224 37.176 56.5264 37.272C56.0784 37.88 55.5264 38.496 54.8704 39.12C54.2144 39.728 53.3664 40.456 52.3264 41.304ZM66.0544 42.408H68.4304V51.336H56.4544C55.9424 51.336 55.5504 51.2 55.2784 50.928C55.0224 50.656 54.8944 50.264 54.8944 49.752V42.408H57.2944V44.928H66.0544V42.408ZM66.0544 46.824H57.2944V49.416H66.0544V46.824ZM74.1809 34.392C74.1809 33.016 74.7969 31.912 76.0289 31.08C77.2609 30.232 79.0849 29.808 81.5009 29.808C83.9169 29.808 85.7409 30.232 86.9729 31.08C88.2049 31.912 88.8209 33.016 88.8209 34.392C88.8209 35.768 88.2049 36.88 86.9729 37.728C85.7409 38.56 83.9169 38.976 81.5009 38.976C79.0849 38.976 77.2609 38.56 76.0289 37.728C74.7969 36.88 74.1809 35.768 74.1809 34.392ZM86.2529 34.56V34.2C86.2529 33.448 85.8529 32.84 85.0529 32.376C84.2689 31.912 83.0849 31.68 81.5009 31.68C79.9169 31.68 78.7329 31.912 77.9489 32.376C77.1649 32.84 76.7729 33.448 76.7729 34.2V34.56C76.7729 35.312 77.1649 35.92 77.9489 36.384C78.7329 36.848 79.9169 37.08 81.5009 37.08C83.0849 37.08 84.2689 36.848 85.0529 36.384C85.8529 35.92 86.2529 35.312 86.2529 34.56ZM91.3409 40.68V42.768H71.6609V40.68H91.3409ZM74.4209 49.296V44.424H76.8689V48.864H88.8449V50.88H75.9809C75.4689 50.88 75.0769 50.744 74.8049 50.472C74.5489 50.2 74.4209 49.808 74.4209 49.296ZM116.827 29.448V50.472H114.379V29.448H116.827ZM106.915 38.04C107.155 38.04 107.363 38.152 107.539 38.376L111.931 43.968L110.059 45.552L105.643 39.72C105.579 39.624 105.499 39.576 105.403 39.576C105.307 39.576 105.235 39.624 105.187 39.72C104.755 40.616 104.195 41.536 103.507 42.48C102.819 43.408 101.899 44.552 100.747 45.912L98.8752 44.352C100.203 42.88 101.235 41.584 101.971 40.464C102.723 39.344 103.267 38.224 103.603 37.104C103.955 35.968 104.131 34.696 104.131 33.288V30.84H106.579V33.264C106.579 35.216 106.275 36.992 105.667 38.592L105.787 38.664L106.243 38.304C106.467 38.128 106.691 38.04 106.915 38.04ZM138.298 29.448V42.744H135.874V39.24H132.682V37.248H135.874V29.448H138.298ZM130.234 31.896H123.706V29.904H130.234V31.896ZM126.658 42.408C125.634 42.408 124.738 42.256 123.97 41.952C123.202 41.632 122.61 41.208 122.194 40.68C121.794 40.136 121.594 39.528 121.594 38.856C121.594 37.512 122.234 36.56 123.514 36V35.832H120.202V33.888H133.066V35.832H129.802V36C131.082 36.56 131.722 37.512 131.722 38.856C131.722 39.528 131.514 40.136 131.098 40.68C130.698 41.208 130.114 41.632 129.346 41.952C128.578 42.256 127.682 42.408 126.658 42.408ZM126.418 40.416H126.874C127.642 40.416 128.266 40.224 128.746 39.84C129.242 39.456 129.49 38.928 129.49 38.256C129.49 37.584 129.242 37.056 128.746 36.672C128.266 36.288 127.642 36.096 126.874 36.096H126.418C125.65 36.096 125.018 36.288 124.522 36.672C124.042 37.056 123.802 37.584 123.802 38.256C123.802 38.928 124.042 39.456 124.522 39.84C125.018 40.224 125.65 40.416 126.418 40.416ZM124.762 43.872H138.298V51.336H126.322C125.81 51.336 125.418 51.2 125.146 50.928C124.89 50.656 124.762 50.264 124.762 49.752V43.872ZM127.186 49.344H135.874V45.864H127.186V49.344ZM157.176 29.448H159.624V50.472H157.176V29.448ZM142.056 37.968C142.056 35.584 142.576 33.792 143.616 32.592C144.672 31.376 146.072 30.768 147.816 30.768C149.544 30.768 150.928 31.376 151.968 32.592C153.024 33.792 153.552 35.584 153.552 37.968C153.552 40.336 153.024 42.128 151.968 43.344C150.928 44.56 149.544 45.168 147.816 45.168C146.088 45.168 144.696 44.56 143.64 43.344C142.584 42.128 142.056 40.336 142.056 37.968ZM150.96 39.144V36.792C150.96 35.496 150.672 34.512 150.096 33.84C149.52 33.152 148.76 32.808 147.816 32.808C146.856 32.808 146.088 33.152 145.512 33.84C144.936 34.512 144.648 35.496 144.648 36.792V39.144C144.648 40.424 144.936 41.408 145.512 42.096C146.088 42.784 146.856 43.128 147.816 43.128C148.76 43.128 149.52 42.784 150.096 42.096C150.672 41.408 150.96 40.424 150.96 39.144ZM188.902 39.48H185.542V50.496H183.118V29.472H185.542V37.44H188.902V39.48ZM179.998 37.968C179.998 40.336 179.478 42.128 178.438 43.344C177.414 44.56 176.046 45.168 174.334 45.168C172.606 45.168 171.222 44.56 170.182 43.344C169.142 42.128 168.622 40.336 168.622 37.968C168.622 35.584 169.142 33.792 170.182 32.592C171.222 31.376 172.606 30.768 174.334 30.768C176.046 30.768 177.414 31.376 178.438 32.592C179.478 33.792 179.998 35.584 179.998 37.968ZM177.43 36.744C177.43 35.48 177.142 34.512 176.566 33.84C176.006 33.152 175.262 32.808 174.334 32.808C173.39 32.808 172.63 33.152 172.054 33.84C171.494 34.512 171.214 35.48 171.214 36.744V39.192C171.214 40.456 171.494 41.432 172.054 42.12C172.63 42.792 173.39 43.128 174.334 43.128C175.262 43.128 176.006 42.792 176.566 42.12C177.142 41.432 177.43 40.456 177.43 39.192V36.744ZM208.093 29.448V50.472H205.645V29.448H208.093ZM203.053 42.024L203.341 44.016C200.669 44.544 197.437 44.808 193.645 44.808H191.197V31.128H193.621V42.744C197.269 42.744 200.413 42.504 203.053 42.024ZM231.699 39.48H228.339V50.496H225.915V29.472H228.339V37.44H231.699V39.48ZM223.875 42.768L224.163 44.712C221.571 45.192 218.411 45.432 214.683 45.432H212.259V36.936H219.435V33.024H212.187V31.008H221.835V38.928H214.659V43.44H214.779C218.283 43.44 221.315 43.216 223.875 42.768ZM257.114 29.448V50.472H254.762V39.384H252.266V49.896H249.914V29.784H252.266V37.392H254.762V29.448H257.114ZM248.234 42.408L248.546 44.352C246.482 44.848 244.026 45.096 241.178 45.096H239.306V31.584H247.274V33.624H241.658V43.104H241.778C244.322 43.104 246.474 42.872 248.234 42.408ZM280.168 40.08H277.072V50.472H274.672V29.448H277.072V38.064H280.168V40.08ZM269.584 32.352H263.128V30.36H269.584V32.352ZM273.184 44.592L273.4 46.512C271.688 46.784 269.6 47 267.136 47.16C264.688 47.304 262.176 47.376 259.6 47.376L259.384 45.336C261.512 45.336 263.408 45.304 265.072 45.24V42.744C263.84 42.568 262.872 42.16 262.168 41.52C261.48 40.88 261.136 40.12 261.136 39.24C261.136 37.912 261.792 36.968 263.104 36.408V36.264H259.768V34.32H272.776V36.264H269.512V36.408C270.824 36.968 271.48 37.912 271.48 39.24C271.48 40.136 271.112 40.904 270.376 41.544C269.656 42.184 268.664 42.584 267.4 42.744V45.12C269.784 44.992 271.712 44.816 273.184 44.592ZM266.056 40.848H266.56C267.36 40.848 268.008 40.656 268.504 40.272C269 39.872 269.248 39.336 269.248 38.664C269.248 37.992 269 37.464 268.504 37.08C268.008 36.696 267.36 36.504 266.56 36.504H266.056C265.256 36.504 264.608 36.696 264.112 37.08C263.616 37.464 263.368 37.992 263.368 38.664C263.368 39.336 263.616 39.872 264.112 40.272C264.608 40.656 265.256 40.848 266.056 40.848ZM298.206 36.288V40.392H301.446V42.432H298.206V50.496H295.782V29.472H298.206V34.272H301.446V36.288H298.206ZM292.662 37.968C292.662 40.336 292.142 42.128 291.102 43.344C290.078 44.56 288.71 45.168 286.998 45.168C285.27 45.168 283.886 44.56 282.846 43.344C281.806 42.128 281.286 40.336 281.286 37.968C281.286 35.584 281.806 33.792 282.846 32.592C283.886 31.376 285.27 30.768 286.998 30.768C288.71 30.768 290.078 31.376 291.102 32.592C292.142 33.792 292.662 35.584 292.662 37.968ZM290.094 36.744C290.094 35.48 289.806 34.512 289.23 33.84C288.67 33.152 287.926 32.808 286.998 32.808C286.054 32.808 285.294 33.152 284.718 33.84C284.158 34.512 283.878 35.48 283.878 36.744V39.192C283.878 40.456 284.158 41.432 284.718 42.12C285.294 42.792 286.054 43.128 286.998 43.128C287.926 43.128 288.67 42.792 289.23 42.12C289.806 41.432 290.094 40.456 290.094 39.192V36.744ZM305.277 48.288C304.685 48.288 304.245 48.136 303.957 47.832C303.669 47.512 303.525 47.12 303.525 46.656V46.296C303.525 45.832 303.669 45.448 303.957 45.144C304.245 44.824 304.685 44.664 305.277 44.664C305.869 44.664 306.309 44.824 306.597 45.144C306.885 45.448 307.029 45.832 307.029 46.296V46.656C307.029 47.12 306.885 47.512 306.597 47.832C306.309 48.136 305.869 48.288 305.277 48.288ZM47.512 61.448V82.472H45.136V61.448H47.512ZM40.36 61.784H42.712V81.896H40.36V70.16H36.4V68.12H40.36V61.784ZM38.68 74.144L38.968 76.112C37 76.592 34.528 76.832 31.552 76.832H29.68V63.56H32.008V74.816H32.176C34.672 74.816 36.84 74.592 38.68 74.144ZM70.5664 71.48H67.2064V82.496H64.7824V61.472H67.2064V69.44H70.5664V71.48ZM51.1744 63.128H60.8224V66.608C60.8224 68.4 60.5504 69.928 60.0064 71.192C59.4624 72.44 58.5584 73.6 57.2944 74.672C56.0464 75.744 54.2704 76.912 51.9664 78.176L50.5264 76.328C52.6384 75.224 54.2464 74.224 55.3504 73.328C56.4544 72.416 57.2304 71.448 57.6784 70.424C58.1264 69.384 58.3504 68.112 58.3504 66.608V65.192H51.1744V63.128ZM95.4528 61.448V82.472H93.0288V70.736H89.0928C88.9808 72.864 88.4128 74.472 87.3888 75.56C86.3808 76.632 85.0688 77.168 83.4528 77.168C81.7408 77.168 80.3648 76.56 79.3248 75.344C78.2848 74.128 77.7648 72.336 77.7648 69.968C77.7648 67.584 78.2768 65.792 79.3008 64.592C80.3408 63.376 81.7248 62.768 83.4528 62.768C85.0048 62.768 86.2768 63.264 87.2688 64.256C88.2768 65.248 88.8768 66.728 89.0688 68.696H93.0288V61.448H95.4528ZM86.5728 68.768C86.5728 67.488 86.2848 66.512 85.7088 65.84C85.1488 65.152 84.3968 64.808 83.4528 64.808C82.5088 64.808 81.7488 65.152 81.1728 65.84C80.6128 66.512 80.3328 67.488 80.3328 68.768V71.168C80.3328 72.448 80.6128 73.432 81.1728 74.12C81.7488 74.792 82.5088 75.128 83.4528 75.128C84.3968 75.128 85.1488 74.792 85.7088 74.12C86.2848 73.432 86.5728 72.448 86.5728 71.168V68.768ZM114.739 67.016V61.448H117.139V77.312H114.739V69.008H111.211V67.016H114.739ZM105.187 73.28C104.163 73.6 102.723 73.76 100.867 73.76H99.3552V62.936H104.755V64.88H101.683V71.792C103.091 71.776 104.171 71.664 104.923 71.456L105.187 73.28ZM107.611 73.808H105.859V62.936H111.715V64.88H108.211V71.864C109.891 71.848 111.291 71.72 112.411 71.48L112.675 73.328C112.147 73.456 111.443 73.568 110.563 73.664C109.683 73.76 108.699 73.808 107.611 73.808ZM117.547 80.936V82.928H104.851C104.339 82.928 103.947 82.792 103.675 82.52C103.419 82.248 103.291 81.856 103.291 81.344V75.656H105.739V80.936H117.547ZM146.106 71.48H142.746V82.496H140.322V61.472H142.746V69.44H146.106V71.48ZM133.386 70.064C133.626 70.064 133.842 70.176 134.034 70.4L138.354 75.968L136.458 77.552L132.114 71.744C132.066 71.648 131.986 71.6 131.874 71.6C131.794 71.6 131.714 71.648 131.634 71.744C131.202 72.656 130.642 73.584 129.954 74.528C129.266 75.472 128.37 76.6 127.266 77.912L125.418 76.352C126.73 74.88 127.746 73.584 128.465 72.464C129.202 71.344 129.738 70.224 130.074 69.104C130.426 67.968 130.602 66.696 130.602 65.288V62.84H133.05V65.264C133.05 67.28 132.754 69.056 132.162 70.592L132.282 70.688L132.738 70.328C132.962 70.152 133.178 70.064 133.386 70.064ZM167.504 66.752V68.792H164.216V74.312H161.792V61.448H164.216V66.752H167.504ZM159.848 72.968C157.288 73.448 154.12 73.688 150.344 73.688H148.016V66.992H155.192V64.472H147.944V62.504H157.52V68.936H150.32V71.744H150.488C153.928 71.744 156.944 71.512 159.536 71.048L159.848 72.968ZM150.92 75.416H164.24V83.336H152.48C151.968 83.336 151.576 83.2 151.304 82.928C151.048 82.656 150.92 82.264 150.92 81.752V75.416ZM153.368 81.344H161.792V77.432H153.368V81.344ZM186.766 61.448V77.312H184.342V61.448H186.766ZM169.198 68.048C169.198 66.896 169.438 65.904 169.918 65.072C170.398 64.224 171.062 63.576 171.91 63.128C172.758 62.68 173.734 62.456 174.838 62.456C175.942 62.456 176.918 62.68 177.766 63.128C178.63 63.576 179.302 64.224 179.782 65.072C180.262 65.904 180.502 66.896 180.502 68.048C180.502 69.184 180.262 70.176 179.782 71.024C179.302 71.856 178.63 72.496 177.766 72.944C176.918 73.392 175.942 73.616 174.838 73.616C173.734 73.616 172.758 73.392 171.91 72.944C171.062 72.496 170.398 71.856 169.918 71.024C169.438 70.176 169.198 69.184 169.198 68.048ZM177.91 68.624V67.472C177.91 66.56 177.63 65.832 177.07 65.288C176.51 64.744 175.766 64.472 174.838 64.472C173.91 64.472 173.166 64.744 172.606 65.288C172.046 65.832 171.766 66.56 171.766 67.472V68.624C171.766 69.536 172.046 70.264 172.606 70.808C173.166 71.352 173.91 71.624 174.838 71.624C175.766 71.624 176.51 71.352 177.07 70.808C177.63 70.264 177.91 69.536 177.91 68.624ZM173.158 81.344V75.584H175.582V80.936H187.198V82.928H174.718C174.206 82.928 173.814 82.792 173.542 82.52C173.286 82.248 173.158 81.856 173.158 81.344ZM208.093 61.448V82.472H205.645V61.448H208.093ZM198.325 70.496C198.597 70.496 198.829 70.608 199.021 70.832L203.341 75.824L201.493 77.408L197.101 72.104C196.989 71.992 196.885 71.936 196.789 71.936C196.693 71.936 196.605 71.984 196.525 72.08C196.093 72.912 195.533 73.768 194.845 74.648C194.157 75.512 193.253 76.544 192.133 77.744L190.285 76.232C191.597 74.92 192.629 73.736 193.381 72.68C194.133 71.624 194.677 70.576 195.013 69.536C195.365 68.48 195.541 67.32 195.541 66.056V65.336H191.053V63.296H202.453V65.336H197.989V66.152C197.989 67.96 197.677 69.584 197.053 71.024L197.173 71.12L197.677 70.736C197.917 70.576 198.133 70.496 198.325 70.496ZM219.491 69.536L218.219 67.76C220.171 67.104 221.699 66.488 222.803 65.912C223.923 65.32 224.715 64.72 225.179 64.112C225.643 63.504 225.875 62.824 225.875 62.072V61.568H228.251V62.192C228.251 62.896 228.147 63.528 227.939 64.088C227.731 64.632 227.403 65.136 226.955 65.6L227.171 65.672L227.963 65.12C228.283 64.896 228.595 64.784 228.899 64.784C229.107 64.784 229.315 64.832 229.523 64.928L235.595 67.688L234.299 69.464L227.651 66.32C227.395 66.192 227.147 66.128 226.907 66.128C226.667 66.128 226.411 66.2 226.139 66.344H226.115C225.443 66.872 224.579 67.384 223.523 67.88C222.467 68.376 221.123 68.928 219.491 69.536ZM236.747 70.856V72.872H217.067V70.856H225.707V68.432H228.131V70.856H236.747ZM222.371 81.488H234.443V83.456H221.627C221.115 83.456 220.723 83.32 220.451 83.048C220.195 82.776 220.067 82.384 220.067 81.872V77.984H231.539V76.352H219.923V74.384H233.843V79.832H222.371V81.488ZM256.634 61.448V74.12H254.21V61.448H256.634ZM240.674 73.784L238.874 72.224C240.154 71.264 241.162 70.4 241.898 69.632C242.65 68.848 243.194 68.08 243.53 67.328C243.882 66.56 244.058 65.72 244.058 64.808V64.784H239.642V62.768H250.946V64.784H246.482V64.928C246.482 66.304 246.186 67.528 245.594 68.6L245.738 68.696L246.242 68.336C246.466 68.16 246.69 68.072 246.914 68.072C247.154 68.072 247.386 68.16 247.61 68.336L251.738 71.768L249.938 73.352L245.666 69.632C245.538 69.536 245.41 69.488 245.282 69.488C245.138 69.488 245.018 69.536 244.922 69.632C244.49 70.24 243.946 70.856 243.29 71.48C242.634 72.088 241.762 72.856 240.674 73.784ZM242.666 75.296H256.634V83.552H254.258V77.336H242.666V75.296ZM280.168 71.912H276.928V82.496H274.504V61.472H276.928V69.872H280.168V71.912ZM269.8 64.688H262.792V62.624H269.8V64.688ZM259.696 67.064H272.536V69.056H269.296V69.2C270.656 69.952 271.336 71.288 271.336 73.208C271.336 74.232 271.112 75.128 270.664 75.896C270.232 76.648 269.624 77.232 268.84 77.648C268.072 78.064 267.2 78.272 266.224 78.272C265.248 78.272 264.368 78.064 263.584 77.648C262.816 77.232 262.208 76.648 261.76 75.896C261.312 75.128 261.088 74.232 261.088 73.208C261.088 71.288 261.768 69.96 263.128 69.224V69.056H259.696V67.064ZM268.984 72.224C268.984 71.296 268.736 70.584 268.24 70.088C267.744 69.576 267.072 69.32 266.224 69.32C265.376 69.32 264.696 69.576 264.184 70.088C263.688 70.6 263.44 71.312 263.44 72.224V73.328C263.44 74.24 263.696 74.952 264.208 75.464C264.72 75.976 265.392 76.232 266.224 76.232C267.056 76.232 267.72 75.976 268.216 75.464C268.728 74.952 268.984 74.24 268.984 73.328V72.224ZM299.91 61.448V82.472H297.558V61.448H299.91ZM292.878 61.784H295.182V81.896H292.878V71.456H289.614C289.15 72.624 288.414 73.712 287.406 74.72C286.414 75.728 285.006 76.856 283.182 78.104L281.574 76.52C283.302 75.384 284.614 74.368 285.51 73.472C286.422 72.576 287.062 71.64 287.43 70.664C287.798 69.672 287.982 68.456 287.982 67.016V65.528H282.222V63.584H290.334V66.968C290.334 67.928 290.278 68.752 290.166 69.44H292.878V61.784ZM328.013 78.104V80.144H308.333V78.104H316.973V73.664H310.949V62.552H313.349V66.176H322.925V62.552H325.325V73.664H319.397V78.104H328.013ZM313.349 71.648H322.925V68.168H313.349V71.648ZM347.899 61.448V82.472H345.451V73.76H341.755V71.768H345.451V67.88H341.755V65.888H345.451V61.448H347.899ZM341.419 69.968C341.419 72.336 340.899 74.128 339.859 75.344C338.835 76.56 337.475 77.168 335.779 77.168C334.067 77.168 332.691 76.56 331.651 75.344C330.627 74.128 330.115 72.336 330.115 69.968C330.115 67.584 330.627 65.792 331.651 64.592C332.691 63.376 334.067 62.768 335.779 62.768C337.475 62.768 338.835 63.376 339.859 64.592C340.899 65.792 341.419 67.584 341.419 69.968ZM338.875 68.744C338.875 67.464 338.595 66.488 338.035 65.816C337.475 65.128 336.723 64.784 335.779 64.784C334.819 64.784 334.059 65.128 333.499 65.816C332.939 66.488 332.659 67.464 332.659 68.744V71.192C332.659 72.472 332.939 73.456 333.499 74.144C334.059 74.816 334.819 75.152 335.779 75.152C336.723 75.152 337.475 74.816 338.035 74.144C338.595 73.456 338.875 72.472 338.875 71.192V68.744ZM359.77 64.28H353.338V62.24H368.602V64.28H362.242C362.194 65.464 361.81 66.504 361.09 67.4L361.186 67.424L361.81 66.968C362.082 66.76 362.37 66.656 362.674 66.656C362.898 66.656 363.122 66.712 363.346 66.824L369.562 69.992L368.218 71.84L361.522 68.264C361.298 68.136 361.074 68.072 360.85 68.072C360.658 68.072 360.474 68.128 360.298 68.24C359.642 68.832 358.77 69.432 357.682 70.04C356.61 70.632 355.266 71.256 353.65 71.912L352.354 70.088C354.93 69.096 356.778 68.16 357.898 67.28C359.018 66.384 359.642 65.384 359.77 64.28ZM370.81 75.704H362.194V83.312H359.77V75.704H351.13V73.664H370.81V75.704ZM389.472 69.944H375.48V62.24H377.904V67.952H389.472V69.944ZM392.208 72.224V74.312H372.528V72.224H392.208ZM377.736 80.864H389.712V82.88H376.848C376.336 82.88 375.944 82.744 375.672 82.472C375.416 82.2 375.288 81.808 375.288 81.296V76.208H377.736V80.864ZM47.512 93.448V114.472H45.16V93.448H47.512ZM40.48 93.784H42.784V113.896H40.48V103.456H37.216C36.752 104.624 36.016 105.712 35.008 106.72C34.016 107.728 32.608 108.856 30.784 110.104L29.176 108.52C30.904 107.384 32.216 106.368 33.112 105.472C34.024 104.576 34.664 103.64 35.032 102.664C35.4 101.672 35.584 100.456 35.584 99.016V97.528H29.824V95.584H37.936V98.968C37.936 99.928 37.88 100.752 37.768 101.44H40.48V93.784ZM74.5823 93.448V114.472H72.2543V93.448H74.5823ZM67.5983 93.784H69.9023V113.896H67.5983V102.52H64.5743V100.528H67.5983V93.784ZM62.4383 102.784C62.7103 102.784 62.9423 102.912 63.1343 103.168L66.5663 108.04L64.8383 109.48L61.3583 104.392C61.2783 104.296 61.1983 104.248 61.1183 104.248C61.0223 104.248 60.9503 104.296 60.9023 104.392C60.5503 105.176 60.0863 106 59.5103 106.864C58.9343 107.728 58.2143 108.72 57.3503 109.84L55.6463 108.424C56.7503 107.032 57.6063 105.8 58.2143 104.728C58.8383 103.64 59.2863 102.568 59.5583 101.512C59.8463 100.456 59.9903 99.288 59.9903 98.008V97.576H56.2463V95.536H65.8943V97.576H62.2703V97.984C62.2703 99.808 61.9903 101.52 61.4303 103.12L61.5503 103.192L61.8623 102.976C62.0383 102.848 62.2303 102.784 62.4383 102.784ZM95.5008 93.448V104.416H93.0768V93.448H95.5008ZM77.9328 99.064C77.9328 98.04 78.1728 97.144 78.6528 96.376C79.1328 95.592 79.7968 94.992 80.6448 94.576C81.5088 94.16 82.4848 93.952 83.5728 93.952C84.6608 93.952 85.6288 94.16 86.4768 94.576C87.3408 94.992 88.0128 95.592 88.4928 96.376C88.9728 97.144 89.2128 98.04 89.2128 99.064C89.2128 100.088 88.9728 100.992 88.4928 101.776C88.0128 102.544 87.3408 103.136 86.4768 103.552C85.6288 103.968 84.6608 104.176 83.5728 104.176C82.4848 104.176 81.5088 103.968 80.6448 103.552C79.7968 103.136 79.1328 102.544 78.6528 101.776C78.1728 100.992 77.9328 100.088 77.9328 99.064ZM86.6448 99.448V98.68C86.6448 97.848 86.3568 97.184 85.7808 96.688C85.2208 96.192 84.4848 95.944 83.5728 95.944C82.6608 95.944 81.9168 96.192 81.3408 96.688C80.7808 97.184 80.5008 97.848 80.5008 98.68V99.448C80.5008 100.296 80.7808 100.968 81.3408 101.464C81.9008 101.944 82.6448 102.184 83.5728 102.184C84.5008 102.184 85.2448 101.944 85.8048 101.464C86.3648 100.968 86.6448 100.296 86.6448 99.448ZM81.8448 113.896V109.528H93.0528V107.704H81.7248V105.64H95.5248V111.544H84.3168V113.392H96.0288V115.48H83.4048C82.8928 115.48 82.5008 115.344 82.2288 115.072C81.9728 114.8 81.8448 114.408 81.8448 113.896ZM113.043 96.064H106.803V94.144H121.707V96.064H115.491C115.411 97.104 115.051 98 114.411 98.752L114.531 98.824L115.203 98.344C115.443 98.168 115.707 98.08 115.995 98.08C116.235 98.08 116.475 98.136 116.715 98.248L122.643 100.936L121.371 102.712L114.891 99.592C114.667 99.48 114.443 99.424 114.219 99.424C113.995 99.424 113.779 99.48 113.571 99.592L113.451 99.664C112.155 100.672 110.035 101.696 107.091 102.736L105.843 101.008C107.555 100.416 108.915 99.872 109.923 99.376C110.931 98.864 111.675 98.344 112.155 97.816C112.651 97.288 112.947 96.704 113.043 96.064ZM115.467 105.904V107.512C117.387 107.64 118.859 108.072 119.883 108.808C120.923 109.544 121.443 110.48 121.443 111.616C121.443 112.432 121.163 113.152 120.603 113.776C120.059 114.4 119.243 114.88 118.155 115.216C117.083 115.568 115.779 115.744 114.243 115.744C112.707 115.744 111.395 115.568 110.307 115.216C109.235 114.88 108.419 114.4 107.859 113.776C107.315 113.152 107.043 112.432 107.043 111.616C107.043 110.48 107.555 109.544 108.579 108.808C109.619 108.072 111.107 107.64 113.043 107.512V105.904H104.403V103.864H124.083V105.904H115.467ZM114.243 109.36C112.675 109.36 111.499 109.56 110.715 109.96C109.931 110.36 109.539 110.864 109.539 111.472V111.76C109.539 112.368 109.931 112.872 110.715 113.272C111.499 113.672 112.675 113.872 114.243 113.872C115.827 113.872 117.003 113.672 117.771 113.272C118.539 112.872 118.923 112.368 118.923 111.76V111.472C118.923 110.864 118.539 110.36 117.771 109.96C117.003 109.56 115.827 109.36 114.243 109.36ZM127.986 99.904C127.986 98.832 128.266 97.864 128.826 97C129.402 96.136 130.258 95.456 131.394 94.96C132.546 94.464 133.962 94.216 135.642 94.216C137.322 94.216 138.73 94.464 139.866 94.96C141.018 95.456 141.874 96.136 142.434 97C143.01 97.864 143.298 98.832 143.298 99.904C143.298 100.992 143.01 101.968 142.434 102.832C141.874 103.68 141.018 104.36 139.866 104.872C138.73 105.368 137.322 105.616 135.642 105.616C133.962 105.616 132.546 105.368 131.394 104.872C130.258 104.36 129.402 103.68 128.826 102.832C128.266 101.968 127.986 100.992 127.986 99.904ZM130.602 100.192C130.602 101.2 131.026 102.032 131.874 102.688C132.722 103.344 133.978 103.672 135.642 103.672C137.306 103.672 138.562 103.344 139.41 102.688C140.258 102.032 140.682 101.2 140.682 100.192V99.64C140.682 98.616 140.258 97.776 139.41 97.12C138.578 96.464 137.322 96.136 135.642 96.136C133.962 96.136 132.698 96.464 131.85 97.12C131.018 97.776 130.602 98.616 130.602 99.64V100.192ZM145.482 110.104V112.144H125.802V110.104H130.602V106.24H133.002V110.104H138.282V106.24H140.658V110.104H145.482ZM165.848 93.448V114.472H163.52V103.72H161.12V113.896H158.792V93.784H161.12V101.728H163.52V93.448H165.848ZM155.72 97.048H149.408V95.08H155.72V97.048ZM147.032 99.232H157.808V101.152H155.216V101.272C156.384 101.96 156.968 103.216 156.968 105.04C156.968 106.544 156.552 107.728 155.72 108.592C154.904 109.44 153.824 109.864 152.48 109.864C151.12 109.864 150.032 109.44 149.216 108.592C148.4 107.728 147.992 106.544 147.992 105.04C147.992 103.232 148.568 101.984 149.72 101.296V101.152H147.032V99.232ZM154.688 103.984C154.688 103.168 154.488 102.536 154.088 102.088C153.704 101.64 153.168 101.416 152.48 101.416C151.792 101.416 151.248 101.64 150.848 102.088C150.464 102.536 150.272 103.168 150.272 103.984V105.328C150.272 106.128 150.472 106.76 150.872 107.224C151.288 107.672 151.824 107.896 152.48 107.896C153.136 107.896 153.664 107.672 154.064 107.224C154.48 106.76 154.688 106.128 154.688 105.328V103.984ZM171.214 112.288C170.622 112.288 170.182 112.136 169.894 111.832C169.606 111.512 169.462 111.12 169.462 110.656V110.296C169.462 109.832 169.606 109.448 169.894 109.144C170.182 108.824 170.622 108.664 171.214 108.664C171.806 108.664 172.246 108.824 172.534 109.144C172.822 109.448 172.966 109.832 172.966 110.296V110.656C172.966 111.12 172.822 111.512 172.534 111.832C172.246 112.136 171.806 112.288 171.214 112.288ZM197.239 97.984V93.448H199.639V104.488H197.239V99.88H193.711V97.984H197.239ZM187.687 103.528C186.663 103.848 185.223 104.008 183.367 104.008H181.855V94.408H187.255V96.28H184.159V102.112C185.455 102.096 186.543 101.984 187.423 101.776L187.687 103.528ZM190.111 104.032H188.359V94.408H194.215V96.28H190.687V102.184C192.383 102.168 193.799 102.04 194.935 101.8L195.175 103.576C194.663 103.704 193.967 103.816 193.087 103.912C192.207 103.992 191.215 104.032 190.111 104.032ZM200.143 113.416V115.48H187.327C186.815 115.48 186.423 115.344 186.151 115.072C185.895 114.8 185.767 114.408 185.767 113.896V109.576H197.191V107.752H185.647V105.712H199.639V111.568H188.215V113.416H200.143ZM220.726 93.448V114.472H218.278V93.448H220.726ZM215.902 106.744L216.19 108.712C213.55 109.192 210.31 109.432 206.47 109.432H203.998V100.936H211.27V97.048H203.926V95.008H213.694V102.952H206.422V107.44H206.494C210.03 107.44 213.166 107.208 215.902 106.744ZM240.972 101.944H226.98V94.24H229.404V99.952H240.972V101.944ZM243.708 104.224V106.312H224.028V104.224H243.708ZM229.236 112.864H241.212V114.88H228.348C227.836 114.88 227.444 114.744 227.172 114.472C226.916 114.2 226.788 113.808 226.788 113.296V108.208H229.236V112.864ZM266.842 101.752H262.642V99.712H266.842V93.448H269.266V109.312H266.842V101.752ZM253.042 106.648L251.722 104.824C253.77 103.992 255.338 103.232 256.426 102.544C257.514 101.856 258.274 101.144 258.706 100.408C259.154 99.656 259.378 98.76 259.378 97.72V96.928H252.394V94.864H261.826V97.48C261.826 98.952 261.562 100.192 261.034 101.2C260.506 102.208 259.618 103.128 258.37 103.96C257.138 104.792 255.362 105.688 253.042 106.648ZM269.698 112.936V114.928H257.218C256.706 114.928 256.314 114.792 256.042 114.52C255.786 114.248 255.658 113.856 255.658 113.344V107.584H258.082V112.936H269.698ZM298.473 98.656V100.672H295.209V105.952H292.785V93.448H295.209V98.656H298.473ZM290.673 103.888C288.033 104.4 284.889 104.656 281.241 104.656H278.889V94.576H288.585V96.616H281.337V102.664C284.921 102.664 287.937 102.432 290.385 101.968L290.673 103.888ZM295.377 110.944C295.377 111.84 295.113 112.64 294.585 113.344C294.073 114.064 293.305 114.624 292.281 115.024C291.273 115.44 290.049 115.648 288.609 115.648C287.169 115.648 285.937 115.44 284.913 115.024C283.889 114.624 283.113 114.064 282.585 113.344C282.057 112.64 281.793 111.84 281.793 110.944C281.793 110.048 282.057 109.248 282.585 108.544C283.113 107.824 283.889 107.264 284.913 106.864C285.937 106.448 287.169 106.24 288.609 106.24C290.049 106.24 291.273 106.448 292.281 106.864C293.305 107.264 294.073 107.824 294.585 108.544C295.113 109.248 295.377 110.048 295.377 110.944ZM292.785 110.752C292.785 110.032 292.441 109.432 291.753 108.952C291.065 108.456 290.017 108.208 288.609 108.208C287.201 108.208 286.145 108.456 285.441 108.952C284.737 109.432 284.385 110.032 284.385 110.752V111.16C284.385 111.864 284.737 112.456 285.441 112.936C286.145 113.432 287.201 113.68 288.609 113.68C290.017 113.68 291.065 113.432 291.753 112.936C292.441 112.456 292.785 111.864 292.785 111.16V110.752ZM315.311 103.408H311.495V101.44H315.311V98.68H311.495V96.712H315.311V93.448H317.735V109.312H315.311V103.408ZM305.615 105.664C304.527 105.664 303.559 105.44 302.711 104.992C301.863 104.544 301.199 103.896 300.719 103.048C300.255 102.2 300.023 101.2 300.023 100.048C300.023 98.896 300.255 97.904 300.719 97.072C301.199 96.224 301.863 95.576 302.711 95.128C303.559 94.68 304.527 94.456 305.615 94.456C306.703 94.456 307.663 94.68 308.495 95.128C309.343 95.576 310.007 96.224 310.487 97.072C310.967 97.904 311.207 98.896 311.207 100.048C311.207 101.2 310.967 102.2 310.487 103.048C310.007 103.88 309.343 104.528 308.495 104.992C307.663 105.44 306.703 105.664 305.615 105.664ZM305.615 103.696C306.527 103.696 307.263 103.424 307.823 102.88C308.383 102.336 308.663 101.592 308.663 100.648V99.472C308.663 98.544 308.383 97.808 307.823 97.264C307.263 96.72 306.527 96.448 305.615 96.448C304.687 96.448 303.943 96.72 303.383 97.264C302.839 97.792 302.567 98.528 302.567 99.472V100.648C302.567 101.592 302.839 102.336 303.383 102.88C303.943 103.424 304.687 103.696 305.615 103.696ZM318.167 112.936V114.928H305.687C305.175 114.928 304.783 114.792 304.511 114.52C304.255 114.248 304.127 113.856 304.127 113.344V107.584H306.551V112.936H318.167ZM341.27 100.408V102.448H338.006V109.648H335.582V93.448H338.006V100.408H341.27ZM330.542 96.088H324.134V94.048H330.542V96.088ZM327.206 107.296C326.182 107.296 325.286 107.128 324.518 106.792C323.75 106.44 323.158 105.968 322.742 105.376C322.342 104.784 322.142 104.128 322.142 103.408C322.142 101.904 322.806 100.856 324.134 100.264V100.12H320.726V98.128H333.638V100.12H330.278V100.264C330.95 100.568 331.454 100.992 331.79 101.536C332.126 102.064 332.294 102.688 332.294 103.408C332.294 104.128 332.086 104.784 331.67 105.376C331.254 105.968 330.662 106.44 329.894 106.792C329.126 107.128 328.23 107.296 327.206 107.296ZM327.014 105.256H327.398C328.166 105.256 328.798 105.04 329.294 104.608C329.79 104.176 330.038 103.584 330.038 102.832C330.038 102.08 329.79 101.488 329.294 101.056C328.814 100.624 328.182 100.408 327.398 100.408H327.014C326.246 100.408 325.614 100.624 325.118 101.056C324.638 101.488 324.398 102.08 324.398 102.832C324.398 103.584 324.638 104.176 325.118 104.608C325.614 105.04 326.246 105.256 327.014 105.256ZM327.062 113.104H338.51V115.096H326.198C325.686 115.096 325.294 114.96 325.022 114.688C324.766 114.416 324.638 114.024 324.638 113.512V108.928H327.062V113.104ZM366.156 93.448V114.472H363.732V103.624H359.46V101.584H363.732V93.448H366.156ZM349.284 95.128H358.812V98.608C358.812 100.416 358.54 101.944 357.996 103.192C357.468 104.44 356.588 105.6 355.356 106.672C354.124 107.744 352.364 108.912 350.076 110.176L348.612 108.328C350.708 107.224 352.3 106.224 353.388 105.328C354.492 104.416 355.26 103.448 355.692 102.424C356.14 101.384 356.364 100.112 356.364 98.608V97.192H349.284V95.128ZM384.17 97.216H371.906V95.152H386.57V96.904C386.57 100.504 386.218 103.92 385.514 107.152L383.162 106.768C383.818 103.776 384.154 100.592 384.17 97.216ZM389.114 110.104V112.144H369.434V110.104H376.778V102.712H379.202V110.104H389.114ZM393.449 108.664C394.041 108.664 394.481 108.816 394.769 109.12C395.057 109.424 395.201 109.816 395.201 110.296V110.68C395.201 111.464 394.985 112.28 394.553 113.128C394.137 113.992 393.569 114.72 392.849 115.312H390.905C391.417 114.8 391.841 114.304 392.177 113.824C392.513 113.344 392.769 112.808 392.945 112.216C392.529 112.136 392.217 111.96 392.009 111.688C391.801 111.4 391.697 111.064 391.697 110.68V110.296C391.697 109.816 391.841 109.424 392.129 109.12C392.417 108.816 392.857 108.664 393.449 108.664ZM43.504 129.264H31.36V127.2H45.904V129.024C45.904 132.88 45.544 136.48 44.824 139.824L42.472 139.44C43.144 136.272 43.488 132.88 43.504 129.264ZM48.544 142.08V144.144H28.864V142.08H48.544ZM70.5664 131.592V133.632H67.3024V141.312H64.8784V125.448H67.3024V131.592H70.5664ZM61.0384 137.208H50.8624V126.816H61.0384V137.208ZM58.6144 128.832H53.2864V135.216H58.6144V128.832ZM56.3584 144.936H67.8064V146.928H55.4944C54.9824 146.928 54.5904 146.792 54.3184 146.52C54.0624 146.248 53.9344 145.856 53.9344 145.344V139.584H56.3584V144.936ZM91.3409 135.24V137.328H71.6609V135.24H85.5809C85.7569 134.424 85.9089 133.472 86.0369 132.384L73.8929 132.888L73.6529 130.896L86.1809 130.512C86.2289 129.76 86.2529 128.976 86.2529 128.16H74.3729V126.168H88.6529V128.04C88.6529 130.712 88.4209 133.112 87.9569 135.24H91.3409ZM74.4929 139.464H88.4849V147.264H76.0529C75.5409 147.264 75.1489 147.128 74.8769 146.856C74.6209 146.584 74.4929 146.192 74.4929 145.68V139.464ZM76.8929 145.296H86.1089V141.432H76.8929V145.296ZM114.475 131.928H108.691V129.888H114.475V125.448H116.899V141.312H114.475V131.928ZM111.715 136.68C109.187 137.224 106.043 137.496 102.283 137.496H99.9792V126.888H102.379V135.48C105.819 135.48 108.835 135.232 111.427 134.736L111.715 136.68ZM117.331 144.936V146.928H104.851C104.339 146.928 103.947 146.792 103.675 146.52C103.419 146.248 103.291 145.856 103.291 145.344V139.584H105.715V144.936H117.331ZM143.97 141.312H141.546V125.448H143.97V141.312ZM132.618 133.896C132.49 133.896 132.378 133.944 132.282 134.04C131.834 134.696 131.282 135.368 130.626 136.056C129.97 136.728 129.098 137.552 128.01 138.528L126.21 136.992C127.49 135.936 128.498 134.992 129.234 134.16C129.986 133.312 130.53 132.48 130.866 131.664C131.218 130.832 131.394 129.936 131.394 128.976H126.978V126.96H138.282V128.976H133.818V129.072C133.818 130.48 133.522 131.792 132.93 133.008L133.05 133.08L133.578 132.72C133.786 132.56 134.01 132.48 134.25 132.48C134.49 132.48 134.722 132.568 134.946 132.744L139.074 136.488L137.273 138.072L132.978 134.04C132.866 133.944 132.746 133.896 132.618 133.896ZM144.402 144.936V146.928H131.922C131.41 146.928 131.018 146.792 130.746 146.52C130.49 146.248 130.362 145.856 130.362 145.344V139.8H132.786V144.936H144.402ZM165.368 125.448V137.568H162.944V125.448H165.368ZM153.8 132.744C153.672 132.744 153.56 132.8 153.464 132.912C153.032 133.6 152.472 134.304 151.784 135.024C151.112 135.744 150.232 136.592 149.144 137.568L147.344 135.984C148.64 134.88 149.656 133.896 150.392 133.032C151.128 132.168 151.656 131.312 151.976 130.464C152.312 129.616 152.48 128.68 152.48 127.656V126.24H154.928V127.8C154.928 129.304 154.632 130.672 154.04 131.904L154.16 132L154.688 131.544C154.912 131.352 155.128 131.256 155.336 131.256C155.544 131.256 155.76 131.352 155.984 131.544L160.184 135.408L158.432 137.112L154.112 132.888C154.016 132.792 153.912 132.744 153.8 132.744ZM151.832 138.768H165.368V147.336H153.392C152.88 147.336 152.488 147.2 152.216 146.928C151.96 146.656 151.832 146.264 151.832 145.752V138.768ZM154.256 145.32H162.944V140.784H154.256V145.32ZM184.246 125.448H186.694V146.472H184.246V125.448ZM169.126 133.968C169.126 131.584 169.646 129.792 170.686 128.592C171.742 127.376 173.142 126.768 174.886 126.768C176.614 126.768 177.998 127.376 179.038 128.592C180.094 129.792 180.622 131.584 180.622 133.968C180.622 136.336 180.094 138.128 179.038 139.344C177.998 140.56 176.614 141.168 174.886 141.168C173.158 141.168 171.766 140.56 170.71 139.344C169.654 138.128 169.126 136.336 169.126 133.968ZM178.03 135.144V132.792C178.03 131.496 177.742 130.512 177.166 129.84C176.59 129.152 175.83 128.808 174.886 128.808C173.926 128.808 173.158 129.152 172.582 129.84C172.006 130.512 171.718 131.496 171.718 132.792V135.144C171.718 136.424 172.006 137.408 172.582 138.096C173.158 138.784 173.926 139.128 174.886 139.128C175.83 139.128 176.59 138.784 177.166 138.096C177.742 137.408 178.03 136.424 178.03 135.144ZM206.941 132.288V136.392H210.181V138.432H206.941V146.496H204.517V125.472H206.941V130.272H210.181V132.288H206.941ZM201.397 133.968C201.397 136.336 200.877 138.128 199.837 139.344C198.813 140.56 197.445 141.168 195.733 141.168C194.005 141.168 192.621 140.56 191.581 139.344C190.541 138.128 190.021 136.336 190.021 133.968C190.021 131.584 190.541 129.792 191.581 128.592C192.621 127.376 194.005 126.768 195.733 126.768C197.445 126.768 198.813 127.376 199.837 128.592C200.877 129.792 201.397 131.584 201.397 133.968ZM198.829 132.744C198.829 131.48 198.541 130.512 197.965 129.84C197.405 129.152 196.661 128.808 195.733 128.808C194.789 128.808 194.029 129.152 193.453 129.84C192.893 130.512 192.613 131.48 192.613 132.744V135.192C192.613 136.456 192.893 137.432 193.453 138.12C194.029 138.792 194.789 139.128 195.733 139.128C196.661 139.128 197.405 138.792 197.965 138.12C198.541 137.432 198.829 136.456 198.829 135.192V132.744ZM214.011 144.288C213.419 144.288 212.979 144.136 212.691 143.832C212.403 143.512 212.259 143.12 212.259 142.656V142.296C212.259 141.832 212.403 141.448 212.691 141.144C212.979 140.824 213.419 140.664 214.011 140.664C214.603 140.664 215.043 140.824 215.331 141.144C215.619 141.448 215.763 141.832 215.763 142.296V142.656C215.763 143.12 215.619 143.512 215.331 143.832C215.043 144.136 214.603 144.288 214.011 144.288ZM242.196 137.352H239.772V125.448H242.196V137.352ZM226.092 137.688L224.82 135.84C226.9 135.072 228.5 134.368 229.62 133.728C230.74 133.088 231.524 132.424 231.972 131.736C232.436 131.048 232.668 130.24 232.668 129.312V128.616H225.492V126.576H235.116V129.024C235.116 130.432 234.844 131.616 234.3 132.576C233.772 133.52 232.868 134.392 231.588 135.192C230.308 135.976 228.476 136.808 226.092 137.688ZM228.108 138.552H242.46V140.52H228.108V138.552ZM242.652 145.392V147.312H227.916V145.392H231.156L230.484 141.672L232.932 141.432L233.412 145.392H237.156L237.636 141.432L240.06 141.672L239.412 145.392H242.652ZM264.075 125.448V146.472H261.723V125.448H264.075ZM257.043 125.784H259.347V145.896H257.043V135.456H253.779C253.315 136.624 252.579 137.712 251.571 138.72C250.579 139.728 249.171 140.856 247.347 142.104L245.739 140.52C247.467 139.384 248.779 138.368 249.675 137.472C250.587 136.576 251.227 135.64 251.595 134.664C251.963 133.672 252.147 132.456 252.147 131.016V129.528H246.387V127.584H254.499V130.968C254.499 131.928 254.443 132.752 254.331 133.44H257.043V125.784ZM274.969 134.376L273.649 132.528C275.601 131.808 277.129 131.128 278.233 130.488C279.337 129.832 280.121 129.176 280.585 128.52C281.049 127.864 281.281 127.128 281.281 126.312V125.688H283.729V126.432C283.729 127.888 283.281 129.12 282.385 130.128L282.577 130.2L283.393 129.624C283.713 129.4 284.009 129.288 284.281 129.288C284.505 129.288 284.729 129.352 284.953 129.48L291.025 132.456L289.681 134.304L283.057 130.872C282.801 130.744 282.569 130.68 282.361 130.68C282.137 130.68 281.897 130.744 281.641 130.872C280.969 131.448 280.097 132.008 279.025 132.552C277.969 133.096 276.617 133.704 274.969 134.376ZM283.561 137.784V139.704H289.321V147.264H276.889C276.377 147.264 275.985 147.128 275.713 146.856C275.457 146.584 275.329 146.192 275.329 145.68V139.704H281.137V137.784H272.497V135.744H292.177V137.784H283.561ZM286.945 141.648H277.729V145.32H286.945V141.648ZM319.871 132.408V134.448H316.607V141.648H314.183V125.448H316.607V132.408H319.871ZM309.143 128.088H302.735V126.048H309.143V128.088ZM305.807 139.296C304.783 139.296 303.887 139.128 303.119 138.792C302.351 138.44 301.759 137.968 301.343 137.376C300.943 136.784 300.743 136.128 300.743 135.408C300.743 133.904 301.407 132.856 302.735 132.264V132.12H299.327V130.128H312.239V132.12H308.879V132.264C309.551 132.568 310.055 132.992 310.391 133.536C310.727 134.064 310.895 134.688 310.895 135.408C310.895 136.128 310.687 136.784 310.271 137.376C309.855 137.968 309.263 138.44 308.495 138.792C307.727 139.128 306.831 139.296 305.807 139.296ZM305.615 137.256H305.999C306.767 137.256 307.399 137.04 307.895 136.608C308.391 136.176 308.639 135.584 308.639 134.832C308.639 134.08 308.391 133.488 307.895 133.056C307.415 132.624 306.783 132.408 305.999 132.408H305.615C304.847 132.408 304.215 132.624 303.719 133.056C303.239 133.488 302.999 134.08 302.999 134.832C302.999 135.584 303.239 136.176 303.719 136.608C304.215 137.04 304.847 137.256 305.615 137.256ZM305.663 145.104H317.111V147.096H304.799C304.287 147.096 303.895 146.96 303.623 146.688C303.367 146.416 303.239 146.024 303.239 145.512V140.928H305.663V145.104ZM342.381 133.176H338.133V131.16H342.381V125.448H344.805V141.312H342.381V133.176ZM337.749 137.568H327.693V126.72H330.045V130.224H335.373V126.696H337.749V137.568ZM335.373 132.192H330.045V135.6H335.373V132.192ZM345.237 144.936V146.928H332.757C332.245 146.928 331.853 146.792 331.581 146.52C331.325 146.248 331.197 145.856 331.197 145.344V139.8H333.621V144.936H345.237ZM371.828 125.448V146.472H369.404V125.448H371.828ZM356.06 135.48L354.26 133.896C356.196 132.68 357.556 131.576 358.34 130.584C359.124 129.576 359.516 128.472 359.516 127.272V126.24H361.94V127.44C361.94 128.672 361.636 129.808 361.028 130.848L361.172 130.944L361.748 130.488C361.972 130.296 362.204 130.2 362.444 130.2C362.668 130.2 362.884 130.28 363.092 130.44L367.076 133.44L365.276 135.096L361.148 131.736C361.02 131.64 360.892 131.592 360.764 131.592C360.652 131.592 360.532 131.64 360.404 131.736C359.94 132.328 359.356 132.92 358.652 133.512C357.964 134.104 357.1 134.76 356.06 135.48ZM368.132 138.264C366.372 138.536 364.316 138.744 361.964 138.888V146.28H359.564V139.008C357.516 139.088 355.636 139.128 353.924 139.128L353.708 137.088C356.476 137.088 359.116 137.032 361.628 136.92C364.14 136.792 366.236 136.6 367.916 136.344L368.132 138.264ZM43.6 161.216H31.336V159.152H46V160.904C46 164.504 45.648 167.92 44.944 171.152L42.592 170.768C43.248 167.776 43.584 164.592 43.6 161.216ZM48.544 174.104V176.144H28.864V174.104H36.208V166.712H38.632V174.104H48.544ZM52.8784 172.664C53.4704 172.664 53.9104 172.816 54.1984 173.12C54.4864 173.424 54.6304 173.816 54.6304 174.296V174.68C54.6304 175.464 54.4144 176.28 53.9824 177.128C53.5664 177.992 52.9984 178.72 52.2784 179.312H50.3344C50.8464 178.8 51.2704 178.304 51.6064 177.824C51.9424 177.344 52.1984 176.808 52.3744 176.216C51.9584 176.136 51.6464 175.96 51.4384 175.688C51.2304 175.4 51.1264 175.064 51.1264 174.68V174.296C51.1264 173.816 51.2704 173.424 51.5584 173.12C51.8464 172.816 52.2864 172.664 52.8784 172.664ZM81.0153 157.448V178.472H78.5913V165.752H72.5433V163.736H78.5913V157.448H81.0153ZM75.4713 170.12L75.7833 172.112C73.2553 172.624 70.1353 172.88 66.4233 172.88H64.0473V159.128H66.4713V170.84C69.9593 170.84 72.9593 170.6 75.4713 170.12ZM104.598 164.336H101.334V169.184H98.9097V157.448H101.334V162.296H104.598V164.336ZM96.7977 167.744C94.1577 168.256 91.0137 168.512 87.3657 168.512H85.0137V158.552H94.7097V160.592H87.4377V166.544C91.0377 166.544 94.0617 166.312 96.5097 165.848L96.7977 167.744ZM98.9337 170.408H101.334V179.336H89.5977C89.0857 179.336 88.6937 179.2 88.4217 178.928C88.1657 178.656 88.0377 178.264 88.0377 177.752V170.408H90.4377V172.784H98.9337V170.408ZM98.9337 174.824H90.4377V177.272H98.9337V174.824ZM124.34 157.448V178.472H121.988V157.448H124.34ZM117.308 157.784H119.612V177.896H117.308V167.456H114.044C113.58 168.624 112.844 169.712 111.836 170.72C110.844 171.728 109.436 172.856 107.612 174.104L106.004 172.52C107.732 171.384 109.044 170.368 109.94 169.472C110.852 168.576 111.492 167.64 111.86 166.664C112.228 165.672 112.412 164.456 112.412 163.016V161.528H106.652V159.584H114.764V162.968C114.764 163.928 114.708 164.752 114.596 165.44H117.308V157.784ZM153.066 162.056V164.096H149.802V168.416H147.378V157.448H149.802V162.056H153.066ZM143.442 167.696H133.362V158.312H143.442V167.696ZM141.042 160.28H135.762V165.728H141.042V160.28ZM138.762 177.392H150.33V179.48H137.874C137.362 179.48 136.97 179.344 136.698 179.072C136.442 178.8 136.314 178.408 136.314 177.896V173.528H147.354V171.704H136.17V169.64H149.802V175.544H138.762V177.392ZM172.809 157.448V178.472H170.481V167.72H168.081V177.896H165.753V157.784H168.081V165.728H170.481V157.448H172.809ZM162.681 161.048H156.369V159.08H162.681V161.048ZM153.993 163.232H164.769V165.152H162.177V165.272C163.345 165.96 163.929 167.216 163.929 169.04C163.929 170.544 163.513 171.728 162.681 172.592C161.865 173.44 160.785 173.864 159.441 173.864C158.081 173.864 156.993 173.44 156.177 172.592C155.361 171.728 154.953 170.544 154.953 169.04C154.953 167.232 155.529 165.984 156.681 165.296V165.152H153.993V163.232ZM161.649 167.984C161.649 167.168 161.449 166.536 161.049 166.088C160.665 165.64 160.129 165.416 159.441 165.416C158.753 165.416 158.209 165.64 157.809 166.088C157.425 166.536 157.233 167.168 157.233 167.984V169.328C157.233 170.128 157.433 170.76 157.833 171.224C158.249 171.672 158.785 171.896 159.441 171.896C160.097 171.896 160.625 171.672 161.025 171.224C161.441 170.76 161.649 170.128 161.649 169.328V167.984ZM195.863 167.912H192.767V178.472H190.367V157.448H192.767V165.872H195.863V167.912ZM188.855 171.704L189.071 173.648C187.359 173.92 185.271 174.128 182.807 174.272C180.359 174.416 177.855 174.488 175.295 174.488L175.079 172.448C177.175 172.448 179.047 172.416 180.695 172.352V168.584H176.519V158.768H178.871V161.696H184.799V158.744H187.151V168.584H183.047V172.232C185.463 172.104 187.399 171.928 188.855 171.704ZM178.871 166.616H184.799V163.688H178.871V166.616ZM199.574 176.288C198.982 176.288 198.542 176.136 198.254 175.832C197.966 175.512 197.822 175.12 197.822 174.656V174.296C197.822 173.832 197.966 173.448 198.254 173.144C198.542 172.824 198.982 172.664 199.574 172.664C200.166 172.664 200.606 172.824 200.894 173.144C201.182 173.448 201.326 173.832 201.326 174.296V174.656C201.326 175.12 201.182 175.512 200.894 175.832C200.606 176.136 200.166 176.288 199.574 176.288ZM225.239 157.448H227.687V178.472H225.239V157.448ZM210.119 165.968C210.119 163.584 210.639 161.792 211.679 160.592C212.735 159.376 214.135 158.768 215.879 158.768C217.607 158.768 218.991 159.376 220.031 160.592C221.087 161.792 221.615 163.584 221.615 165.968C221.615 168.336 221.087 170.128 220.031 171.344C218.991 172.56 217.607 173.168 215.879 173.168C214.151 173.168 212.759 172.56 211.703 171.344C210.647 170.128 210.119 168.336 210.119 165.968ZM219.023 167.144V164.792C219.023 163.496 218.735 162.512 218.159 161.84C217.583 161.152 216.823 160.808 215.879 160.808C214.919 160.808 214.151 161.152 213.575 161.84C212.999 162.512 212.711 163.496 212.711 164.792V167.144C212.711 168.424 212.999 169.408 213.575 170.096C214.151 170.784 214.919 171.128 215.879 171.128C216.823 171.128 217.583 170.784 218.159 170.096C218.735 169.408 219.023 168.424 219.023 167.144ZM246.637 157.448H249.085V178.472H246.637V157.448ZM232.093 159.104H242.413V172.664H232.093V159.104ZM240.013 170.672V161.096H234.493V170.672H240.013ZM278.363 162.056V164.096H275.099V168.464H272.675V157.448H275.099V162.056H278.363ZM259.643 168.704L257.891 167.168C259.699 165.872 260.987 164.728 261.755 163.736C262.539 162.728 262.955 161.632 263.003 160.448H258.587V158.48H269.795V160.448H265.403C265.387 161.664 265.091 162.776 264.515 163.784L264.659 163.88L265.139 163.52C265.363 163.36 265.595 163.28 265.835 163.28C266.075 163.28 266.299 163.36 266.507 163.52L270.563 166.736L268.787 168.296L264.587 164.84C264.475 164.728 264.339 164.672 264.179 164.672C264.035 164.672 263.915 164.72 263.819 164.816C263.371 165.392 262.819 165.984 262.163 166.592C261.507 167.184 260.667 167.888 259.643 168.704ZM264.011 177.584H275.627V179.48H263.171C262.659 179.48 262.267 179.344 261.995 179.072C261.739 178.8 261.611 178.408 261.611 177.896V173.696H272.699V171.56H261.467V169.688H275.099V175.424H264.011V177.584ZM299.762 167.912H296.522V178.496H294.098V157.472H296.522V165.872H299.762V167.912ZM289.394 160.688H282.386V158.624H289.394V160.688ZM279.29 163.064H292.13V165.056H288.89V165.2C290.25 165.952 290.93 167.288 290.93 169.208C290.93 170.232 290.706 171.128 290.258 171.896C289.826 172.648 289.218 173.232 288.434 173.648C287.666 174.064 286.794 174.272 285.818 174.272C284.842 174.272 283.962 174.064 283.178 173.648C282.41 173.232 281.802 172.648 281.354 171.896C280.906 171.128 280.682 170.232 280.682 169.208C280.682 167.288 281.362 165.96 282.722 165.224V165.056H279.29V163.064ZM288.578 168.224C288.578 167.296 288.33 166.584 287.834 166.088C287.338 165.576 286.666 165.32 285.818 165.32C284.97 165.32 284.29 165.576 283.778 166.088C283.282 166.6 283.034 167.312 283.034 168.224V169.328C283.034 170.24 283.29 170.952 283.802 171.464C284.314 171.976 284.986 172.232 285.818 172.232C286.65 172.232 287.314 171.976 287.81 171.464C288.322 170.952 288.578 170.24 288.578 169.328V168.224ZM315.592 161.216H303.328V159.152H317.992V160.904C317.992 164.504 317.64 167.92 316.936 171.152L314.584 170.768C315.24 167.776 315.576 164.592 315.592 161.216ZM320.536 174.104V176.144H300.856V174.104H308.2V166.712H310.624V174.104H320.536ZM346.095 169.568H343.671V157.448H346.095V169.568ZM328.527 163.592C328.527 162.52 328.767 161.584 329.247 160.784C329.727 159.984 330.391 159.368 331.239 158.936C332.103 158.504 333.079 158.288 334.167 158.288C335.255 158.288 336.223 158.504 337.071 158.936C337.935 159.368 338.607 159.984 339.087 160.784C339.567 161.584 339.807 162.52 339.807 163.592C339.807 164.664 339.567 165.6 339.087 166.4C338.607 167.2 337.935 167.816 337.071 168.248C336.223 168.68 335.255 168.896 334.167 168.896C333.079 168.896 332.103 168.68 331.239 168.248C330.391 167.816 329.727 167.2 329.247 166.4C328.767 165.6 328.527 164.664 328.527 163.592ZM331.095 164.048C331.095 164.928 331.375 165.632 331.935 166.16C332.495 166.672 333.239 166.928 334.167 166.928C335.095 166.928 335.839 166.672 336.399 166.16C336.959 165.632 337.239 164.928 337.239 164.048V163.136C337.239 162.256 336.959 161.56 336.399 161.048C335.839 160.52 335.095 160.256 334.167 160.256C333.239 160.256 332.495 160.52 331.935 161.048C331.375 161.56 331.095 162.256 331.095 163.136V164.048ZM348.159 177.824L346.599 179.456L343.263 176.144C343.151 176.032 343.031 175.976 342.903 175.976C342.839 175.976 342.767 176 342.687 176.048C342.303 176.576 341.807 177.12 341.199 177.68C340.607 178.256 339.855 178.912 338.943 179.648L335.343 176.024C335.231 175.912 335.119 175.856 335.007 175.856C334.927 175.856 334.831 175.896 334.719 175.976C333.983 177.016 332.799 178.216 331.167 179.576L329.607 177.968C331.111 176.816 332.183 175.736 332.823 174.728C333.463 173.72 333.783 172.616 333.783 171.416V170.552H336.087V171.488C336.087 172.8 335.831 173.96 335.319 174.968L335.415 175.04L335.823 174.728C336.015 174.584 336.215 174.512 336.423 174.512C336.663 174.512 336.863 174.592 337.023 174.752L339.111 176.768C340.071 175.952 340.751 175.144 341.151 174.344C341.551 173.528 341.751 172.568 341.751 171.464V170.552H344.031V171.584C344.031 172.912 343.775 174.08 343.263 175.088L343.359 175.136L343.767 174.824C343.975 174.664 344.191 174.584 344.415 174.584C344.639 174.584 344.831 174.656 344.991 174.8L348.159 177.824ZM367.445 157.448V178.472H365.021V166.736H361.085C360.973 168.864 360.405 170.472 359.381 171.56C358.373 172.632 357.061 173.168 355.445 173.168C353.733 173.168 352.357 172.56 351.317 171.344C350.277 170.128 349.757 168.336 349.757 165.968C349.757 163.584 350.269 161.792 351.293 160.592C352.333 159.376 353.717 158.768 355.445 158.768C356.997 158.768 358.269 159.264 359.261 160.256C360.269 161.248 360.869 162.728 361.061 164.696H365.021V157.448H367.445ZM358.565 164.768C358.565 163.488 358.277 162.512 357.701 161.84C357.141 161.152 356.389 160.808 355.445 160.808C354.501 160.808 353.741 161.152 353.165 161.84C352.605 162.512 352.325 163.488 352.325 164.768V167.168C352.325 168.448 352.605 169.432 353.165 170.12C353.741 170.792 354.501 171.128 355.445 171.128C356.389 171.128 357.141 170.792 357.701 170.12C358.277 169.432 358.565 168.448 358.565 167.168V164.768ZM372.835 171.2L371.995 164.024V159.248H374.827V164.024L374.035 171.2H372.835ZM373.435 176.288C372.827 176.288 372.379 176.144 372.091 175.856C371.819 175.552 371.683 175.168 371.683 174.704V174.296C371.683 173.832 371.819 173.456 372.091 173.168C372.379 172.864 372.827 172.712 373.435 172.712C374.043 172.712 374.483 172.864 374.755 173.168C375.043 173.456 375.187 173.832 375.187 174.296V174.704C375.187 175.168 375.043 175.552 374.755 175.856C374.483 176.144 374.043 176.288 373.435 176.288Z" fill="#292A2D"/>
</g>
<defs>
<filter id="filter0_dd_1330_8351" x="0" y="0" width="429" height="216" filterUnits="userSpaceOnUse" color-interpolation-filters="sRGB">
<feFlood flood-opacity="0" result="BackgroundImageFix"/>
<feColorMatrix in="SourceAlpha" type="matrix" values="0 0 0 0 0 0 0 0 0 0 0 0 0 0 0 0 0 0 127 0" result="hardAlpha"/>
<feOffset dy="4"/>
<feGaussianBlur stdDeviation="4"/>
<feComposite in2="hardAlpha" operator="out"/>
<feColorMatrix type="matrix" values="0 0 0 0 0 0 0 0 0 0 0 0 0 0 0 0 0 0 0.08 0"/>
<feBlend mode="normal" in2="BackgroundImageFix" result="effect1_dropShadow_1330_8351"/>
<feColorMatrix in="SourceAlpha" type="matrix" values="0 0 0 0 0 0 0 0 0 0 0 0 0 0 0 0 0 0 127 0" result="hardAlpha"/>
<feOffset/>
<feGaussianBlur stdDeviation="1"/>
<feComposite in2="hardAlpha" operator="out"/>
<feColorMatrix type="matrix" values="0 0 0 0 0 0 0 0 0 0 0 0 0 0 0 0 0 0 0.05 0"/>
<feBlend mode="normal" in2="effect1_dropShadow_1330_8351" result="effect2_dropShadow_1330_8351"/>
<feBlend mode="normal" in="SourceGraphic" in2="effect2_dropShadow_1330_8351" result="shape"/>
</filter>
</defs>
</svg>
