<svg width="56" height="56" viewBox="0 0 56 56" fill="none" xmlns="http://www.w3.org/2000/svg">
<g clip-path="url(#clip0_589_4946)">
<path d="M34.8596 41.2679C32.6365 41.2679 30.7706 41.2306 28.9048 41.2772C23.0345 41.4217 17.169 41.7622 11.294 41.8228C9.73363 41.8368 8.17794 42.2331 6.61755 41.8088C1.1045 40.2979 -0.366584 37.0897 0.0705121 32.3286C0.427709 28.4443 2.41579 25.4225 5.80446 23.3941C8.15444 21.9905 10.6971 21.6314 13.2539 22.6666C16.8729 24.1309 19.392 22.8019 21.6574 19.5144C24.1813 15.8631 27.6264 13.9233 31.7905 13.1399C34.5682 12.6176 37.1814 13.6155 39.5643 15.0378C44.8517 18.1994 47.4367 23.1376 48.7339 28.9152C49.1381 30.7199 49.1052 32.5525 48.936 34.3431C48.6493 37.4441 46.2523 38.9829 43.8177 40.3679C42.8542 40.9181 41.7638 41.1233 40.617 41.0254C38.5726 40.8575 36.5563 41.5057 34.8643 41.2679H34.8596Z" fill="#E7DDF2"/>
<path d="M33.9807 28.435C30.6343 28.2998 27.476 27.2506 24.8769 24.8211C23.998 24.0004 23.3118 23.0304 23.2084 21.7807C23.1708 21.3237 23.3494 20.918 23.8476 20.8434C24.1954 20.7921 24.515 20.9973 24.6278 21.3564C25.3563 23.6833 27.2128 24.8491 29.2901 25.7257C31.5226 26.6677 33.8397 27.0221 36.2649 26.4532C38.9063 25.8376 41.0447 24.7045 41.7215 21.8227C41.8578 21.2351 42.0975 20.5916 42.9059 20.8901C43.6015 21.1465 43.5921 21.7854 43.4464 22.3963C42.9388 24.49 41.6886 26.0242 39.7992 27.0407C38.0462 27.9827 36.138 28.3557 33.9854 28.4397L33.9807 28.435Z" fill="white"/>
<path d="M56 35.1638C55.9577 35.9938 55.2292 36.2736 54.4631 36.4415C53.6688 36.6187 52.6489 36.5767 52.6019 35.6534C52.4515 32.6271 50.266 31.1115 48.2639 29.4282C48.1323 29.3209 47.9913 29.223 47.8691 29.1064C47.5495 28.808 47.2393 28.4629 47.5119 28.0199C47.8597 27.4556 48.3767 27.5676 48.8373 27.8707C50.407 28.9059 51.7935 30.1416 52.9591 31.6198C53.6218 32.4592 53.9837 33.5737 55.2809 33.8115C55.8026 33.9094 56.0094 34.4737 55.9953 35.1638H56Z" fill="black"/>
<path d="M23.3635 31.4241C24.1531 31.5733 24.609 32.1096 25.1495 32.5059C26.7099 33.6577 27.8614 35.3318 29.8119 35.9986C30.437 36.2131 30.733 36.7494 30.5733 37.4255C30.4041 38.1436 29.9529 38.6193 29.2009 38.7545C28.5617 38.8664 27.8238 38.7498 27.6546 38.1576C26.9543 35.6675 24.7453 34.5111 23.105 32.8557C22.7948 32.5386 22.5551 32.1655 22.7901 31.7412C22.8888 31.564 23.2037 31.5127 23.3635 31.4287V31.4241Z" fill="black"/>
<path d="M10.7206 24.0004C11.1765 23.9817 11.4538 24.1589 11.5478 24.5133C11.7264 25.1988 11.0167 26.206 10.3916 26.1594C9.99682 26.1314 9.79003 25.8236 9.76653 25.4879C9.71953 24.7511 10.0156 24.1962 10.7206 24.0004Z" fill="black"/>
<path d="M6.42014 27.8614C6.07234 27.8894 5.78565 27.7542 5.75745 27.3532C5.73395 26.9848 5.94545 26.6957 6.32614 26.719C6.51884 26.7283 6.78204 26.9381 6.85724 27.1247C7.00764 27.4744 6.83844 27.7542 6.41544 27.8661L6.42014 27.8614Z" fill="black"/>
<path d="M7.97585 24.5599C7.94765 24.933 7.75965 25.2128 7.37895 25.2174C6.99826 25.2174 6.78676 24.9376 6.79146 24.5646C6.79146 24.2895 6.98416 24.0936 7.25205 24.0517C7.63745 23.991 7.88655 24.1776 7.97115 24.5599H7.97585Z" fill="black"/>
</g>
<defs>
<clipPath id="clip0_589_4946">
<rect width="56" height="56" fill="white"/>
</clipPath>
</defs>
</svg>
