<svg width="36" height="36" viewBox="0 0 36 36" fill="none" xmlns="http://www.w3.org/2000/svg">
<g id="Layer_1" clip-path="url(#clip0_1330_8517)">
<path id="Vector" d="M0.0065625 16.6322C0.0065625 11.1863 0.0084375 5.73938 0 0.293438C0 0.0646875 0.03 0 0.282187 0C12.0984 0.0084375 23.9147 0.0084375 35.73 0.001875C35.9494 0.001875 35.9981 0.0515625 35.9981 0.27C35.9916 12.0863 35.9916 23.9025 36 35.7178C36 35.9691 35.9344 35.9991 35.7066 35.9991C30.2372 35.9916 24.7669 35.9934 19.2975 35.9934C19.5741 35.8444 19.8872 35.9025 20.1788 35.8678C22.2609 35.6203 24.225 34.9847 26.085 34.0491C28.2881 32.94 30.1631 31.4138 31.7381 29.4994C33.0928 27.8541 34.1466 26.0447 34.86 24.0497C35.6437 21.8587 35.9934 19.5947 35.8659 17.2537C35.8003 16.0444 35.64 14.8584 35.3634 13.6838C35.0991 12.5597 34.6941 11.4862 34.2225 10.4362C34.0575 10.0678 33.7509 9.94219 33.4331 10.095C33.1247 10.2431 33.0356 10.5459 33.1941 10.8956C33.2803 11.0859 33.3647 11.2781 33.45 11.4694C34.3387 13.4728 34.7184 15.5869 34.7991 17.7628C34.8253 18.4734 34.7334 19.1775 34.6697 19.8834C34.5684 20.9991 34.3397 22.0856 33.9928 23.1459C33.2991 25.2703 32.2444 27.1931 30.7894 28.9022C29.7375 30.1369 28.5581 31.2216 27.2006 32.1C24.9788 33.5372 22.5656 34.455 19.9163 34.7522C18.7163 34.8863 17.5266 34.9181 16.3303 34.7963C15.1472 34.6763 13.9866 34.4391 12.8541 34.0716C10.845 33.42 9.01594 32.4347 7.37438 31.1072C6.00375 29.9981 4.83281 28.7034 3.87187 27.2259C2.59781 25.2666 1.74844 23.1347 1.36875 20.8247C1.27406 20.2519 1.1625 19.6763 1.14094 19.0988C1.10438 18.0975 1.14375 17.0962 1.25625 16.095C1.45406 14.34 1.91719 12.6656 2.65219 11.0663C3.71063 8.76281 5.20406 6.79125 7.15219 5.15719C8.75531 3.81281 10.5394 2.80313 12.51 2.11781C14.3878 1.46531 16.3275 1.17844 18.3141 1.19531C23.1591 1.38281 27.2269 3.23531 30.4762 6.84656C29.8931 6.70875 29.3334 6.51844 28.77 6.33469C28.3988 6.21375 28.1109 6.3525 27.9891 6.70125C27.885 6.9975 28.0369 7.275 28.395 7.39594C29.5884 7.8 30.7828 8.20125 31.9809 8.59125C32.5425 8.77406 32.8913 8.44125 32.7984 7.85812C32.6813 7.12219 32.5884 6.3825 32.4834 5.64563C32.3916 5.00063 32.3025 4.35469 32.2003 3.71063C32.1478 3.37688 31.8872 3.15469 31.6069 3.17625C31.2778 3.20156 31.0706 3.43313 31.0884 3.80063C31.1016 4.07906 31.1541 4.35469 31.1916 4.63125C31.2525 5.08125 31.3144 5.53031 31.3762 5.98031C30.9206 5.58094 30.5175 5.17969 30.1003 4.7925C28.0134 2.85844 25.5956 1.5225 22.8656 0.748125C21.3806 0.327188 19.8647 0.0815625 18.3159 0.088125C16.9931 0.03 15.6863 0.16875 14.3925 0.433125C11.2238 1.08094 8.43 2.49375 6.01969 4.63969C4.11281 6.33656 2.62219 8.35406 1.57969 10.6913C0.91125 12.1884 0.441563 13.7428 0.207188 15.3703C0.14625 15.7903 0.15 16.2234 0.0103125 16.6312L0.0065625 16.6322ZM10.1728 10.8197C9.72281 10.8881 9.36656 11.1244 9.05719 11.4431C8.62125 11.8772 8.42344 12.4059 8.42438 13.0162C8.42438 16.3097 8.45156 19.6031 8.41125 22.8966C8.39438 24.2662 9.4125 25.3622 10.8703 25.3416C13.4278 25.305 15.9853 25.3313 18.5428 25.3313C20.7966 25.3313 23.0513 25.3444 25.305 25.3247C26.1591 25.3172 26.8144 24.9169 27.2147 24.1406C27.4078 23.8125 27.5034 23.4572 27.5034 23.0775C27.5034 19.7203 27.5034 16.3631 27.5053 13.005C27.5053 12.8278 27.4903 12.6563 27.4247 12.4913C27.375 12.0703 27.1472 11.7441 26.8725 11.4413C26.5697 11.1084 26.2069 10.8844 25.755 10.8197C25.5778 10.7522 25.3941 10.7381 25.2056 10.7381C20.3775 10.74 15.5503 10.74 10.7222 10.7381C10.5328 10.7381 10.35 10.7513 10.1728 10.8197Z" fill="#FEFEFE"/>
<path id="Vector_2" d="M0.00679688 16.6321C0.146484 16.2234 0.142734 15.7912 0.203672 15.3712C0.438047 13.7437 0.908672 12.1893 1.57617 10.6921C2.61867 8.35494 4.11023 6.33744 6.01617 4.64056C8.42742 2.49369 11.2212 1.08087 14.3899 0.433061C15.6837 0.168686 16.9905 0.0299356 18.3134 0.0880606C17.8287 0.455561 17.8287 0.813686 18.3134 1.19525C16.3268 1.17837 14.388 1.46525 12.5093 2.11775C10.5387 2.80212 8.75461 3.81181 7.15148 5.15712C5.20336 6.79118 3.70992 8.76181 2.65148 11.0662C1.91648 12.6656 1.45242 14.3409 1.25555 16.0949C1.14305 17.0962 1.10273 18.0965 1.14023 19.0987C1.1618 19.6762 1.27336 20.2518 1.36805 20.8246C1.74773 23.1346 2.59711 25.2665 3.87117 27.2259C4.83211 28.7034 6.00305 29.999 7.37367 31.1071C9.01523 32.4346 10.8443 33.419 12.8534 34.0715C13.9859 34.439 15.1465 34.6762 16.3296 34.7962C17.5259 34.9181 18.7155 34.8862 19.9155 34.7521C22.5649 34.4559 24.978 33.5381 27.1999 32.0999C28.5574 31.2215 29.7377 30.1377 30.7887 28.9021C32.2437 27.1931 33.2984 25.2702 33.9921 23.1459C34.338 22.0865 34.5668 20.999 34.669 19.8834C34.7337 19.1765 34.8246 18.4724 34.7984 17.7627C34.7187 15.5868 34.338 13.4727 33.4493 11.4693C33.364 11.2781 33.2796 11.0868 33.1934 10.8956C33.0349 10.5468 33.124 10.244 33.4324 10.0949C33.7502 9.94212 34.0559 10.0677 34.2218 10.4362C34.6934 11.4862 35.0984 12.5596 35.3627 13.6837C35.6393 14.8593 35.7996 16.0443 35.8652 17.2537C35.9927 19.5946 35.6421 21.8587 34.8593 24.0496C34.1459 26.0446 33.0921 27.8531 31.7374 29.4993C30.1624 31.4127 28.2874 32.9399 26.0843 34.049C24.2243 34.9846 22.2602 35.6202 20.178 35.8677C19.8865 35.9024 19.5743 35.8443 19.2968 35.9934H16.5612C16.5218 35.9718 16.4843 35.9324 16.444 35.9306C15.2665 35.8565 14.119 35.6184 12.9893 35.2902C10.264 34.4999 7.86117 33.1349 5.77898 31.2074C4.39055 29.9221 3.22242 28.4596 2.29805 26.8059C1.25836 24.9468 0.575859 22.964 0.209297 20.8659C0.130547 20.414 0.147422 19.949 0.00585938 19.5074V16.6312L0.00679688 16.6321Z" fill="#D9FB9C"/>
<path id="Vector_3" d="M0.0065625 19.5085C0.148125 19.9501 0.13125 20.4151 0.21 20.867C0.576562 22.9642 1.25906 24.947 2.29875 26.807C3.22312 28.4607 4.39125 29.9232 5.77969 31.2085C7.86094 33.1351 10.2647 34.501 12.99 35.2914C14.1197 35.6185 15.2672 35.8576 16.4447 35.9317C16.485 35.9345 16.5234 35.9729 16.5619 35.9945C11.1375 35.9945 5.71219 35.9926 0.287812 36.001C0.0478125 36.001 0 35.9542 0 35.7132C0.0084375 30.3123 0.0065625 24.9104 0.0065625 19.5095V19.5085Z" fill="#FEFEFE"/>
<path id="Vector_4" d="M26.8736 11.4414C27.1473 11.7442 27.3761 12.0704 27.4258 12.4914C27.2795 12.4998 27.2073 12.6179 27.1192 12.7061C25.2864 14.537 23.4573 16.3736 21.617 18.1961C21.4183 18.3929 21.4567 18.4829 21.6311 18.6564C23.3954 20.4076 25.1504 22.1682 26.9092 23.9251C26.9973 24.0132 27.0695 24.1323 27.2158 24.1398C26.8154 24.9161 26.1601 25.3164 25.3061 25.3239C23.0523 25.3436 20.7986 25.3304 18.5439 25.3304C15.9864 25.3304 13.4279 25.3042 10.8714 25.3407C9.41357 25.3614 8.39544 24.2654 8.41232 22.8957C8.45263 19.6032 8.42544 16.3089 8.42544 13.0154C8.42544 12.4051 8.62232 11.8764 9.05825 11.4423C9.53357 11.8829 10.0211 12.3114 10.4814 12.767C11.8558 14.1282 13.2198 15.5007 14.5876 16.8686C14.9504 17.2314 15.3142 17.5951 15.6779 17.9579C16.5573 18.8354 18.0283 19.1223 19.1739 18.6639C19.7739 18.4239 20.2501 18.0161 20.6945 17.5764C22.4936 15.797 24.2758 14.0017 26.0664 12.2139C26.3298 11.9504 26.6045 11.6982 26.8736 11.4404V11.4414ZM25.5142 24.2082C25.472 24.1314 25.4617 24.0976 25.4392 24.0751C23.8698 22.5029 22.2986 20.9336 20.7311 19.3604C20.6017 19.2311 20.5079 19.2264 20.3411 19.3248C18.7923 20.2351 17.2211 20.2501 15.6629 19.3604C15.4023 19.2114 15.2861 19.2695 15.107 19.4495C13.6408 20.9261 12.167 22.3951 10.697 23.8679C10.6173 23.9476 10.4608 24.0245 10.5001 24.1342C10.5526 24.2814 10.727 24.2045 10.8451 24.2045C15.2992 24.2082 19.7533 24.2082 24.2073 24.2082H25.5151H25.5142ZM9.54669 18.9161C9.54669 20.2717 9.54575 21.6273 9.5495 22.9829C9.5495 23.0795 9.49044 23.2201 9.62169 23.2604C9.71357 23.2886 9.77544 23.1723 9.84013 23.1076C11.3373 21.6123 12.8298 20.1142 14.3326 18.6245C14.4986 18.4595 14.4892 18.3732 14.3289 18.2148C13.0829 16.982 11.8445 15.7407 10.6079 14.4976C10.4017 14.2904 10.1795 14.1723 9.88888 14.2914C9.59075 14.4132 9.54388 14.6645 9.54575 14.9532C9.55138 16.2742 9.54857 17.5942 9.54857 18.9151L9.54669 18.9161Z" fill="#FED68C"/>
<path id="Vector_5" d="M10.1728 10.8196C10.35 10.7521 10.5338 10.738 10.7222 10.738C15.5503 10.7399 20.3775 10.7399 25.2056 10.738C25.395 10.738 25.5778 10.7512 25.755 10.8187C25.7428 10.963 25.6266 11.0362 25.5375 11.1252C23.5631 13.1015 21.5897 15.0777 19.6125 17.0502C18.6937 17.9662 17.2331 17.9662 16.3144 17.0502C14.3372 15.0777 12.3637 13.1015 10.3894 11.1252C10.3003 11.0362 10.1841 10.963 10.1719 10.8187L10.1728 10.8196Z" fill="#FEF7C2"/>
<path id="Vector_6" d="M27.2157 24.1396C27.0685 24.1321 26.9973 24.014 26.9092 23.925C25.1504 22.1681 23.3945 20.4075 21.631 18.6562C21.4567 18.4828 21.4182 18.3928 21.617 18.1959C23.4582 16.3725 25.2864 14.5368 27.1192 12.7059C27.2082 12.6178 27.2795 12.4996 27.4257 12.4912C27.4914 12.6562 27.5064 12.8278 27.5064 13.005C27.5045 16.3621 27.5054 19.7193 27.5045 23.0775C27.5045 23.4571 27.4089 23.8125 27.2157 24.1406V24.1396Z" fill="#FEE79F"/>
<path id="Vector_7" d="M18.3132 1.19542C17.8285 0.813855 17.8285 0.456667 18.3132 0.0882297C19.8629 0.0826047 21.3779 0.327292 22.8629 0.74823C25.5929 1.5226 28.0107 2.85854 30.0976 4.7926C30.5157 5.17979 30.9179 5.5801 31.3735 5.98042C31.3117 5.53042 31.2488 5.08135 31.1888 4.63135C31.1513 4.35479 31.0988 4.07823 31.0857 3.80073C31.0679 3.43323 31.2751 3.20073 31.6042 3.17635C31.8845 3.15479 32.1451 3.37698 32.1976 3.71073C32.2998 4.35479 32.3888 5.00073 32.4807 5.64573C32.5857 6.38354 32.6785 7.12323 32.7957 7.85823C32.8885 8.44135 32.5398 8.77417 31.9782 8.59135C30.7801 8.20135 29.5857 7.8001 28.3923 7.39604C28.0342 7.2751 27.8823 6.9976 27.9863 6.70135C28.1082 6.35354 28.396 6.21385 28.7673 6.33479C29.3298 6.51854 29.8904 6.70885 30.4735 6.84667C27.2242 3.23542 23.1563 1.38292 18.3113 1.19542H18.3132Z" fill="#B3E4A0"/>
<path id="Vector_8" d="M10.1728 10.8196C10.185 10.964 10.3012 11.0371 10.3903 11.1261C12.3647 13.1024 14.3381 15.0786 16.3153 17.0511C17.2331 17.9671 18.6947 17.9671 19.6134 17.0511C21.5906 15.0786 23.564 13.1024 25.5384 11.1261C25.6275 11.0371 25.7437 10.964 25.7559 10.8196C26.2078 10.8852 26.5706 11.1093 26.8734 11.4421C26.6044 11.6999 26.3297 11.9521 26.0662 12.2155C24.2756 14.0033 22.4925 15.7986 20.6944 17.578C20.25 18.0177 19.7737 18.4255 19.1737 18.6655C18.0281 19.123 16.5581 18.8371 15.6778 17.9596C15.314 17.5968 14.9512 17.233 14.5875 16.8702C13.2197 15.5024 11.8556 14.1299 10.4812 12.7686C10.0209 12.313 9.53342 11.8846 9.05811 11.444C9.36842 11.1252 9.72373 10.889 10.1737 10.8205L10.1728 10.8196Z" fill="#FEE79F"/>
<path id="Vector_9" d="M25.5139 24.2081H24.2061C19.752 24.2081 15.298 24.2081 10.8439 24.2043C10.7258 24.2043 10.5514 24.2812 10.4989 24.134C10.4595 24.0243 10.6161 23.9474 10.6958 23.8678C12.1658 22.3949 13.6395 20.9259 15.1058 19.4493C15.2849 19.2693 15.4011 19.2112 15.6617 19.3603C17.2199 20.2499 18.7911 20.234 20.3399 19.3246C20.5067 19.2262 20.6005 19.2309 20.7299 19.3603C22.2974 20.9334 23.8686 22.5037 25.438 24.0749C25.4605 24.0974 25.4708 24.1312 25.513 24.2081H25.5139Z" fill="#FEE79F"/>
<path id="Vector_10" d="M9.54677 18.9159C9.54677 17.5949 9.55052 16.274 9.54396 14.954C9.54302 14.6643 9.58896 14.414 9.88708 14.2921C10.1777 14.1731 10.3999 14.2912 10.6061 14.4984C11.8427 15.7406 13.0811 16.9818 14.3271 18.2156C14.4874 18.3749 14.4977 18.4602 14.3308 18.6252C12.828 20.114 11.3355 21.6131 9.83833 23.1084C9.77365 23.1731 9.71177 23.2893 9.6199 23.2612C9.48958 23.2209 9.54864 23.0802 9.54771 22.9837C9.54396 21.6281 9.54489 20.2724 9.54489 18.9168L9.54677 18.9159Z" fill="#FEE79F"/>
</g>
<defs>
<clipPath id="clip0_1330_8517">
<rect width="36" height="36" fill="white"/>
</clipPath>
</defs>
</svg>
