<svg width="208" height="36" viewBox="0 0 208 36" fill="none" xmlns="http://www.w3.org/2000/svg">
<g clip-path="url(#clip0_1070_11210)">
<path d="M15.9941 35.9546C22.2628 35.9546 27.3447 34.7912 27.3447 33.356C27.3447 31.9208 22.2628 30.7573 15.9941 30.7573C9.72528 30.7573 4.64343 31.9208 4.64343 33.356C4.64343 34.7912 9.72528 35.9546 15.9941 35.9546Z" fill="#5843A8"/>
<path d="M15.9941 33.903C24.444 33.903 31.2941 27.2134 31.2941 18.9613C31.2941 10.7092 24.444 4.01953 15.9941 4.01953C7.54414 4.01953 0.694092 10.7092 0.694092 18.9613C0.694092 27.2134 7.54414 33.903 15.9941 33.903Z" fill="url(#paint0_radial_1070_11210)"/>
<path d="M15.9941 23.5922C22.6157 23.5922 27.9836 18.3109 27.9836 11.7961C27.9836 5.2813 22.6157 0 15.9941 0C9.37251 0 4.00464 5.2813 4.00464 11.7961C4.00464 18.3109 9.37251 23.5922 15.9941 23.5922Z" fill="url(#paint1_radial_1070_11210)"/>
<path d="M15.9941 21.8448C18.4648 21.8448 20.4678 20.8667 20.4678 19.6603C20.4678 18.4538 18.4648 17.4758 15.9941 17.4758C13.5233 17.4758 11.5204 18.4538 11.5204 19.6603C11.5204 20.8667 13.5233 21.8448 15.9941 21.8448Z" fill="url(#paint2_radial_1070_11210)"/>
<path d="M10.7795 29.8747C10.7008 29.8747 10.6203 29.8538 10.5469 29.8118C8.35836 28.5116 7.52088 26.0458 7.48688 25.941C7.41172 25.712 7.54057 25.4656 7.77499 25.3905C8.00941 25.3171 8.26172 25.4411 8.33867 25.6718C8.34583 25.6945 9.11351 27.9367 11.0121 29.0656C11.2233 29.1914 11.2895 29.4588 11.1625 29.665C11.0784 29.7996 10.9316 29.8747 10.7795 29.8747Z" fill="#241561"/>
<path d="M10.3876 30.0828C10.7652 30.2768 11.234 30.137 11.4327 29.7665C11.6313 29.3978 11.4881 28.9399 11.1088 28.746C10.7312 28.552 10.2624 28.6918 10.0637 29.0623C9.86509 29.431 10.0082 29.8889 10.3876 30.0828Z" fill="#241561"/>
<path d="M21.2086 29.8749C21.0583 29.8749 20.9098 29.7997 20.8256 29.6652C20.6968 29.459 20.7648 29.1898 20.976 29.0658C22.8746 27.9368 23.6423 25.6947 23.6494 25.672C23.7264 25.443 23.9787 25.3172 24.2131 25.3924C24.4475 25.4675 24.5764 25.7122 24.5012 25.9411C24.4672 26.046 23.6298 28.5118 21.4412 29.812C21.3679 29.8557 21.2891 29.8749 21.2086 29.8749Z" fill="#241561"/>
<path d="M20.8775 28.7461C20.4999 28.9401 20.355 29.398 20.5536 29.7667C20.7522 30.1354 21.2211 30.277 21.5987 30.083C21.9762 29.889 22.1212 29.4312 21.9226 29.0624C21.7239 28.6937 21.2551 28.5521 20.8775 28.7461Z" fill="#241561"/>
<path d="M12.5332 18.748C12.4795 17.9948 12.9394 17.5841 13.6051 17.5247C14.0918 17.481 14.5893 17.7274 14.6269 18.346C14.6716 19.0835 14.2117 19.5047 13.5478 19.5763C13.0414 19.6305 12.5976 19.3404 12.5332 18.748Z" fill="#241561"/>
<path d="M19.4548 18.748C19.5085 17.9948 19.0486 17.5841 18.3829 17.5247C17.8962 17.481 17.3987 17.7274 17.3612 18.346C17.3164 19.0835 17.7763 19.5047 18.4402 19.5763C18.9466 19.6305 19.3904 19.3404 19.4548 18.748Z" fill="#241561"/>
<path d="M12.9448 16.3452C12.8356 16.3452 12.7247 16.3382 12.6155 16.326C10.7008 16.111 9.65396 14.0769 9.60922 13.9895C9.50006 13.7728 9.59132 13.5106 9.81322 13.404C10.0351 13.2974 10.3017 13.3866 10.4127 13.6033C10.4288 13.6347 11.2985 15.3002 12.7229 15.4592C13.5371 15.5501 14.4122 15.1341 15.3266 14.2236C15.2872 14.1765 15.2496 14.1275 15.2139 14.0786C13.9147 12.345 14.5428 11.5044 14.8739 11.2231C15.4322 10.7495 16.377 10.7984 16.9389 11.3314C17.202 11.5813 17.9571 12.5268 16.5739 14.173C16.5631 14.1869 16.5506 14.2009 16.5399 14.2149C17.5527 15.1027 18.8393 15.3735 19.8003 15.2145C20.3174 15.1289 21.2354 14.8353 21.554 13.8217C21.6273 13.591 21.8779 13.4617 22.1123 13.5316C22.3485 13.6033 22.4809 13.8462 22.4075 14.0769C22.0711 15.1446 21.1746 15.8716 19.947 16.0743C18.5584 16.3033 17.0534 15.8262 15.9422 14.8598C14.9401 15.8471 13.9362 16.3452 12.9466 16.3452H12.9448ZM15.8133 11.7683C15.6773 11.7683 15.5503 11.805 15.459 11.8819C15.2389 12.0689 15.23 12.6194 15.9296 13.5561C16.4951 12.8605 16.6383 12.2664 16.3126 11.957C16.182 11.833 15.9905 11.7683 15.8115 11.7683H15.8133Z" fill="#241561"/>
<path d="M15.9941 24.4659C14.8595 24.4659 13.9362 23.5642 13.9362 22.4562V21.6698C13.9362 21.4776 14.0972 21.3203 14.2941 21.3203H17.6941C17.8909 21.3203 18.0519 21.4776 18.0519 21.6698V22.4562C18.0519 23.5642 17.1286 24.4659 15.9941 24.4659ZM14.6519 22.0193V22.4562C14.6519 23.1797 15.2532 23.7669 15.9941 23.7669C16.7349 23.7669 17.3362 23.1797 17.3362 22.4562V22.0193H14.6519Z" fill="#241561"/>
<path d="M13.7573 18.4545C13.9154 18.4545 14.0436 18.3293 14.0436 18.1749C14.0436 18.0204 13.9154 17.8953 13.7573 17.8953C13.5991 17.8953 13.4709 18.0204 13.4709 18.1749C13.4709 18.3293 13.5991 18.4545 13.7573 18.4545Z" fill="#F3F0FF"/>
<path d="M18.231 18.4545C18.3891 18.4545 18.5173 18.3293 18.5173 18.1749C18.5173 18.0204 18.3891 17.8953 18.231 17.8953C18.0729 17.8953 17.9447 18.0204 17.9447 18.1749C17.9447 18.3293 18.0729 18.4545 18.231 18.4545Z" fill="#F3F0FF"/>
</g>
<path d="M197.571 30.2113C196.535 30.2113 195.671 30.0097 194.979 29.6065C194.288 29.2033 193.943 28.6081 193.943 27.8209C193.943 27.1873 194.24 26.6881 194.835 26.3233C195.431 25.9585 196.131 25.7953 196.938 25.8337C197.783 25.8721 198.435 25.8337 198.896 25.7185C199.376 25.6033 199.741 25.3921 199.991 25.0849C198.224 25.0849 196.813 24.8353 195.757 24.3361C194.701 23.8177 193.933 23.0209 193.453 21.9457C192.992 20.8513 192.762 19.4113 192.762 17.6257C192.762 16.0897 192.992 14.8513 193.453 13.9105C193.933 12.9505 194.682 12.4705 195.699 12.4705C196.602 12.4705 197.264 12.7297 197.687 13.2481C198.128 13.7473 198.349 14.4001 198.349 15.2065L198.32 16.4737C198.301 16.7233 198.291 17.0881 198.291 17.5681C198.291 18.4897 198.407 19.1905 198.637 19.6705C198.867 20.1313 199.328 20.3617 200.019 20.3617C200.711 20.3617 201.171 20.1313 201.402 19.6705C201.632 19.1905 201.747 18.4993 201.747 17.5969C201.747 17.1169 201.738 16.7521 201.719 16.5025L201.69 15.2641C201.69 14.4001 201.901 13.7185 202.323 13.2193C202.765 12.7201 203.437 12.4705 204.339 12.4705C205.357 12.4705 206.106 12.9505 206.586 13.9105C207.066 14.8705 207.306 16.1089 207.306 17.6257C207.306 19.8913 206.979 21.9745 206.327 23.8753C205.693 25.7569 204.647 27.2833 203.187 28.4545C201.747 29.6257 199.875 30.2113 197.571 30.2113Z" fill="#8573C9"/>
<path d="M181.95 25.9488C180.721 25.9488 179.895 25.2288 179.473 23.7888C179.07 22.3488 178.868 20.3616 178.868 17.8272C178.868 16.6752 178.916 15.7152 179.012 14.9472C179.127 14.16 179.386 13.4976 179.79 12.96C180.212 12.4032 180.855 12.1248 181.719 12.1248C182.257 12.1248 182.727 12.2496 183.13 12.4992C183.553 12.7488 183.822 13.104 183.937 13.5648C184.359 13.1808 184.906 12.8928 185.578 12.7008C186.25 12.5088 186.97 12.4128 187.738 12.4128C188.353 12.4128 188.977 12.5664 189.61 12.8736C190.263 13.1808 190.801 13.6032 191.223 14.1408C191.665 14.6592 191.886 15.2256 191.886 15.84C191.886 16.4544 191.665 17.0016 191.223 17.4816C190.801 17.9424 190.234 18.1728 189.524 18.1728C189.294 18.1728 189.073 18.144 188.862 18.0864C188.67 18.0288 188.497 17.9712 188.343 17.9136C187.959 17.76 187.652 17.6832 187.422 17.6832C186.673 17.6832 186.01 17.9808 185.434 18.576C184.878 19.152 184.599 19.9008 184.599 20.8224C184.599 21.84 184.561 22.6848 184.484 23.3568C184.407 24.0288 184.177 24.6336 183.793 25.1712C183.409 25.6896 182.794 25.9488 181.95 25.9488Z" fill="#8573C9"/>
<path d="M168.056 25.9488C166.827 25.9488 166.002 25.2288 165.579 23.7888C165.176 22.3488 164.974 20.3616 164.974 17.8272C164.974 16.6752 165.022 15.7152 165.118 14.9472C165.234 14.16 165.493 13.4976 165.896 12.96C166.318 12.4032 166.962 12.1248 167.826 12.1248C168.363 12.1248 168.834 12.2496 169.237 12.4992C169.659 12.7488 169.928 13.104 170.043 13.5648C170.466 13.1808 171.013 12.8928 171.685 12.7008C172.357 12.5088 173.077 12.4128 173.845 12.4128C174.459 12.4128 175.083 12.5664 175.717 12.8736C176.37 13.1808 176.907 13.6032 177.33 14.1408C177.771 14.6592 177.992 15.2256 177.992 15.84C177.992 16.4544 177.771 17.0016 177.33 17.4816C176.907 17.9424 176.341 18.1728 175.63 18.1728C175.4 18.1728 175.179 18.144 174.968 18.0864C174.776 18.0288 174.603 17.9712 174.45 17.9136C174.066 17.76 173.758 17.6832 173.528 17.6832C172.779 17.6832 172.117 17.9808 171.541 18.576C170.984 19.152 170.706 19.9008 170.706 20.8224C170.706 21.84 170.667 22.6848 170.59 23.3568C170.514 24.0288 170.283 24.6336 169.899 25.1712C169.515 25.6896 168.901 25.9488 168.056 25.9488Z" fill="#8573C9"/>
<path d="M156.593 25.9776C155.211 25.9968 153.972 25.7088 152.878 25.1136C151.803 24.5184 150.958 23.7024 150.343 22.6656C149.748 21.6096 149.431 20.4384 149.393 19.152C149.374 17.8656 149.671 16.7136 150.286 15.696C150.9 14.6784 151.755 13.872 152.849 13.2768C153.963 12.6816 155.211 12.384 156.593 12.384C157.937 12.384 159.147 12.672 160.222 13.248C161.316 13.824 162.18 14.6304 162.814 15.6672C163.447 16.704 163.783 17.8656 163.822 19.152C163.841 20.4 163.543 21.5424 162.929 22.5792C162.315 23.5968 161.451 24.4128 160.337 25.0272C159.243 25.6416 157.995 25.9584 156.593 25.9776ZM156.679 21.7728C157.198 21.7728 157.649 21.5712 158.033 21.168C158.417 20.7648 158.609 20.2944 158.609 19.7568C158.609 19.2192 158.417 18.7584 158.033 18.3744C157.649 17.9712 157.198 17.7696 156.679 17.7696C156.161 17.7696 155.71 17.9712 155.326 18.3744C154.942 18.7584 154.75 19.2192 154.75 19.7568C154.75 20.2944 154.942 20.7648 155.326 21.168C155.71 21.5712 156.161 21.7728 156.679 21.7728Z" fill="#8573C9"/>
<path d="M131.796 25.9488C130.26 25.9488 128.916 25.5264 127.764 24.6816C126.631 23.8368 125.757 22.6368 125.143 21.0816C124.528 19.5264 124.221 17.6928 124.221 15.5808C124.221 14.352 124.423 13.0368 124.826 11.6352C125.248 10.2336 125.844 9.05282 126.612 8.09282C127.399 7.11362 128.311 6.62402 129.348 6.62402C130.192 6.62402 130.893 6.93122 131.45 7.54562C132.007 8.16002 132.285 8.91842 132.285 9.82082C132.285 10.0896 132.218 10.4544 132.084 10.9152C131.968 11.3568 131.834 11.8176 131.68 12.2976C131.392 13.1232 131.172 13.8528 131.018 14.4864C130.864 15.1008 130.788 15.696 130.788 16.272C130.788 17.1168 130.912 17.7312 131.162 18.1152C131.412 18.4992 131.719 18.6912 132.084 18.6912C132.564 18.6912 132.9 18.4512 133.092 17.9712C133.303 17.472 133.408 16.56 133.408 15.2352L133.38 13.248C133.38 11.712 133.581 10.4928 133.984 9.59042C134.388 8.66882 135.194 8.20802 136.404 8.20802C137.306 8.20802 137.988 8.45762 138.448 8.95682C138.909 9.45602 139.207 10.0896 139.341 10.8576C139.476 11.6064 139.543 12.5184 139.543 13.5936V15.0624C139.543 16.464 139.658 17.4624 139.888 18.0576C140.138 18.6336 140.532 18.9216 141.069 18.9216C141.434 18.9216 141.712 18.7392 141.904 18.3744C142.116 17.9904 142.221 17.424 142.221 16.6752C142.221 16.1184 142.154 15.5616 142.02 15.0048C141.885 14.448 141.674 13.7376 141.386 12.8736C141.136 12.048 140.954 11.4336 140.839 11.0304C140.743 10.608 140.695 10.2048 140.695 9.82082C140.695 8.91842 140.983 8.16962 141.559 7.57442C142.154 6.97922 142.845 6.68162 143.632 6.68162C144.765 6.68162 145.716 7.16162 146.484 8.12162C147.271 9.06242 147.856 10.224 148.24 11.6064C148.624 12.9888 148.816 14.3136 148.816 15.5808C148.816 17.6928 148.509 19.5264 147.895 21.0816C147.28 22.6368 146.397 23.8368 145.245 24.6816C144.112 25.5072 142.778 25.92 141.242 25.92C140.397 25.92 139.572 25.728 138.765 25.344C137.959 24.96 137.21 24.384 136.519 23.616C135.828 24.384 135.069 24.9696 134.244 25.3728C133.437 25.7568 132.621 25.9488 131.796 25.9488Z" fill="#8573C9"/>
<path d="M114.144 13.4784C114.144 14.4768 113.674 15.1584 112.733 15.5232C111.792 15.8688 110.506 16.0512 108.874 16.0704C108.855 16.5504 108.845 17.328 108.845 18.4032C108.845 19.4976 108.922 20.2752 109.076 20.736C109.172 21.0624 109.316 21.2736 109.508 21.3696C109.719 21.4656 110.026 21.5328 110.429 21.5712C110.564 21.5904 110.708 21.6192 110.861 21.6576C111.034 21.6768 111.226 21.7056 111.437 21.744C111.879 21.84 112.224 22.08 112.474 22.464C112.724 22.8288 112.848 23.2992 112.848 23.8752C112.848 24.528 112.512 25.0368 111.84 25.4016C111.168 25.7664 110.247 25.9488 109.076 25.9488C108 25.9488 106.973 25.6416 105.994 25.0272C105.015 24.3936 104.343 23.5488 103.978 22.4928C103.594 21.36 103.402 19.2192 103.402 16.0704C102.058 16.032 100.973 15.8592 100.148 15.552C99.3412 15.2256 98.938 14.6496 98.938 13.824C98.938 12.7872 99.322 12.096 100.09 11.7504C100.858 11.3856 101.962 11.1936 103.402 11.1744C103.46 9.63842 103.7 8.36162 104.122 7.34402C104.544 6.30722 105.303 5.78882 106.397 5.78882C107.511 5.78882 108.231 6.26882 108.557 7.22882C108.903 8.18882 109.056 9.50402 109.018 11.1744C110.765 11.1552 112.052 11.2896 112.877 11.5776C113.722 11.8656 114.144 12.4992 114.144 13.4784Z" fill="#C1B8E5"/>
<path d="M96.4767 9.41762C96.4767 10.3776 96.2559 11.2512 95.8143 12.0384C95.3919 12.8064 94.8735 13.4112 94.2591 13.8528C93.6639 14.2944 93.1263 14.5152 92.6463 14.5152C92.2431 14.5152 91.9167 14.4 91.6671 14.1696C91.4367 13.9392 91.3215 13.6512 91.3215 13.3056C91.3215 13.056 91.3791 12.8448 91.4943 12.672C91.6095 12.4992 91.7823 12.2784 92.0127 12.0096C92.1663 11.856 92.3103 11.6832 92.4447 11.4912C92.5791 11.2992 92.6751 11.1072 92.7327 10.9152C92.0991 10.7424 91.6191 10.4448 91.2927 10.0224C90.9663 9.58082 90.8031 9.08162 90.8031 8.52482C90.8031 7.81442 91.0527 7.18082 91.5519 6.62402C92.0703 6.06722 92.7135 5.78882 93.4815 5.78882C94.3839 5.78882 95.1039 6.09602 95.6415 6.71042C96.1983 7.30562 96.4767 8.20802 96.4767 9.41762Z" fill="#C1B8E5"/>
<path d="M84.466 25.9489C83.7748 25.9489 83.2564 25.7569 82.9108 25.3729C82.5844 24.9889 82.3828 24.5185 82.306 23.9617C82.2292 23.4049 82.1908 22.6849 82.1908 21.8017C82.1908 20.6689 82.0372 19.7953 81.73 19.1809C81.4228 18.5665 80.9236 18.2593 80.2324 18.2593C79.5988 18.2593 79.1188 18.5665 78.7924 19.1809C78.4852 19.7761 78.3316 20.6017 78.3316 21.6577C78.3316 22.6753 78.3028 23.4433 78.2452 23.9617C78.1876 24.4801 77.9956 24.9409 77.6692 25.3441C77.3428 25.7281 76.8052 25.9201 76.0564 25.9201C74.962 25.9201 74.194 25.2193 73.7524 23.8177C73.3108 22.3969 73.09 20.7361 73.09 18.8353C73.09 14.2273 74.0596 11.9233 75.9988 11.9233C76.5364 11.9233 76.978 12.0577 77.3236 12.3265C77.6692 12.5761 77.9092 12.9409 78.0436 13.4209C78.2932 13.1521 78.6772 12.9121 79.1956 12.7009C79.7332 12.4897 80.2996 12.3841 80.8948 12.3841C83.0068 12.3841 84.5812 13.1521 85.618 14.6881C86.674 16.2241 87.202 18.3073 87.202 20.9377C87.202 22.4929 87.0004 23.7217 86.5972 24.6241C86.194 25.5073 85.4836 25.9489 84.466 25.9489Z" fill="#C1B8E5"/>
<path d="M64.9899 25.9776C63.6075 25.9968 62.3691 25.7088 61.2747 25.1136C60.1995 24.5184 59.3547 23.7024 58.7403 22.6656C58.1451 21.6096 57.8283 20.4384 57.7899 19.152C57.7707 17.8656 58.0683 16.7136 58.6827 15.696C59.2971 14.6784 60.1515 13.872 61.2459 13.2768C62.3595 12.6816 63.6075 12.384 64.9899 12.384C66.3339 12.384 67.5435 12.672 68.6187 13.248C69.7131 13.824 70.5771 14.6304 71.2107 15.6672C71.8443 16.704 72.1803 17.8656 72.2187 19.152C72.2379 20.4 71.9403 21.5424 71.3259 22.5792C70.7115 23.5968 69.8475 24.4128 68.7339 25.0272C67.6395 25.6416 66.3915 25.9584 64.9899 25.9776ZM65.0763 21.7728C65.5947 21.7728 66.0459 21.5712 66.4299 21.168C66.8139 20.7648 67.0059 20.2944 67.0059 19.7568C67.0059 19.2192 66.8139 18.7584 66.4299 18.3744C66.0459 17.9712 65.5947 17.7696 65.0763 17.7696C64.5579 17.7696 64.1067 17.9712 63.7227 18.3744C63.3387 18.7584 63.1467 19.2192 63.1467 19.7568C63.1467 20.2944 63.3387 20.7648 63.7227 21.168C64.1067 21.5712 64.5579 21.7728 65.0763 21.7728Z" fill="#C1B8E5"/>
<path d="M46.4484 25.9488C43.9716 25.9488 42.1668 25.6512 41.034 25.056C39.9012 24.4608 39.1716 23.5104 38.8452 22.2048C38.5188 20.8992 38.3556 18.864 38.3556 16.0992C38.3556 13.296 38.5092 11.2128 38.8164 9.84962C39.1428 8.46722 39.8628 7.44962 40.9764 6.79682C42.1092 6.12482 43.9044 5.78882 46.362 5.78882C47.8404 5.78882 49.3476 6.13442 50.8836 6.82562C52.4196 7.49762 53.7156 8.61122 54.7716 10.1664C55.8276 11.7216 56.3556 13.7088 56.3556 16.128C56.3556 18.4512 55.818 20.352 54.7428 21.8304C53.6676 23.2896 52.3716 24.3456 50.8548 24.9984C49.338 25.632 47.8692 25.9488 46.4484 25.9488ZM44.6628 20.88C45.2772 20.9568 45.7188 20.9952 45.9876 20.9952C47.3508 20.9952 48.4068 20.6304 49.1556 19.9008C49.9044 19.1712 50.2788 18.1632 50.2788 16.8768C50.2788 15.7248 49.914 14.832 49.1844 14.1984C48.4548 13.5456 47.4276 13.2192 46.1028 13.2192C45.6036 13.2192 45.1236 13.2576 44.6628 13.3344V20.88Z" fill="#C1B8E5"/>
<defs>
<radialGradient id="paint0_radial_1070_11210" cx="0" cy="0" r="1" gradientUnits="userSpaceOnUse" gradientTransform="translate(16.1319 23.1423) scale(14.4375 12.8305)">
<stop stop-color="#ADA2D7"/>
<stop offset="0.37" stop-color="#B7ADDF"/>
<stop offset="1" stop-color="#D1CAF4"/>
</radialGradient>
<radialGradient id="paint1_radial_1070_11210" cx="0" cy="0" r="1" gradientUnits="userSpaceOnUse" gradientTransform="translate(16.0387 12.1891) scale(9.48915 9.26696)">
<stop stop-color="white" stop-opacity="0.6"/>
<stop offset="0.42" stop-color="white" stop-opacity="0.33"/>
<stop offset="0.81" stop-color="white" stop-opacity="0.09"/>
<stop offset="1" stop-color="white" stop-opacity="0"/>
</radialGradient>
<radialGradient id="paint2_radial_1070_11210" cx="0" cy="0" r="1" gradientUnits="userSpaceOnUse" gradientTransform="translate(15.9941 19.6603) scale(3.536 1.7266)">
<stop stop-color="white" stop-opacity="0.6"/>
<stop offset="0.09" stop-color="white" stop-opacity="0.51"/>
<stop offset="0.31" stop-color="white" stop-opacity="0.33"/>
<stop offset="0.51" stop-color="white" stop-opacity="0.19"/>
<stop offset="0.7" stop-color="white" stop-opacity="0.08"/>
<stop offset="0.87" stop-color="white" stop-opacity="0.02"/>
<stop offset="1" stop-color="white" stop-opacity="0"/>
</radialGradient>
<clipPath id="clip0_1070_11210">
<rect width="30.4615" height="36" fill="white" transform="translate(0.694092)"/>
</clipPath>
</defs>
</svg>
