<svg width="217" height="32" viewBox="0 0 217 32" fill="none" xmlns="http://www.w3.org/2000/svg">
<g clip-path="url(#clip0_1302_7730)">
<path d="M14 27.9251C19.3987 27.9251 23.7752 26.9065 23.7752 25.6499C23.7752 24.3934 19.3987 23.3748 14 23.3748C8.60129 23.3748 4.22476 24.3934 4.22476 25.6499C4.22476 26.9065 8.60129 27.9251 14 27.9251Z" fill="#5843A8"/>
<path d="M14 26.1639C21.2771 26.1639 27.1765 20.3069 27.1765 13.082C27.1765 5.857 21.2771 0 14 0C6.72282 0 0.823517 5.857 0.823517 13.082C0.823517 20.3069 6.72282 26.1639 14 26.1639Z" fill="url(#paint0_radial_1302_7730)"/>
<path d="M14 17.1367C19.7026 17.1367 24.3254 12.5127 24.3254 6.80882C24.3254 1.1049 19.7026 -3.51904 14 -3.51904C8.29744 -3.51904 3.67459 1.1049 3.67459 6.80882C3.67459 12.5127 8.29744 17.1367 14 17.1367Z" fill="url(#paint1_radial_1302_7730)"/>
<path d="M14 15.5715C16.1278 15.5715 17.8528 14.7152 17.8528 13.6589C17.8528 12.6026 16.1278 11.7463 14 11.7463C11.8722 11.7463 10.1472 12.6026 10.1472 13.6589C10.1472 14.7152 11.8722 15.5715 14 15.5715Z" fill="url(#paint2_radial_1302_7730)"/>
<path d="M9.50921 22.6021C9.4414 22.6021 9.37205 22.5837 9.30887 22.547C7.42409 21.4086 6.70286 19.2497 6.67357 19.1579C6.60885 18.9575 6.71981 18.7417 6.92169 18.6759C7.12358 18.6117 7.34087 18.7203 7.40714 18.9223C7.41331 18.9422 8.07444 20.9052 9.70956 21.8936C9.89141 22.0038 9.94843 22.2379 9.83901 22.4184C9.76658 22.5363 9.64021 22.6021 9.50921 22.6021Z" fill="#30216B"/>
<path d="M9.17172 22.7842C9.4969 22.9541 9.90067 22.8317 10.0717 22.5073C10.2428 22.1845 10.1195 21.7836 9.79279 21.6138C9.46762 21.4439 9.06385 21.5663 8.89278 21.8907C8.72172 22.2135 8.84501 22.6144 9.17172 22.7842Z" fill="#30216B"/>
<path d="M18.4908 22.6021C18.3614 22.6021 18.2334 22.5363 18.161 22.4185C18.05 22.2379 18.1086 22.0023 18.2905 21.8937C19.9256 20.9053 20.5867 18.9422 20.5929 18.9223C20.6591 18.7219 20.8764 18.6117 21.0783 18.6775C21.2802 18.7433 21.3912 18.9575 21.3264 19.1579C21.2972 19.2497 20.5759 21.4086 18.6912 22.547C18.628 22.5853 18.5602 22.6021 18.4908 22.6021Z" fill="#30216B"/>
<path d="M18.2057 21.6137C17.8805 21.7835 17.7557 22.1844 17.9268 22.5073C18.0978 22.8301 18.5016 22.954 18.8268 22.7842C19.1519 22.6144 19.2768 22.2135 19.1057 21.8906C18.9346 21.5678 18.5309 21.4439 18.2057 21.6137Z" fill="#30216B"/>
<path d="M11.0195 12.86C10.9733 12.2005 11.3693 11.841 11.9426 11.789C12.3618 11.7507 12.7902 11.9664 12.8226 12.5081C12.8611 13.1538 12.4651 13.5225 11.8933 13.5852C11.4572 13.6327 11.075 13.3787 11.0195 12.86Z" fill="#30216B"/>
<path d="M16.9805 12.86C17.0267 12.2005 16.6307 11.841 16.0574 11.789C15.6382 11.7507 15.2098 11.9664 15.1774 12.5081C15.1389 13.1538 15.535 13.5225 16.1067 13.5852C16.5428 13.6327 16.925 13.3787 16.9805 12.86Z" fill="#30216B"/>
<path d="M11.3739 10.7562C11.2799 10.7562 11.1844 10.7501 11.0904 10.7394C9.44139 10.5512 8.53985 8.77023 8.50132 8.69372C8.40731 8.504 8.48591 8.27449 8.677 8.18116C8.8681 8.08782 9.09773 8.16585 9.19328 8.35558C9.20715 8.38312 9.95612 9.84126 11.1828 9.9805C11.8841 10.0601 12.6377 9.69591 13.4252 8.89875C13.3913 8.85744 13.3589 8.8146 13.3281 8.77176C12.2092 7.25394 12.7502 6.51799 13.0353 6.27165C13.5161 5.857 14.3298 5.89984 14.8137 6.36651C15.0402 6.58531 15.6906 7.41307 14.4993 8.85438C14.4901 8.86662 14.4793 8.87886 14.47 8.8911C15.3423 9.66837 16.4504 9.90553 17.2779 9.76629C17.7233 9.69132 18.5139 9.43427 18.7882 8.54684C18.8514 8.34487 19.0672 8.23165 19.269 8.29285C19.4725 8.35558 19.5865 8.56826 19.5233 8.77023C19.2336 9.70509 18.4615 10.3416 17.4043 10.5191C16.2084 10.7195 14.9123 10.3018 13.9553 9.45569C13.0923 10.3202 12.2277 10.7562 11.3755 10.7562H11.3739ZM13.8443 6.74902C13.7272 6.74902 13.6178 6.78116 13.5392 6.84848C13.3496 7.01219 13.3419 7.49416 13.9445 8.31427C14.4315 7.70531 14.5548 7.18509 14.2743 6.91427C14.1618 6.80564 13.9969 6.74902 13.8428 6.74902H13.8443Z" fill="#30216B"/>
<path d="M14 17.8664C13.0229 17.8664 12.2277 17.0769 12.2277 16.1068V15.4183C12.2277 15.25 12.3664 15.1123 12.5359 15.1123H15.464C15.6336 15.1123 15.7723 15.25 15.7723 15.4183V16.1068C15.7723 17.0769 14.9771 17.8664 14 17.8664ZM12.8442 15.7243V16.1068C12.8442 16.7403 13.362 17.2544 14 17.2544C14.638 17.2544 15.1558 16.7403 15.1558 16.1068V15.7243H12.8442Z" fill="#30216B"/>
<path d="M12.0736 12.6031C12.2098 12.6031 12.3202 12.4935 12.3202 12.3583C12.3202 12.2231 12.2098 12.1135 12.0736 12.1135C11.9374 12.1135 11.827 12.2231 11.827 12.3583C11.827 12.4935 11.9374 12.6031 12.0736 12.6031Z" fill="#F3F0FF"/>
<path d="M15.9264 12.6031C16.0626 12.6031 16.173 12.4935 16.173 12.3583C16.173 12.2231 16.0626 12.1135 15.9264 12.1135C15.7902 12.1135 15.6798 12.2231 15.6798 12.3583C15.6798 12.4935 15.7902 12.6031 15.9264 12.6031Z" fill="#F3F0FF"/>
</g>
<path d="M214.624 6.97589C215.882 7.53055 216.512 8.20255 216.512 8.99188C216.512 9.37588 216.426 9.73855 216.256 10.0799C216.085 10.4212 216 10.6026 216 10.6239L207.616 29.3759C207.445 29.7812 207.296 30.0906 207.168 30.3039C207.061 30.5172 206.88 30.7199 206.624 30.9119C206.368 31.1039 206.048 31.1999 205.664 31.1999C205.28 31.1999 204.714 31.0399 203.968 30.7199C202.709 30.1652 202.08 29.5039 202.08 28.7359C202.08 28.2239 203.104 25.7812 205.152 21.4079L198.784 10.6879C198.357 9.98389 198.144 9.46122 198.144 9.11989C198.144 8.43722 198.72 7.75455 199.872 7.07189C200.597 6.64522 201.162 6.43188 201.568 6.43188C201.973 6.43188 202.304 6.51722 202.56 6.68789C202.816 6.85855 202.997 7.03989 203.104 7.23189C203.232 7.40255 203.818 8.39455 204.864 10.2079C205.93 11.9999 206.944 13.6746 207.904 15.2319C208.01 14.8906 208.586 13.5786 209.632 11.2959C210.677 8.99188 211.232 7.76522 211.296 7.61588C211.381 7.46655 211.509 7.28522 211.68 7.07189C211.957 6.70922 212.341 6.52789 212.832 6.52789C213.344 6.52789 213.941 6.67722 214.624 6.97589Z" fill="#8573C9"/>
<path d="M196.415 6.97602C196.82 7.10402 197.151 7.32802 197.407 7.64802C197.684 7.94669 197.823 8.43736 197.823 9.12002C197.823 9.80269 197.62 10.5494 197.215 11.36C196.809 12.1707 196.223 12.576 195.455 12.576C195.071 12.576 194.697 12.4907 194.335 12.32C193.993 12.1494 193.535 12.064 192.959 12.064C192.383 12.064 191.839 12.2667 191.327 12.672C190.836 13.0774 190.591 13.568 190.591 14.144V20.864C190.591 21.3547 190.569 21.728 190.527 21.984C190.505 22.2187 190.409 22.496 190.239 22.816C189.919 23.3707 189.087 23.648 187.743 23.648C186.719 23.648 185.983 23.4667 185.535 23.104C185.193 22.8054 185.001 22.3467 184.959 21.728C184.959 21.5147 184.959 21.2054 184.959 20.8V9.56802C184.959 9.07736 184.969 8.71469 184.991 8.48002C185.033 8.22402 185.129 7.94669 185.279 7.64802C185.577 7.07202 186.409 6.78402 187.775 6.78402C189.055 6.78402 189.855 7.02936 190.175 7.52002C190.409 7.86136 190.527 8.21336 190.527 8.57602C190.633 8.42669 190.783 8.24536 190.975 8.03202C191.188 7.81869 191.625 7.53069 192.287 7.16802C192.948 6.80536 193.524 6.62402 194.015 6.62402C194.527 6.62402 194.953 6.65602 195.295 6.72002C195.636 6.76269 196.009 6.84802 196.415 6.97602Z" fill="#8573C9"/>
<path d="M182.43 6.97602C182.835 7.10402 183.166 7.32802 183.422 7.64802C183.699 7.94669 183.838 8.43736 183.838 9.12002C183.838 9.80269 183.635 10.5494 183.23 11.36C182.824 12.1707 182.238 12.576 181.47 12.576C181.086 12.576 180.712 12.4907 180.35 12.32C180.008 12.1494 179.55 12.064 178.974 12.064C178.398 12.064 177.854 12.2667 177.342 12.672C176.851 13.0774 176.606 13.568 176.606 14.144V20.864C176.606 21.3547 176.584 21.728 176.542 21.984C176.52 22.2187 176.424 22.496 176.254 22.816C175.934 23.3707 175.102 23.648 173.758 23.648C172.734 23.648 171.998 23.4667 171.55 23.104C171.208 22.8054 171.016 22.3467 170.974 21.728C170.974 21.5147 170.974 21.2054 170.974 20.8V9.56802C170.974 9.07736 170.984 8.71469 171.006 8.48002C171.048 8.22402 171.144 7.94669 171.294 7.64802C171.592 7.07202 172.424 6.78402 173.79 6.78402C175.07 6.78402 175.87 7.02936 176.19 7.52002C176.424 7.86136 176.542 8.21336 176.542 8.57602C176.648 8.42669 176.798 8.24536 176.99 8.03202C177.203 7.81869 177.64 7.53069 178.302 7.16802C178.963 6.80536 179.539 6.62402 180.03 6.62402C180.542 6.62402 180.968 6.65602 181.31 6.72002C181.651 6.76269 182.024 6.84802 182.43 6.97602Z" fill="#8573C9"/>
<path d="M151.946 15.2319C151.946 12.6719 152.842 10.5599 154.634 8.8959C156.426 7.2319 158.474 6.3999 160.778 6.3999C163.082 6.3999 165.12 7.2319 166.89 8.8959C168.661 10.5386 169.546 12.6399 169.546 15.1999C169.546 16.9706 169.088 18.5492 168.17 19.9359C167.253 21.3012 166.133 22.3146 164.81 22.9759C163.509 23.6159 162.154 23.9359 160.746 23.9359C159.338 23.9359 157.973 23.5946 156.65 22.9119C155.328 22.2079 154.208 21.1839 153.29 19.8399C152.394 18.4746 151.946 16.9386 151.946 15.2319ZM158.634 17.5359C159.317 18.0479 160.01 18.3039 160.714 18.3039C161.418 18.3039 162.122 18.0372 162.826 17.5039C163.53 16.9706 163.882 16.1812 163.882 15.1359C163.882 14.0906 163.552 13.3119 162.89 12.7999C162.229 12.2879 161.514 12.0319 160.746 12.0319C159.978 12.0319 159.264 12.2986 158.602 12.8319C157.941 13.3652 157.61 14.1546 157.61 15.1999C157.61 16.2239 157.952 17.0026 158.634 17.5359Z" fill="#8573C9"/>
<path d="M151.411 0.32C152.841 0.831999 153.555 1.51467 153.555 2.368C153.555 2.64533 153.427 3.168 153.171 3.936L147.027 21.696C146.985 21.8453 146.91 22.0267 146.803 22.24C146.697 22.4533 146.409 22.7413 145.939 23.104C145.491 23.4453 144.947 23.616 144.307 23.616C143.689 23.616 143.145 23.4453 142.675 23.104C142.227 22.7413 141.929 22.3893 141.779 22.048L138.035 11.008C135.667 18.0053 134.462 21.568 134.419 21.696C134.377 21.824 134.281 22.0053 134.131 22.24C133.982 22.4747 133.811 22.688 133.619 22.88C133.129 23.3707 132.542 23.616 131.859 23.616C131.177 23.616 130.611 23.456 130.163 23.136C129.737 22.816 129.449 22.496 129.299 22.176L129.075 21.696L122.899 3.936C122.665 3.232 122.547 2.70933 122.547 2.368C122.547 1.51467 123.262 0.842666 124.691 0.351999C125.31 0.138666 125.865 0.0319996 126.355 0.0319996C126.867 0.0319996 127.251 0.202666 127.507 0.543999C127.785 0.885333 128.03 1.408 128.243 2.112L131.763 12.8L135.251 2.272C135.55 1.376 136.094 0.757333 136.883 0.416C137.225 0.266666 137.662 0.191999 138.195 0.191999C138.75 0.191999 139.262 0.373333 139.731 0.736C140.201 1.07733 140.499 1.41867 140.627 1.76L144.307 12.864L147.827 2.112C147.998 1.62133 148.137 1.25867 148.243 1.024C148.35 0.789333 148.542 0.565332 148.819 0.351999C149.118 0.117333 149.481 0 149.907 0C150.334 0 150.835 0.106667 151.411 0.32Z" fill="#8573C9"/>
<path d="M111.951 12.4479L109.871 12.3199V16.7359C109.871 17.3119 109.956 17.7279 110.127 17.9839C110.319 18.2399 110.66 18.3679 111.151 18.3679C111.663 18.3679 112.047 18.3893 112.303 18.4319C112.58 18.4533 112.868 18.5493 113.167 18.7199C113.657 18.9973 113.903 19.7119 113.903 20.8639C113.903 22.2079 113.604 23.0293 113.007 23.3279C112.687 23.4773 112.399 23.5733 112.143 23.6159C111.908 23.6373 111.556 23.6479 111.087 23.6479C108.868 23.6479 107.183 23.1466 106.031 22.1439C104.879 21.1413 104.303 19.4453 104.303 17.0559V12.3199C103.897 12.3839 103.46 12.4159 102.991 12.4159C102.521 12.4159 102.127 12.2346 101.807 11.8719C101.508 11.5093 101.359 10.8906 101.359 10.0159C101.359 9.14126 101.412 8.51193 101.519 8.12793C101.625 7.72259 101.775 7.43459 101.967 7.26393C102.308 6.98659 102.735 6.84793 103.247 6.84793L104.303 6.97593V3.67993C104.303 3.18926 104.313 2.82659 104.335 2.59192C104.377 2.35726 104.484 2.10126 104.655 1.82393C104.932 1.29059 105.753 1.02393 107.119 1.02393C108.569 1.02393 109.433 1.41859 109.711 2.20793C109.817 2.54926 109.871 3.09326 109.871 3.83993V6.97593C110.809 6.89059 111.513 6.84793 111.983 6.84793C112.473 6.84793 112.836 6.86926 113.071 6.91193C113.327 6.93326 113.615 7.02926 113.935 7.19993C114.489 7.47726 114.767 8.29859 114.767 9.66393C114.767 11.0079 114.479 11.8293 113.903 12.1279C113.583 12.2773 113.295 12.3733 113.039 12.4159C112.804 12.4373 112.441 12.4479 111.951 12.4479Z" fill="#ADA2D7"/>
<path d="M100.165 0.863895C100.528 1.22656 100.709 1.84523 100.709 2.71989V3.2319C100.709 3.76523 100.688 4.15989 100.645 4.4159C100.496 6.29323 99.941 7.90389 98.981 9.24789C98.021 10.5919 96.805 11.2639 95.333 11.2639C95.1836 11.2639 95.045 11.1572 94.917 10.9439C94.8103 10.7092 94.757 10.4106 94.757 10.0479C94.757 9.68523 94.7996 9.40789 94.885 9.21589C94.9916 9.00256 95.0983 8.88523 95.205 8.8639C95.333 8.82123 95.429 8.7999 95.493 8.7999C95.557 8.77856 95.6743 8.72523 95.845 8.6399C96.0156 8.53323 96.165 8.39456 96.293 8.2239C96.6343 7.7759 96.8263 7.08256 96.869 6.14389C96.1436 6.03723 95.5996 5.80256 95.237 5.4399C94.8956 5.07723 94.725 4.30923 94.725 3.13589C94.725 2.28256 94.8316 1.65323 95.045 1.24789C95.2583 0.821228 95.5783 0.543895 96.005 0.415895C96.453 0.266562 97.1356 0.191895 98.053 0.191895C98.9703 0.191895 99.6743 0.415895 100.165 0.863895Z" fill="#ADA2D7"/>
<path d="M85.8147 6.78394C87.9481 6.78394 89.7187 7.60527 91.1267 9.24793C92.5561 10.8693 93.2707 12.8533 93.2707 15.1999V20.8319C93.2707 21.3226 93.2494 21.6959 93.2067 21.9519C93.1854 22.1866 93.1001 22.4533 92.9507 22.7519C92.6521 23.3279 91.8201 23.6159 90.4547 23.6159C88.9401 23.6159 88.0654 23.2213 87.8307 22.4319C87.7027 22.0693 87.6387 21.5253 87.6387 20.7999V15.1679C87.6387 14.2933 87.3827 13.6106 86.8707 13.1199C86.3801 12.6293 85.7081 12.3839 84.8547 12.3839C84.0227 12.3839 83.3401 12.6399 82.8067 13.1519C82.2947 13.6639 82.0387 14.3359 82.0387 15.1679V20.8319C82.0387 21.3226 82.0174 21.6959 81.9747 21.9519C81.9534 22.1866 81.8574 22.4533 81.6867 22.7519C81.4094 23.3279 80.5881 23.6159 79.2227 23.6159C77.8787 23.6159 77.0574 23.3279 76.7587 22.7519C76.6094 22.4319 76.5134 22.1546 76.4707 21.9199C76.4494 21.6639 76.4387 21.2906 76.4387 20.7999V9.47194C76.4387 9.0026 76.4494 8.6506 76.4707 8.41594C76.5134 8.15993 76.6201 7.8826 76.7907 7.58393C77.0894 7.0506 77.9107 6.78394 79.2547 6.78394C80.5561 6.78394 81.3561 7.02927 81.6547 7.51994C81.8681 7.8826 81.9747 8.31993 81.9747 8.83193C82.0601 8.6826 82.2521 8.46927 82.5507 8.19194C82.8494 7.9146 83.1374 7.6906 83.4147 7.51994C84.1401 7.02927 84.9401 6.78394 85.8147 6.78394Z" fill="#ADA2D7"/>
<path d="M57.4113 15.2319C57.4113 12.6719 58.3073 10.5599 60.0993 8.8959C61.8913 7.2319 63.9393 6.3999 66.2433 6.3999C68.5473 6.3999 70.5846 7.2319 72.3553 8.8959C74.1259 10.5386 75.0113 12.6399 75.0113 15.1999C75.0113 16.9706 74.5526 18.5492 73.6353 19.9359C72.7179 21.3012 71.5979 22.3146 70.2753 22.9759C68.9739 23.6159 67.6193 23.9359 66.2113 23.9359C64.8033 23.9359 63.4379 23.5946 62.1153 22.9119C60.7926 22.2079 59.6726 21.1839 58.7553 19.8399C57.8593 18.4746 57.4113 16.9386 57.4113 15.2319ZM64.0993 17.5359C64.7819 18.0479 65.4753 18.3039 66.1793 18.3039C66.8833 18.3039 67.5873 18.0372 68.2913 17.5039C68.9953 16.9706 69.3473 16.1812 69.3473 15.1359C69.3473 14.0906 69.0166 13.3119 68.3553 12.7999C67.6939 12.2879 66.9793 12.0319 66.2113 12.0319C65.4433 12.0319 64.7286 12.2986 64.0673 12.8319C63.4059 13.3652 63.0753 14.1546 63.0753 15.1999C63.0753 16.2239 63.4166 17.0026 64.0993 17.5359Z" fill="#ADA2D7"/>
<path d="M38.848 0.159912L44.768 0.191912C47.8613 0.191912 50.5813 1.31191 52.928 3.55191C55.2747 5.77058 56.448 8.51191 56.448 11.7759C56.448 15.0186 55.296 17.8026 52.992 20.1279C50.7093 22.4532 47.936 23.6159 44.672 23.6159H38.816C37.5147 23.6159 36.704 23.3492 36.384 22.8159C36.128 22.3679 36 21.6852 36 20.7679V2.97591C36 2.46391 36.0107 2.09058 36.032 1.85591C36.0747 1.62125 36.1813 1.34391 36.352 1.02391C36.6507 0.447912 37.4827 0.159912 38.848 0.159912ZM44.768 17.9519C46.304 17.9519 47.6907 17.3866 48.928 16.2559C50.1653 15.1039 50.784 13.6639 50.784 11.9359C50.784 10.2079 50.176 8.76791 48.96 7.61591C47.7653 6.44258 46.3573 5.85591 44.736 5.85591H41.664V17.9519H44.768Z" fill="#ADA2D7"/>
<defs>
<radialGradient id="paint0_radial_1302_7730" cx="0" cy="0" r="1" gradientUnits="userSpaceOnUse" gradientTransform="translate(14.1187 16.7426) scale(12.4337 11.2335)">
<stop stop-color="#ADA2D7"/>
<stop offset="0.37" stop-color="#B7ADDF"/>
<stop offset="1" stop-color="#D1CAF4"/>
</radialGradient>
<radialGradient id="paint1_radial_1302_7730" cx="0" cy="0" r="1" gradientUnits="userSpaceOnUse" gradientTransform="translate(14.0384 7.1529) scale(8.17213 8.11351)">
<stop stop-color="white" stop-opacity="0.6"/>
<stop offset="0.42" stop-color="white" stop-opacity="0.33"/>
<stop offset="0.81" stop-color="white" stop-opacity="0.09"/>
<stop offset="1" stop-color="white" stop-opacity="0"/>
</radialGradient>
<radialGradient id="paint2_radial_1302_7730" cx="0" cy="0" r="1" gradientUnits="userSpaceOnUse" gradientTransform="translate(14 13.6589) scale(3.04523 1.51169)">
<stop stop-color="white" stop-opacity="0.6"/>
<stop offset="0.09" stop-color="white" stop-opacity="0.51"/>
<stop offset="0.31" stop-color="white" stop-opacity="0.33"/>
<stop offset="0.51" stop-color="white" stop-opacity="0.19"/>
<stop offset="0.7" stop-color="white" stop-opacity="0.08"/>
<stop offset="0.87" stop-color="white" stop-opacity="0.02"/>
<stop offset="1" stop-color="white" stop-opacity="0"/>
</radialGradient>
<clipPath id="clip0_1302_7730">
<rect width="28" height="28" fill="white"/>
</clipPath>
</defs>
</svg>
