<svg width="69" height="77" viewBox="0 0 69 77" fill="none" xmlns="http://www.w3.org/2000/svg">
<g clip-path="url(#clip0_1302_9399)">
<path d="M34.2559 59.8394C45.8246 59.8394 55.2029 57.6566 55.2029 54.964C55.2029 52.2714 45.8246 50.0886 34.2559 50.0886C22.6872 50.0886 13.309 52.2714 13.309 54.964C13.309 57.6566 22.6872 59.8394 34.2559 59.8394Z" fill="#5843A8"/>
<path d="M34.2559 56.0656C49.8498 56.0656 62.4912 43.5149 62.4912 28.0328C62.4912 12.5507 49.8498 0 34.2559 0C18.662 0 6.02063 12.5507 6.02063 28.0328C6.02063 43.5149 18.662 56.0656 34.2559 56.0656Z" fill="url(#paint0_radial_1302_9399)"/>
<path d="M34.2559 36.7213C46.4757 36.7213 56.3818 26.8128 56.3818 14.5901C56.3818 2.36744 46.4757 -7.54102 34.2559 -7.54102C22.0361 -7.54102 12.13 2.36744 12.13 14.5901C12.13 26.8128 22.0361 36.7213 34.2559 36.7213Z" fill="url(#paint1_radial_1302_9399)"/>
<path d="M34.2559 33.3671C38.8156 33.3671 42.5119 31.5322 42.5119 29.2688C42.5119 27.0053 38.8156 25.1704 34.2559 25.1704C29.6963 25.1704 26 27.0053 26 29.2688C26 31.5322 29.6963 33.3671 34.2559 33.3671Z" fill="url(#paint2_radial_1302_9399)"/>
<path d="M24.6328 48.4329C24.4875 48.4329 24.3389 48.3936 24.2035 48.3149C20.1647 45.8755 18.6192 41.2493 18.5565 41.0526C18.4178 40.6231 18.6555 40.1608 19.0881 40.0198C19.5207 39.8821 19.9864 40.1149 20.1284 40.5477C20.1416 40.5903 21.5583 44.7968 25.0621 46.9149C25.4518 47.1509 25.574 47.6526 25.3395 48.0395C25.1843 48.2919 24.9135 48.4329 24.6328 48.4329Z" fill="#30216B"/>
<path d="M23.9096 48.823C24.6064 49.187 25.4716 48.9247 25.8382 48.2296C26.2048 47.5378 25.9406 46.6788 25.2405 46.3148C24.5437 45.9509 23.6784 46.2132 23.3119 46.9083C22.9453 47.6001 23.2095 48.4591 23.9096 48.823Z" fill="#30216B"/>
<path d="M43.879 48.4328C43.6016 48.4328 43.3275 48.2919 43.1723 48.0394C42.9346 47.6525 43.0601 47.1476 43.4497 46.9148C46.9535 44.7968 48.3703 40.5902 48.3835 40.5476C48.5255 40.1181 48.9911 39.882 49.4237 40.023C49.8563 40.164 50.0941 40.623 49.9554 41.0525C49.8927 41.2492 48.3472 45.8755 44.3083 48.3148C44.173 48.3968 44.0276 48.4328 43.879 48.4328Z" fill="#30216B"/>
<path d="M43.2681 46.3149C42.5713 46.6789 42.3038 47.5379 42.6704 48.2297C43.0369 48.9215 43.9022 49.1871 44.599 48.8231C45.2958 48.4592 45.5632 47.6002 45.1967 46.9084C44.8301 46.2166 43.9649 45.951 43.2681 46.3149Z" fill="#30216B"/>
<path d="M27.8691 27.5574C27.77 26.1443 28.6188 25.3738 29.8472 25.2624C30.7455 25.1804 31.6635 25.6427 31.7329 26.8034C31.8155 28.187 30.9667 28.9771 29.7416 29.1115C28.807 29.2132 27.988 28.6689 27.8691 27.5574Z" fill="#30216B"/>
<path d="M40.6427 27.5574C40.7418 26.1443 39.8931 25.3738 38.6646 25.2624C37.7663 25.1804 36.8483 25.6427 36.7789 26.8034C36.6964 28.187 37.5451 28.9771 38.7702 29.1115C39.7048 29.2132 40.5238 28.6689 40.6427 27.5574Z" fill="#30216B"/>
<path d="M28.6287 23.0491C28.4272 23.0491 28.2225 23.036 28.021 23.013C24.4875 22.6097 22.5556 18.7933 22.473 18.6294C22.2716 18.2229 22.44 17.731 22.8495 17.531C23.259 17.331 23.7511 17.4983 23.9558 17.9048C23.9855 17.9638 25.5905 21.0884 28.2192 21.3868C29.7217 21.5573 31.3366 20.7769 33.0241 19.0688C32.9515 18.9802 32.8821 18.8884 32.8161 18.7966C30.4185 15.5442 31.5777 13.9671 32.1886 13.4392C33.219 12.5507 34.9626 12.6425 35.9996 13.6425C36.485 14.1114 37.8786 15.8851 35.3259 18.9737C35.3061 18.9999 35.2829 19.0261 35.2631 19.0524C37.1323 20.7179 39.5067 21.2261 41.2801 20.9278C42.2344 20.7671 43.9286 20.2163 44.5164 18.3147C44.6518 17.8819 45.1141 17.6392 45.5467 17.7704C45.9826 17.9048 46.227 18.3606 46.0916 18.7933C45.4708 20.7966 43.8163 22.1606 41.5508 22.5409C38.9882 22.9704 36.2109 22.0753 34.1601 20.2622C32.3108 22.1147 30.4582 23.0491 28.632 23.0491H28.6287ZM33.9224 14.4622C33.6714 14.4622 33.4369 14.531 33.2685 14.6753C32.8623 15.0261 32.8458 16.0589 34.137 17.8163C35.1806 16.5114 35.4448 15.3966 34.8437 14.8163C34.6027 14.5835 34.2493 14.4622 33.9191 14.4622H33.9224Z" fill="#30216B"/>
<path d="M34.2559 38.2852C32.1622 38.2852 30.4582 36.5934 30.4582 34.5147V33.0393C30.4582 32.6786 30.7554 32.3835 31.1187 32.3835H37.3932C37.7564 32.3835 38.0537 32.6786 38.0537 33.0393V34.5147C38.0537 36.5934 36.3496 38.2852 34.2559 38.2852ZM31.7791 33.695V34.5147C31.7791 35.8721 32.8887 36.9737 34.2559 36.9737C35.6231 36.9737 36.7327 35.8721 36.7327 34.5147V33.695H31.7791Z" fill="#30216B"/>
<path d="M30.1279 27.0065C30.4197 27.0065 30.6563 26.7716 30.6563 26.4819C30.6563 26.1921 30.4197 25.9573 30.1279 25.9573C29.8361 25.9573 29.5995 26.1921 29.5995 26.4819C29.5995 26.7716 29.8361 27.0065 30.1279 27.0065Z" fill="#F3F0FF"/>
<path d="M38.3838 27.0065C38.6757 27.0065 38.9122 26.7716 38.9122 26.4819C38.9122 26.1921 38.6757 25.9573 38.3838 25.9573C38.092 25.9573 37.8555 26.1921 37.8555 26.4819C37.8555 26.7716 38.092 27.0065 38.3838 27.0065Z" fill="#F3F0FF"/>
</g>
<path d="M64.425 76.2532C63.9897 76.2532 63.627 76.1686 63.3368 75.9993C63.0466 75.8301 62.9016 75.5802 62.9016 75.2497C62.9016 74.9837 63.0265 74.7741 63.2764 74.621C63.5263 74.4678 63.8205 74.3993 64.159 74.4154C64.5137 74.4315 64.7878 74.4154 64.9812 74.367C65.1827 74.3187 65.3359 74.23 65.4407 74.101C64.6991 74.101 64.1066 73.9963 63.6633 73.7867C63.22 73.569 62.8975 73.2345 62.696 72.7831C62.5025 72.3237 62.4058 71.7191 62.4058 70.9695C62.4058 70.3246 62.5025 69.8047 62.696 69.4097C62.8975 69.0067 63.2119 68.8052 63.6391 68.8052C64.018 68.8052 64.2961 68.914 64.4734 69.1316C64.6588 69.3412 64.7515 69.6153 64.7515 69.9538L64.7394 70.4858C64.7313 70.5906 64.7273 70.7438 64.7273 70.9453C64.7273 71.3322 64.7757 71.6264 64.8724 71.8279C64.9691 72.0214 65.1626 72.1181 65.4528 72.1181C65.7429 72.1181 65.9364 72.0214 66.0331 71.8279C66.1299 71.6264 66.1782 71.3362 66.1782 70.9574C66.1782 70.7559 66.1742 70.6027 66.1661 70.4979L66.154 69.978C66.154 69.6153 66.2427 69.3291 66.42 69.1195C66.6054 68.91 66.8876 68.8052 67.2664 68.8052C67.6936 68.8052 68.008 69.0067 68.2095 69.4097C68.411 69.8128 68.5118 70.3327 68.5118 70.9695C68.5118 71.9206 68.3748 72.7952 68.1007 73.5932C67.8347 74.3832 67.3954 75.024 66.7828 75.5157C66.1782 76.0074 65.3923 76.2532 64.425 76.2532Z" fill="#8573C9"/>
<path d="M58.1083 74.4639C57.5924 74.4639 57.2458 74.1616 57.0685 73.557C56.8992 72.9525 56.8146 72.1182 56.8146 71.0542C56.8146 70.5705 56.8347 70.1675 56.875 69.8451C56.9234 69.5146 57.0322 69.2365 57.2015 69.0108C57.3788 68.777 57.6489 68.6602 58.0116 68.6602C58.2373 68.6602 58.4348 68.7126 58.604 68.8173C58.7814 68.9221 58.8942 69.0713 58.9426 69.2647C59.1199 69.1035 59.3497 68.9826 59.6318 68.902C59.9139 68.8214 60.2162 68.7811 60.5386 68.7811C60.7966 68.7811 61.0585 68.8456 61.3245 68.9745C61.5986 69.1035 61.8243 69.2808 62.0016 69.5065C62.187 69.7242 62.2797 69.962 62.2797 70.2199C62.2797 70.4778 62.187 70.7076 62.0016 70.9091C61.8243 71.1025 61.5865 71.1993 61.2883 71.1993C61.1915 71.1993 61.0988 71.1872 61.0102 71.163C60.9296 71.1388 60.857 71.1146 60.7925 71.0905C60.6313 71.026 60.5023 70.9937 60.4056 70.9937C60.0912 70.9937 59.8131 71.1187 59.5713 71.3685C59.3376 71.6104 59.2207 71.9247 59.2207 72.3116C59.2207 72.7389 59.2046 73.0935 59.1723 73.3757C59.1401 73.6578 59.0434 73.9117 58.8821 74.1374C58.7209 74.355 58.463 74.4639 58.1083 74.4639Z" fill="#8573C9"/>
<path d="M52.5172 74.4639C52.0013 74.4639 51.6547 74.1616 51.4774 73.557C51.3081 72.9525 51.2234 72.1182 51.2234 71.0542C51.2234 70.5705 51.2436 70.1675 51.2839 69.8451C51.3323 69.5146 51.4411 69.2365 51.6104 69.0108C51.7877 68.777 52.0577 68.6602 52.4205 68.6602C52.6462 68.6602 52.8436 68.7126 53.0129 68.8173C53.1903 68.9221 53.3031 69.0713 53.3515 69.2647C53.5288 69.1035 53.7585 68.9826 54.0407 68.902C54.3228 68.8214 54.6251 68.7811 54.9475 68.7811C55.2054 68.7811 55.4674 68.8456 55.7334 68.9745C56.0075 69.1035 56.2332 69.2808 56.4105 69.5065C56.5959 69.7242 56.6886 69.962 56.6886 70.2199C56.6886 70.4778 56.5959 70.7076 56.4105 70.9091C56.2332 71.1025 55.9954 71.1993 55.6971 71.1993C55.6004 71.1993 55.5077 71.1872 55.419 71.163C55.3384 71.1388 55.2659 71.1146 55.2014 71.0905C55.0402 71.026 54.9112 70.9937 54.8145 70.9937C54.5001 70.9937 54.222 71.1187 53.9802 71.3685C53.7464 71.6104 53.6296 71.9247 53.6296 72.3116C53.6296 72.7389 53.6134 73.0935 53.5812 73.3757C53.549 73.6578 53.4522 73.9117 53.291 74.1374C53.1298 74.355 52.8719 74.4639 52.5172 74.4639Z" fill="#8573C9"/>
<path d="M47.9466 74.4758C47.3662 74.4838 46.8463 74.3629 46.3868 74.113C45.9354 73.8632 45.5808 73.5206 45.3228 73.0853C45.073 72.642 44.9399 72.1503 44.9238 71.6102C44.9158 71.0701 45.0407 70.5865 45.2986 70.1593C45.5566 69.7321 45.9153 69.3935 46.3748 69.1436C46.8423 68.8937 47.3662 68.7688 47.9466 68.7688C48.5108 68.7688 49.0187 68.8897 49.4701 69.1315C49.9295 69.3734 50.2922 69.7119 50.5582 70.1472C50.8242 70.5825 50.9653 71.0701 50.9814 71.6102C50.9895 72.1341 50.8646 72.6137 50.6066 73.049C50.3487 73.4762 49.9859 73.8188 49.5184 74.0768C49.059 74.3347 48.535 74.4677 47.9466 74.4758ZM47.9829 72.7105C48.2005 72.7105 48.3899 72.6258 48.5511 72.4566C48.7124 72.2873 48.793 72.0898 48.793 71.8641C48.793 71.6384 48.7124 71.4449 48.5511 71.2837C48.3899 71.1145 48.2005 71.0298 47.9829 71.0298C47.7652 71.0298 47.5758 71.1145 47.4146 71.2837C47.2534 71.4449 47.1728 71.6384 47.1728 71.8641C47.1728 72.0898 47.2534 72.2873 47.4146 72.4566C47.5758 72.6258 47.7652 72.7105 47.9829 72.7105Z" fill="#8573C9"/>
<path d="M37.7777 74.4637C37.1329 74.4637 36.5686 74.2863 36.085 73.9317C35.6094 73.577 35.2426 73.0732 34.9847 72.4203C34.7267 71.7674 34.5978 70.9976 34.5978 70.1109C34.5978 69.595 34.6824 69.0429 34.8517 68.4544C35.029 67.866 35.2789 67.3703 35.6013 66.9672C35.9318 66.5561 36.3147 66.3506 36.75 66.3506C37.1047 66.3506 37.3989 66.4796 37.6326 66.7375C37.8664 66.9954 37.9833 67.3138 37.9833 67.6927C37.9833 67.8055 37.9551 67.9587 37.8986 68.1521C37.8503 68.3375 37.7938 68.531 37.7294 68.7325C37.6084 69.0791 37.5157 69.3854 37.4513 69.6514C37.3868 69.9094 37.3545 70.1593 37.3545 70.4011C37.3545 70.7558 37.4069 71.0137 37.5117 71.1749C37.6165 71.3361 37.7455 71.4167 37.8986 71.4167C38.1001 71.4167 38.2412 71.316 38.3218 71.1145C38.4105 70.9049 38.4548 70.522 38.4548 69.9658L38.4427 69.1315C38.4427 68.4867 38.5274 67.9748 38.6966 67.596C38.8659 67.209 39.2045 67.0156 39.7123 67.0156C40.0911 67.0156 40.3773 67.1204 40.5707 67.33C40.7642 67.5395 40.8891 67.8055 40.9456 68.128C41.002 68.4423 41.0302 68.8252 41.0302 69.2766V69.8933C41.0302 70.4817 41.0786 70.9008 41.1753 71.1507C41.2801 71.3925 41.4453 71.5135 41.671 71.5135C41.8242 71.5135 41.9411 71.4369 42.0217 71.2837C42.1103 71.1225 42.1547 70.8847 42.1547 70.5704C42.1547 70.3366 42.1265 70.1028 42.07 69.8691C42.0136 69.6353 41.9249 69.3371 41.804 68.9743C41.6992 68.6277 41.6227 68.3698 41.5743 68.2005C41.534 68.0232 41.5138 67.8539 41.5138 67.6927C41.5138 67.3138 41.6348 66.9995 41.8766 66.7496C42.1265 66.4997 42.4166 66.3748 42.7471 66.3748C43.2227 66.3748 43.6217 66.5763 43.9441 66.9793C44.2746 67.3743 44.5205 67.862 44.6817 68.4423C44.8429 69.0227 44.9235 69.5789 44.9235 70.1109C44.9235 70.9976 44.7945 71.7674 44.5366 72.4203C44.2787 73.0732 43.9079 73.577 43.4242 73.9317C42.9486 74.2783 42.3884 74.4516 41.7436 74.4516C41.3889 74.4516 41.0423 74.371 40.7037 74.2098C40.3652 74.0485 40.0508 73.8067 39.7606 73.4843C39.4705 73.8067 39.1521 74.0526 38.8055 74.2218C38.4669 74.3831 38.1243 74.4637 37.7777 74.4637Z" fill="#8573C9"/>
<path d="M30.8509 69.2283C30.8509 69.6475 30.6534 69.9336 30.2585 70.0868C29.8635 70.2319 29.3234 70.3084 28.6383 70.3165C28.6302 70.518 28.6262 70.8445 28.6262 71.2959C28.6262 71.7553 28.6584 72.0818 28.7229 72.2752C28.7632 72.4123 28.8237 72.5009 28.9043 72.5412C28.9929 72.5815 29.1219 72.6098 29.2912 72.6259C29.3476 72.6339 29.4081 72.646 29.4725 72.6622C29.5451 72.6702 29.6257 72.6823 29.7144 72.6984C29.8998 72.7387 30.0449 72.8395 30.1496 73.0007C30.2544 73.1539 30.3068 73.3513 30.3068 73.5932C30.3068 73.8672 30.1658 74.0808 29.8836 74.234C29.6015 74.3871 29.2146 74.4637 28.7229 74.4637C28.2715 74.4637 27.8403 74.3347 27.4292 74.0768C27.0181 73.8108 26.7359 73.4561 26.5828 73.0128C26.4216 72.5372 26.341 71.6384 26.341 70.3165C25.7767 70.3004 25.3213 70.2278 24.9747 70.0989C24.6361 69.9618 24.4669 69.72 24.4669 69.3734C24.4669 68.9381 24.6281 68.6479 24.9505 68.5028C25.2729 68.3497 25.7364 68.2691 26.341 68.261C26.3652 67.6162 26.4659 67.0801 26.6432 66.6529C26.8206 66.2176 27.139 66 27.5984 66C28.066 66 28.3682 66.2015 28.5053 66.6046C28.6504 67.0076 28.7148 67.5597 28.6987 68.261C29.4322 68.253 29.9723 68.3094 30.3189 68.4303C30.6736 68.5512 30.8509 68.8172 30.8509 69.2283Z" fill="#ADA2D7"/>
<path d="M23.6754 67.5235C23.6754 67.9265 23.5827 68.2933 23.3973 68.6238C23.22 68.9462 23.0023 69.2001 22.7444 69.3855C22.4945 69.5709 22.2688 69.6636 22.0673 69.6636C21.898 69.6636 21.761 69.6152 21.6562 69.5185C21.5595 69.4218 21.5111 69.3009 21.5111 69.1558C21.5111 69.051 21.5353 68.9623 21.5836 68.8898C21.632 68.8172 21.7046 68.7245 21.8013 68.6117C21.8658 68.5472 21.9262 68.4746 21.9826 68.394C22.0391 68.3134 22.0794 68.2328 22.1036 68.1522C21.8376 68.0797 21.636 67.9547 21.499 67.7774C21.362 67.592 21.2935 67.3824 21.2935 67.1486C21.2935 66.8504 21.3982 66.5844 21.6078 66.3506C21.8255 66.1169 22.0955 66 22.4179 66C22.7968 66 23.0991 66.129 23.3247 66.3869C23.5585 66.6368 23.6754 67.0156 23.6754 67.5235Z" fill="#ADA2D7"/>
<path d="M18.8747 74.4635C18.5845 74.4635 18.3669 74.3829 18.2218 74.2217C18.0848 74.0605 18.0001 73.863 17.9679 73.6292C17.9356 73.3955 17.9195 73.0932 17.9195 72.7224C17.9195 72.2468 17.855 71.8801 17.7261 71.6221C17.5971 71.3642 17.3875 71.2352 17.0973 71.2352C16.8313 71.2352 16.6298 71.3642 16.4928 71.6221C16.3638 71.872 16.2993 72.2186 16.2993 72.662C16.2993 73.0892 16.2872 73.4116 16.263 73.6292C16.2389 73.8469 16.1583 74.0403 16.0212 74.2096C15.8842 74.3708 15.6585 74.4514 15.3441 74.4514C14.8847 74.4514 14.5622 74.1572 14.3768 73.5688C14.1915 72.9723 14.0988 72.2751 14.0988 71.477C14.0988 69.5425 14.5058 68.5752 15.3199 68.5752C15.5456 68.5752 15.731 68.6316 15.8761 68.7445C16.0212 68.8493 16.122 69.0024 16.1784 69.2039C16.2832 69.0911 16.4444 68.9903 16.6621 68.9017C16.8878 68.813 17.1255 68.7687 17.3754 68.7687C18.2621 68.7687 18.9231 69.0911 19.3584 69.7359C19.8017 70.3808 20.0234 71.2554 20.0234 72.3597C20.0234 73.0126 19.9387 73.5285 19.7694 73.9073C19.6002 74.2781 19.3019 74.4635 18.8747 74.4635Z" fill="#ADA2D7"/>
<path d="M10.94 74.4758C10.3596 74.4838 9.83971 74.3629 9.38025 74.113C8.92885 73.8632 8.57418 73.5206 8.31624 73.0853C8.06636 72.642 7.93336 72.1503 7.91724 71.6102C7.90918 71.0701 8.03412 70.5865 8.29206 70.1593C8.55 69.7321 8.9087 69.3935 9.36816 69.1436C9.83568 68.8937 10.3596 68.7688 10.94 68.7688C11.5042 68.7688 12.0121 68.8897 12.4635 69.1315C12.9229 69.3734 13.2857 69.7119 13.5517 70.1472C13.8177 70.5825 13.9587 71.0701 13.9748 71.6102C13.9829 72.1341 13.858 72.6137 13.6 73.049C13.3421 73.4762 12.9793 73.8188 12.5118 74.0768C12.0524 74.3347 11.5284 74.4677 10.94 74.4758ZM10.9763 72.7105C11.1939 72.7105 11.3833 72.6258 11.5445 72.4566C11.7058 72.2873 11.7864 72.0898 11.7864 71.8641C11.7864 71.6384 11.7058 71.4449 11.5445 71.2837C11.3833 71.1145 11.1939 71.0298 10.9763 71.0298C10.7586 71.0298 10.5692 71.1145 10.408 71.2837C10.2468 71.4449 10.1662 71.6384 10.1662 71.8641C10.1662 72.0898 10.2468 72.2873 10.408 72.4566C10.5692 72.6258 10.7586 72.7105 10.9763 72.7105Z" fill="#ADA2D7"/>
<path d="M3.39758 74.4637C2.35775 74.4637 1.60005 74.3388 1.12447 74.0889C0.648885 73.839 0.342579 73.44 0.205548 72.8919C0.0685158 72.3438 0 71.4893 0 70.3286C0 69.1517 0.0644855 68.2771 0.193456 67.7048C0.330488 67.1245 0.632764 66.6972 1.10028 66.4232C1.57586 66.1411 2.32954 66 3.36131 66C3.98198 66 4.61474 66.1451 5.2596 66.4353C5.90445 66.7174 6.44855 67.1849 6.89189 67.8378C7.33523 68.4908 7.55689 69.325 7.55689 70.3407C7.55689 71.316 7.33119 72.114 6.8798 72.7347C6.4284 73.3473 5.8843 73.7907 5.24751 74.0647C4.61071 74.3307 3.99407 74.4637 3.39758 74.4637ZM2.64794 72.3357C2.90588 72.3679 3.09127 72.3841 3.20412 72.3841C3.77643 72.3841 4.21977 72.2309 4.53414 71.9246C4.8485 71.6183 5.00569 71.1951 5.00569 70.655C5.00569 70.1714 4.85253 69.7966 4.54623 69.5306C4.23992 69.2565 3.80867 69.1195 3.25249 69.1195C3.04291 69.1195 2.84139 69.1356 2.64794 69.1678V72.3357Z" fill="#ADA2D7"/>
<defs>
<radialGradient id="paint0_radial_1302_9399" cx="0" cy="0" r="1" gradientUnits="userSpaceOnUse" gradientTransform="translate(34.5102 35.8771) scale(26.6435 24.0717)">
<stop stop-color="#ADA2D7"/>
<stop offset="0.37" stop-color="#B7ADDF"/>
<stop offset="1" stop-color="#D1CAF4"/>
</radialGradient>
<radialGradient id="paint1_radial_1302_9399" cx="0" cy="0" r="1" gradientUnits="userSpaceOnUse" gradientTransform="translate(34.3381 15.3274) scale(17.5117 17.3861)">
<stop stop-color="white" stop-opacity="0.6"/>
<stop offset="0.42" stop-color="white" stop-opacity="0.33"/>
<stop offset="0.81" stop-color="white" stop-opacity="0.09"/>
<stop offset="1" stop-color="white" stop-opacity="0"/>
</radialGradient>
<radialGradient id="paint2_radial_1302_9399" cx="0" cy="0" r="1" gradientUnits="userSpaceOnUse" gradientTransform="translate(34.2559 29.2688) scale(6.52549 3.23934)">
<stop stop-color="white" stop-opacity="0.6"/>
<stop offset="0.09" stop-color="white" stop-opacity="0.51"/>
<stop offset="0.31" stop-color="white" stop-opacity="0.33"/>
<stop offset="0.51" stop-color="white" stop-opacity="0.19"/>
<stop offset="0.7" stop-color="white" stop-opacity="0.08"/>
<stop offset="0.87" stop-color="white" stop-opacity="0.02"/>
<stop offset="1" stop-color="white" stop-opacity="0"/>
</radialGradient>
<clipPath id="clip0_1302_9399">
<rect width="60" height="60" fill="white" transform="translate(4.25592)"/>
</clipPath>
</defs>
</svg>
