<svg width="56" height="56" viewBox="0 0 56 56" fill="none" xmlns="http://www.w3.org/2000/svg">
<path d="M53.9784 32.715C53.8695 34.3919 53.4237 35.9175 53.1288 36.9283C51.3496 42.9879 47.5363 47.3457 42.4085 50.5534C37.3207 53.7353 31.7532 55.1071 25.8008 54.9936C16.3 54.8131 7.20896 48.3616 3.63053 39.2748C2.04123 35.2368 1.04666 31.0802 1.00168 26.7431C0.916719 18.3061 4.03535 7.44522 13.921 2.5563C23.147 -2.00773 33.7773 3.92809 35.1867 14.3557C35.2916 15.1293 35.1167 15.5676 34.3221 15.7739C31.1035 16.6094 28.0398 17.8935 25.0411 19.353C24.4264 19.6521 23.7867 19.9048 23.3019 20.4308C22.992 20.766 22.8621 21.1579 23.037 21.586C23.2219 22.0398 23.6268 22.1068 24.0616 22.112C24.5414 22.1223 24.9412 21.8954 25.341 21.6891C29.3342 19.6211 33.5274 18.0843 37.9005 17.2128C45.792 15.6398 51.7794 20.2606 53.4837 27.5785C53.6086 28.1097 54.1091 30.7037 53.9784 32.715Z" fill="#81A2BB"/>
<path d="M47.4904 43.9395C47.1742 45.3171 46.1055 45.8055 44.9714 46.2171C43.8808 46.6122 42.9921 46.3214 42.5123 45.2567C42.0651 44.2688 41.8689 43.1657 41.3672 42.2108C40.5166 40.5808 39.328 40.5753 38.3683 42.1779C38.0139 42.7706 37.8939 43.6487 36.9725 43.0944C36.2854 42.6828 36.3727 41.9144 36.6072 41.2174C37.2615 39.2801 39.328 38.4185 41.16 39.3186C41.8852 39.6753 42.5014 40.1967 42.883 40.8936C43.5428 42.101 44.2625 42.9572 45.8656 42.6004C46.7216 42.4084 47.3214 43.0395 47.4904 43.9341V43.9395Z" fill="black"/>
<path d="M49.1589 35.7568C50.0913 35.7458 50.9855 36.0202 51.558 36.7337C52.534 37.9465 53.2919 39.2198 55.2112 39.2198C56.0346 39.2198 56.1981 40.3668 55.7728 41.179C55.2658 42.1449 54.3825 42.562 53.3247 42.573C52.2505 42.584 51.7652 41.8815 51.4981 40.943C51.3617 40.4656 51.2636 39.9716 51.0728 39.5161C50.2113 37.48 49.208 37.2495 47.6267 38.7698C47.1851 39.1978 46.8198 39.7686 46.1982 39.3076C45.6366 38.885 45.8329 38.2155 46.0946 37.6721C46.7053 36.3934 47.714 35.7019 49.1644 35.7623L49.1589 35.7568Z" fill="black"/>
<path d="M22.6835 31.0704C22.6835 31.0704 22.2746 30.9716 22.0947 30.5984C21.8438 30.0606 22.1165 29.6051 22.6181 29.402C24.123 28.7874 25.3553 27.816 26.3586 26.5702C27.2637 25.4506 28.5014 24.5176 28.0434 22.7011C27.8307 21.8394 28.5941 21.2742 29.4283 21.0491C30.0663 20.879 30.6061 21.1699 31.0096 21.6254C31.5276 22.2071 31.6039 22.9151 31.135 23.5352C29.4174 25.8238 27.8907 28.2934 25.508 29.9892C24.7828 30.5051 24.0303 30.9826 22.6781 31.0594L22.6835 31.0704Z" fill="black"/>
<path d="M28.401 14.1941C28.3574 14.8033 28.0739 15.2424 27.7031 15.1545C26.1928 14.7923 25.304 15.5552 24.5243 16.6747C24.2789 17.026 23.8209 17.0699 23.4938 16.79C23.3029 16.6254 23.1721 16.2796 23.1721 16.0162C23.1721 13.9801 26.0237 12.3611 27.7467 13.4258C28.0521 13.6124 28.2375 13.9966 28.401 14.1941Z" fill="black"/>
<path d="M20.2768 7.33941C20.3368 8.13518 19.1263 9.81454 18.2921 10.0286C17.6814 10.1877 17.3433 9.81454 17.3324 9.26024C17.3161 8.43703 18.7392 6.74121 19.4807 6.67535C19.8951 6.63693 20.2223 6.86194 20.2768 7.33941Z" fill="black"/>
<path d="M26.1873 5.86317C26.2309 6.67541 25.8874 7.01567 25.3531 6.99921C24.7587 6.98275 24.1971 6.70285 24.0118 6.07721C23.8482 5.51742 24.1808 5.13326 24.7206 5.02898C25.5385 4.86983 25.931 5.39669 26.1819 5.86317H26.1873Z" fill="black"/>
<path d="M23.1339 11.5105C23.1557 11.8617 22.9976 12.191 22.5559 12.2294C22.1306 12.2623 21.8362 11.9715 21.8471 11.5708C21.8471 11.3623 22.0979 11.0549 22.3106 10.9671C22.7141 10.797 23.0194 10.9946 23.1393 11.5105H23.1339Z" fill="black"/>
<path d="M25.0042 10.3085C25.0641 9.91886 25.2005 9.55116 25.7075 9.63897C26.0074 9.68836 26.2364 9.91337 26.2092 10.2317C26.1765 10.6323 26.0402 11.0275 25.5167 10.9342C25.2168 10.8848 25.0478 10.6378 24.9987 10.3085H25.0042Z" fill="black"/>
</svg>
