<svg width="56" height="56" viewBox="0 0 56 56" fill="none" xmlns="http://www.w3.org/2000/svg">
<path d="M33.8267 51C27.1801 50.5215 20.3434 51.0161 13.6641 49.5378C9.50994 48.6185 5.67616 47.1455 3.86788 42.8663C2.50488 39.6408 2.92301 36.3346 3.91675 33.1467C6.38753 25.2442 9.50994 17.6051 14.3809 10.8154C15.8199 8.81017 17.02 6.62757 18.9966 4.98255C23.1834 1.48823 27.7231 1.21406 32.5018 3.38054C36.2269 5.06856 38.8661 7.98228 41.2065 11.2777C43.8456 14.987 46.7725 18.519 48.57 22.7229C50.8018 27.9483 53.3106 33.136 52.9685 39.0494C52.8925 40.4095 52.8925 41.7965 52.5938 43.1136C51.9802 45.8123 50.2968 47.6508 47.674 48.726C43.2646 50.5323 38.638 50.9355 33.8267 51Z" fill="#ACBCE5"/>
<path d="M12.9504 47.2654C13.3706 49.2435 14.6196 50.2239 15.6959 51.319C16.5593 52.202 16.6226 53.171 15.9147 54.1285C15.293 54.9656 14.3836 55.172 13.3993 54.8681C12.5072 54.5929 11.7704 53.9278 12.2482 53.0334C12.9216 51.7777 12.5072 50.9119 11.7762 49.9544C11.4654 49.5473 11.2409 49.0542 11.0912 48.5669C10.3372 46.1588 11.7186 44.6738 14.2167 45.1783C14.6196 45.2586 15.057 45.3618 15.3851 45.5912C16.6687 46.4799 17.7796 46.7723 19.2646 45.7001C20.5711 44.7541 22.0677 45.5224 23.3627 46.2677C23.7369 46.4856 23.9901 46.8411 23.8232 47.3112C23.662 47.7642 23.2764 47.8903 22.8332 47.8731C22.7296 47.8731 22.626 47.8445 22.5224 47.833C21.7338 47.7699 20.6978 46.9214 20.22 47.7986C19.6099 48.9224 20.882 49.5645 21.5381 50.3042C21.8835 50.6941 22.3267 50.9922 22.6605 51.3821C23.2937 52.1217 23.8117 52.9474 23.1095 53.8934C22.4706 54.7477 21.5094 54.828 20.5539 54.5929C19.4315 54.3177 19.1437 53.6125 19.443 52.4715C19.892 50.7858 18.5739 49.5187 17.5608 48.8822C16.3694 48.1369 14.988 47.1392 12.9504 47.2596V47.2654Z" fill="black"/>
<path d="M17.2903 33.2237C16.3809 33.2581 15.8859 33.046 15.8399 32.4382C15.7996 31.8591 16.237 31.5209 16.7896 31.4005C18.1019 31.108 19.42 30.8214 20.7381 30.5576C23.6045 29.9843 26.5112 29.9556 29.4179 30.0129C30.1777 30.0301 31.3749 29.8123 31.3059 30.9991C31.2483 31.9968 30.1432 32.0197 29.3086 32.0082C25.9817 31.9624 22.6721 32.1172 19.4027 32.788C18.5912 32.9543 17.7796 33.1205 17.2903 33.2237Z" fill="black"/>
<path d="M35.0026 39.3484C35.1005 39.9333 34.9163 40.3002 34.6515 40.6213C32.4931 43.2301 29.4425 43.8837 26.3285 44.2105C25.3328 44.3137 24.5903 43.3849 24.7112 42.3242C24.832 41.2635 25.8335 40.4321 26.6969 40.8793C29.5 42.3299 31.3937 40.9424 33.3334 39.251C33.909 38.7521 34.5997 38.4769 35.0084 39.3484H35.0026Z" fill="black"/>
<path d="M12.2482 41.9675C12.11 42.9938 11.4884 43.7564 10.2739 43.8424C8.09243 43.9972 4.967 40.6717 5.13967 38.4184C5.17996 37.9024 5.27206 37.3462 5.89945 37.2086C6.53835 37.0653 6.83765 37.4838 6.9873 38.0228C7.10242 38.4184 7.11969 38.8599 7.30388 39.2211C7.86219 40.3219 8.4608 40.987 9.98611 40.4022C11.5057 39.8174 12.3518 40.5341 12.2482 41.9732V41.9675Z" fill="black"/>
<path d="M31.2713 20.369C31.1159 20.8449 30.9202 21.2348 30.4482 21.2634C30.0453 21.2921 29.6078 21.2749 29.228 21.1545C27.0407 20.4607 24.8708 19.7326 22.6893 19.0101C22.1598 18.8324 21.6993 18.5113 21.7338 17.9322C21.7741 17.3359 22.2979 17.0435 22.8562 17.0894C25.7054 17.3474 28.2898 18.4483 30.8396 19.6408C31.0641 19.744 31.1504 20.1454 31.277 20.369H31.2713Z" fill="black"/>
<path d="M17.7507 18.4312C17.7105 18.8899 17.4917 19.274 17.0543 19.36C15.0915 19.727 13.2094 20.2602 11.4711 21.3152C10.8207 21.7108 10.1357 21.275 10.2451 20.501C10.4638 19.0275 11.8049 18.6548 12.9619 18.219C14.4239 17.6686 15.9204 17.101 17.4802 17.9151C17.6241 17.9897 17.6587 18.2592 17.745 18.4312H17.7507Z" fill="black"/>
<path d="M23.5585 25.8906C24.0765 25.816 24.5888 25.6956 25.1068 25.6842C25.7917 25.667 26.4364 25.9192 26.3616 26.7047C26.2925 27.4157 25.6709 27.668 24.9802 27.6967C23.6621 27.7483 23.3743 27.0086 23.5527 25.8906H23.5642H23.5585Z" fill="white"/>
<path d="M23.5469 25.9021C23.2419 25.8734 22.931 25.8677 22.6317 25.8046C21.9583 25.6613 21.4806 25.2943 21.6302 24.5432C21.7338 24.0215 22.1022 23.5915 22.6778 23.6087C23.5527 23.6373 23.9556 24.1591 23.8405 25.0249C23.8002 25.323 23.6505 25.6039 23.5527 25.8906H23.5412L23.5469 25.9021Z" fill="black"/>
<path d="M14.7404 25.5982C14.7001 24.9847 15.0685 24.6464 15.5981 24.5948C15.9895 24.5604 16.3866 24.7611 16.4154 25.2656C16.4499 25.8677 16.0816 26.2174 15.552 26.2748C15.1433 26.3206 14.7922 26.0798 14.7347 25.5982H14.7404Z" fill="black"/>
</svg>
