<svg width="160" height="32" viewBox="0 0 160 32" fill="none" xmlns="http://www.w3.org/2000/svg">
<path d="M142.924 26.9616C141.994 26.9616 141.218 26.7807 140.598 26.4187C139.977 26.0568 139.667 25.5225 139.667 24.8158C139.667 24.2471 139.934 23.7989 140.468 23.4715C141.003 23.144 141.632 22.9975 142.356 23.032C143.114 23.0664 143.7 23.032 144.114 22.9286C144.545 22.8251 144.872 22.6356 145.096 22.3598C143.51 22.3598 142.244 22.1357 141.296 21.6876C140.348 21.2223 139.658 20.507 139.227 19.5418C138.814 18.5594 138.607 17.2667 138.607 15.6638C138.607 14.285 138.814 13.1733 139.227 12.3288C139.658 11.467 140.33 11.0361 141.244 11.0361C142.054 11.0361 142.649 11.2688 143.028 11.7342C143.424 12.1823 143.622 12.7683 143.622 13.4922L143.597 14.6297C143.579 14.8538 143.571 15.1812 143.571 15.6121C143.571 16.4394 143.674 17.0685 143.881 17.4994C144.088 17.9131 144.501 18.1199 145.122 18.1199C145.742 18.1199 146.156 17.9131 146.363 17.4994C146.57 17.0685 146.673 16.448 146.673 15.638C146.673 15.2071 146.664 14.8796 146.647 14.6556L146.621 13.5439C146.621 12.7683 146.811 12.1564 147.19 11.7083C147.587 11.2602 148.19 11.0361 149 11.0361C149.913 11.0361 150.586 11.467 151.016 12.3288C151.447 13.1906 151.663 14.3022 151.663 15.6638C151.663 17.6976 151.37 19.5677 150.784 21.274C150.215 22.963 149.276 24.3332 147.966 25.3846C146.673 26.436 144.993 26.9616 142.924 26.9616Z" fill="#8573C9"/>
<path d="M128.901 23.1356C127.798 23.1356 127.057 22.4892 126.678 21.1966C126.316 19.9039 126.135 18.1201 126.135 15.845C126.135 14.8109 126.178 13.9491 126.264 13.2597C126.368 12.553 126.6 11.9584 126.962 11.4758C127.341 10.976 127.919 10.7261 128.694 10.7261C129.177 10.7261 129.599 10.8381 129.961 11.0622C130.34 11.2862 130.582 11.6051 130.685 12.0187C131.064 11.674 131.555 11.4155 132.159 11.2431C132.762 11.0708 133.408 10.9846 134.098 10.9846C134.649 10.9846 135.209 11.1225 135.778 11.3983C136.364 11.674 136.847 12.0532 137.226 12.5358C137.622 13.0011 137.82 13.5096 137.82 14.0611C137.82 14.6127 137.622 15.1039 137.226 15.5348C136.847 15.9484 136.338 16.1552 135.701 16.1552C135.494 16.1552 135.296 16.1294 135.106 16.0777C134.934 16.026 134.778 15.9743 134.641 15.9225C134.296 15.7847 134.02 15.7157 133.813 15.7157C133.141 15.7157 132.546 15.9829 132.029 16.5172C131.53 17.0342 131.28 17.7064 131.28 18.5337C131.28 19.4472 131.245 20.2055 131.176 20.8088C131.107 21.412 130.9 21.9549 130.556 22.4375C130.211 22.9029 129.66 23.1356 128.901 23.1356Z" fill="#8573C9"/>
<path d="M116.429 23.1356C115.326 23.1356 114.585 22.4892 114.206 21.1966C113.844 19.9039 113.663 18.1201 113.663 15.845C113.663 14.8109 113.706 13.9491 113.792 13.2597C113.895 12.553 114.128 11.9584 114.49 11.4758C114.869 10.976 115.447 10.7261 116.222 10.7261C116.705 10.7261 117.127 10.8381 117.489 11.0622C117.868 11.2862 118.109 11.6051 118.213 12.0187C118.592 11.674 119.083 11.4155 119.687 11.2431C120.29 11.0708 120.936 10.9846 121.625 10.9846C122.177 10.9846 122.737 11.1225 123.306 11.3983C123.892 11.674 124.375 12.0532 124.754 12.5358C125.15 13.0011 125.348 13.5096 125.348 14.0611C125.348 14.6127 125.15 15.1039 124.754 15.5348C124.375 15.9484 123.866 16.1552 123.228 16.1552C123.022 16.1552 122.823 16.1294 122.634 16.0777C122.461 16.026 122.306 15.9743 122.168 15.9225C121.824 15.7847 121.548 15.7157 121.341 15.7157C120.669 15.7157 120.074 15.9829 119.557 16.5172C119.057 17.0342 118.807 17.7064 118.807 18.5337C118.807 19.4472 118.773 20.2055 118.704 20.8088C118.635 21.412 118.428 21.9549 118.084 22.4375C117.739 22.9029 117.187 23.1356 116.429 23.1356Z" fill="#8573C9"/>
<path d="M106.139 23.1614C104.898 23.1786 103.786 22.9201 102.804 22.3858C101.839 21.8515 101.081 21.119 100.529 20.1883C99.9947 19.2404 99.7103 18.189 99.6758 17.0342C99.6586 15.8794 99.9258 14.8453 100.477 13.9318C101.029 13.0184 101.796 12.2945 102.778 11.7602C103.778 11.2259 104.898 10.9587 106.139 10.9587C107.346 10.9587 108.431 11.2173 109.397 11.7343C110.379 12.2514 111.155 12.9753 111.723 13.906C112.292 14.8367 112.594 15.8794 112.628 17.0342C112.645 18.1545 112.378 19.18 111.827 20.1107C111.275 21.0242 110.5 21.7567 109.5 22.3083C108.518 22.8598 107.397 23.1442 106.139 23.1614ZM106.217 19.3869C106.682 19.3869 107.087 19.2059 107.432 18.8439C107.776 18.482 107.949 18.0597 107.949 17.5771C107.949 17.0945 107.776 16.6809 107.432 16.3362C107.087 15.9742 106.682 15.7933 106.217 15.7933C105.751 15.7933 105.346 15.9742 105.002 16.3362C104.657 16.6809 104.485 17.0945 104.485 17.5771C104.485 18.0597 104.657 18.482 105.002 18.8439C105.346 19.2059 105.751 19.3869 106.217 19.3869Z" fill="#8573C9"/>
<path d="M83.879 23.1355C82.5001 23.1355 81.2937 22.7563 80.2595 21.998C79.2426 21.2396 78.4584 20.1624 77.9069 18.7663C77.3554 17.3703 77.0796 15.7243 77.0796 13.8284C77.0796 12.7253 77.2606 11.5447 77.6225 10.2865C78.0017 9.02834 78.536 7.96836 79.2254 7.10659C79.9321 6.22759 80.7507 5.78809 81.6814 5.78809C82.4398 5.78809 83.0689 6.06385 83.5687 6.61538C84.0686 7.16692 84.3185 7.84772 84.3185 8.65778C84.3185 8.89908 84.2581 9.22655 84.1375 9.6402C84.0341 10.0366 83.9134 10.4503 83.7756 10.8811C83.517 11.6223 83.3188 12.2772 83.1809 12.846C83.043 13.3975 82.9741 13.9318 82.9741 14.4489C82.9741 15.2072 83.0861 15.7588 83.3102 16.1035C83.5342 16.4482 83.81 16.6205 84.1375 16.6205C84.5684 16.6205 84.87 16.4051 85.0424 15.9742C85.2319 15.5261 85.3267 14.7074 85.3267 13.5182L85.3009 11.7343C85.3009 10.3555 85.4819 9.26102 85.8438 8.45096C86.2057 7.62366 86.9296 7.21001 88.0155 7.21001C88.8255 7.21001 89.4374 7.43407 89.851 7.88219C90.2647 8.33031 90.5318 8.89908 90.6525 9.58849C90.7731 10.2607 90.8335 11.0794 90.8335 12.0445V13.363C90.8335 14.6212 90.9369 15.5175 91.1437 16.0518C91.3677 16.5688 91.7211 16.8274 92.2037 16.8274C92.5311 16.8274 92.781 16.6636 92.9534 16.3362C93.143 15.9914 93.2378 15.483 93.2378 14.8108C93.2378 14.311 93.1775 13.8112 93.0568 13.3113C92.9362 12.8115 92.7466 12.1738 92.488 11.3982C92.264 10.6571 92.1002 10.1056 91.9968 9.74361C91.9107 9.36443 91.8676 9.00249 91.8676 8.65778C91.8676 7.84772 92.1261 7.17553 92.6432 6.64124C93.1775 6.10694 93.7979 5.83979 94.5046 5.83979C95.5215 5.83979 96.3746 6.27068 97.064 7.13245C97.7707 7.97698 98.2964 9.01972 98.6411 10.2607C98.9858 11.5016 99.1581 12.6909 99.1581 13.8284C99.1581 15.7243 98.8824 17.3703 98.3308 18.7663C97.7793 20.1624 96.9865 21.2396 95.9524 21.998C94.9355 22.7391 93.7376 23.1097 92.3588 23.1097C91.6004 23.1097 90.8593 22.9373 90.1354 22.5926C89.4115 22.2479 88.7393 21.7308 88.1189 21.0414C87.4984 21.7308 86.8176 22.2565 86.0765 22.6185C85.3526 22.9632 84.6201 23.1355 83.879 23.1355Z" fill="#8573C9"/>
<path d="M68.0339 11.9411C68.0339 12.8374 67.6116 13.4492 66.7671 13.7767C65.9225 14.0869 64.7678 14.2507 63.3027 14.2679C63.2855 14.6988 63.2769 15.3968 63.2769 16.362C63.2769 17.3444 63.3458 18.0424 63.4837 18.4561C63.5699 18.7491 63.6992 18.9387 63.8715 19.0249C64.0611 19.111 64.3369 19.1714 64.6988 19.2058C64.8195 19.2231 64.9487 19.2489 65.0866 19.2834C65.2417 19.3006 65.4141 19.3265 65.6037 19.361C66.0001 19.4471 66.3103 19.6626 66.5344 20.0073C66.7584 20.3348 66.8705 20.757 66.8705 21.2741C66.8705 21.8601 66.5689 22.3168 65.9656 22.6443C65.3624 22.9718 64.5351 23.1355 63.4837 23.1355C62.5185 23.1355 61.5964 22.8597 60.7174 22.3082C59.8384 21.7394 59.2352 20.9811 58.9077 20.0331C58.563 19.0162 58.3907 17.0945 58.3907 14.2679C57.1842 14.2334 56.2104 14.0783 55.4693 13.8025C54.7454 13.5095 54.3834 12.9925 54.3834 12.2513C54.3834 11.3206 54.7281 10.7002 55.4175 10.3899C56.107 10.0625 57.098 9.8901 58.3907 9.87286C58.4424 8.49403 58.6578 7.34787 59.037 6.4344C59.4162 5.50369 60.097 5.03833 61.0794 5.03833C62.079 5.03833 62.7254 5.46922 63.0184 6.33099C63.3286 7.19276 63.4665 8.37338 63.432 9.87286C65.0004 9.85563 66.1552 9.97627 66.8963 10.2348C67.6547 10.4933 68.0339 11.0621 68.0339 11.9411Z" fill="#C1B8E5"/>
<path d="M52.174 8.29582C52.174 9.15759 51.9758 9.9418 51.5794 10.6485C51.2002 11.3379 50.7348 11.8808 50.1833 12.2772C49.649 12.6736 49.1664 12.8718 48.7355 12.8718C48.3736 12.8718 48.0806 12.7684 47.8565 12.5616C47.6497 12.3548 47.5463 12.0962 47.5463 11.786C47.5463 11.5619 47.598 11.3723 47.7014 11.2172C47.8048 11.0621 47.9599 10.8639 48.1668 10.6226C48.3046 10.4847 48.4339 10.3296 48.5546 10.1572C48.6752 9.98489 48.7614 9.81254 48.8131 9.64018C48.2443 9.48507 47.8134 9.21792 47.5204 8.83874C47.2274 8.44232 47.0809 7.9942 47.0809 7.49438C47.0809 6.85667 47.305 6.2879 47.7531 5.78807C48.2185 5.28824 48.7959 5.03833 49.4853 5.03833C50.2953 5.03833 50.9417 5.3141 51.4243 5.86563C51.9241 6.39993 52.174 7.20999 52.174 8.29582Z" fill="#C1B8E5"/>
<path d="M41.3923 23.1354C40.7718 23.1354 40.3064 22.963 39.9962 22.6183C39.7032 22.2736 39.5222 21.8513 39.4533 21.3515C39.3844 20.8517 39.3499 20.2054 39.3499 19.4125C39.3499 18.3956 39.212 17.6114 38.9362 17.0599C38.6605 16.5084 38.2123 16.2326 37.5919 16.2326C37.0231 16.2326 36.5922 16.5084 36.2992 17.0599C36.0234 17.5942 35.8856 18.3353 35.8856 19.2833C35.8856 20.1967 35.8597 20.8862 35.808 21.3515C35.7563 21.8169 35.5839 22.2305 35.2909 22.5925C34.9979 22.9372 34.5153 23.1095 33.8432 23.1095C32.8607 23.1095 32.1713 22.4804 31.7749 21.2223C31.3785 19.9468 31.1803 18.456 31.1803 16.7497C31.1803 12.6132 32.0507 10.5449 33.7915 10.5449C34.2741 10.5449 34.6705 10.6656 34.9807 10.9069C35.2909 11.1309 35.5064 11.4584 35.627 11.8893C35.8511 11.648 36.1958 11.4325 36.6612 11.243C37.1437 11.0534 37.6522 10.9586 38.1865 10.9586C40.0824 10.9586 41.4957 11.648 42.4264 13.0268C43.3743 14.4057 43.8483 16.2757 43.8483 18.6369C43.8483 20.033 43.6673 21.1361 43.3054 21.9461C42.9435 22.739 42.3057 23.1354 41.3923 23.1354Z" fill="#C1B8E5"/>
<path d="M23.9091 23.1614C22.6682 23.1786 21.5565 22.9201 20.5741 22.3858C19.6089 21.8515 18.8505 21.119 18.299 20.1883C17.7647 19.2404 17.4803 18.189 17.4459 17.0342C17.4286 15.8794 17.6958 14.8453 18.2473 13.9318C18.7988 13.0184 19.5658 12.2945 20.5482 11.7602C21.5479 11.2259 22.6682 10.9587 23.9091 10.9587C25.1156 10.9587 26.2014 11.2173 27.1666 11.7343C28.149 12.2514 28.9246 12.9753 29.4934 13.906C30.0622 14.8367 30.3638 15.8794 30.3983 17.0342C30.4155 18.1545 30.1483 19.18 29.5968 20.1107C29.0453 21.0242 28.2697 21.7567 27.27 22.3083C26.2876 22.8598 25.1673 23.1442 23.9091 23.1614ZM23.9867 19.3869C24.452 19.3869 24.8571 19.2059 25.2018 18.8439C25.5465 18.482 25.7188 18.0597 25.7188 17.5771C25.7188 17.0945 25.5465 16.6809 25.2018 16.3362C24.8571 15.9742 24.452 15.7933 23.9867 15.7933C23.5213 15.7933 23.1163 15.9742 22.7716 16.3362C22.4269 16.6809 22.2545 17.0945 22.2545 17.5771C22.2545 18.0597 22.4269 18.482 22.7716 18.8439C23.1163 19.2059 23.5213 19.3869 23.9867 19.3869Z" fill="#C1B8E5"/>
<path d="M7.26472 23.1355C5.04136 23.1355 3.42123 22.8684 2.40434 22.3341C1.38745 21.7998 0.732505 20.9466 0.439503 19.7746C0.146501 18.6026 0 16.7756 0 14.2937C0 11.7774 0.137883 9.90733 0.41365 8.68362C0.706652 7.44267 1.35298 6.52919 2.35263 5.94319C3.36952 5.33995 4.98103 5.03833 7.18716 5.03833C8.51429 5.03833 9.86727 5.34857 11.2461 5.96904C12.6249 6.57228 13.7883 7.57194 14.7363 8.968C15.6842 10.3641 16.1582 12.1479 16.1582 14.3196C16.1582 16.4051 15.6756 18.1114 14.7104 19.4385C13.7452 20.7484 12.5818 21.6963 11.2202 22.2824C9.85865 22.8511 8.54014 23.1355 7.26472 23.1355ZM5.66183 18.5854C6.21336 18.6543 6.60978 18.6888 6.85107 18.6888C8.07479 18.6888 9.02273 18.3613 9.69491 17.7064C10.3671 17.0514 10.7032 16.1465 10.7032 14.9918C10.7032 13.9577 10.3757 13.1562 9.72077 12.5874C9.06582 12.0014 8.14373 11.7084 6.95449 11.7084C6.50636 11.7084 6.07548 11.7429 5.66183 11.8118V18.5854Z" fill="#C1B8E5"/>
</svg>
