<svg width="40" height="40" viewBox="0 0 40 40" fill="none" xmlns="http://www.w3.org/2000/svg">
<g clip-path="url(#clip0_489_10529)">
<path d="M20.0001 35.9597C25.5314 35.9597 30.0154 34.9255 30.0154 33.6497C30.0154 32.374 25.5314 31.3398 20.0001 31.3398C14.4688 31.3398 9.98486 32.374 9.98486 33.6497C9.98486 34.9255 14.4688 35.9597 20.0001 35.9597Z" fill="#5843A8"/>
<path d="M20 34.136C27.4558 34.136 33.5 28.1896 33.5 20.8544C33.5 13.5192 27.4558 7.57288 20 7.57288C12.5442 7.57288 6.5 13.5192 6.5 20.8544C6.5 28.1896 12.5442 34.136 20 34.136Z" fill="url(#paint0_radial_489_10529)"/>
<path d="M19.9998 24.9709C25.8424 24.9709 30.5788 20.2764 30.5788 14.4854C30.5788 8.69449 25.8424 4 19.9998 4C14.1573 4 9.4209 8.69449 9.4209 14.4854C9.4209 20.2764 14.1573 24.9709 19.9998 24.9709Z" fill="url(#paint1_radial_489_10529)"/>
<path d="M20.0001 23.4174C22.1802 23.4174 23.9475 22.5481 23.9475 21.4757C23.9475 20.4033 22.1802 19.5339 20.0001 19.5339C17.82 19.5339 16.0527 20.4033 16.0527 21.4757C16.0527 22.5481 17.82 23.4174 20.0001 23.4174Z" fill="url(#paint2_radial_489_10529)"/>
<path d="M15.3988 30.5553C15.3293 30.5553 15.2583 30.5367 15.1935 30.4994C13.2625 29.3436 12.5235 27.1518 12.4935 27.0586C12.4272 26.8551 12.5409 26.6361 12.7477 26.5693C12.9546 26.504 13.1772 26.6143 13.2451 26.8194C13.2514 26.8396 13.9288 28.8326 15.604 29.8361C15.7904 29.9479 15.8488 30.1856 15.7367 30.3689C15.6625 30.4885 15.533 30.5553 15.3988 30.5553Z" fill="#241561"/>
<path d="M15.0531 30.7402C15.3863 30.9126 15.8 30.7883 15.9752 30.459C16.1505 30.1312 16.0242 29.7242 15.6894 29.5518C15.3563 29.3794 14.9426 29.5037 14.7673 29.833C14.5921 30.1607 14.7184 30.5677 15.0531 30.7402Z" fill="#241561"/>
<path d="M24.6011 30.5553C24.4684 30.5553 24.3374 30.4885 24.2632 30.3689C24.1495 30.1856 24.2095 29.9464 24.3958 29.8361C26.0711 28.8326 26.7484 26.8396 26.7547 26.8194C26.8226 26.6159 27.0453 26.5041 27.2521 26.5709C27.4589 26.6377 27.5726 26.8551 27.5063 27.0586C27.4763 27.1518 26.7374 29.3437 24.8063 30.4994C24.7416 30.5382 24.6721 30.5553 24.6011 30.5553Z" fill="#241561"/>
<path d="M24.3092 29.5519C23.976 29.7243 23.8481 30.1313 24.0234 30.4591C24.1986 30.7868 24.6123 30.9127 24.9455 30.7402C25.2786 30.5678 25.4065 30.1608 25.2313 29.833C25.056 29.5053 24.6423 29.3795 24.3092 29.5519Z" fill="#241561"/>
<path d="M16.9461 20.6649C16.8988 19.9953 17.3046 19.6303 17.8919 19.5775C18.3214 19.5386 18.7603 19.7577 18.7935 20.3076C18.833 20.9631 18.4272 21.3375 17.8414 21.4012C17.3946 21.4493 17.003 21.1915 16.9461 20.6649Z" fill="#241561"/>
<path d="M23.0536 20.6649C23.101 19.9953 22.6952 19.6303 22.1078 19.5775C21.6784 19.5386 21.2394 19.7577 21.2063 20.3076C21.1668 20.9631 21.5726 21.3375 22.1584 21.4012C22.6052 21.4493 22.9968 21.1915 23.0536 20.6649Z" fill="#241561"/>
<path d="M17.3095 18.529C17.2132 18.529 17.1153 18.5227 17.019 18.5119C15.3295 18.3208 14.4058 16.5126 14.3664 16.435C14.2701 16.2424 14.3506 16.0093 14.5464 15.9146C14.7422 15.8198 14.9774 15.8991 15.0753 16.0917C15.0895 16.1196 15.8569 17.6 17.1137 17.7414C17.8322 17.8222 18.6043 17.4525 19.4111 16.6431C19.3764 16.6012 19.3432 16.5577 19.3116 16.5142C18.1653 14.9732 18.7195 14.226 19.0116 13.9759C19.5043 13.555 20.3379 13.5985 20.8337 14.0723C21.0658 14.2944 21.7322 15.1348 20.5116 16.5981C20.5022 16.6105 20.4911 16.6229 20.4816 16.6354C21.3753 17.4245 22.5106 17.6653 23.3585 17.5239C23.8148 17.4478 24.6248 17.1868 24.9058 16.2859C24.9706 16.0808 25.1916 15.9659 25.3985 16.028C25.6069 16.0917 25.7237 16.3076 25.659 16.5126C25.3622 17.4618 24.5711 18.108 23.4879 18.2882C22.2627 18.4917 20.9348 18.0676 19.9543 17.2086C19.0701 18.0862 18.1843 18.529 17.3111 18.529H17.3095ZM19.8406 14.4606C19.7206 14.4606 19.6085 14.4932 19.5279 14.5616C19.3337 14.7278 19.3258 15.2171 19.9432 16.0497C20.4422 15.4315 20.5685 14.9033 20.2811 14.6284C20.1658 14.5181 19.9969 14.4606 19.839 14.4606H19.8406Z" fill="#241561"/>
<path d="M19.9999 25.7475C18.9988 25.7475 18.1841 24.946 18.1841 23.9611V23.2621C18.1841 23.0912 18.3262 22.9514 18.4999 22.9514H21.4999C21.6736 22.9514 21.8157 23.0912 21.8157 23.2621V23.9611C21.8157 24.946 21.0009 25.7475 19.9999 25.7475ZM18.8157 23.5728V23.9611C18.8157 24.6042 19.3462 25.1262 19.9999 25.1262C20.6536 25.1262 21.1841 24.6042 21.1841 23.9611V23.5728H18.8157Z" fill="#241561"/>
<path d="M18.0266 20.4038C18.1661 20.4038 18.2792 20.2925 18.2792 20.1553C18.2792 20.018 18.1661 19.9067 18.0266 19.9067C17.887 19.9067 17.7739 20.018 17.7739 20.1553C17.7739 20.2925 17.887 20.4038 18.0266 20.4038Z" fill="#F3F0FF"/>
<path d="M21.9738 20.4038C22.1133 20.4038 22.2265 20.2925 22.2265 20.1553C22.2265 20.018 22.1133 19.9067 21.9738 19.9067C21.8343 19.9067 21.7212 20.018 21.7212 20.1553C21.7212 20.2925 21.8343 20.4038 21.9738 20.4038Z" fill="#F3F0FF"/>
</g>
<defs>
<radialGradient id="paint0_radial_489_10529" cx="0" cy="0" r="1" gradientUnits="userSpaceOnUse" gradientTransform="translate(20.1216 24.5709) scale(12.7389 11.4049)">
<stop stop-color="#ADA2D7"/>
<stop offset="0.37" stop-color="#B7ADDF"/>
<stop offset="1" stop-color="#D1CAF4"/>
</radialGradient>
<radialGradient id="paint1_radial_489_10529" cx="0" cy="0" r="1" gradientUnits="userSpaceOnUse" gradientTransform="translate(20.0392 14.8348) scale(8.37278 8.2373)">
<stop stop-color="white" stop-opacity="0.6"/>
<stop offset="0.42" stop-color="white" stop-opacity="0.33"/>
<stop offset="0.81" stop-color="white" stop-opacity="0.09"/>
<stop offset="1" stop-color="white" stop-opacity="0"/>
</radialGradient>
<radialGradient id="paint2_radial_489_10529" cx="0" cy="0" r="1" gradientUnits="userSpaceOnUse" gradientTransform="translate(20.0001 21.4757) scale(3.12 1.53476)">
<stop stop-color="white" stop-opacity="0.6"/>
<stop offset="0.09" stop-color="white" stop-opacity="0.51"/>
<stop offset="0.31" stop-color="white" stop-opacity="0.33"/>
<stop offset="0.51" stop-color="white" stop-opacity="0.19"/>
<stop offset="0.7" stop-color="white" stop-opacity="0.08"/>
<stop offset="0.87" stop-color="white" stop-opacity="0.02"/>
<stop offset="1" stop-color="white" stop-opacity="0"/>
</radialGradient>
<clipPath id="clip0_489_10529">
<rect width="27" height="32" fill="white" transform="translate(6.5 4)"/>
</clipPath>
</defs>
</svg>
