<svg width="40" height="41" viewBox="0 0 40 41" fill="none" xmlns="http://www.w3.org/2000/svg">
<rect width="40" height="41" fill="#1E1E1E"/>
<g id="&#237;&#134;&#181;&#234;&#179;&#132; &#237;&#142;&#152;&#236;&#157;&#180;&#236;&#167;&#128;" clip-path="url(#clip0_1302_9833)">
<rect width="1280" height="1207" transform="translate(-40 -837)" fill="#F7F7F8"/>
<g id="Frame 1707483657">
<rect width="1280" height="435" transform="translate(-40 -65)" fill="white"/>
<g id="Frame 1707483572">
<g id="Frame 1707483658">
<g id="Layer_1" clip-path="url(#clip1_1302_9833)">
<path id="Vector" d="M24.247 40.4938H5.07301C4.66051 40.224 4.47822 39.8521 4.52197 39.3531C4.5501 39.0344 4.52718 38.7115 4.52718 38.3906C4.52718 27.6156 4.52718 16.8417 4.52718 6.06667C4.52718 5.31563 4.80947 5.02917 5.55426 5.02917C12.3824 5.02917 19.2116 5.02917 26.0397 5.02917C26.3824 5.27292 26.5168 5.60001 26.5126 6.02397C26.498 7.56147 26.5063 9.09897 26.5063 10.6375C25.6105 11.0896 24.7772 11.6427 24.073 12.3531C22.1209 14.324 21.1532 16.6792 21.2647 19.4844C21.3261 21.0417 21.7761 22.4573 22.5345 23.7896C22.9241 24.474 23.3803 25.1188 24.0074 25.6198C24.023 25.6979 24.0657 25.7563 24.1251 25.8115C24.8418 26.4781 25.6459 27.0177 26.5074 27.475C26.5074 29.9438 26.5074 32.4115 26.5074 34.8802C26.0407 34.8802 25.5741 34.8802 25.1074 34.8823C24.4918 34.8844 24.1709 35.201 24.1699 35.8125C24.1678 37.2261 24.1688 38.6396 24.1699 40.0521C24.1699 40.1771 24.1293 40.3146 24.247 40.4167C24.247 40.4427 24.247 40.4677 24.247 40.4938ZM13.1741 30.3625C12.3168 30.3625 11.4595 30.375 10.6022 30.3542C10.2918 30.3469 10.2063 30.4427 10.2095 30.749C10.223 32.074 10.2116 33.399 10.2095 34.7229C9.87197 34.7229 9.53447 34.7198 9.19593 34.725C8.95739 34.7281 8.76989 34.825 8.66676 35.0521C8.46364 35.499 8.76989 35.8948 9.32926 35.8948C12.2261 35.8969 15.122 35.8948 18.0188 35.8948C18.7459 35.8948 19.4741 35.899 20.2011 35.8927C20.6303 35.8896 20.8178 35.7094 20.823 35.3198C20.8282 34.9115 20.6376 34.7302 20.1866 34.7219C19.8751 34.7156 19.5636 34.7115 19.2522 34.7073C19.2543 32.8427 19.2532 30.9781 19.2626 29.1136C19.2636 28.8781 19.1886 28.7969 18.9511 28.8C18.0449 28.8125 17.1386 28.8094 16.2324 28.8115C16.2293 28.0083 16.2168 27.2052 16.2272 26.4031C16.2303 26.1458 16.1418 26.0677 15.8907 26.0719C15.1397 26.0844 14.3876 26.0917 13.6376 26.0688C13.322 26.0594 13.2438 26.1677 13.247 26.4677C13.2595 27.7625 13.2501 29.0583 13.248 30.3531C13.2241 30.3563 13.1991 30.3583 13.1751 30.3615L13.1741 30.3625ZM15.0876 11.1094C17.023 11.1094 18.9574 11.1115 20.8928 11.1083C21.3293 11.1083 21.5907 10.8688 21.5897 10.4927C21.5886 10.1656 21.3032 9.93647 20.8876 9.93647C19.5626 9.93438 18.2386 9.93647 16.9136 9.93647C14.3553 9.93647 11.797 9.93542 9.2376 9.93751C8.74176 9.93751 8.47093 10.2354 8.58968 10.6677C8.68864 11.024 8.97614 11.1135 9.31989 11.1125C11.2418 11.1083 13.1636 11.1104 15.0866 11.1104L15.0876 11.1094ZM13.6459 15.549C15.1001 15.549 16.5543 15.549 18.0095 15.549C18.4928 15.549 18.8532 15.2875 18.8616 14.9386C18.8688 14.5875 18.5116 14.3198 18.023 14.3094C17.997 14.3094 17.9709 14.3094 17.9449 14.3094C15.0876 14.3094 12.2313 14.3094 9.37406 14.3094C8.84176 14.3094 8.57093 14.5281 8.57822 14.9417C8.58551 15.3406 8.8501 15.5479 9.36051 15.549C10.7886 15.55 12.2178 15.549 13.6459 15.549ZM13.0626 19.9208C14.347 19.9208 15.6303 19.924 16.9147 19.9198C17.347 19.9188 17.5376 19.7396 17.5459 19.3563C17.5543 18.9667 17.3001 18.7479 16.8178 18.7479C14.3147 18.7458 11.8116 18.7458 9.30739 18.7479C8.8251 18.7479 8.57093 18.9667 8.57926 19.3563C8.5876 19.7615 8.78343 19.9198 9.28864 19.9208C10.547 19.9229 11.8053 19.9208 13.0626 19.9208Z" fill="#FEF8E8"/>
<path id="Vector_2" d="M0.00634766 1.13231C0.279264 0.719805 0.643848 0.575014 1.15531 0.576055C8.81364 0.592722 16.472 0.587514 24.1303 0.587514C24.9074 0.587514 25.1824 0.862514 25.1834 1.63751C25.1834 2.0396 25.1845 2.44272 25.1855 2.84481C17.9376 2.84585 10.6907 2.84689 3.44281 2.84793C3.32614 2.84793 3.20843 2.84168 3.09176 2.85001C2.61781 2.88543 2.30531 3.19897 2.26989 3.67293C2.26051 3.8021 2.26781 3.93231 2.26781 4.06251C2.26676 14.7261 2.26572 25.3886 2.26364 36.0521C1.87822 36.0521 1.49176 36.0229 1.10947 36.0573C0.613639 36.1011 0.227181 35.9833 0.00634766 35.5052V1.13231Z" fill="#FEF8E8"/>
<path id="Vector_3" d="M0.00618793 35.5052C0.227021 35.9833 0.613479 36.101 1.10931 36.0573C1.4916 36.0239 1.87806 36.0521 2.26348 36.0521C2.26452 36.4896 2.26556 36.9281 2.26765 37.3656C2.27077 38.0427 2.60619 38.3791 3.2916 38.3875C3.7041 38.3927 4.11556 38.3896 4.52806 38.3896C4.52806 38.7104 4.55098 39.0333 4.52285 39.3521C4.4791 39.851 4.6614 40.2229 5.0739 40.4927C3.46973 40.4927 1.86452 40.4875 0.260355 40.4989C0.0447296 40.5 -6.20673e-05 40.4562 0.00202127 40.2406C0.0134796 38.6625 0.00827126 37.0833 0.00827126 35.5042L0.00618793 35.5052Z" fill="#FEFEFE"/>
<path id="Vector_4" d="M4.52728 38.3896C4.11478 38.3896 3.70332 38.3927 3.29082 38.3875C2.6054 38.3792 2.26999 38.0427 2.26686 37.3656C2.26478 36.9281 2.26374 36.4896 2.2627 36.0521C2.26374 25.3885 2.26478 14.726 2.26582 4.0625C2.26582 3.93229 2.25853 3.80208 2.2679 3.67291C2.30228 3.19895 2.61582 2.88541 3.08978 2.85C3.20645 2.84166 3.32311 2.84791 3.44082 2.84791C10.6887 2.84687 17.9356 2.84583 25.1835 2.84479C25.6242 2.84583 26.0648 2.84375 26.5064 2.84895C27.1221 2.85729 27.4387 3.17604 27.4429 3.78437C27.446 4.17291 27.4471 4.5625 27.4492 4.95104C26.9804 4.99583 26.5012 4.85729 26.0398 5.02812C19.2117 5.02812 12.3825 5.02812 5.55436 5.02812C4.81061 5.02812 4.52728 5.31354 4.52728 6.06562C4.52728 16.8406 4.52728 27.6146 4.52728 38.3896Z" fill="#FEEDC1"/>
<path id="Vector_5" d="M24.0072 25.6198C23.3801 25.1188 22.9239 24.474 22.5343 23.7896C21.776 22.4583 21.326 21.0427 21.2645 19.4844C21.153 16.6781 22.1208 14.3229 24.0728 12.3531C24.777 11.6417 25.6103 11.0896 26.5062 10.6375C27.3843 10.249 28.2895 9.94897 29.2395 9.7948C29.251 9.94063 29.3708 9.92605 29.4676 9.95313C29.8145 10.0531 30.1635 10.149 30.5062 10.2635C31.6905 10.6583 32.702 11.351 33.6687 12.1188C33.6572 12.1688 33.6541 12.2219 33.6333 12.2677C32.9812 13.7135 32.3239 15.1583 31.676 16.6063C31.3124 17.4177 30.9645 18.2365 30.6093 19.051C30.2322 19.4229 29.853 19.7938 29.477 20.1688C27.653 21.9854 25.8301 23.8031 24.0062 25.6198H24.0072Z" fill="#FCF285"/>
<path id="Vector_6" d="M24.0073 25.6198C25.8302 23.8021 27.6542 21.9854 29.4782 20.1688C29.8542 19.7948 30.2323 19.424 30.6104 19.0511C32.5959 19.5771 34.5802 20.1042 36.5657 20.6302C36.3552 21.6729 36.0344 22.6708 35.5042 23.6042C34.4177 25.5167 32.8573 26.8719 30.8323 27.7188C30.2834 27.9479 29.6907 28.025 29.149 28.2646C28.2229 28.1531 27.3594 27.8344 26.5073 27.475C25.6448 27.0177 24.8407 26.4781 24.125 25.8115C24.0657 25.7563 24.0229 25.6979 24.0073 25.6198Z" fill="#FEABE6"/>
<path id="Vector_7" d="M13.2467 30.3542C13.2488 29.0594 13.2582 27.7636 13.2457 26.4688C13.2426 26.1688 13.3207 26.0604 13.6363 26.0698C14.3874 26.0917 15.1384 26.0854 15.8894 26.0729C16.1405 26.0688 16.229 26.1479 16.2259 26.4042C16.2155 27.2073 16.228 28.0094 16.2311 28.8125C16.2311 28.8615 16.2311 28.9104 16.2301 28.9594C16.2269 30.875 16.2249 32.7906 16.2217 34.7073C15.2353 34.7083 14.2488 34.7104 13.2624 34.7115C13.2572 33.2594 13.2519 31.8063 13.2457 30.3542H13.2467Z" fill="#FEABE6"/>
<path id="Vector_8" d="M26.5074 27.475C27.3595 27.8344 28.223 28.1531 29.1491 28.2635C29.2959 28.3833 29.4688 28.3125 29.6293 28.3323C29.6563 28.3573 29.6824 28.3813 29.7095 28.4063C29.7063 30.5646 29.7043 32.724 29.7011 34.8823C28.6366 34.8823 27.572 34.8813 26.5063 34.8802C26.5063 32.4115 26.5063 29.9438 26.5063 27.475H26.5074Z" fill="#FEF3D5"/>
<path id="Vector_9" d="M16.23 28.9594C16.23 28.9104 16.23 28.8615 16.23 28.8125C17.1363 28.8104 18.0425 28.8136 18.9488 28.8011C19.1863 28.7979 19.2613 28.8792 19.2603 29.1146C19.2509 30.9792 19.2519 32.8438 19.2498 34.7083C18.2665 34.7063 17.2832 34.7031 16.2998 34.701C16.2988 32.9375 16.2978 31.1729 16.2936 29.4094C16.2936 29.2594 16.3446 29.0958 16.229 28.9604L16.23 28.9594Z" fill="#AAD9FE"/>
<path id="Vector_10" d="M29.2396 9.7948C28.2896 9.94896 27.3843 10.2479 26.5062 10.6375C26.5062 9.10001 26.4989 7.56146 26.5125 6.02396C26.5166 5.6 26.3823 5.27292 26.0396 5.02917C26.501 4.85834 26.9802 4.99584 27.4489 4.95209C27.9021 5.11042 28.3698 5.00834 28.8302 5.02396C29.4437 5.0448 29.7021 5.28542 29.7031 5.89584C29.7062 7.1875 29.7062 8.47917 29.7073 9.77188C29.551 9.78021 29.3948 9.7875 29.2385 9.79584L29.2396 9.7948Z" fill="#FEF3D5"/>
<path id="Vector_11" d="M26.5063 34.8802C27.5708 34.8802 28.6365 34.8813 29.701 34.8823C29.7042 34.999 29.626 35.0708 29.5521 35.1438C27.8156 36.8792 26.0792 38.6146 24.3427 40.349C24.3156 40.3761 24.2792 40.3938 24.2479 40.4167C24.1302 40.3146 24.1708 40.1771 24.1708 40.0521C24.1688 38.6386 24.1677 37.225 24.1708 35.8125C24.1708 35.2011 24.4917 34.8854 25.1083 34.8823C25.575 34.8802 26.0417 34.8813 26.5083 34.8802H26.5063Z" fill="#FEEDC2"/>
<path id="Vector_12" d="M15.0876 11.1094C13.1657 11.1094 11.2438 11.1073 9.32088 11.1115C8.97713 11.1115 8.68963 11.0229 8.59068 10.6667C8.47088 10.2344 8.74172 9.93749 9.23859 9.93645C11.7969 9.93437 14.3553 9.93541 16.9146 9.93541C18.2396 9.93541 19.5636 9.93541 20.8886 9.93541C21.3042 9.93541 21.5886 10.1656 21.5907 10.4917C21.5917 10.8677 21.3313 11.1062 20.8938 11.1073C18.9584 11.1104 17.024 11.1083 15.0886 11.1083L15.0876 11.1094Z" fill="#F9E09E"/>
<path id="Vector_13" d="M16.3009 34.701C17.2842 34.7031 18.2676 34.7063 19.2509 34.7083C19.5624 34.7136 19.8738 34.7167 20.1853 34.7229C20.6363 34.7323 20.828 34.9125 20.8217 35.3208C20.8165 35.7104 20.629 35.8906 20.1999 35.8938C19.4728 35.9 18.7447 35.8958 18.0176 35.8958C15.1207 35.8958 12.2249 35.8958 9.32799 35.8958C8.76862 35.8958 8.46237 35.5 8.66549 35.0531C8.76862 34.8261 8.95612 34.7292 9.19466 34.7261C9.53216 34.7208 9.86966 34.725 10.2082 34.724C11.2009 34.724 12.1926 34.724 13.1853 34.724L13.2634 34.7115C14.2499 34.7104 15.2363 34.7083 16.2217 34.7073C16.2478 34.7052 16.2749 34.7031 16.3009 34.701Z" fill="#F9E09E"/>
<path id="Vector_14" d="M13.1852 34.724C12.1925 34.724 11.2008 34.724 10.2081 34.724C10.2102 33.399 10.2216 32.074 10.2081 30.75C10.205 30.4438 10.2904 30.3479 10.6008 30.3552C11.4581 30.376 12.3154 30.3635 13.1727 30.3635C13.1768 31.8177 13.18 33.2719 13.1841 34.725L13.1852 34.724Z" fill="#FCF285"/>
<path id="Vector_15" d="M13.646 15.549C12.2179 15.549 10.7887 15.549 9.36056 15.549C8.85014 15.549 8.58556 15.3406 8.57827 14.9417C8.57098 14.5271 8.84181 14.3094 9.3741 14.3094C12.2314 14.3094 15.0876 14.3094 17.9449 14.3094C17.971 14.3094 17.997 14.3094 18.0231 14.3094C18.5116 14.3198 18.8689 14.5886 18.8616 14.9386C18.8543 15.2886 18.4929 15.549 18.0095 15.549C16.5554 15.549 15.1012 15.549 13.646 15.549Z" fill="#F9E09E"/>
<path id="Vector_16" d="M13.0626 19.9208C11.8043 19.9208 10.546 19.9219 9.28867 19.9208C8.78451 19.9208 8.58868 19.7615 8.5793 19.3563C8.57097 18.9667 8.82513 18.7479 9.30742 18.7479C11.8106 18.7458 14.3137 18.7458 16.8178 18.7479C17.3001 18.7479 17.5553 18.9667 17.546 19.3563C17.5376 19.7396 17.347 19.9177 16.9147 19.9198C15.6303 19.924 14.347 19.9208 13.0626 19.9219V19.9208Z" fill="#F9E09E"/>
<path id="Vector_17" d="M13.1853 34.7239C13.1811 33.2698 13.178 31.8156 13.1738 30.3625C13.1978 30.3604 13.2228 30.3573 13.2467 30.3542C13.252 31.8062 13.2572 33.2594 13.2634 34.7114C13.2374 34.7156 13.2113 34.7198 13.1863 34.7239H13.1853Z" fill="#FDD7D6"/>
<path id="Vector_18" d="M36.5646 20.6302C34.5792 20.1042 32.5948 19.5771 30.6094 19.0511C30.9646 18.2354 31.3125 17.4177 31.675 16.6063C32.3229 15.1583 32.9802 13.7146 33.6323 12.2677C33.6531 12.2219 33.6562 12.1688 33.6677 12.1188C33.9115 11.5969 34.1552 11.074 34.399 10.5521C35.2042 10.8094 35.876 11.2958 36.5177 11.8198C37.874 12.9281 38.8479 14.3167 39.4094 15.975C39.7958 17.1177 39.9833 18.3073 39.9031 19.5146C39.8604 20.149 39.8167 20.7948 39.5969 21.4052C38.5865 21.1469 37.576 20.8886 36.5656 20.6302H36.5646Z" fill="#A1D6FE"/>
<path id="Vector_19" d="M36.5646 20.6302C37.575 20.8886 38.5854 21.1469 39.5958 21.4052C38.526 25.2042 36.0125 27.4406 32.1864 28.2604C31.9562 28.3094 31.7291 28.3469 31.4937 28.3333C30.8718 28.3333 30.251 28.3333 29.6291 28.3333C29.4687 28.3146 29.2948 28.3844 29.1489 28.2646C29.6906 28.025 30.2833 27.949 30.8323 27.7188C32.8573 26.8719 34.4177 25.5177 35.5041 23.6042C36.0343 22.6708 36.3552 21.6729 36.5656 20.6302H36.5646Z" fill="#FE94E0"/>
<path id="Vector_20" d="M34.3992 10.5531C34.1554 11.075 33.9117 11.5979 33.6679 12.1198C32.7013 11.3521 31.6909 10.6594 30.5054 10.2646C30.1627 10.15 29.8138 10.0542 29.4669 9.95416C29.37 9.92604 29.2502 9.94166 29.2388 9.79583C29.395 9.78854 29.5513 9.78021 29.7075 9.77187C31.1721 9.575 32.5763 9.84271 33.9492 10.3333C34.1054 10.3896 34.2492 10.4792 34.3981 10.5531H34.3992Z" fill="#F9ED6F"/>
<path id="Vector_21" d="M29.6294 28.3323C30.2513 28.3323 30.8721 28.3323 31.494 28.3323C31.0481 28.5031 30.5856 28.3739 30.1315 28.4094C29.9919 28.4198 29.8502 28.4073 29.7096 28.4052C29.6836 28.3802 29.6565 28.3562 29.6294 28.3312V28.3323Z" fill="#FEABE6"/>
<path id="Vector_22" d="M16.3008 34.701C16.2748 34.7031 16.2477 34.7052 16.2217 34.7073C16.2248 32.7917 16.2269 30.875 16.23 28.9594C16.3446 29.0958 16.2936 29.2583 16.2946 29.4083C16.2998 31.1719 16.2998 32.9365 16.3008 34.7V34.701Z" fill="#C2DEF7"/>
</g>
</g>
</g>
</g>
</g>
<defs>
<clipPath id="clip0_1302_9833">
<rect width="1280" height="1207" fill="white" transform="translate(-40 -837)"/>
</clipPath>
<clipPath id="clip1_1302_9833">
<rect width="40" height="40" fill="white" transform="translate(0 0.5)"/>
</clipPath>
</defs>
</svg>
