<svg width="56" height="56" viewBox="0 0 56 56" fill="none" xmlns="http://www.w3.org/2000/svg">
<g clip-path="url(#clip0_589_4934)">
<path d="M53.9746 26.6803C54.2585 29.9899 52.1247 32.0762 49.6616 34.0051C44.5123 38.0407 39.6214 42.33 35.9926 47.8833C34.4772 50.2031 32.4854 52.0102 29.637 52.6193C26.2666 53.3402 23.5501 52.0914 21.4214 49.6143C18.6086 46.3503 16.3177 42.66 13.0943 39.7107C10.5146 37.3503 7.83857 35.1016 5.05612 33.0102C1.17386 30.0914 1.13331 23.6193 4.12356 20.9138C6.81479 18.4772 9.69355 16.2691 12.405 13.8579C15.9477 10.7158 18.4413 6.69549 21.5684 3.21833C25.4355 -1.07609 30.5746 -1.07101 34.3657 3.18787C37.66 6.88838 40.3411 11.1219 44.1372 14.3909C46.6054 16.5178 49.2764 18.4061 51.5824 20.7209C53.5033 22.6549 53.9696 23.7564 53.9645 26.6752L53.9746 26.6803Z" fill="#D4DFCD"/>
<path d="M11.8019 25.1929C12.0503 23.7969 12.3392 22.0863 12.6737 20.3858C12.775 19.868 12.917 19.2386 13.6823 19.3959C14.2043 19.5025 14.4121 19.9645 14.3563 20.4416C14.1283 22.3147 14.8479 24.0457 15.0862 25.8477C15.375 28.0152 14.8885 29.1675 13.7228 29.2081C12.5774 29.2487 11.8374 28.0406 11.8019 26.0609C11.8019 25.8782 11.8019 25.6954 11.8019 25.1878V25.1929Z" fill="white"/>
<path d="M11.8678 45.1625C12.5976 43.132 11.6246 41.4671 11.6499 39.7513C11.66 39.2082 11.4877 38.665 11.437 38.1219C11.3813 37.5381 11.4877 36.9544 12.1668 36.8681C12.6939 36.8021 12.9372 37.2691 13.0487 37.7361C13.1754 38.2691 13.3072 38.8021 13.3731 39.3452C13.6265 41.3402 13.89 43.3249 14.6401 45.2183C14.8936 45.8528 15.3244 46.6752 14.255 47.0407C13.3883 47.3351 12.0452 46.5331 11.878 45.6752C11.8273 45.4163 11.8678 45.1422 11.8678 45.1574V45.1625Z" fill="black"/>
<path d="M43.8737 40.3655C43.8737 39.0813 43.8585 37.7919 43.8838 36.5077C43.8939 36.0965 44.2132 35.8173 44.5934 35.797C44.9735 35.7767 45.313 36.0406 45.3536 36.4417C45.4499 37.4467 45.4803 38.4569 45.5411 39.467C45.6222 40.8173 45.3485 42.2437 46.6764 43.2538C47.1477 43.6143 47.1427 44.2488 46.7626 44.7513C46.2507 45.4315 45.5259 45.4975 44.7707 45.2843C44.1068 45.0965 43.529 44.6752 43.6355 43.9341C43.8078 42.7412 43.8787 41.5584 43.8737 40.3604V40.3655Z" fill="black"/>
<path d="M23.8441 53.6802C23.8643 54.7412 23.763 55.4823 22.9369 55.7919C22.1361 56.0914 21.2897 56.0965 20.5548 55.6193C19.901 55.198 19.7388 54.2995 20.3064 53.9899C22.0499 53.0457 21.7458 51.6599 21.4417 50.198C21.4063 50.0203 21.3961 49.8274 21.4265 49.6498C21.4924 49.2691 21.6749 48.9239 22.0753 48.8528C22.4756 48.7818 22.7696 49.0203 22.9064 49.4011C23.4487 50.8782 23.6312 52.4264 23.8441 53.6802Z" fill="black"/>
<path d="M35.0998 48.0051C35.4799 48.132 35.7435 48.3858 35.7739 48.7817C35.8144 49.4213 35.8195 50.0711 35.8144 50.7107C35.8043 51.7411 35.784 52.736 36.9497 53.2843C37.4869 53.5381 37.6947 54.0914 37.4109 54.6853C37.1423 55.2487 36.5848 55.3909 36.0324 55.4518C35.3836 55.5228 34.5271 55.5838 34.37 54.8579C33.8986 52.6954 33.8378 50.4975 34.4207 48.33C34.5018 48.0355 34.8261 48.0051 35.1049 48L35.0998 48.0051Z" fill="black"/>
<path d="M32.678 37.0355C32.455 37.6903 31.9431 37.9594 31.4363 37.4924C30.0476 36.2183 28.745 36.071 27.3209 37.4162C27.0674 37.6548 26.5809 37.5787 26.3731 37.203C26.2565 36.9898 26.2261 36.665 26.3021 36.4365C26.6671 35.2995 27.9442 34.5787 29.409 34.6345C30.9244 34.6903 32.4347 35.67 32.6577 36.7462C32.678 36.8325 32.6678 36.9289 32.678 37.0406V37.0355Z" fill="black"/>
<path d="M35.9672 24.7056C35.1867 24.5584 34.016 24.3706 32.8604 24.1067C32.384 23.995 32.085 23.6193 32.2168 23.0762C32.3181 22.66 32.6678 22.5128 33.0479 22.5178C34.8674 22.5432 36.6616 23.0102 38.5014 22.7919C38.6737 22.7716 38.9524 23.0762 39.069 23.2945C39.2819 23.6853 39.0284 24.0051 38.7294 24.2183C38.0199 24.7259 37.1988 24.7767 35.9672 24.7107V24.7056Z" fill="black"/>
<path d="M27.2043 30.868C27.0877 32.1827 25.8004 33.203 24.5333 32.9898C23.246 32.7766 21.8168 31.1929 22.0651 30.1472C22.2324 29.4416 22.876 29.2944 23.2916 29.7868C24.1735 30.8274 24.8729 31.4467 26.0386 30.0507C26.4947 29.5076 27.2702 30.0812 27.1992 30.8629L27.2043 30.868Z" fill="black"/>
<path d="M34.0565 32.3959C33.0024 32.2385 32.0495 31.9746 31.6643 30.8477C31.5072 30.3908 31.5376 29.9238 31.9178 29.5888C32.232 29.3147 32.6222 29.3857 32.8909 29.67C33.5447 30.3705 34.239 30.5025 35.0803 30.0101C35.5213 29.7512 36.0078 29.8274 36.2612 30.2842C36.5856 30.873 36.1953 31.3248 35.7848 31.7004C35.2932 32.1522 34.6749 32.3045 34.0565 32.3908V32.3959Z" fill="black"/>
<path d="M21.6293 25.3807C20.9146 25.3401 20.2456 25.3807 20.1848 24.6498C20.124 23.9543 20.7423 23.8224 21.2846 23.6701C22.3439 23.3757 23.393 23.0305 24.4573 22.7513C24.9337 22.6244 25.3848 22.7361 25.5369 23.2995C25.6433 23.7056 25.4304 24.0203 25.1061 24.2234C23.9911 24.9188 22.7544 25.2335 21.6293 25.3807Z" fill="black"/>
</g>
<defs>
<clipPath id="clip0_589_4934">
<rect width="56" height="56" fill="white"/>
</clipPath>
</defs>
</svg>
