<svg width="50" height="50" viewBox="0 0 50 50" fill="none" xmlns="http://www.w3.org/2000/svg">
<g id="Layer_1" clip-path="url(#clip0_1393_7523)">
<path id="Vector" d="M30.3087 49.9924H6.34127C5.82564 49.6551 5.59778 49.1903 5.65247 48.5666C5.68762 48.1681 5.65898 47.7645 5.65898 47.3634C5.65898 33.8947 5.65898 20.4272 5.65898 6.9585C5.65898 6.01969 6.01184 5.66162 6.94283 5.66162C15.478 5.66162 24.0144 5.66162 32.5496 5.66162C32.978 5.96631 33.146 6.37516 33.1407 6.90511C33.1225 8.82699 33.1329 10.7489 33.1329 12.672C32.0131 13.2371 30.9715 13.9285 30.0913 14.8166C27.6512 17.2801 26.4415 20.2241 26.5808 23.7306C26.6577 25.6772 27.2202 27.4468 28.1681 29.1121C28.6551 29.9676 29.2254 30.7736 30.0092 31.3999C30.0288 31.4976 30.0822 31.5705 30.1564 31.6395C31.0522 32.4728 32.0574 33.1473 33.1342 33.7189C33.1342 36.8049 33.1342 39.8895 33.1342 42.9754C32.5509 42.9754 31.9676 42.9754 31.3842 42.978C30.6147 42.9806 30.2137 43.3765 30.2124 44.1408C30.2098 45.9077 30.2111 47.6746 30.2124 49.4403C30.2124 49.5965 30.1616 49.7684 30.3087 49.896C30.3087 49.9286 30.3087 49.9598 30.3087 49.9924ZM16.4676 37.3283C15.396 37.3283 14.3243 37.3439 13.2527 37.3179C12.8647 37.3088 12.7579 37.4286 12.7618 37.8114C12.7788 39.4676 12.7644 41.1239 12.7618 42.7788C12.34 42.7788 11.9181 42.7749 11.4949 42.7814C11.1967 42.7853 10.9624 42.9064 10.8335 43.1903C10.5795 43.7489 10.9624 44.2437 11.6616 44.2437C15.2827 44.2463 18.9025 44.2437 22.5236 44.2437C23.4324 44.2437 24.3426 44.2489 25.2514 44.241C25.7879 44.2371 26.0223 44.0119 26.0288 43.5249C26.0353 43.0145 25.797 42.7879 25.2332 42.7775C24.8439 42.7697 24.4545 42.7645 24.0652 42.7593C24.0678 40.4286 24.0665 38.0978 24.0782 35.7671C24.0795 35.4728 23.9858 35.3713 23.6889 35.3752C22.5561 35.3908 21.4233 35.3869 20.2905 35.3895C20.2866 34.3856 20.271 33.3817 20.284 32.3791C20.2879 32.0575 20.1772 31.9598 19.8634 31.965C18.9246 31.9806 17.9845 31.9897 17.047 31.9611C16.6525 31.9494 16.5548 32.0848 16.5587 32.4598C16.5743 34.0783 16.5626 35.6981 16.56 37.3166C16.5301 37.3205 16.4988 37.3231 16.4689 37.327L16.4676 37.3283ZM18.8595 13.2619C21.2788 13.2619 23.6967 13.2645 26.116 13.2606C26.6616 13.2606 26.9884 12.9611 26.9871 12.491C26.9858 12.0822 26.629 11.7957 26.1095 11.7957C24.4532 11.7931 22.7983 11.7957 21.142 11.7957C17.9441 11.7957 14.7462 11.7944 11.547 11.797C10.9272 11.797 10.5887 12.1694 10.7371 12.7098C10.8608 13.1551 11.2202 13.2671 11.6499 13.2658C14.0522 13.2606 16.4545 13.2632 18.8582 13.2632L18.8595 13.2619ZM17.0574 18.8114C18.8751 18.8114 20.6928 18.8114 22.5118 18.8114C23.116 18.8114 23.5665 18.4845 23.5769 18.0483C23.5861 17.6095 23.1394 17.2749 22.5288 17.2619C22.4962 17.2619 22.4637 17.2619 22.4311 17.2619C18.8595 17.2619 15.2892 17.2619 11.7176 17.2619C11.0522 17.2619 10.7137 17.5353 10.7228 18.0522C10.7319 18.5509 11.0626 18.8101 11.7006 18.8114C13.4858 18.8127 15.2723 18.8114 17.0574 18.8114ZM16.3282 24.2762C17.9337 24.2762 19.5379 24.2801 21.1434 24.2749C21.6837 24.2736 21.922 24.0496 21.9324 23.5705C21.9428 23.0835 21.6251 22.8101 21.0223 22.8101C17.8933 22.8075 14.7644 22.8075 11.6342 22.8101C11.0314 22.8101 10.7137 23.0835 10.7241 23.5705C10.7345 24.077 10.9793 24.2749 11.6108 24.2762C13.1837 24.2788 14.7566 24.2762 16.3282 24.2762Z" fill="#FEF8E8"/>
<path id="Vector_2" d="M30.3086 49.9922C30.3086 49.9596 30.3086 49.9284 30.3086 49.8958C30.349 49.8685 30.3932 49.845 30.4271 49.8112C32.599 47.6432 34.7682 45.474 36.9388 43.3047C37.0313 43.2122 37.1289 43.1237 37.125 42.9779C37.1289 40.2799 37.1315 37.5807 37.1354 34.8828C37.3112 34.8854 37.4883 34.901 37.6628 34.888C38.2305 34.8438 38.8086 35.0039 39.3659 34.7917C39.6589 34.8086 39.944 34.763 40.2318 34.7005C45.0156 33.6758 48.1576 30.8802 49.4935 26.1315C49.7682 25.3685 49.8229 24.5612 49.8763 23.7682C49.9779 22.2591 49.7435 20.7734 49.2591 19.3437C48.5573 17.2708 47.3398 15.5352 45.6445 14.1497C44.8424 13.4948 44.0026 12.8867 42.9961 12.5651C42.8086 12.4727 42.6289 12.3594 42.4349 12.2904C40.7188 11.6771 38.9635 11.3438 37.1328 11.5885C37.1315 9.97396 37.1302 8.35938 37.1276 6.74349C37.1263 5.98047 36.8034 5.67969 36.0365 5.65365C35.4609 5.63411 34.8763 5.76172 34.3099 5.5638C34.3073 5.07812 34.306 4.59115 34.3021 4.10547C34.2969 3.34505 33.901 2.94661 33.1315 2.9362C32.5807 2.92839 32.0299 2.93229 31.4779 2.92969C31.4779 2.42708 31.4766 1.92318 31.4753 1.42057C31.4753 0.451823 31.1302 0.108073 30.1589 0.108073C20.5859 0.108073 11.013 0.114583 1.4401 0.09375C0.804688 0.09375 0.348958 0.27474 0.0078125 0.790365C0.0078125 0.270399 0.267361 0.0104167 0.786458 0.0104167C17.0352 0.0117187 33.2826 0.0130208 49.5313 0C49.9349 0 50 0.0911458 50 0.477865C49.9883 16.8385 49.9883 33.2005 50 49.5612C50 49.944 49.8932 50 49.543 50C43.1315 49.9883 36.7201 49.9922 30.3086 49.9922Z" fill="#FEFEFE"/>
<path id="Vector_3" d="M0.0078125 0.790534C0.348958 0.274909 0.804687 0.0939197 1.44401 0.0952218C11.0169 0.116055 20.5898 0.109545 30.1628 0.109545C31.1341 0.109545 31.4779 0.453295 31.4792 1.42204C31.4792 1.92465 31.4805 2.42856 31.4818 2.93116C22.4219 2.93246 13.3633 2.93376 4.30338 2.93507C4.15755 2.93507 4.01042 2.92725 3.86458 2.93767C3.27214 2.98194 2.88151 3.37387 2.83724 3.96632C2.82552 4.12777 2.83464 4.29053 2.83464 4.4533C2.83333 17.7827 2.83203 31.1108 2.82943 44.4403C2.34766 44.4403 1.86458 44.4038 1.38672 44.4468C0.766927 44.5015 0.283854 44.3543 0.0078125 43.7567V0.790534Z" fill="#FEF8E8"/>
<path id="Vector_4" d="M0.00773492 43.7567C0.283777 44.3543 0.766849 44.5015 1.38664 44.4468C1.86451 44.4051 2.34758 44.4403 2.82935 44.4403C2.83065 44.9871 2.83195 45.5353 2.83456 46.0822C2.83846 46.9285 3.25773 47.3491 4.11451 47.3595C4.63013 47.366 5.14445 47.3621 5.66008 47.3621C5.66008 47.7632 5.68872 48.1668 5.65357 48.5653C5.59888 49.189 5.82675 49.6538 6.34237 49.991C4.33716 49.991 2.33065 49.9845 0.325443 49.9989C0.055912 50.0002 -7.75843e-05 49.9455 0.00252658 49.6759C0.0168495 47.7033 0.0103391 45.7293 0.0103391 43.7554L0.00773492 43.7567Z" fill="#FEFEFE"/>
<path id="Vector_5" d="M5.65885 47.3621C5.14323 47.3621 4.62891 47.366 4.11328 47.3595C3.25651 47.3491 2.83724 46.9285 2.83333 46.0822C2.83073 45.5353 2.82943 44.9871 2.82812 44.4403C2.82943 31.1108 2.83073 17.7827 2.83203 4.45329C2.83203 4.29053 2.82292 4.12777 2.83464 3.96631C2.8776 3.37386 3.26953 2.98193 3.86198 2.93766C4.00781 2.92725 4.15365 2.93506 4.30078 2.93506C13.3607 2.93376 22.4193 2.93245 31.4792 2.93115C32.0299 2.93245 32.5807 2.92985 33.1328 2.93636C33.9023 2.94678 34.2982 3.34521 34.3034 4.10563C34.3073 4.59131 34.3086 5.07829 34.3112 5.56396C33.7253 5.61995 33.1263 5.44678 32.5495 5.66032C24.0143 5.66032 15.4779 5.66032 6.94271 5.66032C6.01302 5.66032 5.65885 6.01709 5.65885 6.95719C5.65885 20.4259 5.65885 33.8934 5.65885 47.3621Z" fill="#FEEDC1"/>
<path id="Vector_6" d="M30.009 31.3999C29.2252 30.7736 28.6549 29.9676 28.1679 29.1121C27.22 27.4481 26.6575 25.6785 26.5806 23.7306C26.4413 20.2228 27.6509 17.2788 30.0911 14.8166C30.9713 13.9272 32.0129 13.2371 33.1327 12.672C34.2304 12.1864 35.3619 11.8114 36.5494 11.6187C36.5637 11.8009 36.7134 11.7827 36.8345 11.8166C37.2681 11.9416 37.7043 12.0614 38.1327 12.2046C39.6132 12.6981 40.8775 13.564 42.0858 14.5236C42.0715 14.5861 42.0676 14.6525 42.0416 14.7098C41.2265 16.5171 40.4049 18.3231 39.595 20.133C39.1405 21.1473 38.7056 22.1707 38.2616 23.189C37.7903 23.6538 37.3163 24.1174 36.8463 24.5861C34.5663 26.8569 32.2877 29.1291 30.0077 31.3999H30.009Z" fill="#FCF285"/>
<path id="Vector_7" d="M30.009 31.3999C32.2877 29.1278 34.5676 26.8569 36.8476 24.5861C37.3176 24.1187 37.7903 23.6551 38.2629 23.189C40.7447 23.8465 43.2252 24.5054 45.7069 25.1629C45.4439 26.4663 45.0429 27.7137 44.3801 28.8804C43.0221 31.271 41.0715 32.965 38.5403 34.0236C37.8541 34.3101 37.1132 34.4064 36.4361 34.7059C35.2786 34.5666 34.1991 34.1681 33.134 33.7189C32.0559 33.1473 31.0507 32.4728 30.1562 31.6395C30.082 31.5705 30.0286 31.4976 30.009 31.3999Z" fill="#FEABE6"/>
<path id="Vector_8" d="M16.5585 37.3176C16.5611 35.6991 16.5729 34.0793 16.5572 32.4608C16.5533 32.0858 16.651 31.9504 17.0455 31.9621C17.9843 31.9895 18.9231 31.9817 19.8619 31.966C20.1757 31.9608 20.2864 32.0598 20.2825 32.3801C20.2695 33.384 20.2851 34.3866 20.289 35.3905C20.289 35.4517 20.289 35.5129 20.2877 35.5741C20.2838 37.9686 20.2812 40.3632 20.2773 42.759C19.0442 42.7603 17.8111 42.7629 16.5781 42.7642C16.5716 40.9491 16.5651 39.1327 16.5572 37.3176H16.5585Z" fill="#FEABE6"/>
<path id="Vector_9" d="M33.1341 33.7188C34.1992 34.168 35.2786 34.5664 36.4362 34.7044C36.6198 34.8542 36.8359 34.7656 37.0365 34.7904C37.0703 34.8216 37.1029 34.8516 37.1367 34.8828C37.1328 37.5807 37.1302 40.28 37.1263 42.9779C35.7956 42.9779 34.4648 42.9766 33.1328 42.9753C33.1328 39.8893 33.1328 36.8047 33.1328 33.7188H33.1341Z" fill="#FEF3D5"/>
<path id="Vector_10" d="M20.2877 35.574C20.2877 35.5128 20.2877 35.4516 20.2877 35.3904C21.4205 35.3878 22.5533 35.3917 23.6861 35.3761C23.983 35.3722 24.0767 35.4737 24.0754 35.768C24.0637 38.0987 24.065 40.4295 24.0624 42.7602C22.8333 42.7576 21.6041 42.7537 20.3749 42.7511C20.3736 40.5467 20.3723 38.3409 20.3671 36.1365C20.3671 35.949 20.4309 35.7446 20.2864 35.5753L20.2877 35.574Z" fill="#AAD9FE"/>
<path id="Vector_11" d="M36.5496 11.6183C35.3621 11.811 34.2306 12.1847 33.1329 12.6717C33.1329 10.7498 33.1238 8.82662 33.1407 6.90474C33.1459 6.37479 32.9779 5.96594 32.5496 5.66125C33.1264 5.44771 33.7253 5.61958 34.3113 5.5649C34.8777 5.76281 35.4623 5.63521 36.0378 5.65474C36.8048 5.68078 37.1277 5.98156 37.129 6.74458C37.1329 8.35917 37.1329 9.97375 37.1342 11.5896C36.9389 11.6001 36.7436 11.6092 36.5483 11.6196L36.5496 11.6183Z" fill="#FEF3D5"/>
<path id="Vector_12" d="M33.1328 42.9751C34.4635 42.9751 35.7956 42.9764 37.1263 42.9777C37.1302 43.1235 37.0326 43.2134 36.9401 43.3045C34.7695 45.4738 32.599 47.6431 30.4284 49.811C30.3945 49.8449 30.349 49.867 30.3099 49.8957C30.1628 49.7681 30.2135 49.5962 30.2135 49.4399C30.2109 47.673 30.2096 45.9061 30.2135 44.1405C30.2135 43.3761 30.6146 42.9816 31.3854 42.9777C31.9688 42.9751 32.5521 42.9764 33.1354 42.9751H33.1328Z" fill="#FEEDC2"/>
<path id="Vector_13" d="M18.8594 13.2617C16.4571 13.2617 14.0548 13.2591 11.6511 13.2643C11.2214 13.2643 10.862 13.1536 10.7383 12.7083C10.5886 12.168 10.9271 11.7969 11.5482 11.7956C14.7462 11.793 17.9441 11.7943 21.1433 11.7943C22.7995 11.7943 24.4545 11.7943 26.1107 11.7943C26.6303 11.7943 26.9857 12.082 26.9883 12.4896C26.9896 12.9596 26.6641 13.2578 26.1173 13.2591C23.698 13.263 21.28 13.2604 18.8607 13.2604L18.8594 13.2617Z" fill="#F9E09E"/>
<path id="Vector_14" d="M20.3764 42.7515C21.6055 42.7541 22.8347 42.758 24.0639 42.7606C24.4532 42.7671 24.8425 42.771 25.2318 42.7788C25.7956 42.7905 26.0352 43.0158 26.0274 43.5262C26.0209 44.0132 25.7865 44.2384 25.2501 44.2424C24.3412 44.2502 23.4311 44.245 22.5222 44.245C18.9011 44.245 15.2813 44.245 11.6602 44.245C10.961 44.245 10.5782 43.7502 10.8321 43.1916C10.961 42.9077 11.1954 42.7866 11.4936 42.7827C11.9154 42.7762 12.3373 42.7814 12.7605 42.7801C14.0014 42.7801 15.241 42.7801 16.4818 42.7801L16.5795 42.7645C17.8126 42.7632 19.0456 42.7606 20.2774 42.7593C20.31 42.7567 20.3438 42.7541 20.3764 42.7515Z" fill="#F9E09E"/>
<path id="Vector_15" d="M16.4817 42.7798C15.2408 42.7798 14.0012 42.7798 12.7604 42.7798C12.763 41.1235 12.7773 39.4673 12.7604 37.8123C12.7565 37.4295 12.8632 37.3097 13.2512 37.3188C14.3229 37.3449 15.3945 37.3293 16.4661 37.3293C16.4713 39.147 16.4752 40.9647 16.4804 42.7811L16.4817 42.7798Z" fill="#FCF285"/>
<path id="Vector_16" d="M17.0572 18.8112C15.2721 18.8112 13.4856 18.8112 11.7005 18.8112C11.0624 18.8112 10.7317 18.5508 10.7226 18.0521C10.7135 17.5339 11.052 17.2617 11.7174 17.2617C15.289 17.2617 18.8593 17.2617 22.4309 17.2617C22.4635 17.2617 22.496 17.2617 22.5286 17.2617C23.1393 17.2747 23.5859 17.6107 23.5768 18.0482C23.5676 18.4857 23.1158 18.8112 22.5117 18.8112C20.6939 18.8112 18.8762 18.8112 17.0572 18.8112Z" fill="#F9E09E"/>
<path id="Vector_17" d="M16.328 24.2762C14.7551 24.2762 13.1822 24.2775 11.6106 24.2762C10.9804 24.2762 10.7356 24.077 10.7239 23.5705C10.7135 23.0835 11.0312 22.8101 11.634 22.8101C14.7629 22.8075 17.8918 22.8075 21.0221 22.8101C21.6249 22.8101 21.9439 23.0835 21.9322 23.5705C21.9218 24.0496 21.6835 24.2723 21.1432 24.2749C19.5377 24.2801 17.9335 24.2762 16.328 24.2775V24.2762Z" fill="#F9E09E"/>
<path id="Vector_18" d="M16.4819 42.7801C16.4766 40.9624 16.4727 39.1447 16.4675 37.3283C16.4975 37.3257 16.5287 37.3218 16.5587 37.3179C16.5652 39.133 16.5717 40.9494 16.5795 42.7645C16.547 42.7697 16.5144 42.7749 16.4832 42.7801H16.4819Z" fill="#FDD7D6"/>
<path id="Vector_19" d="M45.7057 25.1626C43.224 24.505 40.7435 23.8462 38.2617 23.1886C38.7057 22.1691 39.1406 21.147 39.5937 20.1326C40.4036 18.3228 41.2253 16.5181 42.0404 14.7095C42.0664 14.6522 42.0703 14.5858 42.0846 14.5233C42.3893 13.8709 42.694 13.2173 42.9987 12.5649C44.0052 12.8866 44.8451 13.4946 45.6471 14.1496C47.3424 15.535 48.5599 17.2707 49.2617 19.3436C49.7448 20.772 49.9792 22.259 49.8789 23.7681C49.8255 24.561 49.7708 25.3683 49.4961 26.1313C48.2331 25.8084 46.9701 25.4855 45.707 25.1626H45.7057Z" fill="#A1D6FE"/>
<path id="Vector_20" d="M45.7058 25.1626C46.9688 25.4855 48.2319 25.8084 49.4949 26.1313C48.1576 30.88 45.0157 33.6756 40.2332 34.7004C39.9454 34.7616 39.6615 34.8084 39.3673 34.7915C38.5899 34.7915 37.8139 34.7915 37.0365 34.7915C36.836 34.7681 36.6186 34.8553 36.4363 34.7056C37.1134 34.4061 37.8542 34.311 38.5404 34.0233C41.0717 32.9647 43.0222 31.272 44.3803 28.88C45.0431 27.7134 45.4441 26.466 45.7071 25.1626H45.7058Z" fill="#FE94E0"/>
<path id="Vector_21" d="M42.9986 12.5662C42.6939 13.2186 42.3892 13.8722 42.0846 14.5246C40.8762 13.5649 39.6132 12.699 38.1314 12.2055C37.703 12.0623 37.2668 11.9425 36.8333 11.8175C36.7122 11.7824 36.5624 11.8019 36.5481 11.6196C36.7434 11.6105 36.9387 11.6001 37.134 11.5897C38.9648 11.3436 40.72 11.6782 42.4361 12.2915C42.6314 12.3618 42.8111 12.4738 42.9973 12.5662H42.9986Z" fill="#F9ED6F"/>
<path id="Vector_22" d="M37.0364 34.7904C37.8137 34.7904 38.5898 34.7904 39.3671 34.7904C38.8098 35.0039 38.2317 34.8424 37.664 34.8867C37.4895 34.8997 37.3124 34.8841 37.1366 34.8815C37.1041 34.8503 37.0702 34.8203 37.0364 34.7891V34.7904Z" fill="#FEABE6"/>
<path id="Vector_23" d="M20.3763 42.7513C20.3438 42.7539 20.3099 42.7565 20.2773 42.7591C20.2812 40.3646 20.2839 37.9687 20.2878 35.5742C20.431 35.7448 20.3672 35.9479 20.3685 36.1354C20.375 38.3398 20.375 40.5456 20.3763 42.75V42.7513Z" fill="#C2DEF7"/>
</g>
<defs>
<clipPath id="clip0_1393_7523">
<rect width="50" height="50" fill="white"/>
</clipPath>
</defs>
</svg>
