<svg width="56" height="56" viewBox="0 0 56 56" fill="none" xmlns="http://www.w3.org/2000/svg">
<path d="M13.7958 0.00499768C14.7635 0.569735 15.9531 0.759647 16.689 1.70421C17.8332 3.17352 18.181 4.76778 17.5156 6.54196C17.1678 7.47652 16.81 8.40609 16.5378 9.36065C16.1648 10.675 16.9612 11.5546 18.2465 11.0798C21.7042 9.80044 25.288 9.88041 28.8213 10.1353C35.3991 10.6051 41.4778 12.6041 46.2411 17.3719C50.7371 21.8748 52.6676 27.2673 51.7956 33.7043C50.9539 39.9164 48.3177 45.079 43.6704 49.2521C41.0595 51.596 37.9495 52.9404 34.4666 53.4102C31.2659 53.84 28.0552 54.0349 24.8142 53.9949C14.4964 53.87 5.18169 45.3089 4.13832 35.0687C3.48306 28.6667 5.16657 22.9743 8.96201 17.8617C9.98018 16.4923 11.205 15.2579 12.5508 14.1534C13.322 13.5237 14.2746 12.6441 13.8966 11.6846C13.5387 10.79 12.3542 10.6201 11.2705 10.5951C9.27956 10.5501 7.23818 8.93085 6.7291 7.18166C6.15953 5.21757 7.04665 2.67376 8.69487 1.44433C9.57695 0.784635 10.58 0.389819 11.5931 0H13.7907L13.7958 0.00499768Z" fill="#CCD5DD"/>
<path d="M13.6884 38.4782C14.0647 38.49 14.294 38.7433 14.3704 39.0495C14.4939 39.5619 14.5057 40.1038 14.6056 40.6221C15.0407 43.0015 14.6468 45.5341 16.1167 47.7368C16.6518 48.5378 16.1873 49.4213 15.3582 49.9101C14.4586 50.4402 13.5002 50.4108 12.6535 49.7747C12.0185 49.2917 11.5304 48.4613 12.0537 47.8252C13.5825 45.9758 12.824 43.9792 12.677 42.012C12.6065 41.052 12.4536 40.0861 12.7417 39.1496C12.871 38.7256 13.1944 38.4488 13.6884 38.4782Z" fill="black"/>
<path d="M49.8202 43.237C49.9084 45.0274 49.585 46.8532 50.7375 48.5024C51.1844 49.1384 50.9609 49.9866 50.3024 50.5225C49.6615 51.0467 48.9324 51.0761 48.215 50.658C47.6153 50.3105 47.1684 49.7686 47.3742 49.0854C48.1445 46.5646 47.5388 43.9673 47.8857 41.4288C47.9857 40.6926 48.1503 39.9623 48.3914 39.2614C48.4679 39.0435 48.8971 38.802 49.1323 38.8256C49.3792 38.855 49.7791 39.1848 49.7908 39.3969C49.8555 40.6749 49.8202 41.953 49.8202 43.237Z" fill="black"/>
<path d="M26.3183 55.9882C25.1188 55.6583 23.2667 55.1813 21.4321 54.6394C20.8089 54.4568 20.1915 54.0799 20.4678 53.273C20.6736 52.6664 21.3028 52.6723 21.8202 52.7606C22.5552 52.8843 23.2667 53.1199 23.9899 53.273C24.7484 53.432 25.4481 53.4379 25.9714 52.684C26.6417 51.7063 27.5178 51.1115 28.6468 51.9655C29.4641 52.5839 29.7992 53.5027 29.5052 54.5275C29.1465 55.782 28.1587 56.0647 26.3183 55.9823V55.9882Z" fill="black"/>
<path d="M36.1142 55.464C34.8324 55.1931 33.2625 54.8986 31.7102 54.5157C31.3045 54.4156 31.0105 53.9739 31.2045 53.5145C31.3104 53.2612 31.622 52.9196 31.8454 52.9137C33.5388 52.8666 35.05 52.7547 36.4611 51.3942C37.2902 50.5932 38.1546 51.7358 38.4309 52.7429C38.7367 53.8561 38.6955 54.8986 37.3666 55.358C37.0727 55.4581 36.7316 55.4169 36.1142 55.464Z" fill="black"/>
<path d="M18.8685 27.8237C18.9097 27.1699 19.239 27.0345 19.533 27.0286C22.8257 26.9873 26.0949 26.7459 29.2877 25.8447C29.7581 25.7093 30.3931 25.6445 30.5754 26.363C30.7106 26.8872 30.2873 27.1994 29.9227 27.3172C26.5771 28.3773 23.1726 29.0252 19.6447 28.4068C19.2213 28.3302 18.845 28.1182 18.8685 27.8237Z" fill="black"/>
<path d="M36.1319 25.6799C39.1482 26.4456 41.9588 26.9109 44.74 25.7329C45.0516 25.5975 45.3515 25.9037 45.4456 26.2277C45.6337 26.8696 45.2104 27.2937 44.7341 27.4998C42.3763 28.5129 39.9655 28.5718 37.5607 27.6824C36.8668 27.4233 36.1377 27.1406 36.126 25.6799H36.1319Z" fill="black"/>
<path d="M29.6111 39.9094C28.4998 39.9094 27.8648 39.9094 27.2239 39.9094C26.6124 39.9094 25.801 40.1097 25.7657 39.1791C25.748 38.6137 26.3948 38.2544 26.8946 38.2191C29.0172 38.0541 31.1458 37.9717 33.2743 37.901C33.6859 37.8892 34.1504 38.0424 34.2386 38.5489C34.3621 39.2674 33.7917 39.4795 33.286 39.5442C31.916 39.7209 30.5343 39.8152 29.617 39.9035L29.6111 39.9094Z" fill="black"/>
<path d="M38.7837 32.8653C39.1012 32.8653 39.4187 32.8535 39.7304 32.8535C40.5183 32.8535 41.2885 32.9654 41.2827 33.9667C41.2827 34.5733 40.7299 34.8325 40.1831 34.9031C39.3658 35.0033 38.6955 34.7912 38.6426 33.8076C38.6249 33.4955 38.7308 33.1833 38.7837 32.8712V32.8653Z" fill="white"/>
<path d="M26.4712 33.5544C27.1121 33.6016 27.5943 33.8784 27.6296 34.4556C27.6884 35.4568 26.9122 35.6041 26.1596 35.5923C25.5893 35.5805 25.1541 35.2212 25.2365 34.6087C25.3305 33.9078 25.8186 33.5486 26.4712 33.5603V33.5544Z" fill="white"/>
<path d="M29.3406 31.387C29.8816 31.4812 30.0403 31.8405 29.9756 32.2999C29.8757 32.9831 29.5346 33.5014 28.7585 33.4366C28.2705 33.3954 28.0353 33.0007 28.0941 32.5472C28.1823 31.8287 28.6527 31.4635 29.3406 31.387Z" fill="black"/>
<path d="M38.7896 32.8653C38.4897 32.83 38.1663 32.8535 37.8841 32.7534C37.3667 32.565 37.008 32.1998 37.2314 31.5932C37.3784 31.1985 37.6842 30.8864 38.1546 30.9512C38.7308 31.0277 39.0718 31.3635 39.0013 31.9819C38.966 32.2822 38.8602 32.5767 38.7837 32.8712L38.7896 32.8653Z" fill="black"/>
</svg>
