<svg width="351" height="317" viewBox="0 0 351 317" fill="none" xmlns="http://www.w3.org/2000/svg">
<g filter="url(#filter0_dd_1393_8744)">
<rect x="8" y="4.36182" width="335" height="300" rx="8" fill="#ADA2D7"/>
<g clip-path="url(#clip0_1393_8744)">
<path d="M64.3041 234.995C77.603 234.995 88.3838 232.468 88.3838 229.35C88.3838 226.232 77.603 223.705 64.3041 223.705C51.0053 223.705 40.2245 226.232 40.2245 229.35C40.2245 232.468 51.0053 234.995 64.3041 234.995Z" fill="#5843A8"/>
<path d="M64.3038 230.625C82.2299 230.625 96.7618 216.093 96.7618 198.167C96.7618 180.241 82.2299 165.709 64.3038 165.709C46.3778 165.709 31.8458 180.241 31.8458 198.167C31.8458 216.093 46.3778 230.625 64.3038 230.625Z" fill="url(#paint0_radial_1393_8744)"/>
<path d="M64.3038 208.227C78.3511 208.227 89.7387 196.755 89.7387 182.603C89.7387 168.45 78.3511 156.978 64.3038 156.978C50.2565 156.978 38.8689 168.45 38.8689 182.603C38.8689 196.755 50.2565 208.227 64.3038 208.227Z" fill="url(#paint1_radial_1393_8744)"/>
<path d="M64.3041 204.344C69.5457 204.344 73.7948 202.22 73.7948 199.599C73.7948 196.978 69.5457 194.854 64.3041 194.854C59.0626 194.854 54.8135 196.978 54.8135 199.599C54.8135 202.22 59.0626 204.344 64.3041 204.344Z" fill="url(#paint2_radial_1393_8744)"/>
<path d="M53.2416 221.787C53.0746 221.787 52.9038 221.742 52.7481 221.651C48.1053 218.826 46.3286 213.47 46.2565 213.242C46.0971 212.745 46.3704 212.209 46.8677 212.046C47.365 211.887 47.9003 212.156 48.0635 212.657C48.0787 212.707 49.7073 217.577 53.7351 220.03C54.1831 220.303 54.3236 220.884 54.054 221.332C53.8756 221.624 53.5643 221.787 53.2416 221.787Z" fill="#30216B"/>
<path d="M52.4104 222.239C53.2114 222.661 54.206 222.357 54.6274 221.552C55.0488 220.751 54.7451 219.756 53.9403 219.335C53.1393 218.914 52.1446 219.217 51.7233 220.022C51.3019 220.823 51.6056 221.818 52.4104 222.239Z" fill="#30216B"/>
<path d="M75.366 221.788C75.0471 221.788 74.7321 221.625 74.5536 221.332C74.2803 220.884 74.4246 220.3 74.8725 220.03C78.9003 217.578 80.5289 212.707 80.5441 212.658C80.7074 212.161 81.2426 211.887 81.7399 212.05C82.2372 212.214 82.5106 212.745 82.3511 213.242C82.279 213.47 80.5024 218.827 75.8595 221.651C75.7039 221.746 75.5369 221.788 75.366 221.788Z" fill="#30216B"/>
<path d="M74.6637 219.335C73.8627 219.757 73.5552 220.751 73.9766 221.552C74.3979 222.353 75.3926 222.661 76.1936 222.239C76.9946 221.818 77.3021 220.823 76.8807 220.022C76.4593 219.221 75.4647 218.914 74.6637 219.335Z" fill="#30216B"/>
<path d="M56.9621 197.617C56.8483 195.981 57.8239 195.088 59.2361 194.959C60.2687 194.864 61.324 195.4 61.4038 196.744C61.4987 198.346 60.523 199.261 59.1146 199.416C58.0403 199.534 57.0988 198.904 56.9621 197.617Z" fill="#30216B"/>
<path d="M71.6462 197.617C71.7601 195.98 70.7845 195.088 69.3723 194.959C68.3397 194.864 67.2843 195.399 67.2046 196.743C67.1097 198.345 68.0853 199.26 69.4938 199.416C70.5681 199.534 71.5096 198.903 71.6462 197.617Z" fill="#30216B"/>
<path d="M57.8353 192.397C57.6037 192.397 57.3684 192.381 57.1368 192.355C53.0748 191.888 50.854 187.469 50.7591 187.279C50.5275 186.809 50.7211 186.239 51.1918 186.008C51.6626 185.776 52.2282 185.97 52.4636 186.44C52.4978 186.509 54.3427 190.126 57.3646 190.472C59.0919 190.669 60.9482 189.766 62.8881 187.788C62.8046 187.685 62.7249 187.579 62.649 187.473C59.8929 183.707 61.2254 181.881 61.9277 181.27C63.1121 180.241 65.1165 180.347 66.3085 181.505C66.8666 182.048 68.4686 184.102 65.5341 187.678C65.5113 187.708 65.4848 187.739 65.462 187.769C67.6107 189.697 70.3402 190.286 72.3788 189.94C73.4759 189.754 75.4234 189.117 76.0991 186.915C76.2547 186.414 76.7862 186.133 77.2835 186.285C77.7846 186.44 78.0655 186.968 77.9099 187.469C77.1962 189.789 75.2943 191.368 72.6901 191.808C69.7442 192.306 66.5515 191.269 64.194 189.17C62.0681 191.315 59.9384 192.397 57.8391 192.397H57.8353ZM63.9207 182.454C63.6322 182.454 63.3626 182.534 63.169 182.701C62.7021 183.107 62.6831 184.303 64.1675 186.338C65.3671 184.827 65.6708 183.536 64.9799 182.864C64.7027 182.595 64.2965 182.454 63.9169 182.454H63.9207Z" fill="#30216B"/>
<path d="M64.3034 210.038C61.8966 210.038 59.9377 208.079 59.9377 205.672V203.964C59.9377 203.546 60.2794 203.205 60.697 203.205H67.9099C68.3275 203.205 68.6691 203.546 68.6691 203.964V205.672C68.6691 208.079 66.7103 210.038 64.3034 210.038ZM61.4562 204.723V205.672C61.4562 207.244 62.7318 208.52 64.3034 208.52C65.8751 208.52 67.1506 207.244 67.1506 205.672V204.723H61.4562Z" fill="#30216B"/>
<path d="M59.5585 196.979C59.8939 196.979 60.1659 196.707 60.1659 196.372C60.1659 196.036 59.8939 195.764 59.5585 195.764C59.223 195.764 58.951 196.036 58.951 196.372C58.951 196.707 59.223 196.979 59.5585 196.979Z" fill="#F3F0FF"/>
<path d="M69.0494 196.979C69.3849 196.979 69.6568 196.707 69.6568 196.372C69.6568 196.036 69.3849 195.764 69.0494 195.764C68.714 195.764 68.442 196.036 68.442 196.372C68.442 196.707 68.714 196.979 69.0494 196.979Z" fill="#F3F0FF"/>
</g>
<g clip-path="url(#clip1_1393_8744)">
<path d="M310.832 73.8028C315.286 73.8028 318.894 77.4104 318.894 81.8646V169.244C318.894 173.698 315.286 177.306 310.832 177.306H104.607V81.8646C104.607 77.4104 108.214 73.8028 112.669 73.8028H310.832Z" fill="white" stroke="#E6B2C6" stroke-width="0.520115"/>
<path d="M123.388 91.9604H121.302V90.9357H123.388V89.5002H121.302V88.4756H123.388V86.78H124.647V95.029H123.388V91.9604ZM120.964 92.9226H115.711V87.4926H120.964V92.9226ZM119.716 88.5276H116.959V91.8876H119.716V88.5276ZM124.87 96.9171V97.9521H118.379C118.114 97.9521 117.911 97.8793 117.766 97.7388C117.63 97.5984 117.568 97.3956 117.568 97.1251V94.1292H118.827V96.9119H124.87V96.9171ZM135.777 86.78V92.8966H134.518V90.3376H132.448V89.313H134.518V86.78H135.777ZM127.403 92.9434L126.467 92.1424C127.44 91.4247 128.126 90.7953 128.527 90.244C128.927 89.6875 129.13 89.0737 129.14 88.408H126.842V87.3574H132.672V88.408H130.399V88.4444C130.399 89.1257 130.243 89.7499 129.936 90.3168L129.999 90.3688L130.259 90.1712C130.373 90.088 130.498 90.0463 130.633 90.0463C130.768 90.0463 130.878 90.088 130.971 90.1712L133.093 91.9188L132.157 92.7405L129.973 90.8577C129.9 90.8005 129.827 90.7693 129.759 90.7693C129.692 90.7693 129.635 90.7953 129.583 90.8421C129.348 91.1594 129.062 91.4767 128.719 91.8043C128.376 92.1216 127.939 92.5013 127.398 92.9382L127.403 92.9434ZM134.539 93.5207H135.777V98.1653H129.546C129.281 98.1653 129.078 98.0925 128.932 97.9521C128.797 97.8117 128.735 97.6088 128.735 97.3384V93.5207H129.983V94.8314H134.539V93.5207ZM134.539 95.8144H129.983V97.1615H134.539V95.8144ZM138.768 89.3494C138.768 88.6316 139.09 88.0595 139.73 87.6278C140.37 87.1857 141.322 86.9673 142.575 86.9673C143.828 86.9673 144.78 87.1857 145.42 87.6278C146.06 88.0595 146.382 88.6368 146.382 89.3494C146.382 90.062 146.06 90.6445 145.42 91.0866C144.78 91.5183 143.828 91.7367 142.575 91.7367C141.322 91.7367 140.37 91.5183 139.73 91.0866C139.09 90.6445 138.768 90.0672 138.768 89.3494ZM145.046 89.4378V89.2506C145.046 88.8605 144.837 88.5432 144.421 88.304C144.016 88.0647 143.397 87.9399 142.575 87.9399C141.753 87.9399 141.134 88.0595 140.729 88.304C140.323 88.5432 140.115 88.8605 140.115 89.2506V89.4378C140.115 89.8279 140.318 90.1452 140.729 90.3844C141.134 90.6237 141.753 90.7485 142.575 90.7485C143.397 90.7485 144.016 90.6289 144.421 90.3844C144.837 90.1452 145.046 89.8279 145.046 89.4378ZM147.693 92.6209V93.708H137.457V92.6209H147.693ZM138.893 97.1043V94.5713H140.167V96.8807H146.398V97.9313H139.709C139.444 97.9313 139.241 97.8585 139.095 97.718C138.96 97.5776 138.898 97.3748 138.898 97.1043H138.893ZM160.951 86.78V97.7128H159.676V86.78H160.951ZM155.796 91.2478C155.921 91.2478 156.03 91.305 156.119 91.4247L158.402 94.3321L157.429 95.1539L155.131 92.1216C155.099 92.0696 155.058 92.0488 155.006 92.0488C154.954 92.0488 154.917 92.0748 154.891 92.1216C154.668 92.5897 154.376 93.0682 154.018 93.5571C153.659 94.0408 153.18 94.6338 152.582 95.3411L151.609 94.5297C152.301 93.7652 152.837 93.089 153.222 92.5065C153.612 91.924 153.898 91.3414 154.07 90.7589C154.252 90.166 154.345 89.5054 154.345 88.7721V87.4978H155.619V88.7565C155.619 89.7707 155.463 90.6965 155.146 91.5287L155.209 91.5651L155.448 91.3778C155.562 91.2842 155.682 91.2426 155.796 91.2426V91.2478ZM172.118 86.78V93.6976H170.859V91.8772H169.2V90.8421H170.859V86.7852H172.118V86.78ZM167.92 88.0543H164.524V87.0193H167.92V88.0543ZM166.063 93.5207C165.533 93.5207 165.065 93.4427 164.664 93.2815C164.264 93.115 163.957 92.8966 163.738 92.6209C163.53 92.3401 163.426 92.0228 163.426 91.6743C163.426 90.9774 163.759 90.478 164.425 90.1868V90.0984H162.703V89.0893H169.392V90.0984H167.697V90.1868C168.362 90.478 168.695 90.9722 168.695 91.6743C168.695 92.0228 168.586 92.3401 168.373 92.6209C168.165 92.8966 167.863 93.115 167.462 93.2815C167.062 93.4375 166.599 93.5207 166.063 93.5207ZM165.939 92.4857H166.178C166.578 92.4857 166.901 92.3869 167.15 92.184C167.41 91.9864 167.535 91.7107 167.535 91.3622C167.535 91.0138 167.405 90.7381 167.15 90.5405C166.901 90.3428 166.578 90.2388 166.178 90.2388H165.939C165.538 90.2388 165.21 90.3376 164.95 90.5405C164.701 90.7381 164.576 91.0138 164.576 91.3622C164.576 91.7107 164.701 91.9864 164.95 92.184C165.21 92.3817 165.538 92.4857 165.939 92.4857ZM165.075 94.2801H172.118V98.1601H165.887C165.621 98.1601 165.418 98.0873 165.273 97.9469C165.138 97.8065 165.075 97.6036 165.075 97.3332V94.2749V94.2801ZM166.339 97.1251H170.859V95.3151H166.339V97.1251ZM181.937 86.78H183.212V97.7128H181.937V86.78ZM174.073 91.2114C174.073 89.9735 174.344 89.0373 174.885 88.4132C175.436 87.7786 176.164 87.4666 177.069 87.4666C177.974 87.4666 178.687 87.7839 179.227 88.4132C179.779 89.0373 180.049 89.9683 180.049 91.2114C180.049 92.4545 179.774 93.3751 179.227 94.0096C178.687 94.6442 177.969 94.9562 177.069 94.9562C176.169 94.9562 175.446 94.639 174.895 94.0096C174.344 93.3751 174.073 92.4441 174.073 91.2114ZM178.702 91.8199V90.5977C178.702 89.9215 178.551 89.4118 178.255 89.0633C177.953 88.7045 177.558 88.5276 177.069 88.5276C176.58 88.5276 176.169 88.7045 175.873 89.0633C175.571 89.4118 175.425 89.9267 175.425 90.5977V91.8199C175.425 92.4857 175.576 92.9954 175.873 93.3543C176.174 93.7132 176.57 93.89 177.069 93.89C177.568 93.89 177.953 93.7132 178.255 93.3543C178.557 92.9954 178.702 92.4857 178.702 91.8199ZM198.435 91.9968H196.688V97.7284H195.429V86.7956H196.688V90.9409H198.435V92.002V91.9968ZM193.806 91.2114C193.806 92.4441 193.536 93.3751 192.995 94.0096C192.464 94.6442 191.752 94.9562 190.862 94.9562C189.973 94.9562 189.245 94.639 188.704 94.0096C188.163 93.3751 187.893 92.4441 187.893 91.2114C187.893 89.9787 188.163 89.0373 188.704 88.4132C189.245 87.7786 189.963 87.4666 190.862 87.4666C191.762 87.4666 192.464 87.7839 192.995 88.4132C193.536 89.0373 193.806 89.9683 193.806 91.2114ZM192.47 90.5717C192.47 89.9163 192.319 89.4118 192.022 89.0633C191.731 88.7045 191.346 88.5276 190.862 88.5276C190.379 88.5276 189.978 88.7045 189.677 89.0633C189.385 89.4118 189.24 89.9163 189.24 90.5717V91.8459C189.24 92.5013 189.385 93.011 189.677 93.3699C189.978 93.7184 190.374 93.8952 190.862 93.8952C191.351 93.8952 191.731 93.7184 192.022 93.3699C192.324 93.011 192.47 92.5065 192.47 91.8459V90.5717ZM208.416 86.78V97.7128H207.142V86.78H208.416ZM205.795 93.3179L205.946 94.3529C204.557 94.6286 202.877 94.7638 200.901 94.7638H199.626V87.6486H200.885V93.6924C202.783 93.6924 204.417 93.5675 205.79 93.3179H205.795ZM220.696 91.9968H218.949V97.7284H217.69V86.7956H218.949V90.9409H220.696V92.002V91.9968ZM216.629 93.708L216.78 94.717C215.433 94.9666 213.789 95.0915 211.849 95.0915H210.59V90.6705H214.325V88.6368H210.554V87.5862H215.573V91.7055H211.839V94.0512H211.901C213.721 94.0512 215.303 93.9368 216.634 93.7028L216.629 93.708ZM233.912 86.78V97.7128H232.69V91.9448H231.39V97.4112H230.168V86.9517H231.39V90.9097H232.69V86.78H233.912ZM229.294 93.5207L229.455 94.5297C228.383 94.7898 227.104 94.9146 225.622 94.9146H224.649V87.8879H228.794V88.9489H225.871V93.8796H225.934C227.255 93.8796 228.378 93.76 229.294 93.5155V93.5207ZM245.906 92.3088H244.294V97.7128H243.046V86.78H244.294V91.2634H245.906V92.314V92.3088ZM240.398 88.2884H237.038V87.2533H240.398V88.2884ZM242.271 94.6546L242.385 95.6532C241.496 95.7936 240.409 95.908 239.129 95.9913C237.855 96.0641 236.549 96.1057 235.207 96.1057L235.093 95.0447C236.201 95.0447 237.184 95.029 238.052 94.9926V93.6924C237.413 93.5987 236.908 93.3907 236.544 93.0578C236.185 92.7249 236.008 92.3297 236.008 91.872C236.008 91.1802 236.352 90.6913 237.033 90.4V90.3272H235.296V89.3182H242.063V90.3272H240.367V90.4C241.048 90.6913 241.392 91.1802 241.392 91.872C241.392 92.3401 241.199 92.7353 240.819 93.0682C240.445 93.4011 239.93 93.6091 239.27 93.6924V94.9302C240.507 94.8626 241.511 94.7742 242.276 94.6546H242.271ZM238.567 92.7093H238.827C239.243 92.7093 239.582 92.6105 239.836 92.4077C240.096 92.1996 240.221 91.9188 240.221 91.5703C240.221 91.2218 240.091 90.9461 239.836 90.7485C239.576 90.5509 239.243 90.4468 238.827 90.4468H238.567C238.151 90.4468 237.813 90.5457 237.558 90.7485C237.298 90.9461 237.173 91.2218 237.173 91.5703C237.173 91.9188 237.303 92.1996 237.558 92.4077C237.818 92.6053 238.151 92.7093 238.567 92.7093ZM255.289 90.3376V92.4701H256.974V93.5311H255.289V97.7232H254.03V86.7904H255.289V89.287H256.974V90.3376H255.289ZM252.402 91.2114C252.402 92.4441 252.132 93.3751 251.591 94.0096C251.061 94.6442 250.348 94.9562 249.459 94.9562C248.569 94.9562 247.841 94.639 247.3 94.0096C246.759 93.3751 246.489 92.4441 246.489 91.2114C246.489 89.9787 246.759 89.0373 247.3 88.4132C247.841 87.7786 248.559 87.4666 249.459 87.4666C250.358 87.4666 251.061 87.7839 251.591 88.4132C252.132 89.0373 252.402 89.9683 252.402 91.2114ZM251.066 90.5717C251.066 89.9163 250.915 89.4118 250.618 89.0633C250.327 88.7045 249.942 88.5276 249.459 88.5276C248.975 88.5276 248.574 88.7045 248.273 89.0633C247.981 89.4118 247.836 89.9163 247.836 90.5717V91.8459C247.836 92.5013 247.981 93.011 248.273 93.3699C248.574 93.7184 248.97 93.8952 249.459 93.8952C249.947 93.8952 250.327 93.7184 250.618 93.3699C250.92 93.011 251.066 92.5065 251.066 91.8459V90.5717ZM258.966 96.579C258.659 96.579 258.431 96.501 258.28 96.3397C258.129 96.1733 258.056 95.9705 258.056 95.726V95.5388C258.056 95.2995 258.129 95.0967 258.28 94.9406C258.431 94.7742 258.659 94.691 258.966 94.691C259.273 94.691 259.502 94.7742 259.653 94.9406C259.804 95.0967 259.876 95.2995 259.876 95.5388V95.726C259.876 95.9653 259.804 96.1733 259.653 96.3397C259.502 96.4958 259.273 96.579 258.966 96.579ZM124.896 103.424V114.357H123.658V103.424H124.896ZM121.177 103.595H122.4V114.055H121.177V107.949H119.118V106.888H121.177V103.59V103.595ZM120.304 110.024L120.455 111.049C119.43 111.298 118.145 111.423 116.595 111.423H115.623V104.521H116.835V110.378H116.923C118.223 110.378 119.347 110.263 120.304 110.029V110.024ZM136.89 108.64H135.143V114.372H133.884V103.439H135.143V107.585H136.89V108.646V108.64ZM126.8 104.297H131.819V106.107C131.819 107.038 131.679 107.834 131.393 108.49C131.112 109.14 130.638 109.743 129.983 110.3C129.333 110.856 128.412 111.465 127.211 112.12L126.462 111.158C127.559 110.586 128.397 110.066 128.969 109.597C129.541 109.124 129.947 108.62 130.181 108.089C130.415 107.548 130.529 106.888 130.529 106.102V105.364H126.795V104.292L126.8 104.297ZM149.831 103.424V114.357H148.572V108.25H146.523C146.465 109.358 146.169 110.196 145.638 110.757C145.113 111.314 144.432 111.595 143.589 111.595C142.7 111.595 141.982 111.277 141.441 110.648C140.9 110.014 140.63 109.083 140.63 107.85C140.63 106.617 140.895 105.676 141.431 105.052C141.972 104.417 142.689 104.105 143.589 104.105C144.395 104.105 145.056 104.365 145.576 104.88C146.101 105.395 146.413 106.165 146.512 107.189H148.572V103.418H149.831V103.424ZM145.212 107.231C145.212 106.565 145.061 106.055 144.765 105.707C144.473 105.348 144.083 105.171 143.589 105.171C143.095 105.171 142.705 105.348 142.403 105.707C142.112 106.055 141.966 106.565 141.966 107.231V108.479C141.966 109.145 142.112 109.655 142.403 110.014C142.705 110.362 143.1 110.539 143.589 110.539C144.078 110.539 144.473 110.362 144.765 110.014C145.066 109.655 145.212 109.145 145.212 108.479V107.231ZM159.864 106.321V103.424H161.112V111.673H159.864V107.356H158.028V106.321H159.864ZM154.897 109.577C154.366 109.743 153.617 109.826 152.65 109.826H151.864V104.199H154.673V105.208H153.076V108.802C153.809 108.791 154.371 108.734 154.761 108.625L154.897 109.571V109.577ZM156.155 109.852H155.245V104.199H158.293V105.208H156.472V108.838C157.346 108.828 158.074 108.765 158.657 108.64L158.792 109.603C158.517 109.67 158.152 109.727 157.695 109.779C157.237 109.832 156.727 109.852 156.16 109.852H156.155ZM161.325 113.561V114.596H154.72C154.454 114.596 154.252 114.523 154.106 114.383C153.971 114.242 153.908 114.039 153.908 113.769V110.809H155.183V113.556H161.325V113.561ZM176.18 108.64H174.432V114.372H173.173V103.439H174.432V107.585H176.18V108.646V108.64ZM169.564 107.902C169.689 107.902 169.803 107.959 169.902 108.079L172.149 110.976L171.16 111.798L168.903 108.776C168.877 108.724 168.836 108.703 168.778 108.703C168.737 108.703 168.695 108.729 168.654 108.776C168.43 109.249 168.139 109.733 167.78 110.222C167.421 110.711 166.958 111.298 166.381 111.98L165.418 111.168C166.1 110.404 166.63 109.727 167.005 109.145C167.39 108.562 167.665 107.98 167.842 107.397C168.024 106.804 168.118 106.144 168.118 105.411V104.136H169.392V105.395C169.392 106.446 169.236 107.366 168.929 108.167L168.992 108.219L169.231 108.032C169.345 107.938 169.46 107.897 169.569 107.897L169.564 107.902ZM187.305 106.18V107.241H185.594V110.112H184.335V103.424H185.594V106.18H187.305ZM183.326 109.415C181.994 109.665 180.346 109.79 178.385 109.79H177.173V106.305H180.907V104.994H177.137V103.97H182.119V107.314H178.374V108.776H178.463C180.252 108.776 181.823 108.656 183.17 108.412L183.331 109.41L183.326 109.415ZM178.681 110.69H185.609V114.809H179.493C179.227 114.809 179.025 114.736 178.879 114.596C178.744 114.455 178.681 114.252 178.681 113.982V110.684V110.69ZM179.956 113.769H184.335V111.735H179.956V113.769ZM197.327 103.424V111.673H196.069V103.424H197.327ZM188.189 106.856C188.189 106.258 188.314 105.743 188.564 105.307C188.813 104.864 189.156 104.526 189.599 104.297C190.041 104.063 190.545 103.949 191.122 103.949C191.7 103.949 192.204 104.063 192.646 104.297C193.094 104.532 193.447 104.87 193.697 105.307C193.947 105.738 194.072 106.253 194.072 106.856C194.072 107.46 193.947 107.964 193.697 108.406C193.447 108.838 193.099 109.171 192.646 109.405C192.204 109.639 191.7 109.753 191.122 109.753C190.545 109.753 190.041 109.639 189.599 109.405C189.156 109.171 188.813 108.838 188.564 108.406C188.314 107.964 188.189 107.449 188.189 106.856ZM192.719 107.153V106.555C192.719 106.081 192.574 105.702 192.282 105.421C191.991 105.14 191.606 104.994 191.122 104.994C190.639 104.994 190.254 105.135 189.963 105.421C189.671 105.707 189.526 106.081 189.526 106.555V107.153C189.526 107.626 189.671 108.006 189.963 108.287C190.254 108.568 190.639 108.713 191.122 108.713C191.606 108.713 191.991 108.573 192.282 108.287C192.574 108.006 192.719 107.626 192.719 107.153ZM190.249 113.769V110.773H191.507V113.556H197.551V114.591H191.06C190.795 114.591 190.592 114.518 190.446 114.377C190.311 114.237 190.249 114.034 190.249 113.764V113.769ZM208.416 103.424V114.357H207.142V103.424H208.416ZM203.335 108.131C203.475 108.131 203.595 108.188 203.699 108.308L205.946 110.903L204.984 111.725L202.7 108.968C202.643 108.911 202.586 108.88 202.539 108.88C202.492 108.88 202.445 108.906 202.404 108.953C202.18 109.384 201.889 109.832 201.53 110.289C201.171 110.737 200.703 111.277 200.12 111.902L199.158 111.116C199.84 110.435 200.375 109.816 200.771 109.27C201.166 108.724 201.447 108.178 201.618 107.637C201.8 107.085 201.894 106.482 201.894 105.827V105.452H199.559V104.391H205.488V105.452H203.168V105.879C203.168 106.82 203.007 107.663 202.679 108.412L202.742 108.464L203.002 108.266C203.127 108.183 203.241 108.141 203.34 108.141L203.335 108.131ZM214.346 107.631L213.685 106.706C214.699 106.362 215.495 106.045 216.067 105.743C216.65 105.437 217.061 105.124 217.305 104.807C217.544 104.49 217.669 104.136 217.669 103.746V103.486H218.907V103.809C218.907 104.173 218.855 104.506 218.746 104.797C218.637 105.078 218.465 105.343 218.236 105.582L218.35 105.619L218.761 105.333C218.928 105.218 219.089 105.156 219.25 105.156C219.36 105.156 219.469 105.182 219.573 105.228L222.73 106.664L222.054 107.59L218.595 105.957C218.46 105.889 218.335 105.858 218.21 105.858C218.085 105.858 217.95 105.894 217.81 105.972H217.799C217.451 106.248 216.998 106.513 216.452 106.773C215.901 107.033 215.204 107.319 214.356 107.637L214.346 107.631ZM223.323 108.318V109.369H213.087V108.318H217.581V107.059H218.839V108.318H223.323ZM215.844 113.847H222.121V114.871H215.453C215.188 114.871 214.985 114.799 214.84 114.658C214.704 114.518 214.642 114.315 214.642 114.044V112.021H220.608V111.173H214.564V110.149H221.804V112.983H215.838V113.847H215.844ZM233.663 103.424V110.014H232.404V103.424H233.663ZM225.362 109.837L224.425 109.025C225.091 108.526 225.616 108.079 225.996 107.678C226.386 107.273 226.672 106.872 226.844 106.482C227.026 106.081 227.12 105.645 227.12 105.171V105.161H224.821V104.11H230.698V105.161H228.378V105.234C228.378 105.951 228.222 106.586 227.915 107.143L227.988 107.195L228.248 107.007C228.363 106.914 228.482 106.872 228.597 106.872C228.722 106.872 228.841 106.919 228.961 107.007L231.109 108.791L230.173 109.613L227.952 107.678C227.884 107.626 227.817 107.605 227.754 107.605C227.681 107.605 227.619 107.631 227.567 107.678C227.343 107.996 227.057 108.313 226.719 108.64C226.376 108.958 225.923 109.358 225.356 109.837H225.362ZM226.402 110.627H233.668V114.923H232.43V111.688H226.402V110.627ZM245.906 108.864H244.221V114.367H242.962V103.434H244.221V107.803H245.906V108.864ZM240.513 105.109H236.867V104.037H240.513V105.109ZM235.259 106.342H241.938V107.377H240.253V107.449C240.96 107.839 241.314 108.536 241.314 109.535C241.314 110.066 241.199 110.534 240.965 110.934C240.741 111.324 240.424 111.631 240.018 111.844C239.618 112.063 239.165 112.167 238.656 112.167C238.146 112.167 237.688 112.058 237.283 111.844C236.882 111.626 236.565 111.324 236.336 110.934C236.102 110.534 235.988 110.071 235.988 109.535C235.988 108.536 236.341 107.845 237.049 107.465V107.377H235.265V106.342H235.259ZM240.086 109.025C240.086 108.542 239.956 108.172 239.701 107.912C239.441 107.647 239.093 107.512 238.651 107.512C238.208 107.512 237.855 107.647 237.59 107.912C237.329 108.178 237.205 108.547 237.205 109.025V109.597C237.205 110.071 237.34 110.44 237.605 110.711C237.87 110.976 238.219 111.111 238.656 111.111C239.093 111.111 239.436 110.976 239.691 110.711C239.956 110.445 240.091 110.076 240.091 109.597V109.025H240.086ZM256.173 103.424V114.357H254.951V103.424H256.173ZM252.517 103.595H253.713V114.055H252.517V108.625H250.821C250.582 109.233 250.197 109.8 249.672 110.32C249.157 110.846 248.424 111.433 247.477 112.078L246.64 111.257C247.539 110.664 248.221 110.138 248.689 109.67C249.162 109.202 249.495 108.718 249.687 108.209C249.88 107.694 249.973 107.059 249.973 106.31V105.535H246.978V104.526H251.196V106.284C251.196 106.784 251.165 107.21 251.107 107.569H252.517V103.585V103.595ZM270.788 112.084V113.145H260.553V112.084H265.046V109.774H261.915V103.996H263.164V105.879H268.146V103.996H269.395V109.774H266.31V112.084H270.794H270.788ZM263.164 108.729H268.146V106.919H263.164V108.729ZM281.134 103.424V114.357H279.859V109.826H277.935V108.791H279.859V106.768H277.935V105.733H279.859V103.424H281.134ZM277.763 107.855C277.763 109.088 277.493 110.019 276.952 110.653C276.421 111.288 275.714 111.6 274.83 111.6C273.946 111.6 273.223 111.283 272.682 110.653C272.151 110.019 271.881 109.088 271.881 107.855C271.881 106.622 272.146 105.681 272.682 105.057C273.223 104.422 273.94 104.11 274.83 104.11C275.719 104.11 276.421 104.428 276.952 105.057C277.493 105.681 277.763 106.612 277.763 107.855ZM276.442 107.215C276.442 106.55 276.296 106.04 276.005 105.691C275.714 105.333 275.324 105.156 274.83 105.156C274.336 105.156 273.935 105.333 273.644 105.691C273.353 106.04 273.207 106.55 273.207 107.215V108.49C273.207 109.155 273.353 109.665 273.644 110.024C273.935 110.372 274.33 110.549 274.83 110.549C275.329 110.549 275.714 110.372 276.005 110.024C276.296 109.665 276.442 109.155 276.442 108.49V107.215ZM287.307 104.896H283.963V103.835H291.9V104.896H288.592C288.566 105.509 288.368 106.05 287.994 106.518L288.046 106.529L288.368 106.29C288.509 106.18 288.66 106.128 288.816 106.128C288.93 106.128 289.05 106.159 289.164 106.217L292.399 107.865L291.702 108.828L288.217 106.966C288.103 106.898 287.983 106.867 287.869 106.867C287.77 106.867 287.671 106.898 287.583 106.955C287.24 107.262 286.787 107.574 286.22 107.891C285.664 108.198 284.962 108.526 284.124 108.864L283.448 107.917C284.79 107.403 285.747 106.914 286.329 106.456C286.912 105.988 287.234 105.468 287.302 104.896H287.307ZM293.049 110.835H288.566V114.793H287.307V110.835H282.814V109.774H293.049V110.835ZM302.755 107.839H295.478V103.835H296.737V106.804H302.755V107.839ZM304.18 109.025V110.112H293.944V109.025H304.18ZM296.654 113.519H302.885V114.57H296.196C295.931 114.57 295.728 114.497 295.582 114.357C295.447 114.216 295.385 114.013 295.385 113.743V111.095H296.659V113.519H296.654ZM124.896 120.067V131H123.674V120.067H124.896ZM121.24 120.239H122.436V130.699H121.24V125.269H119.544C119.305 125.877 118.92 126.444 118.395 126.964C117.88 127.489 117.147 128.077 116.2 128.722L115.363 127.9C116.262 127.307 116.944 126.782 117.412 126.314C117.885 125.846 118.218 125.362 118.41 124.852C118.603 124.338 118.697 123.703 118.697 122.954V122.179H115.701V121.17H119.919V122.928C119.919 123.427 119.888 123.854 119.83 124.213H121.24V120.229V120.239ZM138.976 120.067V131H137.764V120.067H138.976ZM135.345 120.239H136.542V130.699H135.345V124.78H133.775V123.745H135.345V120.239ZM132.662 124.92C132.802 124.92 132.922 124.988 133.026 125.118L134.81 127.651L133.91 128.4L132.1 125.752C132.058 125.7 132.017 125.679 131.975 125.679C131.923 125.679 131.887 125.705 131.861 125.752C131.679 126.158 131.434 126.59 131.138 127.037C130.841 127.484 130.462 128.004 130.014 128.587L129.13 127.848C129.702 127.125 130.149 126.486 130.467 125.924C130.789 125.357 131.023 124.8 131.164 124.249C131.315 123.698 131.387 123.094 131.387 122.429V122.205H129.442V121.144H134.461V122.205H132.578V122.418C132.578 123.365 132.433 124.259 132.142 125.092L132.204 125.128L132.365 125.014C132.459 124.946 132.558 124.915 132.667 124.915L132.662 124.92ZM149.857 120.067V125.773H148.598V120.067H149.857ZM140.718 122.985C140.718 122.455 140.843 121.987 141.093 121.586C141.342 121.18 141.686 120.868 142.128 120.65C142.575 120.431 143.085 120.327 143.652 120.327C144.219 120.327 144.723 120.437 145.16 120.65C145.607 120.868 145.961 121.18 146.211 121.586C146.46 121.987 146.585 122.449 146.585 122.985C146.585 123.521 146.46 123.989 146.211 124.395C145.961 124.795 145.612 125.102 145.16 125.321C144.718 125.539 144.213 125.643 143.652 125.643C143.09 125.643 142.58 125.534 142.128 125.321C141.686 125.102 141.342 124.795 141.093 124.395C140.843 123.989 140.718 123.516 140.718 122.985ZM145.248 123.188V122.788C145.248 122.356 145.098 122.007 144.801 121.753C144.51 121.492 144.125 121.368 143.652 121.368C143.178 121.368 142.788 121.498 142.492 121.753C142.201 122.013 142.055 122.356 142.055 122.788V123.188C142.055 123.63 142.201 123.979 142.492 124.239C142.783 124.488 143.168 124.613 143.652 124.613C144.135 124.613 144.52 124.488 144.811 124.239C145.103 123.979 145.248 123.63 145.248 123.188ZM142.752 130.704V128.431H148.582V127.484H142.689V126.413H149.867V129.481H144.037V130.444H150.127V131.531H143.563C143.298 131.531 143.095 131.458 142.949 131.317C142.814 131.177 142.752 130.974 142.752 130.704ZM158.979 121.425H155.734V120.426H163.484V121.425H160.248C160.207 121.966 160.02 122.434 159.687 122.824L159.749 122.86L160.098 122.611C160.222 122.517 160.358 122.475 160.509 122.475C160.633 122.475 160.758 122.507 160.883 122.564L163.967 123.963L163.307 124.889L159.936 123.266C159.822 123.209 159.702 123.178 159.588 123.178C159.474 123.178 159.359 123.209 159.25 123.266L159.187 123.302C158.511 123.828 157.409 124.358 155.88 124.899L155.229 123.999C156.119 123.693 156.826 123.406 157.351 123.152C157.877 122.886 158.262 122.616 158.511 122.34C158.771 122.065 158.922 121.763 158.974 121.43L158.979 121.425ZM160.243 126.543V127.38C161.242 127.448 162.006 127.671 162.542 128.056C163.083 128.441 163.354 128.925 163.354 129.518C163.354 129.944 163.208 130.319 162.917 130.641C162.636 130.964 162.209 131.213 161.642 131.39C161.086 131.572 160.405 131.666 159.609 131.666C158.813 131.666 158.126 131.572 157.559 131.39C157.003 131.213 156.576 130.964 156.285 130.641C156.004 130.319 155.859 129.944 155.859 129.518C155.859 128.925 156.124 128.441 156.66 128.056C157.201 127.671 157.976 127.448 158.979 127.38V126.543H154.486V125.482H164.721V126.543H160.238H160.243ZM159.604 128.342C158.787 128.342 158.178 128.446 157.768 128.654C157.362 128.862 157.154 129.123 157.154 129.44V129.591C157.154 129.908 157.357 130.168 157.768 130.376C158.173 130.584 158.787 130.688 159.604 130.688C160.42 130.688 161.039 130.584 161.44 130.376C161.84 130.168 162.038 129.908 162.038 129.591V129.44C162.038 129.123 161.84 128.862 161.44 128.654C161.039 128.446 160.431 128.342 159.604 128.342ZM166.755 123.422C166.755 122.866 166.901 122.361 167.192 121.914C167.494 121.466 167.936 121.113 168.529 120.853C169.127 120.593 169.865 120.468 170.739 120.468C171.613 120.468 172.346 120.598 172.934 120.853C173.532 121.113 173.98 121.466 174.271 121.914C174.572 122.361 174.718 122.866 174.718 123.422C174.718 123.979 174.567 124.494 174.271 124.946C173.98 125.388 173.532 125.742 172.934 126.007C172.341 126.267 171.613 126.392 170.739 126.392C169.865 126.392 169.127 126.262 168.529 126.007C167.936 125.742 167.494 125.388 167.192 124.946C166.901 124.499 166.755 123.989 166.755 123.422ZM168.113 123.573C168.113 124.098 168.331 124.53 168.773 124.873C169.215 125.216 169.865 125.383 170.734 125.383C171.603 125.383 172.253 125.211 172.695 124.873C173.137 124.53 173.355 124.098 173.355 123.573V123.287C173.355 122.756 173.137 122.319 172.695 121.976C172.263 121.633 171.608 121.466 170.734 121.466C169.86 121.466 169.205 121.638 168.763 121.976C168.331 122.319 168.113 122.756 168.113 123.287V123.573ZM175.852 128.727V129.788H165.616V128.727H168.113V126.72H169.361V128.727H172.107V126.72H173.345V128.727H175.852ZM186.447 120.067V131H185.235V125.409H183.987V130.704H182.775V120.244H183.987V124.374H185.235V120.067H186.447ZM181.178 121.94H177.896V120.915H181.178V121.94ZM176.658 123.074H182.265V124.072H180.918V124.135C181.526 124.494 181.828 125.144 181.828 126.095C181.828 126.876 181.61 127.495 181.178 127.942C180.751 128.384 180.19 128.602 179.493 128.602C178.796 128.602 178.218 128.384 177.797 127.942C177.371 127.495 177.163 126.876 177.163 126.095C177.163 125.154 177.464 124.504 178.062 124.15V124.077H176.663V123.079L176.658 123.074ZM180.642 125.544C180.642 125.118 180.538 124.79 180.33 124.556C180.132 124.322 179.852 124.207 179.493 124.207C179.134 124.207 178.853 124.322 178.645 124.556C178.447 124.79 178.343 125.118 178.343 125.544V126.241C178.343 126.657 178.447 126.985 178.655 127.229C178.874 127.463 179.149 127.578 179.493 127.578C179.836 127.578 180.106 127.463 180.315 127.229C180.533 126.99 180.637 126.657 180.637 126.241V125.544H180.642ZM189.234 129.866C188.928 129.866 188.699 129.788 188.548 129.627C188.397 129.461 188.324 129.258 188.324 129.013V128.826C188.324 128.587 188.397 128.384 188.548 128.228C188.699 128.062 188.928 127.978 189.234 127.978C189.541 127.978 189.77 128.062 189.921 128.228C190.072 128.384 190.145 128.587 190.145 128.826V129.013C190.145 129.253 190.072 129.461 189.921 129.627C189.77 129.783 189.541 129.866 189.234 129.866ZM202.773 122.423V120.062H204.021V125.804H202.773V123.406H200.937V122.418H202.773V122.423ZM197.806 125.31C197.275 125.477 196.526 125.56 195.559 125.56H194.774V120.567H197.582V121.539H195.97V124.572C196.646 124.561 197.208 124.504 197.666 124.395L197.801 125.305L197.806 125.31ZM199.065 125.57H198.154V120.567H201.202V121.539H199.366V124.608C200.251 124.598 200.984 124.535 201.577 124.41L201.702 125.336C201.436 125.404 201.072 125.461 200.615 125.513C200.157 125.555 199.642 125.575 199.065 125.575V125.57ZM204.281 130.454V131.525H197.614C197.348 131.525 197.145 131.453 197 131.312C196.865 131.172 196.802 130.969 196.802 130.699V128.452H202.742V127.505H196.74V126.444H204.016V129.492H198.076V130.454H204.281ZM214.991 120.067V131H213.716V120.067H214.991ZM212.478 126.98L212.629 128.004C211.256 128.254 209.571 128.379 207.574 128.379H206.289V123.958H210.07V121.935H206.253V120.874H211.334V125.003H207.553V127.339H207.589C209.431 127.339 211.058 127.219 212.484 126.974L212.478 126.98ZM225.518 124.483H218.241V120.478H219.5V123.448H225.518V124.483ZM226.943 125.669V126.756H216.707V125.669H226.943ZM219.417 130.163H225.648V131.213H218.959C218.694 131.213 218.491 131.141 218.345 131C218.21 130.86 218.148 130.657 218.148 130.386V127.739H219.422V130.163H219.417ZM238.973 124.384H236.789V123.323H238.973V120.067H240.232V128.316H238.973V124.384ZM231.795 126.933L231.109 125.986C232.175 125.555 232.992 125.159 233.553 124.8C234.12 124.442 234.516 124.072 234.739 123.687C234.973 123.297 235.088 122.829 235.088 122.288V121.877H231.457V120.806H236.362V122.169C236.362 122.933 236.227 123.578 235.951 124.103C235.676 124.629 235.213 125.107 234.568 125.539C233.928 125.971 233.002 126.439 231.795 126.938V126.933ZM240.461 130.204V131.239H233.97C233.704 131.239 233.501 131.167 233.356 131.026C233.221 130.886 233.158 130.683 233.158 130.412V127.417H234.417V130.199H240.461V130.204ZM255.424 122.777V123.828H253.729V126.574H252.47V120.073H253.729V122.782H255.424V122.777ZM251.367 125.497C249.994 125.763 248.361 125.898 246.463 125.898H245.24V120.655H250.286V121.716H246.515V124.863C248.377 124.863 249.947 124.743 251.222 124.499L251.373 125.497H251.367ZM253.817 129.164C253.817 129.632 253.682 130.048 253.406 130.412C253.141 130.787 252.74 131.078 252.21 131.286C251.685 131.505 251.05 131.609 250.301 131.609C249.552 131.609 248.912 131.499 248.377 131.286C247.846 131.078 247.441 130.787 247.165 130.412C246.889 130.048 246.754 129.632 246.754 129.164C246.754 128.696 246.889 128.28 247.165 127.916C247.441 127.541 247.841 127.25 248.377 127.042C248.907 126.824 249.552 126.72 250.301 126.72C251.05 126.72 251.685 126.829 252.21 127.042C252.74 127.25 253.141 127.541 253.406 127.916C253.682 128.28 253.817 128.696 253.817 129.164ZM252.47 129.065C252.47 128.691 252.293 128.379 251.934 128.129C251.575 127.869 251.029 127.744 250.301 127.744C249.573 127.744 249.022 127.874 248.652 128.129C248.288 128.379 248.101 128.691 248.101 129.065V129.279C248.101 129.643 248.283 129.955 248.652 130.204C249.016 130.464 249.568 130.589 250.301 130.589C251.035 130.589 251.581 130.459 251.934 130.204C252.293 129.955 252.47 129.648 252.47 129.279V129.065ZM264.183 125.248H262.196V124.223H264.183V122.788H262.196V121.763H264.183V120.067H265.442V128.316H264.183V125.248ZM259.138 126.418C258.571 126.418 258.066 126.304 257.63 126.069C257.187 125.835 256.844 125.497 256.595 125.06C256.355 124.618 256.23 124.098 256.23 123.5C256.23 122.902 256.35 122.387 256.595 121.95C256.844 121.508 257.187 121.17 257.63 120.941C258.072 120.712 258.576 120.593 259.138 120.593C259.7 120.593 260.204 120.707 260.636 120.941C261.078 121.175 261.421 121.513 261.671 121.95C261.92 122.382 262.045 122.897 262.045 123.5C262.045 124.103 261.92 124.618 261.671 125.06C261.421 125.492 261.078 125.83 260.636 126.069C260.204 126.304 259.705 126.418 259.138 126.418ZM259.138 125.399C259.611 125.399 259.996 125.258 260.287 124.972C260.579 124.691 260.724 124.301 260.724 123.812V123.198C260.724 122.715 260.579 122.335 260.287 122.049C259.996 121.763 259.611 121.623 259.138 121.623C258.665 121.623 258.269 121.763 257.978 122.049C257.697 122.325 257.552 122.704 257.552 123.198V123.812C257.552 124.301 257.692 124.691 257.978 124.972C258.269 125.253 258.654 125.399 259.138 125.399ZM265.671 130.204V131.239H259.18C258.914 131.239 258.711 131.167 258.566 131.026C258.431 130.886 258.368 130.683 258.368 130.412V127.417H259.627V130.199H265.671V130.204ZM277.685 123.687V124.748H275.99V128.493H274.731V120.067H275.99V123.687H277.685ZM272.104 121.44H268.77V120.379H272.104V121.44ZM270.372 127.271C269.842 127.271 269.374 127.183 268.973 127.011C268.573 126.829 268.266 126.584 268.047 126.272C267.839 125.965 267.735 125.622 267.735 125.248C267.735 124.468 268.079 123.921 268.77 123.615V123.542H266.997V122.507H273.712V123.542H271.964V123.615C272.312 123.771 272.578 123.994 272.749 124.275C272.926 124.551 273.009 124.873 273.009 125.248C273.009 125.622 272.9 125.965 272.687 126.272C272.468 126.579 272.162 126.824 271.761 127.011C271.361 127.188 270.898 127.271 270.362 127.271H270.372ZM270.268 126.21H270.466C270.866 126.21 271.194 126.095 271.454 125.872C271.714 125.648 271.839 125.341 271.839 124.946C271.839 124.551 271.709 124.249 271.454 124.02C271.205 123.797 270.877 123.682 270.466 123.682H270.268C269.868 123.682 269.54 123.797 269.28 124.02C269.03 124.244 268.906 124.551 268.906 124.946C268.906 125.341 269.03 125.643 269.28 125.872C269.54 126.095 269.868 126.21 270.268 126.21ZM270.294 130.288H276.25V131.323H269.847C269.582 131.323 269.379 131.25 269.233 131.109C269.098 130.969 269.036 130.766 269.036 130.496V128.114H270.294V130.288ZM290.631 120.067V131H289.372V125.357H287.151V124.296H289.372V120.062H290.631V120.067ZM281.851 120.941H286.808V122.751C286.808 123.693 286.668 124.488 286.381 125.133C286.106 125.783 285.648 126.387 285.008 126.943C284.369 127.5 283.453 128.108 282.262 128.764L281.503 127.801C282.595 127.229 283.422 126.709 283.989 126.241C284.561 125.768 284.962 125.263 285.185 124.733C285.419 124.192 285.534 123.531 285.534 122.746V122.007H281.851V120.936V120.941ZM299.998 122.028H293.621V120.957H301.246V121.867C301.246 123.739 301.064 125.518 300.695 127.198L299.473 127C299.816 125.445 299.988 123.786 299.998 122.033V122.028ZM302.567 128.727V129.788H292.332V128.727H296.149V124.884H297.408V128.727H302.562H302.567ZM304.825 127.978C305.132 127.978 305.36 128.056 305.511 128.218C305.662 128.374 305.735 128.582 305.735 128.831V129.029C305.735 129.435 305.621 129.861 305.397 130.303C305.178 130.751 304.887 131.13 304.513 131.437H303.504C303.769 131.172 303.993 130.912 304.164 130.662C304.341 130.412 304.471 130.132 304.565 129.825C304.346 129.783 304.185 129.689 304.076 129.549C303.967 129.398 303.915 129.227 303.915 129.024V128.826C303.915 128.576 303.987 128.374 304.138 128.212C304.289 128.051 304.518 127.973 304.825 127.973V127.978ZM122.811 138.693H116.496V137.621H124.059V138.568C124.059 140.575 123.872 142.448 123.497 144.185L122.275 143.987C122.623 142.339 122.805 140.575 122.811 138.693ZM125.432 145.361V146.432H115.196V145.361H125.432ZM136.89 139.905V140.966H135.195V144.96H133.936V136.711H135.195V139.905H136.89ZM131.933 142.828H126.639V137.424H131.933V142.828ZM130.67 138.469H127.897V141.787H130.67V138.469ZM129.499 146.848H135.455V147.883H129.052C128.787 147.883 128.584 147.81 128.438 147.67C128.303 147.529 128.241 147.327 128.241 147.056V144.06H129.499V146.843V146.848ZM147.693 141.803V142.89H137.457V141.803H144.697C144.791 141.376 144.869 140.882 144.936 140.315L138.622 140.575L138.497 139.54L145.014 139.343C145.04 138.953 145.051 138.542 145.051 138.121H138.872V137.086H146.299V138.058C146.299 139.447 146.179 140.695 145.935 141.803H147.693ZM138.929 143.998H146.205V148.055H139.74C139.475 148.055 139.272 147.982 139.127 147.841C138.991 147.701 138.929 147.498 138.929 147.228V143.993V143.998ZM140.177 147.035H144.973V145.028H140.177V147.035ZM159.723 140.081H156.717V139.02H159.723V136.711H160.982V144.96H159.723V140.081ZM158.288 142.552C156.972 142.833 155.339 142.978 153.383 142.978H152.187V137.46H153.435V141.928C155.224 141.928 156.795 141.798 158.142 141.543L158.293 142.552H158.288ZM161.211 146.848V147.883H154.72C154.454 147.883 154.252 147.81 154.106 147.67C153.971 147.529 153.908 147.327 153.908 147.056V144.06H155.167V146.843H161.211V146.848ZM175.067 144.96H173.808V136.711H175.067V144.96ZM169.163 141.106C169.096 141.106 169.038 141.132 168.986 141.179C168.752 141.522 168.466 141.871 168.123 142.229C167.78 142.578 167.327 143.01 166.76 143.514L165.824 142.713C166.49 142.162 167.015 141.673 167.395 141.241C167.785 140.799 168.071 140.367 168.243 139.941C168.425 139.509 168.518 139.041 168.518 138.542H166.219V137.491H172.097V138.542H169.777V138.594C169.777 139.327 169.621 140.009 169.314 140.643L169.377 140.68L169.652 140.492C169.761 140.409 169.876 140.367 170.001 140.367C170.125 140.367 170.245 140.414 170.365 140.503L172.513 142.448L171.577 143.27L169.345 141.174C169.288 141.122 169.226 141.101 169.158 141.101L169.163 141.106ZM175.29 146.848V147.883H168.799C168.534 147.883 168.331 147.81 168.185 147.67C168.05 147.529 167.988 147.327 167.988 147.056V144.175H169.246V146.848H175.29ZM186.197 136.711V143.015H184.938V136.711H186.197ZM180.179 140.503C180.112 140.503 180.054 140.534 180.002 140.591C179.779 140.95 179.488 141.314 179.129 141.689C178.78 142.063 178.322 142.505 177.756 143.01L176.819 142.188C177.495 141.616 178.021 141.101 178.406 140.653C178.791 140.206 179.061 139.759 179.227 139.317C179.404 138.875 179.488 138.391 179.488 137.855V137.117H180.762V137.928C180.762 138.708 180.606 139.421 180.299 140.061L180.361 140.113L180.637 139.873C180.751 139.775 180.866 139.722 180.975 139.722C181.084 139.722 181.194 139.775 181.313 139.873L183.498 141.881L182.587 142.765L180.341 140.57C180.289 140.518 180.236 140.497 180.179 140.497V140.503ZM179.155 143.639H186.197V148.096H179.966C179.701 148.096 179.498 148.024 179.352 147.883C179.217 147.743 179.155 147.54 179.155 147.269V143.639ZM180.419 147.046H184.938V144.684H180.419V147.046ZM196.017 136.711H197.291V147.644H196.017V136.711ZM188.153 141.142C188.153 139.905 188.423 138.968 188.964 138.344C189.515 137.71 190.243 137.398 191.148 137.398C192.053 137.398 192.766 137.715 193.307 138.344C193.858 138.968 194.129 139.899 194.129 141.142C194.129 142.385 193.853 143.306 193.307 143.941C192.766 144.575 192.048 144.887 191.148 144.887C190.249 144.887 189.526 144.57 188.974 143.941C188.423 143.306 188.153 142.375 188.153 141.142ZM192.782 141.751V140.529C192.782 139.853 192.631 139.343 192.334 138.994C192.033 138.635 191.637 138.459 191.148 138.459C190.66 138.459 190.249 138.635 189.952 138.994C189.651 139.343 189.505 139.858 189.505 140.529V141.751C189.505 142.417 189.656 142.926 189.952 143.285C190.254 143.644 190.649 143.821 191.148 143.821C191.648 143.821 192.033 143.644 192.334 143.285C192.636 142.926 192.782 142.417 192.782 141.751ZM207.818 140.269V142.401H209.503V143.462H207.818V147.654H206.56V136.721H207.818V139.218H209.503V140.269H207.818ZM204.937 141.142C204.937 142.375 204.666 143.306 204.125 143.941C203.595 144.575 202.882 144.887 201.993 144.887C201.104 144.887 200.375 144.57 199.834 143.941C199.293 143.306 199.023 142.375 199.023 141.142C199.023 139.91 199.293 138.968 199.834 138.344C200.375 137.71 201.093 137.398 201.993 137.398C202.893 137.398 203.595 137.715 204.125 138.344C204.666 138.968 204.937 139.899 204.937 141.142ZM203.6 140.503C203.6 139.847 203.449 139.343 203.153 138.994C202.861 138.635 202.477 138.459 201.993 138.459C201.509 138.459 201.109 138.635 200.807 138.994C200.516 139.343 200.37 139.847 200.37 140.503V141.777C200.37 142.432 200.516 142.942 200.807 143.301C201.109 143.649 201.504 143.826 201.993 143.826C202.482 143.826 202.861 143.649 203.153 143.301C203.454 142.942 203.6 142.437 203.6 141.777V140.503ZM211.495 146.51C211.189 146.51 210.96 146.432 210.809 146.271C210.658 146.104 210.585 145.901 210.585 145.657V145.47C210.585 145.231 210.658 145.028 210.809 144.872C210.96 144.705 211.189 144.622 211.495 144.622C211.802 144.622 212.031 144.705 212.182 144.872C212.333 145.028 212.406 145.231 212.406 145.47V145.657C212.406 145.896 212.333 146.104 212.182 146.271C212.031 146.427 211.802 146.51 211.495 146.51ZM226.157 142.9H224.899V136.711H226.157V142.9ZM217.778 143.077L217.118 142.115C218.2 141.715 219.032 141.35 219.614 141.018C220.197 140.685 220.603 140.341 220.837 139.983C221.076 139.624 221.201 139.202 221.201 138.724V138.36H217.466V137.299H222.47V138.573C222.47 139.306 222.329 139.92 222.043 140.419C221.768 140.908 221.3 141.366 220.634 141.782C219.968 142.188 219.016 142.625 217.773 143.082L217.778 143.077ZM218.829 143.525H226.293V144.549H218.829V143.525ZM226.391 147.082V148.081H218.725V147.082H220.41L220.062 145.147L221.336 145.022L221.586 147.082H223.531L223.78 145.022L225.039 145.147L224.701 147.082H226.386H226.391ZM237.538 136.711V147.644H236.315V136.711H237.538ZM233.876 136.883H235.072V147.342H233.876V141.912H232.18C231.941 142.521 231.556 143.088 231.031 143.608C230.516 144.133 229.783 144.721 228.836 145.366L227.999 144.544C228.898 143.951 229.58 143.426 230.048 142.958C230.521 142.49 230.854 142.006 231.046 141.496C231.239 140.981 231.333 140.347 231.333 139.598V138.823H228.337V137.814H232.555V139.572C232.555 140.071 232.524 140.497 232.466 140.856H233.876V136.872V136.883ZM243.202 141.356L242.515 140.393C243.529 140.019 244.325 139.665 244.897 139.332C245.469 138.989 245.88 138.651 246.119 138.308C246.359 137.965 246.483 137.585 246.483 137.158V136.836H247.758V137.221C247.758 137.98 247.524 138.62 247.061 139.145L247.16 139.182L247.586 138.88C247.753 138.765 247.909 138.703 248.049 138.703C248.163 138.703 248.283 138.734 248.398 138.802L251.555 140.352L250.858 141.314L247.415 139.53C247.279 139.462 247.16 139.431 247.05 139.431C246.936 139.431 246.811 139.462 246.676 139.53C246.327 139.832 245.875 140.123 245.313 140.404C244.762 140.685 244.06 141.002 243.202 141.35V141.356ZM247.669 143.124V144.123H250.665V148.055H244.2C243.935 148.055 243.732 147.982 243.586 147.841C243.451 147.701 243.389 147.498 243.389 147.228V144.117H246.411V143.119H241.917V142.058H252.153V143.119H247.669V143.124ZM249.433 145.137H244.637V147.046H249.433V145.137ZM266.555 140.331V141.392H264.859V145.137H263.6V136.711H264.859V140.331H266.555ZM260.974 138.084H257.64V137.023H260.974V138.084ZM259.242 143.915C258.711 143.915 258.243 143.826 257.843 143.655C257.442 143.473 257.135 143.228 256.917 142.916C256.709 142.609 256.605 142.266 256.605 141.891C256.605 141.111 256.948 140.565 257.64 140.258V140.185H255.866V139.15H262.581V140.185H260.833V140.258C261.182 140.414 261.447 140.638 261.619 140.919C261.796 141.194 261.879 141.517 261.879 141.891C261.879 142.266 261.77 142.609 261.556 142.916C261.338 143.223 261.031 143.467 260.631 143.655C260.23 143.831 259.767 143.915 259.232 143.915H259.242ZM259.138 142.854H259.336C259.736 142.854 260.064 142.739 260.324 142.516C260.584 142.292 260.709 141.985 260.709 141.59C260.709 141.194 260.579 140.893 260.324 140.664C260.074 140.44 259.746 140.326 259.336 140.326H259.138C258.737 140.326 258.41 140.44 258.15 140.664C257.9 140.888 257.775 141.194 257.775 141.59C257.775 141.985 257.9 142.287 258.15 142.516C258.41 142.739 258.737 142.854 259.138 142.854ZM259.164 146.931H265.119V147.966H258.717C258.451 147.966 258.248 147.893 258.103 147.753C257.968 147.613 257.905 147.41 257.905 147.139V144.757H259.164V146.931ZM278.263 140.732H276.052V139.681H278.263V136.711H279.521V144.96H278.263V140.726V140.732ZM275.854 143.015H270.622V137.372H271.844V139.192H274.617V137.356H275.854V143.01V143.015ZM274.617 140.217H271.844V141.99H274.617V140.217ZM279.75 146.848V147.883H273.259C272.994 147.883 272.791 147.81 272.645 147.67C272.51 147.529 272.448 147.327 272.448 147.056V144.175H273.706V146.848H279.75ZM293.58 136.711V147.644H292.321V136.711H293.58ZM285.378 141.928L284.441 141.106C285.451 140.471 286.158 139.899 286.564 139.384C286.969 138.859 287.177 138.287 287.177 137.663V137.127H288.436V137.751C288.436 138.391 288.28 138.984 287.963 139.525L288.035 139.577L288.337 139.338C288.452 139.239 288.576 139.187 288.701 139.187C288.816 139.187 288.93 139.228 289.039 139.312L291.109 140.872L290.173 141.735L288.025 139.988C287.957 139.936 287.89 139.915 287.827 139.915C287.77 139.915 287.708 139.941 287.64 139.988C287.401 140.295 287.094 140.601 286.73 140.914C286.371 141.22 285.924 141.564 285.383 141.938L285.378 141.928ZM291.655 143.374C290.74 143.514 289.669 143.623 288.446 143.696V147.54H287.198V143.759C286.132 143.8 285.154 143.821 284.265 143.821L284.15 142.76C285.591 142.76 286.964 142.729 288.27 142.672C289.575 142.604 290.667 142.505 291.541 142.37L291.655 143.368V143.374ZM122.863 155.316H116.486V154.244H124.111V155.154C124.111 157.027 123.929 158.806 123.56 160.485L122.337 160.288C122.681 158.733 122.852 157.074 122.863 155.321V155.316ZM125.432 162.015V163.076H115.196V162.015H119.014V158.171H120.272V162.015H125.427H125.432ZM127.689 161.266C127.996 161.266 128.225 161.344 128.376 161.505C128.527 161.661 128.6 161.869 128.6 162.119V162.316C128.6 162.722 128.485 163.148 128.261 163.591C128.043 164.038 127.752 164.418 127.377 164.724H126.368C126.633 164.459 126.857 164.199 127.029 163.949C127.206 163.7 127.336 163.419 127.429 163.112C127.211 163.07 127.05 162.977 126.94 162.836C126.831 162.686 126.779 162.514 126.779 162.311V162.113C126.779 161.864 126.852 161.661 127.003 161.5C127.154 161.344 127.382 161.26 127.689 161.26V161.266ZM142.325 153.355V164.288H141.067V157.672H137.92V156.621H141.067V153.35H142.325V153.355ZM139.439 159.945L139.6 160.98C138.284 161.245 136.661 161.38 134.732 161.38H133.494V154.228H134.752V160.319C136.568 160.319 138.128 160.194 139.434 159.945H139.439ZM154.59 156.938H152.894V159.461H151.635V153.355H152.894V155.877H154.59V156.938ZM150.533 158.707C149.16 158.972 147.526 159.107 145.628 159.107H144.406V153.927H149.451V154.988H145.67V158.083C147.542 158.083 149.113 157.963 150.387 157.718L150.538 158.707H150.533ZM151.641 160.095H152.889V164.74H146.783C146.517 164.74 146.315 164.667 146.169 164.527C146.034 164.386 145.971 164.183 145.971 163.913V160.095H147.22V161.333H151.641V160.095ZM151.641 162.389H147.22V163.663H151.641V162.389ZM164.857 153.355V164.288H163.634V153.355H164.857ZM161.2 153.526H162.397V163.986H161.2V158.556H159.505C159.265 159.164 158.881 159.731 158.355 160.251C157.84 160.777 157.107 161.364 156.16 162.009L155.323 161.188C156.223 160.595 156.904 160.069 157.372 159.601C157.846 159.133 158.178 158.649 158.371 158.14C158.563 157.625 158.657 156.99 158.657 156.241V155.466H155.661V154.457H159.879V156.215C159.879 156.715 159.848 157.141 159.791 157.5H161.2V153.516V153.526ZM179.8 155.752V156.813H178.104V159.06H176.845V153.355H178.104V155.752H179.8ZM174.791 158.686H169.548V153.807H174.791V158.686ZM173.543 154.827H170.796V157.661H173.543V154.827ZM172.357 163.726H178.374V164.813H171.894C171.629 164.813 171.426 164.74 171.28 164.6C171.145 164.459 171.082 164.256 171.082 163.986V161.713H176.825V160.766H171.01V159.695H178.099V162.764H172.357V163.726ZM190.067 153.355V164.288H188.855V158.696H187.607V163.991H186.395V153.532H187.607V157.661H188.855V153.355H190.067ZM184.798 155.227H181.516V154.202H184.798V155.227ZM180.278 156.361H185.885V157.36H184.538V157.422C185.146 157.781 185.448 158.431 185.448 159.383C185.448 160.163 185.23 160.782 184.798 161.229C184.371 161.671 183.81 161.89 183.113 161.89C182.416 161.89 181.838 161.671 181.417 161.229C180.991 160.782 180.783 160.163 180.783 159.383C180.783 158.441 181.084 157.791 181.682 157.438V157.365H180.283V156.366L180.278 156.361ZM184.262 158.832C184.262 158.405 184.158 158.077 183.95 157.843C183.752 157.609 183.472 157.495 183.113 157.495C182.754 157.495 182.473 157.609 182.265 157.843C182.067 158.077 181.963 158.405 181.963 158.832V159.528C181.963 159.945 182.067 160.272 182.275 160.517C182.494 160.751 182.769 160.865 183.113 160.865C183.456 160.865 183.726 160.751 183.935 160.517C184.153 160.277 184.257 159.945 184.257 159.528V158.832H184.262ZM202.055 158.795H200.443V164.288H199.195V153.355H200.443V157.734H202.055V158.795ZM198.409 160.766L198.524 161.775C197.634 161.916 196.547 162.025 195.268 162.098C193.994 162.171 192.693 162.212 191.362 162.212L191.247 161.151C192.34 161.151 193.312 161.136 194.17 161.099V159.138H191.996V154.031H193.219V155.555H196.303V154.02H197.525V159.138H195.393V161.037C196.651 160.969 197.655 160.881 198.415 160.761L198.409 160.766ZM193.219 158.124H196.303V156.6H193.219V158.124ZM203.985 163.154C203.678 163.154 203.449 163.076 203.298 162.914C203.148 162.748 203.075 162.545 203.075 162.301V162.113C203.075 161.874 203.148 161.671 203.298 161.515C203.449 161.349 203.678 161.266 203.985 161.266C204.292 161.266 204.521 161.349 204.671 161.515C204.822 161.671 204.895 161.874 204.895 162.113V162.301C204.895 162.54 204.822 162.748 204.671 162.914C204.521 163.07 204.292 163.154 203.985 163.154ZM217.336 153.355H218.611V164.288H217.336V153.355ZM209.472 157.786C209.472 156.548 209.743 155.612 210.284 154.988C210.835 154.353 211.563 154.041 212.468 154.041C213.373 154.041 214.086 154.359 214.626 154.988C215.178 155.612 215.448 156.543 215.448 157.786C215.448 159.029 215.173 159.95 214.626 160.584C214.086 161.219 213.368 161.531 212.468 161.531C211.568 161.531 210.845 161.214 210.294 160.584C209.743 159.95 209.472 159.019 209.472 157.786ZM214.101 158.395V157.172C214.101 156.496 213.95 155.986 213.654 155.638C213.352 155.279 212.957 155.102 212.468 155.102C211.979 155.102 211.568 155.279 211.272 155.638C210.97 155.986 210.824 156.501 210.824 157.172V158.395C210.824 159.06 210.975 159.57 211.272 159.929C211.573 160.288 211.969 160.465 212.468 160.465C212.967 160.465 213.352 160.288 213.654 159.929C213.956 159.57 214.101 159.06 214.101 158.395ZM228.467 153.355H229.741V164.288H228.467V153.355ZM220.899 154.213H226.267V161.266H220.899V154.213ZM225.018 160.231V155.248H222.147V160.231H225.018ZM244.965 155.752V156.813H243.269V159.086H242.011V153.355H243.269V155.752H244.965ZM235.228 159.206L234.318 158.405C235.259 157.729 235.93 157.136 236.326 156.621C236.731 156.096 236.95 155.529 236.976 154.91H234.677V153.885H240.507V154.91H238.224C238.214 155.544 238.063 156.122 237.761 156.647L237.834 156.699L238.084 156.512C238.198 156.429 238.323 156.387 238.448 156.387C238.573 156.387 238.687 156.429 238.796 156.512L240.908 158.187L239.982 158.998L237.798 157.198C237.74 157.141 237.668 157.11 237.584 157.11C237.512 157.11 237.449 157.136 237.397 157.183C237.163 157.484 236.877 157.791 236.534 158.109C236.19 158.415 235.754 158.785 235.223 159.206H235.228ZM237.501 163.825H243.545V164.813H237.064C236.799 164.813 236.596 164.74 236.45 164.6C236.315 164.459 236.253 164.256 236.253 163.986V161.801H242.021V160.688H236.18V159.716H243.269V162.701H237.501V163.825ZM256.095 158.795H254.41V164.298H253.151V153.365H254.41V157.734H256.095V158.795ZM250.702 155.04H247.056V153.968H250.702V155.04ZM245.448 156.273H252.127V157.308H250.442V157.38C251.149 157.77 251.503 158.467 251.503 159.466C251.503 159.997 251.388 160.465 251.154 160.865C250.93 161.255 250.613 161.562 250.208 161.775C249.807 161.994 249.355 162.098 248.845 162.098C248.335 162.098 247.877 161.989 247.472 161.775C247.071 161.557 246.754 161.255 246.525 160.865C246.291 160.465 246.177 160.002 246.177 159.466C246.177 158.467 246.53 157.776 247.238 157.396V157.308H245.454V156.273H245.448ZM250.28 158.956C250.28 158.473 250.15 158.103 249.895 157.843C249.635 157.578 249.287 157.443 248.845 157.443C248.403 157.443 248.049 157.578 247.784 157.843C247.524 158.109 247.399 158.478 247.399 158.956V159.528C247.399 160.002 247.534 160.371 247.799 160.642C248.065 160.907 248.413 161.042 248.85 161.042C249.287 161.042 249.63 160.907 249.885 160.642C250.15 160.376 250.286 160.007 250.286 159.528V158.956H250.28ZM264.329 155.316H257.952V154.244H265.577V155.154C265.577 157.027 265.395 158.806 265.026 160.485L263.803 160.288C264.147 158.733 264.318 157.074 264.329 155.321V155.316ZM266.903 162.015V163.076H256.667V162.015H260.485V158.171H261.744V162.015H266.898H266.903ZM280.197 159.658H278.939V153.355H280.197V159.658ZM271.059 156.548C271.059 155.992 271.184 155.503 271.433 155.087C271.683 154.671 272.026 154.348 272.468 154.124C272.916 153.901 273.425 153.786 273.992 153.786C274.559 153.786 275.064 153.901 275.501 154.124C275.948 154.348 276.302 154.671 276.551 155.087C276.801 155.503 276.926 155.992 276.926 156.548C276.926 157.105 276.801 157.594 276.551 158.01C276.302 158.426 275.953 158.748 275.501 158.972C275.059 159.196 274.554 159.31 273.992 159.31C273.431 159.31 272.921 159.196 272.468 158.972C272.026 158.748 271.683 158.426 271.433 158.01C271.184 157.594 271.059 157.105 271.059 156.548ZM272.396 156.787C272.396 157.245 272.541 157.609 272.833 157.885C273.124 158.15 273.509 158.285 273.992 158.285C274.476 158.285 274.861 158.15 275.152 157.885C275.443 157.609 275.589 157.245 275.589 156.787V156.314C275.589 155.856 275.443 155.492 275.152 155.227C274.861 154.951 274.476 154.816 273.992 154.816C273.509 154.816 273.124 154.951 272.833 155.227C272.541 155.492 272.396 155.856 272.396 156.314V156.787ZM281.269 163.949L280.457 164.797L278.72 163.076C278.663 163.018 278.601 162.987 278.533 162.987C278.502 162.987 278.46 162.998 278.419 163.024C278.221 163.299 277.961 163.58 277.644 163.871C277.337 164.173 276.947 164.511 276.468 164.896L274.596 163.013C274.538 162.956 274.481 162.925 274.419 162.925C274.377 162.925 274.325 162.946 274.268 162.987C273.883 163.528 273.269 164.152 272.422 164.86L271.61 164.022C272.39 163.424 272.952 162.862 273.285 162.337C273.618 161.812 273.784 161.24 273.784 160.616V160.168H274.981V160.657C274.981 161.338 274.845 161.942 274.58 162.467L274.632 162.504L274.845 162.342C274.944 162.269 275.048 162.228 275.157 162.228C275.282 162.228 275.386 162.269 275.469 162.353L276.557 163.403C277.056 162.977 277.41 162.561 277.618 162.145C277.826 161.718 277.93 161.219 277.93 160.647V160.173H279.115V160.709C279.115 161.401 278.98 162.009 278.715 162.53L278.767 162.556L278.98 162.394C279.089 162.311 279.199 162.269 279.318 162.269C279.438 162.269 279.537 162.306 279.62 162.384L281.269 163.955V163.949ZM291.302 153.355V164.288H290.043V158.181H287.994C287.937 159.289 287.64 160.127 287.11 160.688C286.584 161.245 285.903 161.526 285.06 161.526C284.171 161.526 283.453 161.208 282.912 160.579C282.371 159.945 282.101 159.014 282.101 157.781C282.101 156.548 282.366 155.607 282.902 154.983C283.443 154.348 284.161 154.036 285.06 154.036C285.867 154.036 286.527 154.296 287.047 154.811C287.573 155.326 287.885 156.096 287.983 157.12H290.043V153.35H291.302V153.355ZM286.683 157.162C286.683 156.496 286.532 155.986 286.236 155.638C285.945 155.279 285.555 155.102 285.06 155.102C284.566 155.102 284.176 155.279 283.875 155.638C283.583 155.986 283.438 156.496 283.438 157.162V158.41C283.438 159.076 283.583 159.586 283.875 159.945C284.176 160.293 284.572 160.47 285.06 160.47C285.549 160.47 285.945 160.293 286.236 159.945C286.538 159.586 286.683 159.076 286.683 158.41V157.162ZM294.1 160.506L293.663 156.772V154.286H295.135V156.772L294.724 160.506H294.1ZM294.412 163.154C294.095 163.154 293.861 163.081 293.715 162.93C293.575 162.774 293.502 162.571 293.502 162.332V162.119C293.502 161.879 293.575 161.682 293.715 161.531C293.866 161.375 294.1 161.292 294.412 161.292C294.724 161.292 294.958 161.37 295.099 161.531C295.249 161.682 295.322 161.874 295.322 162.119V162.332C295.322 162.571 295.249 162.774 295.099 162.93C294.958 163.081 294.729 163.154 294.412 163.154Z" fill="#292A2D"/>
</g>
</g>
<defs>
<filter id="filter0_dd_1393_8744" x="0" y="0.361816" width="351" height="316" filterUnits="userSpaceOnUse" color-interpolation-filters="sRGB">
<feFlood flood-opacity="0" result="BackgroundImageFix"/>
<feColorMatrix in="SourceAlpha" type="matrix" values="0 0 0 0 0 0 0 0 0 0 0 0 0 0 0 0 0 0 127 0" result="hardAlpha"/>
<feOffset dy="4"/>
<feGaussianBlur stdDeviation="4"/>
<feComposite in2="hardAlpha" operator="out"/>
<feColorMatrix type="matrix" values="0 0 0 0 0 0 0 0 0 0 0 0 0 0 0 0 0 0 0.08 0"/>
<feBlend mode="normal" in2="BackgroundImageFix" result="effect1_dropShadow_1393_8744"/>
<feColorMatrix in="SourceAlpha" type="matrix" values="0 0 0 0 0 0 0 0 0 0 0 0 0 0 0 0 0 0 127 0" result="hardAlpha"/>
<feOffset/>
<feGaussianBlur stdDeviation="1"/>
<feComposite in2="hardAlpha" operator="out"/>
<feColorMatrix type="matrix" values="0 0 0 0 0 0 0 0 0 0 0 0 0 0 0 0 0 0 0.05 0"/>
<feBlend mode="normal" in2="effect1_dropShadow_1393_8744" result="effect2_dropShadow_1393_8744"/>
<feBlend mode="normal" in="SourceGraphic" in2="effect2_dropShadow_1393_8744" result="shape"/>
</filter>
<radialGradient id="paint0_radial_1393_8744" cx="0" cy="0" r="1" gradientUnits="userSpaceOnUse" gradientTransform="translate(64.5961 207.25) scale(30.6282 27.8717)">
<stop stop-color="#ADA2D7"/>
<stop offset="0.37" stop-color="#B7ADDF"/>
<stop offset="1" stop-color="#D1CAF4"/>
</radialGradient>
<radialGradient id="paint1_radial_1393_8744" cx="0" cy="0" r="1" gradientUnits="userSpaceOnUse" gradientTransform="translate(64.3983 183.456) scale(20.1306 20.1306)">
<stop stop-color="white" stop-opacity="0.6"/>
<stop offset="0.42" stop-color="white" stop-opacity="0.33"/>
<stop offset="0.81" stop-color="white" stop-opacity="0.09"/>
<stop offset="1" stop-color="white" stop-opacity="0"/>
</radialGradient>
<radialGradient id="paint2_radial_1393_8744" cx="0" cy="0" r="1" gradientUnits="userSpaceOnUse" gradientTransform="translate(64.3041 199.599) scale(7.5014 3.7507)">
<stop stop-color="white" stop-opacity="0.6"/>
<stop offset="0.09" stop-color="white" stop-opacity="0.51"/>
<stop offset="0.31" stop-color="white" stop-opacity="0.33"/>
<stop offset="0.51" stop-color="white" stop-opacity="0.19"/>
<stop offset="0.7" stop-color="white" stop-opacity="0.08"/>
<stop offset="0.87" stop-color="white" stop-opacity="0.02"/>
<stop offset="1" stop-color="white" stop-opacity="0"/>
</radialGradient>
<clipPath id="clip0_1393_8744">
<rect width="64.916" height="78.2029" fill="white" transform="translate(31.8458 156.978)"/>
</clipPath>
<clipPath id="clip1_1393_8744">
<rect width="214.807" height="104.023" fill="white" transform="translate(104.347 73.5427)"/>
</clipPath>
</defs>
</svg>
