<svg width="335" height="300" viewBox="0 0 335 300" fill="none" xmlns="http://www.w3.org/2000/svg">
<g clip-path="url(#clip0_1662_4415)">
<rect width="335" height="300" rx="8" fill="white"/>
<g clip-path="url(#clip1_1662_4415)">
<path d="M333.482 -55.0317H-1.00015V394.999H333.482V-55.0317Z" fill="white"/>
<path d="M53.2304 -26.4583C54.0956 -25.9493 55.157 -25.7796 55.8082 -24.9403C56.825 -23.6277 57.1372 -22.208 56.5485 -20.6186C56.2363 -19.7881 55.9152 -18.9577 55.6744 -18.1005C55.3443 -16.9308 56.049 -16.145 57.1996 -16.5647C60.2858 -17.7076 63.4789 -17.6362 66.6275 -17.4041C72.4966 -16.9844 77.9196 -15.1985 82.1653 -10.9393C86.1791 -6.92119 87.9006 -2.10835 87.1157 3.64205C86.3664 9.18707 84.0117 13.8035 79.8641 17.5269C77.5361 19.6164 74.7621 20.8218 71.6581 21.2415C68.8039 21.6254 65.9407 21.7951 63.0508 21.7594C53.8459 21.6522 45.5418 13.9999 44.6052 4.85642C44.0166 -0.858264 45.524 -5.94791 48.9045 -10.5107C49.8142 -11.734 50.9024 -12.8323 52.1066 -13.8235C52.7934 -14.386 53.6407 -15.1718 53.3107 -16.029C52.9896 -16.8237 51.9371 -16.9755 50.9649 -17.0022C49.1899 -17.038 47.3703 -18.4845 46.9154 -20.0471C46.407 -21.7972 47.2008 -24.0742 48.6725 -25.1724C49.4575 -25.7618 50.3583 -26.11 51.2592 -26.4583H53.2215H53.2304Z" fill="#CCD5DD"/>
<path d="M53.1323 7.90199C53.4712 7.91092 53.6764 8.13415 53.7388 8.41096C53.8458 8.86634 53.8637 9.34851 53.9529 9.81283C54.3453 11.938 53.9885 14.1971 55.2997 16.1704C55.7814 16.8848 55.3621 17.6705 54.6218 18.1081C53.8191 18.5813 52.9628 18.5545 52.2136 17.983C51.6516 17.5544 51.2146 16.8133 51.6784 16.2419C53.0431 14.59 52.3652 12.8041 52.2314 11.054C52.169 10.1968 52.0352 9.33065 52.2849 8.50024C52.4009 8.12521 52.6863 7.8752 53.1323 7.90199Z" fill="black"/>
<path d="M85.3583 12.1513C85.4386 13.7497 85.1442 15.3837 86.1789 16.857C86.5803 17.4285 86.3751 18.1785 85.7865 18.6607C85.2156 19.125 84.5645 19.1518 83.9223 18.7857C83.3871 18.4732 82.9857 17.991 83.173 17.3838C83.8598 15.1337 83.3157 12.8121 83.6279 10.5441C83.7171 9.88333 83.8598 9.2315 84.0828 8.60646C84.1542 8.41001 84.5377 8.19571 84.7429 8.21357C84.9659 8.24036 85.3226 8.53501 85.3316 8.72253C85.3851 9.86546 85.3583 11.0084 85.3583 12.1513Z" fill="black"/>
<path d="M64.3977 23.5364C63.3274 23.2417 61.6773 22.8131 60.0361 22.3309C59.4831 22.1702 58.9301 21.8309 59.1798 21.1076C59.3671 20.5629 59.9291 20.5719 60.384 20.6522C61.044 20.7594 61.6773 20.9737 62.3195 21.1076C62.9974 21.2505 63.6217 21.2594 64.0856 20.5808C64.6832 19.7057 65.4681 19.1789 66.476 19.9379C67.2074 20.4915 67.5017 21.313 67.2431 22.2238C66.922 23.3488 66.0389 23.5988 64.3977 23.5274V23.5364Z" fill="black"/>
<path d="M73.1301 23.0639C71.9884 22.8228 70.5881 22.5549 69.2055 22.2156C68.8398 22.1263 68.5812 21.7334 68.7506 21.3227C68.8488 21.0994 69.1253 20.7959 69.3215 20.7869C70.8289 20.7423 72.1757 20.6441 73.4423 19.4297C74.1826 18.7154 74.9497 19.7333 75.1995 20.6351C75.476 21.6263 75.4314 22.5638 74.254 22.9746C73.9953 23.0639 73.6831 23.0282 73.139 23.0728L73.1301 23.0639Z" fill="black"/>
<path d="M67.3321 9.17898H65.2003C64.6562 9.17898 63.9338 9.35755 63.8981 8.52714C63.8803 8.01817 64.46 7.69673 64.906 7.66994C66.7969 7.52708 68.6968 7.44671 70.5966 7.3842C70.9623 7.37527 71.3816 7.50922 71.4529 7.96461C71.56 8.60751 71.0515 8.79502 70.6056 8.85753C69.3836 9.01825 68.1527 9.09862 67.3321 9.17898Z" fill="black"/>
<path d="M75.5116 2.89296C75.7969 2.89296 76.0822 2.88403 76.3586 2.88403C77.0629 2.88403 77.7494 2.98225 77.7405 3.87517C77.7405 4.41985 77.2502 4.65202 76.7598 4.71452C76.0287 4.80381 75.4313 4.61629 75.3868 3.7323C75.3689 3.4555 75.467 3.17869 75.5116 2.89296Z" fill="white"/>
<path d="M64.5309 3.49939C65.1015 3.54404 65.5294 3.78512 65.5651 4.30301C65.6186 5.19593 64.9232 5.32987 64.2545 5.32094C63.7463 5.31201 63.354 4.99056 63.4342 4.44588C63.5145 3.82084 63.9514 3.49938 64.5309 3.50831V3.49939Z" fill="white"/>
<path d="M67.0908 1.57104C67.5722 1.65141 67.7149 1.97286 67.6614 2.3836C67.5722 2.99079 67.2691 3.45511 66.5737 3.40153C66.1368 3.36581 65.9317 3.00865 65.9852 2.60683C66.0655 1.96393 66.4845 1.64248 67.0997 1.57104H67.0908Z" fill="black"/>
<path d="M75.5195 2.89193C75.252 2.85621 74.9667 2.883 74.7082 2.7937C74.2445 2.62405 73.9236 2.30261 74.1286 1.75793C74.2624 1.40076 74.5298 1.12396 74.9489 1.18646C75.466 1.2579 75.7691 1.55256 75.7067 2.10617C75.6711 2.37404 75.5819 2.63299 75.5106 2.90086L75.5195 2.89193Z" fill="black"/>
<path d="M60.3928 39.5205C60.3928 40.967 62.3729 42.2082 64.808 42.4761L64.3442 43.4761C62.3016 43.2172 60.5088 42.3421 59.706 41.0652C58.9033 42.3511 57.1104 43.2172 55.0768 43.4761L54.613 42.4761C57.048 42.2082 59.0281 40.967 59.0281 39.5205V39.1008H60.3839V39.5205H60.3928ZM65.4056 44.1637V45.253H54.0154V44.1637H65.4056ZM63.9695 46.271V49.2444H56.6912V50.3784H64.3174V51.3963H55.3979V48.2979H62.6584V47.28H55.3801V46.2799H63.9695V46.271ZM77.7413 45.1459V46.2174H66.3511V45.1459H77.7413ZM76.6709 39.4491V40.5384H74.8603V42.9493H76.6174V44.0208H67.4571V42.9493H69.2231V40.5384H67.3946V39.4491H76.662H76.6709ZM76.3498 47.3871V51.3606H67.7247V47.3871H76.3498ZM69.0358 48.4229V50.2891H75.0743V48.4229H69.0358ZM70.5343 42.9493H73.5313V40.5384H70.5343V42.9493Z" fill="#171719"/>
<mask id="mask0_1662_4415" style="mask-type:luminance" maskUnits="userSpaceOnUse" x="139" y="-27" width="50" height="51">
<path d="M188.986 -26.459H139.036V23.5445H188.986V-26.459Z" fill="white"/>
</mask>
<g mask="url(#mask0_1662_4415)">
<path d="M152.906 -23.682C158.642 -23.6463 164.314 -24.3249 169.969 -25.2178C172.262 -25.575 174.536 -25.8161 176.873 -25.1375C179.763 -24.2981 181.101 -22.4408 181.565 -19.5924C182.278 -15.3064 182.51 -10.9758 182.929 -6.65405C183.215 -3.80564 183.777 -1.00188 184.553 1.7751C185.391 4.78424 186.256 7.8291 185.302 10.99C184.33 14.2224 182.483 16.6065 179.121 17.6958C175.33 18.9281 171.521 19.4638 167.508 19.0709C165.171 18.8388 162.78 18.9549 160.399 19.1602C158.276 19.3477 156.108 19.1424 153.968 18.9549C151.212 18.7138 148.438 18.5263 145.833 17.4458C142.096 15.8921 140.027 13.0527 139.215 9.12383C138.546 5.9004 139.795 2.92698 140.205 -0.153593C140.82 -4.81463 141.516 -9.46674 140.892 -14.1903C140.33 -18.5477 144.852 -23.6463 149.267 -23.6909C150.48 -23.6999 151.693 -23.6909 152.906 -23.6909V-23.682Z" fill="#F0ECAE"/>
<path d="M145.165 -1.61824C145.414 -1.62717 145.905 -1.49324 146.119 -1.10928C146.717 -0.0377778 147.689 0.533685 148.67 1.13194C148.947 1.3016 149.187 1.64983 148.973 2.05165C148.786 2.40881 148.456 2.61419 148.099 2.48918C146.77 2.00701 145.423 1.54269 144.157 0.926573C143.577 0.640839 143.416 -0.0645583 143.711 -0.725318C143.943 -1.24321 144.344 -1.57359 145.156 -1.61824H145.165Z" fill="black"/>
<path d="M160.48 3.83733C162.567 1.73004 166.554 1.45324 168.204 3.03371C168.391 3.2123 168.57 3.42659 168.445 3.73019C168.329 3.99806 168.124 4.20344 167.847 4.12307C166.643 3.76591 165.421 3.67661 164.172 3.63197C163.039 3.59625 161.951 4.20343 160.48 3.83733Z" fill="black"/>
<path d="M175 20.8123C174.964 21.5177 174.572 21.8659 174.046 22.0534C173.296 22.3124 172.431 22.7053 171.816 21.9731C171.022 21.0176 170.451 19.8926 170.326 18.6246C170.3 18.4014 170.469 18.0621 170.656 17.946C170.835 17.8299 171.307 17.8389 171.37 17.9549C172.11 19.2407 173.189 19.9819 174.643 20.2497C174.813 20.2765 174.911 20.6605 175.009 20.8212L175 20.8123Z" fill="black"/>
<path d="M158.213 21.0893C158.32 21.7858 158.053 22.3394 157.375 22.518C156.501 22.7501 155.582 22.7769 154.949 21.9733C154.467 21.3661 154.708 20.7678 155.341 20.4285C156.091 20.0267 156.18 19.3749 156.233 18.6516C156.269 18.1784 156.51 17.7676 157.045 17.8123C157.553 17.8569 157.75 18.2945 157.83 18.7409C157.973 19.5178 158.089 20.3035 158.213 21.0893Z" fill="black"/>
</g>
<path d="M154.94 39.2163V40.3057H160.72V39.2163H162.049V43.3595H153.629V39.2163H154.94ZM154.94 42.3505H160.72V41.279H154.94V42.3505ZM163.52 44.2613V45.3328H158.472V46.4043H162.084V49.3242H154.806V50.3689H162.432V51.3868H153.513V48.3688H160.773V47.3955H153.495V46.4043H157.143V45.3328H152.13V44.2613H163.512H163.52ZM170.273 40.2878V41.3058C170.273 42.5201 170.273 44.0292 169.898 46.1365L168.667 46.0115C168.828 45.1632 168.917 44.4042 168.97 43.7256L164.814 44.0738L164.644 43.0023L169.024 42.7702C169.042 42.2701 169.042 41.7969 169.042 41.3772H164.948V40.3057H170.273V40.2878ZM167.606 44.8328V47.4848C168.685 47.449 169.791 47.3776 170.719 47.2615L170.79 48.2348C168.765 48.6098 166.134 48.6366 164.502 48.6545L164.323 47.5562C164.912 47.5562 165.634 47.5562 166.401 47.5294V44.8417H167.615L167.606 44.8328ZM175.214 39.0199V51.5208H173.956V45.315H172.592V50.8779H171.352V39.2699H172.592V44.2078H173.956V39.0199H175.214Z" fill="#171719"/>
<mask id="mask1_1662_4415" style="mask-type:luminance" maskUnits="userSpaceOnUse" x="237" y="-27" width="51" height="51">
<path d="M287.1 -26.459H237.15V23.5445H287.1V-26.459Z" fill="white"/>
</mask>
<g mask="url(#mask1_1662_4415)">
<path d="M246.096 -3.922C245.989 -7.76155 246.185 -11.6011 246.81 -15.3871C247.657 -20.4946 250.779 -23.7627 255.604 -25.4592C259.797 -26.9325 263.998 -26.7897 267.994 -24.9324C272.873 -22.6554 275.513 -18.5302 276.53 -13.378C277.395 -9.02057 277.404 -4.60955 277.109 -0.171742C276.913 2.88204 276.503 5.88225 275.941 8.88246C274.888 14.5971 271.472 17.8474 265.773 18.517C261.679 18.9992 257.611 18.517 253.776 16.9009C251.296 15.8561 249.816 13.8203 248.674 11.4451C246.578 7.08768 246.025 2.48022 246.096 -2.27011C246.105 -2.81479 246.096 -3.36839 246.096 -3.922Z" fill="#E6B2C6"/>
<path d="M254.561 1.88171C254.909 1.89957 255.141 2.09601 255.283 2.39067C255.694 3.23001 256.068 4.09615 256.496 4.93549C257.094 6.09629 257.388 7.44459 258.762 8.09642C259.27 8.33751 259.458 8.93577 259.181 9.53402C258.842 10.2662 258.227 10.5609 257.46 10.4984C256.88 10.4537 256.238 10.1948 256.247 9.58759C256.3 7.33744 254.926 5.61411 254.222 3.64969C254.097 3.28359 253.981 2.89963 253.963 2.51568C253.945 2.17637 254.213 1.971 254.543 1.89064L254.561 1.88171Z" fill="black"/>
<path d="M267.405 0.578629C267.45 2.11445 266.611 3.25739 265.434 3.25739C264.292 3.25739 263.311 2.0698 263.276 0.658988C263.249 -0.617885 264.319 -1.85904 265.497 -1.90368C266.549 -1.94833 267.37 -0.876833 267.405 0.587553V0.578629Z" fill="black"/>
<path d="M275.094 2.26548C274.773 4.47099 274.006 6.67651 273.167 8.85523C272.873 9.63207 272.248 9.89995 271.463 9.54278C270.759 9.23026 270.34 7.98909 270.955 7.57835C273.015 6.17647 273.114 3.95311 273.702 1.90832C273.836 1.46186 274.059 0.970757 274.666 1.1672C275.103 1.30114 275.067 1.77437 275.103 2.27441L275.094 2.26548Z" fill="black"/>
<path d="M261.572 23.5353C260.145 23.571 259.824 23.1424 260.466 21.9012C260.823 21.2137 260.617 20.7315 260.394 20.16C260.136 19.5082 259.868 18.8653 259.672 18.1956C259.636 18.0527 259.859 17.7849 260.02 17.642C260.225 17.4634 260.51 17.5349 260.653 17.7045C261.813 19.1153 262.535 20.7761 262.936 22.5084C263.142 23.4103 262.152 23.4817 261.563 23.5353H261.572Z" fill="black"/>
<path d="M267.664 18.8648C267.619 19.9095 267.111 20.9721 268.056 21.9543C268.618 22.5347 268.226 23.1151 267.539 23.4008C266.674 23.758 265.657 23.4008 265.675 22.6597C265.711 21.0346 265.907 19.4095 266.513 17.8737C266.576 17.7129 266.888 17.5433 267.075 17.5522C267.396 17.5701 267.628 17.8201 267.673 18.1683C267.7 18.4005 267.673 18.6327 267.673 18.8648H267.664Z" fill="black"/>
<path d="M265.782 0.765307C265.737 1.05997 265.648 1.4082 265.282 1.31891C264.961 1.23855 264.926 0.872457 264.943 0.568864C264.961 0.336705 265.077 0.0688258 265.327 0.104543C265.675 0.140259 265.755 0.461715 265.773 0.765307H265.782Z" fill="#E6B2C6"/>
</g>
<path d="M253.759 39.6365C255.668 39.6365 257.05 40.8241 257.059 42.5385C257.041 44.2797 255.668 45.4673 253.759 45.4494C251.85 45.4673 250.441 44.2797 250.459 42.5385C250.441 40.8241 251.85 39.6365 253.759 39.6365ZM253.759 40.7348C252.591 40.7348 251.734 41.4581 251.752 42.5385C251.734 43.6279 252.591 44.3511 253.759 44.3511C254.928 44.3511 255.766 43.6279 255.784 42.5385C255.766 41.467 254.936 40.7348 253.759 40.7348ZM260.065 39.0204V41.8063H261.876V42.8957H260.065V45.7798H258.745V39.0115H260.065V39.0204ZM253.376 46.3691V47.8067H258.745V46.3691H260.065V51.3605H252.064V46.3691H253.376ZM253.376 50.289H258.745V48.8425H253.376V50.289ZM272.401 39.0204V42.217H274.211V43.3064H272.401V46.5566H271.081V39.0204H272.401ZM272.401 47.1817V51.5213H271.081V48.2532H264.15V47.1817H272.401ZM264.373 39.7972V41.6634H267.647V39.7972H268.958V45.753H263.08V39.7972H264.373ZM264.373 44.6994H267.647V42.7171H264.373V44.6994Z" fill="#171719"/>
<path d="M65.7268 121.401C64.2462 121.544 62.6139 121.401 61.0619 120.687C60.5 120.428 59.9737 120.544 59.4296 120.758C58.2077 121.231 56.9589 121.455 55.6478 121.419C53.1325 121.356 51.1969 119.669 50.9204 117.115C50.8401 116.347 50.519 115.945 49.8858 115.633C47.4686 114.418 45.8541 112.499 45.3011 109.829C45.0157 108.48 43.9543 107.65 43.5261 106.409C43.1694 105.409 42.991 104.409 43.1783 103.427C43.3388 102.596 43.098 102.043 42.6431 101.435C40.7789 98.9441 40.9395 95.5957 43.7313 93.4616C44.1059 93.1759 44.4805 92.8633 44.6232 92.3365C45.203 90.2114 46.7193 88.8273 48.3605 87.5326C49.3506 86.7558 50.189 85.8093 51.0096 84.8449C51.2772 84.5324 51.518 84.2199 51.8748 84.0145C53.4982 83.0859 55.0858 82.1572 56.4594 80.8089C57.4495 79.8357 58.9391 79.9607 60.277 80.0321C61.1065 80.0767 61.7933 79.8803 62.498 79.3446C64.7903 77.5944 67.0915 77.5944 69.3927 79.3624C70.0617 79.8803 70.7039 80.1035 71.4977 80.0232C73.799 79.791 75.6988 80.5143 77.0992 82.4251C77.233 82.6126 77.4649 82.7912 77.679 82.8359C79.4004 83.2198 80.551 84.3895 81.6214 85.6932C82.4241 86.6665 83.4321 87.4165 84.3864 88.238C86.7412 90.256 87.8472 93.2026 89.8006 95.5599C91.2634 97.3369 90.4963 99.5156 89.2833 101.346C88.864 101.989 88.4894 102.543 88.7035 103.444C89.0157 104.793 88.6946 106.186 87.9007 107.284C87.1247 108.364 86.7055 109.543 86.3041 110.775C85.6084 112.883 84.2081 114.436 82.2725 115.445C81.443 115.874 81.0059 116.338 80.9346 117.374C80.8008 119.419 78.7225 121.267 76.6889 121.383C75.3421 121.464 74.013 121.374 72.7643 120.838C71.9348 120.481 71.1677 120.463 70.3293 120.83C69.6336 121.133 68.9022 121.392 68.1083 121.383C67.3858 121.374 66.6544 121.383 65.7357 121.383L65.7268 121.401Z" fill="#AFC1BB"/>
<path d="M85.5727 95.6582C85.6084 96.6137 85.2962 97.462 84.8324 98.2745C84.5023 98.846 84.0207 99.0335 83.4677 98.7656C82.8165 98.4442 83.102 97.9263 83.3517 97.4798C83.7085 96.8548 84.0296 96.2029 84.0028 95.4797C83.9404 93.6135 82.3617 92.4348 80.5421 92.9259C79.6055 93.1849 79.1506 93.0063 79.2755 91.9705C79.4004 90.9079 78.8474 90.3454 77.9465 89.9793C77.3935 89.7561 76.787 89.4614 77.117 88.7113C77.447 87.9791 78.0446 88.3988 78.5263 88.5417C79.1328 88.7203 79.8196 89.0239 80.0693 89.5418C80.6491 90.7651 81.6392 91.1133 82.8255 91.4705C84.6451 92.0241 85.5816 93.6403 85.5727 95.6493V95.6582Z" fill="white"/>
<path d="M47.442 97.0503C47.3707 97.6218 47.6204 98.2021 47.8077 98.8004C47.9415 99.2201 47.8345 99.5772 47.4688 99.7737C47.0942 99.9791 46.7552 99.8094 46.4787 99.488C45.6314 98.5147 45.7384 95.4698 46.6749 94.2554C47.781 92.8179 49.4489 92.425 51.0098 93.2107C51.5093 93.4608 51.8929 93.7911 51.6699 94.3715C51.438 94.9876 50.885 94.8805 50.3855 94.7466C48.5124 94.2197 47.442 95.0234 47.442 97.0503Z" fill="white"/>
<path d="M72.0236 107.489C70.6856 107.007 69.3388 107.284 68.0365 108.007C67.8938 108.087 67.7154 108.15 67.5549 108.141C65.3696 108.025 63.1843 107.543 60.999 108.203C60.7582 108.275 60.3836 107.989 60.0982 107.82C59.7949 107.641 59.6343 107.328 59.6968 106.971C59.7592 106.596 60.0536 106.373 60.4103 106.435C62.3637 106.757 64.2814 105.15 66.2794 106.355C66.5648 106.534 67.1892 106.471 67.4835 106.275C69.2496 105.069 71.1851 105.614 73.0761 105.587C73.7093 105.578 74.3515 105.552 74.3515 106.355C74.3515 107.052 73.7272 107.293 73.1296 107.409C72.7995 107.471 72.4606 107.453 72.0236 107.48V107.489Z" fill="black"/>
<path d="M62.1234 116.615C60.4108 116.561 58.9034 115.981 57.8955 114.445C57.5655 113.945 57.3336 113.266 57.842 112.829C58.5288 112.248 58.7875 113.034 59.1532 113.445C61.1512 115.641 62.9261 115.561 64.8706 113.248C65.1828 112.873 65.5663 112.507 66.0034 112.302C66.9399 111.855 67.6357 112.347 68.0549 113.159C68.4295 113.882 68.4027 114.99 67.5732 115.052C65.8428 115.168 64.5852 116.472 62.9083 116.579C62.6586 116.597 62.4088 116.606 62.1056 116.624L62.1234 116.615Z" fill="black"/>
<path d="M74.4948 115.517C73.0855 115.472 71.8903 114.624 70.4096 114.749C69.4998 114.83 69.0895 113.544 69.5444 112.606C69.9993 111.669 70.9626 111.311 71.8189 111.785C72.033 111.901 72.2025 112.097 72.3719 112.267C74.4323 114.303 74.5215 114.312 76.8674 112.695C77.0725 112.561 77.242 112.365 77.4471 112.231C77.8039 111.999 78.2053 111.82 78.5532 112.195C78.901 112.561 78.7761 112.99 78.5086 113.32C77.4739 114.606 76.1092 115.312 74.4858 115.508L74.4948 115.517Z" fill="black"/>
<path d="M64.9507 127.106C63.9695 127.213 63.1043 126.731 62.7921 125.463C62.4621 124.168 61.9716 122.909 61.927 121.552C61.918 121.221 62.1143 120.891 62.48 120.802C62.8546 120.721 63.1222 120.936 63.247 121.275C63.4433 121.82 63.6306 122.382 63.7644 122.945C63.9963 123.972 64.4779 124.552 65.6464 124.49C66.5205 124.436 67.466 124.722 67.35 125.82C67.2251 126.99 66.1726 127.061 64.9596 127.097L64.9507 127.106Z" fill="black"/>
<path d="M73.7631 122.079C73.5758 123.034 73.3885 124.266 73.0852 125.472C72.889 126.266 72.2824 126.704 71.4619 126.793C70.6145 126.883 69.7047 126.936 69.3479 125.972C68.9733 124.945 69.7315 124.364 70.5699 124.168C71.5421 123.936 71.9435 123.364 72.0862 122.463C72.1397 122.132 72.2022 121.802 72.2914 121.489C72.4073 121.079 72.6392 120.659 73.103 120.686C73.7988 120.721 73.7274 121.311 73.7631 122.079Z" fill="black"/>
<path d="M63.6751 97.7473C63.5056 98.0509 63.3808 98.3634 63.1756 98.6045C62.1677 99.8545 60.919 100.783 59.367 101.239C58.9478 101.364 58.5285 101.301 58.2966 100.881C58.0558 100.453 58.1985 100.015 58.6088 99.8367C60.0627 99.1849 61.2579 98.1937 62.4085 97.1133C62.6672 96.8722 63.0418 96.8722 63.3183 97.0954C63.4878 97.2294 63.5502 97.4973 63.684 97.7473H63.6751Z" fill="black"/>
<path d="M70.9626 97.533C71.1232 97.5865 71.3372 97.5865 71.4175 97.6937C72.3808 98.908 73.799 99.4349 75.0745 100.185C75.351 100.346 75.5473 100.64 75.4581 101.024C75.3689 101.426 75.0299 101.515 74.7177 101.533C73.4779 101.631 70.918 100.06 70.4364 98.917C70.1777 98.3009 70.2223 97.783 70.9626 97.533Z" fill="black"/>
<path d="M64.7988 103.65C64.2995 103.659 63.9339 103.435 63.9072 102.971C63.8626 102.159 64.4154 101.775 65.1286 101.659C65.4942 101.596 65.7884 101.846 65.833 102.212C65.9311 102.998 65.5566 103.48 64.7988 103.65Z" fill="black"/>
<path d="M69.6865 102.443C69.7846 103.194 69.4904 103.551 68.7147 103.417C68.3313 102.952 68.2957 102.506 68.7682 102.077C68.893 102.015 69.0267 101.997 69.1694 102.033C69.3655 102.14 69.5349 102.283 69.6865 102.452V102.443Z" fill="black"/>
<path d="M68.7682 102.077C68.7504 102.524 68.7326 102.97 68.7147 103.417C68.0906 102.943 68.0995 102.497 68.7682 102.077Z" fill="black"/>
<path d="M69.6865 102.444C69.5081 102.31 69.3387 102.167 69.1693 102.024C69.4457 102.024 69.624 102.176 69.6865 102.444Z" fill="black"/>
<path d="M56.825 142.795V143.884H62.6049V142.795H63.9249V146.938H55.5049V142.795H56.8161H56.825ZM56.825 145.929H62.6049V144.857H56.825V145.929ZM65.4056 147.84V148.911H60.3571V149.983H63.9695V152.902H56.6912V153.947H64.3174V154.965H55.3979V151.947H62.6584V150.974H55.3801V149.983H59.0281V148.911H54.0154V147.84H65.4056ZM76.1714 142.58V146.322H77.9821V147.438H76.1714V151.777H74.8514V142.58H76.1714ZM76.6977 153.76V154.831H68.2509V150.813H69.571V153.76H76.6888H76.6977ZM69.8653 143.446C71.7474 143.446 73.1834 144.732 73.1923 146.554C73.1745 148.366 71.7474 149.661 69.8653 149.661C67.9833 149.661 66.5384 148.366 66.5473 146.554C66.5295 144.723 67.9833 143.446 69.8653 143.446ZM69.8653 144.607C68.7236 144.607 67.8317 145.402 67.8406 146.563C67.8228 147.724 68.7147 148.518 69.8653 148.518C71.016 148.518 71.899 147.724 71.899 146.563C71.899 145.402 71.0249 144.607 69.8653 144.607Z" fill="#171719"/>
<mask id="mask2_1662_4415" style="mask-type:luminance" maskUnits="userSpaceOnUse" x="139" y="77" width="50" height="51">
<path d="M188.985 77.1202H139.036V127.124H188.985V77.1202Z" fill="white"/>
</mask>
<g mask="url(#mask2_1662_4415)">
<path d="M139.037 97.9083C139.001 91.4347 141.427 86.0771 146.582 82.1751C150.159 79.4606 154.137 78.1748 158.767 79.3356C162.174 80.1928 165.759 80.166 169.176 79.3535C175.491 77.8712 180.289 80.4339 184.294 84.8717C187.969 88.9434 189.396 93.9705 188.87 99.3995C188.415 104.15 186.497 108.391 183.465 112.097C180.958 115.16 178.14 117.892 174.438 119.454C171.227 120.803 167.882 121.267 164.341 121.08C162.254 120.972 160.149 121.08 158.053 120.785C152.978 120.071 149.133 117.231 145.78 113.606C142.319 109.856 140.098 105.462 139.197 100.4C139.045 99.5602 139.099 98.7387 139.037 97.9083Z" fill="#CAADC6"/>
<path d="M185.49 96.9077C185.178 99.3007 184.009 101.533 182.038 103.346C181.61 103.738 181.021 103.953 180.584 103.426C180.245 103.033 180.477 102.551 180.816 102.194C181.592 101.39 182.252 100.515 182.743 99.5239C183.349 98.3006 184.152 97.1398 182.555 95.9254C181.824 95.3718 182.002 94.3896 182.796 93.7914C183.519 93.2467 184.66 93.6039 185.133 94.4878C185.499 95.1575 185.481 95.9076 185.481 96.9166L185.49 96.9077Z" fill="black"/>
<path d="M144.924 99.7473C144.879 98.8812 145.004 98.2651 145.495 97.774C145.985 97.2739 146.547 97.006 147.234 97.3186C148.001 97.6668 148.554 98.4972 148.072 99.0955C146.725 100.792 147.698 102.185 148.286 103.712C148.598 104.507 149.517 105.623 148.42 106.15C147.252 106.712 147.029 105.274 146.681 104.515C145.949 102.917 145.191 101.337 144.933 99.7652L144.924 99.7473Z" fill="black"/>
<path d="M175.303 125.294C174.073 125.356 173.314 125.106 172.949 124.213C172.494 123.115 172.066 122.008 171.673 120.892C171.486 120.374 171.406 119.74 172.084 119.508C172.753 119.293 173.1 119.838 173.27 120.347C173.725 121.749 174.617 122.383 176.106 122.392C176.891 122.392 177.524 122.91 177.498 123.785C177.471 124.642 176.784 124.999 176.044 125.187C175.696 125.276 175.321 125.285 175.303 125.285V125.294Z" fill="black"/>
<path d="M161.496 89.5147C161.46 89.8272 161.246 89.979 160.97 90.0772C160.577 90.2112 160.265 89.9701 159.926 89.8362C157.224 88.7557 157.027 88.8093 155.234 90.8719C154.887 91.2737 154.655 91.9792 153.986 91.6398C153.183 91.2291 153.558 90.5148 153.816 89.9433C155.029 87.202 158.963 86.4609 161.059 88.5504C161.327 88.8182 161.549 89.095 161.487 89.5058L161.496 89.5147Z" fill="black"/>
<path d="M166.197 104.212C164.743 104.069 162.968 103.283 161.148 104.069C160.988 104.131 160.595 103.926 160.479 103.738C160.274 103.408 160.399 103.033 160.684 102.756C161.558 101.908 162.673 101.854 163.753 102.024C165.278 102.265 166.767 102.729 168.337 102.265C168.667 102.167 169.069 102.301 169.202 102.729C169.372 103.283 169.033 103.578 168.632 103.828C167.981 104.221 167.24 104.221 166.188 104.221L166.197 104.212Z" fill="black"/>
<path d="M158.945 120.606C158.624 121.981 158.008 123.41 157.054 124.669C156.563 125.32 155.796 125.383 155.056 125.312C154.476 125.258 153.977 125.017 153.87 124.365C153.789 123.874 153.95 123.356 154.405 123.195C156.001 122.633 156.947 121.543 157.464 119.954C157.589 119.561 158.062 119.195 158.588 119.481C158.936 119.668 159.043 120.025 158.954 120.597L158.945 120.606Z" fill="black"/>
<path d="M169.559 91.1576C170.496 91.2023 171.78 90.5237 171.851 91.9077C171.887 92.7917 170.629 92.7917 169.835 92.8988C167.686 93.1667 166.179 92.747 166.482 92.0684C167.142 90.5951 168.605 91.4791 169.568 91.1576H169.559Z" fill="black"/>
<path d="M172.859 99.6412C172.271 99.5698 172.012 99.2215 172.066 98.8822C172.226 97.8554 172.975 97.3286 173.921 97.2036C174.367 97.1411 174.822 97.5429 174.67 98.0875C174.402 99.043 173.716 99.5698 172.85 99.6412H172.859Z" fill="white"/>
<path d="M156.769 97.9435C157.411 98.0417 158.365 97.8988 158.329 98.9436C158.303 99.8454 157.482 99.7115 156.858 99.6847C156.224 99.6579 155.439 99.6668 155.377 98.8364C155.315 97.9435 156.064 97.9346 156.769 97.9435Z" fill="white"/>
<path d="M162.183 96.9346C162.165 97.7114 161.879 98.2383 161.282 98.2829C160.506 98.3365 160.15 97.7204 160.132 97.0417C160.114 96.4346 160.542 96.0149 161.166 96.0238C161.808 96.0328 162.058 96.5328 162.183 96.9346Z" fill="black"/>
<path d="M168.631 97.2035C168.551 97.6857 168.283 97.9982 167.775 98.025C167.294 98.0518 166.866 97.8732 166.812 97.3463C166.75 96.6945 167.151 96.3731 167.766 96.3641C168.283 96.3641 168.542 96.7034 168.622 97.2035H168.631Z" fill="black"/>
</g>
<path d="M163.52 149.921V150.966H152.139V149.921H157.169V149.01C154.966 148.912 153.708 148.251 153.726 147.117C153.708 145.876 155.216 145.224 157.82 145.224C160.425 145.224 161.914 145.876 161.914 147.117C161.914 148.251 160.666 148.921 158.489 149.01V149.921H163.52ZM162.244 153.77V154.832H153.575V151.707H154.913V153.77H162.244ZM162.878 143.715V144.733H152.718V143.715H157.16V142.474H158.48V143.715H162.869H162.878ZM157.82 146.171C156.01 146.171 155.064 146.492 155.064 147.117C155.064 147.742 156.01 148.064 157.82 148.064C159.631 148.064 160.576 147.742 160.576 147.117C160.576 146.492 159.613 146.171 157.82 146.171ZM174.286 142.608V146.358H176.114V147.475H174.286V151.796H172.957V142.599H174.286V142.608ZM174.839 153.761V154.832H166.437V151.091H167.775V153.752H174.839V153.761ZM170.656 143.403V147.082H166.303V148.823C168.47 148.823 170.004 148.725 171.824 148.421L171.967 149.51C170.031 149.85 168.381 149.912 165.991 149.912H164.992V146.064H169.371V144.483H164.983V143.394H170.673L170.656 143.403Z" fill="#171719"/>
<mask id="mask3_1662_4415" style="mask-type:luminance" maskUnits="userSpaceOnUse" x="237" y="77" width="51" height="51">
<path d="M287.1 77.1202H237.151V127.124H287.1V77.1202Z" fill="white"/>
</mask>
<g mask="url(#mask3_1662_4415)">
<path d="M262.214 124.759C255.025 125.009 248.389 120.589 246.026 113.83C244.741 110.151 244.973 106.481 245.927 102.767C246.846 99.195 249.103 96.4894 251.422 93.8107C253.661 91.2302 256.069 88.7746 257.71 85.7298C258.923 83.4796 259.806 81.1223 259.985 78.5418C260.083 77.0863 260.698 76.7559 261.929 77.506C262.58 77.8989 263.222 78.3096 263.865 78.7114C266.737 80.4705 267.566 83.3278 268.146 86.3995C268.592 88.7836 267.682 90.8908 267.147 93.0696C266.897 94.0786 266.692 95.0251 267.53 95.7572C268.199 96.3466 269.091 96.8466 269.966 96.3912C270.938 95.8912 271.5 94.9536 271.633 93.8464C271.696 93.3464 271.651 92.8285 271.633 92.3195C271.598 91.3462 272.151 91.2837 272.873 91.5337C273.337 91.6945 273.622 92.0695 273.863 92.4802C275.264 94.8911 276.816 97.2574 277.556 99.9629C279.313 106.428 279.01 112.714 275.139 118.42C272.07 122.947 267.602 124.875 262.197 124.741H262.206L262.214 124.759Z" fill="#E3BFA2"/>
<path d="M243.474 96.24C243.537 94.0434 244.589 92.3468 245.66 90.6771C246.685 89.0788 247.631 87.4358 248.228 85.6142C248.398 85.1053 248.505 84.382 249.29 84.3552C250.057 84.3284 250.217 85.0339 250.503 85.4982C251.859 87.7394 251.395 90.8378 249.343 93.088C247.845 94.7309 246.623 96.5257 245.802 98.5883C245.651 98.9634 245.517 99.2938 245.062 99.3295C244.562 99.3741 244.259 99.0795 244.063 98.6866C243.671 97.8829 243.51 97.0168 243.483 96.24H243.474Z" fill="#E3BFA2"/>
<path d="M278.769 112.356C278.43 111.409 277.627 111.365 277.19 110.891C276.941 110.624 276.825 110.293 277.012 109.981C277.19 109.686 277.538 109.588 277.895 109.686C278.716 109.9 279.465 110.284 280.116 110.82C280.963 111.516 281.142 112.418 280.366 113.222C279.545 114.079 278.769 114.847 278.796 116.186C278.814 116.883 278.243 117.428 277.467 117.428C276.512 117.428 275.942 116.82 275.576 116.017C275.246 115.311 275.415 114.704 276.057 114.258C276.941 113.642 277.993 113.249 278.787 112.356H278.778H278.769Z" fill="black"/>
<path d="M246.498 110.267C246.846 110.312 247.149 110.437 247.274 110.794C247.399 111.151 247.301 111.446 246.998 111.669C246.311 112.196 244.982 112.375 245.365 113.544C245.669 114.473 246.882 114.455 247.756 114.705C248.469 114.911 248.951 115.312 249.138 116.027C249.344 116.848 249.103 117.571 248.354 117.964C247.622 118.348 246.944 117.938 246.694 117.286C246.329 116.321 245.651 115.866 244.812 115.419C243.769 114.875 243.118 114.009 243.51 112.732C243.831 111.669 245.544 110.276 246.498 110.276V110.267Z" fill="black"/>
<path d="M263.437 110.659C264.811 110.704 266.068 111.124 267.192 111.918C267.745 112.311 268.227 112.776 268.28 113.535C268.307 113.892 268.209 114.249 267.924 114.428C267.629 114.606 267.263 114.508 267.014 114.231C264.873 111.829 262.545 111.945 260.083 113.686C259.673 113.972 259.191 114.311 258.745 113.82C258.228 113.24 258.585 112.704 259.04 112.302C260.28 111.195 261.751 110.659 263.428 110.659H263.437Z" fill="black"/>
<path d="M272.427 125.169C272.329 126.312 271.687 126.75 270.741 126.803C269.618 126.866 268.583 125.991 268.244 124.705C268.11 124.214 267.985 123.651 268.44 123.303C269.002 122.875 269.368 123.357 269.644 123.767C270.126 124.491 270.875 124.125 271.491 124.267C272.053 124.401 272.347 124.732 272.427 125.169Z" fill="black"/>
<path d="M255.373 124.037C255.061 124.992 255.507 126.394 254.071 126.939C253.527 127.153 252.884 127.305 252.474 126.715C252.135 126.233 252.314 125.733 252.751 125.394C253.313 124.965 253.643 124.429 253.767 123.733C253.866 123.179 253.919 122.429 254.775 122.662C255.337 122.813 255.382 123.394 255.373 124.028V124.037Z" fill="black"/>
<path d="M259.28 102.463C259.307 102.856 259.093 103.097 258.763 103.213C257.942 103.499 255.677 102.49 255.311 101.641C255.052 101.052 255.409 100.543 255.953 100.615C257.113 100.757 258.13 101.374 259.084 102.034C259.191 102.115 259.218 102.32 259.289 102.472L259.28 102.463Z" fill="black"/>
<path d="M265.631 103.249C265.265 103.205 264.98 103.008 264.926 102.642C264.819 102.017 266.362 99.8293 267.049 99.6507C267.522 99.5257 267.897 99.7579 267.986 100.24C268.146 101.115 266.469 103.213 265.631 103.24V103.249Z" fill="black"/>
<path d="M265.995 107.151C265.96 107.642 265.701 107.928 265.22 107.928C264.738 107.928 264.453 107.607 264.355 107.187C264.239 106.696 264.542 106.33 264.979 106.285C265.541 106.223 265.888 106.589 265.995 107.151Z" fill="black"/>
<path d="M259.958 106.668C260.439 106.713 260.724 107.016 260.733 107.454C260.733 107.936 260.395 108.168 259.922 108.132C259.45 108.106 259.137 107.82 259.155 107.364C259.173 106.909 259.476 106.641 259.967 106.668H259.958Z" fill="black"/>
</g>
<path d="M261.662 149.144V150.207H256.703V152.51H255.392V150.207H250.236V149.144H261.662ZM260.395 153.761V154.832H251.654V151.412H252.965V153.752H260.395V153.761ZM253.055 142.992V144.51H258.834V142.992H260.155V148.046H251.735V142.992H253.046H253.055ZM253.055 146.974H258.834V145.492H253.055V146.974ZM272.722 148.18V149.269H268.949V152.448H274.024V153.537H262.598V152.448H267.629V149.269H263.963V143.635H265.301V148.18H272.731H272.722Z" fill="#171719"/>
<mask id="mask4_1662_4415" style="mask-type:luminance" maskUnits="userSpaceOnUse" x="40" y="180" width="51" height="51">
<path d="M90.8705 180.698H40.9212V230.702H90.8705V180.698Z" fill="white"/>
</mask>
<g mask="url(#mask4_1662_4415)">
<path d="M70.9623 227.363C64.674 226.907 58.2163 227.38 51.9012 225.97C47.9767 225.095 44.3464 223.693 42.6428 219.621C41.3584 216.549 41.7508 213.397 42.6874 210.361C45.0243 202.834 47.9767 195.557 52.5791 189.092C53.9438 187.181 55.0766 185.101 56.9408 183.538C60.901 180.207 65.1913 179.949 69.7046 182.011C73.2278 183.618 75.7253 186.395 77.9373 189.53C80.4348 193.066 83.1998 196.423 84.9035 200.432C87.0174 205.406 89.39 210.352 89.0599 215.978C88.9886 217.273 88.9886 218.594 88.7032 219.844C88.1234 222.416 86.5357 224.166 84.0561 225.193C79.8907 226.916 75.5112 227.3 70.9623 227.363Z" fill="#ACBCE5"/>
<path d="M49.7962 223.8C50.1708 225.568 51.2858 226.443 52.2491 227.416C53.0162 228.202 53.0786 229.068 52.4453 229.925C51.8923 230.676 51.0806 230.854 50.1976 230.586C49.4038 230.336 48.7437 229.747 49.1719 228.943C49.7695 227.827 49.4038 227.05 48.7526 226.193C48.4761 225.827 48.271 225.389 48.1461 224.952C47.4772 222.8 48.708 221.478 50.9379 221.925C51.2947 221.996 51.6872 222.086 51.9815 222.291C53.1232 223.086 54.1133 223.345 55.4423 222.389C56.6107 221.541 57.9397 222.229 59.0993 222.898C59.4293 223.095 59.6612 223.407 59.5096 223.827C59.3669 224.229 59.019 224.345 58.6265 224.327C58.5374 224.327 58.4392 224.3 58.35 224.291C57.6454 224.238 56.7267 223.479 56.2986 224.264C55.7545 225.264 56.8872 225.845 57.4759 226.497C57.7881 226.845 58.1806 227.113 58.4749 227.461C59.0368 228.122 59.5007 228.863 58.8763 229.702C58.3054 230.461 57.4492 230.533 56.5929 230.327C55.5939 230.086 55.3352 229.452 55.6028 228.434C56.0042 226.934 54.8268 225.8 53.926 225.229C52.8645 224.568 51.6337 223.675 49.8141 223.782L49.7962 223.8Z" fill="black"/>
<path d="M53.6674 211.254C52.8557 211.281 52.4186 211.094 52.374 210.549C52.3384 210.031 52.7308 209.728 53.2214 209.62C54.3898 209.361 55.5672 209.102 56.7446 208.87C59.3045 208.361 61.8912 208.335 64.4867 208.379C65.1646 208.397 66.235 208.201 66.1725 209.263C66.119 210.156 65.1379 210.174 64.3886 210.165C61.4184 210.129 58.4661 210.263 55.5494 210.862C54.8269 211.013 54.1044 211.156 53.6674 211.254Z" fill="black"/>
<path d="M70.3556 218.514C70.4448 219.041 70.2753 219.362 70.0434 219.648C68.1168 221.979 65.3963 222.559 62.6224 222.854C61.7304 222.943 61.0704 222.113 61.1774 221.166C61.2844 220.22 62.1764 219.478 62.9524 219.871C65.4498 221.166 67.1445 219.925 68.8749 218.416C69.3923 217.969 70.0077 217.728 70.3734 218.505L70.3556 218.514Z" fill="black"/>
<path d="M49.1716 219.067C49.0467 219.986 48.4937 220.665 47.4145 220.745C45.47 220.879 42.6782 217.915 42.8388 215.906C42.8744 215.441 42.9547 214.95 43.5166 214.825C44.0875 214.7 44.3551 215.066 44.4889 215.549C44.5959 215.897 44.6048 216.299 44.7743 216.62C45.2738 217.602 45.809 218.201 47.1647 217.674C48.5205 217.147 49.2787 217.79 49.1805 219.076L49.1716 219.067Z" fill="black"/>
<path d="M66.1371 199.78C65.9944 200.208 65.8249 200.556 65.4057 200.583C65.0489 200.61 64.6565 200.592 64.3175 200.485C62.3642 199.869 60.4286 199.217 58.4842 198.574C58.0114 198.413 57.6011 198.128 57.6279 197.61C57.6636 197.074 58.1274 196.815 58.6269 196.86C61.1689 197.092 63.4702 198.074 65.7447 199.137C65.9409 199.226 66.0212 199.592 66.1371 199.788V199.78Z" fill="black"/>
<path d="M54.0778 198.048C54.0421 198.458 53.8459 198.798 53.4534 198.878C51.7052 199.208 50.0283 199.682 48.4763 200.628C47.8965 200.985 47.2811 200.592 47.3792 199.905C47.5754 198.592 48.7707 198.253 49.8053 197.869C51.1076 197.378 52.4455 196.869 53.8369 197.601C53.9618 197.664 53.9975 197.905 54.0688 198.066L54.0778 198.048Z" fill="black"/>
<path d="M59.2595 204.709C59.7234 204.646 60.1783 204.53 60.6421 204.521C61.2486 204.503 61.8284 204.736 61.757 205.432C61.6946 206.066 61.1416 206.289 60.5261 206.316C59.3487 206.361 59.0901 205.7 59.2506 204.7H59.2595V204.709Z" fill="white"/>
<path d="M59.25 204.718C58.9736 204.692 58.6972 204.683 58.4298 204.629C57.8324 204.504 57.4044 204.174 57.5382 203.504C57.6273 203.04 57.9572 202.656 58.4743 202.674C59.25 202.7 59.6156 203.165 59.5086 203.942C59.4729 204.209 59.3392 204.459 59.25 204.718Z" fill="black"/>
<path d="M51.3931 204.451C51.3574 203.906 51.6873 203.602 52.1598 203.558C52.5076 203.522 52.8642 203.71 52.8909 204.156C52.9177 204.692 52.5967 205.004 52.1242 205.058C51.7586 205.102 51.4466 204.879 51.3931 204.451Z" fill="black"/>
</g>
<path d="M65.4322 253.276V254.374H60.3302V258.669H59.0369V254.374H54.0063V253.276H65.4322ZM59.6969 246.65C62.3282 246.65 64.1389 247.722 64.1389 249.427C64.1389 251.133 62.3282 252.177 59.6969 252.177C57.0657 252.177 55.255 251.115 55.255 249.427C55.255 247.74 57.0568 246.65 59.6969 246.65ZM59.6969 247.713C57.8417 247.731 56.6019 248.365 56.6197 249.427C56.6019 250.472 57.8506 251.115 59.6969 251.115C61.5433 251.115 62.792 250.472 62.792 249.427C62.792 248.382 61.5522 247.722 59.6969 247.713ZM72.0415 246.311C74.8601 246.311 76.5013 247.079 76.5013 248.463C76.5013 249.847 74.8601 250.624 72.0415 250.624C69.223 250.624 67.5818 249.856 67.5818 248.463C67.5818 247.07 69.223 246.311 72.0415 246.311ZM72.0415 247.302C70.0525 247.32 68.9465 247.722 68.9643 248.463C68.9465 249.249 70.0525 249.633 72.0415 249.633C74.0306 249.633 75.1366 249.24 75.1366 248.463C75.1366 247.722 74.0395 247.32 72.0415 247.302ZM77.7411 251.365V252.41H72.6927V253.481H76.3051V256.41H69.0268V257.526H76.6529V258.544H67.7334V255.445H74.9939V254.472H67.7156V253.481H71.3637V252.41H66.3509V251.365H77.7411Z" fill="#171719"/>
<mask id="mask5_1662_4415" style="mask-type:luminance" maskUnits="userSpaceOnUse" x="139" y="180" width="50" height="51">
<path d="M188.986 180.698H139.036V230.702H188.986V180.698Z" fill="white"/>
</mask>
<g mask="url(#mask5_1662_4415)">
<path d="M184.232 202.7C183.331 200.941 182.734 199.066 181.806 197.325C180.183 194.271 178.559 191.217 176.9 188.181C175.286 185.225 172.931 183.449 169.435 183.708C165.385 184.02 161.336 183.725 157.286 183.725C157.054 183.716 156.813 183.725 156.581 183.69C152.568 183.065 149.785 184.752 147.707 188.181C145.459 191.887 143.425 195.708 141.374 199.512C140.937 200.325 140.339 201.164 140.419 202.146C140.616 204.441 141.088 206.727 142.399 208.629C145.343 212.888 148.429 217.058 151.89 220.915C153.192 222.371 154.851 223.067 156.715 222.844C160.72 222.362 164.734 222.817 168.73 222.63C170.46 222.549 172.048 222.094 173.163 220.817C176.775 216.692 180.575 212.71 183.51 208.022C184.535 206.388 185.186 204.548 184.223 202.673L184.232 202.7Z" fill="#EFE5BF"/>
<path d="M188.585 196.959C188.433 197.691 188.121 198.396 187.47 198.905C185.008 200.807 182.528 202.709 180.058 204.611C179.933 204.7 179.808 204.798 179.683 204.888C179.335 205.102 178.978 205.245 178.639 204.888C178.283 204.504 178.479 204.147 178.755 203.861C179.13 203.468 179.54 203.102 179.968 202.763C181.066 201.887 182.181 201.03 183.304 200.191C184.303 199.441 185.213 198.852 184.847 197.2C184.544 195.851 186.23 194.842 187.604 195.298C188.362 195.539 188.683 196.084 188.603 196.976L188.585 196.959Z" fill="black"/>
<path d="M146.012 200.611C143.817 199.593 141.891 198.423 140.089 197.084C138.965 196.253 138.813 195.021 139.581 194.262C140.134 193.717 140.811 193.592 141.525 193.833C142.167 194.057 142.693 194.619 142.533 195.244C142.096 196.941 143.282 197.414 144.361 198.021C145.236 198.521 146.127 198.994 146.984 199.512C147.323 199.709 147.644 200.066 147.483 200.468C147.251 201.057 146.734 200.834 146.288 200.709C146.136 200.664 146.003 200.602 146.003 200.602L146.012 200.611Z" fill="black"/>
<path d="M173.305 225.997C172.547 225.979 171.959 225.783 171.637 225.158C170.853 223.622 170.068 222.086 169.327 220.532C169.113 220.095 169.113 219.568 169.711 219.381C170.175 219.229 170.424 219.604 170.612 219.943C170.915 220.488 171.183 221.059 171.459 221.622C171.985 222.693 172.494 223.738 173.992 223.613C174.634 223.559 175.268 223.934 175.303 224.684C175.348 225.595 174.617 225.81 173.903 225.952C173.68 225.997 173.439 225.988 173.305 226.006V225.997Z" fill="black"/>
<path d="M156.563 219.353C156.946 219.522 157.062 219.897 156.911 220.29C156.251 222.049 155.617 223.826 154.841 225.532C154.44 226.416 152.879 226.773 151.943 226.38C151.488 226.183 151.14 225.871 151.149 225.335C151.149 224.799 151.479 224.299 151.952 224.344C154.003 224.532 154.253 222.933 154.806 221.594C155.073 220.942 155.395 220.317 155.725 219.701C155.876 219.415 156.162 219.263 156.563 219.371V219.353Z" fill="black"/>
<path d="M165.082 205.022C166.42 205.263 167.633 205.701 168.32 207.013C168.56 207.469 168.569 207.951 168.132 208.281C167.659 208.63 167.338 208.326 166.973 207.96C165.064 206.04 163.637 206.174 161.817 208.397C161.46 208.835 161.22 209.755 160.453 209.21C159.81 208.746 160.274 208.058 160.595 207.531C161.621 205.861 163.155 205.094 165.082 205.04V205.022Z" fill="black"/>
<path d="M168.23 194.611C167.945 195.548 167.535 196.29 166.589 196.504C165.831 196.674 165.216 196.343 164.796 195.709C164.538 195.316 164.315 194.852 164.618 194.406C165.002 193.834 165.421 194.164 165.786 194.468C166.464 195.04 166.705 194.289 167.115 194.057C167.82 193.647 168.07 194.066 168.23 194.611Z" fill="black"/>
<path d="M162.236 195.458C162.147 196.074 161.728 196.423 161.22 196.619C160.363 196.94 159.552 196.807 158.874 196.155C158.463 195.771 158.205 195.28 158.401 194.699C158.553 194.253 159.016 194.065 159.284 194.387C159.953 195.19 160.64 195.181 161.523 194.833C161.933 194.663 162.219 194.994 162.236 195.458Z" fill="black"/>
<path d="M167.044 201.236C166.482 201.218 166.001 201.031 166.018 200.486C166.036 199.942 166.535 199.781 167.035 199.834C167.516 199.888 167.953 200.084 167.864 200.674C167.793 201.12 167.382 201.21 167.044 201.227V201.236Z" fill="black"/>
<path d="M160.933 201.138C160.8 201.54 160.559 201.772 160.113 201.709C159.756 201.656 159.578 201.37 159.614 201.075C159.667 200.665 159.979 200.45 160.416 200.504C160.782 200.549 160.88 200.825 160.924 201.129L160.933 201.138Z" fill="black"/>
</g>
<path d="M162.2 246.177V251.061H163.842V252.177H162.2V258.678H160.871V246.177H162.2ZM155.092 249.722C155.092 251.124 155.261 253.044 156.233 254.392C157.161 253.07 157.348 251.168 157.366 249.722V248.463H156.474V247.391H159.962V248.463H158.624V249.722C158.624 251.651 158.989 253.936 160.55 255.079L159.703 256.044C158.811 255.356 158.285 254.258 157.99 253.017C157.705 254.285 157.179 255.446 156.233 256.16C155.306 255.454 154.779 254.294 154.494 253.035C154.182 254.267 153.656 255.365 152.781 256.053L151.934 255.088C153.477 253.928 153.861 251.597 153.861 249.731V248.472H152.371V247.4H155.992V248.472H155.118V249.731L155.092 249.722ZM175.856 252.061V253.133H164.475V252.061H175.856ZM170.157 254.097C172.841 254.097 174.465 254.937 174.465 256.383C174.465 257.83 172.85 258.66 170.157 258.642C167.454 258.66 165.822 257.83 165.822 256.383C165.822 254.937 167.454 254.097 170.157 254.097ZM170.157 255.133C168.248 255.151 167.16 255.579 167.16 256.392C167.16 257.205 168.248 257.606 170.157 257.606C172.065 257.606 173.136 257.187 173.136 256.392C173.136 255.597 172.039 255.151 170.157 255.133ZM174.839 246.793V247.882H171.049C171.191 249.097 172.966 250.133 175.268 250.365L174.795 251.41C172.636 251.16 170.843 250.249 170.166 248.927C169.47 250.249 167.686 251.16 165.527 251.41L165.073 250.365C167.338 250.124 169.122 249.106 169.283 247.882H165.519V246.793H174.839Z" fill="#171719"/>
<mask id="mask6_1662_4415" style="mask-type:luminance" maskUnits="userSpaceOnUse" x="237" y="180" width="51" height="51">
<path d="M287.1 180.698H237.15V230.702H287.1V180.698Z" fill="white"/>
</mask>
<g mask="url(#mask6_1662_4415)">
<path d="M285.298 204.522C285.548 207.478 283.648 209.344 281.454 211.067C276.861 214.675 272.499 218.496 269.261 223.461C267.905 225.533 266.13 227.149 263.588 227.693C260.582 228.336 258.156 227.22 256.256 225.015C253.75 222.104 251.707 218.809 248.826 216.175C246.525 214.067 244.135 212.058 241.655 210.192C238.194 207.585 238.159 201.808 240.826 199.388C243.225 197.209 245.794 195.245 248.211 193.084C251.369 190.28 253.598 186.691 256.381 183.583C259.833 179.753 264.418 179.753 267.798 183.556C270.733 186.86 273.132 190.637 276.513 193.557C278.716 195.459 281.097 197.147 283.158 199.209C284.87 200.933 285.289 201.924 285.281 204.522H285.289H285.298Z" fill="#D4DFCD"/>
<path d="M247.676 203.192C247.899 201.942 248.157 200.415 248.452 198.897C248.541 198.433 248.666 197.87 249.352 198.013C249.816 198.111 250.004 198.522 249.95 198.95C249.745 200.62 250.387 202.165 250.601 203.781C250.86 205.719 250.423 206.746 249.388 206.781C248.362 206.817 247.702 205.737 247.676 203.969V203.192Z" fill="white"/>
<path d="M247.738 221.023C248.389 219.21 247.524 217.728 247.542 216.192C247.551 215.71 247.399 215.219 247.355 214.737C247.301 214.219 247.399 213.692 248.006 213.621C248.479 213.558 248.693 213.978 248.791 214.397C248.907 214.871 249.023 215.353 249.076 215.835C249.299 217.612 249.54 219.389 250.209 221.076C250.432 221.648 250.815 222.38 249.861 222.702C249.085 222.961 247.89 222.246 247.738 221.478C247.694 221.246 247.738 221.005 247.738 221.014V221.023Z" fill="black"/>
<path d="M276.281 216.747C276.281 215.595 276.263 214.452 276.29 213.301C276.299 212.935 276.584 212.684 276.923 212.667C277.262 212.649 277.565 212.881 277.601 213.238C277.69 214.14 277.717 215.042 277.77 215.944C277.842 217.149 277.601 218.426 278.787 219.328C279.206 219.649 279.206 220.212 278.867 220.667C278.413 221.274 277.761 221.337 277.092 221.14C276.504 220.971 275.986 220.596 276.076 219.935C276.227 218.872 276.29 217.81 276.29 216.747H276.281Z" fill="black"/>
<path d="M258.415 228.631C258.433 229.578 258.344 230.238 257.603 230.515C256.89 230.783 256.132 230.783 255.481 230.363C254.901 229.988 254.749 229.185 255.258 228.908C256.81 228.069 256.542 226.828 256.274 225.524C256.239 225.363 256.23 225.193 256.265 225.033C256.328 224.693 256.488 224.381 256.845 224.318C257.202 224.256 257.461 224.47 257.586 224.81C258.067 226.131 258.237 227.506 258.424 228.631H258.415Z" fill="black"/>
<path d="M268.458 223.568C268.797 223.684 269.029 223.907 269.056 224.265C269.091 224.836 269.1 225.416 269.091 225.988C269.082 226.908 269.065 227.792 270.108 228.283C270.59 228.506 270.768 229.006 270.518 229.533C270.278 230.033 269.778 230.167 269.288 230.22C268.708 230.283 267.941 230.336 267.807 229.694C267.388 227.765 267.334 225.8 267.851 223.863C267.923 223.604 268.208 223.577 268.458 223.568Z" fill="black"/>
<path d="M266.3 213.774C266.103 214.354 265.64 214.595 265.194 214.184C263.954 213.05 262.794 212.916 261.528 214.113C261.305 214.327 260.868 214.256 260.68 213.925C260.573 213.738 260.546 213.443 260.618 213.238C260.939 212.22 262.081 211.577 263.392 211.631C264.748 211.684 266.094 212.559 266.291 213.515C266.308 213.595 266.3 213.675 266.308 213.774H266.3Z" fill="black"/>
<path d="M269.234 202.763C268.538 202.629 267.495 202.459 266.46 202.227C266.032 202.129 265.773 201.789 265.889 201.307C265.978 200.932 266.291 200.807 266.63 200.807C268.253 200.825 269.85 201.245 271.491 201.048C271.642 201.03 271.892 201.298 271.999 201.495C272.186 201.843 271.963 202.129 271.696 202.316C271.063 202.772 270.331 202.816 269.234 202.754V202.763Z" fill="black"/>
<path d="M261.412 208.264C261.305 209.443 260.163 210.345 259.03 210.157C257.879 209.97 256.604 208.55 256.827 207.621C256.979 206.987 257.549 206.862 257.924 207.3C258.709 208.228 259.333 208.782 260.377 207.532C260.787 207.05 261.474 207.559 261.412 208.255V208.264Z" fill="black"/>
<path d="M267.53 209.63C266.594 209.487 265.738 209.255 265.399 208.246C265.256 207.835 265.283 207.424 265.622 207.121C265.898 206.879 266.246 206.942 266.487 207.192C267.067 207.817 267.691 207.933 268.44 207.496C268.833 207.263 269.27 207.335 269.493 207.737C269.787 208.264 269.43 208.665 269.065 209.005C268.628 209.406 268.075 209.54 267.522 209.621L267.53 209.63Z" fill="black"/>
<path d="M256.444 203.361C255.81 203.326 255.213 203.361 255.159 202.709C255.106 202.084 255.659 201.968 256.14 201.834C257.086 201.576 258.022 201.263 258.968 201.013C259.396 200.897 259.797 200.995 259.931 201.504C260.029 201.87 259.833 202.147 259.548 202.326C258.558 202.951 257.452 203.227 256.444 203.361Z" fill="black"/>
</g>
<path d="M260.993 247.562V248.651H250.833V247.562H255.275V246.124H256.586V247.562H260.993ZM261.679 254.267V255.357H256.595V258.687H255.284V255.357H250.253V254.267H261.679ZM255.935 249.285C258.531 249.285 260.092 250.026 260.092 251.392C260.092 252.758 258.531 253.473 255.935 253.482C253.331 253.464 251.77 252.732 251.779 251.392C251.761 250.026 253.322 249.285 255.935 249.285ZM255.935 250.276C254.133 250.276 253.152 250.669 253.152 251.392C253.152 252.116 254.142 252.482 255.935 252.482C257.728 252.482 258.709 252.089 258.727 251.392C258.709 250.669 257.719 250.276 255.935 250.276ZM272.909 246.178V258.678H271.589V246.178H272.909ZM262.652 255.276C263.677 255.276 264.855 255.259 266.077 255.223V253.982C264.614 253.794 263.668 252.937 263.677 251.705C263.66 250.294 264.89 249.365 266.701 249.365C268.512 249.365 269.778 250.303 269.778 251.705C269.778 252.919 268.833 253.767 267.379 253.964V255.178C268.539 255.134 269.707 255.035 270.804 254.901L270.902 255.893C268.128 256.357 265.104 256.384 262.821 256.384L262.643 255.285L262.652 255.276ZM270.545 247.669V248.731H262.919V247.669H266.086V246.204H267.406V247.669H270.545ZM266.71 250.392C265.666 250.392 264.926 250.91 264.944 251.705C264.926 252.499 265.666 252.991 266.71 252.991C267.754 252.991 268.521 252.499 268.521 251.705C268.521 250.91 267.78 250.392 266.71 250.392Z" fill="#171719"/>
<path d="M89.0689 313.485C88.9708 314.985 88.5783 316.343 88.3108 317.245C86.7231 322.656 83.3248 326.549 78.749 329.406C74.209 332.246 69.2408 333.469 63.9337 333.371C55.4602 333.21 47.3523 327.451 44.1592 319.334C42.741 315.727 41.8579 312.012 41.8133 308.146C41.733 300.609 44.5159 290.912 53.3373 286.546C61.57 282.474 71.0515 287.769 72.3092 297.082C72.3983 297.77 72.2467 298.163 71.5421 298.35C68.67 299.1 65.9406 300.243 63.2648 301.547C62.7207 301.815 62.1498 302.038 61.7128 302.511C61.4363 302.806 61.3203 303.163 61.4809 303.538C61.6414 303.94 62.0071 304.003 62.3906 304.011C62.8188 304.02 63.1756 303.815 63.5323 303.636C67.0912 301.788 70.8374 300.422 74.7353 299.636C81.7728 298.234 87.1155 302.36 88.6319 308.887C88.7389 309.36 89.1849 311.682 89.0689 313.476V313.485Z" fill="#81A2BB"/>
<path d="M66.2531 296.948C66.2174 297.493 65.9587 297.886 65.6287 297.805C64.2819 297.484 63.488 298.162 62.7923 299.163C62.5693 299.475 62.1679 299.52 61.8736 299.27C61.7041 299.127 61.5882 298.814 61.5882 298.582C61.5882 296.761 64.1302 295.323 65.6644 296.269C65.9409 296.439 66.1014 296.778 66.2442 296.957L66.2531 296.948Z" fill="black"/>
<path d="M59.0102 290.832C59.0638 291.546 57.9845 293.046 57.2442 293.234C56.7001 293.377 56.3968 293.046 56.3879 292.546C56.3701 291.814 57.6455 290.296 58.3056 290.233C58.6713 290.198 58.9656 290.403 59.0192 290.823L59.0102 290.832Z" fill="black"/>
<path d="M64.2807 289.511C64.3163 290.234 64.0132 290.538 63.5407 290.529C63.0146 290.511 62.5064 290.261 62.346 289.707C62.2033 289.207 62.4975 288.868 62.979 288.77C63.7101 288.627 64.0578 289.1 64.2807 289.511Z" fill="black"/>
<path d="M61.552 294.556C61.5698 294.868 61.4272 295.163 61.0349 295.199C60.6515 295.225 60.3929 294.966 60.4019 294.609C60.4019 294.422 60.6248 294.145 60.812 294.073C61.1686 293.922 61.445 294.1 61.552 294.556Z" fill="black"/>
<path d="M63.2205 293.484C63.274 293.136 63.3988 292.805 63.8446 292.886C64.1121 292.93 64.3172 293.127 64.2904 293.413C64.2637 293.77 64.1389 294.127 63.6752 294.038C63.4078 293.993 63.2562 293.77 63.2116 293.484H63.2205Z" fill="black"/>
<mask id="mask7_1662_4415" style="mask-type:luminance" maskUnits="userSpaceOnUse" x="139" y="284" width="50" height="51">
<path d="M188.986 284.278H139.036V334.281H188.986V284.278Z" fill="white"/>
</mask>
<g mask="url(#mask7_1662_4415)">
<path d="M170.13 321.129C168.15 321.129 166.482 321.093 164.814 321.129C159.578 321.254 154.342 321.557 149.106 321.62C147.715 321.629 146.324 321.986 144.932 321.611C140.017 320.263 138.697 317.396 139.09 313.146C139.411 309.673 141.186 306.976 144.201 305.172C146.297 303.922 148.562 303.601 150.846 304.52C154.075 305.824 156.322 304.645 158.338 301.708C160.586 298.449 163.663 296.716 167.374 296.02C169.853 295.556 172.181 296.44 174.304 297.716C179.023 300.538 181.324 304.949 182.483 310.11C182.84 311.717 182.813 313.36 182.662 314.959C182.403 317.727 180.271 319.102 178.095 320.343C177.239 320.834 176.266 321.013 175.241 320.932C173.421 320.78 171.619 321.361 170.112 321.147L170.13 321.129Z" fill="#E7DDF2"/>
</g>
</g>
<rect x="-1" y="-0.361816" width="335" height="150" fill="url(#paint0_linear_1662_4415)"/>
<rect y="149.638" width="335" height="150" fill="url(#paint1_linear_1662_4415)"/>
</g>
<defs>
<linearGradient id="paint0_linear_1662_4415" x1="166.5" y1="-0.361816" x2="166.5" y2="149.638" gradientUnits="userSpaceOnUse">
<stop stop-color="white"/>
<stop offset="1" stop-color="white" stop-opacity="0"/>
</linearGradient>
<linearGradient id="paint1_linear_1662_4415" x1="167.5" y1="149.638" x2="167.5" y2="299.638" gradientUnits="userSpaceOnUse">
<stop stop-color="white" stop-opacity="0"/>
<stop offset="1" stop-color="white"/>
</linearGradient>
<clipPath id="clip0_1662_4415">
<rect width="335" height="300" rx="8" fill="white"/>
</clipPath>
<clipPath id="clip1_1662_4415">
<rect width="335" height="517" fill="white" transform="translate(-1 -122)"/>
</clipPath>
</defs>
</svg>
