<svg width="335" height="300" viewBox="0 0 335 300" fill="none" xmlns="http://www.w3.org/2000/svg">
<g clip-path="url(#clip0_1662_4593)">
<rect width="335" height="300" rx="8" fill="#D1C9F2"/>
<g clip-path="url(#clip1_1662_4593)">
<path d="M282.536 58.6382H52.7203C45.1428 58.6382 39 64.784 39 72.3653V337.299C39 344.881 45.1428 351.026 52.7203 351.026H282.536C290.113 351.026 296.256 344.881 296.256 337.299V72.3653C296.256 64.784 290.113 58.6382 282.536 58.6382Z" fill="white"/>
<path d="M65.6381 91.7616V93.0451H53.2624V91.7616H58.6956V89.0162C57.8107 88.9338 57.0629 88.7279 56.4455 88.3984C55.8418 88.069 55.389 87.6434 55.0872 87.1287C54.7853 86.607 54.6344 86.0305 54.6344 85.4059C54.6344 84.7196 54.8128 84.1087 55.1626 83.5665C55.5262 83.0105 56.0682 82.5781 56.7954 82.2555C57.5225 81.933 58.4075 81.7751 59.4502 81.7751C60.493 81.7751 61.3848 81.933 62.1051 82.2555C62.8323 82.5781 63.3674 83.0174 63.7173 83.5665C64.0809 84.1087 64.2592 84.7264 64.2592 85.4059C64.2592 86.0305 64.1083 86.607 63.8065 87.1287C63.5046 87.6434 63.0518 88.0621 62.4481 88.3984C61.8444 88.7279 61.0967 88.9338 60.2117 89.0162V91.7616H65.6313H65.6381ZM59.4502 87.8219C60.5067 87.8219 61.2956 87.616 61.817 87.2042C62.3521 86.7786 62.6196 86.2433 62.6196 85.5912V85.2137C62.6196 84.5617 62.3521 84.0263 61.817 83.6145C61.2956 83.189 60.5067 82.9831 59.4502 82.9831C58.3938 82.9831 57.598 83.1958 57.0629 83.6145C56.5415 84.0263 56.2808 84.5617 56.2808 85.2137V85.5912C56.2808 86.2433 56.5415 86.7855 57.0629 87.2042C57.598 87.616 58.3938 87.8219 59.4502 87.8219ZM77.3484 85.7697H68.5948V81.6172H70.1178V84.5617H77.3484V85.7697ZM79.0978 86.9296V88.2131H66.722V86.9296H79.0978ZM70.0561 93.8756H77.6503V95.1316H69.5896C69.2671 95.1316 69.0202 95.0492 68.8487 94.8776C68.6909 94.7061 68.6086 94.459 68.6086 94.1364V91.6586H75.8049V90.6154H68.5125V89.3799H77.2661V92.8254H70.0492V93.8824L70.0561 93.8756ZM96.5089 87.5954H94.3959V94.5276H92.873V81.3015H94.3959V86.3119H96.5089V87.5954ZM91.4872 89.2083L91.6862 90.4438C90.026 90.7732 88.0366 90.9448 85.7247 90.9448H84.2292V82.3379H85.7384V89.6613C87.9817 89.6613 89.8957 89.5103 91.4872 89.2083ZM107.067 81.2809H108.59V94.507H107.067V81.2809ZM97.8054 85.2686C97.8054 84.6372 97.9632 84.0744 98.2719 83.5939C98.5944 83.0998 99.0334 82.7223 99.5822 82.4614C100.138 82.1869 100.762 82.0565 101.469 82.0565C102.175 82.0565 102.8 82.1938 103.355 82.4614C103.911 82.7223 104.343 83.0998 104.652 83.5939C104.974 84.0744 105.132 84.6372 105.132 85.2686C105.132 85.9001 104.974 86.4629 104.652 86.9434C104.343 87.4238 103.904 87.8013 103.355 88.0758C102.8 88.3367 102.175 88.4671 101.469 88.4671C100.762 88.4671 100.138 88.3367 99.5822 88.0758C99.0265 87.8013 98.5944 87.4238 98.2719 86.9434C97.9632 86.4629 97.8054 85.9001 97.8054 85.2686ZM103.541 85.4334V85.0833C103.541 84.5411 103.348 84.1018 102.964 83.7724C102.58 83.4429 102.086 83.2713 101.469 83.2713C100.851 83.2713 100.357 83.4361 99.9733 83.7724C99.5891 84.1018 99.397 84.5411 99.397 85.0833V85.4334C99.397 85.9756 99.5891 86.4149 99.9733 86.7443C100.357 87.0738 100.851 87.2454 101.469 87.2454C102.086 87.2454 102.58 87.0806 102.964 86.7443C103.348 86.4149 103.541 85.9756 103.541 85.4334ZM97.2292 90.4781C98.9305 90.4781 100.577 90.4369 102.162 90.3546C103.753 90.2722 105.077 90.1555 106.147 90.0045L106.298 91.2125C105.18 91.391 103.829 91.5282 102.237 91.6175C100.659 91.7067 99.0266 91.7547 97.3458 91.7547L97.2223 90.4712L97.2292 90.4781ZM125.651 81.2809V89.2083H124.128V85.9619H121.487V84.6784H124.128V81.2809H125.651ZM115.429 89.2083L114.613 88.0484C115.903 87.5542 116.89 87.1012 117.57 86.6894C118.256 86.2776 118.729 85.8521 119.003 85.4059C119.285 84.9598 119.429 84.4313 119.429 83.8204V83.3812H115.038V82.0839H120.972V83.6694C120.972 84.5686 120.808 85.3236 120.471 85.9344C120.142 86.5384 119.58 87.0944 118.798 87.5954C118.015 88.0964 116.89 88.6387 115.429 89.2083ZM116.863 89.9633H125.644V95.1865H124.148V91.2468H116.856V89.9633H116.863ZM137.581 84.4519V81.2809H139.104V89.1946H137.581V85.7079H135.077V84.4519H137.581ZM128.978 88.9269L127.846 87.9454C128.642 87.3483 129.266 86.813 129.733 86.3325C130.192 85.8521 130.535 85.3716 130.741 84.898C130.961 84.4244 131.07 83.9097 131.07 83.34H128.292V82.0702H135.337V83.34H132.593V83.4292C132.593 84.2528 132.408 85.0147 132.038 85.7079L132.127 85.7697L132.442 85.5432C132.586 85.4334 132.724 85.3785 132.868 85.3785C133.019 85.3785 133.163 85.4334 133.307 85.5432L135.859 87.6709L134.727 88.6661L132.086 86.3531C132.017 86.2913 131.928 86.2639 131.832 86.2639C131.763 86.2639 131.688 86.2913 131.619 86.3394C131.338 86.7237 130.988 87.1149 130.576 87.5199C130.165 87.9111 129.63 88.3778 128.978 88.9269ZM139.152 92.3381C139.152 92.9009 138.987 93.402 138.651 93.8344C138.322 94.2805 137.828 94.6237 137.169 94.8776C136.517 95.1316 135.728 95.2551 134.816 95.2551C133.904 95.2551 133.101 95.1316 132.449 94.8776C131.798 94.6237 131.304 94.2805 130.967 93.8344C130.638 93.402 130.467 92.9009 130.467 92.3381C130.467 91.7753 130.631 91.2743 130.967 90.8419C131.297 90.3957 131.791 90.0594 132.449 89.8123C133.101 89.5584 133.89 89.4348 134.816 89.4348C135.742 89.4348 136.524 89.5584 137.169 89.8123C137.821 90.0526 138.315 90.3957 138.651 90.8419C138.98 91.2743 139.152 91.7753 139.152 92.3381ZM137.546 92.2283C137.546 91.7753 137.32 91.3978 136.867 91.0958C136.414 90.787 135.728 90.6291 134.816 90.6291C133.904 90.6291 133.211 90.787 132.751 91.0958C132.298 91.3978 132.072 91.7753 132.072 92.2283V92.4548C132.072 92.9078 132.298 93.2853 132.751 93.5873C133.211 93.8893 133.904 94.0403 134.816 94.0403C135.728 94.0403 136.414 93.8893 136.867 93.5873C137.32 93.2853 137.546 92.9078 137.546 92.4548V92.2283ZM142.733 83.7724C142.733 83.0174 143.117 82.4203 143.878 81.9741C144.647 81.528 145.792 81.3084 147.322 81.3084C148.852 81.3084 149.998 81.528 150.766 81.9741C151.534 82.4203 151.912 83.0174 151.912 83.7724C151.912 84.5274 151.527 85.1382 150.766 85.5844C150.004 86.0305 148.852 86.2501 147.322 86.2501C145.792 86.2501 144.647 86.0305 143.878 85.5844C143.11 85.1382 142.733 84.5342 142.733 83.7724ZM150.279 83.8479V83.6969C150.279 83.3125 150.032 83.0105 149.538 82.7772C149.058 82.5438 148.317 82.4271 147.322 82.4271C146.327 82.4271 145.6 82.5438 145.106 82.7772C144.612 83.0105 144.365 83.3125 144.365 83.6969V83.8479C144.365 84.2322 144.605 84.5342 145.093 84.7676C145.586 84.9872 146.327 85.0971 147.329 85.0971C148.331 85.0971 149.078 84.9872 149.565 84.7676C150.046 84.548 150.293 84.2391 150.293 83.8479H150.279ZM153.51 87.0669V88.3504H141.134V87.0669H153.51ZM143.021 94.1364V91.6586H150.217V90.6154H142.925V89.3799H151.678V92.8254H144.461V93.8824H152.056V95.1385H143.995C143.673 95.1385 143.426 95.0561 143.254 94.8845C143.089 94.7129 143.014 94.4658 143.014 94.1432L143.021 94.1364ZM170.928 85.8452H168.877V89.2564H167.354V81.2809H168.877V84.5548H170.928V85.8383V85.8452ZM159.183 89.0436L158.051 88.0621C158.847 87.4581 159.471 86.9159 159.924 86.4286C160.391 85.9344 160.727 85.4471 160.933 84.9667C161.152 84.4862 161.262 83.9577 161.262 83.3949V83.3812H158.484V82.1114H165.55V83.3812H162.785V83.4704C162.785 84.3077 162.593 85.0765 162.209 85.7834L162.298 85.8315L162.613 85.605C162.744 85.502 162.881 85.454 163.018 85.454C163.183 85.454 163.334 85.5089 163.471 85.6187L166.023 87.7807L164.891 88.7759L162.25 86.4492C162.161 86.3805 162.078 86.3462 162.01 86.3462C161.927 86.3462 161.859 86.3737 161.797 86.4355C161.523 86.8198 161.187 87.2042 160.768 87.5954C160.363 87.9866 159.835 88.4739 159.17 89.0436H159.183ZM160.24 89.9976H168.87V95.1934H167.374V91.2949H160.233V89.9976H160.24ZM181.513 85.303H178.845V84.0332H181.513V81.2878H183.036V89.1534H181.513V85.303ZM175.689 85.8726C175.627 85.8726 175.565 85.9001 175.511 85.9619C175.236 86.408 174.886 86.861 174.454 87.3346C174.022 87.7944 173.466 88.3435 172.78 88.9818L171.648 87.9729C172.465 87.2591 173.103 86.6208 173.562 86.0717C174.022 85.5157 174.365 84.9735 174.571 84.4382C174.783 83.8959 174.886 83.2988 174.886 82.6399V81.7339H176.423V82.7291C176.423 83.6763 176.231 84.548 175.847 85.3441L175.922 85.3922L176.251 85.1039C176.409 84.9941 176.56 84.9392 176.691 84.9392C176.835 84.9392 176.958 84.9941 177.068 85.1039L179.723 87.5679L178.618 88.6387L175.874 85.9687C175.812 85.907 175.751 85.8795 175.675 85.8795L175.689 85.8726ZM183.084 92.2901C183.084 92.8529 182.92 93.3539 182.583 93.8001C182.254 94.2531 181.76 94.6031 181.122 94.8571C180.477 95.1179 179.695 95.2483 178.783 95.2483C177.87 95.2483 177.082 95.1179 176.43 94.8571C175.778 94.6031 175.284 94.2531 174.948 93.8001C174.619 93.3539 174.447 92.8529 174.447 92.2901C174.447 91.7273 174.612 91.2262 174.948 90.7801C175.277 90.3271 175.771 89.9771 176.43 89.7231C177.082 89.4623 177.87 89.3319 178.783 89.3319C179.695 89.3319 180.477 89.4623 181.122 89.7231C181.767 89.9771 182.254 90.3271 182.583 90.7801C182.913 91.2262 183.084 91.7273 183.084 92.2901ZM181.472 92.1734C181.472 91.7204 181.246 91.3429 180.793 91.0409C180.347 90.7321 179.682 90.5742 178.783 90.5742C177.884 90.5742 177.198 90.7321 176.745 91.0409C176.299 91.3429 176.08 91.7204 176.08 92.1734V92.4274C176.08 92.8735 176.299 93.2441 176.745 93.5461C177.198 93.855 177.877 94.0128 178.783 94.0128C179.688 94.0128 180.347 93.855 180.793 93.5461C181.246 93.2441 181.472 92.8735 181.472 92.4274V92.1734ZM196.798 81.2809V94.507H195.336V87.7395H193.827V94.1432H192.366V81.4868H193.827V86.4835H195.336V81.274H196.798V81.2809ZM190.431 83.5459H186.459V82.3104H190.431V83.5459ZM184.964 84.9255H191.742V86.1335H190.109V86.209C190.843 86.6414 191.213 87.4307 191.213 88.5769C191.213 89.5241 190.953 90.2653 190.431 90.8144C189.917 91.3498 189.238 91.6175 188.394 91.6175C187.55 91.6175 186.857 91.3498 186.343 90.8144C185.828 90.2722 185.574 89.5241 185.574 88.5769C185.574 87.4375 185.938 86.6551 186.658 86.2227V86.1335H184.971V84.9255H184.964ZM189.78 87.9111C189.78 87.3964 189.656 86.9983 189.402 86.7169C189.162 86.4355 188.826 86.2913 188.394 86.2913C187.962 86.2913 187.619 86.4355 187.365 86.7169C187.125 86.9983 187.001 87.3964 187.001 87.9111V88.7553C187.001 89.2564 187.125 89.6545 187.379 89.9496C187.639 90.231 187.975 90.3751 188.387 90.3751C188.799 90.3751 189.135 90.231 189.382 89.9496C189.643 89.6545 189.773 89.2632 189.773 88.7553V87.9111H189.78ZM210.902 91.7616V93.0451H198.526V91.7616H203.96V88.9681H200.173V81.9741H201.682V84.2528H207.705V81.9741H209.215V88.9681H205.489V91.7616H210.909H210.902ZM201.682 87.6984H207.705V85.5089H201.682V87.6984ZM223.71 81.2809V94.507H222.228V81.2809H223.71ZM219.285 81.4937H220.746V94.1501H219.285V87.0051H217.385V85.7216H219.285V81.4937ZM216.061 86.8404C216.226 86.8404 216.356 86.9228 216.452 87.0806L218.688 90.4301L217.557 91.3841L215.368 87.9729C215.341 87.9111 215.293 87.8837 215.231 87.8837C215.169 87.8837 215.121 87.918 215.08 87.9866C214.847 88.5288 214.545 89.0917 214.174 89.6613C213.811 90.2379 213.358 90.8831 212.816 91.6106L211.712 90.6909C212.418 89.7643 212.96 88.9544 213.344 88.2612C213.735 87.5542 214.017 86.861 214.174 86.1746C214.346 85.4814 214.428 84.6921 214.428 83.8204V82.3379H215.89V83.7861C215.89 84.9735 215.732 86.0785 215.409 87.0944L215.485 87.1561L215.697 86.9914C215.828 86.8885 215.951 86.8404 216.061 86.8404ZM226.811 85.3441C226.811 84.6715 226.989 84.0607 227.339 83.5184C227.703 82.9762 228.238 82.5438 228.951 82.2349C229.678 81.9261 230.563 81.7682 231.62 81.7682C232.676 81.7682 233.561 81.9261 234.275 82.2349C235.002 82.5438 235.537 82.9762 235.887 83.5184C236.25 84.0607 236.429 84.6715 236.429 85.3441C236.429 86.0168 236.25 86.6414 235.887 87.1836C235.537 87.7189 234.995 88.1445 234.275 88.4671C233.561 88.7759 232.676 88.9338 231.62 88.9338C230.563 88.9338 229.672 88.7759 228.951 88.4671C228.238 88.1445 227.696 87.7189 227.339 87.1836C226.989 86.6414 226.811 86.0236 226.811 85.3441ZM228.457 85.5295C228.457 86.1609 228.725 86.6894 229.26 87.1012C229.795 87.513 230.584 87.7189 231.627 87.7189C232.669 87.7189 233.465 87.513 233.993 87.1012C234.529 86.6894 234.796 86.1678 234.796 85.5295V85.1794C234.796 84.5342 234.529 84.0058 233.993 83.5939C233.472 83.1821 232.683 82.9762 231.627 82.9762C230.57 82.9762 229.774 83.1821 229.239 83.5939C228.718 84.0058 228.457 84.5342 228.457 85.1794V85.5295ZM237.815 91.7616V93.0451H225.439V91.7616H228.457V89.3319H229.967V91.7616H233.287V89.3319H234.782V91.7616H237.815Z" fill="#171719"/>
<path d="M277.048 118.008H58.2083C55.3667 118.008 53.0632 120.313 53.0632 123.156V318.081C53.0632 320.924 55.3667 323.229 58.2083 323.229H277.048C279.889 323.229 282.193 320.924 282.193 318.081V123.156C282.193 120.313 279.889 118.008 277.048 118.008Z" fill="white"/>
<path d="M277.048 118.008H58.2083C55.3667 118.008 53.0632 120.313 53.0632 123.156V318.081C53.0632 320.924 55.3667 323.229 58.2083 323.229H277.048C279.889 323.229 282.193 320.924 282.193 318.081V123.156C282.193 120.313 279.889 118.008 277.048 118.008Z" stroke="#C7C8C9" stroke-width="0.685698"/>
<path d="M71.5312 129.559V133.279H73.0747V134.117H71.5312V139.189H70.5159V129.559H71.5312ZM68.9518 130.479V131.303H65.4805V135.949C67.0927 135.949 68.3069 135.874 69.6721 135.627L69.8024 136.485C68.3 136.752 67.0241 136.807 65.2336 136.794H64.4652V130.479H68.9586H68.9518ZM77.9111 129.758C80.0241 129.758 81.3412 130.445 81.3412 131.605C81.3412 132.765 80.0241 133.417 77.9111 133.417C75.7982 133.417 74.4811 132.744 74.4811 131.605C74.4811 130.465 75.8119 129.758 77.9111 129.758ZM77.9111 130.568C76.4293 130.568 75.5238 130.946 75.5307 131.605C75.5169 132.25 76.4293 132.614 77.9111 132.627C79.3792 132.614 80.2916 132.25 80.2916 131.605C80.2916 130.96 79.3792 130.568 77.9111 130.568ZM81.2246 135.84V139.045H74.5908V135.84H81.2246ZM75.5924 136.656V138.221H80.2367V136.656H75.5924ZM82.2948 134.158V134.982H73.5344V134.158H82.2948ZM91.7824 134.975V135.798H87.879V139.155H86.8842V135.798H83.0288V134.975H91.7893H91.7824ZM90.9523 130.129V130.946H87.9819C87.9956 132.133 89.4774 133.197 91.2953 133.444L90.918 134.247C89.3402 134 87.9819 133.225 87.4056 132.126C86.8088 133.225 85.4573 134.007 83.9001 134.247L83.5159 133.444C85.3133 133.197 86.7882 132.133 86.8294 130.946H83.8383V130.129H90.9592H90.9523ZM100.282 132.367V133.183H93.6689V129.903H94.6774V132.367H100.282ZM101.291 134.398V135.215H92.5027V134.398H101.291ZM100.344 138.105V138.942H93.5935V136.121H94.6088V138.105H100.344ZM108.041 131.625C108.041 132.751 108.905 133.822 110.38 134.254L109.9 135.05C108.802 134.721 107.986 134.028 107.561 133.142C107.142 134.137 106.312 134.927 105.18 135.311L104.68 134.494C106.148 134.034 107.039 132.875 107.039 131.632V131.467H104.947V130.651H107.039V129.525H108.055V130.651H110.133V131.467H108.041V131.632V131.625ZM112.685 129.559V136.19H111.67V133.08H109.845V132.236H111.67V129.566H112.685V129.559ZM110.058 135.743C110.058 136.986 111.43 138.036 113.262 138.317L112.857 139.12C111.361 138.873 110.106 138.125 109.537 137.068C108.953 138.111 107.698 138.866 106.196 139.12L105.832 138.317C107.609 138.029 109.015 136.945 109.029 135.743V135.551H110.072V135.743H110.058ZM124.787 129.559V139.168H123.764V129.559H124.787ZM116.897 136.553C117.686 136.553 118.592 136.54 119.532 136.512V135.558C118.407 135.414 117.68 134.755 117.686 133.808C117.68 132.724 118.619 132.01 120.012 132.01C121.405 132.01 122.379 132.73 122.379 133.808C122.379 134.741 121.652 135.393 120.533 135.544V136.478C121.425 136.444 122.324 136.368 123.168 136.265L123.243 137.027C121.11 137.384 118.784 137.404 117.028 137.404L116.891 136.56L116.897 136.553ZM122.962 130.706V131.522H117.096V130.706H119.532V129.58H120.547V130.706H122.962ZM120.012 132.799C119.209 132.799 118.64 133.197 118.647 133.808C118.64 134.419 119.202 134.796 120.012 134.796C120.821 134.796 121.405 134.419 121.405 133.808C121.405 133.197 120.835 132.799 120.012 132.799ZM129.664 132.003C129.657 133.705 130.638 135.441 132.079 136.142L131.448 136.958C130.405 136.416 129.596 135.339 129.177 134.055C128.745 135.428 127.901 136.574 126.81 137.144L126.179 136.32C127.661 135.613 128.656 133.767 128.656 132.01V130.369H129.671V132.01L129.664 132.003ZM133.808 129.559V133.389H135.351V134.261H133.808V139.175H132.792V129.566H133.808V129.559ZM143.391 130.376V131.193H145.484V129.573H146.499V136.574H145.484V134.089H143.391V134.927H138.932V130.383H143.391V130.376ZM139.941 131.2V134.117H142.397V131.2H139.941ZM146.719 138.139V138.962H140.236V135.929H141.265V138.139H146.719ZM143.391 133.245H145.484V132.023H143.391V133.245ZM155.98 129.559V134.789H154.971V132.669H153.174V131.831H154.971V129.559H155.98ZM150.739 135.222V136.327H154.971V135.222H155.98V139.052H149.73V135.222H150.739ZM150.739 138.221H154.971V137.116H150.739V138.221ZM151.425 131.063C151.425 132.25 152.296 133.451 153.743 133.945L153.215 134.741C152.131 134.357 151.342 133.595 150.924 132.641C150.499 133.712 149.662 134.556 148.523 134.961L147.995 134.158C149.476 133.643 150.382 132.38 150.382 131.056V130.925H148.303V130.102H153.483V130.925H151.425V131.063ZM161.838 129.717C164.006 129.717 165.269 130.294 165.269 131.371C165.269 132.449 164.006 133.032 161.838 133.032C159.671 133.032 158.408 132.442 158.408 131.371C158.408 130.301 159.671 129.717 161.838 129.717ZM161.838 130.472C160.309 130.472 159.458 130.809 159.472 131.371C159.465 131.962 160.309 132.271 161.838 132.271C163.368 132.271 164.219 131.962 164.219 131.371C164.219 130.781 163.375 130.472 161.838 130.472ZM166.222 133.623V134.439H157.469V133.623H166.222ZM165.118 135.181V137.432H159.52V138.29H165.385V139.072H158.525V136.691H164.109V135.943H158.511V135.181H165.111H165.118ZM178.419 137.13V137.981H169.632V137.13H173.501V135.153H170.64V130.211H171.655V131.866H176.375V130.211H177.384V135.153H174.509V137.13H178.419ZM171.662 134.33H176.382V132.689H171.662V134.33ZM187.118 129.559V139.189H186.11V134.021H184.354V133.177H186.11V129.559H187.118ZM183.784 130.424V133.856H180.491V136.045C182.021 136.045 183.201 135.984 184.546 135.743L184.628 136.581C183.194 136.842 181.925 136.89 180.231 136.903H179.469V133.032H182.789V131.255H179.442V130.431H183.77L183.784 130.424ZM198.767 129.559V133.389H200.255V134.24H198.767V139.162H197.745V129.566H198.767V129.559ZM196.256 130.568C196.249 133.348 195.021 135.826 191.859 137.391L191.289 136.595C193.697 135.393 195 133.657 195.213 131.413H191.769V130.568H196.249H196.256ZM208.542 132.367V133.183H201.929V129.903H202.938V132.367H208.542ZM209.551 134.398V135.215H200.763V134.398H209.551ZM208.604 138.105V138.942H201.854V136.121H202.869V138.105H208.604ZM220.486 129.559V131.488H221.879V132.346H220.486V134.371H219.471V129.553H220.486V129.559ZM214.394 129.985V133.115C215.684 133.101 217.049 133.005 218.524 132.71L218.654 133.554C217.035 133.877 215.581 133.973 214.161 133.973H213.379V129.985H214.394ZM220.486 134.81V137.253H215.307V138.221H220.815V139.045H214.298V136.471H219.464V135.613H214.278V134.81H220.486ZM223.518 138.331C223.1 138.331 222.75 137.988 222.757 137.569C222.743 137.151 223.1 136.807 223.518 136.807C223.937 136.807 224.28 137.151 224.28 137.569C224.28 137.988 223.923 138.331 223.518 138.331ZM226.413 138.331C225.995 138.331 225.638 137.988 225.652 137.569C225.638 137.151 225.995 136.807 226.413 136.807C226.832 136.807 227.175 137.151 227.175 137.569C227.175 137.988 226.818 138.331 226.413 138.331ZM229.308 138.331C228.89 138.331 228.54 137.988 228.547 137.569C228.533 137.151 228.89 136.807 229.308 136.807C229.727 136.807 230.07 137.151 230.07 137.569C230.07 137.988 229.713 138.331 229.308 138.331ZM232.821 130.493L232.725 136.018H231.661L231.565 130.493H232.821ZM232.196 138.331C231.778 138.331 231.428 137.988 231.435 137.569C231.421 137.151 231.778 136.807 232.196 136.807C232.615 136.807 232.958 137.151 232.958 137.569C232.958 137.988 232.601 138.331 232.196 138.331ZM244.75 129.559V139.189H243.735V133.492H240.874V132.655H243.735V129.553H244.75V129.559ZM238.274 130.623V136.032C239.646 136.011 240.943 135.929 242.336 135.647L242.466 136.485C240.922 136.807 239.53 136.883 238.021 136.883H237.252V130.63H238.281L238.274 130.623ZM254.999 135.071V135.894H251.075V139.155H250.081V135.894H246.212V135.071H254.999ZM253.895 130.074V133.849H247.316V130.074H253.895ZM248.311 130.891V133.06H252.88V130.891H248.311ZM261.064 130.095V130.912H259.61V133.334C260.09 133.321 260.604 133.273 261.187 133.142L261.27 133.959C260.392 134.131 259.712 134.144 259.054 134.144H258.629V130.102H261.071L261.064 130.095ZM264.274 130.095V130.912H262.601V133.334C263.383 133.334 263.945 133.279 264.604 133.128L264.686 133.931C263.863 134.124 263.197 134.137 262.079 134.137H261.585V130.095H264.268H264.274ZM266.477 134.94V137.329H260.975V138.228H266.82V139.045H259.946V136.567H265.475V135.743H259.925V134.94H266.477ZM266.477 129.559V134.501H265.482V132.401H263.801V131.605H265.482V129.559H266.477ZM72.0251 146.032V155.662H71.0098V146.032H72.0251ZM69.089 146.897V150.404H65.6383V152.504C67.1956 152.504 68.5539 152.429 70.1591 152.161L70.2552 152.998C68.5539 153.287 67.1064 153.355 65.4119 153.355H64.5956V149.594H68.0462V147.727H64.5818V146.904H69.0821L69.089 146.897ZM81.3069 148.839V149.656H74.6937V146.375H75.7022V148.839H81.3069ZM82.3154 150.871V151.688H73.5275V150.871H82.3154ZM81.3755 154.577V155.414H74.6251V152.594H75.6404V154.577H81.3755ZM91.2747 146.032V155.641H90.2869V146.032H91.2747ZM89.2922 146.231V155.154H88.3249V150.486H86.3491V149.642H88.3249V146.231H89.2922ZM87.0077 147.178V148.016H84.3597V152.532C85.622 152.518 86.4658 152.47 87.4605 152.25L87.5428 153.108C86.4383 153.335 85.4985 153.376 83.9961 153.376H83.365V147.178H87.0077ZM98.5328 147.48C98.5191 148.585 99.4109 149.622 100.893 150.04L100.412 150.836C99.3011 150.521 98.4779 149.828 98.0457 148.949C97.6204 149.951 96.7629 150.72 95.5829 151.07L95.089 150.274C96.5914 149.821 97.5106 148.695 97.5106 147.487V147.357H95.4114V146.54H100.611V147.357H98.5397V147.473L98.5328 147.48ZM102.738 146.032V148.057H104.131V148.894H102.738V150.974H101.723V146.032H102.738ZM102.738 151.392V153.781H97.5518V154.749H103.074V155.545H96.5571V153.047H101.736V152.189H96.5365V151.392H102.745H102.738ZM114.901 145.998V148.249H116.307V149.086H114.901V151.283H113.879V145.998H114.901ZM114.901 151.736V153.966H109.715V154.769H115.237V155.545H108.72V153.252H113.9V152.504H108.7V151.742H114.908L114.901 151.736ZM113.09 146.849V147.652H107.369V146.849H109.729V145.95H110.744V146.849H113.09ZM110.229 148.016C111.636 148.016 112.555 148.62 112.555 149.594C112.555 150.569 111.636 151.159 110.229 151.159C108.823 151.159 107.89 150.569 107.89 149.594C107.89 148.62 108.809 148.016 110.229 148.016ZM110.229 148.743C109.406 148.743 108.871 149.079 108.878 149.594C108.871 150.109 109.406 150.418 110.229 150.418C111.053 150.418 111.588 150.109 111.601 149.594C111.588 149.079 111.053 148.743 110.229 148.743ZM124.444 146.876C124.43 148.153 125.994 149.354 127.881 149.601L127.483 150.438C125.912 150.184 124.533 149.375 123.915 148.242C123.284 149.381 121.905 150.191 120.348 150.438L119.943 149.601C121.83 149.354 123.373 148.167 123.387 146.876V146.355H124.451V146.876H124.444ZM128.278 151.379V152.216H124.375V155.634H123.38V152.216H119.525V151.379H128.285H128.278ZM135.022 152.381C135.022 153.204 135.427 154.083 136.298 154.598C137.183 154.035 137.615 153.115 137.615 152.381V151.921H138.61V152.381C138.61 153.376 139.262 154.344 140.517 154.749L140.016 155.497C139.07 155.167 138.425 154.529 138.089 153.74C137.78 154.515 137.21 155.222 136.332 155.586C135.413 155.236 134.823 154.557 134.535 153.774C134.185 154.529 133.554 155.167 132.648 155.504L132.134 154.756C133.369 154.316 134.034 153.321 134.041 152.388V151.928H135.029V152.388L135.022 152.381ZM139.653 146.039V151.509H138.63V146.039H139.653ZM134.439 146.567C135.907 146.567 136.991 147.501 136.991 148.839C136.991 150.178 135.907 151.09 134.439 151.09C132.971 151.09 131.88 150.171 131.88 148.839C131.88 147.508 132.971 146.567 134.439 146.567ZM134.439 147.439C133.527 147.425 132.875 147.995 132.875 148.846C132.875 149.697 133.527 150.253 134.439 150.253C135.351 150.253 135.996 149.683 135.996 148.846C135.996 148.009 135.344 147.432 134.439 147.439ZM145.546 146.19C147.713 146.19 148.976 146.766 148.976 147.844C148.976 148.922 147.713 149.505 145.546 149.505C143.378 149.505 142.115 148.915 142.115 147.844C142.115 146.773 143.378 146.19 145.546 146.19ZM145.546 146.945C144.016 146.945 143.165 147.281 143.179 147.844C143.172 148.434 144.016 148.743 145.546 148.743C147.075 148.743 147.926 148.434 147.926 147.844C147.926 147.254 147.082 146.945 145.546 146.945ZM149.929 150.095V150.912H141.176V150.095H149.929ZM148.825 151.653V153.904H143.227V154.762H149.092V155.545H142.232V153.163H147.816V152.415H142.218V151.653H148.818H148.825ZM154.196 148.86C154.196 150.466 155.246 152.134 156.728 152.765L156.172 153.561C155.04 153.06 154.141 152.003 153.695 150.72C153.25 152.093 152.344 153.259 151.233 153.808L150.643 153.005C152.09 152.333 153.16 150.521 153.174 148.867V147.851H150.979V147H156.391V147.851H154.203V148.867L154.196 148.86ZM158.614 146.032V155.641H157.599V146.032H158.614ZM167.814 146.629C167.814 149.073 166.133 150.809 163.341 151.598L162.936 150.802C165.159 150.178 166.524 148.976 166.723 147.466H163.43V146.629H167.814ZM170.832 152.058V155.62H169.817V152.882H164.329V152.058H170.832ZM170.832 146.039V151.66H169.817V149.333H167.869V148.482H169.817V146.039H170.832ZM180.32 146.032V151.749H179.304V149.313H177.514V148.475H179.304V146.032H180.32ZM177.102 152.017C179.119 152.017 180.354 152.683 180.354 153.829C180.354 154.975 179.119 155.627 177.102 155.641C175.085 155.627 173.844 154.975 173.857 153.829C173.844 152.683 175.092 152.017 177.102 152.017ZM177.102 152.806C175.696 152.806 174.866 153.17 174.866 153.829C174.866 154.488 175.703 154.845 177.102 154.838C178.509 154.852 179.346 154.474 179.346 153.829C179.346 153.184 178.509 152.806 177.102 152.806ZM175.751 147.727C175.751 148.949 176.615 150.13 178.07 150.624L177.541 151.427C176.464 151.049 175.669 150.281 175.257 149.333C174.832 150.411 173.995 151.276 172.842 151.694L172.307 150.878C173.796 150.363 174.708 149.066 174.708 147.734V147.521H172.629V146.698H177.809V147.521H175.751V147.727ZM187.393 149.107V149.93H185.52V151.138C186.37 151.104 187.221 151.042 188.003 150.96L188.079 151.708C186.034 151.99 183.784 152.044 181.98 152.044L181.843 151.228C182.666 151.228 183.578 151.214 184.511 151.187V149.93H182.7V146.636H187.31V147.46H183.716V149.1H187.393V149.107ZM189.766 146.032V153.239H188.744V146.032H189.766ZM190.061 154.611V155.435H183.427V152.724H184.45V154.611H190.068H190.061ZM198.767 146.032V149.752H200.31V150.589H198.767V155.662H197.745V146.032H198.767ZM196.18 146.952V147.775H192.709V152.422C194.321 152.422 195.536 152.346 196.901 152.099L197.031 152.957C195.529 153.225 194.253 153.28 192.462 153.266H191.694V146.952H196.187H196.18ZM209.517 149.237V150.075H207.246V154.152H206.231V150.075H204.042V154.152H203.013V150.075H200.797V149.237H209.523H209.517ZM219.004 149.237V150.075H216.733V154.152H215.718V150.075H213.53V154.152H212.501V150.075H210.285V149.237H219.011H219.004Z" fill="#171719"/>
</g>
</g>
<defs>
<clipPath id="clip0_1662_4593">
<rect width="335" height="300" rx="8" fill="white"/>
</clipPath>
<clipPath id="clip1_1662_4593">
<rect width="257.256" height="292.388" fill="white" transform="translate(39 58.6382)"/>
</clipPath>
</defs>
</svg>
