<svg width="335" height="300" viewBox="0 0 335 300" fill="none" xmlns="http://www.w3.org/2000/svg">
<rect width="335" height="300" rx="8" fill="#ADA2D7"/>
<g clip-path="url(#clip0_1662_4601)">
<path d="M56.3041 230.633C69.6029 230.633 80.3838 228.106 80.3838 224.988C80.3838 221.87 69.6029 219.343 56.3041 219.343C43.0053 219.343 32.2245 221.87 32.2245 224.988C32.2245 228.106 43.0053 230.633 56.3041 230.633Z" fill="#5843A8"/>
<path d="M56.3038 226.264C74.2299 226.264 88.7618 211.732 88.7618 193.806C88.7618 175.879 74.2299 161.348 56.3038 161.348C38.3778 161.348 23.8458 175.879 23.8458 193.806C23.8458 211.732 38.3778 226.264 56.3038 226.264Z" fill="url(#paint0_radial_1662_4601)"/>
<path d="M56.3039 203.865C70.3512 203.865 81.7388 192.393 81.7388 178.241C81.7388 164.089 70.3512 152.616 56.3039 152.616C42.2565 152.616 30.8689 164.089 30.8689 178.241C30.8689 192.393 42.2565 203.865 56.3039 203.865Z" fill="url(#paint1_radial_1662_4601)"/>
<path d="M56.3042 199.982C61.5457 199.982 65.7948 197.858 65.7948 195.237C65.7948 192.616 61.5457 190.492 56.3042 190.492C51.0626 190.492 46.8135 192.616 46.8135 195.237C46.8135 197.858 51.0626 199.982 56.3042 199.982Z" fill="url(#paint2_radial_1662_4601)"/>
<path d="M45.2417 217.425C45.0746 217.425 44.9038 217.38 44.7481 217.289C40.1053 214.464 38.3287 209.108 38.2565 208.88C38.0971 208.383 38.3704 207.847 38.8677 207.684C39.3651 207.525 39.9003 207.794 40.0636 208.295C40.0788 208.345 41.7073 213.215 45.7352 215.668C46.1831 215.941 46.3236 216.522 46.0541 216.97C45.8756 217.262 45.5643 217.425 45.2417 217.425Z" fill="#30216B"/>
<path d="M44.4104 217.878C45.2115 218.299 46.2061 217.995 46.6275 217.19C47.0488 216.389 46.7451 215.395 45.9403 214.973C45.1393 214.552 44.1447 214.856 43.7233 215.661C43.3019 216.462 43.6056 217.456 44.4104 217.878Z" fill="#30216B"/>
<path d="M67.366 217.426C67.0471 217.426 66.732 217.263 66.5536 216.97C66.2803 216.523 66.4245 215.938 66.8725 215.668C70.9003 213.216 72.5289 208.345 72.5441 208.296C72.7073 207.799 73.2426 207.525 73.7399 207.689C74.2372 207.852 74.5106 208.383 74.3511 208.881C74.279 209.108 72.5023 214.465 67.8595 217.289C67.7039 217.384 67.5368 217.426 67.366 217.426Z" fill="#30216B"/>
<path d="M66.6636 214.973C65.8626 215.395 65.5551 216.389 65.9765 217.19C66.3979 217.991 67.3925 218.299 68.1935 217.878C68.9945 217.456 69.302 216.462 68.8806 215.661C68.4592 214.86 67.4646 214.552 66.6636 214.973Z" fill="#30216B"/>
<path d="M48.9622 193.255C48.8483 191.619 49.8239 190.727 51.2362 190.598C52.2687 190.503 53.3241 191.038 53.4038 192.382C53.4987 193.984 52.5231 194.899 51.1147 195.054C50.0403 195.172 49.0989 194.542 48.9622 193.255Z" fill="#30216B"/>
<path d="M63.6463 193.255C63.7602 191.619 62.7846 190.727 61.3724 190.597C60.3398 190.503 59.2844 191.038 59.2047 192.382C59.1098 193.984 60.0854 194.899 61.4939 195.054C62.5682 195.172 63.5097 194.542 63.6463 193.255Z" fill="#30216B"/>
<path d="M49.8353 188.035C49.6037 188.035 49.3684 188.02 49.1368 187.993C45.0748 187.526 42.854 183.107 42.7591 182.917C42.5275 182.447 42.7211 181.877 43.1918 181.646C43.6626 181.414 44.2282 181.608 44.4636 182.078C44.4978 182.147 46.3427 185.765 49.3646 186.11C51.0919 186.307 52.9482 185.404 54.8881 183.426C54.8046 183.324 54.7249 183.217 54.649 183.111C51.8929 179.345 53.2254 177.519 53.9277 176.908C55.1121 175.879 57.1165 175.985 58.3085 177.143C58.8666 177.686 60.4686 179.74 57.5341 183.316C57.5113 183.346 57.4848 183.377 57.462 183.407C59.6107 185.336 62.3402 185.924 64.3788 185.579C65.4759 185.393 67.4234 184.755 68.0991 182.553C68.2547 182.052 68.7862 181.771 69.2835 181.923C69.7846 182.078 70.0656 182.606 69.9099 183.107C69.1962 185.427 67.2943 187.006 64.6901 187.446C61.7442 187.944 58.5515 186.907 56.194 184.808C54.0681 186.953 51.9384 188.035 49.8391 188.035H49.8353ZM55.9207 178.092C55.6322 178.092 55.3626 178.172 55.169 178.339C54.7021 178.745 54.6831 179.941 56.1675 181.976C57.3671 180.465 57.6708 179.174 56.9799 178.502C56.7027 178.233 56.2965 178.092 55.9169 178.092H55.9207Z" fill="#30216B"/>
<path d="M56.3034 205.676C53.8966 205.676 51.9377 203.717 51.9377 201.31V199.602C51.9377 199.185 52.2794 198.843 52.697 198.843H59.9099C60.3275 198.843 60.6691 199.185 60.6691 199.602V201.31C60.6691 203.717 58.7103 205.676 56.3034 205.676ZM53.4562 200.361V201.31C53.4562 202.882 54.7318 204.158 56.3034 204.158C57.8751 204.158 59.1506 202.882 59.1506 201.31V200.361H53.4562Z" fill="#30216B"/>
<path d="M51.5584 192.617C51.8939 192.617 52.1658 192.345 52.1658 192.01C52.1658 191.674 51.8939 191.402 51.5584 191.402C51.2229 191.402 50.951 191.674 50.951 192.01C50.951 192.345 51.2229 192.617 51.5584 192.617Z" fill="#F3F0FF"/>
<path d="M61.0494 192.617C61.3848 192.617 61.6568 192.345 61.6568 192.01C61.6568 191.675 61.3848 191.403 61.0494 191.403C60.7139 191.403 60.442 191.675 60.442 192.01C60.442 192.345 60.7139 192.617 61.0494 192.617Z" fill="#F3F0FF"/>
</g>
<g clip-path="url(#clip1_1662_4601)">
<path d="M302.832 69.441C307.286 69.441 310.894 73.0486 310.894 77.5027V164.882C310.894 169.336 307.286 172.944 302.832 172.944H96.6068V77.5027C96.6068 73.0486 100.214 69.441 104.669 69.441H302.832Z" fill="white" stroke="#E6B2C6" stroke-width="0.520115"/>
<path d="M115.388 87.5985H113.302V86.5739H115.388V85.1384H113.302V84.1137H115.388V82.4182H116.647V90.6672H115.388V87.5985ZM112.964 88.5607H107.711V83.1307H112.964V88.5607ZM111.716 84.1657H108.959V87.5257H111.716V84.1657ZM116.87 92.5552V93.5902H110.379C110.114 93.5902 109.911 93.5174 109.766 93.377C109.63 93.2365 109.568 93.0337 109.568 92.7632V89.7674H110.827V92.55H116.87V92.5552ZM127.777 82.4182V88.5347H126.518V85.9757H124.448V84.9511H126.518V82.4182H127.777ZM119.403 88.5815L118.467 87.7805C119.44 87.0628 120.126 86.4334 120.527 85.8821C120.927 85.3256 121.13 84.7119 121.14 84.0461H118.842V82.9955H124.672V84.0461H122.399V84.0825C122.399 84.7639 122.243 85.388 121.936 85.9549L121.999 86.0069L122.259 85.8093C122.373 85.7261 122.498 85.6845 122.633 85.6845C122.768 85.6845 122.878 85.7261 122.971 85.8093L125.093 87.5569L124.157 88.3787L121.973 86.4959C121.9 86.4386 121.827 86.4074 121.759 86.4074C121.692 86.4074 121.635 86.4334 121.583 86.4802C121.348 86.7975 121.062 87.1148 120.719 87.4425C120.376 87.7597 119.939 88.1394 119.398 88.5763L119.403 88.5815ZM126.539 89.1588H127.777V93.8035H121.546C121.281 93.8035 121.078 93.7306 120.932 93.5902C120.797 93.4498 120.735 93.2469 120.735 92.9765V89.1588H121.983V90.4695H126.539V89.1588ZM126.539 91.4525H121.983V92.7996H126.539V91.4525ZM130.768 84.9875C130.768 84.2698 131.09 83.6976 131.73 83.2659C132.37 82.8238 133.322 82.6054 134.575 82.6054C135.828 82.6054 136.78 82.8238 137.42 83.2659C138.06 83.6976 138.382 84.275 138.382 84.9875C138.382 85.7001 138.06 86.2826 137.42 86.7247C136.78 87.1564 135.828 87.3748 134.575 87.3748C133.322 87.3748 132.37 87.1564 131.73 86.7247C131.09 86.2826 130.768 85.7053 130.768 84.9875ZM137.046 85.0759V84.8887C137.046 84.4986 136.837 84.1813 136.421 83.9421C136.016 83.7028 135.397 83.578 134.575 83.578C133.753 83.578 133.134 83.6976 132.729 83.9421C132.323 84.1813 132.115 84.4986 132.115 84.8887V85.0759C132.115 85.466 132.318 85.7833 132.729 86.0225C133.134 86.2618 133.753 86.3866 134.575 86.3866C135.397 86.3866 136.016 86.267 136.421 86.0225C136.837 85.7833 137.046 85.466 137.046 85.0759ZM139.693 88.259V89.3461H129.457V88.259H139.693ZM130.893 92.7424V90.2095H132.167V92.5188H138.398V93.5694H131.709C131.444 93.5694 131.241 93.4966 131.095 93.3562C130.96 93.2157 130.898 93.0129 130.898 92.7424H130.893ZM152.951 82.4182V93.351H151.676V82.4182H152.951ZM147.796 86.8859C147.921 86.8859 148.03 86.9431 148.119 87.0628L150.402 89.9702L149.429 90.792L147.131 87.7597C147.099 87.7077 147.058 87.6869 147.006 87.6869C146.954 87.6869 146.917 87.7129 146.891 87.7597C146.668 88.2278 146.376 88.7063 146.018 89.1952C145.659 89.679 145.18 90.2719 144.582 90.9792L143.609 90.1679C144.301 89.4033 144.837 88.7271 145.222 88.1446C145.612 87.5621 145.898 86.9796 146.07 86.397C146.252 85.8041 146.345 85.1436 146.345 84.4102V83.1359H147.619V84.3946C147.619 85.4088 147.463 86.3346 147.146 87.1668L147.209 87.2032L147.448 87.016C147.562 86.9223 147.682 86.8807 147.796 86.8807V86.8859ZM164.118 82.4182V89.3357H162.859V87.5153H161.2V86.4802H162.859V82.4234H164.118V82.4182ZM159.92 83.6924H156.524V82.6574H159.92V83.6924ZM158.063 89.1588C157.533 89.1588 157.065 89.0808 156.664 88.9196C156.264 88.7531 155.957 88.5347 155.738 88.259C155.53 87.9782 155.426 87.6609 155.426 87.3124C155.426 86.6155 155.759 86.1162 156.425 85.8249V85.7365H154.703V84.7275H161.392V85.7365H159.697V85.8249C160.362 86.1162 160.695 86.6103 160.695 87.3124C160.695 87.6609 160.586 87.9782 160.373 88.259C160.165 88.5347 159.863 88.7531 159.462 88.9196C159.062 89.0756 158.599 89.1588 158.063 89.1588ZM157.939 88.1238H158.178C158.578 88.1238 158.901 88.025 159.15 87.8221C159.41 87.6245 159.535 87.3488 159.535 87.0004C159.535 86.6519 159.405 86.3762 159.15 86.1786C158.901 85.9809 158.578 85.8769 158.178 85.8769H157.939C157.538 85.8769 157.21 85.9757 156.95 86.1786C156.701 86.3762 156.576 86.6519 156.576 87.0004C156.576 87.3488 156.701 87.6245 156.95 87.8221C157.21 88.0198 157.538 88.1238 157.939 88.1238ZM157.075 89.9182H164.118V93.7983H157.887C157.621 93.7983 157.418 93.7254 157.273 93.585C157.138 93.4446 157.075 93.2417 157.075 92.9713V89.913V89.9182ZM158.339 92.7632H162.859V90.9532H158.339V92.7632ZM173.937 82.4182H175.212V93.351H173.937V82.4182ZM166.073 86.8495C166.073 85.6117 166.344 84.6754 166.885 84.0513C167.436 83.4168 168.164 83.1047 169.069 83.1047C169.974 83.1047 170.687 83.422 171.227 84.0513C171.779 84.6754 172.049 85.6065 172.049 86.8495C172.049 88.0926 171.774 89.0132 171.227 89.6477C170.687 90.2823 169.969 90.5944 169.069 90.5944C168.169 90.5944 167.446 90.2771 166.895 89.6477C166.344 89.0132 166.073 88.0822 166.073 86.8495ZM170.702 87.4581V86.2358C170.702 85.5596 170.551 85.0499 170.255 84.7015C169.953 84.3426 169.558 84.1657 169.069 84.1657C168.58 84.1657 168.169 84.3426 167.873 84.7015C167.571 85.0499 167.425 85.5648 167.425 86.2358V87.4581C167.425 88.1238 167.576 88.6335 167.873 88.9924C168.174 89.3513 168.57 89.5281 169.069 89.5281C169.568 89.5281 169.953 89.3513 170.255 88.9924C170.557 88.6335 170.702 88.1238 170.702 87.4581ZM190.435 87.6349H188.688V93.3666H187.429V82.4338H188.688V86.5791H190.435V87.6401V87.6349ZM185.806 86.8495C185.806 88.0822 185.536 89.0132 184.995 89.6477C184.464 90.2823 183.752 90.5944 182.862 90.5944C181.973 90.5944 181.245 90.2771 180.704 89.6477C180.163 89.0132 179.893 88.0822 179.893 86.8495C179.893 85.6169 180.163 84.6754 180.704 84.0513C181.245 83.4168 181.963 83.1047 182.862 83.1047C183.762 83.1047 184.464 83.422 184.995 84.0513C185.536 84.6754 185.806 85.6065 185.806 86.8495ZM184.47 86.2098C184.47 85.5544 184.319 85.0499 184.022 84.7015C183.731 84.3426 183.346 84.1657 182.862 84.1657C182.379 84.1657 181.978 84.3426 181.677 84.7015C181.385 85.0499 181.24 85.5544 181.24 86.2098V87.4841C181.24 88.1394 181.385 88.6491 181.677 89.008C181.978 89.3565 182.374 89.5333 182.862 89.5333C183.351 89.5333 183.731 89.3565 184.022 89.008C184.324 88.6491 184.47 88.1446 184.47 87.4841V86.2098ZM200.416 82.4182V93.351H199.142V82.4182H200.416ZM197.795 88.956L197.946 89.991C196.557 90.2667 194.877 90.4019 192.901 90.4019H191.626V83.2867H192.885V89.3305C194.783 89.3305 196.417 89.2056 197.79 88.956H197.795ZM212.696 87.6349H210.949V93.3666H209.69V82.4338H210.949V86.5791H212.696V87.6401V87.6349ZM208.629 89.3461L208.78 90.3551C207.433 90.6048 205.789 90.7296 203.849 90.7296H202.59V86.3086H206.325V84.275H202.554V83.2243H207.573V87.3436H203.839V89.6894H203.901C205.721 89.6894 207.303 89.5749 208.634 89.3409L208.629 89.3461ZM225.912 82.4182V93.351H224.69V87.5829H223.39V93.0493H222.168V82.5898H223.39V86.5479H224.69V82.4182H225.912ZM221.294 89.1588L221.455 90.1679C220.384 90.4279 219.104 90.5527 217.622 90.5527H216.649V83.526H220.794V84.587H217.871V89.5177H217.934C219.255 89.5177 220.378 89.3981 221.294 89.1536V89.1588ZM237.906 87.947H236.294V93.351H235.046V82.4182H236.294V86.9015H237.906V87.9522V87.947ZM232.398 83.9265H229.038V82.8915H232.398V83.9265ZM234.271 90.2927L234.385 91.2913C233.496 91.4317 232.409 91.5462 231.129 91.6294C229.855 91.7022 228.549 91.7438 227.207 91.7438L227.093 90.6828C228.201 90.6828 229.184 90.6672 230.052 90.6308V89.3305C229.413 89.2369 228.908 89.0288 228.544 88.6959C228.185 88.3631 228.008 87.9678 228.008 87.5101C228.008 86.8183 228.352 86.3294 229.033 86.0381V85.9653H227.296V84.9563H234.063V85.9653H232.367V86.0381C233.048 86.3294 233.392 86.8183 233.392 87.5101C233.392 87.9782 233.199 88.3735 232.819 88.7063C232.445 89.0392 231.93 89.2473 231.27 89.3305V90.5683C232.507 90.5007 233.511 90.4123 234.276 90.2927H234.271ZM230.567 88.3475H230.827C231.243 88.3475 231.582 88.2486 231.836 88.0458C232.096 87.8377 232.221 87.5569 232.221 87.2084C232.221 86.8599 232.091 86.5843 231.836 86.3866C231.576 86.189 231.243 86.085 230.827 86.085H230.567C230.151 86.085 229.813 86.1838 229.558 86.3866C229.298 86.5843 229.173 86.8599 229.173 87.2084C229.173 87.5569 229.303 87.8377 229.558 88.0458C229.818 88.2434 230.151 88.3475 230.567 88.3475ZM247.289 85.9757V88.1082H248.974V89.1692H247.289V93.3614H246.03V82.4286H247.289V84.9251H248.974V85.9757H247.289ZM244.402 86.8495C244.402 88.0822 244.132 89.0132 243.591 89.6477C243.06 90.2823 242.348 90.5944 241.459 90.5944C240.569 90.5944 239.841 90.2771 239.3 89.6477C238.759 89.0132 238.489 88.0822 238.489 86.8495C238.489 85.6169 238.759 84.6754 239.3 84.0513C239.841 83.4168 240.559 83.1047 241.459 83.1047C242.358 83.1047 243.06 83.422 243.591 84.0513C244.132 84.6754 244.402 85.6065 244.402 86.8495ZM243.066 86.2098C243.066 85.5544 242.915 85.0499 242.618 84.7015C242.327 84.3426 241.942 84.1657 241.459 84.1657C240.975 84.1657 240.574 84.3426 240.273 84.7015C239.981 85.0499 239.836 85.5544 239.836 86.2098V87.4841C239.836 88.1394 239.981 88.6491 240.273 89.008C240.574 89.3565 240.97 89.5333 241.459 89.5333C241.947 89.5333 242.327 89.3565 242.618 89.008C242.92 88.6491 243.066 88.1446 243.066 87.4841V86.2098ZM250.966 92.2171C250.659 92.2171 250.431 92.1391 250.28 91.9779C250.129 91.8114 250.056 91.6086 250.056 91.3641V91.1769C250.056 90.9376 250.129 90.7348 250.28 90.5787C250.431 90.4123 250.659 90.3291 250.966 90.3291C251.273 90.3291 251.502 90.4123 251.653 90.5787C251.804 90.7348 251.876 90.9376 251.876 91.1769V91.3641C251.876 91.6034 251.804 91.8114 251.653 91.9779C251.502 92.1339 251.273 92.2171 250.966 92.2171ZM116.896 99.0618V109.995H115.658V99.0618H116.896ZM113.177 99.2335H114.4V109.693H113.177V103.587H111.118V102.526H113.177V99.2283V99.2335ZM112.304 105.662L112.455 106.687C111.43 106.936 110.145 107.061 108.595 107.061H107.623V100.159H108.835V106.016H108.923C110.223 106.016 111.347 105.901 112.304 105.667V105.662ZM128.89 104.279H127.143V110.01H125.884V99.0774H127.143V103.223H128.89V104.284V104.279ZM118.8 99.9356H123.819V101.746C123.819 102.677 123.679 103.472 123.393 104.128C123.112 104.778 122.638 105.381 121.983 105.938C121.333 106.494 120.412 107.103 119.211 107.758L118.462 106.796C119.559 106.224 120.397 105.704 120.969 105.236C121.541 104.762 121.947 104.258 122.181 103.727C122.415 103.186 122.529 102.526 122.529 101.74V101.002H118.795V99.9304L118.8 99.9356ZM141.831 99.0618V109.995H140.572V103.888H138.523C138.465 104.996 138.169 105.834 137.638 106.395C137.113 106.952 136.432 107.233 135.589 107.233C134.7 107.233 133.982 106.916 133.441 106.286C132.9 105.652 132.63 104.721 132.63 103.488C132.63 102.255 132.895 101.314 133.431 100.69C133.972 100.055 134.689 99.7432 135.589 99.7432C136.395 99.7432 137.056 100.003 137.576 100.518C138.101 101.033 138.413 101.803 138.512 102.827H140.572V99.0566H141.831V99.0618ZM137.212 102.869C137.212 102.203 137.061 101.694 136.765 101.345C136.473 100.986 136.083 100.809 135.589 100.809C135.095 100.809 134.705 100.986 134.403 101.345C134.112 101.694 133.966 102.203 133.966 102.869V104.117C133.966 104.783 134.112 105.293 134.403 105.652C134.705 106 135.1 106.177 135.589 106.177C136.078 106.177 136.473 106 136.765 105.652C137.066 105.293 137.212 104.783 137.212 104.117V102.869ZM151.864 101.959V99.0618H153.112V107.311H151.864V102.994H150.028V101.959H151.864ZM146.897 105.215C146.366 105.381 145.617 105.464 144.65 105.464H143.864V99.8368H146.673V100.846H145.076V104.44C145.809 104.429 146.371 104.372 146.761 104.263L146.897 105.21V105.215ZM148.155 105.49H147.245V99.8368H150.293V100.846H148.472V104.476C149.346 104.466 150.074 104.403 150.657 104.279L150.792 105.241C150.517 105.308 150.152 105.366 149.695 105.418C149.237 105.47 148.727 105.49 148.16 105.49H148.155ZM153.325 109.199V110.234H146.72C146.454 110.234 146.252 110.161 146.106 110.021C145.971 109.88 145.908 109.677 145.908 109.407V106.447H147.183V109.194H153.325V109.199ZM168.18 104.279H166.432V110.01H165.173V99.0774H166.432V103.223H168.18V104.284V104.279ZM161.564 103.54C161.689 103.54 161.803 103.597 161.902 103.717L164.149 106.614L163.161 107.436L160.903 104.414C160.877 104.362 160.836 104.341 160.778 104.341C160.737 104.341 160.695 104.367 160.654 104.414C160.43 104.887 160.139 105.371 159.78 105.86C159.421 106.349 158.958 106.936 158.381 107.618L157.418 106.806C158.1 106.042 158.63 105.366 159.005 104.783C159.39 104.201 159.665 103.618 159.842 103.035C160.024 102.443 160.118 101.782 160.118 101.049V99.7744H161.392V101.033C161.392 102.084 161.236 103.004 160.929 103.805L160.992 103.857L161.231 103.67C161.345 103.576 161.46 103.535 161.569 103.535L161.564 103.54ZM179.305 101.818V102.879H177.594V105.75H176.335V99.0618H177.594V101.818H179.305ZM175.326 105.054C173.994 105.303 172.346 105.428 170.385 105.428H169.173V101.943H172.907V100.633H169.137V99.6079H174.119V102.952H170.374V104.414H170.463C172.252 104.414 173.823 104.294 175.17 104.05L175.331 105.048L175.326 105.054ZM170.681 106.328H177.609V110.447H171.493C171.227 110.447 171.025 110.374 170.879 110.234C170.744 110.093 170.681 109.891 170.681 109.62V106.323V106.328ZM171.956 109.407H176.335V107.373H171.956V109.407ZM189.327 99.0618V107.311H188.069V99.0618H189.327ZM180.189 102.495C180.189 101.896 180.314 101.382 180.564 100.945C180.813 100.503 181.156 100.164 181.599 99.9356C182.041 99.7016 182.545 99.5871 183.122 99.5871C183.7 99.5871 184.204 99.7016 184.646 99.9356C185.094 100.17 185.447 100.508 185.697 100.945C185.947 101.376 186.072 101.891 186.072 102.495C186.072 103.098 185.947 103.602 185.697 104.045C185.447 104.476 185.099 104.809 184.646 105.043C184.204 105.277 183.7 105.392 183.122 105.392C182.545 105.392 182.041 105.277 181.599 105.043C181.156 104.809 180.813 104.476 180.564 104.045C180.314 103.602 180.189 103.088 180.189 102.495ZM184.719 102.791V102.193C184.719 101.72 184.574 101.34 184.282 101.059C183.991 100.778 183.606 100.633 183.122 100.633C182.639 100.633 182.254 100.773 181.963 101.059C181.671 101.345 181.526 101.72 181.526 102.193V102.791C181.526 103.264 181.671 103.644 181.963 103.925C182.254 104.206 182.639 104.351 183.122 104.351C183.606 104.351 183.991 104.211 184.282 103.925C184.574 103.644 184.719 103.264 184.719 102.791ZM182.249 109.407V106.411H183.507V109.194H189.551V110.229H183.06C182.795 110.229 182.592 110.156 182.446 110.015C182.311 109.875 182.249 109.672 182.249 109.402V109.407ZM200.416 99.0618V109.995H199.142V99.0618H200.416ZM195.335 103.769C195.475 103.769 195.595 103.826 195.699 103.946L197.946 106.541L196.984 107.363L194.7 104.606C194.643 104.549 194.586 104.518 194.539 104.518C194.492 104.518 194.445 104.544 194.404 104.591C194.18 105.022 193.889 105.47 193.53 105.927C193.171 106.375 192.703 106.916 192.12 107.54L191.158 106.754C191.84 106.073 192.375 105.454 192.771 104.908C193.166 104.362 193.447 103.816 193.618 103.275C193.8 102.723 193.894 102.12 193.894 101.465V101.09H191.559V100.029H197.488V101.09H195.168V101.517C195.168 102.458 195.007 103.301 194.679 104.05L194.742 104.102L195.002 103.904C195.127 103.821 195.241 103.779 195.34 103.779L195.335 103.769ZM206.346 103.27L205.685 102.344C206.699 102 207.495 101.683 208.067 101.382C208.65 101.075 209.061 100.763 209.305 100.445C209.544 100.128 209.669 99.7744 209.669 99.3843V99.1242H210.907V99.4467C210.907 99.8108 210.855 100.144 210.746 100.435C210.637 100.716 210.465 100.981 210.236 101.22L210.35 101.257L210.761 100.971C210.928 100.856 211.089 100.794 211.25 100.794C211.36 100.794 211.469 100.82 211.573 100.867L214.73 102.302L214.054 103.228L210.595 101.595C210.46 101.527 210.335 101.496 210.21 101.496C210.085 101.496 209.95 101.532 209.81 101.61H209.799C209.451 101.886 208.998 102.151 208.452 102.411C207.901 102.671 207.204 102.957 206.356 103.275L206.346 103.27ZM215.323 103.956V105.007H205.087V103.956H209.581V102.697H210.839V103.956H215.323ZM207.844 109.485H214.121V110.51H207.453C207.188 110.51 206.985 110.437 206.84 110.296C206.704 110.156 206.642 109.953 206.642 109.683V107.659H212.608V106.812H206.564V105.787H213.804V108.622H207.838V109.485H207.844ZM225.663 99.0618V105.652H224.404V99.0618H225.663ZM217.362 105.475L216.425 104.663C217.091 104.164 217.616 103.717 217.996 103.316C218.386 102.911 218.672 102.51 218.844 102.12C219.026 101.72 219.12 101.283 219.12 100.809V100.799H216.821V99.7484H222.698V100.799H220.378V100.872C220.378 101.59 220.222 102.224 219.915 102.781L219.988 102.833L220.248 102.645C220.363 102.552 220.482 102.51 220.597 102.51C220.722 102.51 220.841 102.557 220.961 102.645L223.109 104.429L222.173 105.251L219.952 103.316C219.884 103.264 219.817 103.244 219.754 103.244C219.681 103.244 219.619 103.27 219.567 103.316C219.343 103.634 219.057 103.951 218.719 104.279C218.376 104.596 217.923 104.996 217.356 105.475H217.362ZM218.402 106.265H225.668V110.562H224.43V107.326H218.402V106.265ZM237.906 104.502H236.221V110.005H234.962V99.0722H236.221V103.441H237.906V104.502ZM232.513 100.747H228.867V99.6756H232.513V100.747ZM227.259 101.98H233.938V103.015H232.253V103.088C232.96 103.478 233.314 104.175 233.314 105.173C233.314 105.704 233.199 106.172 232.965 106.572C232.741 106.962 232.424 107.269 232.018 107.482C231.618 107.701 231.165 107.805 230.656 107.805C230.146 107.805 229.688 107.696 229.283 107.482C228.882 107.264 228.565 106.962 228.336 106.572C228.102 106.172 227.988 105.709 227.988 105.173C227.988 104.175 228.341 103.483 229.049 103.103V103.015H227.265V101.98H227.259ZM232.086 104.663C232.086 104.18 231.956 103.81 231.701 103.55C231.441 103.285 231.093 103.15 230.651 103.15C230.208 103.15 229.855 103.285 229.59 103.55C229.329 103.816 229.205 104.185 229.205 104.663V105.236C229.205 105.709 229.34 106.078 229.605 106.349C229.87 106.614 230.219 106.749 230.656 106.749C231.093 106.749 231.436 106.614 231.691 106.349C231.956 106.083 232.091 105.714 232.091 105.236V104.663H232.086ZM248.173 99.0618V109.995H246.951V99.0618H248.173ZM244.517 99.2335H245.713V109.693H244.517V104.263H242.821C242.582 104.871 242.197 105.438 241.672 105.959C241.157 106.484 240.424 107.072 239.477 107.717L238.64 106.895C239.539 106.302 240.221 105.776 240.689 105.308C241.162 104.84 241.495 104.357 241.687 103.847C241.88 103.332 241.973 102.697 241.973 101.948V101.173H238.978V100.164H243.196V101.922C243.196 102.422 243.165 102.848 243.107 103.207H244.517V99.2231V99.2335ZM262.788 107.722V108.783H252.553V107.722H257.046V105.412H253.915V99.6339H255.164V101.517H260.146V99.6339H261.395V105.412H258.31V107.722H262.794H262.788ZM255.164 104.367H260.146V102.557H255.164V104.367ZM273.134 99.0618V109.995H271.859V105.464H269.935V104.429H271.859V102.406H269.935V101.371H271.859V99.0618H273.134ZM269.763 103.493C269.763 104.726 269.493 105.657 268.952 106.291C268.421 106.926 267.714 107.238 266.83 107.238C265.946 107.238 265.223 106.921 264.682 106.291C264.151 105.657 263.881 104.726 263.881 103.493C263.881 102.261 264.146 101.319 264.682 100.695C265.223 100.06 265.94 99.7484 266.83 99.7484C267.719 99.7484 268.421 100.066 268.952 100.695C269.493 101.319 269.763 102.25 269.763 103.493ZM268.442 102.853C268.442 102.188 268.296 101.678 268.005 101.33C267.714 100.971 267.324 100.794 266.83 100.794C266.336 100.794 265.935 100.971 265.644 101.33C265.353 101.678 265.207 102.188 265.207 102.853V104.128C265.207 104.793 265.353 105.303 265.644 105.662C265.935 106.011 266.33 106.187 266.83 106.187C267.329 106.187 267.714 106.011 268.005 105.662C268.296 105.303 268.442 104.793 268.442 104.128V102.853ZM279.307 100.534H275.963V99.4727H283.9V100.534H280.592C280.566 101.147 280.368 101.688 279.994 102.157L280.046 102.167L280.368 101.928C280.509 101.818 280.66 101.766 280.816 101.766C280.93 101.766 281.05 101.798 281.164 101.855L284.399 103.504L283.702 104.466L280.217 102.604C280.103 102.536 279.983 102.505 279.869 102.505C279.77 102.505 279.671 102.536 279.583 102.593C279.24 102.9 278.787 103.212 278.22 103.53C277.664 103.836 276.962 104.164 276.124 104.502L275.448 103.556C276.79 103.041 277.747 102.552 278.329 102.094C278.912 101.626 279.234 101.106 279.302 100.534H279.307ZM285.049 106.473H280.566V110.432H279.307V106.473H274.814V105.412H285.049V106.473ZM294.755 103.478H287.478V99.4727H288.737V102.443H294.755V103.478ZM296.18 104.663V105.75H285.944V104.663H296.18ZM288.654 109.157H294.885V110.208H288.196C287.931 110.208 287.728 110.135 287.582 109.995C287.447 109.854 287.385 109.651 287.385 109.381V106.734H288.659V109.157H288.654ZM116.896 115.705V126.638H115.674V115.705H116.896ZM113.24 115.877H114.436V126.337H113.24V120.907H111.544C111.305 121.515 110.92 122.082 110.395 122.602C109.88 123.128 109.147 123.715 108.2 124.36L107.363 123.538C108.262 122.945 108.944 122.42 109.412 121.952C109.885 121.484 110.218 121 110.41 120.491C110.603 119.976 110.697 119.341 110.697 118.592V117.817H107.701V116.808H111.919V118.566C111.919 119.065 111.888 119.492 111.83 119.851H113.24V115.867V115.877ZM130.976 115.705V126.638H129.764V115.705H130.976ZM127.345 115.877H128.542V126.337H127.345V120.418H125.775V119.383H127.345V115.877ZM124.662 120.558C124.802 120.558 124.922 120.626 125.026 120.756L126.81 123.289L125.91 124.038L124.1 121.39C124.058 121.338 124.017 121.318 123.975 121.318C123.923 121.318 123.887 121.344 123.861 121.39C123.679 121.796 123.434 122.228 123.138 122.675C122.841 123.122 122.462 123.642 122.014 124.225L121.13 123.486C121.702 122.763 122.149 122.124 122.467 121.562C122.789 120.995 123.023 120.439 123.164 119.887C123.315 119.336 123.387 118.733 123.387 118.067V117.843H121.442V116.782H126.461V117.843H124.578V118.056C124.578 119.003 124.433 119.898 124.141 120.73L124.204 120.766L124.365 120.652C124.459 120.584 124.558 120.553 124.667 120.553L124.662 120.558ZM141.857 115.705V121.411H140.598V115.705H141.857ZM132.718 118.623C132.718 118.093 132.843 117.625 133.093 117.224C133.342 116.819 133.686 116.506 134.128 116.288C134.575 116.07 135.085 115.966 135.652 115.966C136.219 115.966 136.723 116.075 137.16 116.288C137.607 116.506 137.961 116.819 138.211 117.224C138.46 117.625 138.585 118.088 138.585 118.623C138.585 119.159 138.46 119.627 138.211 120.033C137.961 120.433 137.612 120.74 137.16 120.959C136.718 121.177 136.213 121.281 135.652 121.281C135.09 121.281 134.58 121.172 134.128 120.959C133.686 120.74 133.342 120.433 133.093 120.033C132.843 119.627 132.718 119.154 132.718 118.623ZM137.248 118.826V118.426C137.248 117.994 137.098 117.646 136.801 117.391C136.51 117.131 136.125 117.006 135.652 117.006C135.178 117.006 134.788 117.136 134.492 117.391C134.201 117.651 134.055 117.994 134.055 118.426V118.826C134.055 119.268 134.201 119.617 134.492 119.877C134.783 120.126 135.168 120.251 135.652 120.251C136.135 120.251 136.52 120.126 136.811 119.877C137.103 119.617 137.248 119.268 137.248 118.826ZM134.752 126.342V124.069H140.582V123.122H134.689V122.051H141.867V125.12H136.037V126.082H142.127V127.169H135.563C135.298 127.169 135.095 127.096 134.949 126.956C134.814 126.815 134.752 126.612 134.752 126.342ZM150.979 117.063H147.734V116.064H155.484V117.063H152.248C152.207 117.604 152.02 118.072 151.687 118.462L151.749 118.498L152.098 118.249C152.222 118.155 152.358 118.114 152.509 118.114C152.633 118.114 152.758 118.145 152.883 118.202L155.967 119.601L155.307 120.527L151.936 118.904C151.822 118.847 151.702 118.816 151.588 118.816C151.474 118.816 151.359 118.847 151.25 118.904L151.187 118.941C150.511 119.466 149.409 119.996 147.88 120.537L147.229 119.638C148.119 119.331 148.826 119.045 149.351 118.79C149.877 118.525 150.262 118.254 150.511 117.978C150.771 117.703 150.922 117.401 150.974 117.068L150.979 117.063ZM152.243 122.181V123.018C153.242 123.086 154.006 123.31 154.542 123.694C155.083 124.079 155.354 124.563 155.354 125.156C155.354 125.582 155.208 125.957 154.917 126.279C154.636 126.602 154.209 126.852 153.642 127.028C153.086 127.21 152.405 127.304 151.609 127.304C150.813 127.304 150.126 127.21 149.559 127.028C149.003 126.852 148.576 126.602 148.285 126.279C148.004 125.957 147.859 125.582 147.859 125.156C147.859 124.563 148.124 124.079 148.66 123.694C149.201 123.31 149.976 123.086 150.979 123.018V122.181H146.486V121.12H156.721V122.181H152.238H152.243ZM151.604 123.981C150.787 123.981 150.178 124.085 149.768 124.293C149.362 124.501 149.154 124.761 149.154 125.078V125.229C149.154 125.546 149.357 125.806 149.768 126.014C150.173 126.222 150.787 126.326 151.604 126.326C152.42 126.326 153.039 126.222 153.44 126.014C153.84 125.806 154.038 125.546 154.038 125.229V125.078C154.038 124.761 153.84 124.501 153.44 124.293C153.039 124.085 152.431 123.981 151.604 123.981ZM158.755 119.06C158.755 118.504 158.901 117.999 159.192 117.552C159.494 117.105 159.936 116.751 160.529 116.491C161.127 116.231 161.865 116.106 162.739 116.106C163.613 116.106 164.346 116.236 164.934 116.491C165.532 116.751 165.98 117.105 166.271 117.552C166.572 117.999 166.718 118.504 166.718 119.06C166.718 119.617 166.567 120.132 166.271 120.584C165.98 121.026 165.532 121.38 164.934 121.645C164.341 121.905 163.613 122.03 162.739 122.03C161.865 122.03 161.127 121.9 160.529 121.645C159.936 121.38 159.494 121.026 159.192 120.584C158.901 120.137 158.755 119.627 158.755 119.06ZM160.113 119.211C160.113 119.736 160.331 120.168 160.773 120.511C161.215 120.855 161.865 121.021 162.734 121.021C163.603 121.021 164.253 120.849 164.695 120.511C165.137 120.168 165.355 119.736 165.355 119.211V118.925C165.355 118.394 165.137 117.958 164.695 117.614C164.263 117.271 163.608 117.105 162.734 117.105C161.86 117.105 161.205 117.276 160.763 117.614C160.331 117.958 160.113 118.394 160.113 118.925V119.211ZM167.852 124.365V125.426H157.616V124.365H160.113V122.358H161.361V124.365H164.107V122.358H165.345V124.365H167.852ZM178.447 115.705V126.638H177.235V121.047H175.987V126.342H174.775V115.882H175.987V120.012H177.235V115.705H178.447ZM173.178 117.578H169.896V116.553H173.178V117.578ZM168.658 118.712H174.265V119.71H172.918V119.773C173.526 120.132 173.828 120.782 173.828 121.734C173.828 122.514 173.61 123.133 173.178 123.58C172.751 124.022 172.19 124.241 171.493 124.241C170.796 124.241 170.218 124.022 169.797 123.58C169.371 123.133 169.163 122.514 169.163 121.734C169.163 120.792 169.464 120.142 170.062 119.788V119.716H168.663V118.717L168.658 118.712ZM172.642 121.182C172.642 120.756 172.538 120.428 172.33 120.194C172.132 119.96 171.852 119.846 171.493 119.846C171.134 119.846 170.853 119.96 170.645 120.194C170.447 120.428 170.343 120.756 170.343 121.182V121.879C170.343 122.295 170.447 122.623 170.655 122.867C170.874 123.102 171.149 123.216 171.493 123.216C171.836 123.216 172.106 123.102 172.315 122.867C172.533 122.628 172.637 122.295 172.637 121.879V121.182H172.642ZM181.234 125.504C180.928 125.504 180.699 125.426 180.548 125.265C180.397 125.099 180.324 124.896 180.324 124.651V124.464C180.324 124.225 180.397 124.022 180.548 123.866C180.699 123.7 180.928 123.616 181.234 123.616C181.541 123.616 181.77 123.7 181.921 123.866C182.072 124.022 182.145 124.225 182.145 124.464V124.651C182.145 124.891 182.072 125.099 181.921 125.265C181.77 125.421 181.541 125.504 181.234 125.504ZM194.773 118.062V115.7H196.021V121.442H194.773V119.045H192.937V118.056H194.773V118.062ZM189.806 120.948C189.275 121.115 188.526 121.198 187.559 121.198H186.774V116.205H189.582V117.177H187.97V120.21C188.646 120.199 189.208 120.142 189.666 120.033L189.801 120.943L189.806 120.948ZM191.065 121.208H190.154V116.205H193.202V117.177H191.366V120.246C192.251 120.236 192.984 120.173 193.577 120.048L193.702 120.974C193.436 121.042 193.072 121.099 192.615 121.151C192.157 121.193 191.642 121.213 191.065 121.213V121.208ZM196.281 126.092V127.164H189.614C189.348 127.164 189.145 127.091 189 126.95C188.865 126.81 188.802 126.607 188.802 126.337V124.09H194.742V123.143H188.74V122.082H196.016V125.13H190.076V126.092H196.281ZM206.991 115.705V126.638H205.716V115.705H206.991ZM204.478 122.618L204.629 123.642C203.256 123.892 201.571 124.017 199.574 124.017H198.289V119.596H202.07V117.573H198.253V116.512H203.334V120.641H199.553V122.977H199.589C201.431 122.977 203.058 122.857 204.484 122.613L204.478 122.618ZM217.518 120.121H210.241V116.116H211.5V119.086H217.518V120.121ZM218.943 121.307V122.394H208.707V121.307H218.943ZM211.417 125.801H217.648V126.852H210.959C210.694 126.852 210.491 126.779 210.345 126.638C210.21 126.498 210.148 126.295 210.148 126.025V123.377H211.422V125.801H211.417ZM230.973 120.022H228.789V118.961H230.973V115.705H232.232V123.955H230.973V120.022ZM223.795 122.571L223.109 121.624C224.175 121.193 224.992 120.797 225.553 120.439C226.12 120.08 226.516 119.71 226.739 119.325C226.973 118.935 227.088 118.467 227.088 117.926V117.515H223.457V116.444H228.362V117.807C228.362 118.571 228.227 119.216 227.951 119.742C227.676 120.267 227.213 120.745 226.568 121.177C225.928 121.609 225.002 122.077 223.795 122.576V122.571ZM232.461 125.843V126.878H225.97C225.704 126.878 225.501 126.805 225.356 126.664C225.221 126.524 225.158 126.321 225.158 126.051V123.055H226.417V125.837H232.461V125.843ZM247.424 118.415V119.466H245.729V122.212H244.47V115.711H245.729V118.42H247.424V118.415ZM243.367 121.135C241.994 121.401 240.361 121.536 238.463 121.536H237.24V116.293H242.286V117.354H238.515V120.501C240.377 120.501 241.947 120.381 243.222 120.137L243.373 121.135H243.367ZM245.817 124.802C245.817 125.27 245.682 125.686 245.406 126.051C245.141 126.425 244.74 126.716 244.21 126.924C243.685 127.143 243.05 127.247 242.301 127.247C241.552 127.247 240.912 127.138 240.377 126.924C239.846 126.716 239.441 126.425 239.165 126.051C238.889 125.686 238.754 125.27 238.754 124.802C238.754 124.334 238.889 123.918 239.165 123.554C239.441 123.18 239.841 122.888 240.377 122.68C240.907 122.462 241.552 122.358 242.301 122.358C243.05 122.358 243.685 122.467 244.21 122.68C244.74 122.888 245.141 123.18 245.406 123.554C245.682 123.918 245.817 124.334 245.817 124.802ZM244.47 124.703C244.47 124.329 244.293 124.017 243.934 123.767C243.575 123.507 243.029 123.382 242.301 123.382C241.573 123.382 241.022 123.512 240.652 123.767C240.288 124.017 240.101 124.329 240.101 124.703V124.917C240.101 125.281 240.283 125.593 240.652 125.843C241.016 126.103 241.568 126.227 242.301 126.227C243.035 126.227 243.581 126.097 243.934 125.843C244.293 125.593 244.47 125.286 244.47 124.917V124.703ZM256.183 120.886H254.196V119.861H256.183V118.426H254.196V117.401H256.183V115.705H257.442V123.955H256.183V120.886ZM251.138 122.056C250.571 122.056 250.066 121.942 249.63 121.708C249.187 121.474 248.844 121.135 248.595 120.699C248.355 120.256 248.23 119.736 248.23 119.138C248.23 118.54 248.35 118.025 248.595 117.588C248.844 117.146 249.187 116.808 249.63 116.579C250.072 116.35 250.576 116.231 251.138 116.231C251.7 116.231 252.204 116.345 252.636 116.579C253.078 116.813 253.421 117.151 253.671 117.588C253.92 118.02 254.045 118.535 254.045 119.138C254.045 119.742 253.92 120.256 253.671 120.699C253.421 121.13 253.078 121.468 252.636 121.708C252.204 121.942 251.705 122.056 251.138 122.056ZM251.138 121.037C251.611 121.037 251.996 120.896 252.287 120.61C252.579 120.329 252.724 119.939 252.724 119.45V118.837C252.724 118.353 252.579 117.973 252.287 117.687C251.996 117.401 251.611 117.261 251.138 117.261C250.665 117.261 250.269 117.401 249.978 117.687C249.697 117.963 249.552 118.342 249.552 118.837V119.45C249.552 119.939 249.692 120.329 249.978 120.61C250.269 120.891 250.654 121.037 251.138 121.037ZM257.671 125.843V126.878H251.18C250.914 126.878 250.711 126.805 250.566 126.664C250.431 126.524 250.368 126.321 250.368 126.051V123.055H251.627V125.837H257.671V125.843ZM269.685 119.325V120.387H267.99V124.131H266.731V115.705H267.99V119.325H269.685ZM264.104 117.079H260.77V116.018H264.104V117.079ZM262.372 122.909C261.842 122.909 261.374 122.821 260.973 122.649C260.573 122.467 260.266 122.223 260.047 121.91C259.839 121.604 259.735 121.26 259.735 120.886C259.735 120.106 260.079 119.56 260.77 119.253V119.18H258.997V118.145H265.712V119.18H263.964V119.253C264.312 119.409 264.578 119.632 264.749 119.913C264.926 120.189 265.009 120.511 265.009 120.886C265.009 121.26 264.9 121.604 264.687 121.91C264.468 122.217 264.162 122.462 263.761 122.649C263.361 122.826 262.898 122.909 262.362 122.909H262.372ZM262.268 121.848H262.466C262.866 121.848 263.194 121.734 263.454 121.51C263.714 121.286 263.839 120.979 263.839 120.584C263.839 120.189 263.709 119.887 263.454 119.658C263.205 119.435 262.877 119.32 262.466 119.32H262.268C261.868 119.32 261.54 119.435 261.28 119.658C261.03 119.882 260.906 120.189 260.906 120.584C260.906 120.979 261.03 121.281 261.28 121.51C261.54 121.734 261.868 121.848 262.268 121.848ZM262.294 125.926H268.25V126.961H261.847C261.582 126.961 261.379 126.888 261.233 126.748C261.098 126.607 261.036 126.404 261.036 126.134V123.752H262.294V125.926ZM282.631 115.705V126.638H281.372V120.995H279.151V119.934H281.372V115.7H282.631V115.705ZM273.851 116.579H278.808V118.389C278.808 119.331 278.668 120.126 278.381 120.771C278.106 121.422 277.648 122.025 277.008 122.581C276.369 123.138 275.453 123.746 274.262 124.402L273.503 123.44C274.595 122.867 275.422 122.347 275.989 121.879C276.561 121.406 276.962 120.901 277.185 120.371C277.419 119.83 277.534 119.169 277.534 118.384V117.646H273.851V116.574V116.579ZM291.998 117.666H285.621V116.595H293.246V117.505C293.246 119.377 293.064 121.156 292.695 122.836L291.473 122.639C291.816 121.083 291.988 119.424 291.998 117.672V117.666ZM294.567 124.365V125.426H284.332V124.365H288.149V120.522H289.408V124.365H294.562H294.567ZM296.825 123.616C297.132 123.616 297.36 123.694 297.511 123.856C297.662 124.012 297.735 124.22 297.735 124.469V124.667C297.735 125.073 297.621 125.499 297.397 125.941C297.178 126.389 296.887 126.768 296.513 127.075H295.504C295.769 126.81 295.993 126.55 296.164 126.3C296.341 126.051 296.471 125.77 296.565 125.463C296.346 125.421 296.185 125.328 296.076 125.187C295.967 125.036 295.915 124.865 295.915 124.662V124.464C295.915 124.215 295.987 124.012 296.138 123.85C296.289 123.689 296.518 123.611 296.825 123.611V123.616ZM114.811 134.331H108.496V133.259H116.059V134.206C116.059 136.214 115.872 138.086 115.497 139.823L114.275 139.626C114.623 137.977 114.805 136.214 114.811 134.331ZM117.432 140.999V142.07H107.196V140.999H117.432ZM128.89 135.543V136.604H127.195V140.598H125.936V132.349H127.195V135.543H128.89ZM123.933 138.466H118.639V133.062H123.933V138.466ZM122.67 134.107H119.897V137.425H122.67V134.107ZM121.499 142.486H127.455V143.521H121.052C120.787 143.521 120.584 143.448 120.438 143.308C120.303 143.168 120.241 142.965 120.241 142.694V139.698H121.499V142.481V142.486ZM139.693 137.441V138.528H129.457V137.441H136.697C136.791 137.015 136.869 136.52 136.936 135.954L130.622 136.214L130.497 135.179L137.014 134.981C137.04 134.591 137.051 134.18 137.051 133.759H130.872V132.724H138.299V133.696C138.299 135.085 138.179 136.333 137.935 137.441H139.693ZM130.929 139.636H138.205V143.693H131.74C131.475 143.693 131.272 143.62 131.127 143.48C130.991 143.339 130.929 143.136 130.929 142.866V139.631V139.636ZM132.177 142.673H136.973V140.666H132.177V142.673ZM151.723 135.719H148.717V134.658H151.723V132.349H152.982V140.598H151.723V135.719ZM150.288 138.19C148.972 138.471 147.339 138.617 145.383 138.617H144.187V133.098H145.435V137.566C147.224 137.566 148.795 137.436 150.142 137.181L150.293 138.19H150.288ZM153.211 142.486V143.521H146.72C146.454 143.521 146.252 143.448 146.106 143.308C145.971 143.168 145.908 142.965 145.908 142.694V139.698H147.167V142.481H153.211V142.486ZM167.067 140.598H165.808V132.349H167.067V140.598ZM161.163 136.744C161.096 136.744 161.038 136.77 160.986 136.817C160.752 137.16 160.466 137.509 160.123 137.868C159.78 138.216 159.327 138.648 158.76 139.152L157.824 138.351C158.49 137.8 159.015 137.311 159.395 136.879C159.785 136.437 160.071 136.006 160.243 135.579C160.425 135.147 160.518 134.679 160.518 134.18H158.219V133.129H164.097V134.18H161.777V134.232C161.777 134.965 161.621 135.647 161.314 136.281L161.377 136.318L161.652 136.13C161.761 136.047 161.876 136.006 162.001 136.006C162.125 136.006 162.245 136.052 162.365 136.141L164.513 138.086L163.577 138.908L161.345 136.812C161.288 136.76 161.226 136.739 161.158 136.739L161.163 136.744ZM167.29 142.486V143.521H160.799C160.534 143.521 160.331 143.448 160.185 143.308C160.05 143.168 159.988 142.965 159.988 142.694V139.813H161.246V142.486H167.29ZM178.197 132.349V138.653H176.938V132.349H178.197ZM172.179 136.141C172.112 136.141 172.054 136.172 172.002 136.229C171.779 136.588 171.488 136.952 171.129 137.327C170.78 137.701 170.322 138.143 169.756 138.648L168.819 137.826C169.495 137.254 170.021 136.739 170.406 136.292C170.791 135.844 171.061 135.397 171.227 134.955C171.404 134.513 171.488 134.029 171.488 133.493V132.755H172.762V133.566C172.762 134.346 172.606 135.059 172.299 135.699L172.361 135.751L172.637 135.511C172.751 135.413 172.866 135.361 172.975 135.361C173.084 135.361 173.194 135.413 173.313 135.511L175.498 137.519L174.587 138.403L172.341 136.208C172.289 136.156 172.236 136.136 172.179 136.136V136.141ZM171.155 139.277H178.197V143.734H171.966C171.701 143.734 171.498 143.662 171.352 143.521C171.217 143.381 171.155 143.178 171.155 142.907V139.277ZM172.419 142.684H176.938V140.323H172.419V142.684ZM188.017 132.349H189.291V143.282H188.017V132.349ZM180.153 136.781C180.153 135.543 180.423 134.606 180.964 133.982C181.515 133.348 182.244 133.036 183.149 133.036C184.054 133.036 184.766 133.353 185.307 133.982C185.858 134.606 186.129 135.537 186.129 136.781C186.129 138.024 185.853 138.944 185.307 139.579C184.766 140.213 184.048 140.525 183.149 140.525C182.249 140.525 181.526 140.208 180.974 139.579C180.423 138.944 180.153 138.013 180.153 136.781ZM184.782 137.389V136.167C184.782 135.491 184.631 134.981 184.334 134.632C184.033 134.274 183.637 134.097 183.149 134.097C182.66 134.097 182.249 134.274 181.952 134.632C181.651 134.981 181.505 135.496 181.505 136.167V137.389C181.505 138.055 181.656 138.565 181.952 138.923C182.254 139.282 182.649 139.459 183.149 139.459C183.648 139.459 184.033 139.282 184.334 138.923C184.636 138.565 184.782 138.055 184.782 137.389ZM199.818 135.907V138.039H201.503V139.1H199.818V143.292H198.559V132.36H199.818V134.856H201.503V135.907H199.818ZM196.937 136.781C196.937 138.013 196.666 138.944 196.125 139.579C195.595 140.213 194.882 140.525 193.993 140.525C193.103 140.525 192.375 140.208 191.834 139.579C191.293 138.944 191.023 138.013 191.023 136.781C191.023 135.548 191.293 134.606 191.834 133.982C192.375 133.348 193.093 133.036 193.993 133.036C194.893 133.036 195.595 133.353 196.125 133.982C196.666 134.606 196.937 135.537 196.937 136.781ZM195.6 136.141C195.6 135.485 195.449 134.981 195.153 134.632C194.861 134.274 194.477 134.097 193.993 134.097C193.509 134.097 193.109 134.274 192.807 134.632C192.516 134.981 192.37 135.485 192.37 136.141V137.415C192.37 138.07 192.516 138.58 192.807 138.939C193.109 139.287 193.504 139.464 193.993 139.464C194.482 139.464 194.861 139.287 195.153 138.939C195.454 138.58 195.6 138.076 195.6 137.415V136.141ZM203.495 142.148C203.189 142.148 202.96 142.07 202.809 141.909C202.658 141.742 202.585 141.54 202.585 141.295V141.108C202.585 140.869 202.658 140.666 202.809 140.51C202.96 140.343 203.189 140.26 203.495 140.26C203.802 140.26 204.031 140.343 204.182 140.51C204.333 140.666 204.406 140.869 204.406 141.108V141.295C204.406 141.534 204.333 141.742 204.182 141.909C204.031 142.065 203.802 142.148 203.495 142.148ZM218.157 138.539H216.899V132.349H218.157V138.539ZM209.778 138.715L209.118 137.753C210.2 137.353 211.032 136.989 211.614 136.656C212.197 136.323 212.603 135.98 212.837 135.621C213.076 135.262 213.201 134.84 213.201 134.362V133.998H209.466V132.937H214.47V134.211C214.47 134.945 214.329 135.558 214.043 136.058C213.768 136.546 213.3 137.004 212.634 137.42C211.968 137.826 211.016 138.263 209.773 138.721L209.778 138.715ZM210.829 139.163H218.293V140.187H210.829V139.163ZM218.391 142.72V143.719H210.725V142.72H212.41L212.062 140.785L213.336 140.661L213.586 142.72H215.531L215.78 140.661L217.039 140.785L216.701 142.72H218.386H218.391ZM229.538 132.349V143.282H228.315V132.349H229.538ZM225.876 132.521H227.072V142.98H225.876V137.55H224.18C223.941 138.159 223.556 138.726 223.031 139.246C222.516 139.771 221.783 140.359 220.836 141.004L219.999 140.182C220.898 139.589 221.58 139.064 222.048 138.596C222.521 138.128 222.854 137.644 223.046 137.134C223.239 136.619 223.333 135.985 223.333 135.236V134.461H220.337V133.452H224.555V135.21C224.555 135.709 224.524 136.136 224.466 136.494H225.876V132.51V132.521ZM235.202 136.994L234.515 136.032C235.529 135.657 236.325 135.303 236.897 134.971C237.469 134.627 237.88 134.289 238.119 133.946C238.359 133.603 238.483 133.223 238.483 132.796V132.474H239.758V132.859C239.758 133.618 239.524 134.258 239.061 134.783L239.16 134.82L239.586 134.518C239.753 134.404 239.909 134.341 240.049 134.341C240.163 134.341 240.283 134.372 240.398 134.44L243.555 135.99L242.858 136.952L239.415 135.168C239.279 135.101 239.16 135.069 239.05 135.069C238.936 135.069 238.811 135.101 238.676 135.168C238.327 135.47 237.875 135.761 237.313 136.042C236.762 136.323 236.06 136.64 235.202 136.989V136.994ZM239.669 138.762V139.761H242.665V143.693H236.2C235.935 143.693 235.732 143.62 235.586 143.48C235.451 143.339 235.389 143.136 235.389 142.866V139.756H238.411V138.757H233.917V137.696H244.153V138.757H239.669V138.762ZM241.433 140.775H236.637V142.684H241.433V140.775ZM258.555 135.969V137.03H256.859V140.775H255.6V132.349H256.859V135.969H258.555ZM252.974 133.722H249.64V132.661H252.974V133.722ZM251.242 139.553C250.711 139.553 250.243 139.464 249.843 139.293C249.442 139.111 249.135 138.866 248.917 138.554C248.709 138.247 248.605 137.904 248.605 137.529C248.605 136.749 248.948 136.203 249.64 135.896V135.824H247.866V134.788H254.581V135.824H252.833V135.896C253.182 136.052 253.447 136.276 253.619 136.557C253.796 136.833 253.879 137.155 253.879 137.529C253.879 137.904 253.77 138.247 253.556 138.554C253.338 138.861 253.031 139.105 252.631 139.293C252.23 139.47 251.767 139.553 251.231 139.553H251.242ZM251.138 138.492H251.336C251.736 138.492 252.064 138.377 252.324 138.154C252.584 137.93 252.709 137.623 252.709 137.228C252.709 136.833 252.579 136.531 252.324 136.302C252.074 136.078 251.746 135.964 251.336 135.964H251.138C250.737 135.964 250.41 136.078 250.15 136.302C249.9 136.526 249.775 136.833 249.775 137.228C249.775 137.623 249.9 137.925 250.15 138.154C250.41 138.377 250.737 138.492 251.138 138.492ZM251.164 142.569H257.119V143.604H250.717C250.451 143.604 250.248 143.532 250.103 143.391C249.968 143.251 249.905 143.048 249.905 142.777V140.395H251.164V142.569ZM270.263 136.37H268.052V135.319H270.263V132.349H271.521V140.598H270.263V136.364V136.37ZM267.854 138.653H262.622V133.01H263.844V134.83H266.616V132.994H267.854V138.648V138.653ZM266.616 135.855H263.844V137.628H266.616V135.855ZM271.75 142.486V143.521H265.259C264.994 143.521 264.791 143.448 264.645 143.308C264.51 143.168 264.448 142.965 264.448 142.694V139.813H265.706V142.486H271.75ZM285.58 132.349V143.282H284.321V132.349H285.58ZM277.378 137.566L276.441 136.744C277.45 136.11 278.158 135.537 278.564 135.023C278.969 134.497 279.177 133.925 279.177 133.301V132.765H280.436V133.389C280.436 134.029 280.28 134.622 279.963 135.163L280.035 135.215L280.337 134.976C280.452 134.877 280.576 134.825 280.701 134.825C280.816 134.825 280.93 134.867 281.039 134.95L283.109 136.51L282.173 137.373L280.025 135.626C279.957 135.574 279.89 135.553 279.827 135.553C279.77 135.553 279.708 135.579 279.64 135.626C279.401 135.933 279.094 136.24 278.73 136.552C278.371 136.859 277.924 137.202 277.383 137.576L277.378 137.566ZM283.655 139.012C282.74 139.152 281.669 139.261 280.446 139.334V143.178H279.198V139.397C278.132 139.438 277.154 139.459 276.265 139.459L276.15 138.398C277.591 138.398 278.964 138.367 280.27 138.31C281.575 138.242 282.667 138.143 283.541 138.008L283.655 139.007V139.012ZM114.863 150.954H108.486V149.882H116.111V150.792C116.111 152.665 115.929 154.444 115.56 156.124L114.337 155.926C114.681 154.371 114.852 152.712 114.863 150.959V150.954ZM117.432 157.653V158.714H107.196V157.653H111.014V153.809H112.272V157.653H117.427H117.432ZM119.689 156.904C119.996 156.904 120.225 156.982 120.376 157.143C120.527 157.299 120.6 157.507 120.6 157.757V157.954C120.6 158.36 120.485 158.787 120.261 159.229C120.043 159.676 119.752 160.056 119.377 160.363H118.368C118.633 160.097 118.857 159.837 119.029 159.588C119.206 159.338 119.336 159.057 119.429 158.75C119.211 158.709 119.05 158.615 118.94 158.475C118.831 158.324 118.779 158.152 118.779 157.949V157.752C118.779 157.502 118.852 157.299 119.003 157.138C119.154 156.982 119.382 156.899 119.689 156.899V156.904ZM134.325 148.993V159.926H133.067V153.31H129.92V152.259H133.067V148.988H134.325V148.993ZM131.439 155.583L131.6 156.618C130.284 156.883 128.661 157.018 126.732 157.018H125.494V149.867H126.752V155.957C128.568 155.957 130.128 155.832 131.434 155.583H131.439ZM146.59 152.576H144.894V155.099H143.635V148.993H144.894V151.515H146.59V152.576ZM142.533 154.345C141.16 154.61 139.526 154.745 137.628 154.745H136.406V149.565H141.451V150.626H137.67V153.721C139.542 153.721 141.113 153.601 142.387 153.357L142.538 154.345H142.533ZM143.641 155.734H144.889V160.378H138.783C138.517 160.378 138.315 160.305 138.169 160.165C138.034 160.024 137.971 159.822 137.971 159.551V155.734H139.22V156.971H143.641V155.734ZM143.641 158.027H139.22V159.301H143.641V158.027ZM156.857 148.993V159.926H155.634V148.993H156.857ZM153.2 149.164H154.397V159.624H153.2V154.194H151.505C151.265 154.803 150.881 155.369 150.355 155.89C149.84 156.415 149.107 157.003 148.16 157.648L147.323 156.826C148.223 156.233 148.904 155.708 149.372 155.239C149.846 154.771 150.178 154.288 150.371 153.778C150.563 153.263 150.657 152.628 150.657 151.879V151.104H147.661V150.095H151.879V151.853C151.879 152.353 151.848 152.779 151.791 153.138H153.2V149.154V149.164ZM171.8 151.391V152.452H170.104V154.698H168.845V148.993H170.104V151.391H171.8ZM166.791 154.324H161.548V149.445H166.791V154.324ZM165.543 150.465H162.796V153.299H165.543V150.465ZM164.357 159.364H170.374V160.451H163.894C163.629 160.451 163.426 160.378 163.28 160.238C163.145 160.097 163.082 159.894 163.082 159.624V157.351H168.825V156.404H163.01V155.333H170.099V158.402H164.357V159.364ZM182.067 148.993V159.926H180.855V154.334H179.607V159.629H178.395V149.17H179.607V153.299H180.855V148.993H182.067ZM176.798 150.865H173.516V149.841H176.798V150.865ZM172.278 151.999H177.885V152.998H176.538V153.06C177.146 153.419 177.448 154.069 177.448 155.021C177.448 155.801 177.23 156.42 176.798 156.867C176.371 157.309 175.81 157.528 175.113 157.528C174.416 157.528 173.838 157.309 173.417 156.867C172.991 156.42 172.783 155.801 172.783 155.021C172.783 154.08 173.084 153.429 173.682 153.076V153.003H172.283V152.004L172.278 151.999ZM176.262 154.47C176.262 154.043 176.158 153.715 175.95 153.481C175.752 153.247 175.472 153.133 175.113 153.133C174.754 153.133 174.473 153.247 174.265 153.481C174.067 153.715 173.963 154.043 173.963 154.47V155.167C173.963 155.583 174.067 155.91 174.275 156.155C174.494 156.389 174.769 156.503 175.113 156.503C175.456 156.503 175.726 156.389 175.935 156.155C176.153 155.916 176.257 155.583 176.257 155.167V154.47H176.262ZM194.055 154.433H192.443V159.926H191.195V148.993H192.443V153.372H194.055V154.433ZM190.409 156.404L190.524 157.413C189.634 157.554 188.547 157.663 187.268 157.736C185.994 157.809 184.693 157.85 183.362 157.85L183.247 156.789C184.34 156.789 185.312 156.774 186.17 156.737V154.777H183.996V149.669H185.219V151.193H188.303V149.659H189.525V154.777H187.393V156.675C188.651 156.607 189.655 156.519 190.415 156.399L190.409 156.404ZM185.219 153.762H188.303V152.238H185.219V153.762ZM195.985 158.792C195.678 158.792 195.449 158.714 195.298 158.553C195.148 158.386 195.075 158.183 195.075 157.939V157.752C195.075 157.512 195.148 157.309 195.298 157.153C195.449 156.987 195.678 156.904 195.985 156.904C196.292 156.904 196.521 156.987 196.671 157.153C196.822 157.309 196.895 157.512 196.895 157.752V157.939C196.895 158.178 196.822 158.386 196.671 158.553C196.521 158.709 196.292 158.792 195.985 158.792ZM209.336 148.993H210.611V159.926H209.336V148.993ZM201.472 153.424C201.472 152.186 201.743 151.25 202.284 150.626C202.835 149.991 203.563 149.679 204.468 149.679C205.373 149.679 206.086 149.997 206.626 150.626C207.178 151.25 207.448 152.181 207.448 153.424C207.448 154.667 207.173 155.588 206.626 156.222C206.086 156.857 205.368 157.169 204.468 157.169C203.568 157.169 202.845 156.852 202.294 156.222C201.743 155.588 201.472 154.657 201.472 153.424ZM206.101 154.033V152.81C206.101 152.134 205.95 151.625 205.654 151.276C205.352 150.917 204.957 150.74 204.468 150.74C203.979 150.74 203.568 150.917 203.272 151.276C202.97 151.625 202.824 152.14 202.824 152.81V154.033C202.824 154.698 202.975 155.208 203.272 155.567C203.573 155.926 203.969 156.103 204.468 156.103C204.967 156.103 205.352 155.926 205.654 155.567C205.956 155.208 206.101 154.698 206.101 154.033ZM220.467 148.993H221.741V159.926H220.467V148.993ZM212.899 149.851H218.267V156.904H212.899V149.851ZM217.018 155.869V150.886H214.147V155.869H217.018ZM236.965 151.391V152.452H235.269V154.724H234.011V148.993H235.269V151.391H236.965ZM227.228 154.844L226.318 154.043C227.259 153.367 227.93 152.774 228.326 152.259C228.731 151.734 228.95 151.167 228.976 150.548H226.677V149.523H232.507V150.548H230.224C230.214 151.183 230.063 151.76 229.761 152.285L229.834 152.337L230.084 152.15C230.198 152.067 230.323 152.025 230.448 152.025C230.573 152.025 230.687 152.067 230.796 152.15L232.908 153.825L231.982 154.636L229.798 152.836C229.74 152.779 229.668 152.748 229.584 152.748C229.512 152.748 229.449 152.774 229.397 152.821C229.163 153.123 228.877 153.429 228.534 153.747C228.19 154.054 227.754 154.423 227.223 154.844H227.228ZM229.501 159.463H235.545V160.451H229.064C228.799 160.451 228.596 160.378 228.45 160.238C228.315 160.097 228.253 159.894 228.253 159.624V157.439H234.021V156.326H228.18V155.354H235.269V158.339H229.501V159.463ZM248.095 154.433H246.41V159.936H245.151V149.003H246.41V153.372H248.095V154.433ZM242.702 150.678H239.056V149.607H242.702V150.678ZM237.448 151.911H244.127V152.946H242.442V153.019C243.149 153.409 243.503 154.106 243.503 155.104C243.503 155.635 243.388 156.103 243.154 156.503C242.93 156.893 242.613 157.2 242.208 157.413C241.807 157.632 241.355 157.736 240.845 157.736C240.335 157.736 239.877 157.627 239.472 157.413C239.071 157.195 238.754 156.893 238.525 156.503C238.291 156.103 238.177 155.64 238.177 155.104C238.177 154.106 238.53 153.414 239.238 153.034V152.946H237.454V151.911H237.448ZM242.28 154.594C242.28 154.111 242.15 153.741 241.895 153.481C241.635 153.216 241.287 153.081 240.845 153.081C240.403 153.081 240.049 153.216 239.784 153.481C239.524 153.747 239.399 154.116 239.399 154.594V155.167C239.399 155.64 239.534 156.009 239.799 156.28C240.065 156.545 240.413 156.68 240.85 156.68C241.287 156.68 241.63 156.545 241.885 156.28C242.15 156.014 242.286 155.645 242.286 155.167V154.594H242.28ZM256.329 150.954H249.952V149.882H257.577V150.792C257.577 152.665 257.395 154.444 257.026 156.124L255.803 155.926C256.147 154.371 256.318 152.712 256.329 150.959V150.954ZM258.903 157.653V158.714H248.667V157.653H252.485V153.809H253.744V157.653H258.898H258.903ZM272.197 155.297H270.939V148.993H272.197V155.297ZM263.059 152.186C263.059 151.63 263.184 151.141 263.433 150.725C263.683 150.309 264.026 149.986 264.468 149.763C264.916 149.539 265.425 149.425 265.992 149.425C266.559 149.425 267.064 149.539 267.501 149.763C267.948 149.986 268.302 150.309 268.551 150.725C268.801 151.141 268.926 151.63 268.926 152.186C268.926 152.743 268.801 153.232 268.551 153.648C268.302 154.064 267.953 154.386 267.501 154.61C267.059 154.834 266.554 154.948 265.992 154.948C265.431 154.948 264.921 154.834 264.468 154.61C264.026 154.386 263.683 154.064 263.433 153.648C263.184 153.232 263.059 152.743 263.059 152.186ZM264.396 152.426C264.396 152.883 264.541 153.247 264.833 153.523C265.124 153.788 265.509 153.924 265.992 153.924C266.476 153.924 266.861 153.788 267.152 153.523C267.443 153.247 267.589 152.883 267.589 152.426V151.952C267.589 151.495 267.443 151.13 267.152 150.865C266.861 150.59 266.476 150.454 265.992 150.454C265.509 150.454 265.124 150.59 264.833 150.865C264.541 151.13 264.396 151.495 264.396 151.952V152.426ZM273.269 159.588L272.457 160.435L270.72 158.714C270.663 158.657 270.601 158.625 270.533 158.625C270.502 158.625 270.46 158.636 270.419 158.662C270.221 158.937 269.961 159.218 269.644 159.51C269.337 159.811 268.947 160.149 268.468 160.534L266.596 158.651C266.538 158.594 266.481 158.563 266.419 158.563C266.377 158.563 266.325 158.584 266.268 158.625C265.883 159.166 265.269 159.79 264.422 160.498L263.61 159.66C264.39 159.062 264.952 158.501 265.285 157.975C265.618 157.45 265.784 156.878 265.784 156.254V155.806H266.981V156.295C266.981 156.977 266.845 157.58 266.58 158.105L266.632 158.142L266.845 157.98C266.944 157.908 267.048 157.866 267.157 157.866C267.282 157.866 267.386 157.908 267.469 157.991L268.557 159.041C269.056 158.615 269.41 158.199 269.618 157.783C269.826 157.356 269.93 156.857 269.93 156.285V155.812H271.115V156.347C271.115 157.039 270.98 157.648 270.715 158.168L270.767 158.194L270.98 158.032C271.089 157.949 271.199 157.908 271.318 157.908C271.438 157.908 271.537 157.944 271.62 158.022L273.269 159.593V159.588ZM283.302 148.993V159.926H282.043V153.819H279.994C279.937 154.927 279.64 155.765 279.11 156.326C278.584 156.883 277.903 157.164 277.06 157.164C276.171 157.164 275.453 156.847 274.912 156.217C274.371 155.583 274.101 154.652 274.101 153.419C274.101 152.186 274.366 151.245 274.902 150.621C275.443 149.986 276.161 149.674 277.06 149.674C277.867 149.674 278.527 149.934 279.047 150.449C279.573 150.964 279.885 151.734 279.983 152.758H282.043V148.988H283.302V148.993ZM278.683 152.8C278.683 152.134 278.532 151.625 278.236 151.276C277.945 150.917 277.555 150.74 277.06 150.74C276.566 150.74 276.176 150.917 275.875 151.276C275.583 151.625 275.438 152.134 275.438 152.8V154.048C275.438 154.714 275.583 155.224 275.875 155.583C276.176 155.931 276.572 156.108 277.06 156.108C277.549 156.108 277.945 155.931 278.236 155.583C278.538 155.224 278.683 154.714 278.683 154.048V152.8ZM286.1 156.144L285.663 152.41V149.924H287.135V152.41L286.724 156.144H286.1ZM286.412 158.792C286.095 158.792 285.861 158.719 285.715 158.568C285.575 158.412 285.502 158.209 285.502 157.97V157.757C285.502 157.518 285.575 157.32 285.715 157.169C285.866 157.013 286.1 156.93 286.412 156.93C286.724 156.93 286.958 157.008 287.099 157.169C287.249 157.32 287.322 157.512 287.322 157.757V157.97C287.322 158.209 287.249 158.412 287.099 158.568C286.958 158.719 286.729 158.792 286.412 158.792Z" fill="#292A2D"/>
</g>
<defs>
<radialGradient id="paint0_radial_1662_4601" cx="0" cy="0" r="1" gradientUnits="userSpaceOnUse" gradientTransform="translate(56.5961 202.888) scale(30.6282 27.8717)">
<stop stop-color="#ADA2D7"/>
<stop offset="0.37" stop-color="#B7ADDF"/>
<stop offset="1" stop-color="#D1CAF4"/>
</radialGradient>
<radialGradient id="paint1_radial_1662_4601" cx="0" cy="0" r="1" gradientUnits="userSpaceOnUse" gradientTransform="translate(56.3984 179.094) scale(20.1306 20.1306)">
<stop stop-color="white" stop-opacity="0.6"/>
<stop offset="0.42" stop-color="white" stop-opacity="0.33"/>
<stop offset="0.81" stop-color="white" stop-opacity="0.09"/>
<stop offset="1" stop-color="white" stop-opacity="0"/>
</radialGradient>
<radialGradient id="paint2_radial_1662_4601" cx="0" cy="0" r="1" gradientUnits="userSpaceOnUse" gradientTransform="translate(56.3042 195.237) scale(7.5014 3.7507)">
<stop stop-color="white" stop-opacity="0.6"/>
<stop offset="0.09" stop-color="white" stop-opacity="0.51"/>
<stop offset="0.31" stop-color="white" stop-opacity="0.33"/>
<stop offset="0.51" stop-color="white" stop-opacity="0.19"/>
<stop offset="0.7" stop-color="white" stop-opacity="0.08"/>
<stop offset="0.87" stop-color="white" stop-opacity="0.02"/>
<stop offset="1" stop-color="white" stop-opacity="0"/>
</radialGradient>
<clipPath id="clip0_1662_4601">
<rect width="64.916" height="78.2029" fill="white" transform="translate(23.8458 152.616)"/>
</clipPath>
<clipPath id="clip1_1662_4601">
<rect width="214.807" height="104.023" fill="white" transform="translate(96.3467 69.1809)"/>
</clipPath>
</defs>
</svg>
