<svg width="351" height="317" viewBox="0 0 351 317" fill="none" xmlns="http://www.w3.org/2000/svg">
<g filter="url(#filter0_dd_1491_4381)">
<g clip-path="url(#clip0_1491_4381)">
<rect x="8" y="4.36182" width="335" height="300" rx="8" fill="white"/>
<g clip-path="url(#clip1_1491_4381)">
<path d="M342.55 -50.7727H6.92993V400.999H342.55V-50.7727Z" fill="white"/>
<path d="M61.345 -22.0886C62.2131 -21.5777 63.2782 -21.4074 63.9315 -20.5648C64.9518 -19.2471 65.265 -17.8219 64.6743 -16.2263C64.3611 -15.3927 64.0389 -14.5591 63.7973 -13.6986C63.4661 -12.5243 64.1732 -11.7355 65.3277 -12.1568C68.4243 -13.3042 71.6284 -13.2325 74.7877 -12.9994C80.6767 -12.5781 86.1182 -10.7854 90.3784 -6.50966C94.4058 -2.47598 96.1331 2.35548 95.3455 8.12812C94.5938 13.6946 92.231 18.3288 88.0693 22.0667C85.7334 24.1642 82.95 25.3743 79.8354 25.7956C76.9715 26.1811 74.0986 26.3514 71.1988 26.3155C61.9625 26.208 53.6302 18.526 52.6905 9.34719C52.0998 3.6104 53.6123 -1.49893 57.0043 -6.0794C57.9172 -7.30743 59.0091 -8.40997 60.2173 -9.40494C60.9065 -9.96966 61.7567 -10.7585 61.4255 -11.619C61.1034 -12.4168 60.0473 -12.5691 59.0717 -12.596C57.2907 -12.6319 55.4649 -14.084 55.0085 -15.6527C54.4984 -17.4096 55.2949 -19.6953 56.7716 -20.7978C57.5592 -21.3894 58.4631 -21.739 59.3671 -22.0886H61.3361H61.345Z" fill="#CCD5DD"/>
<path d="M61.2465 12.4046C61.5866 12.4135 61.7924 12.6376 61.8551 12.9155C61.9625 13.3726 61.9804 13.8567 62.0699 14.3228C62.4637 16.4562 62.1057 18.724 63.4213 20.705C63.9046 21.4221 63.484 22.2109 62.7411 22.6501C61.9356 23.1252 61.0764 23.0983 60.3247 22.5246C59.7608 22.0944 59.3223 21.3504 59.7877 20.7767C61.157 19.1184 60.4768 17.3256 60.3426 15.5688C60.2799 14.7082 60.1457 13.8388 60.3963 13.0051C60.5126 12.6286 60.799 12.3777 61.2465 12.4046Z" fill="black"/>
<path d="M93.5822 16.6704C93.6628 18.2749 93.3675 19.9152 94.4056 21.3942C94.8084 21.9679 94.6025 22.7209 94.0118 23.2049C93.4391 23.671 92.7857 23.6979 92.1413 23.3304C91.6043 23.0167 91.2016 22.5326 91.3895 21.9231C92.0787 19.6643 91.5327 17.3337 91.846 15.0569C91.9355 14.3936 92.0787 13.7392 92.3024 13.1118C92.374 12.9146 92.7589 12.6994 92.9647 12.7174C93.1885 12.7442 93.5465 13.04 93.5554 13.2283C93.6091 14.3756 93.5822 15.523 93.5822 16.6704Z" fill="black"/>
<path d="M72.5503 28.0993C71.4763 27.8035 69.8206 27.3732 68.1738 26.8892C67.6189 26.7278 67.064 26.3872 67.3146 25.6612C67.5026 25.1144 68.0664 25.1233 68.5228 25.204C69.1851 25.3116 69.8206 25.5267 70.465 25.6612C71.1452 25.8046 71.7716 25.8135 72.237 25.1323C72.8367 24.2538 73.6243 23.725 74.6356 24.4869C75.3695 25.0427 75.6648 25.8673 75.4053 26.7816C75.0831 27.9111 74.1971 28.162 72.5503 28.0903V28.0993Z" fill="black"/>
<path d="M81.3124 27.6251C80.1669 27.3831 78.7617 27.1142 77.3745 26.7736C77.0076 26.6839 76.748 26.2895 76.9181 25.8772C77.0165 25.6531 77.2939 25.3483 77.4908 25.3394C79.0034 25.2946 80.3548 25.196 81.6257 23.9769C82.3685 23.2598 83.1382 24.2817 83.3888 25.187C83.6663 26.182 83.6215 27.1232 82.4401 27.5355C82.1806 27.6251 81.8673 27.5893 81.3214 27.6341L81.3124 27.6251Z" fill="black"/>
<path d="M75.4947 13.6864H73.3557C72.8097 13.6864 72.0848 13.8657 72.049 13.032C72.0311 12.5211 72.6128 12.1984 73.0603 12.1715C74.9577 12.0281 76.864 11.9474 78.7703 11.8847C79.1373 11.8757 79.5579 12.0102 79.6295 12.4673C79.7369 13.1127 79.2268 13.301 78.7793 13.3637C77.5532 13.5251 76.3181 13.6057 75.4947 13.6864Z" fill="black"/>
<path d="M83.702 7.37615C83.9883 7.37615 84.2745 7.36719 84.5519 7.36719C85.2586 7.36719 85.9475 7.46579 85.9385 8.36216C85.9385 8.90895 85.4465 9.14201 84.9544 9.20476C84.2209 9.29439 83.6215 9.10615 83.5767 8.21874C83.5588 7.94086 83.6572 7.66299 83.702 7.37615Z" fill="white"/>
<path d="M72.6839 7.98486C73.2564 8.02968 73.6858 8.2717 73.7216 8.79159C73.7753 9.68797 73.0775 9.82242 72.4065 9.81346C71.8966 9.80449 71.503 9.4818 71.5835 8.93502C71.664 8.30756 72.1024 7.98486 72.6839 7.99382V7.98486Z" fill="white"/>
<path d="M75.2526 6.04907C75.7357 6.12975 75.8788 6.45244 75.8251 6.86478C75.7357 7.47431 75.4315 7.94042 74.7337 7.88664C74.2953 7.85078 74.0896 7.49224 74.1432 7.08887C74.2238 6.44348 74.6442 6.12078 75.2615 6.04907H75.2526Z" fill="black"/>
<path d="M83.7099 7.375C83.4416 7.33914 83.1553 7.36603 82.8958 7.2764C82.4306 7.10609 82.1086 6.7834 82.3143 6.23661C82.4485 5.87807 82.7169 5.60019 83.1374 5.66294C83.6563 5.73465 83.9604 6.03045 83.8978 6.5862C83.862 6.85511 83.7726 7.11506 83.701 7.38397L83.7099 7.375Z" fill="black"/>
<path d="M68.5317 44.1454C68.5317 45.5975 70.5186 46.8435 72.9619 47.1124L72.4965 48.1164C70.447 47.8564 68.6481 46.978 67.8426 45.6961C67.0371 46.9869 65.2382 47.8564 63.1976 48.1164L62.7322 47.1124C65.1755 46.8435 67.1624 45.5975 67.1624 44.1454V43.7241H68.5228V44.1454H68.5317ZM73.5615 48.8066V49.9001H62.1326V48.8066H73.5615ZM72.1206 50.922V53.9069H64.8175V55.0453H72.4697V56.0672H63.5198V52.9568H70.805V51.9349H63.5019V50.931H72.1206V50.922ZM85.9392 49.7926V50.8682H74.5102V49.7926H85.9392ZM84.8652 44.0737V45.1673H83.0484V47.5875H84.8115V48.6631H75.62V47.5875H77.3921V45.1673H75.5574V44.0737H84.8563H84.8652ZM84.543 52.0425V56.0313H75.8885V52.0425H84.543ZM77.2041 53.0823V54.9557H83.2632V53.0823H77.2041ZM78.7077 47.5875H81.7149V45.1673H78.7077V47.5875Z" fill="#171719"/>
<mask id="mask0_1491_4381" style="mask-type:luminance" maskUnits="userSpaceOnUse" x="147" y="-23" width="51" height="52">
<path d="M197.562 -22.0894H147.443V28.1075H197.562V-22.0894Z" fill="white"/>
</mask>
<g mask="url(#mask0_1491_4381)">
<path d="M161.36 -19.3017C167.115 -19.2658 172.807 -19.9471 178.481 -20.8434C180.781 -21.202 183.064 -21.444 185.408 -20.7627C188.308 -19.9202 189.651 -18.0557 190.116 -15.1963C190.832 -10.8937 191.065 -6.54628 191.485 -2.20784C191.772 0.651592 192.336 3.46621 193.114 6.25393C193.956 9.2747 194.824 12.3313 193.866 15.5045C192.891 18.7494 191.038 21.1427 187.664 22.2363C183.86 23.4733 180.039 24.0111 176.011 23.6167C173.666 23.3836 171.268 23.5001 168.878 23.7063C166.748 23.8945 164.573 23.6884 162.425 23.5001C159.66 23.2581 156.876 23.0699 154.263 21.9853C150.513 20.4256 148.437 17.5751 147.622 13.6311C146.951 10.3952 148.204 7.41026 148.616 4.31777C149.233 -0.361298 149.931 -5.03141 149.305 -9.77322C148.741 -14.1475 153.278 -19.2658 157.709 -19.3106C158.926 -19.3196 160.143 -19.3106 161.36 -19.3106V-19.3017Z" fill="#F0ECAE"/>
<path d="M153.592 2.84734C153.843 2.83838 154.335 2.97283 154.55 3.35827C155.149 4.43391 156.125 5.00759 157.109 5.60816C157.387 5.77847 157.629 6.12805 157.414 6.53142C157.226 6.88997 156.895 7.09614 156.537 6.97065C155.203 6.48661 153.852 6.02049 152.581 5.402C151.999 5.11516 151.838 4.40703 152.133 3.74371C152.366 3.22382 152.769 2.89216 153.583 2.84734H153.592Z" fill="black"/>
<path d="M168.959 8.32409C171.053 6.20865 175.054 5.93078 176.71 7.51736C176.898 7.69663 177.077 7.91176 176.951 8.21653C176.835 8.48544 176.629 8.69161 176.352 8.61093C175.143 8.25238 173.917 8.16274 172.664 8.11793C171.528 8.08207 170.436 8.6916 168.959 8.32409Z" fill="black"/>
<path d="M183.529 25.3647C183.493 26.0728 183.099 26.4224 182.571 26.6107C181.82 26.8706 180.952 27.265 180.334 26.53C179.537 25.5709 178.965 24.4414 178.839 23.1686C178.813 22.9445 178.983 22.6039 179.17 22.4873C179.349 22.3708 179.824 22.3798 179.886 22.4963C180.629 23.7871 181.712 24.5311 183.171 24.8C183.341 24.8269 183.44 25.2123 183.538 25.3737L183.529 25.3647Z" fill="black"/>
<path d="M166.685 25.6429C166.793 26.3421 166.524 26.8978 165.844 27.0771C164.967 27.3101 164.045 27.337 163.41 26.5303C162.926 25.9208 163.168 25.3202 163.804 24.9796C164.555 24.5762 164.645 23.9219 164.699 23.1958C164.734 22.7207 164.976 22.3084 165.513 22.3532C166.023 22.398 166.22 22.8372 166.301 23.2854C166.444 24.0653 166.56 24.8541 166.685 25.6429Z" fill="black"/>
</g>
<path d="M163.401 43.84V44.9336H169.2V43.84H170.534V47.9992H162.085V43.84H163.401ZM163.401 46.9863H169.2V45.9106H163.401V46.9863ZM172.01 48.9045V49.9802H166.945V51.0558H170.569V53.987H163.266V55.0357H170.918V56.0576H161.969V53.0278H169.254V52.0508H161.951V51.0558H165.611V49.9802H160.581V48.9045H172.001H172.01ZM178.785 44.9157V45.9375C178.785 47.1566 178.785 48.6715 178.409 50.7869L177.174 50.6614C177.335 49.8099 177.425 49.048 177.479 48.3667L173.308 48.7163L173.138 47.6406L177.532 47.4076C177.55 46.9056 177.55 46.4305 177.55 46.0092H173.442V44.9336H178.785V44.9157ZM176.109 49.4782V52.1404C177.192 52.1046 178.302 52.0329 179.233 51.9163L179.304 52.8934C177.273 53.2699 174.633 53.2968 172.995 53.3147L172.816 52.2121C173.406 52.2121 174.131 52.2121 174.901 52.1853V49.4872H176.118L176.109 49.4782ZM183.744 43.6428V56.192H182.482V49.9623H181.112V55.5467H179.868V43.8938H181.112V48.8507H182.482V43.6428H183.744Z" fill="#171719"/>
<mask id="mask1_1491_4381" style="mask-type:luminance" maskUnits="userSpaceOnUse" x="245" y="-23" width="52" height="52">
<path d="M296.01 -22.0894H245.891V28.1075H296.01V-22.0894Z" fill="white"/>
</mask>
<g mask="url(#mask1_1491_4381)">
<path d="M254.867 0.534685C254.76 -3.31972 254.956 -7.17412 255.583 -10.9747C256.433 -16.102 259.566 -19.3827 264.408 -21.0858C268.614 -22.5648 272.829 -22.4214 276.839 -20.557C281.734 -18.2712 284.384 -14.13 285.404 -8.95791C286.272 -4.58361 286.281 -0.155523 285.986 4.29945C285.789 7.36505 285.377 10.3769 284.813 13.3887C283.757 19.1255 280.329 22.3883 274.61 23.0605C270.502 23.5446 266.421 23.0605 262.573 21.4381C260.085 20.3893 258.599 18.3456 257.454 15.9613C255.35 11.587 254.795 6.96167 254.867 2.19297C254.876 1.64618 254.867 1.09044 254.867 0.534685Z" fill="#E6B2C6"/>
<path d="M263.36 6.36084C263.71 6.37877 263.942 6.57596 264.085 6.87177C264.497 7.71436 264.873 8.58384 265.303 9.42643C265.902 10.5917 266.198 11.9452 267.576 12.5996C268.086 12.8416 268.274 13.4422 267.997 14.0428C267.656 14.7778 267.039 15.0736 266.269 15.0108C265.687 14.966 265.043 14.7061 265.052 14.0965C265.106 11.8377 263.727 10.1077 263.02 8.13565C262.895 7.76814 262.779 7.3827 262.761 6.99726C262.743 6.65664 263.011 6.45047 263.343 6.3698L263.36 6.36084Z" fill="black"/>
<path d="M276.249 5.05284C276.294 6.5946 275.452 7.74196 274.271 7.74196C273.125 7.74196 272.141 6.54978 272.105 5.13351C272.078 3.85169 273.152 2.60574 274.333 2.56092C275.39 2.5161 276.213 3.59174 276.249 5.0618V5.05284Z" fill="black"/>
<path d="M283.963 6.7461C283.641 8.96014 282.871 11.1742 282.03 13.3613C281.735 14.1412 281.108 14.4101 280.321 14.0515C279.614 13.7378 279.193 12.4918 279.811 12.0795C281.878 10.6722 281.976 8.44025 282.567 6.38756C282.701 5.93937 282.925 5.44637 283.534 5.64357C283.972 5.77802 283.936 6.25309 283.972 6.75506L283.963 6.7461Z" fill="black"/>
<path d="M270.395 28.0981C268.963 28.134 268.641 27.7037 269.285 26.4578C269.643 25.7676 269.438 25.2835 269.214 24.7099C268.954 24.0555 268.686 23.4101 268.489 22.7378C268.453 22.5944 268.677 22.3255 268.838 22.1821C269.044 22.0028 269.33 22.0745 269.473 22.2448C270.637 23.6611 271.362 25.3283 271.765 27.0673C271.97 27.9726 270.977 28.0444 270.386 28.0981H270.395Z" fill="black"/>
<path d="M276.508 23.4096C276.463 24.4583 275.953 25.525 276.902 26.511C277.466 27.0937 277.072 27.6763 276.383 27.9631C275.515 28.3217 274.495 27.9631 274.512 27.2191C274.548 25.5877 274.745 23.9563 275.354 22.4146C275.416 22.2532 275.73 22.0829 275.918 22.0919C276.24 22.1098 276.472 22.3608 276.517 22.7104C276.544 22.9434 276.517 23.1765 276.517 23.4096H276.508Z" fill="black"/>
<path d="M274.619 5.24029C274.575 5.53609 274.485 5.88567 274.118 5.79604C273.796 5.71536 273.761 5.34785 273.779 5.04308C273.796 4.81003 273.913 4.54111 274.163 4.57697C274.512 4.61282 274.593 4.93552 274.611 5.24029H274.619Z" fill="#E6B2C6"/>
</g>
<path d="M262.556 44.2617C264.471 44.2617 265.858 45.4539 265.867 47.1749C265.85 48.9229 264.471 50.115 262.556 50.0971C260.641 50.115 259.227 48.9229 259.245 47.1749C259.227 45.4539 260.641 44.2617 262.556 44.2617ZM262.556 45.3643C261.384 45.3643 260.524 46.0903 260.542 47.1749C260.524 48.2685 261.384 48.9946 262.556 48.9946C263.728 48.9946 264.57 48.2685 264.588 47.1749C264.57 46.0993 263.737 45.3643 262.556 45.3643ZM268.884 43.6432V46.4399H270.7V47.5335H268.884V50.4288H267.559V43.6343H268.884V43.6432ZM262.171 51.0204V52.4635H267.559V51.0204H268.884V56.0311H260.856V51.0204H262.171ZM262.171 54.9555H267.559V53.5033H262.171V54.9555ZM281.261 43.6432V46.8523H283.078V47.9458H281.261V51.2086H279.937V43.6432H281.261ZM281.261 51.8361V56.1925H279.937V52.9117H272.983V51.8361H281.261ZM273.206 44.4231V46.2965H276.491V44.4231H277.807V50.4019H271.909V44.4231H273.206ZM273.206 49.3442H276.491V47.3542H273.206V49.3442Z" fill="#171719"/>
<path d="M73.8839 126.343C72.3983 126.486 70.7604 126.343 69.2032 125.626C68.6393 125.366 68.1113 125.482 67.5653 125.697C66.3392 126.172 65.0862 126.396 63.7706 126.361C61.2467 126.298 59.3046 124.604 59.0272 122.04C58.9466 121.269 58.6244 120.866 57.989 120.552C55.5636 119.333 53.9436 117.406 53.3888 114.726C53.1024 113.372 52.0373 112.539 51.6077 111.293C51.2497 110.289 51.0707 109.285 51.2587 108.299C51.4198 107.465 51.1781 106.909 50.7217 106.3C48.8512 103.799 49.0123 100.438 51.8136 98.2952C52.1895 98.0084 52.5654 97.6946 52.7086 97.1658C53.2903 95.0324 54.8118 93.643 56.4586 92.3433C57.452 91.5634 58.2933 90.6133 59.1167 89.6452C59.3852 89.3315 59.6268 89.0177 59.9848 88.8116C61.6137 87.8793 63.2068 86.9471 64.585 85.5936C65.5785 84.6166 67.0731 84.742 68.4156 84.8137C69.2479 84.8586 69.9371 84.6614 70.6441 84.1235C72.9442 82.3667 75.2533 82.3666 77.5623 84.1415C78.2336 84.6614 78.878 84.8855 79.6745 84.8048C81.9836 84.5717 83.8899 85.2978 85.295 87.216C85.4293 87.4043 85.662 87.5835 85.8768 87.6284C87.6041 88.0138 88.7586 89.1881 89.8326 90.4968C90.6381 91.4738 91.6494 92.2268 92.6071 93.0514C94.9698 95.0772 96.0796 98.0352 98.0396 100.402C99.5074 102.185 98.7377 104.373 97.5205 106.21C97.0999 106.856 96.724 107.411 96.9388 108.317C97.252 109.67 96.9299 111.069 96.1333 112.171C95.3547 113.256 94.934 114.439 94.5313 115.676C93.8332 117.791 92.4281 119.351 90.486 120.364C89.6536 120.794 89.2151 121.26 89.1435 122.3C89.0092 124.353 86.9239 126.208 84.8833 126.325C83.5319 126.405 82.1984 126.316 80.9454 125.778C80.1131 125.419 79.3434 125.402 78.5021 125.769C77.804 126.074 77.0701 126.334 76.2736 126.325C75.5486 126.316 74.8147 126.325 73.8929 126.325L73.8839 126.343Z" fill="#AFC1BB"/>
<path d="M93.7974 100.5C93.8332 101.459 93.5199 102.311 93.0545 103.127C92.7234 103.7 92.2401 103.889 91.6852 103.62C91.0318 103.297 91.3182 102.777 91.5688 102.329C91.9268 101.701 92.249 101.047 92.2222 100.321C92.1595 98.4477 90.5754 97.2644 88.7496 97.7574C87.8099 98.0174 87.3535 97.8381 87.4788 96.7983C87.6041 95.7316 87.0492 95.1669 86.1452 94.7994C85.5903 94.5753 84.9817 94.2795 85.3129 93.5266C85.644 92.7915 86.2437 93.2128 86.727 93.3562C87.3356 93.5355 88.0247 93.8403 88.2753 94.3602C88.857 95.5882 89.8505 95.9378 91.0408 96.2964C92.8666 96.8521 93.8063 98.4745 93.7974 100.491V100.5Z" fill="white"/>
<path d="M55.5369 101.898C55.4653 102.471 55.7159 103.054 55.9038 103.655C56.0381 104.076 55.9307 104.434 55.5637 104.632C55.1878 104.838 54.8478 104.668 54.5703 104.345C53.7201 103.368 53.8275 100.311 54.7672 99.0921C55.877 97.6489 57.5506 97.2545 59.1168 98.0433C59.618 98.2943 60.0029 98.626 59.7791 99.2086C59.5464 99.8271 58.9915 99.7195 58.4903 99.5851C56.6109 99.0562 55.5369 99.863 55.5369 101.898Z" fill="white"/>
<path d="M80.202 112.377C78.8596 111.893 77.5081 112.171 76.2015 112.897C76.0583 112.978 75.8793 113.04 75.7182 113.031C73.5254 112.915 71.3327 112.431 69.14 113.094C68.8984 113.166 68.5225 112.879 68.2361 112.709C67.9318 112.529 67.7707 112.216 67.8333 111.857C67.896 111.481 68.1913 111.257 68.5493 111.319C70.5093 111.642 72.4336 110.029 74.4383 111.239C74.7247 111.418 75.3512 111.355 75.6466 111.158C77.4186 109.948 79.3608 110.495 81.2581 110.468C81.8936 110.459 82.538 110.432 82.538 111.239C82.538 111.938 81.9115 112.18 81.3118 112.296C80.9807 112.359 80.6406 112.341 80.202 112.368V112.377Z" fill="black"/>
<path d="M70.2683 121.538C68.5499 121.484 67.0374 120.901 66.026 119.359C65.6949 118.857 65.4622 118.176 65.9723 117.737C66.6615 117.154 66.921 117.943 67.288 118.356C69.2927 120.561 71.0738 120.48 73.0248 118.158C73.3381 117.782 73.7229 117.414 74.1615 117.208C75.1012 116.76 75.7993 117.253 76.2199 118.069C76.5958 118.795 76.569 119.906 75.7366 119.969C74.0004 120.086 72.7384 121.394 71.0559 121.502C70.8053 121.52 70.5547 121.529 70.2504 121.547L70.2683 121.538Z" fill="black"/>
<path d="M82.6817 120.436C81.2676 120.391 80.0683 119.539 78.5826 119.665C77.6698 119.746 77.2581 118.455 77.7145 117.514C78.1709 116.572 79.1375 116.214 79.9967 116.689C80.2115 116.806 80.3816 117.003 80.5516 117.173C82.619 119.217 82.7085 119.226 85.0624 117.603C85.2682 117.469 85.4382 117.272 85.6441 117.137C86.0021 116.904 86.4048 116.725 86.7539 117.101C87.1029 117.469 86.9776 117.899 86.7091 118.231C85.6709 119.522 84.3016 120.23 82.6727 120.427L82.6817 120.436Z" fill="black"/>
<path d="M73.1051 132.069C72.1206 132.177 71.2525 131.693 70.9392 130.42C70.6081 129.12 70.1158 127.857 70.0711 126.494C70.0621 126.162 70.259 125.831 70.626 125.741C71.0019 125.66 71.2704 125.876 71.3957 126.216C71.5926 126.763 71.7805 127.328 71.9148 127.892C72.1475 128.923 72.6308 129.506 73.8032 129.443C74.6803 129.389 75.629 129.676 75.5126 130.779C75.3873 131.953 74.3312 132.025 73.114 132.061L73.1051 132.069Z" fill="black"/>
<path d="M81.9475 127.023C81.7596 127.982 81.5716 129.219 81.2674 130.429C81.0705 131.227 80.4619 131.666 79.6385 131.756C78.7882 131.845 77.8754 131.899 77.5174 130.931C77.1415 129.9 77.9022 129.318 78.7435 129.12C79.719 128.887 80.1218 128.314 80.265 127.408C80.3187 127.077 80.3813 126.745 80.4708 126.431C80.5872 126.019 80.8199 125.598 81.2853 125.625C81.9833 125.66 81.9117 126.252 81.9475 127.023Z" fill="black"/>
<path d="M71.8252 102.597C71.6552 102.902 71.5299 103.216 71.324 103.458C70.3127 104.713 69.0597 105.645 67.5025 106.102C67.0818 106.228 66.6612 106.165 66.4285 105.744C66.1868 105.313 66.33 104.874 66.7417 104.695C68.2005 104.041 69.3998 103.046 70.5544 101.961C70.8139 101.719 71.1898 101.719 71.4672 101.943C71.6373 102.077 71.6999 102.346 71.8342 102.597H71.8252Z" fill="black"/>
<path d="M79.1376 102.382C79.2987 102.436 79.5135 102.436 79.594 102.543C80.5606 103.762 81.9836 104.291 83.2634 105.044C83.5409 105.206 83.7378 105.501 83.6483 105.887C83.5588 106.29 83.2187 106.38 82.9055 106.398C81.6614 106.496 79.0928 104.919 78.6095 103.771C78.35 103.153 78.3947 102.633 79.1376 102.382Z" fill="black"/>
<path d="M72.9527 108.523C72.4517 108.532 72.0849 108.308 72.0581 107.841C72.0133 107.026 72.568 106.64 73.2837 106.524C73.6505 106.461 73.9457 106.712 73.9904 107.08C74.0888 107.868 73.7131 108.352 72.9527 108.523Z" fill="black"/>
<path d="M77.8571 107.312C77.9555 108.065 77.6602 108.423 76.8819 108.289C76.4972 107.823 76.4615 107.374 76.9356 106.944C77.0608 106.881 77.195 106.864 77.3382 106.899C77.535 107.007 77.705 107.15 77.8571 107.321V107.312Z" fill="black"/>
<path d="M76.9357 106.944C76.9178 107.392 76.8999 107.84 76.882 108.289C76.2558 107.814 76.2647 107.365 76.9357 106.944Z" fill="black"/>
<path d="M77.857 107.312C77.6781 107.178 77.5081 107.034 77.3381 106.891C77.6155 106.891 77.7944 107.043 77.857 107.312Z" fill="black"/>
<path d="M64.9518 147.819V148.912H70.7513V147.819H72.0759V151.978H63.6272V147.819H64.9428H64.9518ZM64.9518 150.965H70.7513V149.89H64.9518V150.965ZM73.5615 152.883V153.959H68.4959V155.035H72.1206V157.966H64.8175V159.015H72.4697V160.036H63.5198V157.007H70.805V156.03H63.5019V155.035H67.1624V153.959H62.1326V152.883H73.5615ZM84.364 147.604V151.36H86.1809V152.48H84.364V156.836H83.0395V147.604H84.364ZM84.8921 158.826V159.902H76.4166V155.868H77.7411V158.826H84.8831H84.8921ZM78.0365 148.473C79.9249 148.473 81.3658 149.764 81.3748 151.593C81.3569 153.412 79.9249 154.712 78.0365 154.712C76.1481 154.712 74.6982 153.412 74.7071 151.593C74.6892 149.755 76.1481 148.473 78.0365 148.473ZM78.0365 149.639C76.8909 149.639 75.9959 150.436 76.0049 151.602C75.987 152.767 76.8819 153.565 78.0365 153.565C79.191 153.565 80.0771 152.767 80.0771 151.602C80.0771 150.436 79.2 149.639 78.0365 149.639Z" fill="#171719"/>
<mask id="mask2_1491_4381" style="mask-type:luminance" maskUnits="userSpaceOnUse" x="147" y="81" width="51" height="52">
<path d="M197.562 81.8906H147.443V132.088H197.562V81.8906Z" fill="white"/>
</mask>
<g mask="url(#mask2_1491_4381)">
<path d="M147.443 102.759C147.407 96.2603 149.842 90.8821 155.015 86.9649C158.604 84.24 162.595 82.9492 167.24 84.1145C170.659 84.975 174.257 84.9481 177.685 84.1324C184.021 82.6444 188.836 85.217 192.855 89.672C196.542 93.7594 197.974 98.806 197.446 104.256C196.99 109.025 195.065 113.282 192.022 117.002C189.508 120.077 186.679 122.82 182.965 124.389C179.743 125.742 176.387 126.208 172.834 126.02C170.74 125.912 168.627 126.02 166.524 125.724C161.432 125.007 157.574 122.157 154.209 118.517C150.737 114.752 148.508 110.342 147.604 105.26C147.452 104.417 147.506 103.593 147.443 102.759Z" fill="#CAADC6"/>
<path d="M194.054 101.754C193.741 104.157 192.569 106.398 190.591 108.217C190.161 108.612 189.571 108.827 189.132 108.298C188.792 107.904 189.025 107.42 189.365 107.061C190.143 106.254 190.806 105.376 191.298 104.381C191.906 103.153 192.712 101.988 191.11 100.768C190.376 100.213 190.555 99.2267 191.352 98.6261C192.077 98.0793 193.222 98.4379 193.696 99.3253C194.063 99.9976 194.046 100.751 194.046 101.763L194.054 101.754Z" fill="black"/>
<path d="M153.35 104.605C153.306 103.736 153.431 103.117 153.923 102.624C154.415 102.122 154.979 101.853 155.668 102.167C156.438 102.517 156.993 103.35 156.51 103.951C155.158 105.654 156.134 107.052 156.724 108.585C157.038 109.383 157.96 110.503 156.859 111.032C155.686 111.597 155.463 110.154 155.113 109.392C154.38 107.787 153.619 106.201 153.359 104.623L153.35 104.605Z" fill="black"/>
<path d="M183.834 130.251C182.598 130.313 181.838 130.062 181.471 129.166C181.014 128.063 180.585 126.952 180.191 125.832C180.003 125.312 179.922 124.675 180.603 124.442C181.274 124.227 181.623 124.774 181.793 125.285C182.249 126.692 183.144 127.328 184.639 127.337C185.427 127.337 186.062 127.857 186.035 128.736C186.008 129.596 185.319 129.955 184.576 130.143C184.227 130.233 183.851 130.242 183.834 130.242V130.251Z" fill="black"/>
<path d="M169.979 94.333C169.943 94.6468 169.728 94.7991 169.451 94.8977C169.057 95.0322 168.744 94.7902 168.404 94.6557C165.692 93.5711 165.495 93.6249 163.696 95.6955C163.347 96.0989 163.114 96.807 162.443 96.4664C161.638 96.0541 162.014 95.337 162.273 94.7633C163.49 92.0114 167.437 91.2674 169.54 93.3649C169.809 93.6339 170.033 93.9117 169.97 94.3241L169.979 94.333Z" fill="black"/>
<path d="M174.696 109.087C173.237 108.943 171.456 108.155 169.63 108.943C169.469 109.006 169.075 108.8 168.959 108.612C168.753 108.28 168.878 107.904 169.165 107.626C170.042 106.774 171.16 106.72 172.243 106.891C173.774 107.133 175.268 107.599 176.844 107.133C177.175 107.034 177.577 107.169 177.712 107.599C177.882 108.155 177.542 108.45 177.139 108.701C176.486 109.096 175.743 109.096 174.687 109.096L174.696 109.087Z" fill="black"/>
<path d="M167.419 125.544C167.097 126.925 166.479 128.359 165.522 129.623C165.03 130.277 164.26 130.34 163.517 130.268C162.935 130.215 162.434 129.973 162.327 129.318C162.246 128.825 162.407 128.305 162.864 128.144C164.466 127.579 165.414 126.486 165.933 124.89C166.059 124.496 166.533 124.128 167.061 124.415C167.41 124.603 167.518 124.962 167.428 125.535L167.419 125.544Z" fill="black"/>
<path d="M178.069 95.9823C179.009 96.0272 180.298 95.3459 180.37 96.7353C180.405 97.6227 179.143 97.6227 178.347 97.7303C176.19 97.9992 174.677 97.5779 174.982 96.8967C175.644 95.4176 177.112 96.305 178.078 95.9823H178.069Z" fill="black"/>
<path d="M181.381 104.499C180.79 104.427 180.531 104.077 180.585 103.737C180.746 102.706 181.497 102.177 182.446 102.052C182.894 101.989 183.35 102.392 183.198 102.939C182.929 103.898 182.24 104.427 181.372 104.499H181.381Z" fill="white"/>
<path d="M165.235 102.794C165.88 102.893 166.837 102.75 166.802 103.798C166.775 104.704 165.951 104.569 165.325 104.542C164.689 104.515 163.902 104.524 163.839 103.691C163.777 102.794 164.528 102.785 165.235 102.794Z" fill="white"/>
<path d="M170.668 101.782C170.65 102.561 170.364 103.09 169.764 103.135C168.986 103.189 168.628 102.57 168.61 101.889C168.592 101.28 169.022 100.858 169.648 100.867C170.292 100.876 170.543 101.378 170.668 101.782Z" fill="black"/>
<path d="M177.138 102.052C177.058 102.536 176.79 102.849 176.28 102.876C175.797 102.903 175.367 102.724 175.313 102.195C175.251 101.541 175.653 101.218 176.271 101.209C176.79 101.209 177.049 101.55 177.129 102.052H177.138Z" fill="black"/>
</g>
<path d="M172.01 154.973V156.022H160.59V154.973H165.637V154.059C163.427 153.96 162.165 153.297 162.183 152.158C162.165 150.913 163.677 150.258 166.291 150.258C168.904 150.258 170.399 150.913 170.399 152.158C170.399 153.297 169.146 153.969 166.962 154.059V154.973H172.01ZM170.73 158.836V159.903H162.031V156.766H163.373V158.836H170.73ZM171.365 148.743V149.765H161.171V148.743H165.629V147.497H166.953V148.743H171.356H171.365ZM166.291 151.208C164.474 151.208 163.525 151.531 163.525 152.158C163.525 152.786 164.474 153.109 166.291 153.109C168.108 153.109 169.056 152.786 169.056 152.158C169.056 151.531 168.09 151.208 166.291 151.208ZM182.812 147.632V151.397H184.647V152.517H182.812V156.855H181.479V147.623H182.812V147.632ZM183.367 158.827V159.903H174.936V156.147H176.279V158.819H183.367V158.827ZM179.17 148.43V152.123H174.802V153.871C176.977 153.871 178.516 153.772 180.342 153.467L180.485 154.561C178.543 154.901 176.887 154.964 174.489 154.964H173.486V151.101H177.881V149.514H173.478V148.421H179.188L179.17 148.43Z" fill="#171719"/>
<mask id="mask3_1491_4381" style="mask-type:luminance" maskUnits="userSpaceOnUse" x="245" y="81" width="52" height="52">
<path d="M296.01 81.8906H245.891V132.088H296.01V81.8906Z" fill="white"/>
</mask>
<g mask="url(#mask3_1491_4381)">
<path d="M271.04 129.714C263.827 129.965 257.168 125.528 254.796 118.742C253.507 115.049 253.74 111.365 254.698 107.636C255.62 104.051 257.884 101.335 260.211 98.6457C262.457 96.0551 264.874 93.5901 266.521 90.5335C267.738 88.2746 268.624 85.9082 268.803 83.3177C268.901 81.8566 269.519 81.5249 270.754 82.2779C271.407 82.6723 272.052 83.0846 272.696 83.488C275.578 85.2538 276.41 88.1222 276.992 91.2058C277.439 93.5991 276.526 95.7145 275.989 97.9017C275.739 98.9146 275.533 99.8647 276.374 100.6C277.046 101.191 277.941 101.693 278.818 101.236C279.793 100.734 280.357 99.793 280.491 98.6815C280.554 98.1795 280.509 97.6596 280.491 97.1487C280.455 96.1717 281.01 96.1089 281.735 96.3599C282.201 96.5212 282.487 96.8977 282.729 97.3101C284.134 99.7303 285.691 102.106 286.434 104.822C288.197 111.311 287.893 117.622 284.009 123.35C280.93 127.894 276.446 129.83 271.022 129.696H271.031L271.04 129.714Z" fill="#E3BFA2"/>
<path d="M252.236 101.084C252.299 98.8792 253.355 97.1761 254.429 95.4999C255.458 93.8954 256.407 92.2461 257.007 90.4175C257.177 89.9065 257.284 89.1805 258.072 89.1536C258.841 89.1267 259.002 89.8348 259.289 90.3009C260.649 92.5508 260.184 95.6612 258.125 97.9201C256.622 99.5694 255.396 101.371 254.572 103.442C254.42 103.818 254.286 104.15 253.829 104.186C253.328 104.231 253.024 103.935 252.827 103.54C252.433 102.734 252.272 101.864 252.245 101.084H252.236Z" fill="#E3BFA2"/>
<path d="M287.651 117.263C287.311 116.312 286.506 116.268 286.067 115.792C285.816 115.524 285.7 115.192 285.888 114.878C286.067 114.582 286.416 114.484 286.774 114.582C287.597 114.798 288.349 115.183 289.003 115.721C289.853 116.42 290.032 117.325 289.253 118.132C288.43 118.993 287.651 119.763 287.678 121.108C287.696 121.807 287.123 122.354 286.344 122.354C285.387 122.354 284.814 121.744 284.447 120.938C284.116 120.23 284.286 119.62 284.93 119.172C285.816 118.553 286.872 118.159 287.669 117.263H287.66H287.651Z" fill="black"/>
<path d="M255.271 115.166C255.62 115.211 255.924 115.336 256.049 115.695C256.174 116.053 256.076 116.349 255.772 116.573C255.083 117.102 253.749 117.281 254.134 118.456C254.438 119.388 255.655 119.37 256.532 119.621C257.248 119.827 257.732 120.231 257.92 120.948C258.126 121.772 257.884 122.498 257.132 122.893C256.398 123.278 255.718 122.866 255.467 122.212C255.101 121.243 254.42 120.786 253.579 120.338C252.532 119.791 251.879 118.922 252.272 117.64C252.595 116.573 254.313 115.175 255.271 115.175V115.166Z" fill="black"/>
<path d="M272.267 115.56C273.645 115.604 274.907 116.026 276.035 116.823C276.59 117.218 277.073 117.684 277.127 118.446C277.154 118.804 277.055 119.163 276.769 119.342C276.473 119.522 276.106 119.423 275.856 119.145C273.708 116.734 271.372 116.85 268.902 118.598C268.49 118.885 268.007 119.226 267.559 118.733C267.04 118.15 267.398 117.612 267.855 117.209C269.099 116.097 270.575 115.56 272.258 115.56H272.267Z" fill="black"/>
<path d="M281.288 130.126C281.189 131.273 280.545 131.712 279.596 131.766C278.468 131.829 277.43 130.95 277.09 129.66C276.956 129.167 276.831 128.602 277.287 128.252C277.851 127.822 278.218 128.306 278.495 128.718C278.979 129.444 279.73 129.077 280.348 129.22C280.912 129.355 281.207 129.686 281.288 130.126Z" fill="black"/>
<path d="M264.176 128.988C263.862 129.948 264.31 131.355 262.869 131.902C262.323 132.117 261.679 132.269 261.267 131.678C260.927 131.193 261.106 130.691 261.544 130.351C262.108 129.921 262.439 129.383 262.565 128.684C262.663 128.128 262.717 127.375 263.576 127.608C264.14 127.76 264.184 128.343 264.176 128.979V128.988Z" fill="black"/>
<path d="M268.096 107.331C268.123 107.726 267.908 107.968 267.577 108.084C266.754 108.371 264.48 107.358 264.113 106.507C263.854 105.915 264.212 105.404 264.758 105.476C265.921 105.619 266.942 106.238 267.899 106.901C268.007 106.982 268.033 107.188 268.105 107.34L268.096 107.331Z" fill="black"/>
<path d="M274.468 108.121C274.101 108.076 273.815 107.879 273.761 107.511C273.654 106.884 275.202 104.687 275.891 104.508C276.366 104.383 276.742 104.616 276.831 105.1C276.992 105.978 275.31 108.085 274.468 108.112V108.121Z" fill="black"/>
<path d="M274.834 112.038C274.798 112.531 274.539 112.818 274.056 112.818C273.572 112.818 273.286 112.495 273.188 112.074C273.071 111.581 273.376 111.213 273.814 111.168C274.378 111.106 274.727 111.473 274.834 112.038Z" fill="black"/>
<path d="M268.776 111.553C269.259 111.597 269.545 111.902 269.554 112.341C269.554 112.825 269.214 113.059 268.74 113.023C268.266 112.996 267.953 112.709 267.971 112.252C267.989 111.795 268.293 111.526 268.785 111.553H268.776Z" fill="black"/>
</g>
<path d="M270.486 154.193V155.26H265.51V157.572H264.194V155.26H259.021V154.193H270.486ZM269.215 158.827V159.903H260.444V156.47H261.76V158.818H269.215V158.827ZM261.849 148.017V149.541H267.649V148.017H268.973V153.091H260.525V148.017H261.84H261.849ZM261.849 152.015H267.649V150.527H261.849V152.015ZM281.584 153.225V154.319H277.798V157.51H282.89V158.603H271.425V157.51H276.473V154.319H272.795V148.662H274.137V153.225H281.593H281.584Z" fill="#171719"/>
<mask id="mask4_1491_4381" style="mask-type:luminance" maskUnits="userSpaceOnUse" x="48" y="185" width="52" height="52">
<path d="M99.1131 185.869H48.9939V236.066H99.1131V185.869Z" fill="white"/>
</mask>
<g mask="url(#mask4_1491_4381)">
<path d="M79.1371 232.714C72.8275 232.257 66.3478 232.732 60.0113 231.316C56.0733 230.437 52.4307 229.03 50.7213 224.942C49.4325 221.859 49.8263 218.695 50.7661 215.647C53.1109 208.091 56.0733 200.785 60.6915 194.295C62.0608 192.377 63.1974 190.289 65.0679 188.72C69.0417 185.376 73.3466 185.117 77.8752 187.187C81.4104 188.801 83.9164 191.588 86.1359 194.735C88.6419 198.284 91.4163 201.655 93.1258 205.679C95.2469 210.672 97.6276 215.638 97.2964 221.285C97.2248 222.585 97.2248 223.912 96.9384 225.166C96.3567 227.748 94.7636 229.505 92.2755 230.536C88.0959 232.266 83.7016 232.651 79.1371 232.714Z" fill="#ACBCE5"/>
<path d="M57.8991 229.138C58.2749 230.913 59.3937 231.791 60.3603 232.768C61.13 233.557 61.1926 234.426 60.5572 235.287C60.0023 236.04 59.1878 236.219 58.3018 235.95C57.5053 235.699 56.843 235.108 57.2726 234.301C57.8722 233.18 57.5053 232.401 56.8519 231.54C56.5745 231.172 56.3686 230.733 56.2433 230.294C55.5721 228.134 56.8072 226.807 59.0446 227.255C59.4026 227.327 59.7964 227.417 60.0918 227.623C61.2374 228.421 62.2308 228.681 63.5643 227.721C64.7367 226.87 66.0703 227.56 67.2338 228.232C67.5649 228.43 67.7976 228.743 67.6455 229.165C67.5023 229.568 67.1532 229.684 66.7594 229.667C66.6699 229.667 66.5715 229.64 66.482 229.631C65.7749 229.577 64.8531 228.815 64.4235 229.604C63.8776 230.608 65.0142 231.19 65.6049 231.845C65.9181 232.194 66.3119 232.463 66.6073 232.813C67.1711 233.476 67.6365 234.22 67.01 235.063C66.4372 235.825 65.578 235.896 64.7188 235.69C63.7165 235.448 63.4569 234.812 63.7254 233.79C64.1282 232.284 62.9468 231.146 62.0428 230.572C60.9778 229.909 59.7427 229.012 57.917 229.12L57.8991 229.138Z" fill="black"/>
<path d="M61.7834 216.544C60.969 216.571 60.5304 216.382 60.4857 215.836C60.4499 215.316 60.8437 215.011 61.3359 214.903C62.5083 214.643 63.6897 214.383 64.8711 214.15C67.4397 213.639 70.0352 213.613 72.6396 213.657C73.3198 213.675 74.3937 213.478 74.3311 214.545C74.2774 215.441 73.2929 215.459 72.5411 215.45C69.5608 215.414 66.5984 215.549 63.6718 216.149C62.9469 216.302 62.2219 216.445 61.7834 216.544Z" fill="black"/>
<path d="M78.5283 223.831C78.6178 224.36 78.4478 224.683 78.2151 224.97C76.2819 227.309 73.5522 227.892 70.7688 228.188C69.8738 228.277 69.2115 227.444 69.3189 226.493C69.4263 225.543 70.3213 224.799 71.0999 225.194C73.6059 226.493 75.3064 225.247 77.0427 223.733C77.5617 223.284 78.1793 223.042 78.5462 223.822L78.5283 223.831Z" fill="black"/>
<path d="M57.2723 224.386C57.147 225.309 56.5921 225.991 55.5092 226.071C53.5581 226.206 50.7568 223.23 50.9179 221.213C50.9537 220.747 51.0343 220.254 51.5981 220.128C52.1709 220.003 52.4394 220.37 52.5736 220.854C52.681 221.204 52.69 221.607 52.86 221.93C53.3612 222.916 53.8982 223.517 55.2586 222.988C56.619 222.459 57.3797 223.104 57.2813 224.395L57.2723 224.386Z" fill="black"/>
<path d="M74.2956 205.024C74.1524 205.454 73.9824 205.804 73.5617 205.831C73.2038 205.858 72.81 205.84 72.4699 205.732C70.5098 205.114 68.5677 204.459 66.6167 203.814C66.1423 203.653 65.7306 203.366 65.7575 202.846C65.7933 202.308 66.2587 202.048 66.7599 202.093C69.3106 202.326 71.6196 203.312 73.9018 204.379C74.0987 204.468 74.1793 204.836 74.2956 205.033V205.024Z" fill="black"/>
<path d="M62.1951 203.286C62.1593 203.698 61.9624 204.039 61.5686 204.119C59.8145 204.451 58.1319 204.926 56.5746 205.876C55.9929 206.235 55.3753 205.84 55.4738 205.15C55.6707 203.833 56.87 203.492 57.9082 203.107C59.2148 202.614 60.5573 202.103 61.9535 202.838C62.0788 202.9 62.1146 203.142 62.1862 203.304L62.1951 203.286Z" fill="black"/>
<path d="M67.3946 209.973C67.86 209.91 68.3164 209.793 68.7818 209.784C69.3904 209.766 69.9722 210 69.9006 210.699C69.8379 211.335 69.283 211.559 68.6655 211.586C67.4841 211.631 67.2246 210.968 67.3857 209.964H67.3946V209.973Z" fill="white"/>
<path d="M67.385 209.982C67.1077 209.955 66.8304 209.946 66.562 209.893C65.9626 209.767 65.5332 209.435 65.6674 208.763C65.7568 208.297 66.0878 207.912 66.6067 207.93C67.385 207.956 67.7518 208.423 67.6445 209.202C67.6087 209.471 67.4745 209.722 67.385 209.982Z" fill="black"/>
<path d="M59.5014 209.713C59.4656 209.167 59.7966 208.862 60.2708 208.817C60.6197 208.781 60.9775 208.969 61.0044 209.418C61.0312 209.955 60.7092 210.269 60.235 210.323C59.8682 210.368 59.5551 210.144 59.5014 209.713Z" fill="black"/>
</g>
<path d="M73.5883 258.728V259.83H68.469V264.142H67.1713V259.83H62.1235V258.728H73.5883ZM67.8336 252.076C70.4738 252.076 72.2906 253.152 72.2906 254.864C72.2906 256.576 70.4738 257.625 67.8336 257.625C65.1933 257.625 63.3765 256.558 63.3765 254.864C63.3765 253.17 65.1844 252.076 67.8336 252.076ZM67.8336 253.143C65.972 253.161 64.7279 253.797 64.7458 254.864C64.7279 255.913 65.9809 256.558 67.8336 256.558C69.6862 256.558 70.9392 255.913 70.9392 254.864C70.9392 253.815 69.6951 253.152 67.8336 253.143ZM80.2202 251.736C83.0483 251.736 84.6951 252.507 84.6951 253.896C84.6951 255.285 83.0483 256.065 80.2202 256.065C77.392 256.065 75.7452 255.294 75.7452 253.896C75.7452 252.498 77.392 251.736 80.2202 251.736ZM80.2202 252.731C78.2243 252.749 77.1146 253.152 77.1325 253.896C77.1146 254.685 78.2243 255.07 80.2202 255.07C82.216 255.07 83.3258 254.676 83.3258 253.896C83.3258 253.152 82.2249 252.749 80.2202 252.731ZM85.9391 256.809V257.858H80.8735V258.934H84.4982V261.874H77.1951V262.994H84.8472V264.016H75.8974V260.906H83.1826V259.929H75.8795V258.934H79.54V257.858H74.5102V256.809H85.9391Z" fill="#171719"/>
<mask id="mask5_1491_4381" style="mask-type:luminance" maskUnits="userSpaceOnUse" x="147" y="185" width="51" height="52">
<path d="M197.562 185.869H147.443V236.066H197.562V185.869Z" fill="white"/>
</mask>
<g mask="url(#mask5_1491_4381)">
<path d="M192.792 207.956C191.888 206.19 191.289 204.308 190.358 202.56C188.729 199.494 187.1 196.429 185.436 193.381C183.816 190.414 181.453 188.63 177.944 188.89C173.881 189.204 169.818 188.908 165.755 188.908C165.522 188.899 165.28 188.908 165.048 188.872C161.02 188.245 158.228 189.939 156.143 193.381C153.887 197.101 151.847 200.937 149.788 204.756C149.35 205.572 148.75 206.414 148.831 207.4C149.027 209.704 149.502 211.999 150.817 213.908C153.771 218.184 156.868 222.37 160.34 226.242C161.647 227.703 163.311 228.402 165.182 228.178C169.2 227.694 173.228 228.151 177.237 227.963C178.974 227.882 180.567 227.425 181.686 226.143C185.31 222.002 189.123 218.004 192.067 213.298C193.097 211.658 193.75 209.812 192.783 207.929L192.792 207.956Z" fill="#EFE5BF"/>
<path d="M197.16 202.192C197.008 202.927 196.694 203.636 196.041 204.146C193.571 206.056 191.083 207.965 188.604 209.874C188.478 209.964 188.353 210.063 188.228 210.152C187.879 210.367 187.521 210.511 187.181 210.152C186.823 209.767 187.02 209.408 187.297 209.121C187.673 208.727 188.085 208.359 188.514 208.019C189.615 207.14 190.734 206.28 191.862 205.437C192.864 204.684 193.777 204.093 193.41 202.434C193.106 201.081 194.797 200.068 196.175 200.525C196.936 200.767 197.258 201.314 197.178 202.21L197.16 202.192Z" fill="black"/>
<path d="M154.442 205.859C152.24 204.837 150.307 203.663 148.499 202.318C147.371 201.484 147.219 200.247 147.989 199.485C148.544 198.939 149.224 198.813 149.94 199.055C150.584 199.279 151.113 199.844 150.951 200.471C150.513 202.175 151.703 202.65 152.786 203.259C153.663 203.761 154.558 204.236 155.417 204.756C155.758 204.953 156.08 205.312 155.919 205.715C155.686 206.307 155.167 206.083 154.719 205.957C154.567 205.912 154.433 205.85 154.433 205.85L154.442 205.859Z" fill="black"/>
<path d="M181.829 231.343C181.068 231.325 180.477 231.128 180.155 230.501C179.367 228.959 178.58 227.417 177.837 225.857C177.622 225.418 177.622 224.889 178.222 224.701C178.687 224.549 178.938 224.925 179.126 225.266C179.43 225.813 179.698 226.386 179.976 226.951C180.504 228.027 181.014 229.075 182.518 228.95C183.162 228.896 183.798 229.273 183.833 230.026C183.878 230.94 183.144 231.155 182.428 231.298C182.204 231.343 181.963 231.334 181.829 231.352V231.343Z" fill="black"/>
<path d="M165.029 224.673C165.414 224.843 165.53 225.22 165.378 225.614C164.716 227.38 164.08 229.164 163.302 230.876C162.899 231.763 161.333 232.122 160.393 231.728C159.937 231.53 159.588 231.217 159.597 230.679C159.597 230.141 159.928 229.639 160.402 229.684C162.461 229.872 162.711 228.268 163.266 226.923C163.535 226.269 163.857 225.641 164.188 225.023C164.34 224.736 164.626 224.584 165.029 224.691V224.673Z" fill="black"/>
<path d="M173.577 210.287C174.919 210.529 176.137 210.968 176.826 212.286C177.067 212.743 177.076 213.227 176.638 213.559C176.163 213.908 175.841 213.604 175.474 213.236C173.559 211.309 172.127 211.443 170.301 213.675C169.943 214.115 169.702 215.038 168.932 214.491C168.288 214.025 168.753 213.335 169.075 212.806C170.104 211.13 171.644 210.359 173.577 210.305V210.287Z" fill="black"/>
<path d="M176.736 199.836C176.45 200.777 176.038 201.521 175.09 201.736C174.329 201.906 173.711 201.575 173.291 200.938C173.031 200.544 172.807 200.078 173.112 199.629C173.496 199.056 173.917 199.387 174.284 199.692C174.964 200.266 175.206 199.513 175.618 199.28C176.325 198.868 176.575 199.289 176.736 199.836Z" fill="black"/>
<path d="M170.722 200.686C170.632 201.305 170.212 201.654 169.702 201.852C168.842 202.174 168.028 202.04 167.348 201.385C166.936 201 166.677 200.507 166.873 199.924C167.026 199.476 167.491 199.288 167.759 199.611C168.431 200.417 169.12 200.408 170.006 200.059C170.418 199.888 170.704 200.22 170.722 200.686Z" fill="black"/>
<path d="M175.546 206.487C174.982 206.469 174.499 206.281 174.517 205.734C174.535 205.187 175.036 205.026 175.537 205.079C176.02 205.133 176.458 205.33 176.369 205.922C176.297 206.37 175.885 206.46 175.546 206.478V206.487Z" fill="black"/>
<path d="M169.414 206.388C169.28 206.791 169.039 207.024 168.591 206.962C168.233 206.908 168.055 206.621 168.09 206.325C168.144 205.913 168.457 205.698 168.895 205.752C169.262 205.796 169.361 206.074 169.405 206.379L169.414 206.388Z" fill="black"/>
</g>
<path d="M170.686 251.601V256.504H172.333V257.625H170.686V264.151H169.352V251.601H170.686ZM163.553 255.16C163.553 256.567 163.723 258.494 164.698 259.848C165.629 258.521 165.817 256.612 165.835 255.16V253.896H164.94V252.82H168.439V253.896H167.097V255.16C167.097 257.096 167.464 259.391 169.03 260.538L168.18 261.506C167.285 260.816 166.757 259.713 166.461 258.468C166.175 259.74 165.647 260.906 164.698 261.623C163.768 260.915 163.24 259.749 162.953 258.485C162.64 259.722 162.112 260.825 161.235 261.515L160.385 260.547C161.933 259.382 162.318 257.042 162.318 255.169V253.905H160.823V252.829H164.457V253.905H163.58V255.169L163.553 255.16ZM184.388 257.508V258.584H172.968V257.508H184.388ZM178.669 259.552C181.363 259.552 182.992 260.395 182.992 261.847C182.992 263.299 181.372 264.133 178.669 264.115C175.957 264.133 174.319 263.299 174.319 261.847C174.319 260.395 175.957 259.552 178.669 259.552ZM178.669 260.592C176.754 260.61 175.662 261.04 175.662 261.856C175.662 262.672 176.754 263.075 178.669 263.075C180.584 263.075 181.658 262.654 181.658 261.856C181.658 261.058 180.558 260.61 178.669 260.592ZM183.368 252.22V253.313H179.564C179.707 254.532 181.488 255.572 183.797 255.805L183.323 256.854C181.157 256.603 179.358 255.689 178.678 254.362C177.98 255.689 176.19 256.603 174.024 256.854L173.568 255.805C175.841 255.563 177.631 254.541 177.792 253.313H174.015V252.22H183.368Z" fill="#171719"/>
<mask id="mask6_1491_4381" style="mask-type:luminance" maskUnits="userSpaceOnUse" x="245" y="185" width="52" height="52">
<path d="M296.01 185.869H245.891V236.066H296.01V185.869Z" fill="white"/>
</mask>
<g mask="url(#mask6_1491_4381)">
<path d="M294.203 209.785C294.453 212.752 292.547 214.626 290.345 216.356C285.736 219.977 281.36 223.814 278.111 228.797C276.75 230.877 274.969 232.499 272.419 233.046C269.403 233.692 266.968 232.571 265.062 230.357C262.547 227.435 260.497 224.127 257.607 221.483C255.298 219.368 252.899 217.351 250.411 215.477C246.938 212.86 246.903 207.06 249.579 204.631C251.986 202.444 254.564 200.472 256.989 198.303C260.157 195.488 262.395 191.885 265.187 188.765C268.651 184.92 273.251 184.92 276.643 188.738C279.587 192.055 281.995 195.847 285.387 198.778C287.598 200.687 289.987 202.381 292.055 204.452C293.773 206.182 294.194 207.177 294.185 209.785H294.194H294.203Z" fill="#D4DFCD"/>
<path d="M256.452 208.45C256.676 207.195 256.935 205.662 257.23 204.138C257.32 203.672 257.445 203.107 258.134 203.251C258.6 203.349 258.788 203.762 258.734 204.192C258.528 205.868 259.173 207.419 259.387 209.041C259.647 210.986 259.208 212.017 258.17 212.053C257.141 212.089 256.479 211.004 256.452 209.23V208.45Z" fill="white"/>
<path d="M256.515 226.35C257.168 224.53 256.3 223.042 256.318 221.5C256.327 221.016 256.175 220.523 256.13 220.039C256.076 219.519 256.175 218.991 256.783 218.919C257.257 218.856 257.472 219.277 257.571 219.699C257.687 220.174 257.803 220.658 257.857 221.142C258.081 222.926 258.322 224.709 258.994 226.404C259.217 226.977 259.602 227.712 258.645 228.035C257.866 228.295 256.667 227.578 256.515 226.807C256.47 226.574 256.515 226.332 256.515 226.341V226.35Z" fill="black"/>
<path d="M285.154 222.058C285.154 220.901 285.136 219.754 285.163 218.598C285.172 218.23 285.459 217.979 285.799 217.961C286.139 217.943 286.443 218.176 286.479 218.535C286.568 219.44 286.595 220.346 286.649 221.251C286.721 222.461 286.479 223.743 287.669 224.648C288.09 224.971 288.09 225.536 287.75 225.993C287.293 226.602 286.64 226.665 285.969 226.468C285.378 226.297 284.859 225.921 284.948 225.258C285.101 224.191 285.163 223.124 285.163 222.058H285.154Z" fill="black"/>
<path d="M267.228 233.988C267.246 234.938 267.156 235.601 266.413 235.879C265.697 236.148 264.937 236.148 264.283 235.727C263.702 235.35 263.549 234.543 264.06 234.265C265.617 233.423 265.348 232.177 265.08 230.868C265.044 230.707 265.035 230.537 265.071 230.375C265.134 230.035 265.295 229.721 265.653 229.658C266.011 229.595 266.27 229.81 266.395 230.151C266.879 231.478 267.049 232.858 267.237 233.988H267.228Z" fill="black"/>
<path d="M277.305 228.905C277.645 229.022 277.878 229.246 277.905 229.604C277.94 230.178 277.949 230.761 277.94 231.334C277.931 232.257 277.914 233.145 278.961 233.638C279.444 233.862 279.623 234.364 279.372 234.893C279.131 235.395 278.629 235.529 278.137 235.583C277.555 235.646 276.786 235.7 276.652 235.054C276.231 233.118 276.177 231.146 276.696 229.201C276.768 228.941 277.054 228.914 277.305 228.905Z" fill="black"/>
<path d="M275.139 219.073C274.942 219.655 274.477 219.897 274.029 219.485C272.785 218.347 271.622 218.212 270.351 219.413C270.127 219.628 269.689 219.557 269.501 219.225C269.393 219.037 269.366 218.741 269.438 218.535C269.76 217.513 270.906 216.868 272.221 216.921C273.582 216.975 274.933 217.854 275.13 218.813C275.148 218.893 275.139 218.974 275.148 219.073H275.139Z" fill="black"/>
<path d="M278.084 208.019C277.386 207.885 276.338 207.714 275.3 207.481C274.871 207.383 274.611 207.042 274.727 206.558C274.817 206.182 275.13 206.056 275.47 206.056C277.099 206.074 278.701 206.495 280.348 206.298C280.5 206.28 280.751 206.549 280.858 206.746C281.046 207.096 280.822 207.383 280.554 207.571C279.918 208.028 279.184 208.073 278.084 208.01V208.019Z" fill="black"/>
<path d="M270.235 213.542C270.127 214.725 268.982 215.63 267.845 215.442C266.69 215.254 265.411 213.829 265.634 212.896C265.786 212.26 266.359 212.134 266.735 212.574C267.523 213.506 268.149 214.062 269.196 212.807C269.608 212.323 270.297 212.834 270.235 213.533V213.542Z" fill="black"/>
<path d="M276.374 214.913C275.434 214.769 274.575 214.536 274.235 213.523C274.092 213.111 274.119 212.699 274.459 212.394C274.736 212.152 275.085 212.215 275.327 212.466C275.909 213.093 276.535 213.21 277.287 212.77C277.681 212.537 278.119 212.609 278.343 213.012C278.639 213.541 278.281 213.945 277.914 214.285C277.475 214.689 276.92 214.823 276.365 214.904L276.374 214.913Z" fill="black"/>
<path d="M265.25 208.62C264.614 208.584 264.015 208.62 263.961 207.966C263.907 207.338 264.462 207.222 264.945 207.087C265.894 206.827 266.834 206.514 267.782 206.263C268.212 206.146 268.615 206.245 268.749 206.756C268.848 207.123 268.651 207.401 268.364 207.58C267.371 208.208 266.261 208.486 265.25 208.62Z" fill="black"/>
</g>
<path d="M269.814 252.991V254.085H259.62V252.991H264.077V251.548H265.393V252.991H269.814ZM270.503 259.723V260.817H265.402V264.16H264.086V260.817H259.038V259.723H270.503ZM264.74 254.721C267.344 254.721 268.91 255.465 268.91 256.837C268.91 258.208 267.344 258.925 264.74 258.934C262.126 258.916 260.56 258.181 260.569 256.837C260.551 255.465 262.117 254.721 264.74 254.721ZM264.74 255.716C262.932 255.716 261.947 256.111 261.947 256.837C261.947 257.563 262.941 257.93 264.74 257.93C266.538 257.93 267.523 257.536 267.541 256.837C267.523 256.111 266.529 255.716 264.74 255.716ZM281.771 251.602V264.151H280.447V251.602H281.771ZM271.479 260.736C272.508 260.736 273.689 260.718 274.916 260.682V259.436C273.448 259.248 272.499 258.387 272.508 257.15C272.49 255.734 273.725 254.802 275.542 254.802C277.359 254.802 278.63 255.743 278.63 257.15C278.63 258.369 277.681 259.221 276.222 259.418V260.637C277.386 260.593 278.558 260.494 279.659 260.359L279.757 261.354C276.974 261.821 273.94 261.847 271.649 261.847L271.47 260.745L271.479 260.736ZM279.399 253.099V254.166H271.747V253.099H274.924V251.629H276.249V253.099H279.399ZM275.551 255.833C274.504 255.833 273.761 256.353 273.779 257.15C273.761 257.948 274.504 258.441 275.551 258.441C276.598 258.441 277.368 257.948 277.368 257.15C277.368 256.353 276.625 255.833 275.551 255.833Z" fill="#171719"/>
<path d="M97.3054 319.17C97.207 320.676 96.8132 322.039 96.5447 322.944C94.9516 328.376 91.5417 332.284 86.9504 335.152C82.3949 338.003 77.4099 339.231 72.0847 339.132C63.5823 338.971 55.4469 333.189 52.2428 325.041C50.8198 321.42 49.9338 317.691 49.889 313.81C49.8085 306.244 52.6008 296.51 61.4522 292.127C69.713 288.039 79.2267 293.355 80.4886 302.704C80.5781 303.394 80.426 303.788 79.7189 303.977C76.8371 304.73 74.0984 305.877 71.4134 307.186C70.8675 307.455 70.2947 307.679 69.8562 308.154C69.5787 308.449 69.4624 308.808 69.6235 309.185C69.7846 309.588 70.1515 309.651 70.5364 309.66C70.966 309.669 71.3239 309.462 71.6819 309.283C75.2529 307.428 79.0119 306.056 82.923 305.267C89.9844 303.86 95.3454 308.001 96.8669 314.554C96.9743 315.029 97.4218 317.359 97.3054 319.161V319.17Z" fill="#81A2BB"/>
<path d="M74.412 302.569C74.3762 303.115 74.1166 303.51 73.7855 303.429C72.4341 303.106 71.6375 303.788 70.9394 304.792C70.7157 305.105 70.3129 305.15 70.0176 304.899C69.8475 304.756 69.7312 304.442 69.7312 304.209C69.7312 302.38 72.2819 300.937 73.8213 301.887C74.0987 302.058 74.2598 302.398 74.403 302.578L74.412 302.569Z" fill="black"/>
<path d="M67.1445 296.429C67.1982 297.146 66.1153 298.652 65.3724 298.84C64.8265 298.983 64.5222 298.652 64.5132 298.15C64.4953 297.415 65.7752 295.891 66.4375 295.828C66.8044 295.792 67.0998 295.999 67.1535 296.42L67.1445 296.429Z" fill="black"/>
<path d="M72.4329 295.103C72.4687 295.829 72.1645 296.133 71.6903 296.124C71.1625 296.107 70.6526 295.856 70.4916 295.3C70.3484 294.798 70.6436 294.457 71.1267 294.359C71.8603 294.215 72.2092 294.69 72.4329 295.103Z" fill="black"/>
<path d="M69.6949 300.167C69.7128 300.481 69.5697 300.777 69.1761 300.813C68.7914 300.839 68.5319 300.579 68.5409 300.221C68.5409 300.033 68.7645 299.755 68.9524 299.683C69.3102 299.531 69.5876 299.71 69.6949 300.167Z" fill="black"/>
<path d="M71.3691 299.091C71.4227 298.742 71.548 298.41 71.9953 298.491C72.2637 298.536 72.4694 298.733 72.4426 299.02C72.4158 299.378 72.2905 299.737 71.8253 299.647C71.5569 299.602 71.4048 299.378 71.3601 299.091H71.3691Z" fill="black"/>
<mask id="mask7_1491_4381" style="mask-type:luminance" maskUnits="userSpaceOnUse" x="147" y="289" width="51" height="52">
<path d="M197.562 289.85H147.443V340.047H197.562V289.85Z" fill="white"/>
</mask>
<g mask="url(#mask7_1491_4381)">
<path d="M178.642 326.843C176.655 326.843 174.982 326.807 173.308 326.843C168.054 326.969 162.801 327.273 157.547 327.336C156.151 327.345 154.755 327.704 153.359 327.327C148.427 325.974 147.103 323.096 147.497 318.829C147.819 315.343 149.6 312.636 152.625 310.825C154.728 309.57 157.001 309.247 159.293 310.171C162.532 311.479 164.788 310.296 166.81 307.347C169.066 304.075 172.153 302.336 175.877 301.637C178.365 301.171 180.701 302.058 182.831 303.34C187.565 306.173 189.874 310.601 191.038 315.782C191.396 317.395 191.369 319.045 191.217 320.649C190.957 323.428 188.818 324.808 186.634 326.054C185.775 326.547 184.8 326.727 183.77 326.646C181.945 326.493 180.137 327.076 178.624 326.861L178.642 326.843Z" fill="#E7DDF2"/>
</g>
</g>
<rect x="7" y="4" width="335" height="150" fill="url(#paint0_linear_1491_4381)"/>
<rect x="8" y="154" width="335" height="150" fill="url(#paint1_linear_1491_4381)"/>
</g>
</g>
<defs>
<filter id="filter0_dd_1491_4381" x="0" y="0.361816" width="351" height="316" filterUnits="userSpaceOnUse" color-interpolation-filters="sRGB">
<feFlood flood-opacity="0" result="BackgroundImageFix"/>
<feColorMatrix in="SourceAlpha" type="matrix" values="0 0 0 0 0 0 0 0 0 0 0 0 0 0 0 0 0 0 127 0" result="hardAlpha"/>
<feOffset dy="4"/>
<feGaussianBlur stdDeviation="4"/>
<feComposite in2="hardAlpha" operator="out"/>
<feColorMatrix type="matrix" values="0 0 0 0 0 0 0 0 0 0 0 0 0 0 0 0 0 0 0.08 0"/>
<feBlend mode="normal" in2="BackgroundImageFix" result="effect1_dropShadow_1491_4381"/>
<feColorMatrix in="SourceAlpha" type="matrix" values="0 0 0 0 0 0 0 0 0 0 0 0 0 0 0 0 0 0 127 0" result="hardAlpha"/>
<feOffset/>
<feGaussianBlur stdDeviation="1"/>
<feComposite in2="hardAlpha" operator="out"/>
<feColorMatrix type="matrix" values="0 0 0 0 0 0 0 0 0 0 0 0 0 0 0 0 0 0 0.05 0"/>
<feBlend mode="normal" in2="effect1_dropShadow_1491_4381" result="effect2_dropShadow_1491_4381"/>
<feBlend mode="normal" in="SourceGraphic" in2="effect2_dropShadow_1491_4381" result="shape"/>
</filter>
<linearGradient id="paint0_linear_1491_4381" x1="174.5" y1="4" x2="174.5" y2="154" gradientUnits="userSpaceOnUse">
<stop stop-color="white"/>
<stop offset="1" stop-color="white" stop-opacity="0"/>
</linearGradient>
<linearGradient id="paint1_linear_1491_4381" x1="175.5" y1="154" x2="175.5" y2="304" gradientUnits="userSpaceOnUse">
<stop stop-color="white" stop-opacity="0"/>
<stop offset="1" stop-color="white"/>
</linearGradient>
<clipPath id="clip0_1491_4381">
<rect x="8" y="4.36182" width="335" height="300" rx="8" fill="white"/>
</clipPath>
<clipPath id="clip1_1491_4381">
<rect width="336.14" height="519" fill="white" transform="translate(6.93005 -118)"/>
</clipPath>
</defs>
</svg>
