<svg width="351" height="317" viewBox="0 0 351 317" fill="none" xmlns="http://www.w3.org/2000/svg">
<g filter="url(#filter0_dd_1491_4564)">
<g clip-path="url(#clip0_1491_4564)">
<rect x="8" y="4.36182" width="335" height="300" rx="8" fill="#D1C9F2"/>
<g clip-path="url(#clip1_1491_4564)">
<path d="M290.536 63H60.7203C53.1428 63 47 69.1459 47 76.7271V341.661C47 349.242 53.1428 355.388 60.7203 355.388H290.536C298.113 355.388 304.256 349.242 304.256 341.661V76.7271C304.256 69.1459 298.113 63 290.536 63Z" fill="white"/>
<path d="M73.6381 96.1235V97.407H61.2623V96.1235H66.6956V93.3781C65.8106 93.2957 65.0629 93.0898 64.4454 92.7604C63.8418 92.4309 63.389 92.0054 63.0871 91.4906C62.7853 90.969 62.6344 90.3924 62.6344 89.7679C62.6344 89.0815 62.8127 88.4706 63.1626 87.9284C63.5262 87.3725 64.0681 86.9401 64.7953 86.6175C65.5225 86.2949 66.4075 86.137 67.4502 86.137C68.4929 86.137 69.3848 86.2949 70.1051 86.6175C70.8323 86.9401 71.3674 87.3793 71.7172 87.9284C72.0808 88.4706 72.2592 89.0884 72.2592 89.7679C72.2592 90.3924 72.1083 90.969 71.8064 91.4906C71.5046 92.0054 71.0518 92.4241 70.4481 92.7604C69.8444 93.0898 69.0966 93.2957 68.2117 93.3781V96.1235H73.6312H73.6381ZM67.4502 92.1838C68.5067 92.1838 69.2956 91.9779 69.817 91.5661C70.352 91.1406 70.6196 90.6052 70.6196 89.9532V89.5757C70.6196 88.9236 70.352 88.3883 69.817 87.9765C69.2956 87.5509 68.5067 87.345 67.4502 87.345C66.3937 87.345 65.598 87.5578 65.0629 87.9765C64.5415 88.3883 64.2808 88.9236 64.2808 89.5757V89.9532C64.2808 90.6052 64.5415 91.1474 65.0629 91.5661C65.598 91.9779 66.3937 92.1838 67.4502 92.1838ZM85.3484 90.1316H76.5948V85.9792H78.1178V88.9236H85.3484V90.1316ZM87.0977 91.2916V92.5751H74.722V91.2916H87.0977ZM78.056 98.2375H85.6502V99.4935H77.5895C77.2671 99.4935 77.0201 99.4112 76.8486 99.2396C76.6908 99.068 76.6085 98.8209 76.6085 98.4983V96.0206H83.8048V94.9773H76.5125V93.7419H85.2661V97.1874H78.0492V98.2444L78.056 98.2375ZM104.509 91.9573H102.396V98.8895H100.873V85.6634H102.396V90.6738H104.509V91.9573ZM99.4872 93.5703L99.6861 94.8057C98.026 95.1352 96.0365 95.3068 93.7246 95.3068H92.2291V86.6998H93.7384V94.0233C95.9816 94.0233 97.8956 93.8723 99.4872 93.5703ZM115.067 85.6429H116.59V98.869H115.067V85.6429ZM105.805 89.6306C105.805 88.9991 105.963 88.4363 106.272 87.9559C106.594 87.4617 107.033 87.0842 107.582 86.8234C108.138 86.5488 108.762 86.4184 109.469 86.4184C110.175 86.4184 110.8 86.5557 111.355 86.8234C111.911 87.0842 112.343 87.4617 112.652 87.9559C112.974 88.4363 113.132 88.9991 113.132 89.6306C113.132 90.262 112.974 90.8248 112.652 91.3053C112.343 91.7857 111.904 92.1632 111.355 92.4378C110.8 92.6986 110.175 92.829 109.469 92.829C108.762 92.829 108.138 92.6986 107.582 92.4378C107.027 92.1632 106.594 91.7857 106.272 91.3053C105.963 90.8248 105.805 90.262 105.805 89.6306ZM111.54 89.7953V89.4453C111.54 88.903 111.348 88.4638 110.964 88.1343C110.58 87.8049 110.086 87.6333 109.469 87.6333C108.851 87.6333 108.357 87.798 107.973 88.1343C107.589 88.4638 107.397 88.903 107.397 89.4453V89.7953C107.397 90.3375 107.589 90.7768 107.973 91.1063C108.357 91.4357 108.851 91.6073 109.469 91.6073C110.086 91.6073 110.58 91.4426 110.964 91.1063C111.348 90.7768 111.54 90.3375 111.54 89.7953ZM105.229 94.84C106.93 94.84 108.577 94.7989 110.162 94.7165C111.753 94.6341 113.077 94.5175 114.147 94.3665L114.298 95.5744C113.18 95.7529 111.829 95.8902 110.237 95.9794C108.659 96.0686 107.027 96.1167 105.346 96.1167L105.222 94.8332L105.229 94.84ZM133.651 85.6429V93.5703H132.128V90.3238H129.487V89.0403H132.128V85.6429H133.651ZM123.429 93.5703L122.613 92.4103C123.903 91.9162 124.89 91.4632 125.57 91.0513C126.256 90.6395 126.729 90.214 127.003 89.7679C127.285 89.3217 127.429 88.7932 127.429 88.1824V87.7431H123.038V86.4459H128.972V88.0314C128.972 88.9305 128.808 89.6855 128.471 90.2964C128.142 90.9003 127.58 91.4563 126.798 91.9573C126.015 92.4584 124.89 93.0006 123.429 93.5703ZM124.863 94.3253H133.644V99.5484H132.148V95.6088H124.856V94.3253H124.863ZM145.581 88.8138V85.6429H147.104V93.5565H145.581V90.0699H143.077V88.8138H145.581ZM136.978 93.2889L135.846 92.3074C136.642 91.7102 137.266 91.1749 137.733 90.6944C138.192 90.214 138.535 89.7335 138.741 89.26C138.961 88.7864 139.07 88.2716 139.07 87.7019H136.292V86.4322H143.337V87.7019H140.593V87.7911C140.593 88.6148 140.408 89.3766 140.038 90.0699L140.127 90.1316L140.442 89.9051C140.586 89.7953 140.724 89.7404 140.868 89.7404C141.019 89.7404 141.163 89.7953 141.307 89.9051L143.859 92.0328L142.727 93.0281L140.086 90.715C140.017 90.6533 139.928 90.6258 139.832 90.6258C139.763 90.6258 139.688 90.6533 139.619 90.7013C139.338 91.0857 138.988 91.4769 138.576 91.8818C138.165 92.2731 137.63 92.7398 136.978 93.2889ZM147.152 96.7001C147.152 97.2629 146.987 97.7639 146.651 98.1963C146.322 98.6425 145.828 98.9856 145.169 99.2396C144.517 99.4935 143.728 99.6171 142.816 99.6171C141.904 99.6171 141.101 99.4935 140.449 99.2396C139.798 98.9856 139.304 98.6425 138.967 98.1963C138.638 97.7639 138.467 97.2629 138.467 96.7001C138.467 96.1373 138.631 95.6362 138.967 95.2038C139.297 94.7577 139.791 94.4214 140.449 94.1743C141.101 93.9203 141.89 93.7968 142.816 93.7968C143.742 93.7968 144.524 93.9203 145.169 94.1743C145.821 94.4145 146.315 94.7577 146.651 95.2038C146.98 95.6362 147.152 96.1373 147.152 96.7001ZM145.546 96.5902C145.546 96.1373 145.32 95.7598 144.867 95.4578C144.414 95.1489 143.728 94.991 142.816 94.991C141.904 94.991 141.211 95.1489 140.751 95.4578C140.298 95.7598 140.072 96.1373 140.072 96.5902V96.8167C140.072 97.2697 140.298 97.6472 140.751 97.9492C141.211 98.2512 141.904 98.4022 142.816 98.4022C143.728 98.4022 144.414 98.2512 144.867 97.9492C145.32 97.6472 145.546 97.2697 145.546 96.8167V96.5902ZM150.733 88.1343C150.733 87.3793 151.117 86.7822 151.878 86.3361C152.647 85.8899 153.792 85.6703 155.322 85.6703C156.852 85.6703 157.998 85.8899 158.766 86.3361C159.534 86.7822 159.912 87.3793 159.912 88.1343C159.912 88.8893 159.527 89.5002 158.766 89.9463C158.004 90.3924 156.852 90.6121 155.322 90.6121C153.792 90.6121 152.647 90.3924 151.878 89.9463C151.11 89.5002 150.733 88.8962 150.733 88.1343ZM158.279 88.2098V88.0588C158.279 87.6745 158.032 87.3725 157.538 87.1391C157.058 86.9057 156.317 86.7891 155.322 86.7891C154.327 86.7891 153.6 86.9057 153.106 87.1391C152.612 87.3725 152.365 87.6745 152.365 88.0588V88.2098C152.365 88.5942 152.605 88.8962 153.093 89.1295C153.586 89.3492 154.327 89.459 155.329 89.459C156.331 89.459 157.078 89.3492 157.565 89.1295C158.046 88.9099 158.293 88.601 158.293 88.2098H158.279ZM161.51 91.4288V92.7123H149.134V91.4288H161.51ZM151.021 98.4983V96.0206H158.217V94.9773H150.925V93.7419H159.678V97.1874H152.461V98.2444H160.056V99.5004H151.995C151.672 99.5004 151.426 99.418 151.254 99.2465C151.089 99.0749 151.014 98.8278 151.014 98.5052L151.021 98.4983ZM178.928 90.2071H176.877V93.6183H175.354V85.6429H176.877V88.9168H178.928V90.2003V90.2071ZM167.183 93.4056L166.051 92.4241C166.847 91.8201 167.471 91.2778 167.924 90.7905C168.391 90.2964 168.727 89.809 168.933 89.3286C169.152 88.8481 169.262 88.3196 169.262 87.7568V87.7431H166.484V86.4733H173.55V87.7431H170.785V87.8323C170.785 88.6697 170.593 89.4384 170.209 90.1454L170.298 90.1934L170.613 89.9669C170.744 89.8639 170.881 89.8159 171.018 89.8159C171.183 89.8159 171.334 89.8708 171.471 89.9806L174.023 92.1427L172.891 93.1379L170.25 90.8111C170.161 90.7425 170.078 90.7082 170.01 90.7082C169.927 90.7082 169.859 90.7356 169.797 90.7974C169.523 91.1818 169.186 91.5661 168.768 91.9573C168.363 92.3486 167.835 92.8359 167.17 93.4056H167.183ZM168.24 94.3596H176.87V99.5553H175.374V95.6568H168.233V94.3596H168.24ZM189.513 89.6649H186.845V88.3951H189.513V85.6497H191.036V93.5154H189.513V89.6649ZM183.689 90.2346C183.627 90.2346 183.565 90.262 183.511 90.3238C183.236 90.7699 182.886 91.2229 182.454 91.6965C182.022 92.1564 181.466 92.7055 180.78 93.3438L179.648 92.3348C180.465 91.621 181.103 90.9827 181.562 90.4336C182.022 89.8777 182.365 89.3355 182.571 88.8001C182.783 88.2579 182.886 87.6607 182.886 87.0018V86.0958H184.423V87.0911C184.423 88.0382 184.231 88.9099 183.847 89.7061L183.922 89.7541L184.251 89.4659C184.409 89.356 184.56 89.3011 184.69 89.3011C184.835 89.3011 184.958 89.356 185.068 89.4659L187.723 91.9299L186.618 93.0006L183.874 90.3307C183.812 90.2689 183.751 90.2414 183.675 90.2414L183.689 90.2346ZM191.084 96.652C191.084 97.2148 190.919 97.7159 190.583 98.162C190.254 98.615 189.76 98.965 189.122 99.219C188.477 99.4798 187.695 99.6102 186.783 99.6102C185.87 99.6102 185.081 99.4798 184.43 99.219C183.778 98.965 183.284 98.615 182.948 98.162C182.619 97.7159 182.447 97.2148 182.447 96.652C182.447 96.0892 182.612 95.5882 182.948 95.142C183.277 94.689 183.771 94.339 184.43 94.085C185.081 93.8242 185.87 93.6938 186.783 93.6938C187.695 93.6938 188.477 93.8242 189.122 94.085C189.767 94.339 190.254 94.689 190.583 95.142C190.913 95.5882 191.084 96.0892 191.084 96.652ZM189.472 96.5353C189.472 96.0823 189.246 95.7048 188.793 95.4029C188.347 95.094 187.681 94.9361 186.783 94.9361C185.884 94.9361 185.198 95.094 184.745 95.4029C184.299 95.7048 184.08 96.0823 184.08 96.5353V96.7893C184.08 97.2354 184.299 97.6061 184.745 97.9081C185.198 98.2169 185.877 98.3748 186.783 98.3748C187.688 98.3748 188.347 98.2169 188.793 97.9081C189.246 97.6061 189.472 97.2354 189.472 96.7893V96.5353ZM204.798 85.6429V98.869H203.336V92.1015H201.827V98.5052H200.366V85.8488H201.827V90.8454H203.336V85.636H204.798V85.6429ZM198.431 87.9078H194.459V86.6724H198.431V87.9078ZM192.964 89.2874H199.742V90.4954H198.109V90.5709C198.843 91.0033 199.213 91.7926 199.213 92.9388C199.213 93.886 198.953 94.6273 198.431 95.1764C197.917 95.7117 197.238 95.9794 196.394 95.9794C195.55 95.9794 194.857 95.7117 194.343 95.1764C193.828 94.6341 193.574 93.886 193.574 92.9388C193.574 91.7995 193.938 91.017 194.658 90.5846V90.4954H192.971V89.2874H192.964ZM197.78 92.2731C197.78 91.7583 197.656 91.3602 197.402 91.0788C197.162 90.7974 196.826 90.6533 196.394 90.6533C195.962 90.6533 195.619 90.7974 195.365 91.0788C195.125 91.3602 195.001 91.7583 195.001 92.2731V93.1173C195.001 93.6183 195.125 94.0164 195.379 94.3115C195.639 94.5929 195.975 94.7371 196.387 94.7371C196.799 94.7371 197.135 94.5929 197.382 94.3115C197.642 94.0164 197.773 93.6252 197.773 93.1173V92.2731H197.78ZM218.902 96.1235V97.407H206.526V96.1235H211.96V93.3301H208.173V86.3361H209.682V88.6148H215.705V86.3361H217.215V93.3301H213.489V96.1235H218.909H218.902ZM209.682 92.0603H215.705V89.8708H209.682V92.0603ZM231.71 85.6429V98.869H230.228V85.6429H231.71ZM227.285 85.8556H228.746V98.512H227.285V91.3671H225.385V90.0836H227.285V85.8556ZM224.061 91.2023C224.226 91.2023 224.356 91.2847 224.452 91.4426L226.688 94.792L225.556 95.746L223.368 92.3348C223.341 92.2731 223.293 92.2456 223.231 92.2456C223.169 92.2456 223.121 92.2799 223.08 92.3486C222.847 92.8908 222.545 93.4536 222.174 94.0233C221.811 94.5998 221.358 95.245 220.816 95.9725L219.712 95.0528C220.418 94.1262 220.96 93.3163 221.344 92.6231C221.735 91.9162 222.017 91.2229 222.174 90.5366C222.346 89.8434 222.428 89.054 222.428 88.1824V86.6998H223.889V88.1481C223.889 89.3355 223.732 90.4405 223.409 91.4563L223.485 91.5181L223.697 91.3533C223.828 91.2504 223.951 91.2023 224.061 91.2023ZM234.811 89.7061C234.811 89.0335 234.989 88.4226 235.339 87.8804C235.703 87.3382 236.238 86.9057 236.951 86.5969C237.678 86.288 238.563 86.1302 239.62 86.1302C240.676 86.1302 241.561 86.288 242.275 86.5969C243.002 86.9057 243.537 87.3382 243.887 87.8804C244.25 88.4226 244.429 89.0335 244.429 89.7061C244.429 90.3787 244.25 91.0033 243.887 91.5455C243.537 92.0809 242.995 92.5064 242.275 92.829C241.561 93.1379 240.676 93.2957 239.62 93.2957C238.563 93.2957 237.672 93.1379 236.951 92.829C236.238 92.5064 235.696 92.0809 235.339 91.5455C234.989 91.0033 234.811 90.3856 234.811 89.7061ZM236.457 89.8914C236.457 90.5229 236.725 91.0513 237.26 91.4632C237.795 91.875 238.584 92.0809 239.627 92.0809C240.669 92.0809 241.465 91.875 241.993 91.4632C242.529 91.0513 242.796 90.5297 242.796 89.8914V89.5414C242.796 88.8962 242.529 88.3677 241.993 87.9559C241.472 87.5441 240.683 87.3382 239.627 87.3382C238.57 87.3382 237.774 87.5441 237.239 87.9559C236.718 88.3677 236.457 88.8962 236.457 89.5414V89.8914ZM245.815 96.1235V97.407H233.439V96.1235H236.457V93.6938H237.967V96.1235H241.287V93.6938H242.782V96.1235H245.815Z" fill="#171719"/>
<path d="M285.048 122.37H66.2082C63.3667 122.37 61.0631 124.675 61.0631 127.518V322.443C61.0631 325.286 63.3667 327.591 66.2082 327.591H285.048C287.889 327.591 290.193 325.286 290.193 322.443V127.518C290.193 124.675 287.889 122.37 285.048 122.37Z" fill="white"/>
<path d="M285.048 122.37H66.2082C63.3667 122.37 61.0631 124.675 61.0631 127.518V322.443C61.0631 325.286 63.3667 327.591 66.2082 327.591H285.048C287.889 327.591 290.193 325.286 290.193 322.443V127.518C290.193 124.675 287.889 122.37 285.048 122.37Z" stroke="#C7C8C9" stroke-width="0.685698"/>
<path d="M79.5312 133.921V137.641H81.0747V138.479H79.5312V143.551H78.5159V133.921H79.5312ZM76.9518 134.841V135.665H73.4805V140.311C75.0927 140.311 76.3069 140.236 77.6721 139.989L77.8024 140.847C76.3 141.114 75.0241 141.169 73.2336 141.155H72.4652V134.841H76.9586H76.9518ZM85.9111 134.12C88.0241 134.12 89.3412 134.807 89.3412 135.967C89.3412 137.127 88.0241 137.779 85.9111 137.779C83.7982 137.779 82.4811 137.106 82.4811 135.967C82.4811 134.827 83.8119 134.12 85.9111 134.12ZM85.9111 134.93C84.4293 134.93 83.5238 135.308 83.5307 135.967C83.5169 136.612 84.4293 136.976 85.9111 136.989C87.3792 136.976 88.2916 136.612 88.2916 135.967C88.2916 135.321 87.3792 134.93 85.9111 134.93ZM89.2246 140.201V143.407H82.5908V140.201H89.2246ZM83.5924 141.018V142.583H88.2367V141.018H83.5924ZM90.2948 138.52V139.344H81.5344V138.52H90.2948ZM99.7824 139.337V140.16H95.879V143.517H94.8842V140.16H91.0288V139.337H99.7893H99.7824ZM98.9523 134.491V135.308H95.9819C95.9956 136.495 97.4774 137.559 99.2953 137.806L98.918 138.609C97.3402 138.362 95.9819 137.586 95.4056 136.488C94.8088 137.586 93.4573 138.369 91.9001 138.609L91.5159 137.806C93.3133 137.559 94.7882 136.495 94.8294 135.308H91.8383V134.491H98.9592H98.9523ZM108.282 136.728V137.545H101.669V134.264H102.677V136.728H108.282ZM109.291 138.76V139.577H100.503V138.76H109.291ZM108.344 142.466V143.304H101.593V140.483H102.609V142.466H108.344ZM116.041 135.987C116.041 137.113 116.905 138.184 118.38 138.616L117.9 139.412C116.802 139.083 115.986 138.389 115.561 137.504C115.142 138.499 114.312 139.289 113.18 139.673L112.68 138.856C114.148 138.396 115.039 137.236 115.039 135.994V135.829H112.947V135.013H115.039V133.887H116.055V135.013H118.133V135.829H116.041V135.994V135.987ZM120.685 133.921V140.551H119.67V137.442H117.845V136.598H119.67V133.928H120.685V133.921ZM118.058 140.105C118.058 141.348 119.43 142.398 121.262 142.679L120.857 143.482C119.361 143.235 118.106 142.487 117.537 141.43C116.953 142.473 115.698 143.228 114.196 143.482L113.832 142.679C115.609 142.391 117.015 141.306 117.029 140.105V139.913H118.072V140.105H118.058ZM132.787 133.921V143.53H131.764V133.921H132.787ZM124.897 140.915C125.686 140.915 126.592 140.902 127.532 140.874V139.92C126.407 139.776 125.68 139.117 125.686 138.17C125.68 137.085 126.619 136.372 128.012 136.372C129.405 136.372 130.379 137.092 130.379 138.17C130.379 139.103 129.652 139.755 128.533 139.906V140.84C129.425 140.805 130.324 140.73 131.168 140.627L131.243 141.389C129.11 141.746 126.784 141.766 125.028 141.766L124.891 140.922L124.897 140.915ZM130.962 135.067V135.884H125.096V135.067H127.532V133.942H128.547V135.067H130.962ZM128.012 137.161C127.209 137.161 126.64 137.559 126.647 138.17C126.64 138.781 127.202 139.158 128.012 139.158C128.821 139.158 129.405 138.781 129.405 138.17C129.405 137.559 128.835 137.161 128.012 137.161ZM137.664 136.365C137.657 138.067 138.638 139.803 140.079 140.503L139.448 141.32C138.405 140.778 137.596 139.7 137.177 138.417C136.745 139.79 135.901 140.936 134.81 141.506L134.179 140.682C135.661 139.975 136.656 138.129 136.656 136.372V134.731H137.671V136.372L137.664 136.365ZM141.808 133.921V137.751H143.351V138.623H141.808V143.537H140.792V133.928H141.808V133.921ZM151.391 134.738V135.555H153.484V133.935H154.499V140.936H153.484V138.451H151.391V139.289H146.932V134.745H151.391V134.738ZM147.941 135.562V138.479H150.397V135.562H147.941ZM154.719 142.501V143.324H148.236V140.291H149.265V142.501H154.719ZM151.391 137.607H153.484V136.385H151.391V137.607ZM163.98 133.921V139.151H162.971V137.03H161.174V136.193H162.971V133.921H163.98ZM158.739 139.584V140.689H162.971V139.584H163.98V143.414H157.73V139.584H158.739ZM158.739 142.583H162.971V141.478H158.739V142.583ZM159.425 135.424C159.425 136.612 160.296 137.813 161.743 138.307L161.215 139.103C160.131 138.719 159.342 137.957 158.924 137.003C158.499 138.074 157.662 138.918 156.523 139.323L155.995 138.52C157.476 138.005 158.382 136.742 158.382 135.418V135.287H156.303V134.464H161.483V135.287H159.425V135.424ZM169.838 134.079C172.006 134.079 173.269 134.656 173.269 135.733C173.269 136.811 172.006 137.394 169.838 137.394C167.671 137.394 166.408 136.804 166.408 135.733C166.408 134.663 167.671 134.079 169.838 134.079ZM169.838 134.834C168.309 134.834 167.458 135.17 167.472 135.733C167.465 136.324 168.309 136.632 169.838 136.632C171.368 136.632 172.219 136.324 172.219 135.733C172.219 135.143 171.375 134.834 169.838 134.834ZM174.222 137.985V138.801H165.469V137.985H174.222ZM173.118 139.543V141.794H167.52V142.652H173.385V143.434H166.525V141.053H172.109V140.304H166.511V139.543H173.111H173.118ZM186.419 141.492V142.343H177.632V141.492H181.501V139.515H178.64V134.573H179.655V136.227H184.375V134.573H185.384V139.515H182.509V141.492H186.419ZM179.662 138.691H184.382V137.051H179.662V138.691ZM195.118 133.921V143.551H194.11V138.383H192.354V137.538H194.11V133.921H195.118ZM191.784 134.786V138.218H188.491V140.407C190.021 140.407 191.201 140.346 192.546 140.105L192.628 140.943C191.194 141.204 189.925 141.252 188.231 141.265H187.469V137.394H190.789V135.617H187.442V134.793H191.77L191.784 134.786ZM206.767 133.921V137.751H208.255V138.602H206.767V143.523H205.745V133.928H206.767V133.921ZM204.256 134.93C204.249 137.71 203.021 140.188 199.859 141.753L199.289 140.956C201.697 139.755 203 138.019 203.213 135.774H199.769V134.93H204.249H204.256ZM216.542 136.728V137.545H209.929V134.264H210.938V136.728H216.542ZM217.551 138.76V139.577H208.763V138.76H217.551ZM216.604 142.466V143.304H209.854V140.483H210.869V142.466H216.604ZM228.486 133.921V135.85H229.879V136.708H228.486V138.733H227.471V133.914H228.486V133.921ZM222.394 134.347V137.477C223.684 137.463 225.049 137.367 226.524 137.072L226.654 137.916C225.035 138.238 223.581 138.335 222.161 138.335H221.379V134.347H222.394ZM228.486 139.172V141.615H223.307V142.583H228.815V143.407H222.298V140.833H227.464V139.975H222.278V139.172H228.486ZM231.518 142.693C231.1 142.693 230.75 142.35 230.757 141.931C230.743 141.512 231.1 141.169 231.518 141.169C231.937 141.169 232.28 141.512 232.28 141.931C232.28 142.35 231.923 142.693 231.518 142.693ZM234.413 142.693C233.995 142.693 233.638 142.35 233.652 141.931C233.638 141.512 233.995 141.169 234.413 141.169C234.832 141.169 235.175 141.512 235.175 141.931C235.175 142.35 234.818 142.693 234.413 142.693ZM237.308 142.693C236.89 142.693 236.54 142.35 236.547 141.931C236.533 141.512 236.89 141.169 237.308 141.169C237.727 141.169 238.07 141.512 238.07 141.931C238.07 142.35 237.713 142.693 237.308 142.693ZM240.821 134.855L240.725 140.38H239.661L239.565 134.855H240.821ZM240.196 142.693C239.778 142.693 239.428 142.35 239.435 141.931C239.421 141.512 239.778 141.169 240.196 141.169C240.615 141.169 240.958 141.512 240.958 141.931C240.958 142.35 240.601 142.693 240.196 142.693ZM252.75 133.921V143.551H251.735V137.854H248.874V137.017H251.735V133.914H252.75V133.921ZM246.274 134.985V140.394C247.646 140.373 248.943 140.291 250.336 140.009L250.466 140.847C248.922 141.169 247.53 141.245 246.021 141.245H245.252V134.992H246.281L246.274 134.985ZM262.999 139.433V140.256H259.076V143.517H258.081V140.256H254.212V139.433H262.999ZM261.895 134.436V138.211H255.316V134.436H261.895ZM256.311 135.253V137.422H260.88V135.253H256.311ZM269.064 134.457V135.273H267.61V137.696C268.09 137.683 268.604 137.634 269.187 137.504L269.27 138.321C268.392 138.492 267.712 138.506 267.054 138.506H266.629V134.464H269.071L269.064 134.457ZM272.274 134.457V135.273H270.601V137.696C271.383 137.696 271.945 137.641 272.604 137.49L272.686 138.293C271.863 138.486 271.197 138.499 270.079 138.499H269.585V134.457H272.268H272.274ZM274.477 139.302V141.691H268.975V142.59H274.82V143.407H267.946V140.929H273.475V140.105H267.925V139.302H274.477ZM274.477 133.921V138.863H273.482V136.763H271.801V135.967H273.482V133.921H274.477ZM80.0251 150.394V160.023H79.0098V150.394H80.0251ZM77.089 151.259V154.766H73.6383V156.866C75.1956 156.866 76.5539 156.791 78.1591 156.523L78.2552 157.36C76.5539 157.649 75.1064 157.717 73.4119 157.717H72.5956V153.956H76.0462V152.089H72.5818V151.266H77.0821L77.089 151.259ZM89.3069 153.201V154.018H82.6937V150.737H83.7022V153.201H89.3069ZM90.3154 155.233V156.049H81.5275V155.233H90.3154ZM89.3755 158.939V159.776H82.6251V156.955H83.6404V158.939H89.3755ZM99.2747 150.394V160.003H98.2869V150.394H99.2747ZM97.2922 150.593V159.516H96.3249V154.848H94.3491V154.004H96.3249V150.593H97.2922ZM95.0077 151.54V152.377H92.3597V156.894C93.622 156.88 94.4658 156.832 95.4605 156.612L95.5428 157.47C94.4383 157.697 93.4985 157.738 91.9961 157.738H91.365V151.54H95.0077ZM106.533 151.842C106.519 152.947 107.411 153.984 108.893 154.402L108.412 155.198C107.301 154.883 106.478 154.189 106.046 153.311C105.62 154.313 104.763 155.082 103.583 155.432L103.089 154.636C104.591 154.183 105.511 153.057 105.511 151.849V151.719H103.411V150.902H108.611V151.719H106.54V151.835L106.533 151.842ZM110.738 150.394V152.419H112.131V153.256H110.738V155.336H109.723V150.394H110.738ZM110.738 155.754V158.143H105.552V159.111H111.074V159.907H104.557V157.408H109.736V156.55H104.536V155.754H110.745H110.738ZM122.901 150.36V152.611H124.307V153.448H122.901V155.644H121.879V150.36H122.901ZM122.901 156.097V158.328H117.715V159.131H123.237V159.907H116.72V157.614H121.9V156.866H116.7V156.104H122.908L122.901 156.097ZM121.09 151.211V152.014H115.369V151.211H117.729V150.311H118.744V151.211H121.09ZM118.229 152.377C119.636 152.377 120.555 152.981 120.555 153.956C120.555 154.931 119.636 155.521 118.229 155.521C116.823 155.521 115.89 154.931 115.89 153.956C115.89 152.981 116.809 152.377 118.229 152.377ZM118.229 153.105C117.406 153.105 116.871 153.441 116.878 153.956C116.871 154.471 117.406 154.78 118.229 154.78C119.053 154.78 119.588 154.471 119.601 153.956C119.588 153.441 119.053 153.105 118.229 153.105ZM132.444 151.238C132.43 152.515 133.994 153.716 135.881 153.963L135.483 154.8C133.912 154.546 132.533 153.736 131.915 152.604C131.284 153.743 129.905 154.553 128.348 154.8L127.943 153.963C129.83 153.716 131.373 152.528 131.387 151.238V150.716H132.451V151.238H132.444ZM136.278 155.741V156.578H132.375V159.996H131.38V156.578H127.525V155.741H136.285H136.278ZM143.022 156.743C143.022 157.566 143.427 158.445 144.298 158.96C145.183 158.397 145.615 157.477 145.615 156.743V156.283H146.61V156.743C146.61 157.738 147.262 158.706 148.517 159.111L148.016 159.859C147.07 159.529 146.425 158.891 146.089 158.102C145.78 158.877 145.21 159.584 144.332 159.948C143.413 159.598 142.823 158.918 142.535 158.136C142.185 158.891 141.554 159.529 140.648 159.866L140.134 159.117C141.369 158.678 142.034 157.683 142.041 156.75V156.29H143.029V156.75L143.022 156.743ZM147.653 150.401V155.871H146.63V150.401H147.653ZM142.439 150.929C143.907 150.929 144.991 151.863 144.991 153.201C144.991 154.539 143.907 155.452 142.439 155.452C140.971 155.452 139.88 154.533 139.88 153.201C139.88 151.87 140.971 150.929 142.439 150.929ZM142.439 151.801C141.527 151.787 140.875 152.357 140.875 153.208C140.875 154.059 141.527 154.615 142.439 154.615C143.351 154.615 143.996 154.045 143.996 153.208C143.996 152.371 143.344 151.794 142.439 151.801ZM153.546 150.552C155.713 150.552 156.976 151.128 156.976 152.206C156.976 153.283 155.713 153.867 153.546 153.867C151.378 153.867 150.115 153.277 150.115 152.206C150.115 151.135 151.378 150.552 153.546 150.552ZM153.546 151.307C152.016 151.307 151.165 151.643 151.179 152.206C151.172 152.796 152.016 153.105 153.546 153.105C155.075 153.105 155.926 152.796 155.926 152.206C155.926 151.616 155.082 151.307 153.546 151.307ZM157.929 154.457V155.274H149.176V154.457H157.929ZM156.825 156.015V158.266H151.227V159.124H157.092V159.907H150.232V157.525H155.816V156.777H150.218V156.015H156.818H156.825ZM162.196 153.222C162.196 154.828 163.246 156.496 164.728 157.127L164.172 157.923C163.04 157.422 162.141 156.365 161.695 155.082C161.25 156.454 160.344 157.621 159.233 158.17L158.643 157.367C160.09 156.695 161.16 154.883 161.174 153.229V152.213H158.979V151.362H164.391V152.213H162.203V153.229L162.196 153.222ZM166.614 150.394V160.003H165.599V150.394H166.614ZM175.814 150.991C175.814 153.434 174.133 155.171 171.341 155.96L170.936 155.164C173.159 154.539 174.524 153.338 174.723 151.828H171.43V150.991H175.814ZM178.832 156.42V159.982H177.817V157.244H172.329V156.42H178.832ZM178.832 150.401V156.022H177.817V153.695H175.869V152.844H177.817V150.401H178.832ZM188.32 150.394V156.111H187.304V153.675H185.514V152.837H187.304V150.394H188.32ZM185.102 156.379C187.119 156.379 188.354 157.045 188.354 158.191C188.354 159.337 187.119 159.989 185.102 160.003C183.085 159.989 181.844 159.337 181.857 158.191C181.844 157.045 183.092 156.379 185.102 156.379ZM185.102 157.168C183.696 157.168 182.866 157.532 182.866 158.191C182.866 158.85 183.703 159.207 185.102 159.2C186.509 159.214 187.346 158.836 187.346 158.191C187.346 157.546 186.509 157.168 185.102 157.168ZM183.751 152.089C183.751 153.311 184.615 154.491 186.07 154.986L185.541 155.789C184.464 155.411 183.669 154.642 183.257 153.695C182.832 154.773 181.995 155.638 180.842 156.056L180.307 155.24C181.796 154.725 182.708 153.428 182.708 152.096V151.883H180.629V151.06H185.809V151.883H183.751V152.089ZM195.393 153.469V154.292H193.52V155.5C194.37 155.466 195.221 155.404 196.003 155.322L196.079 156.07C194.034 156.351 191.784 156.406 189.98 156.406L189.843 155.59C190.666 155.59 191.578 155.576 192.511 155.548V154.292H190.7V150.998H195.31V151.821H191.715V153.462H195.393V153.469ZM197.766 150.394V157.601H196.744V150.394H197.766ZM198.061 158.973V159.797H191.427V157.086H192.45V158.973H198.068H198.061ZM206.767 150.394V154.114H208.31V154.951H206.767V160.023H205.745V150.394H206.767ZM204.18 151.314V152.137H200.709V156.784C202.321 156.784 203.536 156.708 204.901 156.461L205.031 157.319C203.529 157.587 202.253 157.642 200.462 157.628H199.694V151.314H204.187H204.18ZM217.517 153.599V154.436H215.246V158.513H214.231V154.436H212.042V158.513H211.013V154.436H208.797V153.599H217.523H217.517ZM227.004 153.599V154.436H224.733V158.513H223.718V154.436H221.53V158.513H220.501V154.436H218.285V153.599H227.011H227.004Z" fill="#171719"/>
</g>
</g>
</g>
<defs>
<filter id="filter0_dd_1491_4564" x="0" y="0.361816" width="351" height="316" filterUnits="userSpaceOnUse" color-interpolation-filters="sRGB">
<feFlood flood-opacity="0" result="BackgroundImageFix"/>
<feColorMatrix in="SourceAlpha" type="matrix" values="0 0 0 0 0 0 0 0 0 0 0 0 0 0 0 0 0 0 127 0" result="hardAlpha"/>
<feOffset dy="4"/>
<feGaussianBlur stdDeviation="4"/>
<feComposite in2="hardAlpha" operator="out"/>
<feColorMatrix type="matrix" values="0 0 0 0 0 0 0 0 0 0 0 0 0 0 0 0 0 0 0.08 0"/>
<feBlend mode="normal" in2="BackgroundImageFix" result="effect1_dropShadow_1491_4564"/>
<feColorMatrix in="SourceAlpha" type="matrix" values="0 0 0 0 0 0 0 0 0 0 0 0 0 0 0 0 0 0 127 0" result="hardAlpha"/>
<feOffset/>
<feGaussianBlur stdDeviation="1"/>
<feComposite in2="hardAlpha" operator="out"/>
<feColorMatrix type="matrix" values="0 0 0 0 0 0 0 0 0 0 0 0 0 0 0 0 0 0 0.05 0"/>
<feBlend mode="normal" in2="effect1_dropShadow_1491_4564" result="effect2_dropShadow_1491_4564"/>
<feBlend mode="normal" in="SourceGraphic" in2="effect2_dropShadow_1491_4564" result="shape"/>
</filter>
<clipPath id="clip0_1491_4564">
<rect x="8" y="4.36182" width="335" height="300" rx="8" fill="white"/>
</clipPath>
<clipPath id="clip1_1491_4564">
<rect width="257.256" height="292.388" fill="white" transform="translate(47 63)"/>
</clipPath>
</defs>
</svg>
