<svg width="56" height="56" viewBox="0 0 56 56" fill="none" xmlns="http://www.w3.org/2000/svg">
<g clip-path="url(#clip0_589_4822)">
<path d="M10.034 25.2452C9.91262 20.9401 10.1311 16.6447 10.835 12.4073C11.7816 6.68979 15.2864 3.02804 20.6942 1.12219C25.3932 -0.532121 30.1068 -0.372494 34.5825 1.71233C40.0485 4.25669 43.0146 8.88586 44.1553 14.6469C45.1214 19.5277 45.1359 24.4664 44.8058 29.439C44.5825 32.8589 44.1214 36.2159 43.5 39.5826C42.3204 45.987 38.4951 49.6246 32.0971 50.3743C27.5049 50.9113 22.9466 50.3743 18.6456 48.5652C15.8689 47.3946 14.2087 45.1115 12.9223 42.451C10.5728 37.5752 9.95146 32.4091 10.0291 27.093C10.0388 26.4787 10.0291 25.8644 10.0291 25.2452H10.034Z" fill="#E6B2C6"/>
<path d="M19.5145 31.7367C19.9078 31.756 20.1699 31.9786 20.3301 32.3075C20.7912 33.2507 21.2136 34.2182 21.6942 35.1566C22.3641 36.4529 22.6942 37.967 24.2378 38.6926C24.8058 38.9586 25.0145 39.6358 24.7087 40.2985C24.3301 41.116 23.6359 41.4449 22.7767 41.3772C22.1311 41.3288 21.4078 41.0337 21.4223 40.3565C21.4854 37.8364 19.9369 35.9112 19.1505 33.7103C19.0048 33.3039 18.8835 32.8686 18.8641 32.4429C18.8446 32.0656 19.1408 31.8334 19.5145 31.7415V31.7367Z" fill="black"/>
<path d="M33.9223 30.2807C33.9709 32.0028 33.0291 33.2798 31.7087 33.2846C30.432 33.2894 29.3252 31.9592 29.2864 30.3726C29.2524 28.9408 30.4563 27.5526 31.7767 27.4993C32.9563 27.451 33.8786 28.6458 33.9223 30.2856V30.2807Z" fill="black"/>
<path d="M42.5437 32.1721C42.1893 34.6439 41.3252 37.1108 40.3835 39.5488C40.0485 40.4146 39.3543 40.7145 38.4757 40.3179C37.6893 39.9648 37.2184 38.5765 37.9029 38.117C40.2136 36.5497 40.3252 34.0586 40.9806 31.7658C41.1262 31.2627 41.3786 30.7209 42.0582 30.9338C42.5534 31.0886 42.5048 31.611 42.5437 32.1721Z" fill="black"/>
<path d="M15.4175 26.0095C15.6214 24.8631 15.8301 23.5619 16.0874 22.2704C16.1796 21.8157 16.4854 21.4965 17.0146 21.5352C17.4466 21.569 17.6165 21.8931 17.6456 22.2462C17.7476 23.4942 18.2913 24.6164 18.5825 25.8064C18.8204 26.7641 18.9029 27.7509 17.9515 28.4426C17.4078 28.8393 16.8252 28.8973 16.2282 28.5152C15.3252 27.9444 15.3835 27.0544 15.4175 26.0144V26.0095Z" fill="white"/>
<path d="M27.3835 55.9903C25.7864 56.029 25.4272 55.555 26.1457 54.1619C26.5486 53.3879 26.3204 52.851 26.0631 52.2077C25.7719 51.4821 25.4758 50.7565 25.2573 50.0068C25.2136 49.8471 25.466 49.5521 25.6505 49.3924C25.8787 49.1893 26.2039 49.2763 26.3641 49.465C27.6651 51.0419 28.4758 52.9042 28.9272 54.8439C29.1602 55.8501 28.0486 55.9323 27.3884 55.9903H27.3835Z" fill="black"/>
<path d="M34.2136 50.7614C34.1651 51.932 33.5922 53.1219 34.6553 54.2248C35.2864 54.8778 34.8447 55.526 34.0728 55.8452C33.1068 56.2419 31.9612 55.8452 31.9806 55.0133C32.0194 53.1945 32.2379 51.3709 32.9175 49.6537C32.9903 49.4698 33.335 49.2812 33.5437 49.2957C33.9078 49.3199 34.1602 49.6005 34.2087 49.9826C34.2427 50.239 34.2136 50.5002 34.2136 50.7614Z" fill="black"/>
<path d="M37.7282 18.8408C36.6505 18.5457 35.3738 18.6618 34.2622 18.0717C33.869 17.8637 33.5728 17.5106 33.8058 17.0027C33.966 16.6544 34.2816 16.4754 34.6554 16.5238C35.9563 16.6931 37.2573 16.8575 38.5486 17.0946C39.1214 17.201 39.8641 17.3606 39.6456 18.2216C39.4903 18.836 38.8932 18.865 38.3592 18.8795C38.1845 18.8795 38.0097 18.8553 37.7282 18.836V18.8408Z" fill="black"/>
<path d="M25.699 19.0101C25.3301 19.0101 25.1553 19.0246 24.9806 19.0101C24.3058 18.952 23.3641 19.0875 23.3447 18.1491C23.3252 17.1671 24.2815 17.3606 24.9466 17.2735C25.7233 17.1768 26.4951 17.051 27.2718 16.9494C27.733 16.8914 28.165 16.9688 28.3204 17.4767C28.4757 17.9798 28.1311 18.2845 27.7767 18.5457C27.0971 19.0439 26.2767 18.9375 25.699 19.0101Z" fill="black"/>
<path d="M29.0437 23.5618C29.0097 24.1762 28.7136 24.5583 28.0874 24.6067C27.5825 24.6454 27.2039 24.3551 27.1505 23.8859C27.0777 23.2571 27.5194 22.9379 28.0971 22.8508C28.6214 22.7734 28.8835 23.1168 29.0437 23.5618Z" fill="black"/>
<path d="M34.3787 24.1568C33.966 24.1568 33.6408 23.8714 33.6165 23.4119C33.5923 22.9427 33.9126 22.6331 34.4029 22.6041C34.9078 22.5751 35.2379 22.8556 35.2476 23.3345C35.2573 23.7892 34.9855 24.123 34.3787 24.1617V24.1568Z" fill="black"/>
<path d="M32.0971 30.4936C32.0437 30.8225 31.9514 31.2191 31.5388 31.1176C31.1845 31.0305 31.1359 30.6145 31.1602 30.2759C31.1796 30.0195 31.3107 29.7196 31.5922 29.7535C31.9806 29.797 32.068 30.1501 32.0922 30.4936H32.0971Z" fill="#E6B2C6"/>
</g>
<defs>
<clipPath id="clip0_589_4822">
<rect width="56" height="56" fill="white"/>
</clipPath>
</defs>
</svg>
