<svg width="375" height="426" viewBox="0 0 375 426" fill="none" xmlns="http://www.w3.org/2000/svg">
<rect width="375" height="426" rx="20" fill="white"/>
<path d="M38.832 48.262V50.132H20.792V48.262H28.712V44.258C27.4213 44.1407 26.3287 43.84 25.434 43.356C24.554 42.872 23.894 42.256 23.454 41.508C23.014 40.7453 22.794 39.9093 22.794 39C22.794 38.0027 23.0507 37.108 23.564 36.316C24.092 35.5093 24.884 34.8713 25.94 34.402C26.996 33.9327 28.2867 33.698 29.812 33.698C31.3373 33.698 32.628 33.9327 33.684 34.402C34.74 34.8713 35.5247 35.5093 36.038 36.316C36.566 37.108 36.83 38.0027 36.83 39C36.83 39.9093 36.61 40.7453 36.17 41.508C35.73 42.256 35.07 42.872 34.19 43.356C33.31 43.84 32.2247 44.1407 30.934 44.258V48.262H38.832ZM29.812 42.52C31.352 42.52 32.5033 42.2193 33.266 41.618C34.0433 41.002 34.432 40.2173 34.432 39.264V38.714C34.432 37.7607 34.0433 36.9833 33.266 36.382C32.5033 35.766 31.352 35.458 29.812 35.458C28.272 35.458 27.1133 35.766 26.336 36.382C25.5733 36.9833 25.192 37.7607 25.192 38.714V39.264C25.192 40.2173 25.5733 41.002 26.336 41.618C27.1133 42.2193 28.272 42.52 29.812 42.52ZM55.8952 39.528H43.1352V33.478H45.3572V37.768H55.8952V39.528ZM58.4472 41.222V43.092H40.4072V41.222H58.4472ZM45.2692 51.342H56.3352V53.168H44.5872C44.1179 53.168 43.7586 53.0433 43.5092 52.794C43.2746 52.5447 43.1572 52.1853 43.1572 51.716V48.108H53.6512V46.59H43.0252V44.786H55.7852V49.802H45.2692V51.342ZM83.8337 42.19H80.7537V52.288H78.5317V33.016H80.7537V40.32H83.8337V42.19ZM76.5077 44.544L76.7937 46.348C74.3737 46.832 71.477 47.074 68.1037 47.074H65.9257V34.534H68.1257V45.204C71.3964 45.204 74.1904 44.984 76.5077 44.544ZM99.2249 32.994H101.447V52.266H99.2249V32.994ZM85.7169 38.802C85.7169 37.878 85.9443 37.064 86.3989 36.36C86.8683 35.6413 87.5063 35.0913 88.3129 34.71C89.1196 34.314 90.0363 34.116 91.0629 34.116C92.0896 34.116 93.0063 34.314 93.8129 34.71C94.6196 35.0913 95.2503 35.6413 95.7049 36.36C96.1743 37.064 96.4089 37.878 96.4089 38.802C96.4089 39.726 96.1743 40.54 95.7049 41.244C95.2503 41.948 94.6196 42.498 93.8129 42.894C93.0063 43.2753 92.0896 43.466 91.0629 43.466C90.0363 43.466 89.1196 43.2753 88.3129 42.894C87.5063 42.498 86.8683 41.948 86.3989 41.244C85.9443 40.54 85.7169 39.726 85.7169 38.802ZM94.0769 39.044V38.538C94.0769 37.746 93.7983 37.108 93.2409 36.624C92.6836 36.14 91.9576 35.898 91.0629 35.898C90.1683 35.898 89.4423 36.14 88.8849 36.624C88.3276 37.108 88.0489 37.746 88.0489 38.538V39.044C88.0489 39.836 88.3276 40.474 88.8849 40.958C89.4423 41.442 90.1683 41.684 91.0629 41.684C91.9576 41.684 92.6836 41.442 93.2409 40.958C93.7983 40.474 94.0769 39.836 94.0769 39.044ZM84.8809 46.392C87.3596 46.392 89.7576 46.3333 92.0749 46.216C94.3923 46.0987 96.3283 45.93 97.8829 45.71L98.1029 47.47C96.4749 47.734 94.5023 47.932 92.1849 48.064C89.8823 48.196 87.5063 48.262 85.0569 48.262L84.8809 46.392ZM126.305 32.994V44.544H124.083V39.814H120.233V37.944H124.083V32.994H126.305ZM111.411 44.544L110.223 42.85C112.101 42.1313 113.538 41.4713 114.535 40.87C115.533 40.2687 116.229 39.6453 116.625 39C117.036 38.3547 117.241 37.5847 117.241 36.69V36.052H110.839V34.16H119.485V36.47C119.485 37.7753 119.243 38.8753 118.759 39.77C118.275 40.65 117.461 41.4567 116.317 42.19C115.173 42.9233 113.538 43.708 111.411 44.544ZM113.501 45.644H126.305V53.256H124.127V47.514H113.501V45.644ZM143.699 37.614V32.994H145.921V44.522H143.699V39.44H140.047V37.614H143.699ZM131.159 44.126L129.509 42.696C130.667 41.8307 131.584 41.046 132.259 40.342C132.933 39.638 133.425 38.9413 133.733 38.252C134.055 37.5627 134.217 36.8073 134.217 35.986H130.169V34.138H140.443V35.986H136.439V36.118C136.439 37.3207 136.167 38.428 135.625 39.44L135.757 39.528L136.219 39.198C136.424 39.0367 136.629 38.956 136.835 38.956C137.055 38.956 137.267 39.0367 137.473 39.198L141.191 42.3L139.541 43.752L135.691 40.386C135.588 40.298 135.463 40.254 135.317 40.254C135.214 40.254 135.111 40.2907 135.009 40.364C134.598 40.9213 134.092 41.4933 133.491 42.08C132.889 42.652 132.112 43.334 131.159 44.126ZM145.987 49.098C145.987 49.9193 145.745 50.6453 145.261 51.276C144.777 51.9213 144.058 52.4273 143.105 52.794C142.151 53.1607 141.007 53.344 139.673 53.344C138.323 53.344 137.172 53.1607 136.219 52.794C135.265 52.4273 134.547 51.9213 134.063 51.276C133.579 50.6453 133.337 49.9193 133.337 49.098C133.337 48.2767 133.579 47.5507 134.063 46.92C134.547 46.2747 135.265 45.776 136.219 45.424C137.172 45.0573 138.323 44.874 139.673 44.874C141.022 44.874 142.166 45.0573 143.105 45.424C144.058 45.776 144.777 46.2747 145.261 46.92C145.745 47.5507 145.987 48.2767 145.987 49.098ZM143.655 48.944C143.655 48.284 143.325 47.734 142.665 47.294C142.005 46.8393 141.007 46.612 139.673 46.612C138.338 46.612 137.333 46.8393 136.659 47.294C135.999 47.734 135.669 48.284 135.669 48.944V49.274C135.669 49.934 135.999 50.484 136.659 50.924C137.333 51.364 138.338 51.584 139.673 51.584C141.007 51.584 142.005 51.364 142.665 50.924C143.325 50.484 143.655 49.934 143.655 49.274V48.944ZM151.214 36.624C151.214 35.524 151.771 34.6513 152.886 34.006C154.001 33.3607 155.673 33.038 157.902 33.038C160.131 33.038 161.803 33.3607 162.918 34.006C164.033 34.6513 164.59 35.524 164.59 36.624C164.59 37.7387 164.033 38.6187 162.918 39.264C161.803 39.9093 160.131 40.232 157.902 40.232C155.673 40.232 154.001 39.9093 152.886 39.264C151.771 38.6187 151.214 37.7387 151.214 36.624ZM162.214 36.734V36.514C162.214 35.9567 161.855 35.5093 161.136 35.172C160.432 34.8347 159.354 34.666 157.902 34.666C156.465 34.666 155.387 34.8347 154.668 35.172C153.949 35.5093 153.59 35.9567 153.59 36.514V36.734C153.59 37.2913 153.942 37.7387 154.646 38.076C155.365 38.3987 156.45 38.56 157.902 38.56C159.369 38.56 160.454 38.3987 161.158 38.076C161.862 37.7533 162.214 37.306 162.214 36.734ZM166.922 41.42V43.29H148.882V41.42H166.922ZM151.632 51.716V48.108H162.126V46.59H151.5V44.786H164.26V49.802H153.744V51.342H164.81V53.168H153.062C152.593 53.168 152.233 53.0433 151.984 52.794C151.749 52.5447 151.632 52.1853 151.632 51.716ZM192.308 39.638H189.316V44.61H187.094V32.994H189.316V37.768H192.308V39.638ZM175.192 44.302L173.542 42.872C174.701 41.992 175.61 41.2 176.27 40.496C176.945 39.7773 177.436 39.066 177.744 38.362C178.067 37.658 178.228 36.8953 178.228 36.074V36.052H174.18V34.204H184.476V36.052H180.45V36.184C180.45 37.4013 180.172 38.5233 179.614 39.55L179.746 39.616L180.208 39.286C180.399 39.1393 180.597 39.066 180.802 39.066C181.037 39.066 181.257 39.1467 181.462 39.308L185.18 42.454L183.53 43.906L179.68 40.518C179.548 40.4153 179.431 40.364 179.328 40.364C179.211 40.364 179.108 40.408 179.02 40.496C178.624 41.0533 178.126 41.618 177.524 42.19C176.938 42.762 176.16 43.466 175.192 44.302ZM176.732 45.688H189.316V53.256H187.138V47.58H176.732V45.688ZM207.744 38.846H203.85V36.998H207.744V32.994H209.966V44.456H207.744V38.846ZM199.252 39.682C199.164 39.682 199.076 39.726 198.988 39.814C198.592 40.4593 198.078 41.1267 197.448 41.816C196.817 42.4907 196.003 43.29 195.006 44.214L193.356 42.74C194.544 41.6987 195.475 40.7747 196.15 39.968C196.824 39.1613 197.316 38.3693 197.624 37.592C197.932 36.8 198.086 35.9273 198.086 34.974V33.654H200.33V35.106C200.33 36.4847 200.051 37.7533 199.494 38.912L199.604 38.978L200.088 38.56C200.322 38.3987 200.535 38.318 200.726 38.318C200.931 38.318 201.114 38.3987 201.276 38.56L205.148 42.146L203.542 43.708L199.538 39.814C199.45 39.726 199.354 39.682 199.252 39.682ZM210.032 49.032C210.032 49.8533 209.79 50.5867 209.306 51.232C208.822 51.892 208.11 52.4053 207.172 52.772C206.233 53.1533 205.096 53.344 203.762 53.344C202.427 53.344 201.283 53.1533 200.33 52.772C199.376 52.4053 198.658 51.892 198.174 51.232C197.69 50.5867 197.448 49.8533 197.448 49.032C197.448 48.2107 197.69 47.4773 198.174 46.832C198.658 46.172 199.376 45.6587 200.33 45.292C201.283 44.9107 202.427 44.72 203.762 44.72C205.096 44.72 206.233 44.9107 207.172 45.292C208.11 45.6587 208.822 46.172 209.306 46.832C209.79 47.4773 210.032 48.2107 210.032 49.032ZM207.678 48.856C207.678 48.196 207.348 47.646 206.688 47.206C206.042 46.7513 205.067 46.524 203.762 46.524C202.442 46.524 201.452 46.7513 200.792 47.206C200.146 47.646 199.824 48.196 199.824 48.856V49.23C199.824 49.8753 200.146 50.418 200.792 50.858C201.452 51.3127 202.442 51.54 203.762 51.54C205.067 51.54 206.042 51.3127 206.688 50.858C207.348 50.418 207.678 49.8753 207.678 49.23V48.856ZM230.021 32.994V52.266H227.887V42.41H225.687V51.738H223.553V33.302H225.687V40.584H227.887V32.994H230.021ZM220.737 36.294H214.951V34.49H220.737V36.294ZM212.773 38.296H222.651V40.056H220.275V40.166C221.345 40.7967 221.881 41.948 221.881 43.62C221.881 44.9987 221.499 46.084 220.737 46.876C219.989 47.6533 218.999 48.042 217.767 48.042C216.52 48.042 215.523 47.6533 214.775 46.876C214.027 46.084 213.653 44.9987 213.653 43.62C213.653 41.9627 214.181 40.8187 215.237 40.188V40.056H212.773V38.296ZM219.791 42.652C219.791 41.904 219.607 41.3247 219.241 40.914C218.889 40.5033 218.397 40.298 217.767 40.298C217.136 40.298 216.637 40.5033 216.271 40.914C215.919 41.3247 215.743 41.904 215.743 42.652V43.884C215.743 44.6173 215.926 45.1967 216.293 45.622C216.674 46.0327 217.165 46.238 217.767 46.238C218.368 46.238 218.852 46.0327 219.219 45.622C219.6 45.1967 219.791 44.6173 219.791 43.884V42.652ZM250.582 48.262V50.132H232.542V48.262H240.462V44.192H234.94V34.006H237.14V37.328H245.918V34.006H248.118V44.192H242.684V48.262H250.582ZM237.14 42.344H245.918V39.154H237.14V42.344ZM269.251 32.994V52.266H267.095V32.994H269.251ZM262.805 33.302H264.939V51.738H262.805V41.332H260.033V39.462H262.805V33.302ZM258.097 41.09C258.332 41.09 258.523 41.2073 258.669 41.442L261.925 46.326L260.275 47.712L257.085 42.74C257.041 42.652 256.975 42.608 256.887 42.608C256.799 42.608 256.726 42.6593 256.667 42.762C256.33 43.554 255.89 44.368 255.347 45.204C254.819 46.04 254.159 46.986 253.367 48.042L251.761 46.7C252.788 45.3507 253.58 44.17 254.137 43.158C254.709 42.1313 255.113 41.1193 255.347 40.122C255.597 39.11 255.721 37.966 255.721 36.69V34.534H257.855V36.646C257.855 38.3767 257.621 39.9827 257.151 41.464L257.261 41.552L257.569 41.31C257.76 41.1633 257.936 41.09 258.097 41.09ZM273.774 38.912C273.774 37.9293 274.031 37.042 274.544 36.25C275.072 35.458 275.857 34.8347 276.898 34.38C277.954 33.9253 279.252 33.698 280.792 33.698C282.332 33.698 283.623 33.9253 284.664 34.38C285.72 34.8347 286.505 35.458 287.018 36.25C287.546 37.042 287.81 37.9293 287.81 38.912C287.81 39.9093 287.546 40.804 287.018 41.596C286.505 42.3733 285.72 42.9967 284.664 43.466C283.623 43.9207 282.332 44.148 280.792 44.148C279.252 44.148 277.954 43.9207 276.898 43.466C275.857 42.9967 275.072 42.3733 274.544 41.596C274.031 40.804 273.774 39.9093 273.774 38.912ZM276.172 39.176C276.172 40.1 276.561 40.8627 277.338 41.464C278.116 42.0653 279.267 42.366 280.792 42.366C282.318 42.366 283.469 42.0653 284.246 41.464C285.024 40.8627 285.412 40.1 285.412 39.176V38.67C285.412 37.7313 285.024 36.9613 284.246 36.36C283.484 35.7587 282.332 35.458 280.792 35.458C279.252 35.458 278.094 35.7587 277.316 36.36C276.554 36.9613 276.172 37.7313 276.172 38.67V39.176ZM289.812 48.262V50.132H271.772V48.262H276.172V44.72H278.372V48.262H283.212V44.72H285.39V48.262H289.812Z" fill="#171719"/>
<rect x="20.5" y="86.5" width="334" height="299" rx="7.5" fill="white"/>
<rect x="20.5" y="86.5" width="334" height="299" rx="7.5" stroke="#C7C8C9"/>
<path d="M47.4219 103.328V108.75H49.6719V109.969H47.4219V117.359H45.9375V103.328H47.4219ZM43.6562 104.672V105.875H38.5938V112.641C40.9453 112.633 42.7109 112.531 44.7031 112.172L44.8906 113.422C42.7031 113.812 40.8438 113.891 38.2344 113.875H37.1094V104.672H43.6562ZM56.7188 103.625C59.7969 103.625 61.7188 104.625 61.7188 106.312C61.7188 107.969 59.7969 108.953 56.7188 108.953C53.6562 108.953 51.7188 107.969 51.7188 106.312C51.7188 104.625 53.6562 103.625 56.7188 103.625ZM56.7188 104.797C54.5625 104.797 53.2344 105.344 53.25 106.312C53.2344 107.25 54.5625 107.781 56.7188 107.797C58.8594 107.781 60.1875 107.25 60.1875 106.312C60.1875 105.344 58.8594 104.797 56.7188 104.797ZM61.5469 112.484V117.156H51.875V112.484H61.5469ZM53.3438 113.672V115.953H60.1094V113.672H53.3438ZM63.1094 110.031V111.234H50.3438V110.031H63.1094ZM76.9375 111.219V112.422H71.25V117.312H69.7969V112.422H64.1719V111.219H76.9375ZM75.7344 104.156V105.344H71.4062C71.4297 107.078 73.5859 108.625 76.2344 108.984L75.6875 110.156C73.3906 109.797 71.4062 108.664 70.5625 107.062C69.6953 108.664 67.7188 109.797 65.4531 110.156L64.8906 108.984C67.5078 108.625 69.6641 107.078 69.7188 105.344H65.3594V104.156H75.7344ZM89.3281 107.422V108.609H79.6875V103.828H81.1562V107.422H89.3281ZM90.7969 110.375V111.562H77.9844V110.375H90.7969ZM89.4219 115.781V117H79.5781V112.891H81.0625V115.781H89.4219ZM100.641 106.344C100.641 107.984 101.906 109.547 104.047 110.172L103.344 111.328C101.742 110.844 100.555 109.836 99.9375 108.547C99.3281 110 98.1172 111.148 96.4688 111.703L95.7344 110.516C97.875 109.844 99.1719 108.156 99.1719 106.344V106.109H96.125V104.922H99.1719V103.281H100.656V104.922H103.688V106.109H100.641V106.344ZM107.406 103.328V112.984H105.922V108.453H103.266V107.219H105.922V103.328H107.406ZM103.578 112.344C103.578 114.156 105.578 115.688 108.25 116.094L107.656 117.266C105.477 116.906 103.648 115.82 102.812 114.281C101.961 115.805 100.133 116.906 97.9375 117.266L97.4062 116.094C100 115.672 102.047 114.094 102.062 112.344V112.062H103.578V112.344ZM125.047 103.328V117.328H123.562V103.328H125.047ZM113.547 113.516C114.695 113.508 116.016 113.5 117.391 113.453V112.062C115.75 111.852 114.688 110.891 114.703 109.516C114.688 107.938 116.062 106.891 118.094 106.891C120.141 106.891 121.547 107.938 121.547 109.516C121.547 110.875 120.484 111.828 118.859 112.047V113.406C120.156 113.352 121.469 113.25 122.703 113.094L122.812 114.203C119.703 114.719 116.312 114.75 113.75 114.75L113.547 113.516ZM122.391 105V106.188H113.844V105H117.391V103.359H118.875V105H122.391ZM118.094 108.047C116.922 108.047 116.094 108.625 116.109 109.516C116.094 110.406 116.922 110.953 118.094 110.953C119.297 110.953 120.125 110.406 120.125 109.516C120.125 108.625 119.297 108.047 118.094 108.047ZM132.156 106.891C132.141 109.375 133.578 111.906 135.672 112.922L134.75 114.109C133.227 113.32 132.047 111.75 131.438 109.875C130.805 111.875 129.578 113.547 127.984 114.375L127.062 113.172C129.219 112.141 130.672 109.453 130.672 106.891V104.5H132.156V106.891ZM138.203 103.328V108.906H140.453V110.172H138.203V117.328H136.719V103.328H138.203ZM152.172 104.516V105.703H155.219V103.344H156.703V113.547H155.219V109.922H152.172V111.141H145.672V104.516H152.172ZM147.141 105.719V109.969H150.719V105.719H147.141ZM157.016 115.828V117.031H147.562V112.609H149.062V115.828H157.016ZM152.172 108.703H155.219V106.922H152.172V108.703ZM170.516 103.328V110.953H169.047V107.859H166.422V106.641H169.047V103.328H170.516ZM162.875 111.578V113.188H169.047V111.578H170.516V117.156H161.406V111.578H162.875ZM162.875 115.953H169.047V114.344H162.875V115.953ZM163.875 105.516C163.875 107.25 165.141 109 167.25 109.719L166.484 110.875C164.906 110.32 163.75 109.203 163.141 107.812C162.523 109.367 161.305 110.602 159.641 111.188L158.875 110.016C161.031 109.266 162.359 107.422 162.359 105.5V105.312H159.328V104.109H166.875V105.312H163.875V105.516ZM179.062 103.562C182.219 103.562 184.062 104.406 184.062 105.969C184.062 107.531 182.219 108.391 179.062 108.391C175.906 108.391 174.062 107.531 174.062 105.969C174.062 104.406 175.906 103.562 179.062 103.562ZM179.062 104.656C176.828 104.656 175.594 105.141 175.609 105.969C175.594 106.828 176.828 107.281 179.062 107.281C181.297 107.281 182.531 106.828 182.531 105.969C182.531 105.141 181.297 104.656 179.062 104.656ZM185.453 109.25V110.438H172.688V109.25H185.453ZM183.844 111.516V114.797H175.688V116.047H184.234V117.188H174.234V113.719H182.375V112.625H174.219V111.516H183.844ZM203.234 114.359V115.594H190.422V114.359H196.062V111.484H191.891V104.281H193.375V106.688H200.25V104.281H201.719V111.484H197.531V114.359H203.234ZM193.375 110.281H200.25V107.891H193.375V110.281ZM215.906 103.328V117.359H214.438V109.828H211.875V108.594H214.438V103.328H215.906ZM211.047 104.594V109.594H206.25V112.781C208.484 112.773 210.203 112.695 212.156 112.344L212.281 113.562C210.188 113.938 208.344 114.016 205.875 114.031H204.766V108.391H209.609V105.797H204.734V104.594H211.047ZM232.891 103.328V108.906H235.062V110.141H232.891V117.312H231.406V103.328H232.891ZM229.234 104.797C229.219 108.844 227.438 112.453 222.828 114.734L222 113.578C225.508 111.828 227.414 109.297 227.719 106.031H222.703V104.797H229.234ZM247.141 107.422V108.609H237.5V103.828H238.969V107.422H247.141ZM248.609 110.375V111.562H235.797V110.375H248.609ZM247.234 115.781V117H237.391V112.891H238.875V115.781H247.234ZM264.547 103.328V106.141H266.578V107.391H264.547V110.344H263.062V103.328H264.547ZM255.672 103.953V108.516C257.555 108.5 259.539 108.352 261.688 107.922L261.875 109.156C259.516 109.625 257.391 109.766 255.328 109.766H254.188V103.953H255.672ZM264.547 110.984V114.547H257V115.953H265.031V117.156H255.531V113.406H263.062V112.156H255.5V110.984H264.547ZM268.969 116.109C268.359 116.109 267.844 115.609 267.859 115C267.844 114.391 268.359 113.891 268.969 113.891C269.562 113.891 270.078 114.391 270.078 115C270.078 115.609 269.562 116.109 268.969 116.109ZM273.188 116.109C272.578 116.109 272.062 115.609 272.078 115C272.062 114.391 272.578 113.891 273.188 113.891C273.781 113.891 274.297 114.391 274.297 115C274.297 115.609 273.781 116.109 273.188 116.109ZM277.406 116.109C276.797 116.109 276.281 115.609 276.297 115C276.281 114.391 276.797 113.891 277.406 113.891C278 113.891 278.516 114.391 278.516 115C278.516 115.609 278 116.109 277.406 116.109ZM282.531 104.688L282.391 112.734H280.844L280.703 104.688H282.531ZM281.625 116.109C281.016 116.109 280.5 115.609 280.516 115C280.5 114.391 281.016 113.891 281.625 113.891C282.219 113.891 282.734 114.391 282.734 115C282.734 115.609 282.219 116.109 281.625 116.109ZM299.922 103.328V117.359H298.438V109.062H294.266V107.844H298.438V103.328H299.922ZM290.484 104.875V112.75C292.484 112.719 294.375 112.602 296.406 112.188L296.594 113.406C294.344 113.875 292.312 113.984 290.109 113.984H288.984V104.875H290.484ZM314.859 111.359V112.562H309.141V117.312H307.688V112.562H302.047V111.359H314.859ZM313.25 104.078V109.578H303.656V104.078H313.25ZM305.109 105.266V108.422H311.766V105.266H305.109ZM323.703 104.109V105.297H321.578V108.828C322.273 108.805 323.031 108.734 323.875 108.547L324 109.734C322.719 109.984 321.734 110 320.766 110H320.141V104.109H323.703ZM328.375 104.109V105.297H325.938V108.828C327.078 108.82 327.898 108.75 328.859 108.531L328.984 109.703C327.781 109.984 326.812 110 325.188 110H324.469V104.109H328.375ZM331.594 111.172V114.656H323.578V115.969H332.094V117.156H322.078V113.547H330.141V112.344H322.047V111.172H331.594ZM331.594 103.328V110.531H330.141V107.469H327.688V106.312H330.141V103.328H331.594ZM48.1406 127.328V141.359H46.6562V127.328H48.1406ZM43.8594 128.594V133.703H38.8281V136.766C41.0938 136.758 43.0781 136.656 45.4219 136.266L45.5625 137.484C43.0781 137.906 40.9688 138 38.5 138H37.3125V132.516H42.3438V129.797H37.2969V128.594H43.8594ZM61.6719 131.422V132.609H52.0312V127.828H53.5V131.422H61.6719ZM63.1406 134.375V135.562H50.3281V134.375H63.1406ZM61.7656 139.781V141H51.9219V136.891H53.4062V139.781H61.7656ZM76.2031 127.328V141.328H74.7656V127.328H76.2031ZM73.3125 127.625V140.625H71.9062V133.828H69.0312V132.594H71.9062V127.625H73.3125ZM69.9844 129V130.219H66.125V136.797C67.9609 136.781 69.1953 136.703 70.6406 136.391L70.7656 137.641C69.1562 137.969 67.7812 138.031 65.5938 138.031H64.6719V129H69.9844ZM86.7812 129.438C86.7656 131.047 88.0625 132.562 90.2188 133.172L89.5156 134.328C87.8984 133.867 86.6953 132.859 86.0625 131.578C85.4453 133.039 84.1953 134.156 82.4688 134.672L81.75 133.516C83.9375 132.859 85.2812 131.219 85.2812 129.453V129.266H82.2188V128.078H89.7969V129.266H86.7812V129.438ZM92.9062 127.328V130.281H94.9375V131.5H92.9062V134.531H91.4219V127.328H92.9062ZM92.9062 135.141V138.625H85.3438V140.031H93.3906V141.188H83.8906V137.547H91.4375V136.297H83.8594V135.141H92.9062ZM110.641 127.281V130.562H112.688V131.781H110.641V134.984H109.156V127.281H110.641ZM110.641 135.641V138.891H103.078V140.062H111.125V141.188H101.625V137.844H109.172V136.75H101.594V135.641H110.641ZM108 128.516V129.688H99.6562V128.516H103.094V127.203H104.578V128.516H108ZM103.828 130.219C105.875 130.219 107.219 131.094 107.219 132.516C107.219 133.938 105.875 134.797 103.828 134.797C101.766 134.797 100.422 133.938 100.422 132.516C100.422 131.094 101.766 130.219 103.828 130.219ZM103.828 131.281C102.625 131.281 101.844 131.766 101.859 132.516C101.844 133.266 102.625 133.719 103.828 133.719C105.031 133.719 105.812 133.266 105.828 132.516C105.812 131.766 105.031 131.281 103.828 131.281ZM124.547 128.562C124.531 130.422 126.812 132.172 129.562 132.531L128.984 133.75C126.695 133.383 124.68 132.195 123.781 130.547C122.859 132.203 120.852 133.383 118.578 133.75L117.984 132.531C120.734 132.172 122.984 130.438 123 128.562V127.797H124.547V128.562ZM130.141 135.125V136.344H124.453V141.328H123V136.344H117.375V135.125H130.141ZM139.969 136.578C139.969 137.781 140.562 139.055 141.828 139.812C143.117 138.992 143.75 137.648 143.75 136.578V135.906H145.203V136.578C145.203 138.031 146.156 139.438 147.984 140.031L147.25 141.125C145.867 140.648 144.93 139.719 144.438 138.562C143.992 139.695 143.156 140.719 141.875 141.25C140.531 140.742 139.68 139.75 139.25 138.609C138.742 139.711 137.82 140.641 136.5 141.125L135.75 140.031C137.547 139.391 138.516 137.938 138.531 136.578V135.906H139.969V136.578ZM146.719 127.344V135.312H145.234V127.344H146.719ZM139.125 128.109C141.266 128.109 142.844 129.469 142.844 131.422C142.844 133.359 141.266 134.703 139.125 134.703C136.984 134.703 135.391 133.359 135.391 131.422C135.391 129.469 136.984 128.109 139.125 128.109ZM139.125 129.375C137.797 129.359 136.844 130.188 136.844 131.422C136.844 132.641 137.797 133.469 139.125 133.469C140.438 133.469 141.391 132.641 141.391 131.422C141.391 130.188 140.438 129.359 139.125 129.375ZM155.312 127.562C158.469 127.562 160.312 128.406 160.312 129.969C160.312 131.531 158.469 132.391 155.312 132.391C152.156 132.391 150.312 131.531 150.312 129.969C150.312 128.406 152.156 127.562 155.312 127.562ZM155.312 128.656C153.078 128.656 151.844 129.141 151.859 129.969C151.844 130.828 153.078 131.281 155.312 131.281C157.547 131.281 158.781 130.828 158.781 129.969C158.781 129.141 157.547 128.656 155.312 128.656ZM161.703 133.25V134.438H148.938V133.25H161.703ZM160.094 135.516V138.797H151.938V140.047H160.484V141.188H150.484V137.719H158.625V136.625H150.469V135.516H160.094ZM167.922 131.453C167.922 133.797 169.453 136.219 171.609 137.141L170.797 138.297C169.148 137.57 167.836 136.031 167.188 134.156C166.539 136.156 165.219 137.859 163.594 138.656L162.734 137.484C164.844 136.5 166.406 133.859 166.422 131.453V129.969H163.219V128.734H171.109V129.969H167.922V131.453ZM174.359 127.328V141.328H172.875V127.328H174.359ZM187.766 128.203C187.766 131.766 185.312 134.297 181.25 135.438L180.656 134.281C183.898 133.375 185.883 131.625 186.172 129.422H181.375V128.203H187.766ZM192.172 136.109V141.297H190.688V137.312H182.688V136.109H192.172ZM192.172 127.344V135.531H190.688V132.141H187.844V130.906H190.688V127.344H192.172ZM206 127.328V135.656H204.516V132.109H201.906V130.891H204.516V127.328H206ZM201.312 136.047C204.25 136.047 206.047 137.016 206.047 138.688C206.047 140.359 204.25 141.312 201.312 141.328C198.375 141.312 196.562 140.359 196.578 138.688C196.562 137.016 198.375 136.047 201.312 136.047ZM201.312 137.203C199.266 137.203 198.047 137.734 198.047 138.688C198.047 139.625 199.266 140.172 201.312 140.156C203.359 140.172 204.578 139.625 204.578 138.688C204.578 137.734 203.359 137.203 201.312 137.203ZM199.344 129.797C199.344 131.578 200.609 133.297 202.719 134.016L201.953 135.188C200.383 134.641 199.227 133.523 198.625 132.141C198.008 133.711 196.781 134.969 195.109 135.578L194.328 134.391C196.5 133.641 197.828 131.75 197.828 129.812V129.5H194.797V128.297H202.344V129.5H199.344V129.797ZM216.312 131.812V133.016H213.578V134.781C214.82 134.727 216.055 134.641 217.203 134.516L217.312 135.609C214.328 136.016 211.047 136.094 208.422 136.094L208.219 134.906C209.414 134.898 210.75 134.883 212.109 134.844V133.016H209.469V128.219H216.188V129.422H210.953V131.812H216.312ZM219.766 127.328V137.828H218.281V127.328H219.766ZM220.203 139.828V141.031H210.531V137.078H212.016V139.828H220.203ZM232.891 127.328V132.75H235.141V133.969H232.891V141.359H231.406V127.328H232.891ZM229.125 128.672V129.875H224.062V136.641C226.414 136.633 228.18 136.531 230.172 136.172L230.359 137.422C228.172 137.812 226.312 137.891 223.703 137.875H222.578V128.672H229.125ZM248.562 132V133.219H245.25V139.156H243.766V133.219H240.578V139.156H239.078V133.219H235.844V132H248.562ZM262.391 132V133.219H259.078V139.156H257.594V133.219H254.406V139.156H252.906V133.219H249.672V132H262.391Z" fill="#171719"/>
<path d="M304.547 369.117C303.07 369.094 301.453 368.227 301.453 365.086C301.453 362.086 302.684 360.398 304.676 360.398C306.164 360.398 307.207 361.312 307.43 362.648H306.387C306.188 361.898 305.625 361.336 304.676 361.336C303.281 361.336 302.449 362.531 302.449 364.57H302.555C303.047 363.867 303.82 363.445 304.734 363.445C306.246 363.445 307.5 364.617 307.5 366.258C307.5 367.852 306.328 369.129 304.547 369.117ZM304.547 368.191C305.648 368.191 306.469 367.324 306.48 366.27C306.469 365.227 305.684 364.371 304.57 364.371C303.457 364.371 302.602 365.273 302.59 366.281C302.59 367.277 303.41 368.191 304.547 368.191ZM311.789 369.117C310.008 369.117 308.766 368.133 308.777 366.75C308.766 365.648 309.527 364.746 310.5 364.594V364.547C309.656 364.348 309.105 363.574 309.105 362.648C309.105 361.348 310.242 360.398 311.789 360.398C313.336 360.398 314.473 361.348 314.484 362.648C314.473 363.574 313.91 364.348 313.078 364.547V364.594C314.039 364.746 314.801 365.648 314.812 366.75C314.801 368.133 313.559 369.117 311.789 369.117ZM311.789 368.191C313.008 368.191 313.758 367.582 313.758 366.691C313.758 365.754 312.926 365.062 311.789 365.062C310.652 365.062 309.809 365.754 309.832 366.691C309.809 367.582 310.57 368.191 311.789 368.191ZM311.789 364.172C312.75 364.172 313.453 363.586 313.453 362.73C313.453 361.887 312.785 361.312 311.789 361.312C310.781 361.312 310.125 361.887 310.125 362.73C310.125 363.586 310.816 364.172 311.789 364.172ZM319.266 360.117L316.523 370.277H315.609L318.34 360.117H319.266ZM323.238 360.516V369H322.172V361.617H322.125L320.062 362.988V361.922L322.172 360.516H323.238ZM328.277 369.117C326.391 369.117 325.312 367.535 325.312 364.758C325.312 362.004 326.414 360.398 328.277 360.398C330.141 360.398 331.242 362.004 331.242 364.758C331.242 367.535 330.152 369.117 328.277 369.117ZM328.277 368.18C329.496 368.18 330.211 366.949 330.211 364.758C330.211 362.566 329.496 361.312 328.277 361.312C327.059 361.312 326.332 362.566 326.332 364.758C326.332 366.949 327.047 368.18 328.277 368.18ZM335.426 369.117C333.539 369.117 332.461 367.535 332.461 364.758C332.461 362.004 333.562 360.398 335.426 360.398C337.289 360.398 338.391 362.004 338.391 364.758C338.391 367.535 337.301 369.117 335.426 369.117ZM335.426 368.18C336.645 368.18 337.359 366.949 337.359 364.758C337.359 362.566 336.645 361.312 335.426 361.312C334.207 361.312 333.48 362.566 333.48 364.758C333.48 366.949 334.195 368.18 335.426 368.18Z" fill="#171719"/>
</svg>
