<svg xmlns="http://www.w3.org/2000/svg" width="375" height="579" fill="none"><path fill="#fff" d="M0 0h375v75H0z"/><path fill="#171719" d="M38.832 28.262v1.87h-18.04v-1.87h7.92v-4.004c-1.29-.117-2.383-.418-3.278-.902-.88-.484-1.54-1.1-1.98-1.848a4.93 4.93 0 0 1-.66-2.508c0-.997.257-1.892.77-2.684.528-.807 1.32-1.445 2.376-1.914 1.056-.47 2.347-.704 3.872-.704s2.816.235 3.872.704c1.056.47 1.84 1.107 2.354 1.914.528.792.792 1.687.792 2.684 0 .91-.22 1.745-.66 2.508-.44.748-1.1 1.364-1.98 1.848-.88.484-1.965.785-3.256.902v4.004h7.898Zm-9.02-5.742c1.54 0 2.691-.3 3.454-.902.777-.616 1.166-1.4 1.166-2.354v-.55c0-.953-.389-1.73-1.166-2.332-.763-.616-1.914-.924-3.454-.924-1.54 0-2.699.308-3.476.924-.763.601-1.144 1.379-1.144 2.332v.55c0 .953.381 1.738 1.144 2.354.777.601 1.936.902 3.476.902Zm26.083-2.992h-12.76v-6.05h2.222v4.29h10.538v1.76Zm2.552 1.694v1.87h-18.04v-1.87h18.04ZM45.27 31.342h11.066v1.826H44.587c-.47 0-.828-.125-1.078-.374-.234-.25-.352-.609-.352-1.078v-3.608h10.494V26.59H43.025v-1.804h12.76v5.016H45.27v1.54Zm29.142-18.348h2.221v19.272H74.41V12.994Zm-13.508 5.808c0-.924.227-1.738.681-2.442a4.562 4.562 0 0 1 1.914-1.65c.807-.396 1.724-.594 2.75-.594 1.027 0 1.944.198 2.75.594a4.417 4.417 0 0 1 1.892 1.65c.47.704.704 1.518.704 2.442 0 .924-.234 1.738-.703 2.442-.455.704-1.086 1.254-1.892 1.65-.807.381-1.724.572-2.75.572-1.027 0-1.944-.19-2.75-.572-.807-.396-1.445-.946-1.915-1.65-.454-.704-.681-1.518-.681-2.442Zm8.36.242v-.506c0-.792-.28-1.43-.837-1.914-.557-.484-1.283-.726-2.177-.726-.895 0-1.621.242-2.178.726-.558.484-.837 1.122-.837 1.914v.506c0 .792.28 1.43.836 1.914.558.484 1.284.726 2.179.726.894 0 1.62-.242 2.178-.726.557-.484.835-1.122.835-1.914Zm-9.197 7.348c2.48 0 4.877-.059 7.194-.176 2.318-.117 4.254-.286 5.808-.506l.22 1.76c-1.627.264-3.6.462-5.917.594-2.303.132-4.68.198-7.128.198l-.177-1.87Zm43.383-6.842h-2.992v4.554h-2.222v-11.11h2.222v4.686h2.992v1.87Zm-17.204 4.664-1.166-1.694c1.877-.704 3.315-1.35 4.312-1.936 1.012-.587 1.716-1.188 2.112-1.804.41-.63.616-1.379.616-2.244v-.638h-6.446v-1.87h8.712v2.244c0 1.29-.242 2.376-.726 3.256-.484.865-1.305 1.657-2.464 2.376-1.159.719-2.809 1.489-4.95 2.31Zm2.002.99h12.21v7.854h-10.78c-.47 0-.829-.125-1.078-.374-.235-.25-.352-.609-.352-1.078v-6.402Zm2.222 6.006h7.744v-4.158h-7.744v4.158Zm28.415-13.596v-4.62h2.222v11.528h-2.222V19.44h-3.652v-1.826h3.652Zm-12.54 6.512-1.65-1.43c1.159-.865 2.075-1.65 2.75-2.354.675-.704 1.166-1.4 1.474-2.09.323-.69.484-1.445.484-2.266h-4.048v-1.848h10.274v1.848h-4.004v.132c0 1.203-.271 2.31-.814 3.322l.132.088.462-.33c.205-.161.411-.242.616-.242.22 0 .433.08.638.242l3.718 3.102-1.65 1.452-3.85-3.366a.555.555 0 0 0-.374-.132.528.528 0 0 0-.308.11c-.411.557-.917 1.13-1.518 1.716a47.586 47.586 0 0 1-2.332 2.046Zm14.828 4.972a3.48 3.48 0 0 1-.726 2.178c-.484.645-1.203 1.151-2.156 1.518-.953.367-2.097.55-3.432.55-1.349 0-2.501-.183-3.454-.55-.953-.367-1.672-.873-2.156-1.518a3.48 3.48 0 0 1-.726-2.178c0-.821.242-1.547.726-2.178.484-.645 1.203-1.144 2.156-1.496.953-.367 2.105-.55 3.454-.55 1.349 0 2.493.183 3.432.55.953.352 1.672.85 2.156 1.496a3.48 3.48 0 0 1 .726 2.178Zm-2.332-.154c0-.66-.33-1.21-.99-1.65-.66-.455-1.657-.682-2.992-.682s-2.339.227-3.014.682c-.66.44-.99.99-.99 1.65v.33c0 .66.33 1.21.99 1.65.675.44 1.679.66 3.014.66 1.335 0 2.332-.22 2.992-.66.66-.44.99-.99.99-1.65v-.33Zm7.559-12.32c0-1.1.558-1.973 1.672-2.618 1.115-.645 2.787-.968 5.016-.968 2.23 0 3.902.323 5.016.968 1.115.645 1.672 1.518 1.672 2.618 0 1.115-.557 1.995-1.672 2.64-1.114.645-2.786.968-5.016.968-2.229 0-3.901-.323-5.016-.968-1.114-.645-1.672-1.525-1.672-2.64Zm11 .11v-.22c0-.557-.359-1.005-1.078-1.342-.704-.337-1.782-.506-3.234-.506-1.437 0-2.515.169-3.234.506-.718.337-1.078.785-1.078 1.342v.22c0 .557.352 1.005 1.056 1.342.719.323 1.804.484 3.256.484 1.467 0 2.552-.161 3.256-.484.704-.323 1.056-.77 1.056-1.342Zm4.708 4.686v1.87h-18.04v-1.87h18.04Zm-15.29 10.296v-3.608h10.494V26.59h-10.626v-1.804h12.76v5.016h-10.516v1.54h11.066v1.826h-11.748c-.469 0-.828-.125-1.078-.374-.234-.25-.352-.609-.352-1.078Zm35.375-16.412h-10.956v-1.826h13.134v1.1c0 1.628-.22 3.461-.66 5.5l-2.112-.286c.337-1.35.535-2.845.594-4.488Zm4.73 5.852v1.87h-18.04v-1.87h7.062V17.9h2.222v3.256h8.756Zm-13.156 10.23h11.044v1.848h-11.77c-.469 0-.829-.125-1.078-.374-.235-.25-.352-.609-.352-1.078v-3.696h10.494v-1.54H151.5v-1.848h12.76v5.126h-10.494v1.562Zm33.343-9.196h-3.08v10.098h-2.222V13.016h2.222v7.304h3.08v1.87Zm-7.172 3.014.264 1.782c-2.376.44-5.273.66-8.69.66h-2.222v-7.788h6.578v-3.586h-6.644v-1.848h8.844v7.26h-6.578v4.136h.11c3.212 0 5.991-.205 8.338-.616Zm26.215 3.058v1.87h-18.04v-1.87h7.92v-4.07h-5.522V14.006h2.2v3.322h8.778v-3.322h2.2v10.186h-5.434v4.07h7.898Zm-13.442-5.918h8.778v-3.19h-8.778v3.19Zm32.112-9.35v19.272h-2.156V12.994h2.156Zm-6.446.308h2.134v18.436h-2.134V21.332h-2.772v-1.87h2.772v-6.16Zm-4.708 7.788c.234 0 .425.117.572.352l3.256 4.884-1.65 1.386-3.19-4.972c-.044-.088-.11-.132-.198-.132-.088 0-.162.051-.22.154a16.21 16.21 0 0 1-1.32 2.442 43.83 43.83 0 0 1-1.98 2.838l-1.606-1.342c1.026-1.35 1.818-2.53 2.376-3.542.572-1.027.975-2.039 1.21-3.036.249-1.012.374-2.156.374-3.432v-2.156h2.134v2.112c0 1.73-.235 3.337-.704 4.818l.11.088.308-.242c.19-.147.366-.22.528-.22Zm15.677-2.178c0-.983.256-1.87.77-2.662.528-.792 1.312-1.415 2.354-1.87 1.056-.455 2.354-.682 3.894-.682s2.83.227 3.872.682c1.056.455 1.84 1.078 2.354 1.87.528.792.792 1.68.792 2.662 0 .997-.264 1.892-.792 2.684-.514.777-1.298 1.4-2.354 1.87-1.042.455-2.332.682-3.872.682s-2.838-.227-3.894-.682c-1.042-.47-1.826-1.093-2.354-1.87-.514-.792-.77-1.687-.77-2.684Zm2.398.264c0 .924.388 1.687 1.166 2.288.777.601 1.928.902 3.454.902 1.525 0 2.676-.3 3.454-.902.777-.601 1.166-1.364 1.166-2.288v-.506c0-.939-.389-1.709-1.166-2.31-.763-.601-1.914-.902-3.454-.902-1.54 0-2.699.3-3.476.902-.763.601-1.144 1.371-1.144 2.31v.506Zm13.64 9.086v1.87h-18.04v-1.87h4.4V24.72h2.2v3.542h4.84V24.72h2.178v3.542h4.422Z"/><path fill="#858588" d="M31.621 56.16v1.053h-11.17V56.16h4.936v-1.326h-3.473v-4.635H23.2v1.326h5.674V50.2h1.299v4.635h-3.5v1.326h4.95Zm-1.367 2.147v3.855H28.94v-2.816h-7.246v-1.04h8.559Zm-7.055-4.512h5.674v-1.299h-5.674v1.299Zm15.627-2.803c-.014 1.627 1.983 3.158 4.389 3.473l-.506 1.066c-2.003-.321-3.767-1.36-4.553-2.803-.806 1.45-2.563 2.482-4.553 2.803l-.519-1.066c2.406-.315 4.375-1.832 4.389-3.473v-.67h1.353v.67Zm4.895 5.742v1.067h-4.977v4.361h-1.271v-4.361H32.55v-1.067h11.17Zm5.25-4.58c0 1.655 1.107 3.268 2.953 3.91l-.711 1.012a4.973 4.973 0 0 1-2.858-2.803c-.533 1.422-1.579 2.543-3.021 3.09l-.697-1.025c1.9-.684 3.035-2.379 3.048-4.225v-1.449h1.286v1.49Zm5.892-2.228v9.133h-1.298V53.78H50.98v-1.066h2.584v-2.79h1.298Zm.274 10.924v1.052h-8.272v-3.869h1.313v2.817h6.959Zm6.904-10.063v1.053H58.5v1.367h3.404v.998H58.5v1.49c1.64-.013 2.72-.075 3.978-.314l.124 1.066c-1.436.274-2.598.328-4.553.315h-.793v-5.975h4.785Zm5.154-.861v7.437h-1.23v-3.267H64.46v3.172h-1.217v-7.123h1.217v2.898h1.504v-3.117h1.23Zm0 8.025v4.211H65.91v-3.158h-7.04V57.95h8.325Zm14.616-8.039v4.881h1.9v1.08h-1.9v6.275h-1.3V49.912h1.3Zm-3.2 1.285c-.013 3.541-1.572 6.7-5.605 8.696l-.725-1.012c3.07-1.531 4.738-3.746 5.004-6.604h-4.388v-1.08h5.714Zm15.655 2.024v1.052h-8.409v-4.142h1.286v3.09h7.123Zm1.285 2.351v1.067H84.367v-1.067h11.184Zm-5.606 2.065c2.639 0 4.225.806 4.225 2.228 0 1.436-1.586 2.242-4.225 2.242-2.652 0-4.252-.806-4.252-2.242 0-1.422 1.6-2.228 4.252-2.228Zm0 1.011c-1.873.014-2.94.424-2.94 1.217 0 .78 1.067 1.244 2.94 1.244 1.846 0 2.926-.465 2.926-1.244 0-.793-1.08-1.203-2.926-1.217Zm10.678-1.421c.014-2.57.738-4.717 2.023-6.55h1.34c-.943 1.354-1.845 4.116-1.845 6.55 0 2.447.902 5.195 1.845 6.562h-1.34c-1.285-1.832-2.009-3.979-2.023-6.562Zm9.01-.807v2.12a36.998 36.998 0 0 0 3.322-.315l.096.957c-2.776.505-5.742.533-7.93.533l-.164-1.067c.984-.006 2.147-.013 3.377-.054V56.42h1.299Zm2.748-4.95v1.053h-2.748c.068 1.436 1.23 2.68 3.062 3.172l-.601 1.012c-1.463-.417-2.557-1.306-3.104-2.475-.54 1.23-1.613 2.16-3.09 2.584l-.615-.984c1.825-.52 2.974-1.805 3.035-3.309h-2.707v-1.052h2.721v-1.463h1.299v1.463h2.748Zm2.639-1.558V62.19h-1.299V49.912h1.299Zm12.482 0v12.25h-1.244v-6.33h-1.586v5.701h-1.19V50.158h1.19v4.608h1.586v-4.854h1.244Zm-5.51 1.477v1.052h-3.295v5.674c1.504-.013 2.639-.082 3.951-.328l.096 1.066c-1.476.301-2.734.356-4.525.37h-.821v-7.834h4.594Zm14.451 9.748c-2.05 0-3.513-1.108-3.568-2.721h1.531c.055.875.916 1.422 2.024 1.422 1.189 0 2.064-.656 2.064-1.613 0-.971-.82-1.682-2.228-1.682h-.848v-1.23h.848c1.121 0 1.914-.63 1.914-1.573 0-.902-.67-1.517-1.723-1.517-.998 0-1.873.547-1.914 1.449h-1.449c.041-1.613 1.531-2.707 3.377-2.707 1.941 0 3.172 1.23 3.158 2.693.014 1.121-.684 1.942-1.75 2.201v.069c1.353.191 2.133 1.094 2.133 2.351 0 1.655-1.518 2.858-3.569 2.858Zm15.286-11.225v12.25h-1.245v-6.357h-1.517v5.77h-1.217V50.24h1.217v4.512h1.517v-4.84h1.245Zm-5.196 1.559c-.013 3.226-1.08 6.111-4.58 8.094l-.752-.903c2.721-1.538 3.869-3.623 4.074-6.125h-3.554v-1.066h4.812Zm10.172 5.756c-.014 2.584-.738 4.73-2.023 6.562h-1.34c.943-1.367 1.846-4.115 1.846-6.562 0-2.434-.903-5.196-1.846-6.55h1.34c1.285 1.833 2.009 3.98 2.023 6.55Z"/><path fill="#fff" d="M0 75h375v504H0z"/><path fill="#CCD5DD" d="M60.796 107.005c.968.565 2.157.755 2.893 1.699 1.144 1.47 1.492 3.064.827 4.838-.348.935-.706 1.864-.978 2.819-.373 1.314.423 2.194 1.709 1.719 3.457-1.28 7.041-1.2 10.574-.945 6.578.47 12.657 2.469 17.42 7.237 4.496 4.503 6.427 9.895 5.555 16.332-.842 6.212-3.478 11.375-8.126 15.548-2.61 2.344-5.72 3.688-9.203 4.158-3.201.43-6.412.625-9.653.585-10.318-.125-19.632-8.686-20.676-18.926-.655-6.402 1.029-12.095 4.824-17.207 1.018-1.37 2.243-2.604 3.589-3.709.771-.629 1.724-1.509 1.346-2.468-.358-.895-1.543-1.065-2.627-1.09-1.99-.045-4.032-1.664-4.54-3.413-.57-1.964.317-4.508 1.965-5.738.882-.659 1.885-1.054 2.898-1.444h2.198l.005.005Z"/><path fill="#000" d="M60.688 145.478c.377.012.606.265.682.572.124.512.136 1.054.236 1.572.435 2.38.04 4.912 1.51 7.115.536.801.071 1.684-.758 2.173-.9.53-1.858.501-2.704-.135-.636-.483-1.124-1.314-.6-1.95 1.529-1.849.77-3.846.623-5.813-.07-.96-.223-1.926.065-2.862.129-.424.452-.701.946-.672ZM96.82 150.237c.088 1.791-.235 3.616.918 5.266.446.636.223 1.484-.436 2.02-.64.524-1.37.553-2.087.135-.6-.347-1.047-.889-.84-1.572.77-2.521.164-5.118.51-7.657.1-.736.265-1.466.506-2.167.077-.218.506-.46.741-.436.247.029.647.359.659.571.065 1.278.03 2.556.03 3.84ZM73.318 162.988c-1.2-.33-3.051-.807-4.886-1.349-.623-.182-1.24-.559-.964-1.366.206-.607.835-.601 1.352-.513.735.124 1.447.36 2.17.513.758.159 1.458.165 1.981-.589.67-.978 1.547-1.573 2.676-.719.817.619 1.152 1.537.858 2.562-.358 1.255-1.346 1.537-3.187 1.455v.006ZM83.114 162.464c-1.282-.271-2.852-.565-4.404-.948a.732.732 0 0 1-.505-1.002c.105-.253.417-.594.64-.6 1.694-.047 3.205-.159 4.616-1.52.83-.801 1.694.342 1.97 1.349.306 1.113.264 2.156-1.064 2.615-.294.1-.635.059-1.253.106ZM65.868 134.823c.042-.653.371-.789.665-.795 3.293-.041 6.562-.282 9.755-1.183.47-.136 1.105-.201 1.287.518.136.524-.288.836-.652.954-3.346 1.06-6.75 1.708-10.278 1.09-.424-.077-.8-.289-.776-.584ZM83.132 132.68c3.016.765 5.827 1.231 8.608.053.312-.136.612.17.706.494.188.642-.236 1.066-.712 1.273-2.358 1.013-4.768 1.072-7.173.182-.694-.259-1.423-.542-1.435-2.002h.006ZM76.611 146.909h-2.387c-.612 0-1.423.201-1.458-.73-.018-.565.629-.925 1.129-.96 2.122-.165 4.25-.247 6.38-.318.41-.012.875.141.964.648.123.718-.447.93-.953.995-1.37.177-2.752.271-3.669.36l-.006.005Z"/><path fill="#fff" d="M85.784 139.865c.317 0 .635-.011.946-.011.788 0 1.558.111 1.553 1.113 0 .606-.553.865-1.1.936-.817.1-1.488-.112-1.54-1.095-.018-.313.088-.625.14-.937v-.006ZM73.471 140.555c.641.047 1.123.324 1.159.901.058 1.001-.718 1.148-1.47 1.137-.57-.012-1.006-.372-.923-.984.094-.701.582-1.06 1.234-1.048v-.006Z"/><path fill="#000" d="M76.34 138.387c.542.094.7.453.636.913-.1.683-.441 1.201-1.218 1.136-.487-.041-.723-.436-.664-.889.088-.719.559-1.084 1.247-1.16ZM85.79 139.865c-.3-.035-.624-.012-.906-.112-.517-.188-.876-.553-.653-1.16.147-.395.453-.707.924-.642.576.076.917.412.846 1.031-.035.3-.14.594-.217.889l.006-.006Z"/><path fill="#171719" d="M68.828 180.891c0 1.625 2.219 3.015 4.953 3.312l-.515 1.125c-2.29-.289-4.297-1.266-5.204-2.703-.898 1.437-2.906 2.414-5.187 2.703l-.516-1.125c2.735-.297 4.953-1.687 4.953-3.312v-.469h1.516v.469Zm5.625 5.203v1.218H61.687v-1.218h12.766Zm-1.61 2.359v3.328h-8.156v1.266h8.547v1.141h-10v-3.469h8.141v-1.141h-8.156v-1.125h9.625Zm15.438-1.265v1.203H75.516v-1.203H88.28Zm-1.203-6.376v1.219h-2.031v2.703h1.969v1.204H76.75v-1.204h1.984v-2.703h-2.046v-1.219h10.39Zm-.36 8.891v4.453h-9.671v-4.453h9.672Zm-8.202 1.156v2.094h6.765v-2.094h-6.765Zm1.687-6.125h3.36v-2.703h-3.36v2.703Z"/><g clip-path="url(#a)"><path fill="#F0ECAE" d="M172.554 110.113c6.431.039 12.789-.716 19.126-1.719 2.565-.405 5.118-.672 7.744.094 3.235.943 4.736 3.022 5.262 6.211.797 4.803 1.058 9.655 1.534 14.491.316 3.189.953 6.334 1.817 9.44.936 3.371 1.911 6.777.842 10.315-1.091 3.621-3.157 6.289-6.935 7.514-4.254 1.381-8.525 1.98-13.017 1.537-2.62-.261-5.301-.133-7.971.099-2.381.206-4.813-.022-7.206-.227-3.085-.266-6.198-.477-9.123-1.691-4.187-1.742-6.508-4.92-7.422-9.317-.748-3.611.654-6.938 1.108-10.388.687-5.224 1.468-10.426.775-15.722-.626-4.875 4.443-10.593 9.389-10.637 1.357-.011 2.72 0 4.077 0Z"/><path fill="#000" d="M191.447 128.082c-2.11.033-4.004-.239-5.633-1.348-.958-.649-1.8-.621-2.808-.205-2.803 1.153-5.678.981-8.558.299-.498-.116-1.102-.294-1.047-.859.078-.777.765-.816 1.39-.682 1.878.404 3.767.599 5.667.249 1.595-.294 3.168-.554 3.44-2.69.116-.937.836-1.674 1.955-1.336 1.008.299 1.041 1.225.787 1.991-.549 1.68.498 2.19 1.728 2.518 1.977.526 3.977.41 5.949-.084.482-.122.947-.327 1.418-.504.504-.189 1.058-.261 1.312.277.349.743-.299 1.059-.819 1.337-.981.532-2.066.765-3.158.926-.592.088-1.202.083-1.628.105l.005.006Z"/><path fill="#fff" d="M164.384 119.674c.099-2.218.553-4.059 1.584-5.723.26-.422.609-.843 1.207-.627.582.211.787.771.515 1.22-2.293 3.838-.648 7.881-.664 11.83 0 .687.404 1.503-.604 1.702-1.075.216-1.435-.588-1.451-1.453-.039-2.418-.128-4.836-.587-6.949Z"/><path fill="#000" d="M163.874 134.82c.282-.011.831.144 1.069.571.665 1.198 1.756 1.836 2.858 2.512.31.189.576.577.344 1.026-.205.4-.576.633-.975.489-1.49-.538-2.997-1.06-4.42-1.753-.649-.316-.831-1.109-.504-1.847.26-.582.709-.948 1.622-1.004l.006.006ZM206.934 136.01c-.354-.195-.698-.272-.825-.488-.128-.217-.155-.672-.017-.827 1.064-1.159 2.122-2.335 3.296-3.377.537-.477 1.335-.411 1.9.155.687.693.559 1.486-.017 2.141-1.163 1.325-3.096 1.231-4.343 2.396h.006ZM181.045 140.932c2.343-2.357 6.813-2.674 8.658-.904.21.199.415.438.271.782-.127.299-.36.532-.67.443-1.346-.399-2.72-.499-4.121-.549-1.274-.044-2.493.643-4.138.228ZM197.319 159.937c-.044.793-.482 1.176-1.075 1.386-.842.294-1.811.727-2.503-.094-.892-1.065-1.529-2.329-1.673-3.754-.028-.25.16-.627.365-.76.2-.128.732-.117.804.011.83 1.442 2.044 2.268 3.672 2.573.188.033.299.46.41.638ZM178.503 160.248c.122.776-.183 1.397-.942 1.597-.975.255-2.011.294-2.72-.61-.537-.682-.271-1.348.438-1.725.842-.449.936-1.181.997-1.991.039-.532.31-.987.914-.937.565.05.786.538.881 1.037.16.871.288 1.752.426 2.629h.006ZM194.04 132.08c.016.389-.205.688-.615.838-1.119.41-2.232.821-3.362 1.198-.394.127-.842.05-.975-.383-.067-.216.088-.621.277-.771 1.102-.898 2.404-1.381 3.8-1.58.409-.056.764.177.869.698h.006ZM176.038 132.818c-.038-.818 3.412-.716 4.813-.211.322.117.709.422.565.921-.138.46-.537.604-.925.51-1.29-.316-4.491-.038-4.448-1.22.044-1.182.033.818-.005 0Z"/></g><path fill="#171719" d="M174.828 180.547v1.219h6.484v-1.219h1.485v4.641h-9.438v-4.641h1.469Zm0 3.515h6.484v-1.203h-6.484v1.203Zm9.625 2.141v1.203h-5.656v1.203h4.047v3.266h-8.156v1.172h8.546v1.141h-10v-3.376h8.141v-1.093h-8.156v-1.11h4.093v-1.203h-5.624v-1.203h12.765Zm7.563-4.453v1.141c0 1.359 0 3.047-.422 5.406l-1.375-.141c.179-.953.281-1.804.343-2.562l-4.656.39-.187-1.203 4.906-.265c.016-.563.016-1.086.016-1.563h-4.594v-1.203h5.969Zm-2.985 5.094v2.968c1.211-.039 2.446-.117 3.485-.25l.078 1.094c-2.266.422-5.219.453-7.047.469l-.203-1.234c.664 0 1.468-.008 2.328-.032v-3.015h1.359Zm8.531-6.516v14h-1.406v-6.953h-1.531v6.234h-1.391v-13h1.391v5.532h1.531v-5.813h1.406Z"/><g clip-path="url(#b)"><path fill="#E6B2C6" d="M277.034 132.245c-.121-4.305.097-8.6.801-12.838.947-5.717 4.451-9.379 9.859-11.285 4.699-1.654 9.413-1.494 13.889.59 5.466 2.545 8.432 7.174 9.572 12.935.966 4.881.981 9.819.651 14.792-.223 3.42-.685 6.777-1.306 10.144-1.18 6.404-5.005 10.042-11.403 10.791-4.592.537-9.15 0-13.451-1.809-2.777-1.17-4.437-3.454-5.724-6.114-2.349-4.876-2.971-10.042-2.893-15.358.01-.614 0-1.229 0-1.848h.005Z"/><path fill="#000" d="M286.515 138.737c.393.019.655.242.815.571.461.943.884 1.91 1.364 2.849.67 1.296 1 2.81 2.544 3.536.568.266.777.943.471 1.606-.379.817-1.073 1.146-1.932 1.078-.646-.048-1.369-.343-1.355-1.02.063-2.521-1.485-4.446-2.272-6.647-.145-.406-.267-.841-.286-1.267-.019-.377.277-.609.651-.701v-.005ZM300.922 137.281c.049 1.722-.893 2.999-2.213 3.004-1.277.005-2.384-1.326-2.423-2.912-.034-1.432 1.17-2.82 2.491-2.874 1.179-.048 2.102 1.147 2.145 2.787v-.005ZM309.544 139.172c-.355 2.472-1.219 4.939-2.16 7.377-.335.866-1.03 1.166-1.908.769-.787-.353-1.258-1.741-.573-2.201 2.311-1.567 2.422-4.058 3.078-6.351.145-.503.398-1.045 1.077-.832.495.155.447.677.486 1.238Z"/><path fill="#fff" d="M282.417 133.009c.204-1.146.413-2.447.67-3.739.093-.455.398-.774.928-.735.432.034.602.358.631.711.102 1.248.645 2.37.937 3.56.237.958.32 1.945-.632 2.636-.543.397-1.126.455-1.723.073-.903-.571-.845-1.461-.811-2.501v-.005Z"/><path fill="#000" d="M294.383 162.99c-1.597.039-1.956-.435-1.237-1.828.403-.774.174-1.311-.083-1.954-.291-.726-.587-1.451-.806-2.201-.043-.16.209-.455.393-.615.229-.203.554-.116.714.073 1.301 1.577 2.112 3.439 2.563 5.379.233 1.006-.878 1.088-1.539 1.146h-.005ZM301.214 157.761c-.049 1.171-.622 2.361.441 3.464.631.653.19 1.301-.582 1.62-.966.397-2.112 0-2.092-.832.038-1.819.257-3.642.936-5.359.073-.184.418-.373.627-.358.364.024.616.304.665.687.034.256.005.517.005.778ZM304.728 125.841c-1.078-.295-2.354-.179-3.466-.769-.393-.208-.689-.561-.456-1.069.16-.348.476-.527.849-.479 1.301.169 2.602.334 3.894.571.572.106 1.315.266 1.097 1.127-.156.614-.753.643-1.287.658-.175 0-.349-.025-.631-.044v.005ZM292.699 126.01c-.369 0-.544.015-.718 0-.675-.058-1.617.078-1.636-.861-.02-.982.937-.788 1.602-.875.776-.097 1.548-.223 2.325-.324.461-.058.893.019 1.048.527.156.503-.189.808-.543 1.069-.68.498-1.5.392-2.078.464ZM296.044 130.562c-.034.614-.33.996-.957 1.045-.504.038-.883-.252-.937-.721-.072-.629.369-.948.947-1.035.524-.078.787.266.947.711ZM301.379 131.157c-.413 0-.738-.286-.762-.745-.025-.469.296-.779.786-.808.505-.029.835.252.845.731.009.454-.263.788-.869.827v-.005Z"/><path fill="#E6B2C6" d="M299.097 137.494c-.053.329-.146.725-.558.624-.355-.087-.403-.503-.379-.842.02-.256.151-.556.432-.522.389.043.476.396.5.74h.005Z"/></g><path fill="#171719" d="M285.625 181.016c2.141 0 3.687 1.328 3.703 3.25-.016 1.953-1.562 3.281-3.703 3.265-2.141.016-3.719-1.312-3.703-3.265-.016-1.922 1.562-3.25 3.703-3.25Zm0 1.234c-1.313 0-2.266.812-2.25 2.016-.016 1.218.937 2.031 2.25 2.031s2.25-.813 2.266-2.031c-.016-1.204-.953-2.016-2.266-2.016Zm7.063-1.922v3.125h2.031v1.219h-2.031v3.234h-1.485v-7.578h1.485Zm-7.5 8.234v1.61h6.015v-1.61h1.485v5.594h-8.969v-5.594h1.469Zm0 4.391h6.015v-1.625h-6.015v1.625Zm21.328-12.625v3.578h2.031v1.219h-2.031v3.641h-1.485v-8.438h1.485Zm0 9.141v4.859h-1.485v-3.656h-7.765v-1.203h9.25Zm-9-8.266v2.094h3.672v-2.094h1.468v6.672h-6.594v-6.672h1.454Zm0 5.485h3.672v-2.219h-3.672v2.219Z"/><path fill="#AFC1BB" d="M74.81 272.59c-1.66.156-3.494 0-5.229-.799-.633-.291-1.221-.156-1.83.081a10.708 10.708 0 0 1-4.241.743c-2.822-.075-4.995-1.96-5.299-4.819-.09-.86-.449-1.307-1.156-1.659-2.712-1.357-4.517-3.513-5.145-6.499-.319-1.507-1.505-2.442-1.993-3.829-.4-1.121-.599-2.237-.39-3.343.18-.925-.094-1.553-.598-2.226-2.088-2.79-1.914-6.544 1.222-8.931.423-.322.842-.674 1.002-1.257.653-2.377 2.352-3.93 4.192-5.383 1.111-.874 2.054-1.93 2.966-3.005.299-.352.573-.699.972-.93 1.82-1.041 3.604-2.081 5.144-3.594 1.112-1.09 2.776-.95 4.277-.869.932.05 1.7-.166 2.487-.769 2.567-1.965 5.154-1.955 7.727.02.752.578 1.47.829 2.357.739 2.582-.257 4.706.548 6.276 2.694.15.206.409.407.648.462 1.934.427 3.22 1.739 4.422 3.197.902 1.09 2.034 1.935 3.1 2.849 2.637 2.257 3.883 5.564 6.067 8.203 1.645 1.99.777 4.428-.584 6.483-.473.719-.887 1.342-.653 2.347.349 1.513-.01 3.066-.902 4.303-.872 1.211-1.336 2.533-1.794 3.915-.778 2.357-2.348 4.096-4.517 5.232-.927.482-1.42 1.005-1.5 2.156-.154 2.292-2.477 4.358-4.76 4.488-1.506.086-2.996-.01-4.397-.608-.932-.397-1.79-.422-2.731-.015-.783.337-1.6.633-2.488.618-.812-.015-1.63 0-2.657 0l.005.005Z"/><path fill="#fff" d="M97.058 243.763c.041 1.065-.309 2.016-.83 2.926-.365.642-.906.854-1.53.549-.726-.357-.412-.942-.134-1.438.397-.703.763-1.432.732-2.239-.072-2.089-1.84-3.408-3.875-2.855-1.047.285-1.562.088-1.423-1.07.14-1.19-.484-1.82-1.494-2.234-.624-.254-1.304-.579-.933-1.422.366-.823 1.041-.347 1.582-.186.68.201 1.453.537 1.732 1.117.654 1.365 1.762 1.758 3.092 2.156 2.035.615 3.092 2.425 3.081 4.685v.011ZM54.307 245.319c-.082.636.196 1.288.412 1.955.155.471.026.869-.376 1.091-.423.233-.804.036-1.108-.315-.953-1.086-.83-4.499.217-5.859 1.236-1.609 3.112-2.048 4.86-1.169.556.279.989.646.741 1.303-.263.693-.881.574-1.438.419-2.102-.59-3.303.31-3.303 2.58l-.005-.005Z"/><path fill="#000" d="M81.867 257.012c-1.5-.543-3.015-.233-4.468.584-.16.088-.361.165-.536.155-2.448-.134-4.896-.667-7.349.072-.273.083-.69-.237-1.01-.429a.9.9 0 0 1-.448-.951c.072-.419.397-.673.799-.605 2.19.356 4.344-1.438 6.575-.093.325.196 1.015.134 1.345-.088 1.979-1.35 4.154-.735 6.272-.766.706-.01 1.427-.041 1.427.864 0 .781-.696 1.05-1.365 1.179-.366.072-.748.052-1.242.083v-.005ZM70.772 267.23c-1.917-.057-3.608-.714-4.736-2.426-.366-.558-.629-1.324-.057-1.81.768-.651 1.056.233 1.469.688 2.242 2.462 4.226 2.374 6.405-.222.35-.419.784-.833 1.268-1.06 1.051-.497 1.835.046 2.303.956.418.812.392 2.053-.536 2.115-1.937.135-3.35 1.593-5.225 1.712-.278.021-.562.026-.897.047h.006ZM84.644 265.999c-1.577-.046-2.922-1.003-4.581-.858-1.02.088-1.48-1.355-.969-2.4.51-1.049 1.593-1.453 2.546-.92.237.129.427.352.623.543 2.309 2.28 2.407 2.291 5.04.476.227-.155.423-.368.655-.517.402-.259.845-.456 1.242-.037.386.409.247.895-.047 1.262-1.164 1.438-2.69 2.234-4.509 2.446v.005ZM73.94 278.979c-1.102.124-2.066-.419-2.421-1.841-.366-1.453-.923-2.865-.974-4.38-.01-.372.211-.745.623-.838.418-.093.722.15.861.528.222.615.433 1.236.577 1.872.258 1.148.799 1.805 2.108 1.727.984-.062 2.04.264 1.912 1.494-.14 1.314-1.32 1.386-2.685 1.433v.005ZM83.82 273.353c-.206 1.07-.423 2.451-.758 3.795-.221.89-.902 1.381-1.819 1.484-.948.104-1.974.161-2.365-.925-.418-1.153.427-1.795 1.365-2.017 1.093-.259 1.536-.905 1.7-1.908.063-.367.13-.735.233-1.091.134-.461.386-.931.907-.905.778.036.7.703.742 1.561l-.005.006ZM72.508 246.105c-.19.336-.33.688-.556.962-1.134 1.396-2.525 2.441-4.267 2.947-.474.14-.938.068-1.2-.398-.269-.481-.11-.967.35-1.174 1.628-.734 2.968-1.841 4.256-3.046a.761.761 0 0 1 1.015-.025c.186.155.258.45.407.729l-.005.005ZM80.681 245.857c.175.057.418.057.51.176 1.078 1.365 2.675 1.949 4.102 2.787.31.181.531.512.433.941-.103.45-.479.548-.835.574-1.39.109-4.256-1.649-4.797-2.932-.289-.688-.237-1.272.593-1.546h-.006ZM73.766 252.714c-.557.015-.974-.243-1.005-.765-.052-.911.567-1.34 1.37-1.469.408-.067.743.207.794.62.114.88-.309 1.423-1.16 1.614ZM79.254 251.364c.113.843-.217 1.241-1.093 1.086-.427-.517-.474-1.018.057-1.504a.651.651 0 0 1 .453-.052c.222.124.413.279.583.47Z"/><path fill="#000" d="M78.218 250.945c-.02.502-.036 1.004-.057 1.505-.7-.527-.685-1.029.057-1.505ZM79.254 251.364c-.196-.155-.387-.31-.583-.47.315 0 .506.165.583.47Z"/><path fill="#171719" d="M64.828 296.547v1.219h6.484v-1.219h1.485v4.641h-9.438v-4.641h1.47Zm0 3.515h6.484v-1.203h-6.484v1.203Zm9.625 2.141v1.203h-5.656v1.203h4.047v3.266h-8.156v1.172h8.546v1.141h-10v-3.376h8.141v-1.093h-8.156v-1.11h4.093v-1.203h-5.624v-1.203h12.765Zm12.063-5.891v4.188h2.03v1.25h-2.03v4.859H85.03v-10.297h1.485Zm.593 12.516v1.203h-9.468v-4.5h1.484v3.297h7.984Zm-7.656-11.547c2.11 0 3.719 1.438 3.734 3.485-.015 2.031-1.624 3.484-3.734 3.484s-3.734-1.453-3.719-3.484c-.015-2.047 1.61-3.485 3.72-3.485Zm0 1.297c-1.281 0-2.281.891-2.266 2.188-.015 1.296.985 2.187 2.266 2.187 1.297 0 2.281-.891 2.281-2.187 0-1.297-.984-2.188-2.28-2.188Z"/><g clip-path="url(#c)"><path fill="#CAADC6" d="M157 246.281c-.04-7.252 2.682-13.247 8.46-17.621 4.008-3.038 8.466-4.482 13.664-3.181 3.821.96 7.835.925 11.672.023 7.077-1.661 12.463 1.211 16.949 6.184 4.116 4.562 5.716 10.192 5.13 16.268-.513 5.316-2.665 10.072-6.064 14.217-2.812 3.432-5.966 6.492-10.117 8.24-3.604 1.513-7.35 2.027-11.318 1.815-2.34-.125-4.697.006-7.049-.325-5.693-.805-9.997-3.98-13.761-8.04-3.882-4.196-6.37-9.124-7.384-14.788-.165-.937-.114-1.862-.182-2.792Z"/><path fill="#000" d="M209.083 245.156c-.347 2.683-1.657 5.184-3.866 7.206-.478.439-1.139.679-1.634.091-.376-.44-.125-.976.262-1.376.865-.897 1.611-1.879 2.164-2.992.677-1.37 1.582-2.667-.211-4.031-.82-.623-.621-1.719.273-2.393.809-.611 2.09-.205 2.625.777.41.754.393 1.587.387 2.723v-.005ZM163.599 248.342c-.052-.971.091-1.656.643-2.215.552-.56 1.184-.863 1.947-.514.86.394 1.475 1.319.94 1.993-1.515 1.895-.422 3.465.244 5.167.348.891 1.378 2.135.148 2.729-1.309.634-1.56-.976-1.952-1.833-.815-1.787-1.674-3.563-1.965-5.321l-.005-.006ZM197.662 276.954c-1.383.069-2.226-.211-2.636-1.205a70.84 70.84 0 0 1-1.429-3.722c-.205-.583-.302-1.291.461-1.548.752-.245 1.139.371 1.327.942.512 1.571 1.514 2.284 3.177 2.29.876 0 1.594.577 1.56 1.559-.035.959-.797 1.364-1.634 1.57-.393.097-.809.109-.832.114h.006ZM182.176 236.877c-.04.354-.285.525-.586.628-.439.148-.786-.12-1.167-.268-3.029-1.205-3.246-1.154-5.255 1.159-.388.445-.649 1.244-1.401.862-.9-.457-.478-1.256-.194-1.896 1.361-3.066 5.773-3.9 8.125-1.559.296.297.552.611.478 1.074ZM187.448 253.338c-1.634-.165-3.615-1.039-5.659-.165-.177.074-.621-.16-.746-.366-.228-.371-.085-.793.234-1.102.984-.953 2.226-1.01 3.444-.816 1.708.274 3.382.793 5.141.268.37-.108.82.04.968.52.194.616-.194.953-.638 1.227-.734.44-1.56.44-2.744.44v-.006ZM179.324 271.701a12.166 12.166 0 0 1-2.118 4.551c-.552.731-1.406.799-2.243.725-.649-.057-1.207-.331-1.333-1.056-.091-.548.091-1.131.598-1.314 1.788-.633 2.853-1.85 3.433-3.631.143-.44.666-.845 1.258-.525.393.211.513.611.41 1.25h-.005ZM191.217 238.721c1.048.051 2.494-.714 2.568.839.045.988-1.367.994-2.255 1.108-2.408.303-4.099-.171-3.763-.925.74-1.65 2.38-.657 3.456-1.022h-.006Z"/><path fill="#fff" d="M194.924 248.216c-.661-.08-.946-.468-.889-.845.177-1.148 1.025-1.736 2.078-1.884a.77.77 0 0 1 .843.988c-.302 1.067-1.07 1.661-2.038 1.741h.006ZM176.881 246.321c.723.114 1.788-.046 1.754 1.119-.029 1.005-.951.862-1.651.828-.712-.029-1.594-.017-1.663-.948-.074-.999.769-1.011 1.56-.999Z"/><path fill="#000" d="M182.95 245.19c-.022.874-.336 1.456-1.013 1.508-.871.063-1.27-.628-1.287-1.388-.017-.685.456-1.147 1.162-1.136.723.011 1.002.565 1.138 1.016ZM190.181 245.487c-.085.542-.393.891-.962.919-.541.029-1.019-.165-1.076-.765-.069-.725.381-1.09 1.07-1.096.581 0 .871.377.962.936l.006.006Z"/></g><path fill="#171719" d="M184.453 304.531v1.172h-12.765v-1.172h5.64v-1.015c-2.469-.11-3.875-.852-3.859-2.125-.016-1.391 1.672-2.125 4.593-2.125 2.907 0 4.594.734 4.594 2.125 0 1.265-1.398 2.015-3.844 2.125v1.015h5.641Zm-1.437 4.313v1.187h-9.719v-3.5h1.5v2.313h8.219Zm.718-11.266v1.141h-11.39v-1.141h4.984v-1.39h1.484v1.39h4.922Zm-5.672 2.75c-2.031 0-3.093.36-3.093 1.063s1.062 1.062 3.093 1.062c2.016 0 3.094-.359 3.094-1.062 0-.703-1.078-1.063-3.094-1.063Zm18.454-3.984v4.203h2.046v1.25h-2.046v4.844h-1.485v-10.297h1.485Zm.625 12.484v1.203h-9.422v-4.187h1.5v2.984h7.922Zm-4.688-11.594v4.125h-4.875v1.953c2.43.008 4.149-.109 6.188-.453l.156 1.219c-2.172.375-4.016.453-6.703.453h-1.125v-4.312H191v-1.766h-4.922v-1.219h6.375Z"/><g clip-path="url(#d)"><path fill="#E3BFA2" d="M295.102 276.349c-8.059.282-15.502-4.669-18.153-12.24-1.441-4.117-1.185-8.228-.11-12.392 1.034-4.001 3.555-7.028 6.164-10.033 2.511-2.89 5.209-5.635 7.052-9.047 1.357-2.52 2.354-5.16 2.552-8.046.115-1.633.798-1.998 2.176-1.158.726.444 1.446.903 2.172 1.351 3.215 1.973 4.149 5.171 4.796 8.609.501 2.667-.522 5.03-1.117 7.472-.276 1.127-.506 2.186.428 3.01.747.663 1.749 1.221 2.735.715 1.086-.558 1.717-1.612 1.869-2.854.068-.558.021-1.137 0-1.706-.037-1.09.584-1.163 1.393-.882.517.178.841.595 1.107 1.06 1.566 2.702 3.314 5.347 4.139 8.379 1.973 7.242 1.633 14.28-2.709 20.672-3.44 5.066-8.445 7.226-14.505 7.08l.011.01ZM274.094 244.413c.073-2.463 1.253-4.357 2.453-6.23 1.154-1.795 2.213-3.626 2.876-5.671.188-.569.313-1.378 1.19-1.409.861-.031 1.039.757 1.357 1.283 1.524 2.51 1.002 5.98-1.3 8.5-1.68 1.836-3.053 3.85-3.972 6.162-.167.422-.323.788-.835.835-.558.047-.903-.282-1.117-.72-.443-.903-.621-1.874-.652-2.745v-.005Z"/><path fill="#000" d="M313.662 262.46c-.376-1.059-1.279-1.106-1.775-1.643-.282-.303-.407-.673-.198-1.018.203-.333.59-.438.992-.333.923.24 1.758.673 2.489 1.267.955.783 1.148 1.79.282 2.687-.924.961-1.79 1.821-1.759 3.319.016.777-.616 1.388-1.493 1.393-1.07.005-1.706-.678-2.124-1.581-.371-.793-.177-1.471.538-1.967.991-.689 2.166-1.127 3.058-2.129l-.01.005ZM277.481 260.118c.392.047.731.188.872.589.141.397.026.726-.308.981-.767.585-2.255.793-1.827 2.098.339 1.038 1.702 1.022 2.678 1.299.804.229 1.341.678 1.545 1.482.235.923-.037 1.727-.882 2.165-.825.428-1.577-.026-1.858-.762-.408-1.075-1.17-1.591-2.114-2.092-1.169-.611-1.895-1.576-1.457-3.011.361-1.189 2.281-2.749 3.351-2.749ZM296.474 260.556a7.584 7.584 0 0 1 4.207 1.409c.621.438 1.164.965 1.216 1.81.026.402-.078.804-.396 1.002-.334.204-.741.094-1.018-.219-2.396-2.692-5.005-2.562-7.766-.605-.455.323-1.003.704-1.498.146-.585-.652-.178-1.247.334-1.701 1.393-1.242 3.037-1.842 4.921-1.837v-.005ZM306.548 276.814c-.115 1.283-.83 1.774-1.89 1.831-1.257.068-2.416-.913-2.802-2.348-.147-.547-.293-1.179.224-1.57.632-.48 1.044.057 1.352.522.537.814 1.378.396 2.072.563.631.151.96.517 1.049 1.007l-.005-.005ZM287.435 275.536c-.345 1.069.151 2.64-1.462 3.255-.611.235-1.326.413-1.795-.25-.381-.537-.183-1.101.313-1.477.631-.48.997-1.08 1.143-1.862.115-.616.167-1.461 1.127-1.195.627.172.679.824.668 1.529h.006ZM291.808 251.378c.032.439-.208.71-.579.84-.924.324-3.46-.814-3.873-1.763-.287-.663.105-1.232.721-1.153 1.299.161 2.437.85 3.512 1.586.125.088.152.323.225.485l-.006.005ZM298.933 252.255c-.413-.052-.726-.266-.794-.678-.12-.7 1.608-3.152 2.375-3.35.533-.136.955.125 1.055.662.182.976-1.697 3.329-2.636 3.361v.005ZM299.34 256.627c-.037.553-.329.872-.867.872-.537 0-.861-.36-.97-.835-.131-.548.214-.955.699-1.007.626-.068 1.023.339 1.138.97ZM292.57 256.09c.538.052.856.391.867.881.01.543-.376.799-.908.762-.528-.031-.877-.349-.862-.861.016-.511.355-.814.909-.782h-.006Z"/></g><path fill="#171719" d="M294.484 303.656v1.188h-5.562v2.578h-1.469v-2.578h-5.781v-1.188h12.812Zm-1.422 5.172v1.203h-9.796v-3.828h1.468v2.625h8.328Zm-8.234-12.062v1.703h6.484v-1.703h1.485v5.656h-9.438v-5.656h1.469Zm0 4.468h6.484v-1.656h-6.484v1.656Zm22.047 1.344v1.219h-4.234v3.562h5.687v1.219h-12.812v-1.219h5.64v-3.562h-4.109v-6.313h1.5v5.094h8.328Z"/><g clip-path="url(#e)"><path fill="#ACBCE5" d="M80.682 391.262c-7.045-.511-14.292.017-21.372-1.56-4.403-.98-8.467-2.551-10.383-7.115-1.445-3.441-1.002-6.967.051-10.367 2.62-8.428 5.929-16.576 11.092-23.817 1.525-2.139 2.797-4.467 4.893-6.221 4.437-3.727 9.25-4.019 14.314-1.709 3.949 1.801 6.746 4.908 9.227 8.423 2.797 3.956 5.9 7.723 7.805 12.207 2.366 5.573 5.025 11.106 4.662 17.413-.08 1.45-.08 2.93-.397 4.334-.65 2.879-2.435 4.84-5.215 5.986-4.673 1.927-9.578 2.357-14.677 2.426Z"/><path fill="#000" d="M56.95 387.265c.42 1.978 1.67 2.959 2.746 4.054.863.883.927 1.852.219 2.809-.622.838-1.531 1.044-2.516.74-.892-.275-1.629-.94-1.15-1.835.673-1.255.258-2.121-.473-3.079-.31-.407-.535-.9-.685-1.387-.754-2.408.628-3.893 3.126-3.389.403.081.84.184 1.168.413 1.284.889 2.395 1.181 3.88.109 1.306-.946 2.803-.178 4.098.568.374.218.627.573.46 1.043-.161.453-.547.579-.99.562-.103 0-.207-.029-.31-.04-.79-.063-1.825-.912-2.303-.034-.61 1.123.662 1.766 1.318 2.505.346.39.789.688 1.123 1.078.633.74 1.15 1.565.448 2.511-.638.855-1.6.935-2.555.7-1.123-.275-1.41-.981-1.111-2.122.449-1.685-.87-2.952-1.882-3.589-1.192-.745-2.573-1.743-4.61-1.622v.005ZM61.29 373.224c-.91.034-1.404-.178-1.45-.786-.04-.579.397-.917.95-1.037 1.312-.293 2.63-.579 3.948-.843 2.867-.573 5.773-.602 8.68-.545.76.017 1.957-.2 1.888.986-.058.998-1.163 1.021-1.998 1.009-3.326-.045-6.636.109-9.905.78-.812.167-1.623.333-2.113.436ZM80.003 381.348c.097.585-.087.952-.352 1.273-2.158 2.609-5.209 3.263-8.322 3.59-.996.103-1.739-.826-1.618-1.887s1.123-1.892 1.986-1.445c2.803 1.451 4.697.063 6.636-1.628.576-.499 1.267-.774 1.675.097h-.005ZM56.248 381.967c-.138 1.027-.76 1.789-1.974 1.875-2.182.155-5.307-3.17-5.134-5.424.04-.516.132-1.072.76-1.209.638-.144.938.275 1.087.814.115.395.133.837.317 1.198.558 1.101 1.157 1.766 2.682 1.181 1.52-.585 2.366.132 2.262 1.571v-.006ZM75.271 360.369c-.155.476-.35.866-.823.895-.403.028-.84.011-1.22-.109-2.187-.694-4.357-1.422-6.539-2.145-.53-.177-.99-.498-.955-1.078.04-.596.564-.888 1.122-.842 2.85.258 5.434 1.358 7.984 2.551.224.103.31.505.437.728h-.006ZM61.75 358.431c-.04.459-.258.843-.696.929-1.962.367-3.845.9-5.583 1.955-.65.396-1.335-.04-1.226-.814.219-1.474 1.56-1.846 2.717-2.282 1.462-.55 2.958-1.118 4.518-.304.144.075.179.344.265.516h.006Z"/><path fill="#fff" d="M67.558 365.89c.518-.074 1.03-.195 1.549-.206.685-.017 1.33.235 1.255 1.02-.07.711-.691.964-1.382.992-1.318.052-1.606-.688-1.427-1.806h.011-.006Z"/><path fill="#000" d="M67.547 365.902c-.305-.029-.616-.035-.915-.098-.674-.143-1.151-.51-1.002-1.261.104-.522.472-.952 1.048-.935.875.029 1.278.551 1.163 1.417-.04.298-.19.579-.288.865h-.012l.006.012ZM58.74 365.598c-.04-.614.328-.952.858-1.003.392-.035.789.166.817.67.035.602-.333.952-.863 1.01-.409.045-.76-.195-.817-.677h.005Z"/></g><path fill="#171719" d="M74.484 420.281v1.235h-5.718v4.812h-1.454v-4.812h-5.64v-1.235h12.812Zm-6.437-7.422c2.953 0 4.984 1.203 4.984 3.11 0 1.89-2.031 3.078-4.984 3.078-2.969 0-4.984-1.188-4.984-3.078 0-1.907 2.015-3.11 4.984-3.11Zm0 1.188c-2.078.015-3.469.734-3.453 1.922-.016 1.172 1.375 1.89 3.453 1.89s3.469-.718 3.469-1.89c0-1.188-1.391-1.907-3.47-1.922Zm13.844-1.563c3.156 0 5 .86 5 2.407 0 1.562-1.844 2.421-5 2.421-3.157 0-5-.859-5-2.421 0-1.547 1.843-2.407 5-2.407Zm0 1.11c-2.235.015-3.47.468-3.454 1.297-.015.875 1.22 1.312 3.454 1.312s3.468-.437 3.468-1.312c0-.829-1.234-1.282-3.468-1.297Zm6.39 4.547v1.171h-5.656v1.204h4.047v3.281h-8.156v1.25h8.546v1.141h-10v-3.469h8.141v-1.094h-8.156v-1.109h4.094v-1.204h-5.625v-1.171H88.28Z"/><g clip-path="url(#f)"><path fill="#EFE5BF" d="M207.669 363.64c-1.009-1.968-1.681-4.073-2.716-6.018-1.823-3.418-3.637-6.836-5.495-10.236-1.811-3.31-4.452-5.304-8.374-5.007-4.543.347-9.083.025-13.622.025-.265-.014-.531-.004-.79-.043-4.501-.7-7.625 1.193-9.953 5.032-2.518 4.151-4.797 8.428-7.095 12.694-.489.91-1.164 1.854-1.07 2.952.217 2.573.753 5.13 2.222 7.255 3.301 4.773 6.758 9.437 10.639 13.763 1.463 1.627 3.324 2.412 5.407 2.16 4.491-.535 8.987-.025 13.474-.238 1.944-.094 3.721-.602 4.969-2.026 4.052-4.619 8.309-9.085 11.602-14.325 1.154-1.835 1.876-3.894.802-5.993v.005Z"/><path fill="#000" d="M212.546 357.209c-.166.825-.519 1.611-1.251 2.181a5221.418 5221.418 0 0 1-8.306 6.391c-.136.105-.277.214-.423.309-.39.237-.79.405-1.169-.006-.397-.427-.182-.834.126-1.154.42-.441.883-.85 1.358-1.229 1.233-.976 2.48-1.943 3.739-2.884 1.119-.836 2.142-1.498 1.726-3.35-.338-1.512 1.546-2.638 3.085-2.134.845.275 1.213.876 1.119 1.881l-.004-.005ZM164.818 361.301a37.357 37.357 0 0 1-6.643-3.945c-1.258-.932-1.43-2.313-.565-3.159.616-.611 1.385-.749 2.175-.478.716.248 1.308.882 1.13 1.575-.485 1.905.844 2.431 2.047 3.112.982.557 1.978 1.088 2.945 1.67.375.224.741.622.564 1.066-.259.662-.845.411-1.34.272-.168-.048-.325-.123-.316-.119l.003.006ZM195.417 389.731c-.849-.022-1.509-.238-1.867-.936a179.947 179.947 0 0 1-2.587-5.183c-.235-.491-.241-1.081.428-1.294.517-.166.798.249 1.01.627.343.614.642 1.25.95 1.882.592 1.203 1.157 2.366 2.841 2.229.724-.058 1.431.356 1.467 1.198.046 1.017-.77 1.26-1.571 1.417-.254.049-.52.044-.67.056l-.001.004ZM176.655 382.294c.429.19.556.611.392 1.051-.741 1.97-1.449 3.956-2.318 5.87-.451.991-2.203 1.392-3.247.945-.51-.218-.902-.567-.893-1.171.004-.596.373-1.161.898-1.113 2.303.214 2.58-1.581 3.204-3.084.301-.725.658-1.432 1.03-2.124.172-.323.486-.486.939-.373l-.005-.001ZM186.196 366.236c1.498.273 2.864.757 3.633 2.234.267.512.281 1.055-.213 1.418-.534.395-.892.049-1.304-.364-2.139-2.152-3.743-1.996-5.784.488-.404.495-.668 1.52-1.528.907-.721-.518-.195-1.294.161-1.88 1.151-1.874 2.871-2.731 5.03-2.793l.005-.01ZM189.73 354.577c-.319 1.051-.784 1.88-1.842 2.12-.851.192-1.537-.177-2.015-.887-.295-.44-.542-.956-.2-1.465.431-.64.904-.272 1.306.072.757.641 1.03-.197 1.495-.465.793-.459 1.072.01 1.251.625h.005ZM183.012 355.527c-.105.687-.571 1.081-1.144 1.298-.957.358-1.872.215-2.63-.515-.455-.434-.749-.978-.529-1.629.167-.498.691-.714.995-.351.749.895 1.522.894 2.506.499.464-.19.777.184.802.702v-.004ZM188.395 361.999c-.627-.024-1.171-.225-1.152-.839.024-.613.58-.793 1.137-.728.538.064 1.033.281.929.944-.08.503-.535.6-.918.623h.004ZM181.552 361.888c-.15.445-.421.713-.919.642-.403-.056-.603-.379-.556-.709.064-.46.41-.699.905-.638.408.052.517.36.57.705Z"/></g><path fill="#171719" d="M182.969 412.328v5.469h1.843v1.25h-1.843v7.281h-1.485v-14h1.485ZM175 416.297c0 1.57.188 3.719 1.281 5.234 1.039-1.484 1.25-3.609 1.266-5.234v-1.406h-1v-1.203h3.906v1.203h-1.5v1.406c0 2.156.406 4.719 2.156 6l-.953 1.078c-1-.773-1.586-2-1.922-3.391-.32 1.422-.914 2.719-1.968 3.516-1.039-.789-1.633-2.094-1.954-3.5-.351 1.375-.937 2.609-1.921 3.375l-.953-1.078c1.734-1.297 2.156-3.906 2.156-6v-1.406h-1.672v-1.203h4.062v1.203H175v1.406Zm23.281 2.625v1.203h-12.765v-1.203h12.765Zm-6.39 2.281c3.015 0 4.828.938 4.828 2.563 0 1.625-1.813 2.546-4.828 2.531-3.032.015-4.86-.906-4.86-2.531s1.828-2.563 4.86-2.563Zm0 1.156c-2.141.016-3.36.5-3.36 1.407 0 .89 1.219 1.359 3.36 1.359 2.109 0 3.343-.469 3.343-1.359 0-.907-1.234-1.391-3.343-1.407Zm5.25-9.343v1.218h-4.25c.164 1.36 2.148 2.516 4.734 2.782l-.531 1.172c-2.422-.282-4.43-1.305-5.188-2.782-.781 1.477-2.781 2.5-5.203 2.782l-.515-1.172c2.539-.266 4.539-1.414 4.718-2.782h-4.218v-1.218h10.453Z"/><g clip-path="url(#g)"><path fill="#D4DFCD" d="M320.975 365.68c.283 3.31-1.85 5.396-4.313 7.325-5.15 4.036-10.041 8.325-13.669 13.878-1.516 2.32-3.508 4.127-6.356 4.736-3.37.721-6.087-.528-8.216-3.005-2.812-3.264-5.103-6.954-8.327-9.903a108.305 108.305 0 0 0-8.038-6.701c-3.882-2.919-3.923-9.391-.932-12.096 2.691-2.437 5.57-4.645 8.281-7.056 3.543-3.142 6.036-7.163 9.163-10.64 3.867-4.294 9.007-4.289 12.798-.03 3.294 3.7 5.975 7.934 9.771 11.203 2.468 2.127 5.139 4.015 7.445 6.33 1.921 1.934 2.388 3.035 2.383 5.954l.01.005Z"/><path fill="#fff" d="M278.802 364.193c.248-1.396.537-3.106.872-4.807.101-.518.243-1.147 1.008-.99.522.107.73.569.674 1.046-.228 1.873.492 3.604.73 5.406.289 2.167-.197 3.32-1.363 3.36-1.146.041-1.886-1.167-1.921-3.147v-.873.005Z"/><path fill="#000" d="M278.868 384.162c.73-2.03-.243-3.695-.218-5.411.01-.543-.162-1.086-.213-1.629-.056-.584.051-1.168.73-1.254.527-.066.77.401.882.868.126.533.258 1.066.324 1.609.254 1.995.517 3.98 1.267 5.873.254.635.684 1.457-.385 1.823-.867.294-2.21-.508-2.377-1.366-.051-.259-.01-.533-.01-.518v.005ZM310.874 379.366c0-1.285-.016-2.574.01-3.858.01-.412.329-.691.709-.711.38-.02.72.244.761.645.096 1.005.126 2.015.187 3.025.081 1.35-.192 2.777 1.135 3.787.472.36.467.995.087 1.497-.512.681-1.237.747-1.992.533-.664-.188-1.242-.609-1.136-1.35a24.07 24.07 0 0 0 .239-3.574v.006ZM290.844 392.68c.02 1.061-.081 1.802-.907 2.112-.801.299-1.647.304-2.382-.173-.654-.421-.816-1.319-.249-1.629 1.744-.944 1.44-2.33 1.136-3.792a1.509 1.509 0 0 1-.015-.548c.065-.381.248-.726.648-.797.401-.071.695.167.831.548.543 1.477.725 3.025.938 4.279ZM302.1 387.005c.38.127.643.381.674.777.04.639.046 1.289.04 1.929-.01 1.03-.03 2.025 1.136 2.573.537.254.745.807.461 1.401-.269.564-.826.706-1.379.767-.648.071-1.505.132-1.662-.594-.471-2.163-.532-4.361.051-6.528.081-.294.405-.325.684-.33l-.005.005ZM299.678 376.035c-.223.655-.735.924-1.242.457-1.388-1.274-2.691-1.421-4.115-.076-.254.239-.74.163-.948-.213a1.063 1.063 0 0 1-.071-.767c.365-1.137 1.642-1.857 3.107-1.802 1.515.056 3.026 1.036 3.249 2.112.02.086.01.183.02.294v-.005ZM302.967 363.706c-.78-.148-1.951-.336-3.107-.599-.476-.112-.775-.488-.643-1.031.101-.416.451-.563.831-.558 1.819.025 3.614.492 5.453.274.173-.02.451.284.568.502.213.391-.041.711-.34.924-.709.508-1.53.559-2.762.493v-.005ZM294.204 369.868c-.116 1.315-1.404 2.335-2.671 2.122-1.287-.213-2.716-1.797-2.468-2.843.167-.706.811-.853 1.227-.36.881 1.04 1.581 1.66 2.747.264.456-.544 1.231.03 1.16.812l.005.005ZM301.057 371.396c-1.055-.158-2.007-.422-2.393-1.548-.157-.457-.126-.924.254-1.259.314-.274.704-.203.973.081.654.7 1.348.832 2.189.34.441-.259.928-.183 1.181.274.325.589-.066 1.041-.476 1.416-.492.452-1.11.604-1.728.691v.005ZM288.629 364.381c-.714-.041-1.383 0-1.444-.731-.061-.696.557-.828 1.1-.98 1.059-.294 2.108-.64 3.172-.919.477-.127.928-.015 1.08.549.106.406-.107.72-.431.923-1.115.696-2.352 1.011-3.477 1.158Z"/></g><path fill="#171719" d="M293.734 413.875v1.219h-11.39v-1.219h4.984v-1.609h1.469v1.609h4.937Zm.766 7.516v1.218h-5.703v3.735h-1.469v-3.735h-5.64v-1.218H294.5Zm-6.438-5.579c2.907 0 4.657.829 4.657 2.36 0 1.5-1.75 2.328-4.657 2.344-2.921-.016-4.671-.844-4.656-2.344-.015-1.531 1.735-2.36 4.656-2.36Zm0 1.11c-2.015 0-3.124.437-3.124 1.25 0 .781 1.109 1.219 3.124 1.219 2 0 3.11-.438 3.126-1.219-.016-.813-1.126-1.25-3.126-1.25Zm19.032-4.594v14h-1.485v-14h1.485Zm-11.5 10.188c1.148-.008 2.468-.016 3.844-.063v-1.391c-1.641-.21-2.704-1.171-2.688-2.546-.016-1.578 1.359-2.625 3.391-2.625 2.047 0 3.453 1.047 3.453 2.625 0 1.359-1.063 2.312-2.688 2.531v1.359a46.453 46.453 0 0 0 3.844-.312l.109 1.109c-3.109.516-6.5.547-9.062.547l-.203-1.234Zm8.844-8.516v1.188h-8.547V414h3.547v-1.641h1.484V414h3.516Zm-4.297 3.047c-1.172 0-2 .578-1.985 1.469-.015.89.813 1.437 1.985 1.437 1.203 0 2.031-.547 2.031-1.437 0-.891-.828-1.469-2.031-1.469Z"/><path fill="#81A2BB" d="M100.978 487.715c-.109 1.677-.554 3.202-.849 4.213-1.78 6.06-5.593 10.418-10.72 13.625-5.088 3.182-10.656 4.554-16.608 4.441-9.501-.181-18.592-6.633-22.17-15.719-1.59-4.038-2.584-8.195-2.63-12.532-.084-8.437 3.034-19.298 12.92-24.187 9.226-4.564 19.856 1.372 21.266 11.8.105.773-.07 1.212-.865 1.418-3.219.835-6.282 2.119-9.28 3.579-.616.299-1.255.552-1.74 1.078-.31.335-.44.727-.265 1.155.185.454.59.521 1.025.526.48.01.88-.217 1.279-.423 3.993-2.068 8.186-3.605 12.56-4.476 7.891-1.573 13.878 3.047 15.583 10.365.125.532.625 3.126.494 5.137Z"/><path fill="#000" d="M94.49 498.94c-.316 1.377-1.384 1.866-2.519 2.277-1.09.395-1.979.104-2.459-.96-.447-.988-.643-2.091-1.145-3.046-.85-1.63-2.039-1.636-2.999-.033-.354.593-.474 1.471-1.395.916-.688-.411-.6-1.179-.366-1.876.654-1.938 2.721-2.799 4.553-1.899.725.356 1.341.878 1.723 1.575.66 1.207 1.38 2.063 2.983 1.707.856-.193 1.455.439 1.624 1.333v.006ZM96.159 490.757c.932-.011 1.826.263 2.4.977.975 1.212 1.733 2.486 3.652 2.486.824 0 .987 1.147.562 1.959-.507.966-1.391 1.383-2.448 1.394-1.075.011-1.56-.692-1.827-1.63-.136-.478-.234-.971-.425-1.427-.862-2.036-1.865-2.267-3.446-.746-.442.428-.807.998-1.429.537-.561-.422-.365-1.092-.103-1.635.61-1.279 1.619-1.97 3.07-1.91l-.006-.005ZM69.683 486.07s-.408-.098-.588-.472c-.251-.537.022-.993.523-1.196 1.505-.615 2.737-1.586 3.74-2.832.906-1.119 2.143-2.052 1.685-3.869-.212-.862.551-1.427 1.385-1.652.638-.17 1.178.121 1.582.576.518.582.594 1.29.125 1.91-1.718 2.289-3.244 4.758-5.627 6.454-.725.516-1.478.994-2.83 1.07l.005.011ZM75.401 469.194c-.043.61-.327 1.049-.698.961-1.51-.362-2.399.4-3.179 1.52-.245.351-.703.395-1.03.115-.191-.164-.322-.51-.322-.774 0-2.036 2.852-3.655 4.575-2.59.305.187.49.571.654.768ZM67.277 462.339c.06.796-1.15 2.475-1.985 2.689-.61.159-.949-.214-.96-.768-.016-.823 1.407-2.519 2.149-2.585.414-.038.741.187.796.664ZM73.187 460.863c.044.812-.3 1.153-.834 1.136-.594-.016-1.156-.296-1.341-.922-.164-.56.169-.944.709-1.048.817-.159 1.21.368 1.46.834h.006ZM70.134 466.51c.022.351-.136.681-.578.719-.425.033-.72-.258-.709-.658 0-.209.251-.516.464-.604.403-.17.708.027.828.543h-.005ZM72.004 465.309c.06-.39.197-.758.703-.67.3.049.53.274.502.593-.032.4-.169.796-.692.702-.3-.049-.47-.296-.518-.625h.005Z"/><path fill="#171719" d="M59.336 529.219c2.219 0 3.797 1.359 3.812 3.328-.015 1.742-1.25 3.008-3.078 3.265v2.219a39.736 39.736 0 0 0 3.922-.359l.11 1.078c-3.172.594-6.563.609-9.063.609l-.187-1.218c1.101 0 2.382 0 3.734-.047v-2.282c-1.813-.265-3.078-1.531-3.063-3.265-.015-1.969 1.61-3.328 3.813-3.328Zm0 1.281c-1.36 0-2.36.797-2.344 2.047-.015 1.234.985 2.062 2.344 2.047 1.36.015 2.36-.813 2.36-2.047 0-1.25-1-2.047-2.36-2.047Zm7.016-2.172v14.031h-1.485v-14.031h1.485Zm15.062 11.078v1.25H68.602v-1.25h5.64v-2.453h-4.078V532.5h8.219v-1.969h-8.25v-1.219h9.719v4.376h-8.22v2.046h8.548v1.219h-4.47v2.453h5.704Zm7.39-10.844c3.079 0 5 .985 5 2.672 0 1.641-1.921 2.625-5 2.625-3.062 0-5-.984-5-2.625 0-1.687 1.938-2.672 5-2.672Zm0 1.157c-2.156 0-3.484.547-3.468 1.515-.016.938 1.312 1.469 3.469 1.469 2.14 0 3.468-.531 3.468-1.469 0-.968-1.328-1.515-3.468-1.515Zm4.829 7.765v4.672H83.96v-4.672h4.11v-1.468H82.43v-1.204h12.765v1.204H89.54v1.468h4.094Zm-8.203 1.188v2.281h6.765v-2.281H85.43Z"/><g clip-path="url(#h)"><path fill="#E7DDF2" d="M191.86 496.268c-2.223 0-4.089-.038-5.955.009-5.87.145-11.736.485-17.611.546-1.56.014-3.116.41-4.676-.014-5.513-1.511-6.985-4.719-6.547-9.48.357-3.885 2.345-6.907 5.733-8.935 2.35-1.404 4.893-1.763 7.45-.727 3.619 1.464 6.138.135 8.403-3.153 2.524-3.651 5.969-5.591 10.134-6.374 2.777-.523 5.39.475 7.773 1.898 5.288 3.161 7.873 8.099 9.17 13.877.404 1.805.371 3.637.202 5.428-.287 3.101-2.684 4.64-5.118 6.025-.964.55-2.054.755-3.201.657-2.044-.168-4.061.481-5.753.243h-.004Z"/><path fill="#fff" d="M190.981 483.435c-3.347-.135-6.505-1.185-9.104-3.614-.879-.821-1.565-1.791-1.669-3.04-.037-.457.141-.863.64-.938.347-.051.667.154.78.513.728 2.327 2.585 3.493 4.662 4.37 2.233.942 4.55 1.296 6.975.727 2.641-.615 4.78-1.749 5.457-4.63.136-.588.376-1.231 1.184-.933.696.256.686.895.54 1.506-.507 2.094-1.757 3.628-3.647 4.645-1.753.942-3.661 1.315-5.814 1.399l-.004-.005Z"/><path fill="#000" d="M213 490.164c-.042.83-.771 1.11-1.537 1.278-.794.177-1.814.135-1.861-.788-.15-3.027-2.336-4.542-4.338-6.226-.132-.107-.273-.205-.395-.321-.32-.299-.63-.644-.357-1.087.348-.564.865-.452 1.325-.149 1.57 1.035 2.957 2.271 4.122 3.749.663.839 1.025 1.954 2.322 2.192.522.098.728.662.714 1.352H213ZM180.363 486.424c.79.149 1.246.685 1.786 1.082 1.561 1.151 2.712 2.826 4.663 3.492.625.215.921.751.761 1.427-.169.718-.62 1.194-1.372 1.329-.639.112-1.377-.004-1.546-.597-.701-2.49-2.91-3.646-4.55-5.302-.31-.317-.55-.69-.315-1.114.099-.177.414-.229.573-.313v-.004ZM167.721 479c.456-.018.733.159.827.513.178.686-.531 1.693-1.156 1.646-.395-.028-.602-.335-.625-.671-.047-.737.249-1.292.954-1.488ZM163.42 482.862c-.348.028-.634-.108-.663-.509-.023-.368.188-.657.569-.634.193.009.456.219.531.406.151.35-.019.629-.442.741l.005-.004ZM164.976 479.56c-.028.373-.216.653-.597.658-.381 0-.592-.28-.588-.653 0-.275.193-.471.461-.513.385-.061.635.126.719.508h.005Z"/></g><path fill="#171719" d="M177.57 536.359v1.203h-5.718v4.75h-1.454v-4.75h-5.64v-1.203h12.812Zm-1.609-7.281v5.5h-9.594v-5.5h9.594Zm-8.141 1.188v3.156h6.657v-3.156h-6.657Zm22.422-1.938v14h-1.5v-14h1.5Zm-4.172 1.5c0 4.094-1.75 7.656-6.547 9.953l-.781-1.203c3.727-1.773 5.539-4.297 5.828-7.562h-5.156v-1.188h6.656Zm13.032-.656v4.078h-4.625v1.938c2.437.007 3.765-.047 5.343-.344l.141 1.203c-1.703.297-3.141.344-5.938.344h-1.015v-4.266h4.609v-1.766h-4.625v-1.187h6.11Zm5-.828v8.609h-1.485v-2.469h-2.625v-1.187h2.625v-1.735h-2.625v-1.187h2.625v-2.031h1.485Zm0 9.312v4.688h-1.485v-3.485h-8.015v-1.203h9.5Z"/><defs><clipPath id="a"><path fill="#fff" d="M157 107h56v56h-56z"/></clipPath><clipPath id="b"><path fill="#fff" d="M267 107h56v56h-56z"/></clipPath><clipPath id="c"><path fill="#fff" d="M157 223h56v56h-56z"/></clipPath><clipPath id="d"><path fill="#fff" d="M267 223h56v56h-56z"/></clipPath><clipPath id="e"><path fill="#fff" d="M47 339h56v56H47z"/></clipPath><clipPath id="f"><path fill="#fff" d="M157 339h56v56h-56z"/></clipPath><clipPath id="g"><path fill="#fff" d="M267 339h56v56h-56z"/></clipPath><clipPath id="h"><path fill="#fff" d="M157 455h56v56h-56z"/></clipPath></defs></svg>