<svg width="280" height="62" viewBox="0 0 280 62" fill="none" xmlns="http://www.w3.org/2000/svg">
<path d="M16 0.5H264C272.56 0.5 279.5 7.43959 279.5 16V61.5H16C7.43959 61.5 0.5 54.5604 0.5 46V16C0.5 7.43959 7.43959 0.5 16 0.5Z" fill="white"/>
<path d="M16 0.5H264C272.56 0.5 279.5 7.43959 279.5 16V61.5H16C7.43959 61.5 0.5 54.5604 0.5 46V16C0.5 7.43959 7.43959 0.5 16 0.5Z" stroke="black"/>
<path d="M21.8945 18.7246V19.791H19.9941V26.1484H18.6953V13.9121H19.9941V18.7246H21.8945ZM12.2012 15.1016V21.9922C13.9102 21.9922 15.6943 21.8486 17.6426 21.4453L17.793 22.5391C15.7012 22.9629 13.7598 23.0723 11.9277 23.0723H10.916V15.1016H12.2012ZM30.9869 14.6504C33.6119 14.6641 35.5123 15.9492 35.5123 17.9043C35.5123 19.7432 33.9195 20.9531 31.6295 21.1445V23.5508H36.6197V24.6309H25.4087V23.5508H30.3443V21.1445C28.0679 20.9531 26.4752 19.7432 26.4752 17.9043C26.4752 15.9492 28.3755 14.6641 30.9869 14.6504ZM30.9869 15.7168C29.1002 15.7031 27.733 16.5781 27.733 17.9043C27.733 19.2852 29.1002 20.1328 30.9869 20.1465C32.8873 20.1328 34.2545 19.2852 34.2545 17.9043C34.2545 16.5781 32.8873 15.7031 30.9869 15.7168ZM47.1131 16.7012V17.7539H38.7049V14.0898H39.9764V16.7012H47.1131ZM48.4256 18.834V19.873H37.2147V18.834H48.4256ZM47.0174 20.8574V23.8516H39.908V24.9863H47.4412V26.0117H38.6092V22.8945H45.7323V21.8691H38.5819V20.8574H47.0174ZM56.684 17.0293C56.6703 19.2715 58.0238 21.5137 59.9242 22.3613L59.1449 23.3867C57.7367 22.7168 56.6225 21.3428 56.0551 19.668C55.4809 21.459 54.3529 22.9424 52.8832 23.6602L52.0902 22.5664C54.018 21.7051 55.3715 19.3672 55.3715 17.0293V14.9375H56.684V17.0293ZM62.3305 13.9121V26.1895H61.0316V13.9121H62.3305ZM74.2184 13.9121V21.3359H72.9196V18.6699H71.0055V17.5898H72.9196V13.9121H74.2184ZM74.2184 21.9375V26.0117H66.1384V21.9375H74.2184ZM67.4235 22.9629V24.959H72.947V22.9629H67.4235ZM71.197 15.1289V16.168H64.0192V15.1289H66.9723V13.8027H68.2575V15.1289H71.197ZM67.6149 16.7285C69.2966 16.7285 70.486 17.6309 70.486 18.916C70.486 20.2422 69.2966 21.1035 67.6149 21.1172C65.9333 21.1035 64.7302 20.2422 64.7302 18.916C64.7302 17.6309 65.9333 16.7285 67.6149 16.7285ZM67.6149 17.7266C66.6305 17.7129 65.9743 18.1914 65.9743 18.916C65.9743 19.668 66.6305 20.1328 67.6149 20.1328C68.5856 20.1328 69.2419 19.668 69.2419 18.916C69.2419 18.1914 68.5856 17.7129 67.6149 17.7266ZM82.3811 14.5957V15.6348H80.5217V18.7246C81.1301 18.7041 81.7932 18.6426 82.5315 18.4785L82.6409 19.5176C81.5198 19.7363 80.6584 19.75 79.8108 19.75H79.2639V14.5957H82.3811ZM86.469 14.5957V15.6348H84.3362V18.7246C85.3342 18.7178 86.052 18.6562 86.8928 18.4648L87.0022 19.4902C85.9495 19.7363 85.1018 19.75 83.6799 19.75H83.051V14.5957H86.469ZM89.2854 20.7754V23.8242H82.2717V24.9727H89.7229V26.0117H80.9592V22.8535H88.0139V21.8008H80.9319V20.7754H89.2854ZM89.2854 13.9121V20.2148H88.0139V17.5352H85.8674V16.5234H88.0139V13.9121H89.2854ZM94.105 14.8281C95.7661 14.8281 96.9829 16.2363 97.1812 18.5059H99.7105V13.9121H100.996V26.1895H99.7105V19.5586H97.1948C97.0513 21.9443 95.8072 23.4277 94.105 23.4277C92.273 23.4277 90.9878 21.7598 91.0015 19.1211C90.9878 16.4961 92.273 14.8281 94.105 14.8281ZM94.105 15.9902C92.9976 15.9902 92.232 17.1934 92.232 19.1211C92.232 21.0625 92.9976 22.2656 94.105 22.2656C95.2124 22.2656 95.9781 21.0625 95.9781 19.1211C95.9781 17.1934 95.2124 15.9902 94.105 15.9902ZM112.815 13.9121V21.0488H111.516V19.2852H109.384V18.2324H111.516V17.2344H109.384V16.168H111.516V13.9121H112.815ZM107.005 16.209C107.005 17.7812 108.098 19.2578 109.944 19.873L109.274 20.8848C107.907 20.4062 106.895 19.4561 106.362 18.2598C105.829 19.5859 104.762 20.6318 103.3 21.1445L102.63 20.1191C104.544 19.4766 105.679 17.918 105.692 16.2227V15.7715H103.04V14.7051H109.602V15.7715H107.005V16.209ZM106.95 21.9922C106.95 23.0518 107.47 24.166 108.591 24.8496C109.712 24.1113 110.245 22.9219 110.245 21.9922V21.4316H111.516V21.9922C111.516 23.2637 112.35 24.5078 113.977 25.0273L113.307 25.998C112.104 25.5674 111.284 24.7471 110.86 23.7285C110.477 24.7266 109.739 25.6357 108.604 26.1074C107.442 25.6631 106.704 24.7949 106.321 23.7832C105.877 24.7539 105.07 25.5674 103.915 25.998L103.286 25.0273C104.845 24.4805 105.692 23.1816 105.706 21.9922V21.4316H106.95V21.9922ZM117.744 14.8281C119.405 14.8281 120.622 16.2363 120.82 18.5059H123.35V13.9121H124.635V26.1895H123.35V19.5586H120.834C120.691 21.9443 119.446 23.4277 117.744 23.4277C115.912 23.4277 114.627 21.7598 114.641 19.1211C114.627 16.4961 115.912 14.8281 117.744 14.8281ZM117.744 15.9902C116.637 15.9902 115.871 17.1934 115.871 19.1211C115.871 21.0625 116.637 22.2656 117.744 22.2656C118.852 22.2656 119.617 21.0625 119.617 19.1211C119.617 17.1934 118.852 15.9902 117.744 15.9902ZM137.398 18V19.0664H134.499V24.2617H133.201V19.0664H130.411V24.2617H129.099V19.0664H126.269V18H137.398ZM149.217 18V19.0664H146.319V24.2617H145.02V19.0664H142.231V24.2617H140.919V19.0664H138.089V18H149.217ZM16.6992 36.1562C16.6855 39.7656 15.5098 42.9785 11.1621 45.1934L10.4375 44.209C12.584 43.1084 13.9102 41.7891 14.6484 40.2305L10.6836 40.6133L10.4785 39.4922L15.0586 39.2051C15.2432 38.5762 15.3594 37.9062 15.4141 37.209H11.1074V36.1562H16.6992ZM20.6504 34.9121V47.1621H19.3652V40.832H16.6719V39.7656H19.3652V34.9121H20.6504ZM32.2102 41.4336V42.4727H23.679V35.9238H32.0872V36.9766H24.9915V38.6309H31.8274V39.6562H24.9915V41.4336H32.2102ZM33.4817 44.5508V45.6172H22.2708V44.5508H33.4817ZM43.6334 34.9121V39.6973H45.6021V40.791H43.6334V47.1895H42.3482V34.9121H43.6334ZM40.1744 36.0195V40.5176H35.8814V43.1699C37.9869 43.1631 39.5455 43.0879 41.3365 42.7598L41.4595 43.8125C39.5455 44.168 37.8912 44.25 35.5943 44.2637H34.5963V39.4648H38.8892V37.0723H34.5689V36.0195H40.1744ZM56.0682 34.9258V43.8262H54.7694V34.9258H56.0682ZM56.4373 45.8496V46.9023H48.0565V42.9238H49.369V45.8496H56.4373ZM49.4237 35.7461C51.2694 35.7461 52.6776 37.0039 52.6776 38.7812C52.6776 40.5859 51.2694 41.8301 49.4237 41.8301C47.578 41.8301 46.1561 40.5859 46.1561 38.7812C46.1561 37.0039 47.578 35.7461 49.4237 35.7461ZM49.4237 36.8809C48.2752 36.8809 47.4276 37.6602 47.4276 38.7812C47.4276 39.9297 48.2752 40.6953 49.4237 40.6953C50.5448 40.6953 51.4061 39.9297 51.4061 38.7812C51.4061 37.6602 50.5448 36.8809 49.4237 36.8809ZM61.2914 46V44.9062L64.723 41.4473C65.8031 40.3125 66.35 39.6836 66.35 38.8223C66.35 37.8516 65.557 37.2227 64.518 37.2227C63.4242 37.2227 62.7133 37.9199 62.7133 38.9727H61.2914C61.2777 37.168 62.6586 35.9648 64.5453 35.9648C66.4594 35.9648 67.7719 37.168 67.7855 38.7812C67.7719 39.8887 67.2523 40.7637 65.393 42.5957L63.3832 44.6328V44.7148H67.9496V46H61.2914ZM79.1266 34.9121V42.0488H77.8278V38.9727H75.5309V37.8926H77.8278V34.9121H79.1266ZM79.1266 42.623V47.0117H71.0466V42.623H79.1266ZM72.3317 43.6484V45.959H77.8552V43.6484H72.3317ZM73.3024 37.0039C73.3024 38.5352 74.4098 40.0527 76.2555 40.6953L75.5856 41.7207C74.2116 41.2354 73.193 40.251 72.6598 39.041C72.1266 40.3877 71.0534 41.4678 69.5973 41.9805L68.9274 40.9551C70.8141 40.3125 71.9762 38.6855 71.9762 37.0039V36.7168H69.3239V35.6504H75.9274V36.7168H73.3024V37.0039ZM95.0823 44.5508V45.6309H83.8713V44.5508H88.8069V41.7207H85.1565V35.8965H93.7424V41.7207H90.092V44.5508H95.0823ZM86.4143 36.9355V40.6953H92.4709V36.9355H86.4143ZM99.9566 38.5215C99.9566 40.4629 101.228 42.623 103.087 43.498L102.349 44.5098C100.975 43.8467 99.8882 42.4658 99.3413 40.8594C98.7739 42.6162 97.6255 44.127 96.2241 44.8242L95.4585 43.7988C97.3179 42.9102 98.6714 40.5996 98.6714 38.5215V37.2227H95.9097V36.1426H102.623V37.2227H99.9566V38.5215ZM105.234 34.9121V39.7656H107.203V40.8594H105.234V47.1621H103.935V34.9121H105.234ZM118.721 44.5918V45.6582H107.511V44.5918H118.721ZM117.354 35.8145V39.6426H110.163V41.4336H117.641V42.4727H108.878V38.5898H116.069V36.8672H108.85V35.8145H117.354ZM129.857 34.9121V47.1621H128.627V34.9121H129.857ZM127.274 35.2266V46.5605H126.043V40.873H123.65C122.919 42.2949 121.757 43.5391 120.027 44.5508L119.289 43.6211C121.887 42.0762 123.138 40.0186 123.363 37.4961H119.863V36.4297H124.649C124.642 37.626 124.478 38.7676 124.102 39.834H126.043V35.2266H127.274ZM132.544 46.0957C132.011 46.0957 131.56 45.6582 131.574 45.125C131.56 44.5918 132.011 44.1543 132.544 44.1543C133.064 44.1543 133.515 44.5918 133.515 45.125C133.515 45.6582 133.064 46.0957 132.544 46.0957ZM135.956 46.0957C135.423 46.0957 134.971 45.6582 134.985 45.125C134.971 44.5918 135.423 44.1543 135.956 44.1543C136.475 44.1543 136.926 44.5918 136.926 45.125C136.926 45.6582 136.475 46.0957 135.956 46.0957ZM139.367 46.0957C138.834 46.0957 138.383 45.6582 138.396 45.125C138.383 44.5918 138.834 44.1543 139.367 44.1543C139.887 44.1543 140.338 44.5918 140.338 45.125C140.338 45.6582 139.887 46.0957 139.367 46.0957Z" fill="#292A2D"/>
</svg>
