<svg width="68" height="68" viewBox="0 0 68 68" fill="none" xmlns="http://www.w3.org/2000/svg">
<g id="ver.default" clip-path="url(#clip0_1096_7253)">
<path id="Vector" d="M33.9996 67.8175C47.1108 67.8175 57.7395 65.3437 57.7395 62.2921C57.7395 59.2404 47.1108 56.7666 33.9996 56.7666C20.8885 56.7666 10.2598 59.2404 10.2598 62.2921C10.2598 65.3437 20.8885 67.8175 33.9996 67.8175Z" fill="#5843A8"/>
<path id="Vector_2" d="M34 63.541C51.6731 63.541 66 49.3169 66 31.7705C66 14.2241 51.6731 0 34 0C16.3269 0 2 14.2241 2 31.7705C2 49.3169 16.3269 63.541 34 63.541Z" fill="url(#paint0_radial_1096_7253)"/>
<path id="Vector_3" d="M33.9999 41.6171C47.849 41.6171 59.0759 30.3875 59.0759 16.5351C59.0759 2.6827 47.849 -8.54688 33.9999 -8.54688C20.1507 -8.54688 8.92383 2.6827 8.92383 16.5351C8.92383 30.3875 20.1507 41.6171 33.9999 41.6171Z" fill="url(#paint1_radial_1096_7253)"/>
<path id="Vector_4" d="M33.9993 37.816C39.1669 37.816 43.356 35.7364 43.356 33.1712C43.356 30.6059 39.1669 28.5264 33.9993 28.5264C28.8317 28.5264 24.6426 30.6059 24.6426 33.1712C24.6426 35.7364 28.8317 37.816 33.9993 37.816Z" fill="url(#paint2_radial_1096_7253)"/>
<g id="Group">
<path id="Vector_5" d="M23.0935 54.8902C22.9288 54.8902 22.7604 54.8457 22.6069 54.7565C18.0296 51.9919 16.278 46.7488 16.2069 46.5259C16.0497 46.0391 16.3192 45.5152 16.8095 45.3554C17.2998 45.1993 17.8275 45.4631 17.9884 45.9536C18.0034 46.0019 19.609 50.7694 23.58 53.1698C24.0217 53.4374 24.1601 54.0059 23.8944 54.4443C23.7185 54.7305 23.4116 54.8902 23.0935 54.8902Z" fill="#30216B"/>
<path id="Vector_6" d="M22.2745 55.3329C23.0642 55.7453 24.0448 55.4481 24.4602 54.6603C24.8756 53.8763 24.5762 52.9027 23.7828 52.4902C22.9931 52.0778 22.0125 52.375 21.5971 53.1628C21.1816 53.9469 21.481 54.9204 22.2745 55.3329Z" fill="#30216B"/>
</g>
<g id="Group_2">
<path id="Vector_7" d="M44.9062 54.8909C44.5918 54.8909 44.2812 54.7311 44.1053 54.445C43.8358 54.0065 43.978 53.4343 44.4196 53.1705C48.3906 50.77 49.9963 46.0026 50.0112 45.9543C50.1722 45.4675 50.6999 45.2 51.1902 45.3597C51.6805 45.5195 51.9499 46.0397 51.7927 46.5265C51.7216 46.7495 49.9701 51.9925 45.3927 54.7571C45.2393 54.85 45.0746 54.8909 44.9062 54.8909Z" fill="#30216B"/>
<path id="Vector_8" d="M44.2132 52.4905C43.4235 52.903 43.1203 53.8765 43.5358 54.6606C43.9512 55.4446 44.9318 55.7456 45.7215 55.3331C46.5112 54.9207 46.8144 53.9471 46.3989 53.1631C45.9835 52.379 45.0029 52.078 44.2132 52.4905Z" fill="#30216B"/>
</g>
<g id="Group_3">
<path id="Vector_9" d="M26.7608 31.2316C26.6486 29.6301 27.6104 28.7569 29.0027 28.6305C30.0207 28.5376 31.0612 29.0616 31.1398 30.377C31.2334 31.9451 30.2715 32.8406 28.883 32.9929C27.8238 33.1081 26.8956 32.4913 26.7608 31.2316Z" fill="#30216B"/>
<path id="Vector_10" d="M41.2368 31.2316C41.3491 29.6301 40.3872 28.7569 38.9949 28.6305C37.9769 28.5376 36.9364 29.0616 36.8578 30.377C36.7643 31.9451 37.7261 32.8406 39.1147 32.9929C40.1739 33.1081 41.102 32.4913 41.2368 31.2316Z" fill="#30216B"/>
</g>
<path id="Vector_11" d="M27.6216 26.1225C27.3933 26.1225 27.1613 26.1077 26.933 26.0817C22.9283 25.6246 20.7388 21.2994 20.6453 21.1136C20.417 20.6528 20.6078 20.0954 21.0719 19.8688C21.536 19.6421 22.0937 19.8316 22.3257 20.2924C22.3594 20.3593 24.1784 23.9005 27.1575 24.2386C28.8605 24.4318 30.6906 23.5475 32.6032 21.6115C32.5208 21.5112 32.4422 21.4071 32.3674 21.3031C29.6502 17.617 30.9639 15.8296 31.6563 15.2314C32.824 14.2244 34.8001 14.3284 35.9753 15.4618C36.5255 15.9931 38.1049 18.0034 35.2118 21.5037C35.1894 21.5335 35.1632 21.5632 35.1407 21.5929C37.2591 23.4806 39.9501 24.0565 41.9599 23.7184C43.0415 23.5363 44.9615 22.912 45.6277 20.7569C45.7812 20.2664 46.3051 19.9914 46.7954 20.14C47.2895 20.2924 47.5664 20.8089 47.413 21.2994C46.7094 23.5698 44.8343 25.1155 42.2668 25.5466C39.3625 26.0334 36.2149 25.0189 33.8906 22.9641C31.7947 25.0635 29.6951 26.1225 27.6254 26.1225H27.6216ZM33.6212 16.3907C33.3367 16.3907 33.071 16.4688 32.8801 16.6323C32.4198 17.0299 32.4011 18.2004 33.8644 20.192C35.0471 18.7131 35.3466 17.4497 34.6654 16.792C34.3922 16.5282 33.9917 16.3907 33.6174 16.3907H33.6212Z" fill="#30216B"/>
<path id="Vector_12" d="M33.9994 43.3897C31.6265 43.3897 29.6953 41.4723 29.6953 39.1165V37.4443C29.6953 37.0356 30.0322 36.7012 30.4439 36.7012H37.555C37.9667 36.7012 38.3035 37.0356 38.3035 37.4443V39.1165C38.3035 41.4723 36.3723 43.3897 33.9994 43.3897ZM31.1924 38.1875V39.1165C31.1924 40.6548 32.4499 41.9034 33.9994 41.9034C35.5489 41.9034 36.8064 40.6548 36.8064 39.1165V38.1875H31.1924Z" fill="#30216B"/>
<g id="Group_4">
<path id="Vector_13" d="M29.3215 30.607C29.6522 30.607 29.9203 30.3409 29.9203 30.0125C29.9203 29.6842 29.6522 29.418 29.3215 29.418C28.9908 29.418 28.7227 29.6842 28.7227 30.0125C28.7227 30.3409 28.9908 30.607 29.3215 30.607Z" fill="#F3F0FF"/>
<path id="Vector_14" d="M38.6789 30.607C39.0096 30.607 39.2777 30.3409 39.2777 30.0125C39.2777 29.6842 39.0096 29.418 38.6789 29.418C38.3482 29.418 38.0801 29.6842 38.0801 30.0125C38.0801 30.3409 38.3482 30.607 38.6789 30.607Z" fill="#F3F0FF"/>
</g>
</g>
<defs>
<radialGradient id="paint0_radial_1096_7253" cx="0" cy="0" r="1" gradientUnits="userSpaceOnUse" gradientTransform="translate(34.2882 40.6607) scale(30.196 27.2813)">
<stop stop-color="#ADA2D7"/>
<stop offset="0.37" stop-color="#B7ADDF"/>
<stop offset="1" stop-color="#D1CAF4"/>
</radialGradient>
<radialGradient id="paint1_radial_1096_7253" cx="0" cy="0" r="1" gradientUnits="userSpaceOnUse" gradientTransform="translate(34.093 17.3707) scale(19.8466 19.7042)">
<stop stop-color="white" stop-opacity="0.6"/>
<stop offset="0.42" stop-color="white" stop-opacity="0.33"/>
<stop offset="0.81" stop-color="white" stop-opacity="0.09"/>
<stop offset="1" stop-color="white" stop-opacity="0"/>
</radialGradient>
<radialGradient id="paint2_radial_1096_7253" cx="0" cy="0" r="1" gradientUnits="userSpaceOnUse" gradientTransform="translate(33.9993 33.1712) scale(7.39556 3.67126)">
<stop stop-color="white" stop-opacity="0.6"/>
<stop offset="0.09" stop-color="white" stop-opacity="0.51"/>
<stop offset="0.31" stop-color="white" stop-opacity="0.33"/>
<stop offset="0.51" stop-color="white" stop-opacity="0.19"/>
<stop offset="0.7" stop-color="white" stop-opacity="0.08"/>
<stop offset="0.87" stop-color="white" stop-opacity="0.02"/>
<stop offset="1" stop-color="white" stop-opacity="0"/>
</radialGradient>
<clipPath id="clip0_1096_7253">
<rect width="68" height="68" fill="white"/>
</clipPath>
</defs>
</svg>
