<svg width="68" height="68" viewBox="0 0 68 68" fill="none" xmlns="http://www.w3.org/2000/svg">
<g id="ver.writing" clip-path="url(#clip0_1096_7310)">
<path id="Vector" d="M33.9996 66.7882C47.1108 66.7882 57.7395 64.3144 57.7395 61.2628C57.7395 58.2111 47.1108 55.7373 33.9996 55.7373C20.8885 55.7373 10.2598 58.2111 10.2598 61.2628C10.2598 64.3144 20.8885 66.7882 33.9996 66.7882Z" fill="#5843A8"/>
<path id="Vector_2" d="M34 63.541C51.6731 63.541 66 49.3169 66 31.7705C66 14.2241 51.6731 0 34 0C16.3269 0 2 14.2241 2 31.7705C2 49.3169 16.3269 63.541 34 63.541Z" fill="url(#paint0_radial_1096_7310)"/>
<path id="Vector_3" d="M33.9999 41.6171C47.849 41.6171 59.0759 30.3875 59.0759 16.5351C59.0759 2.6827 47.849 -8.54688 33.9999 -8.54688C20.1507 -8.54688 8.92383 2.6827 8.92383 16.5351C8.92383 30.3875 20.1507 41.6171 33.9999 41.6171Z" fill="url(#paint1_radial_1096_7310)"/>
<g id="Group">
<path id="Vector_4" d="M26.7608 35.4045C26.6486 33.803 27.6104 32.9297 29.0027 32.8034C30.0207 32.7105 31.0612 33.2344 31.1398 34.5498C31.2334 36.1179 30.2715 37.0134 28.883 37.1658C27.8238 37.281 26.8956 36.6642 26.7608 35.4045Z" fill="#30216B"/>
<path id="Vector_5" d="M41.2368 35.4045C41.3491 33.803 40.3872 32.9297 38.9949 32.8034C37.9769 32.7105 36.9364 33.2344 36.8578 34.5498C36.7643 36.1179 37.7261 37.0134 39.1147 37.1658C40.1739 37.281 41.102 36.6642 41.2368 35.4045Z" fill="#30216B"/>
</g>
<path id="Vector_6" d="M27.6216 29.1802C27.3933 29.1802 27.1613 29.1653 26.933 29.1393C22.9283 28.6822 20.7388 24.357 20.6453 24.1712C20.417 23.7104 20.6078 23.153 21.0719 22.9264C21.536 22.6997 22.0937 22.8892 22.3257 23.35C22.3594 23.4169 24.1784 26.9581 27.1575 27.2962C28.8605 27.4894 30.6906 26.6051 32.6032 24.6691C32.5208 24.5688 32.4422 24.4647 32.3674 24.3607C29.6502 20.6746 30.9639 18.8873 31.6563 18.289C32.824 17.282 34.8001 17.3861 35.9753 18.5194C36.5255 19.0508 38.1049 21.061 35.2118 24.5614C35.1894 24.5911 35.1632 24.6208 35.1407 24.6505C37.2591 26.5382 39.9501 27.1141 41.9599 26.776C43.0415 26.5939 44.9615 25.9697 45.6277 23.8145C45.7812 23.324 46.3051 23.049 46.7954 23.1976C47.2895 23.35 47.5664 23.8665 47.413 24.357C46.7094 26.6274 44.8343 28.1732 42.2668 28.6042C39.3625 29.091 36.2149 28.0765 33.8906 26.0217C31.7947 28.1211 29.6951 29.1802 27.6254 29.1802H27.6216ZM33.6212 19.4483C33.3367 19.4483 33.071 19.5264 32.8801 19.6899C32.4198 20.0875 32.4011 21.258 33.8644 23.2497C35.0471 21.7708 35.3466 20.5074 34.6654 19.8497C34.3922 19.5858 33.9917 19.4483 33.6174 19.4483H33.6212Z" fill="#30216B"/>
<path id="Vector_7" d="M33.9993 41.9888C39.1669 41.9888 43.356 39.9093 43.356 37.344C43.356 34.7788 39.1669 32.6992 33.9993 32.6992C28.8317 32.6992 24.6426 34.7788 24.6426 37.344C24.6426 39.9093 28.8317 41.9888 33.9993 41.9888Z" fill="url(#paint2_radial_1096_7310)"/>
<g id="Group_2">
<path id="Vector_8" d="M29.3215 34.7799C29.6522 34.7799 29.9203 34.5137 29.9203 34.1854C29.9203 33.857 29.6522 33.5908 29.3215 33.5908C28.9908 33.5908 28.7227 33.857 28.7227 34.1854C28.7227 34.5137 28.9908 34.7799 29.3215 34.7799Z" fill="#F3F0FF"/>
<path id="Vector_9" d="M38.6789 34.7799C39.0096 34.7799 39.2777 34.5137 39.2777 34.1854C39.2777 33.857 39.0096 33.5908 38.6789 33.5908C38.3482 33.5908 38.0801 33.857 38.0801 34.1854C38.0801 34.5137 38.3482 34.7799 38.6789 34.7799Z" fill="#F3F0FF"/>
</g>
<g id="Group_3">
<path id="Vector_10" d="M25.587 50.714C21.0097 50.714 17.2595 48.3322 17.0836 48.2207C16.6494 47.942 16.5259 47.366 16.8066 46.935C17.0873 46.504 17.6674 46.3813 18.1016 46.66C18.1615 46.7009 22.4319 49.3838 27.0242 48.7595C27.5407 48.6889 28.0085 49.0456 28.0796 49.5547C28.1507 50.0638 27.7914 50.5319 27.2787 50.6025C26.706 50.6806 26.1409 50.714 25.587 50.714Z" fill="#30216B"/>
<path id="Vector_11" d="M27.3869 51.2565C28.2627 51.0819 28.8316 50.2384 28.6594 49.3652C28.4835 48.4957 27.6339 47.9309 26.7544 48.1018C25.8786 48.2764 25.3097 49.1199 25.4819 49.9931C25.6578 50.8627 26.5074 51.4275 27.3869 51.2565Z" fill="#30216B"/>
</g>
<g id="Group_4">
<path id="Vector_12" d="M44.2597 57.5774C43.9453 57.5774 43.6347 57.4176 43.4588 57.1315C43.1893 56.693 43.3315 56.1208 43.7732 55.857C47.7442 53.4565 49.3498 48.6891 49.3647 48.6408C49.5257 48.154 50.0534 47.8865 50.5437 48.0463C51.034 48.2061 51.3035 48.7263 51.1463 49.213C51.0752 49.436 49.3236 54.6791 44.7463 57.4436C44.5928 57.5365 44.4281 57.5774 44.2597 57.5774Z" fill="#30216B"/>
<path id="Vector_13" d="M43.5667 55.177C42.777 55.5895 42.4739 56.563 42.8893 57.3471C43.3047 58.1311 44.2853 58.4321 45.075 58.0196C45.8647 57.6072 46.1679 56.6336 45.7525 55.8496C45.337 55.0655 44.3564 54.7646 43.5667 55.177Z" fill="#30216B"/>
</g>
<g id="Group_5">
<path id="Vector_14" d="M42.607 54.251H25.3906L33.9988 59.4383L42.607 54.251Z" fill="#C1B8E5"/>
<path id="Vector_15" d="M46.3509 66.8849L42.6082 54.251L34 59.4383L46.3509 66.8849Z" fill="#C1B8E5"/>
<path id="Vector_16" d="M25.3911 54.251L21.6484 66.8849L33.9993 59.4383L25.3911 54.251Z" fill="#C1B8E5"/>
<path id="Vector_17" d="M33.9993 59.4385L21.6484 66.885H46.3502L33.9993 59.4385Z" fill="#E8E2FF"/>
</g>
<path id="Vector_18" d="M46.3501 67.8143H21.6484C21.3527 67.8143 21.0757 67.6768 20.8998 67.4427C20.7239 67.2086 20.6678 66.9039 20.7501 66.6252L24.4928 53.9913C24.6088 53.5974 24.9756 53.3262 25.3911 53.3262H42.6074C43.0229 53.3262 43.3897 53.5974 43.5057 53.9913L47.2484 66.6252C47.3307 66.9076 47.2783 67.2086 47.0987 67.4427C46.9227 67.6768 46.6458 67.8143 46.3501 67.8143ZM22.8984 65.9563H45.1001L41.9075 55.1804H26.0909L22.8984 65.9563Z" fill="#30216B"/>
<g id="Group_6">
<path id="Vector_19" d="M27.5426 46.1699L35.2498 55.2957L33.8876 56.4297L26.1803 47.304C25.8653 46.931 25.9144 46.3761 26.2901 46.0633C26.6658 45.7506 27.2247 45.7993 27.5397 46.1723L27.5426 46.1699Z" fill="#30216B"/>
<path id="Vector_20" d="M35.7075 56.889L35.2471 55.2949L33.8848 56.4283L35.3856 57.1566C35.5652 57.242 35.7636 57.0785 35.7075 56.889Z" fill="#30216B"/>
</g>
<path id="Vector_21" d="M34.0006 42.4609C32.0095 42.4609 31.0663 41.7214 30.3777 41.1826L30.3328 41.1492C29.9286 40.8333 29.8575 40.2462 30.1756 39.8449C30.4937 39.4436 31.0851 39.373 31.4893 39.6889L31.5342 39.7223C32.133 40.1905 32.6495 40.5955 33.9707 40.5992C35.4266 40.5063 35.8495 40.1868 36.381 39.7818L36.5269 39.674C36.9386 39.3656 37.5262 39.4473 37.8369 39.8598C38.1475 40.2685 38.0652 40.8519 37.6497 41.1603L37.515 41.2607C36.8525 41.7623 36.104 42.3308 34.0568 42.4572C34.038 42.4572 34.0193 42.4572 33.9969 42.4572L34.0006 42.4609Z" fill="#30216B"/>
<path id="Vector_22" d="M46.3511 67.8142H21.6493C21.2301 67.8142 20.8596 67.5356 20.7473 67.1342C20.635 66.7329 20.8035 66.3056 21.1628 66.0901L33.5136 58.6435C33.8131 58.4652 34.1873 58.4652 34.4867 58.6435L46.8376 66.0901C47.1969 66.3056 47.3653 66.7329 47.2531 67.1342C47.1408 67.5356 46.7703 67.8142 46.3511 67.8142ZM24.9915 65.9563H43.0051L33.9965 60.5275L24.9878 65.9563H24.9915Z" fill="#30216B"/>
</g>
<defs>
<radialGradient id="paint0_radial_1096_7310" cx="0" cy="0" r="1" gradientUnits="userSpaceOnUse" gradientTransform="translate(34.2882 40.6644) scale(30.196 27.2813)">
<stop stop-color="#ADA2D7"/>
<stop offset="0.37" stop-color="#B7ADDF"/>
<stop offset="1" stop-color="#D1CAF4"/>
</radialGradient>
<radialGradient id="paint1_radial_1096_7310" cx="0" cy="0" r="1" gradientUnits="userSpaceOnUse" gradientTransform="translate(34.127 17.3707) scale(19.8466 19.7042)">
<stop stop-color="white" stop-opacity="0.6"/>
<stop offset="0.42" stop-color="white" stop-opacity="0.33"/>
<stop offset="0.81" stop-color="white" stop-opacity="0.09"/>
<stop offset="1" stop-color="white" stop-opacity="0"/>
</radialGradient>
<radialGradient id="paint2_radial_1096_7310" cx="0" cy="0" r="1" gradientUnits="userSpaceOnUse" gradientTransform="translate(33.9993 37.344) scale(7.39556 3.67126)">
<stop stop-color="white" stop-opacity="0.6"/>
<stop offset="0.09" stop-color="white" stop-opacity="0.51"/>
<stop offset="0.31" stop-color="white" stop-opacity="0.33"/>
<stop offset="0.51" stop-color="white" stop-opacity="0.19"/>
<stop offset="0.7" stop-color="white" stop-opacity="0.08"/>
<stop offset="0.87" stop-color="white" stop-opacity="0.02"/>
<stop offset="1" stop-color="white" stop-opacity="0"/>
</radialGradient>
<clipPath id="clip0_1096_7310">
<rect width="68" height="68" fill="white"/>
</clipPath>
</defs>
</svg>
