<svg width="68" height="68" viewBox="0 0 68 68" fill="none" xmlns="http://www.w3.org/2000/svg">
<g id="vver.sad" clip-path="url(#clip0_1096_7291)">
<path id="Vector" d="M33.9996 67.8175C47.1108 67.8175 57.7395 65.3437 57.7395 62.2921C57.7395 59.2404 47.1108 56.7666 33.9996 56.7666C20.8885 56.7666 10.2598 59.2404 10.2598 62.2921C10.2598 65.3437 20.8885 67.8175 33.9996 67.8175Z" fill="#5843A8"/>
<path id="Vector_2" d="M34 63.541C51.6731 63.541 66 49.3169 66 31.7705C66 14.2241 51.6731 0 34 0C16.3269 0 2 14.2241 2 31.7705C2 49.3169 16.3269 63.541 34 63.541Z" fill="url(#paint0_radial_1096_7291)"/>
<path id="Vector_3" d="M33.9999 41.6171C47.849 41.6171 59.0759 30.3875 59.0759 16.5351C59.0759 2.6827 47.849 -8.54688 33.9999 -8.54688C20.1507 -8.54688 8.92383 2.6827 8.92383 16.5351C8.92383 30.3875 20.1507 41.6171 33.9999 41.6171Z" fill="url(#paint1_radial_1096_7291)"/>
<g id="Group">
<path id="Vector_4" d="M16.6675 54.8346C16.3194 54.8346 15.9826 54.6414 15.8216 54.3069C13.5086 49.5061 14.9309 44.1664 14.9945 43.9397C15.1292 43.4455 15.6457 43.1557 16.1435 43.2894C16.6413 43.4232 16.9369 43.936 16.8022 44.4302C16.7872 44.4897 15.5072 49.3463 17.5133 53.508C17.7379 53.9725 17.5395 54.5262 17.0717 54.7454C16.9407 54.8086 16.8022 54.8383 16.6675 54.8383V54.8346Z" fill="#30216B"/>
<path id="Vector_5" d="M15.2257 54.6044C15.6598 55.381 16.6441 55.6597 17.4264 55.2287C18.2086 54.7977 18.4893 53.8204 18.0551 53.0438C17.621 52.2672 16.6367 51.9885 15.8544 52.4195C15.0722 52.8505 14.7915 53.8278 15.2257 54.6044Z" fill="#30216B"/>
</g>
<g id="Group_2">
<path id="Vector_6" d="M52.511 54.8346C52.3762 54.8346 52.2378 54.8049 52.1068 54.7417C51.6389 54.5187 51.4443 53.9651 51.6651 53.5043C53.6712 49.3388 52.3875 44.4748 52.3762 44.4265C52.2415 43.9323 52.5372 43.4232 53.0349 43.2894C53.5327 43.1557 54.0455 43.4455 54.1839 43.9397C54.2476 44.1664 55.6698 49.5061 53.3568 54.3069C53.1959 54.6414 52.8628 54.8346 52.511 54.8346Z" fill="#30216B"/>
<path id="Vector_7" d="M51.1182 53.0477C50.6841 53.8243 50.9648 54.8016 51.747 55.2326C52.5292 55.6636 53.5136 55.3849 53.9477 54.6083C54.3819 53.8317 54.1012 52.8545 53.3189 52.4234C52.5367 51.9924 51.5524 52.2711 51.1182 53.0477Z" fill="#30216B"/>
</g>
<path id="Vector_8" d="M33.94 52.3078C45.9288 52.3078 55.6476 47.4832 55.6476 41.5318C55.6476 35.5804 45.9288 30.7559 33.94 30.7559C21.9512 30.7559 12.2324 35.5804 12.2324 41.5318C12.2324 47.4832 21.9512 52.3078 33.94 52.3078Z" fill="url(#paint2_radial_1096_7291)"/>
<path id="Vector_9" d="M27.6216 35.0405C27.3933 35.0405 27.1613 35.0256 26.933 34.9996C22.9283 34.5426 20.7388 30.2173 20.6453 30.0315C20.417 29.5708 20.6078 29.0134 21.0719 28.7867C21.536 28.5601 22.0937 28.7496 22.3257 29.2103C22.3594 29.2772 24.1784 32.8184 27.1575 33.1566C28.8605 33.3498 30.6906 32.4654 32.6032 30.5295C32.5208 30.4291 32.4422 30.3251 32.3674 30.2211C29.6502 26.5349 30.9639 24.7476 31.6563 24.1494C32.824 23.1424 34.8001 23.2464 35.9753 24.3797C36.5255 24.9111 38.1049 26.9214 35.2118 30.4217C35.1894 30.4514 35.1632 30.4812 35.1407 30.5109C37.2591 32.3985 39.9501 32.9745 41.9599 32.6364C43.0415 32.4543 44.9615 31.83 45.6277 29.6748C45.7812 29.1843 46.3051 28.9094 46.7954 29.058C47.2895 29.2103 47.5664 29.7268 47.413 30.2173C46.7094 32.4877 44.8343 34.0335 42.2668 34.4646C39.3625 34.9513 36.2149 33.9369 33.8906 31.882C31.7947 33.9815 29.6951 35.0405 27.6254 35.0405H27.6216ZM33.6212 25.3087C33.3367 25.3087 33.071 25.3867 32.8801 25.5502C32.4198 25.9478 32.4011 27.1183 33.8644 29.11C35.0471 27.6311 35.3466 26.3677 34.6654 25.71C34.3922 25.4462 33.9917 25.3087 33.6174 25.3087H33.6212Z" fill="#30216B"/>
<g id="Group_3">
<path id="Vector_10" d="M26.7608 40.1496C26.6486 38.5481 27.6104 37.6748 29.0027 37.5485C30.0207 37.4556 31.0612 37.9795 31.1398 39.295C31.2334 40.863 30.2715 41.7586 28.883 41.9109C27.8238 42.0261 26.8956 41.4093 26.7608 40.1496Z" fill="#30216B"/>
<path id="Vector_11" d="M41.2368 40.1496C41.3491 38.5481 40.3872 37.6748 38.9949 37.5485C37.9769 37.4556 36.9364 37.9795 36.8578 39.295C36.7643 40.863 37.7261 41.7586 39.1147 41.9109C40.1739 42.0261 41.102 41.4093 41.2368 40.1496Z" fill="#30216B"/>
</g>
<g id="Group_4">
<path id="Vector_12" d="M29.3215 39.525C29.6522 39.525 29.9203 39.2588 29.9203 38.9305C29.9203 38.6021 29.6522 38.3359 29.3215 38.3359C28.9908 38.3359 28.7227 38.6021 28.7227 38.9305C28.7227 39.2588 28.9908 39.525 29.3215 39.525Z" fill="#F3F0FF"/>
<path id="Vector_13" d="M38.6789 39.525C39.0096 39.525 39.2777 39.2588 39.2777 38.9305C39.2777 38.6021 39.0096 38.3359 38.6789 38.3359C38.3482 38.3359 38.0801 38.6021 38.0801 38.9305C38.0801 39.2588 38.3482 39.525 38.6789 39.525Z" fill="#F3F0FF"/>
</g>
<path id="Vector_14" d="M38.8061 48.0162C38.6377 48.0162 38.4693 47.9716 38.3159 47.8787C36.9498 47.0427 36.7177 47.1579 36.1526 47.4365C35.6548 47.6818 34.9736 48.0162 33.7984 48.0162C32.7991 48.0162 32.1516 47.6706 31.6801 47.418C31.1112 47.1133 30.8716 46.9869 29.9921 47.3771C29.5205 47.5852 28.9666 47.3771 28.757 46.9089C28.5474 46.4407 28.757 45.8908 29.2286 45.6827C30.9502 44.9209 31.8447 45.3965 32.5671 45.783C32.9601 45.9911 33.2707 46.1583 33.7984 46.1583C34.5357 46.1583 34.9175 45.9688 35.3217 45.7718C36.3322 45.2739 37.2118 45.0212 39.2964 46.2958C39.7343 46.5633 39.8728 47.1356 39.6033 47.574C39.4274 47.8602 39.1205 48.0162 38.8061 48.0162Z" fill="#30216B"/>
</g>
<defs>
<radialGradient id="paint0_radial_1096_7291" cx="0" cy="0" r="1" gradientUnits="userSpaceOnUse" gradientTransform="translate(34.2882 40.6607) scale(30.196 27.2813)">
<stop stop-color="#ADA2D7"/>
<stop offset="0.37" stop-color="#B7ADDF"/>
<stop offset="1" stop-color="#D1CAF4"/>
</radialGradient>
<radialGradient id="paint1_radial_1096_7291" cx="0" cy="0" r="1" gradientUnits="userSpaceOnUse" gradientTransform="translate(34.1102 17.3707) scale(19.8466 19.7042)">
<stop stop-color="white" stop-opacity="0.6"/>
<stop offset="0.42" stop-color="white" stop-opacity="0.33"/>
<stop offset="0.81" stop-color="white" stop-opacity="0.09"/>
<stop offset="1" stop-color="white" stop-opacity="0"/>
</radialGradient>
<radialGradient id="paint2_radial_1096_7291" cx="0" cy="0" r="1" gradientUnits="userSpaceOnUse" gradientTransform="translate(33.94 41.5318) scale(17.1602 8.51858)">
<stop stop-color="white" stop-opacity="0.6"/>
<stop offset="0.09" stop-color="white" stop-opacity="0.51"/>
<stop offset="0.31" stop-color="white" stop-opacity="0.33"/>
<stop offset="0.51" stop-color="white" stop-opacity="0.19"/>
<stop offset="0.7" stop-color="white" stop-opacity="0.08"/>
<stop offset="0.87" stop-color="white" stop-opacity="0.02"/>
<stop offset="1" stop-color="white" stop-opacity="0"/>
</radialGradient>
<clipPath id="clip0_1096_7291">
<rect width="68" height="68" fill="white"/>
</clipPath>
</defs>
</svg>
