<svg width="68" height="68" viewBox="0 0 68 68" fill="none" xmlns="http://www.w3.org/2000/svg">
<g id="ver.default" clip-path="url(#clip0_1096_7272)">
<path id="Vector" d="M33.9996 67.8175C47.1108 67.8175 57.7395 65.3437 57.7395 62.2921C57.7395 59.2404 47.1108 56.7666 33.9996 56.7666C20.8885 56.7666 10.2598 59.2404 10.2598 62.2921C10.2598 65.3437 20.8885 67.8175 33.9996 67.8175Z" fill="#5843A8"/>
<path id="Vector_2" d="M34 63.541C51.6731 63.541 66 49.3169 66 31.7705C66 14.2241 51.6731 0 34 0C16.3269 0 2 14.2241 2 31.7705C2 49.3169 16.3269 63.541 34 63.541Z" fill="url(#paint0_radial_1096_7272)"/>
<path id="Vector_3" d="M33.9999 41.6171C47.849 41.6171 59.0759 30.3875 59.0759 16.5351C59.0759 2.6827 47.849 -8.54688 33.9999 -8.54688C20.1507 -8.54688 8.92383 2.6827 8.92383 16.5351C8.92383 30.3875 20.1507 41.6171 33.9999 41.6171Z" fill="url(#paint1_radial_1096_7272)"/>
<path id="Vector_4" d="M32.067 35.4257C37.0789 34.176 40.6316 31.1459 40.0023 28.6579C39.3729 26.17 34.7997 25.1662 29.7878 26.4159C24.7759 27.6656 21.2231 30.6956 21.8525 33.1836C22.4819 35.6716 27.055 36.6754 32.067 35.4257Z" fill="url(#paint2_radial_1096_7272)"/>
<g id="Group">
<path id="Vector_5" d="M19.1512 55.6574C19.0188 55.5705 18.9094 55.4437 18.8379 55.2869C16.7679 50.5194 18.4122 45.1322 18.4848 44.9049C18.6418 44.4076 19.1634 44.1037 19.6505 44.2263C20.1355 44.352 20.4061 44.8549 20.2499 45.3573C20.2339 45.4063 18.7492 50.3116 20.5438 54.4493C20.7431 54.91 20.5234 55.467 20.0546 55.7001C19.7466 55.851 19.4069 55.8251 19.1512 55.6574Z" fill="#30216B"/>
<path id="Vector_6" d="M18.3987 55.5991C18.7948 56.3692 19.7597 56.6341 20.5552 56.1811C21.3485 55.7313 21.6757 54.7415 21.2766 53.9694C20.8804 53.1993 19.9156 52.9344 19.1201 53.3874C18.3268 53.8372 17.9995 54.8271 18.3987 55.5991Z" fill="#30216B"/>
</g>
<g id="Group_2">
<path id="Vector_7" d="M56.791 34.1197C56.8512 33.8032 56.7556 33.4679 56.5115 33.2503C56.1375 32.9169 55.5546 32.9789 55.2138 33.386C52.1222 37.0426 47.1857 37.9828 47.136 37.991C46.6325 38.084 46.2716 38.5772 46.3328 39.0933C46.394 39.6094 46.8474 39.9544 47.3501 39.8652C47.5802 39.8252 53.0064 38.8056 56.5678 34.5904C56.6874 34.4491 56.7587 34.2892 56.791 34.1197Z" fill="#30216B"/>
<path id="Vector_8" d="M54.6037 33.2519C55.1531 32.5187 56.152 32.3523 56.8306 32.8793C57.5092 33.4063 57.6131 34.4314 57.0637 35.1646C56.5143 35.8978 55.5154 36.0641 54.8368 35.5372C54.1582 35.0102 54.0544 33.985 54.6037 33.2519Z" fill="#30216B"/>
</g>
<g id="Group_3">
<path id="Vector_9" d="M23.7063 29.1485C23.2469 27.5536 23.9707 26.5178 25.2688 26.1644C26.2178 25.9054 27.324 26.2641 27.6884 27.5762C28.1226 29.1405 27.4037 30.1987 26.1149 30.5777C25.1315 30.8658 24.1118 30.3953 23.7063 29.1485Z" fill="#30216B"/>
<path id="Vector_10" d="M37.7919 26.542C37.5464 24.9106 36.4382 24.1874 35.0845 24.2863C34.0946 24.3581 33.219 25.0549 33.4337 26.3926C33.6897 27.9872 34.8028 28.7329 36.1586 28.6608C37.1927 28.6047 37.9409 27.8326 37.7919 26.542Z" fill="#30216B"/>
</g>
<path id="Vector_11" d="M23.5022 24.0151C23.2781 24.0579 23.0474 24.0869 22.8182 24.1042C18.7987 24.4069 15.8252 20.5705 15.698 20.4057C15.3861 19.9961 15.4674 19.4129 15.88 19.1032C16.2925 18.7935 16.8762 18.875 17.1918 19.2839C17.2376 19.3433 19.698 22.4793 22.6878 22.2522C24.3968 22.1224 26.0257 20.9105 27.5351 18.6505C27.4351 18.5674 27.3382 18.48 27.2448 18.3919C23.8748 15.2821 24.8246 13.2805 25.3906 12.5631C26.3455 11.3551 28.3058 11.0864 29.6756 11.9788C30.3171 12.3973 32.2507 14.0749 30.0762 18.0551C30.0598 18.0885 30.0398 18.1226 30.0234 18.156C32.4629 19.6121 35.2151 19.6727 37.1243 18.9634C38.1518 18.5817 39.9183 17.6083 40.1621 15.367C40.2194 14.8565 40.6816 14.4882 41.1914 14.5421C41.7055 14.599 42.0758 15.0542 42.0185 15.5647C41.7598 17.9262 40.2129 19.796 37.7737 20.7011C35.0144 21.7241 31.7304 21.3187 29.0569 19.7371C27.3985 22.192 25.5383 23.626 23.5059 24.0144L23.5022 24.0151ZM27.5408 13.3328C27.2615 13.3862 27.0154 13.5127 26.8591 13.709C26.4827 14.1859 26.6872 15.3388 28.5034 17.0199C29.3832 15.3457 29.4367 14.0489 28.6426 13.5309C28.3241 13.3231 27.9046 13.2633 27.5371 13.3335L27.5408 13.3328Z" fill="#30216B"/>
<path id="Vector_12" d="M33.0527 39.7739C30.7226 40.2192 28.4611 38.6988 28.0126 36.3854L27.6942 34.7434C27.6164 34.3421 27.8835 33.9505 28.2878 33.8732L35.2707 32.5387C35.675 32.4614 36.0694 32.7266 36.1472 33.128L36.4656 34.7699C36.9141 37.0833 35.3827 39.3286 33.0527 39.7739ZM29.3058 35.1923L29.4827 36.1045C29.7756 37.6151 31.2481 38.6051 32.7697 38.3143C34.2912 38.0235 35.2884 36.5615 34.9955 35.0509L34.8186 34.1387L29.3058 35.1923Z" fill="#30216B"/>
<g id="Group_4">
<path id="Vector_13" d="M26.0411 28.1152C26.3561 28.0614 26.5528 27.7497 26.4806 27.419C26.4083 27.0882 26.0943 26.8636 25.7793 26.9174C25.4643 26.9711 25.2676 27.2828 25.3399 27.6135C25.4121 27.9443 25.7261 28.1689 26.0411 28.1152Z" fill="#F3F0FF"/>
<path id="Vector_14" d="M35.2305 26.3593C35.5455 26.3056 35.7423 25.9939 35.67 25.6631C35.5977 25.3323 35.2838 25.1078 34.9688 25.1615C34.6538 25.2152 34.457 25.5269 34.5293 25.8577C34.6016 26.1885 34.9155 26.413 35.2305 26.3593Z" fill="#F3F0FF"/>
</g>
</g>
<defs>
<radialGradient id="paint0_radial_1096_7272" cx="0" cy="0" r="1" gradientUnits="userSpaceOnUse" gradientTransform="translate(34.2882 40.6607) scale(30.196 27.2813)">
<stop stop-color="#ADA2D7"/>
<stop offset="0.37" stop-color="#B7ADDF"/>
<stop offset="1" stop-color="#D1CAF4"/>
</radialGradient>
<radialGradient id="paint1_radial_1096_7272" cx="0" cy="0" r="1" gradientUnits="userSpaceOnUse" gradientTransform="translate(34.093 17.3707) scale(19.8466 19.7042)">
<stop stop-color="white" stop-opacity="0.6"/>
<stop offset="0.42" stop-color="white" stop-opacity="0.33"/>
<stop offset="0.81" stop-color="white" stop-opacity="0.09"/>
<stop offset="1" stop-color="white" stop-opacity="0"/>
</radialGradient>
<radialGradient id="paint2_radial_1096_7272" cx="0" cy="0" r="1" gradientUnits="userSpaceOnUse" gradientTransform="translate(30.9274 30.9208) rotate(-14.0012) scale(7.39242 3.67281)">
<stop stop-color="white" stop-opacity="0.6"/>
<stop offset="0.09" stop-color="white" stop-opacity="0.51"/>
<stop offset="0.31" stop-color="white" stop-opacity="0.33"/>
<stop offset="0.51" stop-color="white" stop-opacity="0.19"/>
<stop offset="0.7" stop-color="white" stop-opacity="0.08"/>
<stop offset="0.87" stop-color="white" stop-opacity="0.02"/>
<stop offset="1" stop-color="white" stop-opacity="0"/>
</radialGradient>
<clipPath id="clip0_1096_7272">
<rect width="68" height="68" fill="white"/>
</clipPath>
</defs>
</svg>
