<svg width="70" height="79" viewBox="0 0 70 79" fill="none" xmlns="http://www.w3.org/2000/svg">
<g clip-path="url(#clip0_1302_7762)">
<path d="M34.7441 59.8394C46.3128 59.8394 55.6911 57.6566 55.6911 54.964C55.6911 52.2714 46.3128 50.0886 34.7441 50.0886C23.1754 50.0886 13.7971 52.2714 13.7971 54.964C13.7971 57.6566 23.1754 59.8394 34.7441 59.8394Z" fill="#5843A8"/>
<path d="M34.7441 56.0656C50.338 56.0656 62.9794 43.5149 62.9794 28.0328C62.9794 12.5507 50.338 0 34.7441 0C19.1502 0 6.50882 12.5507 6.50882 28.0328C6.50882 43.5149 19.1502 56.0656 34.7441 56.0656Z" fill="url(#paint0_radial_1302_7762)"/>
<path d="M34.7441 36.7213C46.9639 36.7213 56.87 26.8128 56.87 14.5901C56.87 2.36744 46.9639 -7.54102 34.7441 -7.54102C22.5243 -7.54102 12.6182 2.36744 12.6182 14.5901C12.6182 26.8128 22.5243 36.7213 34.7441 36.7213Z" fill="url(#paint1_radial_1302_7762)"/>
<path d="M34.7441 33.3671C39.3037 33.3671 43 31.5322 43 29.2688C43 27.0053 39.3037 25.1704 34.7441 25.1704C30.1845 25.1704 26.4882 27.0053 26.4882 29.2688C26.4882 31.5322 30.1845 33.3671 34.7441 33.3671Z" fill="url(#paint2_radial_1302_7762)"/>
<path d="M25.121 48.4329C24.9757 48.4329 24.8271 48.3936 24.6917 48.3149C20.6529 45.8755 19.1074 41.2493 19.0446 41.0526C18.9059 40.6231 19.1437 40.1608 19.5763 40.0198C20.0089 39.8821 20.4745 40.1149 20.6165 40.5477C20.6297 40.5903 22.0465 44.7968 25.5503 46.9149C25.94 47.1509 26.0622 47.6526 25.8277 48.0395C25.6725 48.2919 25.4017 48.4329 25.121 48.4329Z" fill="#30216B"/>
<path d="M24.3978 48.823C25.0946 49.187 25.9598 48.9247 26.3264 48.2296C26.6929 47.5378 26.4287 46.6788 25.7286 46.3148C25.0318 45.9509 24.1666 46.2132 23.8 46.9083C23.4335 47.6001 23.6977 48.4591 24.3978 48.823Z" fill="#30216B"/>
<path d="M44.3672 48.4328C44.0898 48.4328 43.8157 48.2919 43.6605 48.0394C43.4227 47.6525 43.5482 47.1476 43.9379 46.9148C47.4417 44.7968 48.8584 40.5902 48.8716 40.5476C49.0136 40.1181 49.4793 39.882 49.9119 40.023C50.3445 40.164 50.5823 40.623 50.4436 41.0525C50.3808 41.2492 48.8353 45.8755 44.7965 48.3148C44.6611 48.3968 44.5158 48.4328 44.3672 48.4328Z" fill="#30216B"/>
<path d="M43.7563 46.3149C43.0595 46.6789 42.792 47.5379 43.1585 48.2297C43.5251 48.9215 44.3903 49.1871 45.0871 48.8231C45.7839 48.4592 46.0514 47.6002 45.6848 46.9084C45.3183 46.2166 44.4531 45.951 43.7563 46.3149Z" fill="#30216B"/>
<path d="M28.3573 27.5574C28.2582 26.1443 29.1069 25.3738 30.3354 25.2624C31.2337 25.1804 32.1517 25.6427 32.2211 26.8034C32.3036 28.187 31.4549 28.9771 30.2298 29.1115C29.2952 29.2132 28.4762 28.6689 28.3573 27.5574Z" fill="#30216B"/>
<path d="M41.1309 27.5574C41.23 26.1443 40.3812 25.3738 39.1528 25.2624C38.2545 25.1804 37.3365 25.6427 37.2671 26.8034C37.1845 28.187 38.0333 28.9771 39.2584 29.1115C40.193 29.2132 41.012 28.6689 41.1309 27.5574Z" fill="#30216B"/>
<path d="M29.1169 23.0491C28.9154 23.0491 28.7107 23.036 28.5092 23.013C24.9757 22.6097 23.0438 18.7933 22.9613 18.6294C22.7598 18.2229 22.9282 17.731 23.3377 17.531C23.7472 17.331 24.2393 17.4983 24.444 17.9048C24.4737 17.9638 26.0787 21.0884 28.7074 21.3868C30.21 21.5573 31.8248 20.7769 33.5123 19.0688C33.4397 18.9802 33.3703 18.8884 33.3043 18.7966C30.9068 15.5442 32.0659 13.9671 32.6768 13.4392C33.7072 12.5507 35.4508 12.6425 36.4878 13.6425C36.9732 14.1114 38.3668 15.8851 35.8141 18.9737C35.7943 18.9999 35.7712 19.0261 35.7513 19.0524C37.6205 20.7179 39.9949 21.2261 41.7683 20.9278C42.7227 20.7671 44.4168 20.2163 45.0046 18.3147C45.14 17.8819 45.6023 17.6392 46.0349 17.7704C46.4709 17.9048 46.7152 18.3606 46.5798 18.7933C45.959 20.7966 44.3045 22.1606 42.0391 22.5409C39.4764 22.9704 36.6991 22.0753 34.6484 20.2622C32.799 22.1147 30.9464 23.0491 29.1202 23.0491H29.1169ZM34.4106 14.4622C34.1596 14.4622 33.9251 14.531 33.7567 14.6753C33.3505 15.0261 33.334 16.0589 34.6252 17.8163C35.6688 16.5114 35.933 15.3966 35.3319 14.8163C35.0909 14.5835 34.7375 14.4622 34.4073 14.4622H34.4106Z" fill="#30216B"/>
<path d="M34.7441 38.2852C32.6504 38.2852 30.9464 36.5934 30.9464 34.5147V33.0393C30.9464 32.6786 31.2436 32.3835 31.6069 32.3835H37.8814C38.2446 32.3835 38.5418 32.6786 38.5418 33.0393V34.5147C38.5418 36.5934 36.8378 38.2852 34.7441 38.2852ZM32.2673 33.695V34.5147C32.2673 35.8721 33.3769 36.9737 34.7441 36.9737C36.1113 36.9737 37.2209 35.8721 37.2209 34.5147V33.695H32.2673Z" fill="#30216B"/>
<path d="M30.6161 27.0065C30.908 27.0065 31.1445 26.7716 31.1445 26.4819C31.1445 26.1921 30.908 25.9573 30.6161 25.9573C30.3243 25.9573 30.0878 26.1921 30.0878 26.4819C30.0878 26.7716 30.3243 27.0065 30.6161 27.0065Z" fill="#F3F0FF"/>
<path d="M38.8721 27.0065C39.1639 27.0065 39.4004 26.7716 39.4004 26.4819C39.4004 26.1921 39.1639 25.9573 38.8721 25.9573C38.5803 25.9573 38.3437 26.1921 38.3437 26.4819C38.3437 26.7716 38.5803 27.0065 38.8721 27.0065Z" fill="#F3F0FF"/>
</g>
<path d="M68.7615 68.6855C69.246 68.899 69.4882 69.1577 69.4882 69.4615C69.4882 69.6094 69.4554 69.749 69.3897 69.8804C69.324 70.0118 69.2911 70.0816 69.2911 70.0898L66.0637 77.3084C65.998 77.4644 65.9405 77.5835 65.8913 77.6656C65.8502 77.7478 65.7804 77.8258 65.6818 77.8997C65.5833 77.9736 65.4601 78.0105 65.3123 78.0105C65.1645 78.0105 64.9468 77.949 64.6594 77.8258C64.1749 77.6123 63.9326 77.3577 63.9326 77.062C63.9326 76.8649 64.3268 75.9246 65.1152 74.2411L62.6638 70.1144C62.4996 69.8434 62.4174 69.6422 62.4174 69.5108C62.4174 69.248 62.6392 68.9852 63.0827 68.7224C63.3619 68.5582 63.5795 68.4761 63.7355 68.4761C63.8916 68.4761 64.0188 68.5089 64.1174 68.5746C64.2159 68.6403 64.2857 68.7101 64.3268 68.784C64.3761 68.8497 64.6019 69.2316 65.0043 69.9297C65.4149 70.6195 65.805 71.2641 66.1746 71.8636C66.2156 71.7322 66.4374 71.2272 66.8398 70.3485C67.2422 69.4615 67.4557 68.9893 67.4803 68.9319C67.5132 68.8744 67.5625 68.8046 67.6282 68.7224C67.7349 68.5828 67.8827 68.513 68.0716 68.513C68.2687 68.513 68.4987 68.5705 68.7615 68.6855Z" fill="#8573C9"/>
<path d="M61.7519 68.6853C61.9079 68.7346 62.0352 68.8208 62.1337 68.944C62.2405 69.059 62.2939 69.2478 62.2939 69.5106C62.2939 69.7734 62.2159 70.0609 62.0598 70.3729C61.9038 70.685 61.6779 70.841 61.3823 70.841C61.2345 70.841 61.0908 70.8082 60.9512 70.7425C60.8198 70.6768 60.6432 70.6439 60.4215 70.6439C60.1997 70.6439 59.9903 70.722 59.7932 70.878C59.6043 71.034 59.5099 71.2229 59.5099 71.4446V74.0315C59.5099 74.2204 59.5017 74.3641 59.4853 74.4627C59.4771 74.553 59.4401 74.6598 59.3744 74.7829C59.2512 74.9965 58.9309 75.1032 58.4136 75.1032C58.0194 75.1032 57.736 75.0334 57.5636 74.8938C57.4322 74.7788 57.3583 74.6023 57.3419 74.3641C57.3419 74.282 57.3419 74.1629 57.3419 74.0069V69.6831C57.3419 69.4942 57.346 69.3546 57.3542 69.2643C57.3706 69.1657 57.4076 69.059 57.465 68.944C57.58 68.7223 57.9003 68.6114 58.4259 68.6114C58.9186 68.6114 59.2266 68.7058 59.3498 68.8947C59.4401 69.0261 59.4853 69.1616 59.4853 69.3012C59.5263 69.2437 59.5838 69.1739 59.6577 69.0918C59.7399 69.0097 59.9082 68.8988 60.1628 68.7592C60.4174 68.6196 60.6391 68.5498 60.828 68.5498C61.0251 68.5498 61.1893 68.5621 61.3207 68.5868C61.4521 68.6032 61.5958 68.636 61.7519 68.6853Z" fill="#8573C9"/>
<path d="M56.3683 68.6853C56.5244 68.7346 56.6516 68.8208 56.7502 68.944C56.8569 69.059 56.9103 69.2478 56.9103 69.5106C56.9103 69.7734 56.8323 70.0609 56.6763 70.3729C56.5202 70.685 56.2944 70.841 55.9988 70.841C55.8509 70.841 55.7072 70.8082 55.5676 70.7425C55.4362 70.6768 55.2597 70.6439 55.0379 70.6439C54.8162 70.6439 54.6068 70.722 54.4097 70.878C54.2208 71.034 54.1264 71.2229 54.1264 71.4446V74.0315C54.1264 74.2204 54.1181 74.3641 54.1017 74.4627C54.0935 74.553 54.0566 74.6598 53.9909 74.7829C53.8677 74.9965 53.5474 75.1032 53.03 75.1032C52.6358 75.1032 52.3525 75.0334 52.18 74.8938C52.0486 74.7788 51.9747 74.6023 51.9583 74.3641C51.9583 74.282 51.9583 74.1629 51.9583 74.0069V69.6831C51.9583 69.4942 51.9624 69.3546 51.9706 69.2643C51.9871 69.1657 52.024 69.059 52.0815 68.944C52.1965 68.7223 52.5167 68.6114 53.0423 68.6114C53.5351 68.6114 53.843 68.7058 53.9662 68.8947C54.0566 69.0261 54.1017 69.1616 54.1017 69.3012C54.1428 69.2437 54.2003 69.1739 54.2742 69.0918C54.3563 69.0097 54.5247 68.8988 54.7792 68.7592C55.0338 68.6196 55.2555 68.5498 55.4444 68.5498C55.6415 68.5498 55.8058 68.5621 55.9372 68.5868C56.0686 68.6032 56.2123 68.636 56.3683 68.6853Z" fill="#8573C9"/>
<path d="M44.6337 71.8635C44.6337 70.878 44.9786 70.065 45.6684 69.4245C46.3582 68.7839 47.1466 68.4636 48.0336 68.4636C48.9205 68.4636 49.7048 68.7839 50.3864 69.4245C51.068 70.0568 51.4088 70.8657 51.4088 71.8512C51.4088 72.5328 51.2322 73.1405 50.8791 73.6743C50.526 74.1999 50.0948 74.59 49.5857 74.8446C49.0847 75.0909 48.5632 75.2141 48.0212 75.2141C47.4792 75.2141 46.9536 75.0827 46.4445 74.8199C45.9353 74.5489 45.5042 74.1547 45.151 73.6374C44.8061 73.1118 44.6337 72.5205 44.6337 71.8635ZM47.2082 72.7504C47.471 72.9475 47.7379 73.0461 48.0089 73.0461C48.2799 73.0461 48.5509 72.9434 48.8219 72.7381C49.0929 72.5328 49.2284 72.229 49.2284 71.8266C49.2284 71.4242 49.1012 71.1244 48.8466 70.9273C48.592 70.7302 48.3169 70.6317 48.0212 70.6317C47.7256 70.6317 47.4505 70.7343 47.1959 70.9396C46.9413 71.1449 46.814 71.4488 46.814 71.8512C46.814 72.2454 46.9454 72.5451 47.2082 72.7504Z" fill="#8573C9"/>
<path d="M44.4278 66.1232C44.978 66.3203 45.2531 66.5831 45.2531 66.9116C45.2531 67.0183 45.2039 67.2195 45.1053 67.5152L42.7402 74.3519C42.7237 74.4094 42.695 74.4792 42.6539 74.5613C42.6129 74.6434 42.502 74.7543 42.3213 74.8939C42.1489 75.0253 41.9395 75.091 41.6931 75.091C41.4549 75.091 41.2455 75.0253 41.0649 74.8939C40.8924 74.7543 40.7774 74.6188 40.7199 74.4874L39.2787 70.2375C38.3671 72.9312 37.9031 74.3026 37.8867 74.3519C37.8703 74.4012 37.8333 74.471 37.7758 74.5613C37.7183 74.6517 37.6526 74.7338 37.5787 74.8077C37.3899 74.9966 37.164 75.091 36.9012 75.091C36.6384 75.091 36.4208 75.0294 36.2483 74.9062C36.0841 74.783 35.9732 74.6599 35.9157 74.5367L35.8295 74.3519L33.4521 67.5152C33.3617 67.2442 33.3166 67.043 33.3166 66.9116C33.3166 66.5831 33.5917 66.3244 34.1419 66.1355C34.38 66.0534 34.5936 66.0123 34.7825 66.0123C34.9795 66.0123 35.1274 66.078 35.2259 66.2094C35.3327 66.3408 35.4271 66.542 35.5092 66.813L36.8643 70.9274L38.207 66.8746C38.3219 66.5297 38.5314 66.2915 38.8352 66.1601C38.9666 66.1027 39.135 66.0739 39.3403 66.0739C39.5538 66.0739 39.7509 66.1437 39.9316 66.2833C40.1122 66.4147 40.2272 66.5461 40.2765 66.6775L41.6931 70.952L43.0481 66.813C43.1138 66.6241 43.1672 66.4845 43.2083 66.3942C43.2493 66.3039 43.3232 66.2176 43.43 66.1355C43.545 66.0452 43.6846 66 43.8488 66C44.0131 66 44.2061 66.0411 44.4278 66.1232Z" fill="#8573C9"/>
<path d="M29.2373 70.7917L28.4366 70.7425V72.4424C28.4366 72.6641 28.4695 72.8243 28.5352 72.9228C28.6091 73.0214 28.7405 73.0706 28.9294 73.0706C29.1265 73.0706 29.2743 73.0789 29.3728 73.0953C29.4796 73.1035 29.5905 73.1404 29.7054 73.2061C29.8943 73.3129 29.9888 73.588 29.9888 74.0315C29.9888 74.5489 29.8738 74.865 29.6439 74.98C29.5207 75.0375 29.4098 75.0744 29.3113 75.0909C29.2209 75.0991 29.0854 75.1032 28.9047 75.1032C28.0507 75.1032 27.4019 74.9102 26.9584 74.5242C26.515 74.1382 26.2932 73.4854 26.2932 72.5656V70.7425C26.1372 70.7671 25.9689 70.7794 25.7882 70.7794C25.6075 70.7794 25.4556 70.7096 25.3324 70.57C25.2174 70.4304 25.1599 70.1922 25.1599 69.8555C25.1599 69.5188 25.1805 69.2766 25.2215 69.1287C25.2626 68.9727 25.3201 68.8618 25.394 68.7961C25.5254 68.6894 25.6896 68.636 25.8867 68.636L26.2932 68.6853V67.4165C26.2932 67.2276 26.2973 67.088 26.3056 66.9976C26.322 66.9073 26.363 66.8088 26.4287 66.702C26.5355 66.4967 26.8517 66.394 27.3773 66.394C27.9357 66.394 28.2683 66.546 28.3751 66.8498C28.4161 66.9812 28.4366 67.1906 28.4366 67.4781V68.6853C28.798 68.6524 29.069 68.636 29.2497 68.636C29.4385 68.636 29.5782 68.6442 29.6685 68.6606C29.767 68.6688 29.8779 68.7058 30.0011 68.7715C30.2146 68.8783 30.3214 69.1944 30.3214 69.72C30.3214 70.2374 30.2105 70.5536 29.9888 70.6685C29.8656 70.726 29.7547 70.763 29.6562 70.7794C29.5658 70.7876 29.4262 70.7917 29.2373 70.7917Z" fill="#ADA2D7"/>
<path d="M24.7004 66.3327C24.84 66.4723 24.9098 66.7104 24.9098 67.0471V67.2442C24.9098 67.4495 24.9016 67.6015 24.8852 67.7C24.8277 68.4227 24.6142 69.0427 24.2446 69.5601C23.8751 70.0775 23.407 70.3362 22.8403 70.3362C22.7828 70.3362 22.7294 70.2951 22.6802 70.213C22.6391 70.1226 22.6186 70.0077 22.6186 69.8681C22.6186 69.7284 22.635 69.6217 22.6679 69.5478C22.7089 69.4657 22.75 69.4205 22.791 69.4123C22.8403 69.3958 22.8773 69.3876 22.9019 69.3876C22.9265 69.3794 22.9717 69.3589 23.0374 69.326C23.1031 69.285 23.1606 69.2316 23.2099 69.1659C23.3413 68.9934 23.4152 68.7265 23.4316 68.3652C23.1524 68.3241 22.943 68.2338 22.8034 68.0942C22.672 67.9546 22.6063 67.6589 22.6063 67.2073C22.6063 66.8788 22.6473 66.6365 22.7294 66.4805C22.8116 66.3162 22.9348 66.2095 23.099 66.1602C23.2715 66.1027 23.5343 66.074 23.8874 66.074C24.2405 66.074 24.5115 66.1602 24.7004 66.3327Z" fill="#ADA2D7"/>
<path d="M19.1763 68.6116C19.9975 68.6116 20.6791 68.9277 21.2211 69.5601C21.7713 70.1842 22.0465 70.948 22.0465 71.8513V74.0194C22.0465 74.2083 22.0382 74.352 22.0218 74.4505C22.0136 74.5408 21.9808 74.6435 21.9233 74.7585C21.8083 74.9802 21.488 75.0911 20.9624 75.0911C20.3794 75.0911 20.0427 74.9391 19.9523 74.6353C19.903 74.4957 19.8784 74.2863 19.8784 74.007V71.839C19.8784 71.5023 19.7799 71.2395 19.5828 71.0506C19.3939 70.8617 19.1352 70.7673 18.8067 70.7673C18.4864 70.7673 18.2236 70.8658 18.0183 71.0629C17.8212 71.26 17.7227 71.5187 17.7227 71.839V74.0194C17.7227 74.2083 17.7145 74.352 17.698 74.4505C17.6898 74.5408 17.6529 74.6435 17.5872 74.7585C17.4804 74.9802 17.1642 75.0911 16.6387 75.0911C16.1213 75.0911 15.8051 74.9802 15.6901 74.7585C15.6327 74.6353 15.5957 74.5285 15.5793 74.4382C15.5711 74.3396 15.567 74.1959 15.567 74.007V69.6463C15.567 69.4657 15.5711 69.3301 15.5793 69.2398C15.5957 69.1413 15.6368 69.0345 15.7025 68.9195C15.8174 68.7142 16.1336 68.6116 16.651 68.6116C17.1519 68.6116 17.4599 68.706 17.5749 68.8949C17.657 69.0345 17.698 69.2029 17.698 69.4C17.7309 69.3425 17.8048 69.2603 17.9198 69.1536C18.0347 69.0468 18.1456 68.9606 18.2524 68.8949C18.5316 68.706 18.8396 68.6116 19.1763 68.6116Z" fill="#ADA2D7"/>
<path d="M8.24228 71.8635C8.24228 70.878 8.5872 70.065 9.27703 69.4245C9.96686 68.7839 10.7552 68.4636 11.6422 68.4636C12.5291 68.4636 13.3134 68.7839 13.995 69.4245C14.6766 70.0568 15.0174 70.8657 15.0174 71.8512C15.0174 72.5328 14.8409 73.1405 14.4877 73.6743C14.1346 74.1999 13.7035 74.59 13.1943 74.8446C12.6933 75.0909 12.1719 75.2141 11.6299 75.2141C11.0878 75.2141 10.5623 75.0827 10.0531 74.8199C9.54393 74.5489 9.11278 74.1547 8.75965 73.6374C8.41474 73.1118 8.24228 72.5205 8.24228 71.8635ZM10.8168 72.7504C11.0796 72.9475 11.3465 73.0461 11.6175 73.0461C11.8885 73.0461 12.1595 72.9434 12.4305 72.7381C12.7016 72.5328 12.8371 72.229 12.8371 71.8266C12.8371 71.4242 12.7098 71.1244 12.4552 70.9273C12.2006 70.7302 11.9255 70.6317 11.6299 70.6317C11.3342 70.6317 11.0591 70.7343 10.8045 70.9396C10.5499 71.1449 10.4226 71.4488 10.4226 71.8512C10.4226 72.2454 10.554 72.5451 10.8168 72.7504Z" fill="#ADA2D7"/>
<path d="M1.09634 66.0615L3.37525 66.0738C4.56604 66.0738 5.6131 66.505 6.51646 67.3673C7.41981 68.2214 7.87148 69.2766 7.87148 70.5331C7.87148 71.7814 7.42802 72.8531 6.54109 73.7482C5.66238 74.6434 4.59478 75.0909 3.3383 75.0909H1.08402C0.583073 75.0909 0.271006 74.9883 0.147821 74.783C0.0492738 74.6105 0 74.3477 0 73.9946V67.1455C0 66.9485 0.00410614 66.8047 0.0123184 66.7144C0.028743 66.6241 0.0698045 66.5173 0.135503 66.3941C0.250475 66.1724 0.570754 66.0615 1.09634 66.0615ZM3.37525 72.9106C3.96654 72.9106 4.50034 72.693 4.97665 72.2577C5.45296 71.8142 5.69112 71.2599 5.69112 70.5947C5.69112 69.9295 5.45707 69.3752 4.98897 68.9317C4.52908 68.48 3.98707 68.2542 3.36293 68.2542H2.18036V72.9106H3.37525Z" fill="#ADA2D7"/>
<defs>
<radialGradient id="paint0_radial_1302_7762" cx="0" cy="0" r="1" gradientUnits="userSpaceOnUse" gradientTransform="translate(34.9984 35.8771) scale(26.6435 24.0717)">
<stop stop-color="#ADA2D7"/>
<stop offset="0.37" stop-color="#B7ADDF"/>
<stop offset="1" stop-color="#D1CAF4"/>
</radialGradient>
<radialGradient id="paint1_radial_1302_7762" cx="0" cy="0" r="1" gradientUnits="userSpaceOnUse" gradientTransform="translate(34.8263 15.3274) scale(17.5117 17.3861)">
<stop stop-color="white" stop-opacity="0.6"/>
<stop offset="0.42" stop-color="white" stop-opacity="0.33"/>
<stop offset="0.81" stop-color="white" stop-opacity="0.09"/>
<stop offset="1" stop-color="white" stop-opacity="0"/>
</radialGradient>
<radialGradient id="paint2_radial_1302_7762" cx="0" cy="0" r="1" gradientUnits="userSpaceOnUse" gradientTransform="translate(34.7441 29.2688) scale(6.52549 3.23934)">
<stop stop-color="white" stop-opacity="0.6"/>
<stop offset="0.09" stop-color="white" stop-opacity="0.51"/>
<stop offset="0.31" stop-color="white" stop-opacity="0.33"/>
<stop offset="0.51" stop-color="white" stop-opacity="0.19"/>
<stop offset="0.7" stop-color="white" stop-opacity="0.08"/>
<stop offset="0.87" stop-color="white" stop-opacity="0.02"/>
<stop offset="1" stop-color="white" stop-opacity="0"/>
</radialGradient>
<clipPath id="clip0_1302_7762">
<rect width="60" height="60" fill="white" transform="translate(4.74411)"/>
</clipPath>
</defs>
</svg>
